<svg xmlns="http://www.w3.org/2000/svg" xmlns:xlink="http://www.w3.org/1999/xlink" contentStyleType="text/css" data-diagram-type="CLASS" height="870px" preserveAspectRatio="none" style="width:3077px;height:870px;background:#FFFFFF;" version="1.1" viewBox="0 0 3077 870" width="3077px" zoomAndPan="magnify"><title>Application Layer - Class Diagram</title><defs/><g><g class="title" data-source-line="2"><text fill="#000000" font-family="Verdana" font-size="22" font-weight="bold" lengthAdjust="spacing" textLength="417.0654" x="1325.9512" y="37.1182">Application Layer - Class Diagram</text></g><!--cluster Application Layer--><g class="cluster" data-entity="Application Layer" data-source-line="4" data-uid="ent0002" id="cluster_Application Layer"><path d="M13.5,58.7373 L151.2803,58.7373 A3.75,3.75 0 0 1 153.7803,61.2373 L160.7803,81.752 L2475.5,81.752 A2.5,2.5 0 0 1 2478,84.252 L2478,717.3673 A2.5,2.5 0 0 1 2475.5,719.8673 L13.5,719.8673 A2.5,2.5 0 0 1 11,717.3673 L11,61.2373 A2.5,2.5 0 0 1 13.5,58.7373" fill="#FFFFFF" style="stroke:#000000;stroke-width:1;"/><line style="stroke:#000000;stroke-width:1;" x1="11" x2="160.7803" y1="81.752" y2="81.752"/><text fill="#000000" font-family="Verdana" font-size="14" font-weight="bold" lengthAdjust="spacing" textLength="136.7803" x="15" y="74.8125">Application Layer</text></g><!--cluster port--><g class="cluster" data-entity="port" data-source-line="6" data-uid="ent0005" id="cluster_port"><path d="M37.5,357.8273 L71.2373,357.8273 A3.75,3.75 0 0 1 73.7373,360.3273 L80.7373,380.842 L1360.5,380.842 A2.5,2.5 0 0 1 1363,383.342 L1363,536.3373 A2.5,2.5 0 0 1 1360.5,538.8373 L37.5,538.8373 A2.5,2.5 0 0 1 35,536.3373 L35,360.3273 A2.5,2.5 0 0 1 37.5,357.8273" fill="#FFFFFF" style="stroke:#000000;stroke-width:1;"/><line style="stroke:#000000;stroke-width:1;" x1="35" x2="80.7373" y1="380.842" y2="380.842"/><text fill="#000000" font-family="Verdana" font-size="14" font-weight="bold" lengthAdjust="spacing" textLength="32.7373" x="39" y="373.9025">port</text></g><!--cluster input--><g class="cluster" data-entity="input" data-source-line="5" data-uid="ent0003" id="cluster_input"><path d="M61.5,401.8273 L103.3994,401.8273 A3.75,3.75 0 0 1 105.8994,404.3273 L112.8994,424.842 L804.5,424.842 A2.5,2.5 0 0 1 807,427.342 L807,512.3373 A2.5,2.5 0 0 1 804.5,514.8373 L61.5,514.8373 A2.5,2.5 0 0 1 59,512.3373 L59,404.3273 A2.5,2.5 0 0 1 61.5,401.8273" fill="#FFFFFF" style="stroke:#000000;stroke-width:1;"/><line style="stroke:#000000;stroke-width:1;" x1="59" x2="112.8994" y1="424.842" y2="424.842"/><text fill="#000000" font-family="Verdana" font-size="14" font-weight="bold" lengthAdjust="spacing" textLength="40.8994" x="63" y="417.9025">input</text></g><!--cluster output--><g class="cluster" data-entity="output" data-source-line="11" data-uid="ent0006" id="cluster_output"><path d="M833.5,401.8273 L886.6035,401.8273 A3.75,3.75 0 0 1 889.1035,404.3273 L896.1035,424.842 L1336.5,424.842 A2.5,2.5 0 0 1 1339,427.342 L1339,512.3373 A2.5,2.5 0 0 1 1336.5,514.8373 L833.5,514.8373 A2.5,2.5 0 0 1 831,512.3373 L831,404.3273 A2.5,2.5 0 0 1 833.5,401.8273" fill="#FFFFFF" style="stroke:#000000;stroke-width:1;"/><line style="stroke:#000000;stroke-width:1;" x1="831" x2="896.1035" y1="424.842" y2="424.842"/><text fill="#000000" font-family="Verdana" font-size="14" font-weight="bold" lengthAdjust="spacing" textLength="52.1035" x="835" y="417.9025">output</text></g><!--cluster usecase--><g class="cluster" data-entity="usecase" data-source-line="17" data-uid="ent0008" id="cluster_usecase"><path d="M1535.5,102.7373 L1599.2676,102.7373 A3.75,3.75 0 0 1 1601.7676,105.2373 L1608.7676,125.752 L2278.5,125.752 A2.5,2.5 0 0 1 2281,128.252 L2281,306.3273 A2.5,2.5 0 0 1 2278.5,308.8273 L1535.5,308.8273 A2.5,2.5 0 0 1 1533,306.3273 L1533,105.2373 A2.5,2.5 0 0 1 1535.5,102.7373" fill="#FFFFFF" style="stroke:#000000;stroke-width:1;"/><line style="stroke:#000000;stroke-width:1;" x1="1533" x2="1608.7676" y1="125.752" y2="125.752"/><text fill="#000000" font-family="Verdana" font-size="14" font-weight="bold" lengthAdjust="spacing" textLength="62.7676" x="1537" y="118.8125">usecase</text></g><!--cluster dto--><g class="cluster" data-entity="dto" data-source-line="30" data-uid="ent0010" id="cluster_dto"><path d="M1389.5,386.5173 L1416.2783,386.5173 A3.75,3.75 0 0 1 1418.7783,389.0173 L1425.7783,409.532 L1837.5,409.532 A2.5,2.5 0 0 1 1840,412.032 L1840,527.6473 A2.5,2.5 0 0 1 1837.5,530.1473 L1389.5,530.1473 A2.5,2.5 0 0 1 1387,527.6473 L1387,389.0173 A2.5,2.5 0 0 1 1389.5,386.5173" fill="#FFFFFF" style="stroke:#000000;stroke-width:1;"/><line style="stroke:#000000;stroke-width:1;" x1="1387" x2="1425.7783" y1="409.532" y2="409.532"/><text fill="#000000" font-family="Verdana" font-size="14" font-weight="bold" lengthAdjust="spacing" textLength="25.7783" x="1391" y="402.5925">dto</text></g><!--cluster error--><g class="cluster" data-entity="error" data-source-line="42" data-uid="ent0013" id="cluster_error"><path d="M1866.5,410.3273 L1907.2852,410.3273 A3.75,3.75 0 0 1 1909.7852,412.8273 L1916.7852,433.342 L2451.5,433.342 A2.5,2.5 0 0 1 2454,435.842 L2454,693.3673 A2.5,2.5 0 0 1 2451.5,695.8673 L1866.5,695.8673 A2.5,2.5 0 0 1 1864,693.3673 L1864,412.8273 A2.5,2.5 0 0 1 1866.5,410.3273" fill="#FFFFFF" style="stroke:#000000;stroke-width:1;"/><line style="stroke:#000000;stroke-width:1;" x1="1864" x2="1916.7852" y1="433.342" y2="433.342"/><text fill="#000000" font-family="Verdana" font-size="14" font-weight="bold" lengthAdjust="spacing" textLength="39.7852" x="1868" y="426.4025">error</text></g><!--cluster Domain Layer--><g class="cluster" data-entity="Domain Layer" data-source-line="65" data-uid="ent0021" id="cluster_Domain Layer"><rect fill="#FFFFFF" height="96" rx="2.5" ry="2.5" style="stroke:#000000;stroke-width:1;" width="476" x="2416" y="768.8673"/><text fill="#000000" font-family="Verdana" font-size="14" font-weight="bold" lengthAdjust="spacing" textLength="108.582" x="2599.709" y="784.9425">Domain Layer</text></g><!--class CreateGreetingInputPort--><g class="entity" data-entity="CreateGreetingInputPort" data-source-line="6" data-uid="ent0004" id="entity_CreateGreetingInputPort"><rect fill="#FFFFFF" height="61.0146" rx="2.5" ry="2.5" style="stroke:#000000;stroke-width:1;" width="715.3184" x="75.34" y="437.8273"/><ellipse cx="342.7165" cy="451.8273" fill="#FFFFFF" rx="9" ry="9" style="stroke:#000000;stroke-width:1;"/><path d="M339.1442,448.0924 L339.1442,445.9342 L346.5236,445.9342 L346.5236,448.0924 L344.0583,448.0924 L344.0583,456.1691 L346.5236,456.1691 L346.5236,458.3273 L339.1442,458.3273 L339.1442,456.1691 L341.6095,456.1691 L341.6095,448.0924 Z " fill="#000000"/><text fill="#000000" font-family="Verdana" font-size="14" font-style="italic" lengthAdjust="spacing" textLength="173.0654" x="360.2165" y="457.3952">CreateGreetingInputPort</text><line style="stroke:#000000;stroke-width:1;" x1="76.34" x2="789.6584" y1="465.8273" y2="465.8273"/><line style="stroke:#000000;stroke-width:1;" x1="76.34" x2="789.6584" y1="473.8273" y2="473.8273"/><ellipse cx="86.34" cy="487.8346" fill="#FFFFFF" rx="3" ry="3" style="stroke:#000000;stroke-width:1;"/><text fill="#000000" font-family="Verdana" font-size="14" lengthAdjust="spacing" textLength="691.3184" x="93.34" y="491.9025">suspend execute(command: CreateGreetingCommand): Either&lt;ApplicationError, GreetingResult&gt;</text></g><!--class OutputPort--><g class="entity" data-entity="OutputPort" data-source-line="12" data-uid="ent0007" id="entity_OutputPort"><rect fill="#FFFFFF" height="61.0146" rx="2.5" ry="2.5" style="stroke:#000000;stroke-width:1;" width="475.1719" x="847.41" y="437.8273"/><ellipse cx="1042.7835" cy="451.8273" fill="#FFFFFF" rx="9" ry="9" style="stroke:#000000;stroke-width:1;"/><path d="M1039.2113,448.0924 L1039.2113,445.9342 L1046.5907,445.9342 L1046.5907,448.0924 L1044.1253,448.0924 L1044.1253,456.1691 L1046.5907,456.1691 L1046.5907,458.3273 L1039.2113,458.3273 L1039.2113,456.1691 L1041.6766,456.1691 L1041.6766,448.0924 Z " fill="#000000"/><text fill="#000000" font-family="Verdana" font-size="14" font-style="italic" lengthAdjust="spacing" textLength="76.9248" x="1060.2835" y="457.3952">OutputPort</text><line style="stroke:#000000;stroke-width:1;" x1="848.41" x2="1321.5819" y1="465.8273" y2="465.8273"/><line style="stroke:#000000;stroke-width:1;" x1="848.41" x2="1321.5819" y1="473.8273" y2="473.8273"/><ellipse cx="858.41" cy="487.8346" fill="#FFFFFF" rx="3" ry="3" style="stroke:#000000;stroke-width:1;"/><text fill="#000000" font-family="Verdana" font-size="14" lengthAdjust="spacing" textLength="451.1719" x="865.41" y="491.9025">suspend send(message: String): Either&lt;ApplicationError, Unit&gt;</text></g><!--class CreateGreetingUseCase--><g class="entity" data-entity="CreateGreetingUseCase" data-source-line="18" data-uid="ent0009" id="entity_CreateGreetingUseCase"><rect fill="#FFFFFF" height="154.0879" rx="2.5" ry="2.5" style="stroke:#000000;stroke-width:1;" width="715.3184" x="1549.34" y="138.7373"/><ellipse cx="1819.9977" cy="152.7373" fill="#FFFFFF" rx="9" ry="9" style="stroke:#000000;stroke-width:1;"/><path d="M1822.4709,158.8804 Q1821.8898,159.1792 1821.2506,159.3286 Q1820.6115,159.478 1819.9059,159.478 Q1817.3991,159.478 1816.0793,157.8262 Q1814.7594,156.1743 1814.7594,153.0532 Q1814.7594,149.9238 1816.0793,148.272 Q1817.3991,146.6201 1819.9059,146.6201 Q1820.6115,146.6201 1821.2589,146.7695 Q1821.9064,146.9189 1822.4709,147.2178 L1822.4709,149.9404 Q1821.84,149.3594 1821.2465,149.0896 Q1820.653,148.8198 1820.0221,148.8198 Q1818.6774,148.8198 1817.9926,149.8865 Q1817.3078,150.9531 1817.3078,153.0532 Q1817.3078,155.145 1817.9926,156.2117 Q1818.6774,157.2783 1820.0221,157.2783 Q1820.653,157.2783 1821.2465,157.0085 Q1821.84,156.7388 1822.4709,156.1577 Z " fill="#000000"/><text fill="#000000" font-family="Verdana" font-size="14" lengthAdjust="spacing" textLength="166.5029" x="1837.4977" y="158.3052">CreateGreetingUseCase</text><line style="stroke:#000000;stroke-width:1;" x1="1550.34" x2="2263.6584" y1="166.7373" y2="166.7373"/><rect fill="none" height="6" style="stroke:#000000;stroke-width:1;" width="6" x="1557.34" y="177.7446"/><text fill="#000000" font-family="Verdana" font-size="14" lengthAdjust="spacing" textLength="233.3379" x="1567.34" y="184.8125">greetingService: GreetingService</text><rect fill="none" height="6" style="stroke:#000000;stroke-width:1;" width="6" x="1557.34" y="194.7593"/><text fill="#000000" font-family="Verdana" font-size="14" lengthAdjust="spacing" textLength="162.6064" x="1567.34" y="201.8271">outputPort: OutputPort</text><line style="stroke:#000000;stroke-width:1;" x1="1550.34" x2="2263.6584" y1="208.7666" y2="208.7666"/><ellipse cx="1560.34" cy="222.7739" fill="#FFFFFF" rx="3" ry="3" style="stroke:#000000;stroke-width:1;"/><text fill="#000000" font-family="Verdana" font-size="14" lengthAdjust="spacing" textLength="691.3184" x="1567.34" y="226.8418">suspend execute(command: CreateGreetingCommand): Either&lt;ApplicationError, GreetingResult&gt;</text><line style="stroke:#000000;stroke-width:1;" x1="1550.34" x2="2263.6584" y1="233.7813" y2="233.7813"/><rect fill="none" height="6" style="stroke:#000000;stroke-width:1;" width="6" x="1557.34" y="244.7886"/><text fill="#000000" font-family="Verdana" font-size="14" lengthAdjust="spacing" textLength="103.3799" x="1567.34" y="251.8564">validates input</text><rect fill="none" height="6" style="stroke:#000000;stroke-width:1;" width="6" x="1557.34" y="261.8032"/><text fill="#000000" font-family="Verdana" font-size="14" lengthAdjust="spacing" textLength="198.4678" x="1567.34" y="268.8711">orchestrates domain service</text><rect fill="none" height="6" style="stroke:#000000;stroke-width:1;" width="6" x="1557.34" y="278.8179"/><text fill="#000000" font-family="Verdana" font-size="14" lengthAdjust="spacing" textLength="165.7715" x="1567.34" y="285.8857">handles output delivery</text></g><!--class CreateGreetingCommand--><g class="entity" data-entity="CreateGreetingCommand" data-source-line="31" data-uid="ent0011" id="entity_CreateGreetingCommand"><rect fill="#FFFFFF" height="91.6279" rx="2.5" ry="2.5" style="stroke:#000000;stroke-width:1;" width="206.3018" x="1402.85" y="422.5173"/><ellipse cx="1415.85" cy="443.3166" fill="#FFFFFF" rx="9" ry="9" style="stroke:#000000;stroke-width:1;"/><path d="M1418.3231,449.4597 Q1417.7421,449.7585 1417.1029,449.9079 Q1416.4638,450.0573 1415.7582,450.0573 Q1413.2514,450.0573 1411.9315,448.4055 Q1410.6117,446.7536 1410.6117,443.6325 Q1410.6117,440.5031 1411.9315,438.8513 Q1413.2514,437.1994 1415.7582,437.1994 Q1416.4638,437.1994 1417.1112,437.3488 Q1417.7587,437.4983 1418.3231,437.7971 L1418.3231,440.5197 Q1417.6923,439.9387 1417.0988,439.6689 Q1416.5053,439.3991 1415.8744,439.3991 Q1414.5297,439.3991 1413.8449,440.4658 Q1413.1601,441.5324 1413.1601,443.6325 Q1413.1601,445.7243 1413.8449,446.791 Q1414.5297,447.8576 1415.8744,447.8576 Q1416.5053,447.8576 1417.0988,447.5879 Q1417.6923,447.3181 1418.3231,446.737 Z " fill="#000000"/><text fill="#000000" font-family="Verdana" font-size="12" font-style="italic" lengthAdjust="spacing" textLength="75.5625" x="1479.2196" y="439.5818">&#171;data class&#187;</text><text fill="#000000" font-family="Verdana" font-size="14" lengthAdjust="spacing" textLength="178.3018" x="1427.85" y="456.1765">CreateGreetingCommand</text><line style="stroke:#000000;stroke-width:1;" x1="1403.85" x2="1608.1518" y1="464.1159" y2="464.1159"/><ellipse cx="1413.85" cy="478.1233" fill="none" rx="3" ry="3" style="stroke:#000000;stroke-width:1;"/><text fill="#000000" font-family="Verdana" font-size="14" lengthAdjust="spacing" textLength="100.625" x="1420.85" y="482.1911">name: String?</text><ellipse cx="1413.85" cy="495.1379" fill="none" rx="3" ry="3" style="stroke:#000000;stroke-width:1;"/><text fill="#000000" font-family="Verdana" font-size="14" lengthAdjust="spacing" textLength="159.1201" x="1420.85" y="499.2058">silent: Boolean = false</text><line style="stroke:#000000;stroke-width:1;" x1="1403.85" x2="1608.1518" y1="506.1452" y2="506.1452"/></g><!--class GreetingResult--><g class="entity" data-entity="GreetingResult" data-source-line="36" data-uid="ent0012" id="entity_GreetingResult"><rect fill="#FFFFFF" height="91.6279" rx="2.5" ry="2.5" style="stroke:#000000;stroke-width:1;" width="179.333" x="1644.33" y="422.5173"/><ellipse cx="1678.6136" cy="443.3166" fill="#FFFFFF" rx="9" ry="9" style="stroke:#000000;stroke-width:1;"/><path d="M1681.0867,449.4597 Q1680.5057,449.7585 1679.8665,449.9079 Q1679.2274,450.0573 1678.5218,450.0573 Q1676.015,450.0573 1674.6951,448.4055 Q1673.3753,446.7536 1673.3753,443.6325 Q1673.3753,440.5031 1674.6951,438.8513 Q1676.015,437.1994 1678.5218,437.1994 Q1679.2274,437.1994 1679.8748,437.3488 Q1680.5223,437.4983 1681.0867,437.7971 L1681.0867,440.5197 Q1680.4559,439.9387 1679.8624,439.6689 Q1679.2689,439.3991 1678.638,439.3991 Q1677.2933,439.3991 1676.6085,440.4658 Q1675.9237,441.5324 1675.9237,443.6325 Q1675.9237,445.7243 1676.6085,446.791 Q1677.2933,447.8576 1678.638,447.8576 Q1679.2689,447.8576 1679.8624,447.5879 Q1680.4559,447.3181 1681.0867,446.737 Z " fill="#000000"/><text fill="#000000" font-family="Verdana" font-size="12" font-style="italic" lengthAdjust="spacing" textLength="75.5625" x="1709.5801" y="439.5818">&#171;data class&#187;</text><text fill="#000000" font-family="Verdana" font-size="14" lengthAdjust="spacing" textLength="104.0361" x="1695.3433" y="456.1765">GreetingResult</text><line style="stroke:#000000;stroke-width:1;" x1="1645.33" x2="1822.663" y1="464.1159" y2="464.1159"/><ellipse cx="1655.33" cy="478.1233" fill="none" rx="3" ry="3" style="stroke:#000000;stroke-width:1;"/><text fill="#000000" font-family="Verdana" font-size="14" lengthAdjust="spacing" textLength="112.082" x="1662.33" y="482.1911">greeting: String</text><ellipse cx="1655.33" cy="495.1379" fill="none" rx="3" ry="3" style="stroke:#000000;stroke-width:1;"/><text fill="#000000" font-family="Verdana" font-size="14" lengthAdjust="spacing" textLength="155.333" x="1662.33" y="499.2058">recipientName: String</text><line style="stroke:#000000;stroke-width:1;" x1="1645.33" x2="1822.663" y1="506.1452" y2="506.1452"/></g><!--class ApplicationError--><g class="entity" data-entity="ApplicationError" data-source-line="43" data-uid="ent0014" id="entity_ApplicationError"><rect fill="#FFFFFF" height="44" rx="2.5" ry="2.5" style="stroke:#000000;stroke-width:1;" width="140.376" x="2050.81" y="446.3273"/><ellipse cx="2063.81" cy="460.3273" fill="#FFFFFF" rx="9" ry="9" style="stroke:#000000;stroke-width:1;"/><path d="M2063.6733,455.6754 L2062.5195,460.7472 L2064.8354,460.7472 Z M2062.1791,453.4342 L2065.1757,453.4342 L2068.5209,465.8273 L2066.0722,465.8273 L2065.3085,462.7643 L2062.0297,462.7643 L2061.2827,465.8273 L2058.8339,465.8273 Z " fill="#000000"/><text fill="#000000" font-family="Verdana" font-size="14" font-style="italic" lengthAdjust="spacing" textLength="112.376" x="2075.81" y="465.8952">ApplicationError</text><line style="stroke:#000000;stroke-width:1;" x1="2051.81" x2="2190.186" y1="474.3273" y2="474.3273"/><line style="stroke:#000000;stroke-width:1;" x1="2051.81" x2="2190.186" y1="482.3273" y2="482.3273"/></g><!--class UseCaseError--><g class="entity" data-entity="UseCaseError" data-source-line="45" data-uid="ent0015" id="entity_UseCaseError"><rect fill="#FFFFFF" height="78.0293" rx="2.5" ry="2.5" style="stroke:#000000;stroke-width:1;" width="136.0752" x="1879.96" y="601.8373"/><ellipse cx="1898.8566" cy="615.8373" fill="#FFFFFF" rx="9" ry="9" style="stroke:#000000;stroke-width:1;"/><path d="M1901.3297,621.9804 Q1900.7487,622.2792 1900.1095,622.4286 Q1899.4704,622.578 1898.7648,622.578 Q1896.2579,622.578 1894.9381,620.9262 Q1893.6183,619.2743 1893.6183,616.1532 Q1893.6183,613.0238 1894.9381,611.372 Q1896.2579,609.7201 1898.7648,609.7201 Q1899.4704,609.7201 1900.1178,609.8695 Q1900.7653,610.0189 1901.3297,610.3178 L1901.3297,613.0404 Q1900.6989,612.4594 1900.1054,612.1896 Q1899.5119,611.9198 1898.881,611.9198 Q1897.5363,611.9198 1896.8515,612.9865 Q1896.1666,614.0531 1896.1666,616.1532 Q1896.1666,618.245 1896.8515,619.3117 Q1897.5363,620.3783 1898.881,620.3783 Q1899.5119,620.3783 1900.1054,620.1085 Q1900.6989,619.8388 1901.3297,619.2577 Z " fill="#000000"/><text fill="#000000" font-family="Verdana" font-size="14" lengthAdjust="spacing" textLength="94.9717" x="1912.1669" y="621.4052">UseCaseError</text><line style="stroke:#000000;stroke-width:1;" x1="1880.96" x2="2015.0352" y1="629.8373" y2="629.8373"/><ellipse cx="1890.96" cy="643.8446" fill="none" rx="3" ry="3" style="stroke:#000000;stroke-width:1;"/><text fill="#000000" font-family="Verdana" font-size="14" lengthAdjust="spacing" textLength="112.0752" x="1897.96" y="647.9125">useCase: String</text><ellipse cx="1890.96" cy="660.8593" fill="none" rx="3" ry="3" style="stroke:#000000;stroke-width:1;"/><text fill="#000000" font-family="Verdana" font-size="14" lengthAdjust="spacing" textLength="93.96" x="1897.96" y="664.9271">cause: String</text><line style="stroke:#000000;stroke-width:1;" x1="1880.96" x2="2015.0352" y1="671.8666" y2="671.8666"/></g><!--class OutputError--><g class="entity" data-entity="OutputError" data-source-line="50" data-uid="ent0016" id="entity_OutputError"><rect fill="#FFFFFF" height="61.0146" rx="2.5" ry="2.5" style="stroke:#000000;stroke-width:1;" width="139.7803" x="2051.11" y="610.3473"/><ellipse cx="2076.7157" cy="624.3473" fill="#FFFFFF" rx="9" ry="9" style="stroke:#000000;stroke-width:1;"/><path d="M2079.1889,630.4904 Q2078.6078,630.7892 2077.9686,630.9386 Q2077.3295,631.088 2076.6239,631.088 Q2074.1171,631.088 2072.7973,629.4362 Q2071.4774,627.7843 2071.4774,624.6632 Q2071.4774,621.5338 2072.7973,619.882 Q2074.1171,618.2301 2076.6239,618.2301 Q2077.3295,618.2301 2077.9769,618.3795 Q2078.6244,618.5289 2079.1889,618.8278 L2079.1889,621.5504 Q2078.558,620.9694 2077.9645,620.6996 Q2077.371,620.4298 2076.7401,620.4298 Q2075.3954,620.4298 2074.7106,621.4965 Q2074.0258,622.5631 2074.0258,624.6632 Q2074.0258,626.755 2074.7106,627.8217 Q2075.3954,628.8883 2076.7401,628.8883 Q2077.371,628.8883 2077.9645,628.6185 Q2078.558,628.3488 2079.1889,627.7677 Z " fill="#000000"/><text fill="#000000" font-family="Verdana" font-size="14" lengthAdjust="spacing" textLength="83.7676" x="2091.517" y="629.9152">OutputError</text><line style="stroke:#000000;stroke-width:1;" x1="2052.11" x2="2189.8903" y1="638.3473" y2="638.3473"/><ellipse cx="2062.11" cy="652.3546" fill="none" rx="3" ry="3" style="stroke:#000000;stroke-width:1;"/><text fill="#000000" font-family="Verdana" font-size="14" lengthAdjust="spacing" textLength="115.7803" x="2069.11" y="656.4225">message: String</text><line style="stroke:#000000;stroke-width:1;" x1="2052.11" x2="2189.8903" y1="663.362" y2="663.362"/></g><!--class DomainErrorWrapper--><g class="entity" data-entity="DomainErrorWrapper" data-source-line="54" data-uid="ent0017" id="entity_DomainErrorWrapper"><rect fill="#FFFFFF" height="78.0293" rx="2.5" ry="2.5" style="stroke:#000000;stroke-width:1;" width="211.7832" x="2226.11" y="601.8373"/><ellipse cx="2254.6412" cy="615.8373" fill="#FFFFFF" rx="9" ry="9" style="stroke:#000000;stroke-width:1;"/><path d="M2257.1143,621.9804 Q2256.5332,622.2792 2255.8941,622.4286 Q2255.2549,622.578 2254.5494,622.578 Q2252.0425,622.578 2250.7227,620.9262 Q2249.4029,619.2743 2249.4029,616.1532 Q2249.4029,613.0238 2250.7227,611.372 Q2252.0425,609.7201 2254.5494,609.7201 Q2255.2549,609.7201 2255.9024,609.8695 Q2256.5498,610.0189 2257.1143,610.3178 L2257.1143,613.0404 Q2256.4834,612.4594 2255.8899,612.1896 Q2255.2964,611.9198 2254.6656,611.9198 Q2253.3208,611.9198 2252.636,612.9865 Q2251.9512,614.0531 2251.9512,616.1532 Q2251.9512,618.245 2252.636,619.3117 Q2253.3208,620.3783 2254.6656,620.3783 Q2255.2964,620.3783 2255.8899,620.1085 Q2256.4834,619.8388 2257.1143,619.2577 Z " fill="#000000"/><text fill="#000000" font-family="Verdana" font-size="14" lengthAdjust="spacing" textLength="149.2695" x="2270.0925" y="621.4052">DomainErrorWrapper</text><line style="stroke:#000000;stroke-width:1;" x1="2227.11" x2="2436.8932" y1="629.8373" y2="629.8373"/><ellipse cx="2237.11" cy="643.8446" fill="none" rx="3" ry="3" style="stroke:#000000;stroke-width:1;"/><text fill="#000000" font-family="Verdana" font-size="14" lengthAdjust="spacing" textLength="187.7832" x="2244.11" y="647.9125">domainError: DomainError</text><ellipse cx="2237.11" cy="660.8593" fill="none" rx="3" ry="3" style="stroke:#000000;stroke-width:1;"/><text fill="#000000" font-family="Verdana" font-size="14" lengthAdjust="spacing" textLength="144.4297" x="2244.11" y="664.9271">userMessage: String</text><line style="stroke:#000000;stroke-width:1;" x1="2227.11" x2="2436.8932" y1="671.8666" y2="671.8666"/></g><!--class GreetingService--><g class="entity" data-entity="GreetingService" data-source-line="66" data-uid="ent0022" id="entity_GreetingService"><rect fill="#FFFFFF" height="44" rx="2.5" ry="2.5" style="stroke:#000000;stroke-width:1;" width="140.0615" x="2584.97" y="804.8673"/><ellipse cx="2597.97" cy="818.8673" fill="#FFFFFF" rx="9" ry="9" style="stroke:#000000;stroke-width:1;"/><path d="M2594.3977,815.1324 L2594.3977,812.9742 L2601.7771,812.9742 L2601.7771,815.1324 L2599.3118,815.1324 L2599.3118,823.2091 L2601.7771,823.2091 L2601.7771,825.3673 L2594.3977,825.3673 L2594.3977,823.2091 L2596.8631,823.2091 L2596.8631,815.1324 Z " fill="#000000"/><text fill="#000000" font-family="Verdana" font-size="14" font-style="italic" lengthAdjust="spacing" textLength="112.0615" x="2609.97" y="824.4352">GreetingService</text><line style="stroke:#000000;stroke-width:1;" x1="2585.97" x2="2724.0315" y1="832.8673" y2="832.8673"/><line style="stroke:#000000;stroke-width:1;" x1="2585.97" x2="2724.0315" y1="840.8673" y2="840.8673"/></g><!--class PersonName--><g class="entity" data-entity="PersonName" data-source-line="67" data-uid="ent0023" id="entity_PersonName"><rect fill="#FFFFFF" height="44" rx="2.5" ry="2.5" style="stroke:#000000;stroke-width:1;" width="116.2451" x="2759.88" y="804.8673"/><ellipse cx="2772.88" cy="818.8673" fill="#FFFFFF" rx="9" ry="9" style="stroke:#000000;stroke-width:1;"/><path d="M2775.3531,825.0104 Q2774.7721,825.3092 2774.1329,825.4586 Q2773.4938,825.608 2772.7882,825.608 Q2770.2814,825.608 2768.9615,823.9562 Q2767.6417,822.3043 2767.6417,819.1832 Q2767.6417,816.0538 2768.9615,814.402 Q2770.2814,812.7501 2772.7882,812.7501 Q2773.4938,812.7501 2774.1412,812.8995 Q2774.7887,813.0489 2775.3531,813.3478 L2775.3531,816.0704 Q2774.7223,815.4894 2774.1288,815.2196 Q2773.5353,814.9498 2772.9044,814.9498 Q2771.5597,814.9498 2770.8749,816.0165 Q2770.1901,817.0831 2770.1901,819.1832 Q2770.1901,821.275 2770.8749,822.3417 Q2771.5597,823.4083 2772.9044,823.4083 Q2773.5353,823.4083 2774.1288,823.1385 Q2774.7223,822.8688 2775.3531,822.2877 Z " fill="#000000"/><text fill="#000000" font-family="Verdana" font-size="14" lengthAdjust="spacing" textLength="88.2451" x="2784.88" y="824.4352">PersonName</text><line style="stroke:#000000;stroke-width:1;" x1="2760.88" x2="2875.1251" y1="832.8673" y2="832.8673"/><line style="stroke:#000000;stroke-width:1;" x1="2760.88" x2="2875.1251" y1="840.8673" y2="840.8673"/></g><!--class DomainError--><g class="entity" data-entity="DomainError" data-source-line="68" data-uid="ent0024" id="entity_DomainError"><rect fill="#FFFFFF" height="44" rx="2.5" ry="2.5" style="stroke:#000000;stroke-width:1;" width="117.2227" x="2432.39" y="804.8673"/><ellipse cx="2445.39" cy="818.8673" fill="#FFFFFF" rx="9" ry="9" style="stroke:#000000;stroke-width:1;"/><path d="M2445.2533,814.2154 L2444.0995,819.2872 L2446.4154,819.2872 Z M2443.7591,811.9742 L2446.7557,811.9742 L2450.1009,824.3673 L2447.6522,824.3673 L2446.8885,821.3043 L2443.6097,821.3043 L2442.8627,824.3673 L2440.4139,824.3673 Z " fill="#000000"/><text fill="#000000" font-family="Verdana" font-size="14" font-style="italic" lengthAdjust="spacing" textLength="89.2227" x="2457.39" y="824.4352">DomainError</text><line style="stroke:#000000;stroke-width:1;" x1="2433.39" x2="2548.6127" y1="832.8673" y2="832.8673"/><line style="stroke:#000000;stroke-width:1;" x1="2433.39" x2="2548.6127" y1="840.8673" y2="840.8673"/></g><g class="entity" data-entity="GMN33" data-source-line="85" data-uid="ent0034" id="entity_GMN33"><path d="M2494.23,179.1773 L2494.23,211.7773 L2264.9,215.7773 L2494.23,219.7773 L2494.23,252.3746 A0,0 0 0 0 2494.23,252.3746 L2659.7725,252.3746 A0,0 0 0 0 2659.7725,252.3746 L2659.7725,189.1773 L2649.7725,179.1773 L2494.23,179.1773 A0,0 0 0 0 2494.23,179.1773" fill="#FFFFFF" style="stroke:#000000;stroke-width:1;"/><path d="M2649.7725,179.1773 L2649.7725,189.1773 L2659.7725,189.1773 L2649.7725,179.1773" fill="#FFFFFF" style="stroke:#000000;stroke-width:1;"/><text fill="#000000" font-family="Verdana" font-size="13" lengthAdjust="spacing" textLength="117.8887" x="2500.23" y="197.2471">Use Case Pattern:</text><text fill="#000000" font-family="Verdana" font-size="13" lengthAdjust="spacing" textLength="141.375" x="2500.23" y="213.0464">- Single responsibility</text><text fill="#000000" font-family="Verdana" font-size="13" lengthAdjust="spacing" textLength="125.125" x="2500.23" y="228.8458">- Orchestrates flow</text><text fill="#000000" font-family="Verdana" font-size="13" lengthAdjust="spacing" textLength="144.5425" x="2500.23" y="244.6451">- Error transformation</text></g><g class="entity" data-entity="GMN36" data-source-line="92" data-uid="ent0037" id="entity_GMN36"><path d="M2871.04,431.7273 L2871.04,504.9246 L3070.9677,504.9246 L3070.9677,441.7273 L3060.9677,431.7273 L2871.04,431.7273" fill="#FFFFFF" style="stroke:#000000;stroke-width:1;"/><path d="M3060.9677,431.7273 L3060.9677,441.7273 L3070.9677,441.7273 L3060.9677,431.7273" fill="#FFFFFF" style="stroke:#000000;stroke-width:1;"/><text fill="#000000" font-family="Verdana" font-size="13" lengthAdjust="spacing" textLength="157.0029" x="2877.04" y="449.7971">Input Port (Hexagonal):</text><text fill="#000000" font-family="Verdana" font-size="13" lengthAdjust="spacing" textLength="116.9492" x="2877.04" y="465.5964">- Defines contract</text><text fill="#000000" font-family="Verdana" font-size="13" lengthAdjust="spacing" textLength="149.4111" x="2877.04" y="481.3958">- Used by presentation</text><text fill="#000000" font-family="Verdana" font-size="13" lengthAdjust="spacing" textLength="178.9277" x="2877.04" y="497.1951">- Implemented by use case</text></g><g class="entity" data-entity="GMN39" data-source-line="99" data-uid="ent0040" id="entity_GMN39"><path d="M2494.22,612.1573 L2494.22,669.5553 A0,0 0 0 0 2494.22,669.5553 L2693.7859,669.5553 A0,0 0 0 0 2693.7859,669.5553 L2693.7859,622.1573 L2683.7859,612.1573 L2519.97,612.1573 L2180.43,490.7573 L2511.97,612.1573 L2494.22,612.1573 A0,0 0 0 0 2494.22,612.1573" fill="#FFFFFF" style="stroke:#000000;stroke-width:1;"/><path d="M2683.7859,612.1573 L2683.7859,622.1573 L2693.7859,622.1573 L2683.7859,612.1573" fill="#FFFFFF" style="stroke:#000000;stroke-width:1;"/><text fill="#000000" font-family="Verdana" font-size="13" lengthAdjust="spacing" textLength="151.8931" x="2500.22" y="630.2271">Application errors wrap</text><text fill="#000000" font-family="Verdana" font-size="13" lengthAdjust="spacing" textLength="178.5659" x="2500.22" y="646.0264">or transform domain errors</text><text fill="#000000" font-family="Verdana" font-size="13" lengthAdjust="spacing" textLength="141.3813" x="2500.22" y="661.8258">for presentation layer</text></g><!--reverse link ApplicationError to UseCaseError--><g class="link" data-entity-1="ApplicationError" data-entity-2="UseCaseError" data-source-line="59" data-uid="lnk18" id="link_ApplicationError_UseCaseError"><path codeLine="59" d="M2086.6188,503.2213 C2058.5388,530.8913 2021.77,567.1473 1987,601.4073" fill="none" id="ApplicationError-backto-UseCaseError" style="stroke:#000000;stroke-width:1;"/><polygon fill="none" points="2099.44,490.5873,2082.4075,498.9476,2090.8301,507.495,2099.44,490.5873" style="stroke:#000000;stroke-width:1;"/></g><!--reverse link ApplicationError to OutputError--><g class="link" data-entity-1="ApplicationError" data-entity-2="OutputError" data-source-line="60" data-uid="lnk19" id="link_ApplicationError_OutputError"><path codeLine="60" d="M2121,508.5873 C2121,538.6673 2121,575.8173 2121,610.0073" fill="none" id="ApplicationError-backto-OutputError" style="stroke:#000000;stroke-width:1;"/><polygon fill="none" points="2121,490.5873,2115,508.5873,2127,508.5873,2121,490.5873" style="stroke:#000000;stroke-width:1;"/></g><!--reverse link ApplicationError to DomainErrorWrapper--><g class="link" data-entity-1="ApplicationError" data-entity-2="DomainErrorWrapper" data-source-line="61" data-uid="lnk20" id="link_ApplicationError_DomainErrorWrapper"><path codeLine="61" d="M2161.3,501.901 C2195.54,529.571 2242.03,567.1473 2284.43,601.4073" fill="none" id="ApplicationError-backto-DomainErrorWrapper" style="stroke:#000000;stroke-width:1;"/><polygon fill="none" points="2147.3,490.5873,2157.5288,506.5677,2165.0712,497.2343,2147.3,490.5873" style="stroke:#000000;stroke-width:1;"/></g><!--link CreateGreetingUseCase to CreateGreetingInputPort--><g class="link" data-entity-1="CreateGreetingUseCase" data-entity-2="CreateGreetingInputPort" data-source-line="72" data-uid="lnk25" id="link_CreateGreetingUseCase_CreateGreetingInputPort"><path codeLine="72" d="M1548.99,246.1973 C1338.51,267.1773 1068.04,300.5273 831,349.8273 C721.84,372.5273 616.295,405.0214 536.375,431.6814" fill="none" id="CreateGreetingUseCase-to-CreateGreetingInputPort" style="stroke:#000000;stroke-width:1;stroke-dasharray:7,7;"/><polygon fill="none" points="519.3,437.3773,538.2737,437.373,534.4764,425.9897,519.3,437.3773" style="stroke:#000000;stroke-width:1;"/></g><!--link CreateGreetingUseCase to GreetingService--><g class="link" data-entity-1="CreateGreetingUseCase" data-entity-2="GreetingService" data-source-line="75" data-uid="lnk26" id="link_CreateGreetingUseCase_GreetingService"><path codeLine="75" d="M2265.09,274.5373 C2330.32,293.1173 2396.01,317.6073 2454,349.8273 C2593.84,427.5173 2649.06,454.3373 2711,601.8373 C2732.69,653.4773 2725.38,673.7273 2711,727.8673 C2703.36,756.6573 2688.5542,780.9369 2674.9342,799.8669" fill="none" id="CreateGreetingUseCase-to-GreetingService" style="stroke:#000000;stroke-width:1;"/><polygon fill="#000000" points="2671.43,804.7373,2679.9332,799.7679,2674.3502,800.6787,2673.4394,795.0956,2671.43,804.7373" style="stroke:#000000;stroke-width:1;"/><text fill="#000000" font-family="Verdana" font-size="13" lengthAdjust="spacing" textLength="29.5166" x="2697.78" y="568.9071">uses</text></g><!--link CreateGreetingUseCase to OutputPort--><g class="link" data-entity-1="CreateGreetingUseCase" data-entity-2="OutputPort" data-source-line="76" data-uid="lnk27" id="link_CreateGreetingUseCase_OutputPort"><path codeLine="76" d="M1582.81,293.2873 C1517.56,310.4873 1449.77,329.6673 1387,349.8273 C1306.12,375.7973 1221.1164,409.7046 1160.4564,435.0446" fill="none" id="CreateGreetingUseCase-to-OutputPort" style="stroke:#000000;stroke-width:1;"/><polygon fill="#000000" points="1154.92,437.3573,1164.7664,437.5791,1159.5336,435.43,1161.6827,430.1973,1154.92,437.3573" style="stroke:#000000;stroke-width:1;"/><text fill="#000000" font-family="Verdana" font-size="13" lengthAdjust="spacing" textLength="29.5166" x="1457.75" y="338.8971">uses</text></g><!--link CreateGreetingUseCase to CreateGreetingCommand--><g class="link" data-entity-1="CreateGreetingUseCase" data-entity-2="CreateGreetingCommand" data-source-line="77" data-uid="lnk28" id="link_CreateGreetingUseCase_CreateGreetingCommand"><path codeLine="77" d="M1723.66,293.2373 C1690.4,310.0473 1656.84,329.0973 1627,349.8273 C1597.3,370.4573 1572.2144,394.1696 1549.9444,417.6996" fill="none" id="CreateGreetingUseCase-to-CreateGreetingCommand" style="stroke:#000000;stroke-width:1;stroke-dasharray:7,7;"/><polygon fill="#000000" points="1545.82,422.0573,1554.9117,418.2703,1549.257,418.4259,1549.1014,412.7712,1545.82,422.0573" style="stroke:#000000;stroke-width:1;"/><text fill="#000000" font-family="Verdana" font-size="13" lengthAdjust="spacing" textLength="49.0928" x="1663.34" y="338.8971">accepts</text></g><!--link CreateGreetingUseCase to GreetingResult--><g class="link" data-entity-1="CreateGreetingUseCase" data-entity-2="GreetingResult" data-source-line="78" data-uid="lnk29" id="link_CreateGreetingUseCase_GreetingResult"><path codeLine="78" d="M1854.15,293.3173 C1825.04,335.4773 1793.3098,381.4404 1768.5698,417.2604" fill="none" id="CreateGreetingUseCase-to-GreetingResult" style="stroke:#000000;stroke-width:1;stroke-dasharray:7,7;"/><polygon fill="#000000" points="1765.16,422.1973,1773.566,417.0651,1768.0015,418.0832,1766.9834,412.5187,1765.16,422.1973" style="stroke:#000000;stroke-width:1;"/><text fill="#000000" font-family="Verdana" font-size="13" lengthAdjust="spacing" textLength="47.1885" x="1831.86" y="338.8971">returns</text></g><!--link CreateGreetingUseCase to PersonName--><g class="link" data-entity-1="CreateGreetingUseCase" data-entity-2="PersonName" data-source-line="79" data-uid="lnk30" id="link_CreateGreetingUseCase_PersonName"><path codeLine="79" d="M2264.87,280.0773 C2424.1,309.2873 2579.56,339.7173 2595,349.8273 C2761.27,458.6773 2805.2788,720.8133 2814.9488,798.4933" fill="none" id="CreateGreetingUseCase-to-PersonName" style="stroke:#000000;stroke-width:1;stroke-dasharray:7,7;"/><polygon fill="#000000" points="2815.69,804.4473,2818.5476,795.0221,2815.0723,799.4856,2810.6089,796.0104,2815.69,804.4473" style="stroke:#000000;stroke-width:1;"/><text fill="#000000" font-family="Verdana" font-size="13" lengthAdjust="spacing" textLength="47.5122" x="2756.99" y="568.9071">creates</text></g><!--link CreateGreetingUseCase to ApplicationError--><g class="link" data-entity-1="CreateGreetingUseCase" data-entity-2="ApplicationError" data-source-line="80" data-uid="lnk31" id="link_CreateGreetingUseCase_ApplicationError"><path codeLine="80" d="M1972.37,293.3173 C2017.48,346.1273 2070.3941,408.0742 2098.9441,441.5142" fill="none" id="CreateGreetingUseCase-to-ApplicationError" style="stroke:#000000;stroke-width:1;stroke-dasharray:7,7;"/><polygon fill="#000000" points="2102.84,446.0773,2100.0383,436.6354,2099.5934,442.2747,2093.9541,441.8298,2102.84,446.0773" style="stroke:#000000;stroke-width:1;"/><text fill="#000000" font-family="Verdana" font-size="13" lengthAdjust="spacing" textLength="47.1885" x="2008.58" y="338.8971">returns</text></g><!--link DomainErrorWrapper to DomainError--><g class="link" data-entity-1="DomainErrorWrapper" data-entity-2="DomainError" data-source-line="81" data-uid="lnk32" id="link_DomainErrorWrapper_DomainError"><path codeLine="81" d="M2364.94,679.9773 C2397.51,717.6673 2442.2363,769.4381 2468.5663,799.8981" fill="none" id="DomainErrorWrapper-to-DomainError" style="stroke:#000000;stroke-width:1;"/><polygon fill="#000000" points="2472.49,804.4373,2469.6305,795.0127,2469.2202,800.6546,2463.5783,800.2443,2472.49,804.4373" style="stroke:#000000;stroke-width:1;"/><text fill="#000000" font-family="Verdana" font-size="13" lengthAdjust="spacing" textLength="38.8667" x="2426.74" y="749.9371">wraps</text></g><!--link CreateGreetingInputPort to GMN36--><g class="link" data-entity-1="CreateGreetingInputPort" data-entity-2="GMN36" data-source-line="92" data-uid="lnk38" id="link_CreateGreetingInputPort_GMN36"><path d="M504.48,437.4573 C585.94,404.0973 723.96,353.0473 848.5,333.3273 C902.77,324.7273 2775.39,313.1573 2826.5,333.3273 C2876.16,352.9173 2918.81,398.5173 2944.64,431.3073" fill="none" id="CreateGreetingInputPort-GMN36" style="stroke:#000000;stroke-width:1;stroke-dasharray:7,7;"/></g><!--SRC=[lLPDRzim3BtxLt2zhCNc_00Zox0bHLTWQuiMnSwAp2J2P4cGv7vWxNyV9TknupXEJlF1ICHdyf5y9lt1Rx10C989bNZX9S8tOwJWp0kju2TxHGifp2Lp3XQ2hIqhaiGm_eUj4Sxsi6VmDm6wjWYZhPy8PKhVcC8bb4UxOXnXRf5vlBA8NgZrTG3UqICTRBW-WIkTGPK3lY0lFPvpNHHCvLdFmRmwliZWKb1gTjfXU6cjjf-XWTwZAwMVRUEy9-rz80TT-eD9t4RRA6z7j_C2dIEF6JnuImp6M3ugSHAtqY5d3hkyU6pMRbqU7Su9rgENmhgsFw1z4foONUqUzE1wcsZMINeNbFxtpWs4JU69IP6JVmTHVVr4BD-WypO2SbsG_Ab5GoblY9GaK9Kwv2Z54zhN4rgJUtsiBNNIC9qILLP1PhCz4IbMR4NpjLzU8L5HExvhBP4f-08h9Xts-6tPjKnsgtcCGYEKXaRFR94B8uZ8JOVg2JN2qDbkbTWoT8NxccHV18UIgVKTCNlSoyfuW3fdfJj4UI1I9VlXGBtt-xYpHLHUTFRRCcDmtsVUGh8kVZz7- -lqyFswmlGjJNUgU0JQASCHv7wEjHhUEuka0ZKxP3gzH-wPMalSIh6TjaCZgYhd7LgdLP1WCg2bRl4ezaUuBeoaxQTyjS0iolZ3ROH9XiVdPF8sExIoWiS5Xb67YWjq1roawQoV0MIXVMCFT1RCA7OocHsOC1ampj7uiITx4o6ZYlZIgh57seeJd4VO67nF8MsCWLSXPDuv9l0pMLmez8qEWHJTmOhrneDU3M-yA0Jw3P737VEa8fKbrMn_445YHC4PQhjO2YdyQssxxMw8bTJFzNb5XSwLMsbRn5oIiDy2cMIKKYkLu2h-WzZJyn_umjPQCNdHK5lWIYYApBMA6gwFAPCSbgzWY7CZtDgqLNE589L0-3BeSrjgxtKHo0tErkuNNHpEBXOzshfvDqkpmaGp7U_m0XdUvZR-Fm00]--></g></svg>