<svg xmlns="http://www.w3.org/2000/svg" xmlns:xlink="http://www.w3.org/1999/xlink" contentStyleType="text/css" data-diagram-type="DESCRIPTION" height="1244px" preserveAspectRatio="none" style="width:4474px;height:1244px;background:#FFFFFF;" version="1.1" viewBox="0 0 4474 1244" width="4474px" zoomAndPan="magnify"><title>Hybrid Architecture Template - System Overview</title><defs/><g><g class="title" data-source-line="2"><text fill="#000000" font-family="Verdana" font-size="22" font-weight="bold" lengthAdjust="spacing" textLength="605.6338" x="1929.9033" y="37.1182">Hybrid Architecture Template - System Overview</text></g><!--cluster Bootstrap Module--><g class="cluster" data-entity="Bootstrap Module" data-source-line="22" data-uid="ent0002" id="cluster_Bootstrap Module"><path d="M3856.5,58.7373 L3996.0576,58.7373 A3.75,3.75 0 0 1 3998.5576,61.2373 L4005.5576,81.752 L4224.5,81.752 A2.5,2.5 0 0 1 4227,84.252 L4227,489.2773 A2.5,2.5 0 0 1 4224.5,491.7773 L3856.5,491.7773 A2.5,2.5 0 0 1 3854,489.2773 L3854,61.2373 A2.5,2.5 0 0 1 3856.5,58.7373" fill="#FFFFFF" style="stroke:#000000;stroke-width:1;"/><line style="stroke:#000000;stroke-width:1;" x1="3854" x2="4005.5576" y1="81.752" y2="81.752"/><text fill="#000000" font-family="Verdana" font-size="14" font-weight="bold" lengthAdjust="spacing" textLength="138.5576" x="3858" y="74.8125">Bootstrap Module</text><text fill="#000000" font-family="Verdana" font-size="14" font-style="italic" lengthAdjust="spacing" textLength="86.0713" x="4001.4644" y="97.8271">&#171;Bootstrap&#187;</text></g><!--cluster Presentation Layer--><g class="cluster" data-entity="Presentation Layer" data-source-line="33" data-uid="ent0010" id="cluster_Presentation Layer"><path d="M3451.5,385.7573 L3601.4961,385.7573 A3.75,3.75 0 0 1 3603.9961,388.2573 L3610.9961,408.772 L3827.5,408.772 A2.5,2.5 0 0 1 3830,411.272 L3830,978.9873 A2.5,2.5 0 0 1 3827.5,981.4873 L3451.5,981.4873 A2.5,2.5 0 0 1 3449,978.9873 L3449,388.2573 A2.5,2.5 0 0 1 3451.5,385.7573" fill="#FFFFFF" style="stroke:#000000;stroke-width:1;"/><line style="stroke:#000000;stroke-width:1;" x1="3449" x2="3610.9961" y1="408.772" y2="408.772"/><text fill="#000000" font-family="Verdana" font-size="14" font-weight="bold" lengthAdjust="spacing" textLength="148.9961" x="3453" y="401.8325">Presentation Layer</text><text fill="#000000" font-family="Verdana" font-size="14" font-style="italic" lengthAdjust="spacing" textLength="105.9365" x="3590.5317" y="424.8471">&#171;Presentation&#187;</text></g><!--cluster Application Layer--><g class="cluster" data-entity="Application Layer" data-source-line="44" data-uid="ent0018" id="cluster_Application Layer"><path d="M611.5,333.7573 L749.2803,333.7573 A3.75,3.75 0 0 1 751.7803,336.2573 L758.7803,356.772 L1818.5,356.772 A2.5,2.5 0 0 1 1821,359.272 L1821,1022.4873 A2.5,2.5 0 0 1 1818.5,1024.9873 L611.5,1024.9873 A2.5,2.5 0 0 1 609,1022.4873 L609,336.2573 A2.5,2.5 0 0 1 611.5,333.7573" fill="#FFFFFF" style="stroke:#000000;stroke-width:1;"/><line style="stroke:#000000;stroke-width:1;" x1="609" x2="758.7803" y1="356.772" y2="356.772"/><text fill="#000000" font-family="Verdana" font-size="14" font-weight="bold" lengthAdjust="spacing" textLength="136.7803" x="613" y="349.8325">Application Layer</text><text fill="#000000" font-family="Verdana" font-size="14" font-style="italic" lengthAdjust="spacing" textLength="95.1494" x="1171.4253" y="372.8471">&#171;Application&#187;</text></g><!--cluster Ports--><g class="cluster" data-entity="Ports" data-source-line="45" data-uid="ent0019" id="cluster_Ports"><path d="M1281.5,880.9873 L1324.0146,880.9873 A3.75,3.75 0 0 1 1326.5146,883.4873 L1333.5146,904.002 L1786.5,904.002 A2.5,2.5 0 0 1 1789,906.502 L1789,990.4873 A2.5,2.5 0 0 1 1786.5,992.9873 L1281.5,992.9873 A2.5,2.5 0 0 1 1279,990.4873 L1279,883.4873 A2.5,2.5 0 0 1 1281.5,880.9873" fill="#FFFFFF" style="stroke:#000000;stroke-width:1;"/><line style="stroke:#000000;stroke-width:1;" x1="1279" x2="1333.5146" y1="904.002" y2="904.002"/><text fill="#000000" font-family="Verdana" font-size="14" font-weight="bold" lengthAdjust="spacing" textLength="41.5146" x="1283" y="897.0625">Ports</text></g><!--cluster Use Cases--><g class="cluster" data-entity="Use Cases" data-source-line="51" data-uid="ent0023" id="cluster_Use Cases"><path d="M804.5,402.7573 L884.6465,402.7573 A3.75,3.75 0 0 1 887.1465,405.2573 L894.1465,425.772 L1089.5,425.772 A2.5,2.5 0 0 1 1092,428.272 L1092,712.4873 A2.5,2.5 0 0 1 1089.5,714.9873 L804.5,714.9873 A2.5,2.5 0 0 1 802,712.4873 L802,405.2573 A2.5,2.5 0 0 1 804.5,402.7573" fill="#FFFFFF" style="stroke:#000000;stroke-width:1;"/><line style="stroke:#000000;stroke-width:1;" x1="802" x2="894.1465" y1="425.772" y2="425.772"/><text fill="#000000" font-family="Verdana" font-size="14" font-weight="bold" lengthAdjust="spacing" textLength="79.1465" x="806" y="418.8325">Use Cases</text></g><!--cluster DTOs--><g class="cluster" data-entity="DTOs" data-source-line="56" data-uid="ent0026" id="cluster_DTOs"><path d="M651.5,892.4773 L693.8711,892.4773 A3.75,3.75 0 0 1 696.3711,894.9773 L703.3711,915.492 L1252.5,915.492 A2.5,2.5 0 0 1 1255,917.992 L1255,978.9873 A2.5,2.5 0 0 1 1252.5,981.4873 L651.5,981.4873 A2.5,2.5 0 0 1 649,978.9873 L649,894.9773 A2.5,2.5 0 0 1 651.5,892.4773" fill="#FFFFFF" style="stroke:#000000;stroke-width:1;"/><line style="stroke:#000000;stroke-width:1;" x1="649" x2="703.3711" y1="915.492" y2="915.492"/><text fill="#000000" font-family="Verdana" font-size="14" font-weight="bold" lengthAdjust="spacing" textLength="41.3711" x="653" y="908.5525">DTOs</text></g><!--cluster Domain Layer--><g class="cluster" data-entity="Domain Layer" data-source-line="68" data-uid="ent0034" id="cluster_Domain Layer"><path d="M13.5,811.9873 L123.082,811.9873 A3.75,3.75 0 0 1 125.582,814.4873 L132.582,835.002 L566.5,835.002 A2.5,2.5 0 0 1 569,837.502 L569,1200.4973 A2.5,2.5 0 0 1 566.5,1202.9973 L13.5,1202.9973 A2.5,2.5 0 0 1 11,1200.4973 L11,814.4873 A2.5,2.5 0 0 1 13.5,811.9873" fill="#FFFFFF" style="stroke:#000000;stroke-width:1;"/><line style="stroke:#000000;stroke-width:1;" x1="11" x2="132.582" y1="835.002" y2="835.002"/><text fill="#000000" font-family="Verdana" font-size="14" font-weight="bold" lengthAdjust="spacing" textLength="108.582" x="15" y="828.0625">Domain Layer</text><text fill="#000000" font-family="Verdana" font-size="14" font-style="italic" lengthAdjust="spacing" textLength="71.9961" x="258.002" y="851.0771">&#171;Domain&#187;</text></g><!--cluster Core Business--><g class="cluster" data-entity="Core Business" data-source-line="69" data-uid="ent0035" id="cluster_Core Business"><path d="M45.5,1081.9873 L156.8936,1081.9873 A3.75,3.75 0 0 1 159.3936,1084.4873 L166.3936,1105.002 L526.5,1105.002 A2.5,2.5 0 0 1 529,1107.502 L529,1168.4973 A2.5,2.5 0 0 1 526.5,1170.9973 L45.5,1170.9973 A2.5,2.5 0 0 1 43,1168.4973 L43,1084.4873 A2.5,2.5 0 0 1 45.5,1081.9873" fill="#FFFFFF" style="stroke:#000000;stroke-width:1;"/><line style="stroke:#000000;stroke-width:1;" x1="43" x2="166.3936" y1="1105.002" y2="1105.002"/><text fill="#000000" font-family="Verdana" font-size="14" font-weight="bold" lengthAdjust="spacing" textLength="110.3936" x="47" y="1098.0625">Core Business</text></g><!--cluster Services--><g class="cluster" data-entity="Services" data-source-line="75" data-uid="ent0039" id="cluster_Services"><path d="M70.5,880.9873 L137.4258,880.9873 A3.75,3.75 0 0 1 139.9258,883.4873 L146.9258,904.002 L394.5,904.002 A2.5,2.5 0 0 1 397,906.502 L397,990.4873 A2.5,2.5 0 0 1 394.5,992.9873 L70.5,992.9873 A2.5,2.5 0 0 1 68,990.4873 L68,883.4873 A2.5,2.5 0 0 1 70.5,880.9873" fill="#FFFFFF" style="stroke:#000000;stroke-width:1;"/><line style="stroke:#000000;stroke-width:1;" x1="68" x2="146.9258" y1="904.002" y2="904.002"/><text fill="#000000" font-family="Verdana" font-size="14" font-weight="bold" lengthAdjust="spacing" textLength="65.9258" x="72" y="897.0625">Services</text></g><!--cluster Infrastructure Layer--><g class="cluster" data-entity="Infrastructure Layer" data-source-line="85" data-uid="ent0045" id="cluster_Infrastructure Layer"><path d="M1863.5,556.9673 L2025.2266,556.9673 A3.75,3.75 0 0 1 2027.7266,559.4673 L2034.7266,579.982 L3414.5,579.982 A2.5,2.5 0 0 1 3417,582.482 L3417,744.4873 A2.5,2.5 0 0 1 3414.5,746.9873 L1863.5,746.9873 A2.5,2.5 0 0 1 1861,744.4873 L1861,559.4673 A2.5,2.5 0 0 1 1863.5,556.9673" fill="#FFFFFF" style="stroke:#000000;stroke-width:1;"/><line style="stroke:#000000;stroke-width:1;" x1="1861" x2="2034.7266" y1="579.982" y2="579.982"/><text fill="#000000" font-family="Verdana" font-size="14" font-weight="bold" lengthAdjust="spacing" textLength="160.7266" x="1865" y="573.0425">Infrastructure Layer</text><text fill="#000000" font-family="Verdana" font-size="14" font-style="italic" lengthAdjust="spacing" textLength="115.7324" x="2585.1338" y="596.0571">&#171;Infrastructure&#187;</text></g><!--cluster Service Implementations--><g class="cluster" data-entity="Service Implementations" data-source-line="86" data-uid="ent0046" id="cluster_Service Implementations"><path d="M1895.5,625.9673 L2094.0996,625.9673 A3.75,3.75 0 0 1 2096.5996,628.4673 L2103.5996,648.982 L2124.5,648.982 A2.5,2.5 0 0 1 2127,651.482 L2127,712.4873 A2.5,2.5 0 0 1 2124.5,714.9873 L1895.5,714.9873 A2.5,2.5 0 0 1 1893,712.4873 L1893,628.4673 A2.5,2.5 0 0 1 1895.5,625.9673" fill="#FFFFFF" style="stroke:#000000;stroke-width:1;"/><line style="stroke:#000000;stroke-width:1;" x1="1893" x2="2103.5996" y1="648.982" y2="648.982"/><text fill="#000000" font-family="Verdana" font-size="14" font-weight="bold" lengthAdjust="spacing" textLength="197.5996" x="1897" y="642.0425">Service Implementations</text></g><!--cluster Output Adapters--><g class="cluster" data-entity="Output Adapters" data-source-line="90" data-uid="ent0048" id="cluster_Output Adapters"><path d="M2153.5,625.9673 L2284.417,625.9673 A3.75,3.75 0 0 1 2286.917,628.4673 L2293.917,648.982 L3374.5,648.982 A2.5,2.5 0 0 1 3377,651.482 L3377,712.4873 A2.5,2.5 0 0 1 3374.5,714.9873 L2153.5,714.9873 A2.5,2.5 0 0 1 2151,712.4873 L2151,628.4673 A2.5,2.5 0 0 1 2153.5,625.9673" fill="#FFFFFF" style="stroke:#000000;stroke-width:1;"/><line style="stroke:#000000;stroke-width:1;" x1="2151" x2="2293.917" y1="648.982" y2="648.982"/><text fill="#000000" font-family="Verdana" font-size="14" font-weight="bold" lengthAdjust="spacing" textLength="129.917" x="2155" y="642.0425">Output Adapters</text></g><!--entity entry--><g class="entity" data-entity="entry" data-source-line="23" data-uid="ent0003" id="entity_entry"><rect fill="#FFFFFF" height="37.0146" rx="2.5" ry="2.5" style="stroke:#000000;stroke-width:1;" width="149.4932" x="3944.25" y="111.7373"/><text fill="#000000" font-family="Verdana" font-size="14" font-weight="bold" lengthAdjust="spacing" textLength="129.4932" x="3954.25" y="135.8125">AsyncEntryPoint</text></g><!--entity root--><g class="entity" data-entity="root" data-source-line="24" data-uid="ent0004" id="entity_root"><rect fill="#FFFFFF" height="37.0146" rx="2.5" ry="2.5" style="stroke:#000000;stroke-width:1;" width="154.3467" x="3869.83" y="225.7473"/><text fill="#000000" font-family="Verdana" font-size="14" font-weight="bold" lengthAdjust="spacing" textLength="134.3467" x="3879.83" y="249.8225">CompositionRoot</text></g><!--entity parser--><g class="entity" data-entity="parser" data-source-line="25" data-uid="ent0005" id="entity_parser"><rect fill="#FFFFFF" height="37.0146" rx="2.5" ry="2.5" style="stroke:#000000;stroke-width:1;" width="152.46" x="4058.77" y="225.7473"/><text fill="#000000" font-family="Verdana" font-size="14" font-weight="bold" lengthAdjust="spacing" textLength="132.46" x="4068.77" y="249.8225">SecureArgParser</text></g><!--entity config--><g class="entity" data-entity="config" data-source-line="26" data-uid="ent0006" id="entity_config"><rect fill="#FFFFFF" height="37.0146" rx="2.5" ry="2.5" style="stroke:#000000;stroke-width:1;" width="100.6504" x="4084.67" y="438.7573"/><text fill="#000000" font-family="Verdana" font-size="14" font-weight="bold" lengthAdjust="spacing" textLength="80.6504" x="4094.67" y="462.8325">AppConfig</text></g><!--entity cli--><g class="entity" data-entity="cli" data-source-line="34" data-uid="ent0011" id="entity_cli"><rect fill="#FFFFFF" height="37.0146" rx="2.5" ry="2.5" style="stroke:#000000;stroke-width:1;" width="122.6895" x="3539.66" y="661.9673"/><text fill="#000000" font-family="Verdana" font-size="14" font-weight="bold" lengthAdjust="spacing" textLength="102.6895" x="3549.66" y="686.0425">PureAsyncCli</text></g><!--entity runner--><g class="entity" data-entity="runner" data-source-line="35" data-uid="ent0012" id="entity_runner"><rect fill="#FFFFFF" height="37.0146" rx="2.5" ry="2.5" style="stroke:#000000;stroke-width:1;" width="143.3271" x="3465.34" y="928.4773"/><text fill="#000000" font-family="Verdana" font-size="14" font-weight="bold" lengthAdjust="spacing" textLength="123.3271" x="3475.34" y="952.5525">AsyncCliRunner</text></g><!--entity factory--><g class="entity" data-entity="factory" data-source-line="36" data-uid="ent0013" id="entity_factory"><rect fill="#FFFFFF" height="37.0146" rx="2.5" ry="2.5" style="stroke:#000000;stroke-width:1;" width="98.4561" x="3690.77" y="438.7573"/><text fill="#000000" font-family="Verdana" font-size="14" font-weight="bold" lengthAdjust="spacing" textLength="78.4561" x="3700.77" y="462.8325">CliFactory</text></g><!--entity pconfig--><g class="entity" data-entity="pconfig" data-source-line="37" data-uid="ent0014" id="entity_pconfig"><rect fill="#FFFFFF" height="37.0146" rx="2.5" ry="2.5" style="stroke:#000000;stroke-width:1;" width="170.7734" x="3643.61" y="928.4773"/><text fill="#000000" font-family="Verdana" font-size="14" font-weight="bold" lengthAdjust="spacing" textLength="150.7734" x="3653.61" y="952.5525">PresentationConfig</text></g><!--entity input--><g class="entity" data-entity="input" data-source-line="46" data-uid="ent0020" id="entity_input"><ellipse cx="1679" cy="946.9873" fill="#FFFFFF" rx="8" ry="8" style="stroke:#000000;stroke-width:1;"/><text fill="#000000" font-family="Verdana" font-size="14" lengthAdjust="spacing" textLength="173.0859" x="1592.457" y="978.0625">CreateGreetingInputPort</text></g><!--entity output--><g class="entity" data-entity="output" data-source-line="47" data-uid="ent0021" id="entity_output"><ellipse cx="1504" cy="946.9873" fill="#FFFFFF" rx="8" ry="8" style="stroke:#000000;stroke-width:1;"/><text fill="#000000" font-family="Verdana" font-size="14" lengthAdjust="spacing" textLength="76.9248" x="1465.5376" y="978.0625">OutputPort</text></g><!--entity error--><g class="entity" data-entity="error" data-source-line="48" data-uid="ent0022" id="entity_error"><ellipse cx="1359" cy="946.9873" fill="#FFFFFF" rx="8" ry="8" style="stroke:#000000;stroke-width:1;"/><text fill="#000000" font-family="Verdana" font-size="14" lengthAdjust="spacing" textLength="112.1982" x="1302.9009" y="978.0625">ErrorOutputPort</text></g><!--entity usecase--><g class="entity" data-entity="usecase" data-source-line="52" data-uid="ent0024" id="entity_usecase"><rect fill="#FFFFFF" height="37.0146" rx="2.5" ry="2.5" style="stroke:#000000;stroke-width:1;" width="205.3018" x="844.35" y="661.9673"/><text fill="#000000" font-family="Verdana" font-size="14" font-weight="bold" lengthAdjust="spacing" textLength="185.3018" x="854.35" y="686.0425">CreateGreetingUseCase</text></g><!--entity batch--><g class="entity" data-entity="batch" data-source-line="53" data-uid="ent0025" id="entity_batch"><rect fill="#FFFFFF" height="37.0146" rx="2.5" ry="2.5" style="stroke:#000000;stroke-width:1;" width="258.2119" x="817.89" y="438.7573"/><text fill="#000000" font-family="Verdana" font-size="14" font-weight="bold" lengthAdjust="spacing" textLength="238.2119" x="827.89" y="462.8325">CreateBatchGreetingsUseCase</text></g><!--entity cmd--><g class="entity" data-entity="cmd" data-source-line="57" data-uid="ent0027" id="entity_cmd"><rect fill="#FFFFFF" height="37.0146" rx="2.5" ry="2.5" style="stroke:#000000;stroke-width:1;" width="217.7295" x="838.14" y="928.4773"/><text fill="#000000" font-family="Verdana" font-size="14" font-weight="bold" lengthAdjust="spacing" textLength="197.7295" x="848.14" y="952.5525">CreateGreetingCommand</text></g><!--entity result--><g class="entity" data-entity="result" data-source-line="58" data-uid="ent0028" id="entity_result"><rect fill="#FFFFFF" height="37.0146" rx="2.5" ry="2.5" style="stroke:#000000;stroke-width:1;" width="137.5234" x="665.24" y="928.4773"/><text fill="#000000" font-family="Verdana" font-size="14" font-weight="bold" lengthAdjust="spacing" textLength="117.5234" x="675.24" y="952.5525">GreetingResult</text></g><!--entity apperror--><g class="entity" data-entity="apperror" data-source-line="59" data-uid="ent0029" id="entity_apperror"><rect fill="#FFFFFF" height="37.0146" rx="2.5" ry="2.5" style="stroke:#000000;stroke-width:1;" width="148.4063" x="1090.8" y="928.4773"/><text fill="#000000" font-family="Verdana" font-size="14" font-weight="bold" lengthAdjust="spacing" textLength="128.4063" x="1100.8" y="952.5525">ApplicationError</text></g><!--entity name--><g class="entity" data-entity="name" data-source-line="70" data-uid="ent0036" id="entity_name"><rect fill="#FFFFFF" height="37.0146" rx="2.5" ry="2.5" style="stroke:#000000;stroke-width:1;" width="119.7227" x="238.14" y="1117.9873"/><text fill="#000000" font-family="Verdana" font-size="14" font-weight="bold" lengthAdjust="spacing" textLength="99.7227" x="248.14" y="1142.0625">PersonName</text></g><!--entity format--><g class="entity" data-entity="format" data-source-line="71" data-uid="ent0037" id="entity_format"><rect fill="#FFFFFF" height="37.0146" rx="2.5" ry="2.5" style="stroke:#000000;stroke-width:1;" width="144.0518" x="58.97" y="1117.9873"/><text fill="#000000" font-family="Verdana" font-size="14" font-weight="bold" lengthAdjust="spacing" textLength="124.0518" x="68.97" y="1142.0625">GreetingFormat</text></g><!--entity domerror--><g class="entity" data-entity="domerror" data-source-line="72" data-uid="ent0038" id="entity_domerror"><rect fill="#FFFFFF" height="37.0146" rx="2.5" ry="2.5" style="stroke:#000000;stroke-width:1;" width="120.208" x="392.9" y="1117.9873"/><text fill="#000000" font-family="Verdana" font-size="14" font-weight="bold" lengthAdjust="spacing" textLength="100.208" x="402.9" y="1142.0625">DomainError</text></g><!--entity service--><g class="entity" data-entity="service" data-source-line="76" data-uid="ent0040" id="entity_service"><ellipse cx="317" cy="946.9873" fill="#FFFFFF" rx="8" ry="8" style="stroke:#000000;stroke-width:1;"/><text fill="#000000" font-family="Verdana" font-size="14" lengthAdjust="spacing" textLength="112.0957" x="260.9521" y="978.0625">GreetingService</text></g><!--entity policy--><g class="entity" data-entity="policy" data-source-line="77" data-uid="ent0041" id="entity_policy"><rect fill="#FFFFFF" height="37.0146" rx="2.5" ry="2.5" style="stroke:#000000;stroke-width:1;" width="134.625" x="83.69" y="928.4773"/><text fill="#000000" font-family="Verdana" font-size="14" font-weight="bold" lengthAdjust="spacing" textLength="114.625" x="93.69" y="952.5525">GreetingPolicy</text></g><!--entity impl--><g class="entity" data-entity="impl" data-source-line="87" data-uid="ent0047" id="entity_impl"><rect fill="#FFFFFF" height="37.0146" rx="2.5" ry="2.5" style="stroke:#000000;stroke-width:1;" width="202.7725" x="1908.61" y="661.9673"/><text fill="#000000" font-family="Verdana" font-size="14" font-weight="bold" lengthAdjust="spacing" textLength="182.7725" x="1918.61" y="686.0425">DefaultGreetingService</text></g><!--entity console--><g class="entity" data-entity="console" data-source-line="91" data-uid="ent0049" id="entity_console"><rect fill="#FFFFFF" height="37.0146" rx="2.5" ry="2.5" style="stroke:#000000;stroke-width:1;" width="198.541" x="2708.73" y="661.9673"/><text fill="#000000" font-family="Verdana" font-size="14" font-weight="bold" lengthAdjust="spacing" textLength="178.541" x="2718.73" y="686.0425">ConsoleOutputAdapter</text></g><!--entity cerror--><g class="entity" data-entity="cerror" data-source-line="92" data-uid="ent0050" id="entity_cerror"><rect fill="#FFFFFF" height="37.0146" rx="2.5" ry="2.5" style="stroke:#000000;stroke-width:1;" width="238.5928" x="2166.7" y="661.9673"/><text fill="#000000" font-family="Verdana" font-size="14" font-weight="bold" lengthAdjust="spacing" textLength="218.5928" x="2176.7" y="686.0425">ConsoleErrorOutputAdapter</text></g><!--entity file--><g class="entity" data-entity="file" data-source-line="93" data-uid="ent0051" id="entity_file"><rect fill="#FFFFFF" height="37.0146" rx="2.5" ry="2.5" style="stroke:#000000;stroke-width:1;" width="164.7988" x="3196.6" y="661.9673"/><text fill="#000000" font-family="Verdana" font-size="14" font-weight="bold" lengthAdjust="spacing" textLength="144.7988" x="3206.6" y="686.0425">FileOutputAdapter</text></g><!--entity buffer--><g class="entity" data-entity="buffer" data-source-line="94" data-uid="ent0052" id="entity_buffer"><rect fill="#FFFFFF" height="37.0146" rx="2.5" ry="2.5" style="stroke:#000000;stroke-width:1;" width="232.6045" x="2440.7" y="661.9673"/><text fill="#000000" font-family="Verdana" font-size="14" font-weight="bold" lengthAdjust="spacing" textLength="212.6045" x="2450.7" y="686.0425">BufferedFileOutputAdapter</text></g><!--entity composite--><g class="entity" data-entity="composite" data-source-line="95" data-uid="ent0053" id="entity_composite"><rect fill="#FFFFFF" height="37.0146" rx="2.5" ry="2.5" style="stroke:#000000;stroke-width:1;" width="219.5479" x="2942.23" y="661.9673"/><text fill="#000000" font-family="Verdana" font-size="14" font-weight="bold" lengthAdjust="spacing" textLength="199.5479" x="2952.23" y="686.0425">CompositeOutputAdapter</text></g><g class="entity" data-entity="GMN69" data-source-line="120" data-uid="ent0070" id="entity_GMN69"><path d="M2892.01,436.4673 L2892.01,478.0659 A0,0 0 0 0 2892.01,478.0659 L3087.11,478.0659 L3055.49,661.5273 L3095.11,478.0659 L3297.989,478.0659 A0,0 0 0 0 3297.989,478.0659 L3297.989,446.4673 L3287.989,436.4673 L2892.01,436.4673 A0,0 0 0 0 2892.01,436.4673" fill="#FFFFCC" style="stroke:#666666;stroke-width:1;"/><path d="M3287.989,436.4673 L3287.989,446.4673 L3297.989,446.4673 L3287.989,436.4673" fill="#FFFFCC" style="stroke:#666666;stroke-width:1;"/><text fill="#000000" font-family="Verdana" font-size="13" lengthAdjust="spacing" textLength="315.4531" x="2898.01" y="454.5371">Dependencies flow inward toward Domain Layer</text><text fill="#000000" font-family="Verdana" font-size="13" lengthAdjust="spacing" textLength="384.979" x="2898.01" y="470.3364">Bootstrap is the only module that knows all concrete types</text></g><g class="entity" data-entity="GMN72" data-source-line="122" data-uid="ent0073" id="entity_GMN72"><path d="M3849.66,918.2873 L3849.66,975.6853 L4056.3416,975.6853 L4056.3416,928.2873 L4046.3416,918.2873 L3849.66,918.2873" fill="#FFFFCC" style="stroke:#666666;stroke-width:1;"/><path d="M4046.3416,918.2873 L4046.3416,928.2873 L4056.3416,928.2873 L4046.3416,918.2873" fill="#FFFFCC" style="stroke:#666666;stroke-width:1;"/><text fill="#000000" font-family="Verdana" font-size="13" lengthAdjust="spacing" textLength="124.5791" x="3855.66" y="936.3571">Pure business logic</text><text fill="#000000" font-family="Verdana" font-size="13" lengthAdjust="spacing" textLength="185.6816" x="3855.66" y="952.1564">No framework dependencies</text><text fill="#000000" font-family="Verdana" font-size="13" lengthAdjust="spacing" textLength="167.7686" x="3855.66" y="967.9558">Stable core of the system</text></g><g class="entity" data-entity="GMN75" data-source-line="124" data-uid="ent0076" id="entity_GMN75"><path d="M4242.56,428.5673 L4242.56,485.9653 L4467.4404,485.9653 L4467.4404,438.5673 L4457.4404,428.5673 L4242.56,428.5673" fill="#FFFFCC" style="stroke:#666666;stroke-width:1;"/><path d="M4457.4404,428.5673 L4457.4404,438.5673 L4467.4404,438.5673 L4457.4404,428.5673" fill="#FFFFCC" style="stroke:#666666;stroke-width:1;"/><text fill="#000000" font-family="Verdana" font-size="13" lengthAdjust="spacing" textLength="178.6357" x="4248.56" y="446.6371">Orchestrates business logic</text><text fill="#000000" font-family="Verdana" font-size="13" lengthAdjust="spacing" textLength="175.0049" x="4248.56" y="462.4364">Defines boundaries (ports)</text><text fill="#000000" font-family="Verdana" font-size="13" lengthAdjust="spacing" textLength="203.8804" x="4248.56" y="478.2358">Handles cross-cutting concerns</text></g><g class="entity" data-entity="GMN78" data-source-line="126" data-uid="ent0079" id="entity_GMN78"><path d="M3221.74,918.2873 L3221.74,975.6853 L3430.2561,975.6853 L3430.2561,928.2873 L3420.2561,918.2873 L3221.74,918.2873" fill="#FFFFCC" style="stroke:#666666;stroke-width:1;"/><path d="M3420.2561,918.2873 L3420.2561,928.2873 L3430.2561,928.2873 L3420.2561,918.2873" fill="#FFFFCC" style="stroke:#666666;stroke-width:1;"/><text fill="#000000" font-family="Verdana" font-size="13" lengthAdjust="spacing" textLength="174.0146" x="3227.74" y="936.3571">Technical implementations</text><text fill="#000000" font-family="Verdana" font-size="13" lengthAdjust="spacing" textLength="187.5161" x="3227.74" y="952.1564">External system integrations</text><text fill="#000000" font-family="Verdana" font-size="13" lengthAdjust="spacing" textLength="115.4385" x="3227.74" y="967.9558">All I/O operations</text></g><!--link entry to root--><g class="link" data-entity-1="entry" data-entity-2="root" data-source-line="28" data-uid="lnk7" id="link_entry_root"><path d="M4007.43,149.2373 C3994,170.1373 3975.2041,199.3699 3961.7841,220.2499" fill="none" id="entry-to-root" style="stroke:#000000;stroke-width:1;"/><polygon fill="#000000" points="3958.54,225.2973,3966.771,219.8889,3961.2434,221.0912,3960.0412,215.5635,3958.54,225.2973" style="stroke:#000000;stroke-width:1;"/><text fill="#000000" font-family="Verdana" font-size="13" lengthAdjust="spacing" textLength="60.3408" x="3988.31" y="192.8171">initializes</text></g><!--link entry to parser--><g class="link" data-entity-1="entry" data-entity-2="parser" data-source-line="29" data-uid="lnk8" id="link_entry_parser"><path d="M4037.64,149.2373 C4059.28,170.1373 4090.4632,200.2502 4112.0932,221.1302" fill="none" id="entry-to-parser" style="stroke:#000000;stroke-width:1;"/><polygon fill="#000000" points="4116.41,225.2973,4112.7129,216.1687,4112.8126,221.8247,4107.1567,221.9245,4116.41,225.2973" style="stroke:#000000;stroke-width:1;"/><text fill="#000000" font-family="Verdana" font-size="13" lengthAdjust="spacing" textLength="75.5435" x="4084.95" y="192.8171">parses args</text></g><!--link parser to config--><g class="link" data-entity-1="parser" data-entity-2="config" data-source-line="30" data-uid="lnk9" id="link_parser_config"><path d="M4135,263.2473 C4135,303.1073 4135,392.4973 4135,432.3273" fill="none" id="parser-to-config" style="stroke:#000000;stroke-width:1;"/><polygon fill="#000000" points="4135,438.3273,4139,429.3273,4135,433.3273,4131,429.3273,4135,438.3273" style="stroke:#000000;stroke-width:1;"/><text fill="#000000" font-family="Verdana" font-size="13" lengthAdjust="spacing" textLength="47.5122" x="4136" y="306.8271">creates</text></g><!--link factory to cli--><g class="link" data-entity-1="factory" data-entity-2="cli" data-source-line="39" data-uid="lnk15" id="link_factory_cli"><path d="M3728.86,475.9973 C3702.83,517.4173 3641.462,615.0768 3615.382,656.5868" fill="none" id="factory-to-cli" style="stroke:#000000;stroke-width:1;"/><polygon fill="#000000" points="3612.19,661.6673,3620.365,656.1746,3614.85,657.4336,3613.591,651.9186,3612.19,661.6673" style="stroke:#000000;stroke-width:1;"/><text fill="#000000" font-family="Verdana" font-size="13" lengthAdjust="spacing" textLength="47.5122" x="3703.72" y="530.0371">creates</text></g><!--link cli to runner--><g class="link" data-entity-1="cli" data-entity-2="runner" data-source-line="40" data-uid="lnk16" id="link_cli_runner"><path d="M3596.7,699.2373 C3585.04,747.4273 3554.3312,874.3656 3542.6912,922.4656" fill="none" id="cli-to-runner" style="stroke:#000000;stroke-width:1;"/><polygon fill="#000000" points="3541.28,928.2973,3547.2846,920.4906,3542.456,923.4376,3539.5091,918.609,3541.28,928.2973" style="stroke:#000000;stroke-width:1;"/><text fill="#000000" font-family="Verdana" font-size="13" lengthAdjust="spacing" textLength="29.5166" x="3579.47" y="785.0571">uses</text></g><!--link cli to pconfig--><g class="link" data-entity-1="cli" data-entity-2="pconfig" data-source-line="41" data-uid="lnk17" id="link_cli_pconfig"><path d="M3609.6,699.2373 C3632.92,747.4273 3694.557,874.7962 3717.827,922.8962" fill="none" id="cli-to-pconfig" style="stroke:#000000;stroke-width:1;"/><polygon fill="#000000" points="3720.44,928.2973,3720.1213,918.4536,3718.2625,923.7964,3712.9198,921.9376,3720.44,928.2973" style="stroke:#000000;stroke-width:1;"/><text fill="#000000" font-family="Verdana" font-size="13" lengthAdjust="spacing" textLength="89.1084" x="3650.77" y="785.0571">configured by</text></g><!--link usecase to input--><g class="link" data-entity-1="usecase" data-entity-2="input" data-source-line="62" data-uid="lnk30" id="link_usecase_input"><path d="M1049.91,688.6073 C1197.62,700.2173 1461.19,726.5173 1545,770.9873 C1618.69,810.0773 1657.1752,892.8619 1669.0152,921.5119" fill="none" id="usecase-to-input" style="stroke:#000000;stroke-width:1;stroke-dasharray:7,7;"/><polygon fill="none" points="1675.89,938.1473,1674.5603,919.2203,1663.4701,923.8035,1675.89,938.1473" style="stroke:#000000;stroke-width:1;"/><text fill="#000000" font-family="Verdana" font-size="13" lengthAdjust="spacing" textLength="76.1338" x="1570.78" y="785.0571">implements</text></g><!--link usecase to output--><g class="link" data-entity-1="usecase" data-entity-2="output" data-source-line="63" data-uid="lnk31" id="link_usecase_output"><path d="M1049.93,694.1873 C1176.76,711.7073 1382.65,746.7873 1441,795.9873 C1487,834.7573 1499.338,906.8921 1502.428,932.0321" fill="none" id="usecase-to-output" style="stroke:#000000;stroke-width:1;"/><polygon fill="#000000" points="1503.16,937.9873,1506.0322,928.5666,1502.55,933.0247,1498.0919,929.5425,1503.16,937.9873" style="stroke:#000000;stroke-width:1;"/><text fill="#000000" font-family="Verdana" font-size="13" lengthAdjust="spacing" textLength="106.5454" x="1430.16" y="785.0571">sends messages</text></g><!--link usecase to error--><g class="link" data-entity-1="usecase" data-entity-2="error" data-source-line="64" data-uid="lnk32" id="link_usecase_error"><path d="M1036.39,699.4673 C1102.01,716.0873 1190.57,745.9473 1255,795.9873 C1308.31,837.3773 1342.49,908.237 1353.28,932.717" fill="none" id="usecase-to-error" style="stroke:#000000;stroke-width:1;"/><polygon fill="#000000" points="1355.7,938.2073,1355.7303,928.3585,1353.6834,933.632,1348.4098,931.5851,1355.7,938.2073" style="stroke:#000000;stroke-width:1;"/><text fill="#000000" font-family="Verdana" font-size="13" lengthAdjust="spacing" textLength="81.2373" x="1241.8" y="785.0571">sends errors</text></g><!--link batch to usecase--><g class="link" data-entity-1="batch" data-entity-2="usecase" data-source-line="65" data-uid="lnk33" id="link_batch_usecase"><path d="M947,475.9973 C947,517.4173 947,614.1573 947,655.6673" fill="none" id="batch-to-usecase" style="stroke:#000000;stroke-width:1;"/><polygon fill="#000000" points="947,661.6673,951,652.6673,947,656.6673,943,652.6673,947,661.6673" style="stroke:#000000;stroke-width:1;"/><text fill="#000000" font-family="Verdana" font-size="13" lengthAdjust="spacing" textLength="80.2852" x="948" y="530.0371">delegates to</text></g><!--link service to name--><g class="link" data-entity-1="service" data-entity-2="name" data-source-line="80" data-uid="lnk42" id="link_service_name"><path d="M316.23,955.5673 C313.45,983.0373 304.4443,1071.8778 300.4143,1111.6878" fill="none" id="service-to-name" style="stroke:#000000;stroke-width:1;"/><polygon fill="#000000" points="299.81,1117.6573,304.6961,1109.1059,300.3136,1112.6827,296.7368,1108.3002,299.81,1117.6573" style="stroke:#000000;stroke-width:1;"/><text fill="#000000" font-family="Verdana" font-size="13" lengthAdjust="spacing" textLength="58.1826" x="307.36" y="1063.0571">validates</text></g><!--link service to format--><g class="link" data-entity-1="service" data-entity-2="format" data-source-line="81" data-uid="lnk43" id="link_service_format"><path d="M310.99,955.4873 C297.93,971.6573 265.73,1010.7573 236,1040.9873 C208.31,1069.1273 178.4889,1095.3682 156.7789,1113.8482" fill="none" id="service-to-format" style="stroke:#000000;stroke-width:1;"/><polygon fill="#000000" points="152.21,1117.7373,161.6561,1114.9495,156.0174,1114.4964,156.4706,1108.8577,152.21,1117.7373" style="stroke:#000000;stroke-width:1;"/><text fill="#000000" font-family="Verdana" font-size="13" lengthAdjust="spacing" textLength="29.5166" x="228.91" y="1063.0571">uses</text></g><!--link policy to format--><g class="link" data-entity-1="policy" data-entity-2="format" data-source-line="82" data-uid="lnk44" id="link_policy_format"><path d="M145.71,965.6573 C140.02,985.6573 131.34,1019.3173 128,1048.9873 C127.16,1056.4873 127.84,1058.4273 128,1065.9873 C128.38,1083.4973 128.9825,1097.4752 129.7025,1111.5052" fill="none" id="policy-to-format" style="stroke:#000000;stroke-width:1;"/><polygon fill="#000000" points="130.01,1117.4973,133.5435,1108.3041,129.7537,1112.5039,125.554,1108.7141,130.01,1117.4973" style="stroke:#000000;stroke-width:1;"/><text fill="#000000" font-family="Verdana" font-size="13" lengthAdjust="spacing" textLength="73.2139" x="129" y="1063.0571">determines</text></g><!--link impl to service--><g class="link" data-entity-1="impl" data-entity-2="service" data-source-line="98" data-uid="lnk54" id="link_impl_service"><path d="M1965.41,699.4173 C1899.2,724.9973 1770.4,770.7773 1656,787.9873 C1638.54,790.6073 399.81,786.3673 385,795.9873 C333.44,829.4573 322.4734,894.6136 319.6634,920.3536" fill="none" id="impl-to-service" style="stroke:#000000;stroke-width:1;stroke-dasharray:7,7;"/><polygon fill="none" points="317.71,938.2473,325.628,921.0048,313.6989,919.7025,317.71,938.2473" style="stroke:#000000;stroke-width:1;"/><text fill="#000000" font-family="Verdana" font-size="13" lengthAdjust="spacing" textLength="76.1338" x="1736.31" y="785.0571">implements</text></g><!--link console to output--><g class="link" data-entity-1="console" data-entity-2="output" data-source-line="99" data-uid="lnk55" id="link_console_output"><path d="M2789.03,699.1973 C2767.2,718.4373 2729.41,748.3773 2691,762.9873 C2603.15,796.3973 2574.8,782.0073 2481,787.9873 C2468.34,788.7873 1578.55,788.9473 1568,795.9873 C1517.36,829.7573 1508.1354,894.6595 1505.9954,920.3295" fill="none" id="console-to-output" style="stroke:#000000;stroke-width:1;stroke-dasharray:7,7;"/><polygon fill="none" points="1504.5,938.2673,1511.9747,920.828,1500.0161,919.8311,1504.5,938.2673" style="stroke:#000000;stroke-width:1;"/><text fill="#000000" font-family="Verdana" font-size="13" lengthAdjust="spacing" textLength="76.1338" x="2667.3" y="785.0571">implements</text></g><!--link cerror to error--><g class="link" data-entity-1="cerror" data-entity-2="error" data-source-line="100" data-uid="lnk56" id="link_cerror_error"><path d="M2255.84,699.4673 C2224.52,717.5373 2173.67,745.1873 2127,762.9873 C2085.8,778.6873 2074.69,782.0873 2031,787.9873 C2014.76,790.1773 1455.04,787.5273 1441,795.9873 C1386.34,828.8973 1369.2089,894.6826 1363.9889,920.5626" fill="none" id="cerror-to-error" style="stroke:#000000;stroke-width:1;stroke-dasharray:7,7;"/><polygon fill="none" points="1360.43,938.2073,1369.8705,921.749,1358.1074,919.3763,1360.43,938.2073" style="stroke:#000000;stroke-width:1;"/><text fill="#000000" font-family="Verdana" font-size="13" lengthAdjust="spacing" textLength="76.1338" x="2106.39" y="785.0571">implements</text></g><!--link file to output--><g class="link" data-entity-1="file" data-entity-2="output" data-source-line="101" data-uid="lnk57" id="link_file_output"><path d="M3263.36,699.3773 C3245.23,718.7773 3213.39,748.8473 3179,762.9873 C3144.72,777.0673 3132.77,766.3473 3096,770.9873 C3047.35,777.1173 3035.87,784.0573 2987,787.9873 C2967.35,789.5573 1584.41,785.0773 1568,795.9873 C1517.3,829.6773 1508.1004,894.6383 1505.9804,920.3283" fill="none" id="file-to-output" style="stroke:#000000;stroke-width:1;stroke-dasharray:7,7;"/><polygon fill="none" points="1504.5,938.2673,1511.96,920.8217,1500.0007,919.8348,1504.5,938.2673" style="stroke:#000000;stroke-width:1;"/><text fill="#000000" font-family="Verdana" font-size="13" lengthAdjust="spacing" textLength="76.1338" x="3097" y="785.0571">implements</text></g><!--link buffer to output--><g class="link" data-entity-1="buffer" data-entity-2="output" data-source-line="102" data-uid="lnk58" id="link_buffer_output"><path d="M2534.83,699.2273 C2509.44,718.5073 2465.81,748.4673 2423,762.9873 C2324.78,796.2873 2294.52,781.7573 2191,787.9873 C2173.72,789.0173 1582.38,786.3473 1568,795.9873 C1517.42,829.8573 1508.1641,894.7003 1506.0141,920.3403" fill="none" id="buffer-to-output" style="stroke:#000000;stroke-width:1;stroke-dasharray:7,7;"/><polygon fill="none" points="1504.51,938.2773,1511.9931,920.8416,1500.0351,919.8389,1504.51,938.2773" style="stroke:#000000;stroke-width:1;"/><text fill="#000000" font-family="Verdana" font-size="13" lengthAdjust="spacing" textLength="76.1338" x="2396.43" y="785.0571">implements</text></g><!--link composite to output--><g class="link" data-entity-1="composite" data-entity-2="output" data-source-line="103" data-uid="lnk59" id="link_composite_output"><path d="M3030.62,699.3273 C3006.55,718.3773 2965.5,747.8773 2925,762.9873 C2852.21,790.1373 2829.47,782.1473 2752,787.9873 C2735.6,789.2173 1581.69,786.8773 1568,795.9873 C1517.32,829.7073 1508.1179,894.6489 1505.9879,920.3289" fill="none" id="composite-to-output" style="stroke:#000000;stroke-width:1;stroke-dasharray:7,7;"/><polygon fill="none" points="1504.5,938.2673,1511.9673,920.8249,1500.0084,919.8329,1504.5,938.2673" style="stroke:#000000;stroke-width:1;"/><text fill="#000000" font-family="Verdana" font-size="13" lengthAdjust="spacing" textLength="76.1338" x="2901.78" y="785.0571">implements</text></g><!--link cli to input--><g class="link" data-entity-1="cli" data-entity-2="input" data-source-line="107" data-uid="lnk60" id="link_cli_input"><path d="M3570.4,699.4473 C3536.19,718.6273 3478.56,748.2173 3425,762.9873 C3335.02,787.7973 1824.0629,932.158 1693.8729,944.568" fill="none" id="cli-to-input" style="stroke:#000000;stroke-width:1;"/><polygon fill="#000000" points="1687.9,945.1373,1697.239,948.2652,1692.8774,944.6628,1696.4798,940.3013,1687.9,945.1373" style="stroke:#000000;stroke-width:1;"/><text fill="#000000" font-family="Verdana" font-size="13" lengthAdjust="spacing" textLength="57.8208" x="3375.17" y="785.0571">executes</text></g><!--link usecase to service--><g class="link" data-entity-1="usecase" data-entity-2="service" data-source-line="108" data-uid="lnk61" id="link_usecase_service"><path d="M843.97,691.2473 C701.68,706.5773 454.68,740.4273 385,795.9873 C337.16,834.1273 322.6714,907.3839 318.9214,932.3439" fill="none" id="usecase-to-service" style="stroke:#000000;stroke-width:1;"/><polygon fill="#000000" points="318.03,938.2773,323.3228,929.9715,318.7729,933.3328,315.4116,928.7829,318.03,938.2773" style="stroke:#000000;stroke-width:1;"/><text fill="#000000" font-family="Verdana" font-size="13" lengthAdjust="spacing" textLength="29.5166" x="425.95" y="785.0571">uses</text></g><!--link usecase to cmd--><g class="link" data-entity-1="usecase" data-entity-2="cmd" data-source-line="109" data-uid="lnk62" id="link_usecase_cmd"><path d="M947,699.2373 C947,747.4273 947,874.1973 947,922.2973" fill="none" id="usecase-to-cmd" style="stroke:#000000;stroke-width:1;"/><polygon fill="#000000" points="947,928.2973,951,919.2973,947,923.2973,943,919.2973,947,928.2973" style="stroke:#000000;stroke-width:1;"/><text fill="#000000" font-family="Verdana" font-size="13" lengthAdjust="spacing" textLength="53.5869" x="948" y="785.0571">receives</text></g><!--link usecase to result--><g class="link" data-entity-1="usecase" data-entity-2="result" data-source-line="110" data-uid="lnk63" id="link_usecase_result"><path d="M923.15,699.4473 C896.18,720.5473 852.01,757.5773 821,795.9873 C785.82,839.5473 758.3841,893.5581 744.6241,922.8081" fill="none" id="usecase-to-result" style="stroke:#000000;stroke-width:1;"/><polygon fill="#000000" points="742.07,928.2373,749.5206,921.7961,744.1984,923.7129,742.2816,918.3907,742.07,928.2373" style="stroke:#000000;stroke-width:1;"/><text fill="#000000" font-family="Verdana" font-size="13" lengthAdjust="spacing" textLength="47.1885" x="843.49" y="785.0571">returns</text></g><!--link root to impl--><g class="link" data-entity-1="root" data-entity-2="impl" data-source-line="113" data-uid="lnk64" id="link_root_impl"><path d="M3869.5,245.7473 C3575.33,248.0373 2537.54,260.1673 2402,317.7573 C2217.91,395.9873 2068.8373,594.7995 2025.6773,656.5495" fill="none" id="root-to-impl" style="stroke:#000000;stroke-width:1;stroke-dasharray:7,7;"/><polygon fill="#000000" points="2022.24,661.4673,2030.6745,656.3821,2025.1044,657.3691,2024.1174,651.799,2022.24,661.4673" style="stroke:#000000;stroke-width:1;"/><text fill="#000000" font-family="Verdana" font-size="13" lengthAdjust="spacing" textLength="47.5122" x="2403" y="462.8371">creates</text></g><!--link root to console--><g class="link" data-entity-1="root" data-entity-2="console" data-source-line="114" data-uid="lnk65" id="link_root_console"><path d="M3869.34,247.4673 C3621.36,254.8973 2862.61,280.5973 2826,317.7573 C2731.35,413.8373 2780.8126,597.152 2799.9426,655.912" fill="none" id="root-to-console" style="stroke:#000000;stroke-width:1;stroke-dasharray:7,7;"/><polygon fill="#000000" points="2801.8,661.6173,2802.8174,651.8211,2800.2522,656.8629,2795.2104,654.2977,2801.8,661.6173" style="stroke:#000000;stroke-width:1;"/><text fill="#000000" font-family="Verdana" font-size="13" lengthAdjust="spacing" textLength="47.5122" x="2827" y="462.8371">creates</text></g><!--link root to cerror--><g class="link" data-entity-1="root" data-entity-2="cerror" data-source-line="115" data-uid="lnk66" id="link_root_cerror"><path d="M3869.5,244.5173 C3688.54,243.6773 3224.38,246.6573 2840,292.7573 C2783.31,299.5573 2766.01,294.2173 2714,317.7573 C2523,404.2273 2354.1061,596.8155 2304.2361,657.0555" fill="none" id="root-to-cerror" style="stroke:#000000;stroke-width:1;stroke-dasharray:7,7;"/><polygon fill="#000000" points="2300.41,661.6773,2309.2304,657.2954,2303.5985,657.8258,2303.068,652.1939,2300.41,661.6773" style="stroke:#000000;stroke-width:1;"/><text fill="#000000" font-family="Verdana" font-size="13" lengthAdjust="spacing" textLength="47.5122" x="2715" y="462.8371">creates</text></g><!--link root to usecase--><g class="link" data-entity-1="root" data-entity-2="usecase" data-source-line="116" data-uid="lnk67" id="link_root_usecase"><path d="M3869.56,245.4273 C3369.23,246.6973 611.99,256.4773 552,317.7573 C495.41,375.5673 508.22,431.7573 552,499.7773 C616.02,599.2373 744.2107,643.0418 838.3207,663.0118" fill="none" id="root-to-usecase" style="stroke:#000000;stroke-width:1;stroke-dasharray:7,7;"/><polygon fill="#000000" points="844.19,664.2573,836.2163,658.4762,839.2989,663.2194,834.5557,666.302,844.19,664.2573" style="stroke:#000000;stroke-width:1;"/><text fill="#000000" font-family="Verdana" font-size="13" lengthAdjust="spacing" textLength="47.5122" x="553" y="462.8371">creates</text></g><!--link root to factory--><g class="link" data-entity-1="root" data-entity-2="factory" data-source-line="117" data-uid="lnk68" id="link_root_factory"><path d="M3920.9,263.2273 C3901.53,277.1073 3874.97,297.3373 3854,317.7573 C3813.17,357.5273 3775.9867,406.3632 3756.0867,433.7532" fill="none" id="root-to-factory" style="stroke:#000000;stroke-width:1;stroke-dasharray:7,7;"/><polygon fill="#000000" points="3752.56,438.6073,3761.0861,433.6773,3755.4989,434.5622,3754.614,428.975,3752.56,438.6073" style="stroke:#000000;stroke-width:1;"/><text fill="#000000" font-family="Verdana" font-size="13" lengthAdjust="spacing" textLength="29.5166" x="3881.6" y="306.8271">uses</text></g><!--link Domain Layer to GMN72--><g class="link" data-entity-1="Domain Layer" data-entity-2="GMN72" data-source-line="122" data-uid="lnk74" id="link_Domain Layer_GMN72"><path d="M569.1405,914.2047 C569.2099,913.972 569.2799,913.7384 569.3504,913.5039 C569.6323,912.5662 569.9221,911.6148 570.22,910.6506 C571.4115,906.7941 572.7321,902.7335 574.1893,898.5215 C577.1036,890.0975 580.5644,881.0679 584.6325,871.8548 C600.905,835.0023 626.895,795.2123 666.5,779.4873 C707.11,763.3573 3771.89,763.3573 3812.5,779.4873 C3875.82,804.6273 3919.42,876.8573 3939.82,917.7873" fill="none" id="Domain Layer-GMN72" style="stroke:#000000;stroke-width:1;stroke-dasharray:7,7;"/></g><!--link GMN75 to Application Layer--><g class="link" data-entity-1="GMN75" data-entity-2="Application Layer" data-source-line="124" data-uid="lnk77" id="link_GMN75_Application Layer"><path d="M4340.06,428.0973 C4317.81,388.2773 4271.8,318.6173 4209.5,290.2573 C4123.79,251.2573 908.12,258.4273 819.5,290.2573 C792.91,299.8098 767.3219,314.5311 743.81,331.3571 C743.0753,331.883 742.3425,332.4108 741.6119,332.9407 C741.2465,333.2056 740.8817,333.471 740.5174,333.7369" fill="none" id="GMN75-Application Layer" style="stroke:#000000;stroke-width:1;stroke-dasharray:7,7;"/></g><!--link Infrastructure Layer to GMN78--><g class="link" data-entity-1="Infrastructure Layer" data-entity-2="GMN78" data-source-line="126" data-uid="lnk80" id="link_Infrastructure Layer_GMN78"><path d="M3388.3378,747.3164 C3388.2253,747.6747 3388.1126,748.0339 3387.9997,748.3939 C3387.0959,751.2741 3386.1747,754.2096 3385.2388,757.1923 C3383.3669,763.1578 3381.4356,769.3123 3379.465,775.5923 C3363.7,825.8323 3345.415,884.1023 3334.83,917.8373" fill="none" id="Infrastructure Layer-GMN78" style="stroke:#000000;stroke-width:1;stroke-dasharray:7,7;"/></g><g class="caption" data-source-line="3"><text fill="#000000" font-family="Verdana" font-size="14" lengthAdjust="spacing" textLength="603.1211" x="1931.1596" y="1228.0725">A modern Kotlin architecture combining Hexagonal, Clean, and Vertical Slice patterns</text></g><!--SRC=[XLTBRnit4BxhLqoTGn8WTb70wS4834YoLHjjRC5AUubxe7P74c4kkI0fswgR_zwPuQxseRMhWytT-SYP-UR5_Ibki40eZT9s57Kq25UxfTSvZ7ssqH6pkFK8tx0WI4GuXiKkH2pWzX7zeyQdKQRAg9s5CHGkHs_XTnUDjg3Q-pDNBBNLTWrN-ApMpYhp2QO6bVq4okRm5_geCsLWONH6vgWOwQWm6eK7RKlbLS57bCwYZOku8oizdQpisk0G15v6GB-9oXxMtcrjFdN6-IzVBbn1VfwVmxlPxFBpv7GODIvBiaAnLmoTd5v-dis6eTTsvLM8VYjkCfgFVGqzznZ8kjR9RCOmTk9Sf8DLcQoTqYy1dIUM1GGJGxlaxSmHB_eVX5zEcsVXQUbCFlhH9j8wYkCWGQo8LHqeUlUh_FYSahQeDSBHta3uwlAjmIFe6fqqV1-7dSqkRVIxkTCs_Wqg0F9Z4ayvP44p8tUqMSIU5acwm8ne7VlrNFc0NgIbBAl3otBgx4glHPB9KYJoHzJ0yV6vd0XdG1aOjJB4K-W1qg44aKMWv5qdI2LWJ3gUC9b7AeNGOQCTMlX3xT0p7xs0LvJCsIUcPMfqCjpe5bdqzcvhRUMkbsL5bj4pbKNdTo9QfNLrQ4jLYvEoJqgrANbaTCiTbl8R8Koqad0RUfAoeK4Mv4iEors7Z5O1DLnqg-gbOhUcp_aOZggt_ADKGK-sacmgzltc4ICra6jRRYF3ZzWzpKz3cswtiOrpyZW4lFJU-HuQ-Ps0VpJ4xMtzCo1C5V7IjlTxrqh2C4H2G1HcjEv39ofccneVsXkMB7bL_SMtsxSqKq4Lr55JNXLv0wi1TnYsfYeqMJQGLeY45W6fiXpaet8BJax-FKznu0gZCK7pnCRGmN3Yf10GXj8q3r1W2EJF8KwKxM7ob412Yq1g-1daQ73DsGlHTL8mTVec-_QTlvTuKqVJQR8Dsf8z7Lhdw8EpDwf8GR6qE2HpvdoX4fahMJQGfB7XCNV5stcru86QuMjbKAkiO9Ae8QqFxPex2cJg4gKi-rghdK8dkqPSFb9dpFUTe0r8hhMxGJgqAyoHR2sOo4uakYEoYSZ1w7mPf0EkwvIIlEp6w09NYZAuHusupPduAjMftc6Sqzs5mjmj9rBY32P8XQZ72miEaAqEqe4tqHRqJ0yTkjBj4oVRrGgfeGvZbo9jwq-pSz3MIjIdW6b99Li7-A1eApyJQb-rVL0gKy7K5Tk3i6jl7v8S-Xz5jIUlmoZRtiDNBlSSI-eQQ3DDILXFhBetuJFT9ZYzszscOK5okosYxaclwPw9-h4dIerJf9IyV4zz3yrzw4bxlkb-o5NOq70qN19S9ZnLewPQaubBoVnn91UJavFp59Tc5k_Vry4O4jMy7qYQ_dWWgiT_vI_PVUCO89V2w4eINBH8X9LnJyJWa_8vYULVkxNUsyPjJKruW-2isV6d05q9wPawmuDrJpH6Z65do21Mj2jPkIZrUhs9u5Rzddq6V4-Y74cz6OnRw-pUtZYWlb7Wa_CFdNZVsqLKIyFV6hIDpcDZWdoiL9eChfAYWVl96TpIzmgo9pnD-bgfqKWKbtnNLfwP-L3odUNZlRsYSMleHUPT2CUKOjoAnDVq2IEwbov6LuZsuOPuHjzOsSRAHv3kjhnxU_dCdqCaIVx8M5ZxMZecQgz_lWL7Wpgz6_q7]--></g></svg>