<svg xmlns="http://www.w3.org/2000/svg" xmlns:xlink="http://www.w3.org/1999/xlink" contentStyleType="text/css" data-diagram-type="DESCRIPTION" height="624px" preserveAspectRatio="none" style="width:2067px;height:624px;background:#FFFFFF;" version="1.1" viewBox="0 0 2067 624" width="2067px" zoomAndPan="magnify"><title>Kotlin Hybrid Architecture - Overview</title><defs/><g><g class="title" data-source-line="2"><text fill="#000000" font-family="Verdana" font-size="22" font-weight="bold" lengthAdjust="spacing" textLength="464.8896" x="796.9348" y="37.1182">Kotlin Hybrid Architecture - Overview</text></g><!--cluster Bootstrap Module--><g class="cluster" data-entity="Bootstrap Module" data-source-line="15" data-uid="ent0002" id="cluster_Bootstrap Module"><path d="M741.5,58.7373 L881.0576,58.7373 A3.75,3.75 0 0 1 883.5576,61.2373 L890.5576,81.752 L1071.5,81.752 A2.5,2.5 0 0 1 1074,84.252 L1074,302.3173 A2.5,2.5 0 0 1 1071.5,304.8173 L741.5,304.8173 A2.5,2.5 0 0 1 739,302.3173 L739,61.2373 A2.5,2.5 0 0 1 741.5,58.7373" fill="#FFFFFF" style="stroke:#000000;stroke-width:1;"/><line style="stroke:#000000;stroke-width:1;" x1="739" x2="890.5576" y1="81.752" y2="81.752"/><text fill="#000000" font-family="Verdana" font-size="14" font-weight="bold" lengthAdjust="spacing" textLength="138.5576" x="743" y="74.8125">Bootstrap Module</text><text fill="#000000" font-family="Verdana" font-size="14" font-style="italic" lengthAdjust="spacing" textLength="86.0713" x="867.4644" y="97.8271">&#171;Bootstrap&#187;</text></g><!--cluster Presentation Layer--><g class="cluster" data-entity="Presentation Layer" data-source-line="21" data-uid="ent0006" id="cluster_Presentation Layer"><path d="M13.5,361.8173 L163.4961,361.8173 A3.75,3.75 0 0 1 165.9961,364.3173 L172.9961,384.832 L555.5,384.832 A2.5,2.5 0 0 1 558,387.332 L558,462.9073 A2.5,2.5 0 0 1 555.5,465.4073 L13.5,465.4073 A2.5,2.5 0 0 1 11,462.9073 L11,364.3173 A2.5,2.5 0 0 1 13.5,361.8173" fill="#FFFFFF" style="stroke:#000000;stroke-width:1;"/><line style="stroke:#000000;stroke-width:1;" x1="11" x2="172.9961" y1="384.832" y2="384.832"/><text fill="#000000" font-family="Verdana" font-size="14" font-weight="bold" lengthAdjust="spacing" textLength="148.9961" x="15" y="377.8925">Presentation Layer</text><text fill="#000000" font-family="Verdana" font-size="14" font-style="italic" lengthAdjust="spacing" textLength="105.9365" x="235.5317" y="400.9071">&#171;Presentation&#187;</text></g><!--cluster Application Layer--><g class="cluster" data-entity="Application Layer" data-source-line="28" data-uid="ent0011" id="cluster_Application Layer"><path d="M584.5,361.8173 L722.2803,361.8173 A3.75,3.75 0 0 1 724.7803,364.3173 L731.7803,384.832 L1012.5,384.832 A2.5,2.5 0 0 1 1015,387.332 L1015,615.4873 A2.5,2.5 0 0 1 1012.5,617.9873 L584.5,617.9873 A2.5,2.5 0 0 1 582,615.4873 L582,364.3173 A2.5,2.5 0 0 1 584.5,361.8173" fill="#FFFFFF" style="stroke:#000000;stroke-width:1;"/><line style="stroke:#000000;stroke-width:1;" x1="582" x2="731.7803" y1="384.832" y2="384.832"/><text fill="#000000" font-family="Verdana" font-size="14" font-weight="bold" lengthAdjust="spacing" textLength="136.7803" x="586" y="377.8925">Application Layer</text><text fill="#000000" font-family="Verdana" font-size="14" font-style="italic" lengthAdjust="spacing" textLength="95.1494" x="754.9253" y="400.9071">&#171;Application&#187;</text></g><!--cluster Domain Layer--><g class="cluster" data-entity="Domain Layer" data-source-line="36" data-uid="ent0017" id="cluster_Domain Layer"><path d="M1041.5,514.4073 L1151.082,514.4073 A3.75,3.75 0 0 1 1153.582,516.9073 L1160.582,537.422 L1784.5,537.422 A2.5,2.5 0 0 1 1787,539.922 L1787,615.4873 A2.5,2.5 0 0 1 1784.5,617.9873 L1041.5,617.9873 A2.5,2.5 0 0 1 1039,615.4873 L1039,516.9073 A2.5,2.5 0 0 1 1041.5,514.4073" fill="#FFFFFF" style="stroke:#000000;stroke-width:1;"/><line style="stroke:#000000;stroke-width:1;" x1="1039" x2="1160.582" y1="537.422" y2="537.422"/><text fill="#000000" font-family="Verdana" font-size="14" font-weight="bold" lengthAdjust="spacing" textLength="108.582" x="1043" y="530.4825">Domain Layer</text><text fill="#000000" font-family="Verdana" font-size="14" font-style="italic" lengthAdjust="spacing" textLength="71.9961" x="1381.002" y="553.4971">&#171;Domain&#187;</text></g><!--cluster Infrastructure Layer--><g class="cluster" data-entity="Infrastructure Layer" data-source-line="44" data-uid="ent0023" id="cluster_Infrastructure Layer"><path d="M1041.5,361.8173 L1203.2266,361.8173 A3.75,3.75 0 0 1 1205.7266,364.3173 L1212.7266,384.832 L1919.5,384.832 A2.5,2.5 0 0 1 1922,387.332 L1922,462.9073 A2.5,2.5 0 0 1 1919.5,465.4073 L1041.5,465.4073 A2.5,2.5 0 0 1 1039,462.9073 L1039,364.3173 A2.5,2.5 0 0 1 1041.5,361.8173" fill="#FFFFFF" style="stroke:#000000;stroke-width:1;"/><line style="stroke:#000000;stroke-width:1;" x1="1039" x2="1212.7266" y1="384.832" y2="384.832"/><text fill="#000000" font-family="Verdana" font-size="14" font-weight="bold" lengthAdjust="spacing" textLength="160.7266" x="1043" y="377.8925">Infrastructure Layer</text><text fill="#000000" font-family="Verdana" font-size="14" font-style="italic" lengthAdjust="spacing" textLength="115.7324" x="1426.6338" y="400.9071">&#171;Infrastructure&#187;</text></g><!--entity Entry Point (main)--><g class="entity" data-entity="Entry Point .main." data-source-line="16" data-uid="ent0003" id="entity_Entry Point .main."><rect fill="#FFFFFF" height="34.584" rx="2.5" ry="2.5" style="stroke:#000000;stroke-width:1;" width="131.3691" x="763.32" y="119.7373"/><text fill="#000000" font-family="Verdana" font-size="12" lengthAdjust="spacing" textLength="111.3691" x="773.32" y="141.8018">Entry Point (main)</text></g><!--entity Composition Root--><g class="entity" data-entity="Composition Root" data-source-line="17" data-uid="ent0004" id="entity_Composition Root"><rect fill="#FFFFFF" height="34.584" rx="2.5" ry="2.5" style="stroke:#000000;stroke-width:1;" width="126.3945" x="765.8" y="246.2373"/><text fill="#000000" font-family="Verdana" font-size="12" lengthAdjust="spacing" textLength="106.3945" x="775.8" y="268.3018">Composition Root</text></g><!--entity Configuration--><g class="entity" data-entity="Configuration" data-source-line="18" data-uid="ent0005" id="entity_Configuration"><rect fill="#FFFFFF" height="34.584" rx="2.5" ry="2.5" style="stroke:#000000;stroke-width:1;" width="101.0645" x="929.47" y="119.7373"/><text fill="#000000" font-family="Verdana" font-size="12" lengthAdjust="spacing" textLength="81.0645" x="939.47" y="141.8018">Configuration</text></g><!--entity CLI Factory--><g class="entity" data-entity="CLI Factory" data-source-line="22" data-uid="ent0007" id="entity_CLI Factory"><rect fill="#FFFFFF" height="34.584" rx="2.5" ry="2.5" style="stroke:#000000;stroke-width:1;" width="88.918" x="453.54" y="414.8173"/><text fill="#000000" font-family="Verdana" font-size="12" lengthAdjust="spacing" textLength="68.918" x="463.54" y="436.8818">CLI Factory</text></g><!--entity REST Controllers--><g class="entity" data-entity="REST Controllers" data-source-line="23" data-uid="ent0008" id="entity_REST Controllers"><rect fill="#FFFFFF" height="34.584" rx="2.5" ry="2.5" style="stroke:#000000;stroke-width:1;" width="121.2441" x="27.38" y="414.8173"/><text fill="#000000" font-family="Verdana" font-size="12" lengthAdjust="spacing" textLength="101.2441" x="37.38" y="436.8818">REST Controllers</text></g><!--entity GraphQL Resolvers--><g class="entity" data-entity="GraphQL Resolvers" data-source-line="24" data-uid="ent0009" id="entity_GraphQL Resolvers"><rect fill="#FFFFFF" height="34.584" rx="2.5" ry="2.5" style="stroke:#000000;stroke-width:1;" width="134.9902" x="183.5" y="414.8173"/><text fill="#000000" font-family="Verdana" font-size="12" lengthAdjust="spacing" textLength="114.9902" x="193.5" y="436.8818">GraphQL Resolvers</text></g><!--entity Web UI--><g class="entity" data-entity="Web UI" data-source-line="25" data-uid="ent0010" id="entity_Web UI"><rect fill="#FFFFFF" height="34.584" rx="2.5" ry="2.5" style="stroke:#000000;stroke-width:1;" width="64.543" x="353.73" y="414.8173"/><text fill="#000000" font-family="Verdana" font-size="12" lengthAdjust="spacing" textLength="44.543" x="363.73" y="436.8818">Web UI</text></g><!--entity Use Cases--><g class="entity" data-entity="Use Cases" data-source-line="29" data-uid="ent0012" id="entity_Use Cases"><rect fill="#FFFFFF" height="34.584" rx="2.5" ry="2.5" style="stroke:#000000;stroke-width:1;" width="81.6406" x="598.18" y="414.8173"/><text fill="#000000" font-family="Verdana" font-size="12" lengthAdjust="spacing" textLength="61.6406" x="608.18" y="436.8818">Use Cases</text></g><!--entity Input Ports--><g class="entity" data-entity="Input Ports" data-source-line="30" data-uid="ent0013" id="entity_Input Ports"><rect fill="#FFFFFF" height="34.584" rx="2.5" ry="2.5" style="stroke:#000000;stroke-width:1;" width="87.2832" x="598.36" y="567.4073"/><text fill="#000000" font-family="Verdana" font-size="12" lengthAdjust="spacing" textLength="67.2832" x="608.36" y="589.4718">Input Ports</text></g><!--entity Output Ports--><g class="entity" data-entity="Output Ports" data-source-line="31" data-uid="ent0014" id="entity_Output Ports"><rect fill="#FFFFFF" height="34.584" rx="2.5" ry="2.5" style="stroke:#000000;stroke-width:1;" width="96.4063" x="902.8" y="567.4073"/><text fill="#000000" font-family="Verdana" font-size="12" lengthAdjust="spacing" textLength="76.4063" x="912.8" y="589.4718">Output Ports</text></g><!--entity Application DTOs--><g class="entity" data-entity="Application DTOs" data-source-line="32" data-uid="ent0015" id="entity_Application DTOs"><rect fill="#FFFFFF" height="34.584" rx="2.5" ry="2.5" style="stroke:#000000;stroke-width:1;" width="122.6563" x="714.67" y="414.8173"/><text fill="#000000" font-family="Verdana" font-size="12" lengthAdjust="spacing" textLength="102.6563" x="724.67" y="436.8818">Application DTOs</text></g><!--entity Application Errors--><g class="entity" data-entity="Application Errors" data-source-line="33" data-uid="ent0016" id="entity_Application Errors"><rect fill="#FFFFFF" height="34.584" rx="2.5" ry="2.5" style="stroke:#000000;stroke-width:1;" width="126.8047" x="872.6" y="414.8173"/><text fill="#000000" font-family="Verdana" font-size="12" lengthAdjust="spacing" textLength="106.8047" x="882.6" y="436.8818">Application Errors</text></g><!--entity Value Objects--><g class="entity" data-entity="Value Objects" data-source-line="37" data-uid="ent0018" id="entity_Value Objects"><rect fill="#FFFFFF" height="34.584" rx="2.5" ry="2.5" style="stroke:#000000;stroke-width:1;" width="103.0977" x="1055.45" y="567.4073"/><text fill="#000000" font-family="Verdana" font-size="12" lengthAdjust="spacing" textLength="83.0977" x="1065.45" y="589.4718">Value Objects</text></g><!--entity Domain Services--><g class="entity" data-entity="Domain Services" data-source-line="38" data-uid="ent0019" id="entity_Domain Services"><rect fill="#FFFFFF" height="34.584" rx="2.5" ry="2.5" style="stroke:#000000;stroke-width:1;" width="121.0332" x="1193.48" y="567.4073"/><text fill="#000000" font-family="Verdana" font-size="12" lengthAdjust="spacing" textLength="101.0332" x="1203.48" y="589.4718">Domain Services</text></g><!--entity Domain Policies--><g class="entity" data-entity="Domain Policies" data-source-line="39" data-uid="ent0020" id="entity_Domain Policies"><rect fill="#FFFFFF" height="34.584" rx="2.5" ry="2.5" style="stroke:#000000;stroke-width:1;" width="114.5645" x="1349.72" y="567.4073"/><text fill="#000000" font-family="Verdana" font-size="12" lengthAdjust="spacing" textLength="94.5645" x="1359.72" y="589.4718">Domain Policies</text></g><!--entity Domain Errors--><g class="entity" data-entity="Domain Errors" data-source-line="40" data-uid="ent0021" id="entity_Domain Errors"><rect fill="#FFFFFF" height="34.584" rx="2.5" ry="2.5" style="stroke:#000000;stroke-width:1;" width="107" x="1499.5" y="567.4073"/><text fill="#000000" font-family="Verdana" font-size="12" lengthAdjust="spacing" textLength="87" x="1509.5" y="589.4718">Domain Errors</text></g><!--entity Service Interfaces--><g class="entity" data-entity="Service Interfaces" data-source-line="41" data-uid="ent0022" id="entity_Service Interfaces"><rect fill="#FFFFFF" height="34.584" rx="2.5" ry="2.5" style="stroke:#000000;stroke-width:1;" width="129.207" x="1641.4" y="567.4073"/><text fill="#000000" font-family="Verdana" font-size="12" lengthAdjust="spacing" textLength="109.207" x="1651.4" y="589.4718">Service Interfaces</text></g><!--entity Service Implementations--><g class="entity" data-entity="Service Implementations" data-source-line="45" data-uid="ent0024" id="entity_Service Implementations"><rect fill="#FFFFFF" height="34.584" rx="2.5" ry="2.5" style="stroke:#000000;stroke-width:1;" width="170.627" x="1383.69" y="414.8173"/><text fill="#000000" font-family="Verdana" font-size="12" lengthAdjust="spacing" textLength="150.627" x="1393.69" y="436.8818">Service Implementations</text></g><!--entity Output Adapters--><g class="entity" data-entity="Output Adapters" data-source-line="46" data-uid="ent0025" id="entity_Output Adapters"><rect fill="#FFFFFF" height="34.584" rx="2.5" ry="2.5" style="stroke:#000000;stroke-width:1;" width="119.3984" x="1055.3" y="414.8173"/><text fill="#000000" font-family="Verdana" font-size="12" lengthAdjust="spacing" textLength="99.3984" x="1065.3" y="436.8818">Output Adapters</text></g><!--entity Database Adapters--><g class="entity" data-entity="Database Adapters" data-source-line="47" data-uid="ent0026" id="entity_Database Adapters"><rect fill="#FFFFFF" height="34.584" rx="2.5" ry="2.5" style="stroke:#000000;stroke-width:1;" width="134.3047" x="1588.85" y="414.8173"/><text fill="#000000" font-family="Verdana" font-size="12" lengthAdjust="spacing" textLength="114.3047" x="1598.85" y="436.8818">Database Adapters</text></g><!--entity External API Clients--><g class="entity" data-entity="External API Clients" data-source-line="48" data-uid="ent0027" id="entity_External API Clients"><rect fill="#FFFFFF" height="34.584" rx="2.5" ry="2.5" style="stroke:#000000;stroke-width:1;" width="139.3965" x="1209.3" y="414.8173"/><text fill="#000000" font-family="Verdana" font-size="12" lengthAdjust="spacing" textLength="119.3965" x="1219.3" y="436.8818">External API Clients</text></g><!--entity File System Adapters--><g class="entity" data-entity="File System Adapters" data-source-line="49" data-uid="ent0028" id="entity_File System Adapters"><rect fill="#FFFFFF" height="34.584" rx="2.5" ry="2.5" style="stroke:#000000;stroke-width:1;" width="147.7871" x="1758.11" y="414.8173"/><text fill="#000000" font-family="Verdana" font-size="12" lengthAdjust="spacing" textLength="127.7871" x="1768.11" y="436.8818">File System Adapters</text></g><g class="entity" data-entity="GMN47" data-source-line="78" data-uid="ent0048" id="entity_GMN47"><path d="M1603.25,242.7273 L1603.25,284.3259 A0,0 0 0 0 1603.25,284.3259 L1828,284.3259 L1832,414.4573 L1836,284.3259 L2060.7593,284.3259 A0,0 0 0 0 2060.7593,284.3259 L2060.7593,252.7273 L2050.7593,242.7273 L1603.25,242.7273 A0,0 0 0 0 1603.25,242.7273" fill="#FFFFFF" style="stroke:#000000;stroke-width:1;"/><path d="M2050.7593,242.7273 L2050.7593,252.7273 L2060.7593,252.7273 L2050.7593,242.7273" fill="#FFFFFF" style="stroke:#000000;stroke-width:1;"/><text fill="#000000" font-family="Verdana" font-size="13" lengthAdjust="spacing" textLength="366.0313" x="1609.25" y="260.7971">All dependencies point inward toward the Domain Layer</text><text fill="#000000" font-family="Verdana" font-size="13" lengthAdjust="spacing" textLength="436.5093" x="1609.25" y="276.5964">Except Bootstrap Module which wires all concrete implementations</text></g><g class="entity" data-entity="GMN50" data-source-line="80" data-uid="ent0051" id="entity_GMN50"><path d="M1101.42,108.3273 L1101.42,165.7253 L1268.5748,165.7253 L1268.5748,118.3273 L1258.5748,108.3273 L1101.42,108.3273" fill="#FFFFFF" style="stroke:#000000;stroke-width:1;"/><path d="M1258.5748,108.3273 L1258.5748,118.3273 L1268.5748,118.3273 L1258.5748,108.3273" fill="#FFFFFF" style="stroke:#000000;stroke-width:1;"/><text fill="#000000" font-family="Verdana" font-size="13" lengthAdjust="spacing" textLength="139.5215" x="1107.42" y="126.3971">The only module that</text><text fill="#000000" font-family="Verdana" font-size="13" lengthAdjust="spacing" textLength="146.1548" x="1107.42" y="142.1964">knows about all layers</text><text fill="#000000" font-family="Verdana" font-size="13" lengthAdjust="spacing" textLength="124.5283" x="1107.42" y="157.9958">and concrete types</text></g><!--link CLI Factory to Input Ports--><g class="link" data-entity-1="CLI Factory" data-entity-2="Input Ports" data-source-line="53" data-uid="lnk29" id="link_CLI Factory_Input Ports"><path d="M513.96,449.7973 C541.64,478.7473 594.0926,533.6015 621.8226,562.5915" fill="none" id="CLI Factory-to-Input Ports" style="stroke:#000000;stroke-width:1;"/><polygon fill="#000000" points="625.97,566.9273,622.6395,557.6587,622.5139,563.3141,616.8584,563.1885,625.97,566.9273" style="stroke:#000000;stroke-width:1;"/><text fill="#000000" font-family="Verdana" font-size="13" lengthAdjust="spacing" textLength="29.5166" x="558.1" y="495.4771">uses</text></g><!--link REST Controllers to Input Ports--><g class="link" data-entity-1="REST Controllers" data-entity-2="Input Ports" data-source-line="54" data-uid="lnk30" id="link_REST Controllers_Input Ports"><path d="M116.12,449.7973 C130.62,457.8473 148.83,467.0973 166,473.4073 C319.87,529.9573 506.7515,563.0541 592.0315,576.3341" fill="none" id="REST Controllers-to-Input Ports" style="stroke:#000000;stroke-width:1;"/><polygon fill="#000000" points="597.96,577.2573,589.6826,571.9201,593.0195,576.488,588.4517,579.8249,597.96,577.2573" style="stroke:#000000;stroke-width:1;"/><text fill="#000000" font-family="Verdana" font-size="13" lengthAdjust="spacing" textLength="29.5166" x="229.86" y="495.4771">uses</text></g><!--link GraphQL Resolvers to Input Ports--><g class="link" data-entity-1="GraphQL Resolvers" data-entity-2="Input Ports" data-source-line="55" data-uid="lnk31" id="link_GraphQL Resolvers_Input Ports"><path d="M284.17,449.7473 C299.75,457.3273 318.66,466.1873 336,473.4073 C427.76,511.5873 532.2857,547.5065 592.2157,567.4065" fill="none" id="GraphQL Resolvers-to-Input Ports" style="stroke:#000000;stroke-width:1;"/><polygon fill="#000000" points="597.91,569.2973,590.6291,562.6649,593.1648,567.7216,588.108,570.2573,597.91,569.2973" style="stroke:#000000;stroke-width:1;"/><text fill="#000000" font-family="Verdana" font-size="13" lengthAdjust="spacing" textLength="29.5166" x="394.77" y="495.4771">uses</text></g><!--link Web UI to Input Ports--><g class="link" data-entity-1="Web UI" data-entity-2="Input Ports" data-source-line="56" data-uid="lnk32" id="link_Web UI_Input Ports"><path d="M404.83,449.6773 C413.94,457.3173 425.22,466.2673 436,473.4073 C492.99,511.1473 558.7866,544.3998 600.8166,564.4898" fill="none" id="Web UI-to-Input Ports" style="stroke:#000000;stroke-width:1;"/><polygon fill="#000000" points="606.23,567.0773,599.835,559.5871,601.7189,564.921,596.3849,566.8049,606.23,567.0773" style="stroke:#000000;stroke-width:1;"/><text fill="#000000" font-family="Verdana" font-size="13" lengthAdjust="spacing" textLength="29.5166" x="474.88" y="495.4771">uses</text></g><!--link Use Cases to Input Ports--><g class="link" data-entity-1="Use Cases" data-entity-2="Input Ports" data-source-line="59" data-uid="lnk33" id="link_Use Cases_Input Ports"><path d="M638.57,449.6473 C638.35,458.9773 638.11,470.8373 638,481.4073 C637.92,488.9573 637.82,490.8473 638,498.4073 C638.56,522.2673 638.9651,531.8771 639.9551,549.0671" fill="none" id="Use Cases-to-Input Ports" style="stroke:#000000;stroke-width:1;stroke-dasharray:7,7;"/><polygon fill="none" points="640.99,567.0373,645.9451,548.7221,633.965,549.4121,640.99,567.0373" style="stroke:#000000;stroke-width:1;"/><text fill="#000000" font-family="Verdana" font-size="13" lengthAdjust="spacing" textLength="76.1338" x="639" y="495.4771">implements</text></g><!--link Use Cases to Output Ports--><g class="link" data-entity-1="Use Cases" data-entity-2="Output Ports" data-source-line="60" data-uid="lnk34" id="link_Use Cases_Output Ports"><path d="M660.15,449.8873 C670.78,457.7673 684.11,466.8373 697,473.4073 C706.64,478.3173 709.93,477.4273 720,481.4073 C790.38,509.1673 865.3654,543.4246 910.3354,564.4646" fill="none" id="Use Cases-to-Output Ports" style="stroke:#000000;stroke-width:1;"/><polygon fill="#000000" points="915.77,567.0073,909.3132,559.5702,911.2412,564.8884,905.923,566.8164,915.77,567.0073" style="stroke:#000000;stroke-width:1;"/><text fill="#000000" font-family="Verdana" font-size="13" lengthAdjust="spacing" textLength="29.5166" x="759.3" y="495.4771">uses</text></g><!--link Use Cases to Value Objects--><g class="link" data-entity-1="Use Cases" data-entity-2="Value Objects" data-source-line="61" data-uid="lnk35" id="link_Use Cases_Value Objects"><path d="M657.43,449.7073 C668.18,458.3573 682.45,468.1973 697,473.4073 C738.98,488.4173 752.95,474.4873 797,481.4073 C829.48,486.5073 836.46,493.7073 869,498.4073 C901.16,503.0473 984.79,494.4473 1015,506.4073 C1047.59,519.2973 1073.0634,544.0555 1089.4434,562.6455" fill="none" id="Use Cases-to-Value Objects" style="stroke:#000000;stroke-width:1;"/><polygon fill="#000000" points="1093.41,567.1473,1090.4613,557.7502,1090.1045,563.3958,1084.4589,563.039,1093.41,567.1473" style="stroke:#000000;stroke-width:1;"/><text fill="#000000" font-family="Verdana" font-size="13" lengthAdjust="spacing" textLength="47.5122" x="870" y="495.4771">creates</text></g><!--link Use Cases to Domain Services--><g class="link" data-entity-1="Use Cases" data-entity-2="Domain Services" data-source-line="62" data-uid="lnk36" id="link_Use Cases_Domain Services"><path d="M657.09,449.7473 C667.84,458.5273 682.23,468.4873 697,473.4073 C744.47,489.2073 873.03,471.1673 922,481.4073 C942.12,485.6073 944.89,494.1773 965,498.4073 C987.96,503.2273 1154.48,497.0673 1176,506.4073 C1205.38,519.1473 1226.3033,543.5744 1239.6133,562.2144" fill="none" id="Use Cases-to-Domain Services" style="stroke:#000000;stroke-width:1;"/><polygon fill="#000000" points="1243.1,567.0973,1241.1253,557.4484,1240.1944,563.0282,1234.6147,562.0974,1243.1,567.0973" style="stroke:#000000;stroke-width:1;"/><text fill="#000000" font-family="Verdana" font-size="13" lengthAdjust="spacing" textLength="29.5166" x="966" y="495.4771">uses</text></g><!--link Use Cases to Service Interfaces--><g class="link" data-entity-1="Use Cases" data-entity-2="Service Interfaces" data-source-line="63" data-uid="lnk37" id="link_Use Cases_Service Interfaces"><path d="M657.07,449.7973 C667.81,458.5973 682.2,468.5573 697,473.4073 C761.01,494.3873 934.56,465.4373 1000,481.4073 C1016.8,485.4973 1018.17,494.4173 1035,498.4073 C1066.84,505.9573 1593.67,494.1173 1624,506.4073 C1654.46,518.7373 1676.6527,543.3728 1690.7827,562.1528" fill="none" id="Use Cases-to-Service Interfaces" style="stroke:#000000;stroke-width:1;"/><polygon fill="#000000" points="1694.39,566.9473,1692.1753,557.3507,1691.3839,562.9519,1685.7827,562.1605,1694.39,566.9473" style="stroke:#000000;stroke-width:1;"/><text fill="#000000" font-family="Verdana" font-size="13" lengthAdjust="spacing" textLength="29.5166" x="1036" y="495.4771">uses</text></g><!--link Service Implementations to Service Interfaces--><g class="link" data-entity-1="Service Implementations" data-entity-2="Service Interfaces" data-source-line="66" data-uid="lnk38" id="link_Service Implementations_Service Interfaces"><path d="M1493.5,449.6773 C1516.47,464.4873 1552.23,485.7573 1586,498.4073 C1602.16,504.4573 1608.7,498.4073 1624,506.4073 C1652.61,521.3573 1666.9472,535.2609 1681.6772,553.1209" fill="none" id="Service Implementations-to-Service Interfaces" style="stroke:#000000;stroke-width:1;stroke-dasharray:7,7;"/><polygon fill="none" points="1693.13,567.0073,1686.306,549.3033,1677.0484,556.9385,1693.13,567.0073" style="stroke:#000000;stroke-width:1;"/><text fill="#000000" font-family="Verdana" font-size="13" lengthAdjust="spacing" textLength="76.1338" x="1587" y="495.4771">implements</text></g><!--link Output Adapters to Output Ports--><g class="link" data-entity-1="Output Adapters" data-entity-2="Output Ports" data-source-line="67" data-uid="lnk39" id="link_Output Adapters_Output Ports"><path d="M1108.91,449.6873 C1102.53,464.7173 1091.03,486.3173 1074,498.4073 C1060.99,507.6373 1053.21,499.1373 1039,506.4073 C1009.13,521.6773 993.2912,536.0239 977.2112,553.7839" fill="none" id="Output Adapters-to-Output Ports" style="stroke:#000000;stroke-width:1;stroke-dasharray:7,7;"/><polygon fill="none" points="965.13,567.1273,981.659,557.811,972.7634,549.7569,965.13,567.1273" style="stroke:#000000;stroke-width:1;"/><text fill="#000000" font-family="Verdana" font-size="13" lengthAdjust="spacing" textLength="76.1338" x="1091.3" y="495.4771">implements</text></g><!--link Database Adapters to Service Interfaces--><g class="link" data-entity-1="Database Adapters" data-entity-2="Service Interfaces" data-source-line="68" data-uid="lnk40" id="link_Database Adapters_Service Interfaces"><path d="M1661.54,449.7973 C1671.15,478.7473 1685.1256,520.8551 1694.7556,549.8451" fill="none" id="Database Adapters-to-Service Interfaces" style="stroke:#000000;stroke-width:1;stroke-dasharray:7,7;"/><polygon fill="none" points="1700.43,566.9273,1700.4496,547.9536,1689.0615,551.7366,1700.43,566.9273" style="stroke:#000000;stroke-width:1;"/><text fill="#000000" font-family="Verdana" font-size="13" lengthAdjust="spacing" textLength="76.1338" x="1677.52" y="495.4771">implements</text></g><!--link External API Clients to Output Ports--><g class="link" data-entity-1="External API Clients" data-entity-2="Output Ports" data-source-line="69" data-uid="lnk41" id="link_External API Clients_Output Ports"><path d="M1259.64,449.6873 C1240.01,465.3973 1208.04,488.0773 1176,498.4073 C1146.97,507.7573 1067.21,494.8273 1039,506.4073 C1007.4,519.3773 990.9318,534.8031 975.3918,553.3731" fill="none" id="External API Clients-to-Output Ports" style="stroke:#000000;stroke-width:1;stroke-dasharray:7,7;"/><polygon fill="none" points="963.84,567.1773,979.9932,557.2237,970.7904,549.5225,963.84,567.1773" style="stroke:#000000;stroke-width:1;"/><text fill="#000000" font-family="Verdana" font-size="13" lengthAdjust="spacing" textLength="76.1338" x="1213.41" y="495.4771">implements</text></g><!--link Composition Root to Service Implementations--><g class="link" data-entity-1="Composition Root" data-entity-2="Service Implementations" data-source-line="72" data-uid="lnk42" id="link_Composition Root_Service Implementations"><path d="M892.49,265.4373 C995.83,268.9973 1205.03,284.9573 1366,353.8173 C1400.12,368.4173 1428.9313,392.4746 1448.0413,410.4646" fill="none" id="Composition Root-to-Service Implementations" style="stroke:#000000;stroke-width:1;stroke-dasharray:7,7;"/><polygon fill="#000000" points="1452.41,414.5773,1448.5987,405.4958,1448.7694,411.1501,1443.1151,411.3208,1452.41,414.5773" style="stroke:#000000;stroke-width:1;"/><text fill="#000000" font-family="Verdana" font-size="13" lengthAdjust="spacing" textLength="47.5122" x="1339.89" y="342.8871">creates</text></g><!--link Composition Root to Output Adapters--><g class="link" data-entity-1="Composition Root" data-entity-2="Output Adapters" data-source-line="73" data-uid="lnk43" id="link_Composition Root_Output Adapters"><path d="M869.83,281.1673 C908.4,297.5673 967.29,324.3873 1015,353.8173 C1044.88,372.2573 1071.9022,393.9469 1091.3922,410.5469" fill="none" id="Composition Root-to-Output Adapters" style="stroke:#000000;stroke-width:1;stroke-dasharray:7,7;"/><polygon fill="#000000" points="1095.96,414.4373,1091.702,405.5565,1092.1535,411.1953,1086.5147,411.6468,1095.96,414.4373" style="stroke:#000000;stroke-width:1;"/><text fill="#000000" font-family="Verdana" font-size="13" lengthAdjust="spacing" textLength="47.5122" x="1001.66" y="342.8871">creates</text></g><!--link Composition Root to Use Cases--><g class="link" data-entity-1="Composition Root" data-entity-2="Use Cases" data-source-line="74" data-uid="lnk44" id="link_Composition Root_Use Cases"><path d="M798.35,281.2873 C770.17,297.5773 728.16,324.1473 697,353.8173 C677.56,372.3273 662.9954,392.8444 652.3854,409.4144" fill="none" id="Composition Root-to-Use Cases" style="stroke:#000000;stroke-width:1;stroke-dasharray:7,7;"/><polygon fill="#000000" points="649.15,414.4673,657.3718,409.0449,651.8462,410.2565,650.6346,404.731,649.15,414.4673" style="stroke:#000000;stroke-width:1;"/><text fill="#000000" font-family="Verdana" font-size="13" lengthAdjust="spacing" textLength="47.5122" x="724.43" y="342.8871">creates</text></g><!--link Composition Root to CLI Factory--><g class="link" data-entity-1="Composition Root" data-entity-2="CLI Factory" data-source-line="75" data-uid="lnk45" id="link_Composition Root_CLI Factory"><path d="M765.54,279.9573 C713.73,294.2773 639.89,318.6973 582,353.8173 C554.38,370.5773 531.9085,392.8808 516.2985,410.1108" fill="none" id="Composition Root-to-CLI Factory" style="stroke:#000000;stroke-width:1;stroke-dasharray:7,7;"/><polygon fill="#000000" points="512.27,414.5573,521.277,410.5732,515.627,410.8519,515.3483,405.2019,512.27,414.5573" style="stroke:#000000;stroke-width:1;"/><text fill="#000000" font-family="Verdana" font-size="13" lengthAdjust="spacing" textLength="28.4883" x="627.17" y="342.8871">calls</text></g><!--link Entry Point (main) to Composition Root--><g class="link" data-entity-1="Entry Point .main." data-entity-2="Composition Root" data-source-line="76" data-uid="lnk46" id="link_Entry Point .main._Composition Root"><path d="M829,154.8173 C829,178.7173 829,216.2573 829,240.0073" fill="none" id="Entry Point (main)-to-Composition Root" style="stroke:#000000;stroke-width:1;"/><polygon fill="#000000" points="829,246.0073,833,237.0073,829,241.0073,825,237.0073,829,246.0073" style="stroke:#000000;stroke-width:1;"/><text fill="#000000" font-family="Verdana" font-size="13" lengthAdjust="spacing" textLength="29.5166" x="830" y="209.7971">uses</text></g><!--link Bootstrap Module to GMN50--><g class="link" data-entity-1="Bootstrap Module" data-entity-2="GMN50" data-source-line="80" data-uid="lnk52" id="link_Bootstrap Module_GMN50"><path d="M1074.0593,137.0273 C1074.4211,137.0273 1074.783,137.0273 1075.1448,137.0273 C1078.0397,137.0273 1080.9344,137.0273 1083.8288,137.0273 C1089.6175,137.0273 1095.405,137.0273 1101.19,137.0273" fill="none" id="Bootstrap Module-GMN50" style="stroke:#000000;stroke-width:1;stroke-dasharray:7,7;"/></g><!--SRC=[ZLPDRzim3BtxLt3TOUqX1JQqbw48aCyjM8TqJRiTrXuKcucrAf8WoqszRlzzbEt4yaVQvHA4Vdny99_alB4nRX2qO5m6bbk1y4LPmILypfQ6Hp0mOSmjXZOr23sOFw9vvBWDWkI1IyqCsq2eDbf9b7PXCyet16PoBR0B0iy1q6V8meUrKQcCHaeeSt4nLXjIqE_3s-bqSZuywqODj1OyP9Qh73eycvnFfztGcLmPbbYJvieTsj4UGbyPJ4YTn-naT6E7IbaYPhfGEw9F0LGcGfE3O2WeAuzE5Ss5_qPu_o7u6mIQucoDSBHdWQygIWKUGPsvcDFFYRGcWol5QNJ7RaGdzyM3aPjemfrWkAQyVLYk-3erUIVtjOf-Zt39CZIkPgFpikpeSWPJ5bfbifBuUhAu0MAtHWc19Yd3dqXj_EqIhZ5Huh6A_y0btCxg0hpjLVNhAotBtoO88vRWZcqcTMff2iRk8lFKDaC-_VXctXMU6AESH5zLuRnAqDw9fPRlJAG8y-KlilMEiynPkBCGOYDwfQWURqPtfVDOcGWpQT6iM4xXQwgRjzBMClLpWs-Z1HtdSfsDMGqYfcsreJ6pR4apRiOdJ_H3CW63gncC12UstQCff-Ezo1AB6o-BXB-3CMgK4KhNE5qJDQzP1TuIWfgveDVhr_SB7o6bpGTjnxs0RTlm1N3fpSE8TZ- -YQYTOgU1vrCuFVtJPkExVIGrR5wuvk2zjYQgxZw2XGQPxK8sFNcGiiDyXnjlEB5g2BGJ7XoqNZcGxcB-N9hkB1ERu_5JsjRzxsgTxdwz90sckh0ZVqJ7YSQG4s4FGYQ1XLGq0IR4IT2-ewbG__1fzRTx8BKrhDTJlFM_3guTJO9J7svexPTGOQKsoyv8Kbcaaw8fC12YFZAT4t6vPIOYJF4L8_WtyPsSF8MeBJJVax2DUHZ3bjCDuyPCVoqaTMKzRnRZB3KOleujg5NN6_SZt51P9KK6cuBSnipUoGUfjaI-L3HgLq8uHScTP3AgojbCKwF_0000]--></g></svg>