<svg xmlns="http://www.w3.org/2000/svg" xmlns:xlink="http://www.w3.org/1999/xlink" contentStyleType="text/css" data-diagram-type="CLASS" height="655px" preserveAspectRatio="none" style="width:2570px;height:655px;background:#FFFFFF;" version="1.1" viewBox="0 0 2570 655" width="2570px" zoomAndPan="magnify"><title>Domain Layer - Class Diagram</title><defs/><g><g class="title" data-source-line="2"><text fill="#000000" font-family="Verdana" font-size="22" font-weight="bold" lengthAdjust="spacing" textLength="372.7539" x="1094.1549" y="37.1182">Domain Layer - Class Diagram</text></g><!--cluster Domain Layer--><g class="cluster" data-entity="Domain Layer" data-source-line="4" data-uid="ent0002" id="cluster_Domain Layer"><path d="M13.5,58.7373 L123.082,58.7373 A3.75,3.75 0 0 1 125.582,61.2373 L132.582,81.752 L2171.5,81.752 A2.5,2.5 0 0 1 2174,84.252 L2174,645.9873 A2.5,2.5 0 0 1 2171.5,648.4873 L13.5,648.4873 A2.5,2.5 0 0 1 11,645.9873 L11,61.2373 A2.5,2.5 0 0 1 13.5,58.7373" fill="#FFFFFF" style="stroke:#000000;stroke-width:1;"/><line style="stroke:#000000;stroke-width:1;" x1="11" x2="132.582" y1="81.752" y2="81.752"/><text fill="#000000" font-family="Verdana" font-size="14" font-weight="bold" lengthAdjust="spacing" textLength="108.582" x="15" y="74.8125">Domain Layer</text></g><!--cluster value--><g class="cluster" data-entity="value" data-source-line="5" data-uid="ent0003" id="cluster_value"><path d="M1670.5,289.7973 L1714.0059,289.7973 A3.75,3.75 0 0 1 1716.5059,292.2973 L1723.5059,312.812 L2147.5,312.812 A2.5,2.5 0 0 1 2150,315.312 L2150,464.9573 A2.5,2.5 0 0 1 2147.5,467.4573 L1670.5,467.4573 A2.5,2.5 0 0 1 1668,464.9573 L1668,292.2973 A2.5,2.5 0 0 1 1670.5,289.7973" fill="#FFFFFF" style="stroke:#000000;stroke-width:1;"/><line style="stroke:#000000;stroke-width:1;" x1="1668" x2="1723.5059" y1="312.812" y2="312.812"/><text fill="#000000" font-family="Verdana" font-size="14" font-weight="bold" lengthAdjust="spacing" textLength="42.5059" x="1672" y="305.8725">value</text></g><!--cluster service--><g class="cluster" data-entity="service" data-source-line="15" data-uid="ent0005" id="cluster_service"><path d="M37.5,102.7373 L94.4795,102.7373 A3.75,3.75 0 0 1 96.9795,105.2373 L103.9795,125.752 L1076.5,125.752 A2.5,2.5 0 0 1 1079,128.252 L1079,449.6473 A2.5,2.5 0 0 1 1076.5,452.1473 L37.5,452.1473 A2.5,2.5 0 0 1 35,449.6473 L35,105.2373 A2.5,2.5 0 0 1 37.5,102.7373" fill="#FFFFFF" style="stroke:#000000;stroke-width:1;"/><line style="stroke:#000000;stroke-width:1;" x1="35" x2="103.9795" y1="125.752" y2="125.752"/><text fill="#000000" font-family="Verdana" font-size="14" font-weight="bold" lengthAdjust="spacing" textLength="55.9795" x="39" y="118.8125">service</text></g><!--cluster error--><g class="cluster" data-entity="error" data-source-line="34" data-uid="ent0009" id="cluster_error"><path d="M1105.5,330.6273 L1146.2852,330.6273 A3.75,3.75 0 0 1 1148.7852,333.1273 L1155.7852,353.642 L1641.5,353.642 A2.5,2.5 0 0 1 1644,356.142 L1644,621.9873 A2.5,2.5 0 0 1 1641.5,624.4873 L1105.5,624.4873 A2.5,2.5 0 0 1 1103,621.9873 L1103,333.1273 A2.5,2.5 0 0 1 1105.5,330.6273" fill="#FFFFFF" style="stroke:#000000;stroke-width:1;"/><line style="stroke:#000000;stroke-width:1;" x1="1103" x2="1155.7852" y1="353.642" y2="353.642"/><text fill="#000000" font-family="Verdana" font-size="14" font-weight="bold" lengthAdjust="spacing" textLength="39.7852" x="1107" y="346.7025">error</text></g><!--class PersonName--><g class="entity" data-entity="PersonName" data-source-line="6" data-uid="ent0004" id="entity_PersonName"><rect fill="#FFFFFF" height="125.6572" rx="2.5" ry="2.5" style="stroke:#000000;stroke-width:1;" width="450.7061" x="1683.65" y="325.7973"/><ellipse cx="1861.1305" cy="346.5966" fill="#FFFFFF" rx="9" ry="9" style="stroke:#000000;stroke-width:1;"/><path d="M1863.6036,352.7397 Q1863.0226,353.0385 1862.3834,353.1879 Q1861.7442,353.3373 1861.0387,353.3373 Q1858.5318,353.3373 1857.212,351.6855 Q1855.8922,350.0336 1855.8922,346.9125 Q1855.8922,343.7831 1857.212,342.1313 Q1858.5318,340.4794 1861.0387,340.4794 Q1861.7442,340.4794 1862.3917,340.6288 Q1863.0392,340.7783 1863.6036,341.0771 L1863.6036,343.7997 Q1862.9728,343.2187 1862.3792,342.9489 Q1861.7857,342.6791 1861.1549,342.6791 Q1859.8102,342.6791 1859.1253,343.7458 Q1858.4405,344.8124 1858.4405,346.9125 Q1858.4405,349.0043 1859.1253,350.071 Q1859.8102,351.1376 1861.1549,351.1376 Q1861.7857,351.1376 1862.3792,350.8679 Q1862.9728,350.5981 1863.6036,350.017 Z " fill="#000000"/><text fill="#000000" font-family="Verdana" font-size="12" font-style="italic" lengthAdjust="spacing" textLength="81.2754" x="1882.1153" y="342.8618">&#171;value class&#187;</text><text fill="#000000" font-family="Verdana" font-size="14" lengthAdjust="spacing" textLength="88.2451" x="1878.6305" y="359.4565">PersonName</text><line style="stroke:#000000;stroke-width:1;" x1="1684.65" x2="2133.3561" y1="367.3959" y2="367.3959"/><rect fill="none" height="6" style="stroke:#000000;stroke-width:1;" width="6" x="1691.65" y="378.4033"/><text fill="#000000" font-family="Verdana" font-size="14" lengthAdjust="spacing" textLength="91.499" x="1701.65" y="385.4711">value: String</text><rect fill="none" height="6" style="stroke:#000000;stroke-width:1;" width="6" x="1691.65" y="395.4179"/><text fill="#000000" font-family="Verdana" font-size="14" lengthAdjust="spacing" text-decoration="underline" textLength="168.6221" x="1701.65" y="402.4858">NAME_PATTERN: Regex</text><line style="stroke:#000000;stroke-width:1;" x1="1684.65" x2="2133.3561" y1="409.4252" y2="409.4252"/><ellipse cx="1694.65" cy="423.4326" fill="#FFFFFF" rx="3" ry="3" style="stroke:#000000;stroke-width:1;"/><text fill="#000000" font-family="Verdana" font-size="14" lengthAdjust="spacing" text-decoration="underline" textLength="426.7061" x="1701.65" y="427.5004">create(value: String): Either&lt;ValidationError, PersonName&gt;</text><ellipse cx="1694.65" cy="440.4472" fill="#FFFFFF" rx="3" ry="3" style="stroke:#000000;stroke-width:1;"/><text fill="#000000" font-family="Verdana" font-size="14" lengthAdjust="spacing" text-decoration="underline" textLength="193.416" x="1701.65" y="444.5151">anonymous(): PersonName</text></g><!--class GreetingService--><g class="entity" data-entity="GreetingService" data-source-line="16" data-uid="ent0006" id="entity_GreetingService"><rect fill="#FFFFFF" height="61.0146" rx="2.5" ry="2.5" style="stroke:#000000;stroke-width:1;" width="497.1494" x="565.43" y="152.2673"/><ellipse cx="754.2239" cy="166.2673" fill="#FFFFFF" rx="9" ry="9" style="stroke:#000000;stroke-width:1;"/><path d="M750.6517,162.5324 L750.6517,160.3742 L758.0311,160.3742 L758.0311,162.5324 L755.5657,162.5324 L755.5657,170.6091 L758.0311,170.6091 L758.0311,172.7673 L750.6517,172.7673 L750.6517,170.6091 L753.117,170.6091 L753.117,162.5324 Z " fill="#000000"/><text fill="#000000" font-family="Verdana" font-size="14" font-style="italic" lengthAdjust="spacing" textLength="112.0615" x="771.7239" y="171.8352">GreetingService</text><line style="stroke:#000000;stroke-width:1;" x1="566.43" x2="1061.5794" y1="180.2673" y2="180.2673"/><line style="stroke:#000000;stroke-width:1;" x1="566.43" x2="1061.5794" y1="188.2673" y2="188.2673"/><ellipse cx="576.43" cy="202.2746" fill="#FFFFFF" rx="3" ry="3" style="stroke:#000000;stroke-width:1;"/><text fill="#000000" font-family="Verdana" font-size="14" lengthAdjust="spacing" textLength="473.1494" x="583.43" y="206.3425">createGreeting(name: PersonName): Either&lt;DomainError, String&gt;</text></g><g class="entity" data-entity="GreetingPolicy" data-source-line="20" data-uid="ent0007" id="entity_GreetingPolicy"><rect fill="#FFFFFF" height="88.0586" rx="2.5" ry="2.5" style="stroke:#000000;stroke-width:1;" width="479.3145" x="51.34" y="138.7373"/><text fill="#000000" font-family="Verdana" font-size="14" lengthAdjust="spacing" textLength="100.6523" x="240.6711" y="154.8125">GreetingPolicy</text><line style="stroke:#000000;stroke-width:1;" x1="52.34" x2="529.6545" y1="159.752" y2="159.752"/><rect fill="none" height="6" style="stroke:#000000;stroke-width:1;" width="6" x="59.34" y="170.7593"/><text fill="#000000" font-family="Verdana" font-size="14" lengthAdjust="spacing" textLength="256.71" x="69.34" y="177.8271">LONG_NAME_THRESHOLD: Int = 20</text><ellipse cx="62.34" cy="190.7739" fill="none" rx="3" ry="3" style="stroke:#000000;stroke-width:1;"/><text fill="#000000" font-family="Verdana" font-size="14" lengthAdjust="spacing" textLength="259.5742" x="69.34" y="194.8418">MAX_GREETING_LENGTH: Int = 200</text><line style="stroke:#000000;stroke-width:1;" x1="52.34" x2="529.6545" y1="201.7813" y2="201.7813"/><ellipse cx="62.34" cy="215.7886" fill="#FFFFFF" rx="3" ry="3" style="stroke:#000000;stroke-width:1;"/><text fill="#000000" font-family="Verdana" font-size="14" lengthAdjust="spacing" textLength="455.3145" x="69.34" y="219.8564">determineGreetingFormat(name: PersonName): GreetingFormat</text></g><!--class GreetingFormat--><g class="entity" data-entity="GreetingFormat" data-source-line="27" data-uid="ent0008" id="entity_GreetingFormat"><rect fill="#FFFFFF" height="95.0439" rx="2.5" ry="2.5" style="stroke:#000000;stroke-width:1;" width="138.5098" x="221.75" y="341.1073"/><ellipse cx="234.75" cy="355.1073" fill="#FFFFFF" rx="9" ry="9" style="stroke:#000000;stroke-width:1;"/><path d="M238.3643,361.6073 L230.6445,361.6073 L230.6445,349.2142 L238.3643,349.2142 L238.3643,351.3724 L233.0933,351.3724 L233.0933,354.0453 L237.8662,354.0453 L237.8662,356.2035 L233.0933,356.2035 L233.0933,359.4491 L238.3643,359.4491 Z " fill="#000000"/><text fill="#000000" font-family="Verdana" font-size="14" lengthAdjust="spacing" textLength="110.5098" x="246.75" y="360.6752">GreetingFormat</text><line style="stroke:#000000;stroke-width:1;" x1="222.75" x2="359.2598" y1="369.1073" y2="369.1073"/><text fill="#000000" font-family="Verdana" font-size="14" lengthAdjust="spacing" textLength="63.9229" x="227.75" y="387.1825">DEFAULT</text><text fill="#000000" font-family="Verdana" font-size="14" lengthAdjust="spacing" textLength="70.1914" x="227.75" y="404.1971">FRIENDLY</text><text fill="#000000" font-family="Verdana" font-size="14" lengthAdjust="spacing" textLength="57.9619" x="227.75" y="421.2118">FORMAL</text><line style="stroke:#000000;stroke-width:1;" x1="222.75" x2="359.2598" y1="428.1513" y2="428.1513"/></g><!--class DomainError--><g class="entity" data-entity="DomainError" data-source-line="35" data-uid="ent0010" id="entity_DomainError"><rect fill="#FFFFFF" height="44" rx="2.5" ry="2.5" style="stroke:#000000;stroke-width:1;" width="117.2227" x="1304.39" y="366.6273"/><ellipse cx="1317.39" cy="380.6273" fill="#FFFFFF" rx="9" ry="9" style="stroke:#000000;stroke-width:1;"/><path d="M1317.2533,375.9754 L1316.0995,381.0472 L1318.4154,381.0472 Z M1315.7591,373.7342 L1318.7557,373.7342 L1322.1009,386.1273 L1319.6522,386.1273 L1318.8885,383.0643 L1315.6097,383.0643 L1314.8627,386.1273 L1312.4139,386.1273 Z " fill="#000000"/><text fill="#000000" font-family="Verdana" font-size="14" font-style="italic" lengthAdjust="spacing" textLength="89.2227" x="1329.39" y="386.1952">DomainError</text><line style="stroke:#000000;stroke-width:1;" x1="1305.39" x2="1420.6127" y1="394.6273" y2="394.6273"/><line style="stroke:#000000;stroke-width:1;" x1="1305.39" x2="1420.6127" y1="402.6273" y2="402.6273"/></g><!--class ValidationError--><g class="entity" data-entity="ValidationError" data-source-line="37" data-uid="ent0011" id="entity_ValidationError"><rect fill="#FFFFFF" height="78.0293" rx="2.5" ry="2.5" style="stroke:#000000;stroke-width:1;" width="139.7803" x="1488.11" y="530.4573"/><ellipse cx="1504.2596" cy="544.4573" fill="#FFFFFF" rx="9" ry="9" style="stroke:#000000;stroke-width:1;"/><path d="M1506.7327,550.6004 Q1506.1517,550.8992 1505.5125,551.0486 Q1504.8733,551.198 1504.1678,551.198 Q1501.6609,551.198 1500.3411,549.5462 Q1499.0213,547.8943 1499.0213,544.7732 Q1499.0213,541.6438 1500.3411,539.992 Q1501.6609,538.3401 1504.1678,538.3401 Q1504.8733,538.3401 1505.5208,538.4895 Q1506.1683,538.6389 1506.7327,538.9378 L1506.7327,541.6604 Q1506.1018,541.0794 1505.5083,540.8096 Q1504.9148,540.5398 1504.284,540.5398 Q1502.9392,540.5398 1502.2544,541.6065 Q1501.5696,542.6731 1501.5696,544.7732 Q1501.5696,546.865 1502.2544,547.9317 Q1502.9392,548.9983 1504.284,548.9983 Q1504.9148,548.9983 1505.5083,548.7285 Q1506.1018,548.4588 1506.7327,547.8777 Z " fill="#000000"/><text fill="#000000" font-family="Verdana" font-size="14" lengthAdjust="spacing" textLength="104.7813" x="1516.9595" y="550.0252">ValidationError</text><line style="stroke:#000000;stroke-width:1;" x1="1489.11" x2="1626.8903" y1="558.4573" y2="558.4573"/><ellipse cx="1499.11" cy="572.4646" fill="none" rx="3" ry="3" style="stroke:#000000;stroke-width:1;"/><text fill="#000000" font-family="Verdana" font-size="14" lengthAdjust="spacing" textLength="83.4326" x="1506.11" y="576.5325">field: String</text><ellipse cx="1499.11" cy="589.4793" fill="none" rx="3" ry="3" style="stroke:#000000;stroke-width:1;"/><text fill="#000000" font-family="Verdana" font-size="14" lengthAdjust="spacing" textLength="115.7803" x="1506.11" y="593.5471">message: String</text><line style="stroke:#000000;stroke-width:1;" x1="1489.11" x2="1626.8903" y1="600.4866" y2="600.4866"/></g><!--class BusinessRuleViolation--><g class="entity" data-entity="BusinessRuleViolation" data-source-line="42" data-uid="ent0012" id="entity_BusinessRuleViolation"><rect fill="#FFFFFF" height="78.0293" rx="2.5" ry="2.5" style="stroke:#000000;stroke-width:1;" width="181.0293" x="1272.49" y="530.4573"/><ellipse cx="1285.49" cy="544.4573" fill="#FFFFFF" rx="9" ry="9" style="stroke:#000000;stroke-width:1;"/><path d="M1287.9631,550.6004 Q1287.3821,550.8992 1286.7429,551.0486 Q1286.1038,551.198 1285.3982,551.198 Q1282.8914,551.198 1281.5715,549.5462 Q1280.2517,547.8943 1280.2517,544.7732 Q1280.2517,541.6438 1281.5715,539.992 Q1282.8914,538.3401 1285.3982,538.3401 Q1286.1038,538.3401 1286.7512,538.4895 Q1287.3987,538.6389 1287.9631,538.9378 L1287.9631,541.6604 Q1287.3323,541.0794 1286.7388,540.8096 Q1286.1453,540.5398 1285.5144,540.5398 Q1284.1697,540.5398 1283.4849,541.6065 Q1282.8001,542.6731 1282.8001,544.7732 Q1282.8001,546.865 1283.4849,547.9317 Q1284.1697,548.9983 1285.5144,548.9983 Q1286.1453,548.9983 1286.7388,548.7285 Q1287.3323,548.4588 1287.9631,547.8777 Z " fill="#000000"/><text fill="#000000" font-family="Verdana" font-size="14" lengthAdjust="spacing" textLength="153.0293" x="1297.49" y="550.0252">BusinessRuleViolation</text><line style="stroke:#000000;stroke-width:1;" x1="1273.49" x2="1452.5193" y1="558.4573" y2="558.4573"/><ellipse cx="1283.49" cy="572.4646" fill="none" rx="3" ry="3" style="stroke:#000000;stroke-width:1;"/><text fill="#000000" font-family="Verdana" font-size="14" lengthAdjust="spacing" textLength="80.7803" x="1290.49" y="576.5325">rule: String</text><ellipse cx="1283.49" cy="589.4793" fill="none" rx="3" ry="3" style="stroke:#000000;stroke-width:1;"/><text fill="#000000" font-family="Verdana" font-size="14" lengthAdjust="spacing" textLength="101.1377" x="1290.49" y="593.5471">reason: String</text><line style="stroke:#000000;stroke-width:1;" x1="1273.49" x2="1452.5193" y1="600.4866" y2="600.4866"/></g><!--class NotFound--><g class="entity" data-entity="NotFound" data-source-line="47" data-uid="ent0013" id="entity_NotFound"><rect fill="#FFFFFF" height="78.0293" rx="2.5" ry="2.5" style="stroke:#000000;stroke-width:1;" width="118.124" x="1118.94" y="530.4573"/><ellipse cx="1142.134" cy="544.4573" fill="#FFFFFF" rx="9" ry="9" style="stroke:#000000;stroke-width:1;"/><path d="M1144.6071,550.6004 Q1144.0261,550.8992 1143.3869,551.0486 Q1142.7478,551.198 1142.0422,551.198 Q1139.5354,551.198 1138.2155,549.5462 Q1136.8957,547.8943 1136.8957,544.7732 Q1136.8957,541.6438 1138.2155,539.992 Q1139.5354,538.3401 1142.0422,538.3401 Q1142.7478,538.3401 1143.3952,538.4895 Q1144.0427,538.6389 1144.6071,538.9378 L1144.6071,541.6604 Q1143.9763,541.0794 1143.3828,540.8096 Q1142.7893,540.5398 1142.1584,540.5398 Q1140.8137,540.5398 1140.1289,541.6065 Q1139.4441,542.6731 1139.4441,544.7732 Q1139.4441,546.865 1140.1289,547.9317 Q1140.8137,548.9983 1142.1584,548.9983 Q1142.7893,548.9983 1143.3828,548.7285 Q1143.9763,548.4588 1144.6071,547.8777 Z " fill="#000000"/><text fill="#000000" font-family="Verdana" font-size="14" lengthAdjust="spacing" textLength="67.4707" x="1156.3993" y="550.0252">NotFound</text><line style="stroke:#000000;stroke-width:1;" x1="1119.94" x2="1236.064" y1="558.4573" y2="558.4573"/><ellipse cx="1129.94" cy="572.4646" fill="none" rx="3" ry="3" style="stroke:#000000;stroke-width:1;"/><text fill="#000000" font-family="Verdana" font-size="14" lengthAdjust="spacing" textLength="94.124" x="1136.94" y="576.5325">entity: String</text><ellipse cx="1129.94" cy="589.4793" fill="none" rx="3" ry="3" style="stroke:#000000;stroke-width:1;"/><text fill="#000000" font-family="Verdana" font-size="14" lengthAdjust="spacing" textLength="66.3291" x="1136.94" y="593.5471">id: String</text><line style="stroke:#000000;stroke-width:1;" x1="1119.94" x2="1236.064" y1="600.4866" y2="600.4866"/></g><g class="entity" data-entity="GMN22" data-source-line="67" data-uid="ent0023" id="entity_GMN22"><path d="M2400.93,352.0273 L2400.93,425.2246 L2563.0638,425.2246 L2563.0638,362.0273 L2553.0638,352.0273 L2400.93,352.0273" fill="#FFFFFF" style="stroke:#000000;stroke-width:1;"/><path d="M2553.0638,352.0273 L2553.0638,362.0273 L2563.0638,362.0273 L2553.0638,352.0273" fill="#FFFFFF" style="stroke:#000000;stroke-width:1;"/><text fill="#000000" font-family="Verdana" font-size="13" lengthAdjust="spacing" textLength="141.1338" x="2406.93" y="370.0971">Value Object Pattern:</text><text fill="#000000" font-family="Verdana" font-size="13" lengthAdjust="spacing" textLength="81.8022" x="2406.93" y="385.8964">- Immutable</text><text fill="#000000" font-family="Verdana" font-size="13" lengthAdjust="spacing" textLength="104.7046" x="2406.93" y="401.6958">- Self-validating</text><text fill="#000000" font-family="Verdana" font-size="13" lengthAdjust="spacing" textLength="81.8022" x="2406.93" y="417.4951">- No identity</text></g><g class="entity" data-entity="GMN25" data-source-line="74" data-uid="ent0026" id="entity_GMN25"><path d="M2190.18,146.1773 L2190.18,178.7673 L1062.84,182.7673 L2190.18,186.7673 L2190.18,219.3746 A0,0 0 0 0 2190.18,219.3746 L2345.8138,219.3746 A0,0 0 0 0 2345.8138,219.3746 L2345.8138,156.1773 L2335.8138,146.1773 L2190.18,146.1773 A0,0 0 0 0 2190.18,146.1773" fill="#FFFFFF" style="stroke:#000000;stroke-width:1;"/><path d="M2335.8138,146.1773 L2335.8138,156.1773 L2345.8138,156.1773 L2335.8138,146.1773" fill="#FFFFFF" style="stroke:#000000;stroke-width:1;"/><text fill="#000000" font-family="Verdana" font-size="13" lengthAdjust="spacing" textLength="108.583" x="2196.18" y="164.2471">Domain Service:</text><text fill="#000000" font-family="Verdana" font-size="13" lengthAdjust="spacing" textLength="116.9492" x="2196.18" y="180.0464">- Defines contract</text><text fill="#000000" font-family="Verdana" font-size="13" lengthAdjust="spacing" textLength="134.6338" x="2196.18" y="195.8458">- No implementation</text><text fill="#000000" font-family="Verdana" font-size="13" lengthAdjust="spacing" textLength="127.1055" x="2196.18" y="211.6451">- Pure domain logic</text></g><g class="entity" data-entity="GMN28" data-source-line="81" data-uid="ent0029" id="entity_GMN28"><path d="M2189.72,352.0273 L2189.72,425.2246 L2366.2884,425.2246 L2366.2884,362.0273 L2356.2884,352.0273 L2189.72,352.0273" fill="#FFFFFF" style="stroke:#000000;stroke-width:1;"/><path d="M2356.2884,352.0273 L2356.2884,362.0273 L2366.2884,362.0273 L2356.2884,352.0273" fill="#FFFFFF" style="stroke:#000000;stroke-width:1;"/><text fill="#000000" font-family="Verdana" font-size="13" lengthAdjust="spacing" textLength="155.5684" x="2195.72" y="370.0971">Sealed Class Hierarchy:</text><text fill="#000000" font-family="Verdana" font-size="13" lengthAdjust="spacing" textLength="118.4409" x="2195.72" y="385.8964">- Type-safe errors</text><text fill="#000000" font-family="Verdana" font-size="13" lengthAdjust="spacing" textLength="102.2925" x="2195.72" y="401.6958">- No exceptions</text><text fill="#000000" font-family="Verdana" font-size="13" lengthAdjust="spacing" textLength="112.8232" x="2195.72" y="417.4951">- Functional style</text></g><!--reverse link DomainError to ValidationError--><g class="link" data-entity-1="DomainError" data-entity-2="ValidationError" data-source-line="52" data-uid="lnk14" id="link_DomainError_ValidationError"><path codeLine="52" d="M1399.3976,423.0117 C1431.3876,452.3417 1476.38,493.6173 1516.12,530.0573" fill="none" id="DomainError-backto-ValidationError" style="stroke:#000000;stroke-width:1;"/><polygon fill="none" points="1386.13,410.8473,1395.3428,427.4342,1403.4524,418.5891,1386.13,410.8473" style="stroke:#000000;stroke-width:1;"/></g><!--reverse link DomainError to BusinessRuleViolation--><g class="link" data-entity-1="DomainError" data-entity-2="BusinessRuleViolation" data-source-line="53" data-uid="lnk15" id="link_DomainError_BusinessRuleViolation"><path codeLine="53" d="M1363,428.8473 C1363,458.1773 1363,493.6173 1363,530.0573" fill="none" id="DomainError-backto-BusinessRuleViolation" style="stroke:#000000;stroke-width:1;"/><polygon fill="none" points="1363,410.8473,1357,428.8473,1369,428.8473,1363,410.8473" style="stroke:#000000;stroke-width:1;"/></g><!--reverse link DomainError to NotFound--><g class="link" data-entity-1="DomainError" data-entity-2="NotFound" data-source-line="54" data-uid="lnk16" id="link_DomainError_NotFound"><path codeLine="54" d="M1328.1085,423.358 C1297.7685,452.688 1255.44,493.6173 1217.74,530.0573" fill="none" id="DomainError-backto-NotFound" style="stroke:#000000;stroke-width:1;"/><polygon fill="none" points="1341.05,410.8473,1323.9383,419.0442,1332.2787,427.6718,1341.05,410.8473" style="stroke:#000000;stroke-width:1;"/></g><!--link GreetingService to PersonName--><g class="link" data-entity-1="GreetingService" data-entity-2="PersonName" data-source-line="59" data-uid="lnk17" id="link_GreetingService_PersonName"><path codeLine="59" d="M1062.69,196.0673 C1229.22,208.4473 1452.21,233.0873 1644,281.7973 C1686.97,292.7173 1726.7273,306.6887 1767.4973,323.1687" fill="none" id="GreetingService-to-PersonName" style="stroke:#000000;stroke-width:1;stroke-dasharray:7,7;"/><polygon fill="#000000" points="1773.06,325.4173,1766.2149,318.336,1768.4244,323.5435,1763.2169,325.753,1773.06,325.4173" style="stroke:#000000;stroke-width:1;"/><text fill="#000000" font-family="Verdana" font-size="13" lengthAdjust="spacing" textLength="29.5166" x="1601.31" y="270.8671">uses</text></g><!--link GreetingService to DomainError--><g class="link" data-entity-1="GreetingService" data-entity-2="DomainError" data-source-line="60" data-uid="lnk18" id="link_GreetingService_DomainError"><path codeLine="60" d="M895.21,213.7573 C947.66,233.1373 1017.38,258.9173 1079,281.7973 C1157.55,310.9673 1242.6589,342.6988 1300.0089,364.1088" fill="none" id="GreetingService-to-DomainError" style="stroke:#000000;stroke-width:1;stroke-dasharray:7,7;"/><polygon fill="#000000" points="1305.63,366.2073,1298.5974,359.3122,1300.9458,364.4586,1295.7994,366.807,1305.63,366.2073" style="stroke:#000000;stroke-width:1;"/><text fill="#000000" font-family="Verdana" font-size="13" lengthAdjust="spacing" textLength="47.1885" x="1051.27" y="270.8671">returns</text></g><!--link GreetingPolicy to PersonName--><g class="link" data-entity-1="GreetingPolicy" data-entity-2="PersonName" data-source-line="61" data-uid="lnk19" id="link_GreetingPolicy_PersonName"><path codeLine="61" d="M531.02,224.3973 C536.73,225.2173 542.4,226.0273 548,226.7973 C737.12,253.0173 784.43,262.1973 975,273.7973 C1049.2,278.3173 1571.08,267.3273 1644,281.7973 C1690.04,290.9373 1732.7573,305.5097 1775.2873,323.1397" fill="none" id="GreetingPolicy-to-PersonName" style="stroke:#000000;stroke-width:1;stroke-dasharray:7,7;"/><polygon fill="#000000" points="1780.83,325.4373,1774.0478,318.2958,1776.2111,323.5226,1770.9843,325.686,1780.83,325.4373" style="stroke:#000000;stroke-width:1;"/><text fill="#000000" font-family="Verdana" font-size="13" lengthAdjust="spacing" textLength="29.5166" x="976" y="270.8671">uses</text></g><!--link GreetingPolicy to GreetingFormat--><g class="link" data-entity-1="GreetingPolicy" data-entity-2="GreetingFormat" data-source-line="62" data-uid="lnk20" id="link_GreetingPolicy_GreetingFormat"><path codeLine="62" d="M291,227.2573 C291,260.5773 291,300.4973 291,334.6573" fill="none" id="GreetingPolicy-to-GreetingFormat" style="stroke:#000000;stroke-width:1;stroke-dasharray:7,7;"/><polygon fill="#000000" points="291,340.6573,295,331.6573,291,335.6573,287,331.6573,291,340.6573" style="stroke:#000000;stroke-width:1;"/><text fill="#000000" font-family="Verdana" font-size="13" lengthAdjust="spacing" textLength="47.1885" x="292" y="270.8671">returns</text></g><!--link PersonName to ValidationError--><g class="link" data-entity-1="PersonName" data-entity-2="ValidationError" data-source-line="63" data-uid="lnk21" id="link_PersonName_ValidationError"><path codeLine="63" d="M1786.73,451.9273 C1733.71,478.9473 1678.8656,506.8826 1633.5456,529.9826" fill="none" id="PersonName-to-ValidationError" style="stroke:#000000;stroke-width:1;stroke-dasharray:7,7;"/><polygon fill="#000000" points="1628.2,532.7073,1638.0349,532.184,1632.6547,530.4367,1634.402,525.0565,1628.2,532.7073" style="stroke:#000000;stroke-width:1;"/><text fill="#000000" font-family="Verdana" font-size="13" lengthAdjust="spacing" textLength="47.1885" x="1723.98" y="497.5271">returns</text></g><!--link PersonName to GMN22--><g class="link" data-entity-1="PersonName" data-entity-2="GMN22" data-source-line="67" data-uid="lnk24" id="link_PersonName_GMN22"><path d="M2012.47,325.3773 C2063.74,297.6773 2127.76,268.3173 2189.5,254.2973 C2266.21,236.8773 2295,221.4873 2366.5,254.2973 C2409.83,274.1873 2443.03,319.2373 2462.48,351.6873" fill="none" id="PersonName-GMN22" style="stroke:#000000;stroke-width:1;stroke-dasharray:7,7;"/></g><!--link DomainError to GMN28--><g class="link" data-entity-1="DomainError" data-entity-2="GMN28" data-source-line="81" data-uid="lnk30" id="link_DomainError_GMN28"><path d="M1402.1,366.3373 C1461.21,334.0573 1577.85,275.8273 1685.5,254.2973 C1782.91,234.8273 2039.99,218.1273 2132.5,254.2973 C2182.29,273.7673 2225.28,319.1473 2251.35,351.7773" fill="none" id="DomainError-GMN28" style="stroke:#000000;stroke-width:1;stroke-dasharray:7,7;"/></g><!--SRC=[ZLN9Rjim4BthAwQvD4Mg8EXHS0sujRm0Ycp8Qj2U0aOQssmfqY2f84RYVo-rs99eAmWF0aW-pfjvi-YJtcA6i6E4SaTJpH368ZCR2CWU9RZman6bO4p9HfBCSNOa-KSs25Tjs1MyEc3MwVAPi1oFfyLAIYjBb4hma1Z6mQ34L1V3OGjQB1VAMmzMMbA-iUvUbIQQ9WS8H_V-ut8KntuKUX3X1b-wKBUplMbU9XA9nkiEonSFV6hqa8C7mcXgW8BxKWhvjUNuiCyYuOBlCv6hQsEdmP_W1wVvTiLIA9zfqf6BSeroJHA4gKJKnhbL1R9qkga3EQAkkQ5iqpSnLVcguwa27bhEdLmhbdZwYua-yIy5eyd-B4t18fm-bcc8Pv6_cYs2iGTphk4xVBkpNBqV_NwSHhuVpysRm0-dyQp1thsVk1ID81dbfqWdGcP4NugtYtWlHEHvPi6j0CV-PFGhY3jdasZkX-FWJ_Tm4TsFWWya6ui4j5DDdfIMn2XTjKWhJUSELn2hEizAOasHfHTRvmOoLChuSNPxw2FxaIkZkb9Hpl212bRodb5ASzl3QEhJvERZXA7G4v7pz8m3kPbF-nuMcdw4eIKk3DvSrvQo7tXHXdxuCOYw30wEyzcCf-gLsjATSko-lhqTjiUZ1xd2owWscMVarRda3RBkq_VDjK1M-JS6MwyBd5rq3T24Pi8rrhdvWgIRhGQnjaVWGpdj5zLGMH9jsfbxJZL4vbcMQ_B4iDwlaAtTvvgmpcYXgSboLGGEcleew1oBrDBBQP83zT6HSuph8g6G25wsNuiasp7pJ-IwoR4BormYf9Kb9ZOqwNN1Rk0L4ePf_HkTKPH49jlzqOrulqDNaJL2EHXKumQ-9BWhwwK-c-GyAVQ4WT9x8zR9W_y0]--></g></svg>