<svg xmlns="http://www.w3.org/2000/svg" xmlns:xlink="http://www.w3.org/1999/xlink" contentStyleType="text/css" data-diagram-type="CLASS" height="997px" preserveAspectRatio="none" style="width:1484px;height:997px;background:#FFFFFF;" version="1.1" viewBox="0 0 1484 997" width="1484px" zoomAndPan="magnify"><title>Domain Model - Core Business Concepts</title><defs/><g><g class="title" data-source-line="2"><text fill="#000000" font-family="Verdana" font-size="22" font-weight="bold" lengthAdjust="spacing" textLength="494.8174" x="490.2461" y="37.1182">Domain Model - Core Business Concepts</text></g><!--class PersonName--><g class="entity" data-entity="PersonName" data-source-line="20" data-uid="ent0002" id="entity_PersonName"><rect fill="#FFE5B4" height="191.2852" rx="2.5" ry="2.5" style="stroke:#000000;stroke-width:1;" width="406.2451" x="1027.77" y="494.2173"/><ellipse cx="1185.1006" cy="513.8013" fill="#FFFFFF" rx="9" ry="9" style="stroke:#000000;stroke-width:1;"/><path d="M1187.5737,519.9444 Q1186.9927,520.2432 1186.3535,520.3926 Q1185.7143,520.542 1185.0088,520.542 Q1182.5019,520.542 1181.1821,518.8902 Q1179.8623,517.2383 1179.8623,514.1172 Q1179.8623,510.9878 1181.1821,509.336 Q1182.5019,507.6841 1185.0088,507.6841 Q1185.7143,507.6841 1186.3618,507.8335 Q1187.0093,507.9829 1187.5737,508.2818 L1187.5737,511.0044 Q1186.9429,510.4234 1186.3493,510.1536 Q1185.7558,509.8838 1185.125,509.8838 Q1183.7803,509.8838 1183.0954,510.9505 Q1182.4106,512.0171 1182.4106,514.1172 Q1182.4106,516.209 1183.0954,517.2757 Q1183.7803,518.3423 1185.125,518.3423 Q1185.7558,518.3423 1186.3493,518.0725 Q1186.9429,517.8028 1187.5737,517.2217 Z " fill="#000000"/><text fill="#000000" font-family="Verdana" font-size="12" font-style="italic" lengthAdjust="spacing" textLength="88.084" x="1200.6006" y="511.2818">&#171;ValueObject&#187;</text><text fill="#000000" font-family="Verdana" font-size="12" lengthAdjust="spacing" textLength="75.6387" x="1206.8232" y="525.8657">PersonName</text><line style="stroke:#000000;stroke-width:1;" x1="1028.77" x2="1433.0151" y1="533.3853" y2="533.3853"/><rect fill="none" height="6" style="stroke:#000000;stroke-width:1;" width="6" x="1035.77" y="544.3926"/><text fill="#000000" font-family="Verdana" font-size="14" lengthAdjust="spacing" textLength="92.9893" x="1045.77" y="551.4605">name: String</text><ellipse cx="1038.77" cy="564.4072" fill="#FFFFFF" rx="3" ry="3" style="stroke:#000000;stroke-width:1;"/><text fill="#000000" font-family="Verdana" font-size="14" lengthAdjust="spacing" text-decoration="underline" textLength="382.2451" x="1045.77" y="568.4751">of(name: String): Either&lt;DomainError, PersonName&gt;</text><ellipse cx="1038.77" cy="581.4219" fill="#FFFFFF" rx="3" ry="3" style="stroke:#000000;stroke-width:1;"/><text fill="#000000" font-family="Verdana" font-size="14" lengthAdjust="spacing" text-decoration="underline" textLength="193.416" x="1045.77" y="585.4898">anonymous(): PersonName</text><ellipse cx="1038.77" cy="598.4365" fill="#FFFFFF" rx="3" ry="3" style="stroke:#000000;stroke-width:1;"/><text fill="#000000" font-family="Verdana" font-size="14" lengthAdjust="spacing" textLength="122.9785" x="1045.77" y="602.5044">toString(): String</text><line style="stroke:#000000;stroke-width:1;" x1="1028.77" x2="1433.0151" y1="609.4439" y2="609.4439"/><text fill="#000000" font-family="Verdana" font-size="14" lengthAdjust="spacing" textLength="110.7285" x="1033.77" y="627.5191">Business Rules:</text><text fill="#000000" font-family="Verdana" font-size="14" lengthAdjust="spacing" textLength="123.9014" x="1033.77" y="644.5337">&#8226; 1-50 characters</text><text fill="#000000" font-family="Verdana" font-size="14" lengthAdjust="spacing" textLength="178.9238" x="1033.77" y="661.5484">&#8226; Letters and spaces only</text><text fill="#000000" font-family="Verdana" font-size="14" lengthAdjust="spacing" textLength="127.4971" x="1033.77" y="678.563">&#8226; Cannot be blank</text></g><!--class GreetingFormat--><g class="entity" data-entity="GreetingFormat" data-source-line="33" data-uid="ent0003" id="entity_GreetingFormat"><rect fill="#E6E6FA" height="140.2412" rx="2.5" ry="2.5" style="stroke:#000000;stroke-width:1;" width="178.4717" x="615.65" y="519.7373"/><ellipse cx="653.7745" cy="539.3213" fill="#FFFFFF" rx="9" ry="9" style="stroke:#000000;stroke-width:1;"/><path d="M657.3888,545.8213 L649.669,545.8213 L649.669,533.4282 L657.3888,533.4282 L657.3888,535.5864 L652.1178,535.5864 L652.1178,538.2593 L656.8907,538.2593 L656.8907,540.4175 L652.1178,540.4175 L652.1178,543.6631 L657.3888,543.6631 Z " fill="#000000"/><text fill="#000000" font-family="Verdana" font-size="12" font-style="italic" lengthAdjust="spacing" textLength="49.9219" x="693.6749" y="536.8018">&#171;Enum&#187;</text><text fill="#000000" font-family="Verdana" font-size="12" lengthAdjust="spacing" textLength="94.7227" x="671.2745" y="551.3857">GreetingFormat</text><line style="stroke:#000000;stroke-width:1;" x1="616.65" x2="793.1217" y1="558.9053" y2="558.9053"/><text fill="#000000" font-family="Verdana" font-size="14" lengthAdjust="spacing" textLength="56.5264" x="621.65" y="576.9805">CASUAL</text><text fill="#000000" font-family="Verdana" font-size="14" lengthAdjust="spacing" textLength="57.9619" x="621.65" y="593.9951">FORMAL</text><text fill="#000000" font-family="Verdana" font-size="14" lengthAdjust="spacing" textLength="70.1914" x="621.65" y="611.0098">FRIENDLY</text><text fill="#000000" font-family="Verdana" font-size="14" lengthAdjust="spacing" textLength="109.9834" x="621.65" y="628.0244">PROFESSIONAL</text><line style="stroke:#000000;stroke-width:1;" x1="616.65" x2="793.1217" y1="634.9639" y2="634.9639"/><ellipse cx="626.65" cy="648.9712" fill="#FFFFFF" rx="3" ry="3" style="stroke:#000000;stroke-width:1;"/><text fill="#000000" font-family="Verdana" font-size="14" lengthAdjust="spacing" textLength="154.4717" x="633.65" y="653.0391">getTemplate(): String</text></g><!--class GreetingService--><g class="entity" data-entity="GreetingService" data-source-line="43" data-uid="ent0004" id="entity_GreetingService"><rect fill="#FFDAB9" height="72.1826" rx="2.5" ry="2.5" style="stroke:#000000;stroke-width:1;" width="675.8887" x="139.95" y="311.0073"/><ellipse cx="423.1609" cy="330.5913" fill="#FFFFFF" rx="9" ry="9" style="stroke:#000000;stroke-width:1;"/><path d="M419.5887,326.8564 L419.5887,324.6982 L426.9681,324.6982 L426.9681,326.8564 L424.5027,326.8564 L424.5027,334.9331 L426.9681,334.9331 L426.9681,337.0913 L419.5887,337.0913 L419.5887,334.9331 L422.054,334.9331 L422.054,326.8564 Z " fill="#000000"/><text fill="#000000" font-family="Verdana" font-size="12" font-style="italic" lengthAdjust="spacing" textLength="105.9668" x="438.6609" y="328.0718">&#171;DomainService&#187;</text><text fill="#000000" font-family="Verdana" font-size="12" font-style="italic" lengthAdjust="spacing" textLength="96.0527" x="443.618" y="342.6557">GreetingService</text><line style="stroke:#000000;stroke-width:1;" x1="140.95" x2="814.8387" y1="350.1753" y2="350.1753"/><line style="stroke:#000000;stroke-width:1;" x1="140.95" x2="814.8387" y1="358.1753" y2="358.1753"/><ellipse cx="150.95" cy="372.1826" fill="#FFFFFF" rx="3" ry="3" style="stroke:#000000;stroke-width:1;"/><text fill="#000000" font-family="Verdana" font-size="14" lengthAdjust="spacing" textLength="651.8887" x="157.95" y="376.2505">createGreeting(name: PersonName, format: GreetingFormat): Either&lt;DomainError, String&gt;</text></g><!--class GreetingPolicy--><g class="entity" data-entity="GreetingPolicy" data-source-line="47" data-uid="ent0005" id="entity_GreetingPolicy"><rect fill="#FFDAB9" height="140.2412" rx="2.5" ry="2.5" style="stroke:#000000;stroke-width:1;" width="418.8643" x="850.46" y="276.9773"/><ellipse cx="1005.1587" cy="296.5613" fill="#FFFFFF" rx="9" ry="9" style="stroke:#000000;stroke-width:1;"/><path d="M1007.6319,302.7044 Q1007.0508,303.0032 1006.4117,303.1526 Q1005.7725,303.302 1005.0669,303.302 Q1002.5601,303.302 1001.2403,301.6502 Q999.9204,299.9983 999.9204,296.8772 Q999.9204,293.7478 1001.2403,292.096 Q1002.5601,290.4441 1005.0669,290.4441 Q1005.7725,290.4441 1006.42,290.5935 Q1007.0674,290.7429 1007.6319,291.0418 L1007.6319,293.7644 Q1007.001,293.1834 1006.4075,292.9136 Q1005.814,292.6438 1005.1831,292.6438 Q1003.8384,292.6438 1003.1536,293.7105 Q1002.4688,294.7771 1002.4688,296.8772 Q1002.4688,298.969 1003.1536,300.0357 Q1003.8384,301.1023 1005.1831,301.1023 Q1005.814,301.1023 1006.4075,300.8325 Q1007.001,300.5628 1007.6319,299.9817 Z " fill="#000000"/><text fill="#000000" font-family="Verdana" font-size="12" font-style="italic" lengthAdjust="spacing" textLength="105.9668" x="1020.6587" y="294.0418">&#171;DomainService&#187;</text><text fill="#000000" font-family="Verdana" font-size="12" lengthAdjust="spacing" textLength="86.2734" x="1030.5054" y="308.6257">GreetingPolicy</text><line style="stroke:#000000;stroke-width:1;" x1="851.46" x2="1268.3243" y1="316.1453" y2="316.1453"/><ellipse cx="861.46" cy="330.1526" fill="#FFFFFF" rx="3" ry="3" style="stroke:#000000;stroke-width:1;"/><text fill="#000000" font-family="Verdana" font-size="14" lengthAdjust="spacing" text-decoration="underline" textLength="394.8643" x="868.46" y="334.2205">determineFormat(name: PersonName): GreetingFormat</text><ellipse cx="861.46" cy="347.1672" fill="#FFFFFF" rx="3" ry="3" style="stroke:#000000;stroke-width:1;"/><text fill="#000000" font-family="Verdana" font-size="14" lengthAdjust="spacing" text-decoration="underline" textLength="312.2588" x="868.46" y="351.2351">isAnonymous(name: PersonName): Boolean</text><line style="stroke:#000000;stroke-width:1;" x1="851.46" x2="1268.3243" y1="358.1746" y2="358.1746"/><text fill="#000000" font-family="Verdana" font-size="14" lengthAdjust="spacing" textLength="108.8076" x="856.46" y="376.2498">Business Logic:</text><text fill="#000000" font-family="Verdana" font-size="14" lengthAdjust="spacing" textLength="278.3867" x="856.46" y="393.2644">&#8226; Anonymous users get CASUAL format</text><text fill="#000000" font-family="Verdana" font-size="14" lengthAdjust="spacing" textLength="259.2734" x="856.46" y="410.2791">&#8226; Named users get FRIENDLY format</text></g><!--class DomainError--><g class="entity" data-entity="DomainError" data-source-line="57" data-uid="ent0006" id="entity_DomainError"><rect fill="#FFB6C1" height="55.168" rx="2.5" ry="2.5" style="stroke:#000000;stroke-width:1;" width="104.4766" x="201.65" y="762.4973"/><ellipse cx="214.65" cy="782.0813" fill="#FFFFFF" rx="9" ry="9" style="stroke:#000000;stroke-width:1;"/><path d="M214.5133,777.4294 L213.3595,782.5012 L215.6754,782.5012 Z M213.0191,775.1882 L216.0157,775.1882 L219.3609,787.5813 L216.9122,787.5813 L216.1485,784.5183 L212.8697,784.5183 L212.1227,787.5813 L209.6739,787.5813 Z " fill="#000000"/><text fill="#000000" font-family="Verdana" font-size="12" font-style="italic" lengthAdjust="spacing" textLength="45.7031" x="242.0367" y="779.5618">&#171;Error&#187;</text><text fill="#000000" font-family="Verdana" font-size="12" font-style="italic" lengthAdjust="spacing" textLength="76.4766" x="226.65" y="794.1457">DomainError</text><line style="stroke:#000000;stroke-width:1;" x1="202.65" x2="305.1266" y1="801.6653" y2="801.6653"/><line style="stroke:#000000;stroke-width:1;" x1="202.65" x2="305.1266" y1="809.6653" y2="809.6653"/></g><!--class ValidationError--><g class="entity" data-entity="ValidationError" data-source-line="59" data-uid="ent0007" id="entity_ValidationError"><rect fill="#FFFFFF" height="61.0146" rx="2.5" ry="2.5" style="stroke:#000000;stroke-width:1;" width="127.7803" x="12" y="887.1773"/><ellipse cx="29.4855" cy="901.1773" fill="#FFFFFF" rx="9" ry="9" style="stroke:#000000;stroke-width:1;"/><path d="M31.9586,907.3204 Q31.3776,907.6192 30.7384,907.7686 Q30.0993,907.918 29.3937,907.918 Q26.8869,907.918 25.567,906.2662 Q24.2472,904.6143 24.2472,901.4932 Q24.2472,898.3638 25.567,896.712 Q26.8869,895.0601 29.3937,895.0601 Q30.0993,895.0601 30.7467,895.2095 Q31.3942,895.3589 31.9586,895.6578 L31.9586,898.3804 Q31.3278,897.7994 30.7343,897.5296 Q30.1408,897.2598 29.5099,897.2598 Q28.1652,897.2598 27.4804,898.3265 Q26.7956,899.3931 26.7956,901.4932 Q26.7956,903.585 27.4804,904.6517 Q28.1652,905.7183 29.5099,905.7183 Q30.1408,905.7183 30.7343,905.4485 Q31.3278,905.1788 31.9586,904.5977 Z " fill="#000000"/><text fill="#000000" font-family="Verdana" font-size="12" lengthAdjust="spacing" textLength="89.8125" x="42.4823" y="905.9498">ValidationError</text><line style="stroke:#000000;stroke-width:1;" x1="13" x2="138.7803" y1="915.1773" y2="915.1773"/><text fill="#000000" font-family="Verdana" font-size="14" lengthAdjust="spacing" textLength="115.7803" x="18" y="933.2525">message: String</text><line style="stroke:#000000;stroke-width:1;" x1="13" x2="138.7803" y1="940.192" y2="940.192"/></g><!--class BusinessRuleViolation--><g class="entity" data-entity="BusinessRuleViolation" data-source-line="62" data-uid="ent0009" id="entity_BusinessRuleViolation"><rect fill="#FFFFFF" height="78.0293" rx="2.5" ry="2.5" style="stroke:#000000;stroke-width:1;" width="159.168" x="174.31" y="878.6673"/><ellipse cx="187.31" cy="892.6673" fill="#FFFFFF" rx="9" ry="9" style="stroke:#000000;stroke-width:1;"/><path d="M189.7831,898.8104 Q189.2021,899.1092 188.5629,899.2586 Q187.9238,899.408 187.2182,899.408 Q184.7114,899.408 183.3915,897.7562 Q182.0717,896.1043 182.0717,892.9832 Q182.0717,889.8538 183.3915,888.202 Q184.7114,886.5501 187.2182,886.5501 Q187.9238,886.5501 188.5712,886.6995 Q189.2187,886.8489 189.7831,887.1478 L189.7831,889.8704 Q189.1523,889.2894 188.5588,889.0196 Q187.9653,888.7498 187.3344,888.7498 Q185.9897,888.7498 185.3049,889.8165 Q184.6201,890.8831 184.6201,892.9832 Q184.6201,895.075 185.3049,896.1417 Q185.9897,897.2083 187.3344,897.2083 Q187.9653,897.2083 188.5588,896.9385 Q189.1523,896.6688 189.7831,896.0877 Z " fill="#000000"/><text fill="#000000" font-family="Verdana" font-size="12" lengthAdjust="spacing" textLength="131.168" x="199.31" y="897.4398">BusinessRuleViolation</text><line style="stroke:#000000;stroke-width:1;" x1="175.31" x2="332.478" y1="906.6673" y2="906.6673"/><text fill="#000000" font-family="Verdana" font-size="14" lengthAdjust="spacing" textLength="80.7803" x="180.31" y="924.7425">rule: String</text><text fill="#000000" font-family="Verdana" font-size="14" lengthAdjust="spacing" textLength="115.7803" x="180.31" y="941.7571">message: String</text><line style="stroke:#000000;stroke-width:1;" x1="175.31" x2="332.478" y1="948.6966" y2="948.6966"/></g><!--class NotFound--><g class="entity" data-entity="NotFound" data-source-line="66" data-uid="ent0011" id="entity_NotFound"><rect fill="#FFFFFF" height="78.0293" rx="2.5" ry="2.5" style="stroke:#000000;stroke-width:1;" width="140.0986" x="368.84" y="878.6673"/><ellipse cx="406.26" cy="892.6673" fill="#FFFFFF" rx="9" ry="9" style="stroke:#000000;stroke-width:1;"/><path d="M408.7331,898.8104 Q408.1521,899.1092 407.5129,899.2586 Q406.8737,899.408 406.1682,899.408 Q403.6613,899.408 402.3415,897.7562 Q401.0217,896.1043 401.0217,892.9832 Q401.0217,889.8538 402.3415,888.202 Q403.6613,886.5501 406.1682,886.5501 Q406.8737,886.5501 407.5212,886.6995 Q408.1687,886.8489 408.7331,887.1478 L408.7331,889.8704 Q408.1023,889.2894 407.5087,889.0196 Q406.9152,888.7498 406.2844,888.7498 Q404.9397,888.7498 404.2548,889.8165 Q403.57,890.8831 403.57,892.9832 Q403.57,895.075 404.2548,896.1417 Q404.9397,897.2083 406.2844,897.2083 Q406.9152,897.2083 407.5087,896.9385 Q408.1023,896.6688 408.7331,896.0877 Z " fill="#000000"/><text fill="#000000" font-family="Verdana" font-size="12" lengthAdjust="spacing" textLength="57.832" x="423.6866" y="897.4398">NotFound</text><line style="stroke:#000000;stroke-width:1;" x1="369.84" x2="507.9386" y1="906.6673" y2="906.6673"/><text fill="#000000" font-family="Verdana" font-size="14" lengthAdjust="spacing" textLength="128.0986" x="374.84" y="924.7425">entityType: String</text><text fill="#000000" font-family="Verdana" font-size="14" lengthAdjust="spacing" textLength="115.9648" x="374.84" y="941.7571">identifier: String</text><line style="stroke:#000000;stroke-width:1;" x1="369.84" x2="507.9386" y1="948.6966" y2="948.6966"/></g><!--class DefaultGreetingService--><g class="entity" data-entity="DefaultGreetingService" data-source-line="72" data-uid="ent0013" id="entity_DefaultGreetingService"><rect fill="#FFDAB9" height="140.2412" rx="2.5" ry="2.5" style="stroke:#000000;stroke-width:1;" width="675.8887" x="430.95" y="59.7373"/><ellipse cx="695.3855" cy="79.3213" fill="#FFFFFF" rx="9" ry="9" style="stroke:#000000;stroke-width:1;"/><path d="M697.8587,85.4644 Q697.2776,85.7632 696.6385,85.9126 Q695.9993,86.062 695.2938,86.062 Q692.7869,86.062 691.4671,84.4102 Q690.1473,82.7583 690.1473,79.6372 Q690.1473,76.5078 691.4671,74.856 Q692.7869,73.2041 695.2938,73.2041 Q695.9993,73.2041 696.6468,73.3535 Q697.2942,73.5029 697.8587,73.8018 L697.8587,76.5244 Q697.2278,75.9434 696.6343,75.6736 Q696.0408,75.4038 695.41,75.4038 Q694.0652,75.4038 693.3804,76.4705 Q692.6956,77.5371 692.6956,79.6372 Q692.6956,81.729 693.3804,82.7957 Q694.0652,83.8623 695.41,83.8623 Q696.0408,83.8623 696.6343,83.5925 Q697.2278,83.3228 697.8587,82.7417 Z " fill="#000000"/><text fill="#000000" font-family="Verdana" font-size="12" font-style="italic" lengthAdjust="spacing" textLength="105.9668" x="729.6609" y="76.8018">&#171;DomainService&#187;</text><text fill="#000000" font-family="Verdana" font-size="12" lengthAdjust="spacing" textLength="139.5176" x="712.8855" y="91.3857">DefaultGreetingService</text><line style="stroke:#000000;stroke-width:1;" x1="431.95" x2="1105.8387" y1="98.9053" y2="98.9053"/><ellipse cx="441.95" cy="112.9126" fill="#FFFFFF" rx="3" ry="3" style="stroke:#000000;stroke-width:1;"/><text fill="#000000" font-family="Verdana" font-size="14" lengthAdjust="spacing" textLength="651.8887" x="448.95" y="116.9805">createGreeting(name: PersonName, format: GreetingFormat): Either&lt;DomainError, String&gt;</text><line style="stroke:#000000;stroke-width:1;" x1="431.95" x2="1105.8387" y1="123.9199" y2="123.9199"/><text fill="#000000" font-family="Verdana" font-size="14" lengthAdjust="spacing" textLength="171.1787" x="436.95" y="141.9951">Implementation Details:</text><text fill="#000000" font-family="Verdana" font-size="14" lengthAdjust="spacing" textLength="202.7402" x="436.95" y="159.0098">&#8226; Validates input parameters</text><text fill="#000000" font-family="Verdana" font-size="14" lengthAdjust="spacing" textLength="193.3545" x="436.95" y="176.0244">&#8226; Applies greeting template</text><text fill="#000000" font-family="Verdana" font-size="14" lengthAdjust="spacing" textLength="204.8115" x="436.95" y="193.0391">&#8226; Returns formatted greeting</text></g><g class="entity" data-entity="GMN22" data-source-line="95" data-uid="ent0023" id="entity_GMN22"><path d="M1304.48,302.5973 L1304.48,391.5939 A0,0 0 0 0 1304.48,391.5939 L1357.73,391.5939 L1294,493.8973 L1365.73,391.5939 L1477.3096,391.5939 A0,0 0 0 0 1477.3096,391.5939 L1477.3096,312.5973 L1467.3096,302.5973 L1304.48,302.5973 A0,0 0 0 0 1304.48,302.5973" fill="#FFFFCC" style="stroke:#666666;stroke-width:1;"/><path d="M1467.3096,302.5973 L1467.3096,312.5973 L1477.3096,312.5973 L1467.3096,302.5973" fill="#FFFFCC" style="stroke:#666666;stroke-width:1;"/><text fill="#000000" font-family="Verdana" font-size="13" font-weight="bold" lengthAdjust="spacing" textLength="151.8296" x="1310.48" y="320.6671">Value Object Pattern</text><text fill="#000000" font-family="Verdana" font-size="13" lengthAdjust="spacing" textLength="82.9893" x="1310.48" y="336.4664">&#8226; Immutable</text><text fill="#000000" font-family="Verdana" font-size="13" lengthAdjust="spacing" textLength="105.8916" x="1310.48" y="352.2658">&#8226; Self-validating</text><text fill="#000000" font-family="Verdana" font-size="13" lengthAdjust="spacing" textLength="100.4136" x="1310.48" y="368.0651">&#8226; Rich behavior</text><text fill="#000000" font-family="Verdana" font-size="13" lengthAdjust="spacing" textLength="123.938" x="1310.48" y="383.8644">&#8226; Equality by value</text></g><g class="entity" data-entity="GMN25" data-source-line="103" data-uid="ent0026" id="entity_GMN25"><path d="M828.74,553.2573 L828.74,585.8573 L794.61,589.8573 L828.74,593.8573 L828.74,626.4546 A0,0 0 0 0 828.74,626.4546 L993.032,626.4546 A0,0 0 0 0 993.032,626.4546 L993.032,563.2573 L983.032,553.2573 L828.74,553.2573 A0,0 0 0 0 828.74,553.2573" fill="#FFFFCC" style="stroke:#666666;stroke-width:1;"/><path d="M983.032,553.2573 L983.032,563.2573 L993.032,563.2573 L983.032,553.2573" fill="#FFFFCC" style="stroke:#666666;stroke-width:1;"/><text fill="#000000" font-family="Verdana" font-size="13" font-weight="bold" lengthAdjust="spacing" textLength="100.0137" x="834.74" y="571.3271">Enum Pattern</text><text fill="#000000" font-family="Verdana" font-size="13" lengthAdjust="spacing" textLength="140.7402" x="834.74" y="587.1264">&#8226; Finite set of options</text><text fill="#000000" font-family="Verdana" font-size="13" lengthAdjust="spacing" textLength="143.292" x="834.74" y="602.9258">&#8226; Type-safe constants</text><text fill="#000000" font-family="Verdana" font-size="13" lengthAdjust="spacing" textLength="130.3237" x="834.74" y="618.7251">&#8226; Behavior attached</text></g><g class="entity" data-entity="GMN28" data-source-line="110" data-uid="ent0029" id="entity_GMN28"><path d="M374.8,553.2573 L374.8,626.4546 A0,0 0 0 0 374.8,626.4546 L580.9738,626.4546 A0,0 0 0 0 580.9738,626.4546 L580.9738,563.2573 L570.9738,553.2573 L481.89,553.2573 L477.89,383.6173 L473.89,553.2573 L374.8,553.2573 A0,0 0 0 0 374.8,553.2573" fill="#FFFFCC" style="stroke:#666666;stroke-width:1;"/><path d="M570.9738,553.2573 L570.9738,563.2573 L580.9738,563.2573 L570.9738,553.2573" fill="#FFFFCC" style="stroke:#666666;stroke-width:1;"/><text fill="#000000" font-family="Verdana" font-size="13" font-weight="bold" lengthAdjust="spacing" textLength="172.6626" x="380.8" y="571.3271">Domain Service Pattern</text><text fill="#000000" font-family="Verdana" font-size="13" lengthAdjust="spacing" textLength="144.4409" x="380.8" y="587.1264">&#8226; Stateless operations</text><text fill="#000000" font-family="Verdana" font-size="13" lengthAdjust="spacing" textLength="136.2397" x="380.8" y="602.9258">&#8226; Pure business logic</text><text fill="#000000" font-family="Verdana" font-size="13" lengthAdjust="spacing" textLength="185.1738" x="380.8" y="618.7251">&#8226; No infrastructure concerns</text></g><!--reverse link DomainError to ValidationError--><g class="link" data-entity-1="DomainError" data-entity-2="ValidationError" data-source-line="60" data-uid="lnk8" id="link_DomainError_ValidationError"><path d="M200.9926,828.4048 C172.3926,848.5848 147.97,865.8273 118.38,886.7073" fill="none" id="DomainError-backto-ValidationError" style="stroke:#000000;stroke-width:1;"/><polygon fill="none" points="215.7,818.0273,197.5334,823.5023,204.4517,833.3072,215.7,818.0273" style="stroke:#000000;stroke-width:1;"/></g><!--reverse link DomainError to BusinessRuleViolation--><g class="link" data-entity-1="DomainError" data-entity-2="BusinessRuleViolation" data-source-line="63" data-uid="lnk10" id="link_DomainError_BusinessRuleViolation"><path d="M253.89,836.0273 C253.89,853.6173 253.89,858.8473 253.89,878.3473" fill="none" id="DomainError-backto-BusinessRuleViolation" style="stroke:#000000;stroke-width:1;"/><polygon fill="none" points="253.89,818.0273,247.89,836.0273,259.89,836.0273,253.89,818.0273" style="stroke:#000000;stroke-width:1;"/></g><!--reverse link DomainError to NotFound--><g class="link" data-entity-1="DomainError" data-entity-2="NotFound" data-source-line="67" data-uid="lnk12" id="link_DomainError_NotFound"><path d="M308.4706,828.1402 C334.3706,845.7302 353.7,858.8473 382.42,878.3473" fill="none" id="DomainError-backto-NotFound" style="stroke:#000000;stroke-width:1;"/><polygon fill="none" points="293.58,818.0273,305.0996,833.1038,311.8415,823.1767,293.58,818.0273" style="stroke:#000000;stroke-width:1;"/></g><!--link GreetingService to PersonName--><g class="link" data-entity-1="GreetingService" data-entity-2="PersonName" data-source-line="82" data-uid="lnk14" id="link_GreetingService_PersonName"><path codeLine="82" d="M563.77,383.5573 C629.36,409.3673 722.52,443.3273 806.89,464.2173 C895.85,486.2373 922.72,469.2273 1010.89,494.2173 C1016.39,495.7773 1016.2059,495.6389 1021.7759,497.3889" fill="none" id="GreetingService-to-PersonName" style="stroke:#000000;stroke-width:1;"/><polygon fill="#000000" points="1027.5,499.1873,1020.1128,492.6736,1022.7299,497.6886,1017.7149,500.3058,1027.5,499.1873" style="stroke:#000000;stroke-width:1;"/><text fill="#000000" font-family="Verdana" font-size="13" lengthAdjust="spacing" textLength="58.1826" x="807.89" y="461.2871">validates</text></g><!--link GreetingService to GreetingFormat--><g class="link" data-entity-1="GreetingService" data-entity-2="GreetingFormat" data-source-line="83" data-uid="lnk15" id="link_GreetingService_GreetingFormat"><path codeLine="83" d="M511.38,383.6173 C544.93,419.1973 593.3341,470.5316 635.1941,514.9316" fill="none" id="GreetingService-to-GreetingFormat" style="stroke:#000000;stroke-width:1;"/><polygon fill="#000000" points="639.31,519.2973,636.0466,510.0048,635.8801,515.6592,630.2257,515.4927,639.31,519.2973" style="stroke:#000000;stroke-width:1;"/><text fill="#000000" font-family="Verdana" font-size="13" lengthAdjust="spacing" textLength="29.5166" x="585.58" y="461.2871">uses</text></g><!--link GreetingService to DomainError--><g class="link" data-entity-1="GreetingService" data-entity-2="DomainError" data-source-line="84" data-uid="lnk16" id="link_GreetingService_DomainError"><path codeLine="84" d="M376.03,383.6473 C326.11,406.8273 270.67,442.5373 241.89,494.2173 C193.15,581.7173 223.9542,701.8447 242.1342,756.4347" fill="none" id="GreetingService-to-DomainError" style="stroke:#000000;stroke-width:1;"/><polygon fill="#000000" points="244.03,762.1273,244.9814,752.3245,242.4502,757.3835,237.3912,754.8522,244.03,762.1273" style="stroke:#000000;stroke-width:1;"/><text fill="#000000" font-family="Verdana" font-size="13" lengthAdjust="spacing" textLength="113.4771" x="242.89" y="595.4271">returns on failure</text></g><!--link GreetingPolicy to PersonName--><g class="link" data-entity-1="GreetingPolicy" data-entity-2="PersonName" data-source-line="86" data-uid="lnk17" id="link_GreetingPolicy_PersonName"><path codeLine="86" d="M1109.12,417.4073 C1126.09,441.3073 1141.9245,463.6064 1160.0945,489.1764" fill="none" id="GreetingPolicy-to-PersonName" style="stroke:#000000;stroke-width:1;"/><polygon fill="#000000" points="1163.57,494.0673,1161.6174,484.4139,1160.6738,489.9915,1155.0962,489.0479,1163.57,494.0673" style="stroke:#000000;stroke-width:1;"/><text fill="#000000" font-family="Verdana" font-size="13" lengthAdjust="spacing" textLength="56.4497" x="1141.26" y="461.2871">analyzes</text></g><!--link GreetingPolicy to GreetingFormat--><g class="link" data-entity-1="GreetingPolicy" data-entity-2="GreetingFormat" data-source-line="87" data-uid="lnk18" id="link_GreetingPolicy_GreetingFormat"><path codeLine="87" d="M954.1,417.5973 C928.52,433.5273 901.02,449.9573 874.89,464.2173 C847.31,479.2573 837.11,476.9073 810.89,494.2173 C799.57,501.6873 792.8506,506.5119 782.0006,515.4519" fill="none" id="GreetingPolicy-to-GreetingFormat" style="stroke:#000000;stroke-width:1;"/><polygon fill="#000000" points="777.37,519.2673,786.8595,516.6312,781.2288,516.0878,781.7723,510.4571,777.37,519.2673" style="stroke:#000000;stroke-width:1;"/><text fill="#000000" font-family="Verdana" font-size="13" lengthAdjust="spacing" textLength="73.2139" x="901.78" y="461.2871">determines</text></g><!--link DefaultGreetingService to GreetingService--><g class="link" data-entity-1="DefaultGreetingService" data-entity-2="GreetingService" data-source-line="89" data-uid="lnk19" id="link_DefaultGreetingService_GreetingService"><path codeLine="89" d="M674.81,200.4373 C625.16,237.1673 580.8111,269.9628 540.4711,299.8028" fill="none" id="DefaultGreetingService-to-GreetingService" style="stroke:#000000;stroke-width:1;stroke-dasharray:7,7;"/><polygon fill="none" points="526,310.5073,544.0393,304.6265,536.903,294.9791,526,310.5073" style="stroke:#000000;stroke-width:1;"/><text fill="#000000" font-family="Verdana" font-size="13" lengthAdjust="spacing" textLength="76.1338" x="633.12" y="244.0471">implements</text></g><!--link DefaultGreetingService to GreetingPolicy--><g class="link" data-entity-1="DefaultGreetingService" data-entity-2="GreetingPolicy" data-source-line="90" data-uid="lnk20" id="link_DefaultGreetingService_GreetingPolicy"><path codeLine="90" d="M862.97,200.4373 C896.01,224.8773 928.2959,248.7596 961.3159,273.1796" fill="none" id="DefaultGreetingService-to-GreetingPolicy" style="stroke:#000000;stroke-width:1;"/><polygon fill="#000000" points="966.14,276.7473,961.2823,268.1798,962.1199,273.7743,956.5254,274.6119,966.14,276.7473" style="stroke:#000000;stroke-width:1;"/><text fill="#000000" font-family="Verdana" font-size="13" lengthAdjust="spacing" textLength="29.5166" x="924.12" y="244.0471">uses</text></g><!--link PersonName to DomainError--><g class="link" data-entity-1="PersonName" data-entity-2="DomainError" data-source-line="92" data-uid="lnk21" id="link_PersonName_DomainError"><path codeLine="92" d="M1027.52,680.5973 C1021.95,682.3273 1016.4,683.9673 1010.89,685.4973 C752.73,757.2573 436.6518,779.9537 312.2618,786.4637" fill="none" id="PersonName-to-DomainError" style="stroke:#000000;stroke-width:1;"/><polygon fill="#000000" points="306.27,786.7773,315.4668,790.3015,311.2632,786.516,315.0486,782.3124,306.27,786.7773" style="stroke:#000000;stroke-width:1;"/><text fill="#000000" font-family="Verdana" font-size="13" lengthAdjust="spacing" textLength="110.1572" x="869.9" y="729.5671">validates against</text></g><g class="caption" data-source-line="3"><text fill="#000000" font-family="Verdana" font-size="14" lengthAdjust="spacing" textLength="610.4766" x="432.4165" y="981.7718">The greeting domain focuses on name validation and personalized greeting generation</text></g><!--SRC=[nLRRRkCs47tNLx3OXoROzROfkW5g10PyKn4WcnXs6g2F53MssL2aIbB1UjC5-YtzjFsI7LvqiIplQ_qGHEHmTERCuHdzOFTG02a5vJAnt0eW2rNW0_ceSX1aHEPA0vbLXaim1fyaWzAQXD7ISYN9unx8JWDOBdSa3qUtYbK63C5jIJ7x2nKyfpwSofoKe8sIkFOPylRi3YHe7vGavfdBacfQ42OellKr8VYRKVQyqwgI-Lm9fMzkdgYeu27x2vYTJCYRD5r-cFqw71gAse1-uGn2y68w-squUAcrqY5eTZs_EXCagyB5BA-Nr-aqn2YTW_RxP2RmW5zDbRGRh9LS_P9ywTOcbONXqjoRqtG-Fydwvjh_N9uVYI-VXFgn8PwfbUVsth7UvoUyQUHRCYORgv5rl_IMl1gBpBClH6qlkjkNOxBag10T-VF4lEkyPD9FGAMIXq9LvWBFjd4npAgGrsrs08n6eT1QPEjAW1dxjQ___aUkHXz-9coFd36B6PlrEx3ksMlAb9HvnOb3ip-d4Yac6P1CKFaSI7DjCmdWN_9xb5wgT44jQLeQY9fFDtzCxq877zOVwt_NjylxnTsV_c6rVaYNcytjmttSZOMyHJ7RHoZmLbderEe1nEiLfMWIBh68BQ9lyCGjSghQrvYUQS3CTNniMSlsExo1hgHnhyGpxGpe9WvU455zQgK4PuVlu6ZQdWCMKM3tmejE45tseVGJS3Djb3DmUAQK02e7rNAdTforQcdo4FGWL0Us8lOoij94kjnv9whkRHqNzE8uCWdDZ7NwYuRKuO-qVl6AHyB-K-Du8GO-MP3vyRb0Oe4bq1rqD18orEMvk_34bGZsUJwFnhYZItKkyRsogJEQx-G2YPFWy7WeZpFot6riEUXZHTTwlKN1up2HDc2zk9LRJP6sYjaAPqZctahruJ82MS2MLiB-twhlIAfNm08ivQ9ZHB6hw3DeuPKbtiRXo9EcPIau1ZHZpKORQ2BMW6n84y7QpWWCRAuXzDhiUMcIFZkZqQJhyUDwji9mQC_Ynaxjmv5T5Oo9ZY2HXIroWErBafuhd22XED8FdplfEu4dE1h3C4boHWZlt_ypEV74CU5rayovWzqNHWonyAG3-BJeXaf2TxXiR9Bu4MrLYOEnFyrkiabt09ELQwQMDpzbawRNjqLHMPg9jliR4DjH_JqKxvLN1MTxd5Hx-iALRbQNVrSOQWyaEpXq5U3WolrtGuIc-Mvl7RW1TqM0Rg0D0akvv7ZSW3-i_ATSAs9tyqU6Re4mNBRKSLtlpI96WbafsqFUXvGfQrNHnHJxKeCw7e23y3Pu0q4uSrTb_2Xi4QoycTJkBvpxjvQky6eUkGvp7wmevHRcDm00]--></g></svg>