<svg xmlns="http://www.w3.org/2000/svg" xmlns:xlink="http://www.w3.org/1999/xlink" contentStyleType="text/css" data-diagram-type="CLASS" height="936px" preserveAspectRatio="none" style="width:2440px;height:936px;background:#FFFFFF;" version="1.1" viewBox="0 0 2440 936" width="2440px" zoomAndPan="magnify"><title>Domain Model - Core Business Concepts</title><defs/><g><g class="title" data-source-line="2"><text fill="#000000" font-family="Verdana" font-size="22" font-weight="bold" lengthAdjust="spacing" textLength="494.8174" x="968.4085" y="37.1182">Domain Model - Core Business Concepts</text></g><!--class Email--><g class="entity" data-entity="Email" data-source-line="14" data-uid="ent0002" id="entity_Email"><rect fill="#FFE5CC" height="91.6279" rx="2.5" ry="2.5" style="stroke:#000000;stroke-width:1;" width="159.3994" x="801.1" y="584.1573"/><ellipse cx="835.3919" cy="604.9566" fill="#FFFFFF" rx="9" ry="9" style="stroke:#000000;stroke-width:1;"/><path d="M837.8651,611.0997 Q837.284,611.3985 836.6449,611.5479 Q836.0057,611.6973 835.3001,611.6973 Q832.7933,611.6973 831.4735,610.0455 Q830.1537,608.3936 830.1537,605.2725 Q830.1537,602.1431 831.4735,600.4913 Q832.7933,598.8394 835.3001,598.8394 Q836.0057,598.8394 836.6532,598.9888 Q837.3006,599.1383 837.8651,599.4371 L837.8651,602.1597 Q837.2342,601.5787 836.6407,601.3089 Q836.0472,601.0391 835.4164,601.0391 Q834.0716,601.0391 833.3868,602.1058 Q832.702,603.1724 832.702,605.2725 Q832.702,607.3643 833.3868,608.431 Q834.0716,609.4976 835.4164,609.4976 Q836.0472,609.4976 836.6407,609.2279 Q837.2342,608.9581 837.8651,608.377 Z " fill="#000000"/><text fill="#000000" font-family="Verdana" font-size="12" font-style="italic" lengthAdjust="spacing" textLength="88.084" x="850.1235" y="601.2218">&#171;ValueObject&#187;</text><text fill="#000000" font-family="Verdana" font-size="14" lengthAdjust="spacing" textLength="38.5615" x="874.8847" y="617.8165">Email</text><line style="stroke:#000000;stroke-width:1;" x1="802.1" x2="959.4994" y1="625.7559" y2="625.7559"/><rect fill="none" height="6" style="stroke:#000000;stroke-width:1;" width="6" x="809.1" y="636.7633"/><text fill="#000000" font-family="Verdana" font-size="14" lengthAdjust="spacing" textLength="91.499" x="819.1" y="643.8311">value: String</text><line style="stroke:#000000;stroke-width:1;" x1="802.1" x2="959.4994" y1="650.7706" y2="650.7706"/><ellipse cx="812.1" cy="664.7779" fill="#FFFFFF" rx="3" ry="3" style="stroke:#000000;stroke-width:1;"/><text fill="#000000" font-family="Verdana" font-size="14" lengthAdjust="spacing" textLength="135.3994" x="819.1" y="668.8458">validate(): Boolean</text></g><!--class Money--><g class="entity" data-entity="Money" data-source-line="19" data-uid="ent0003" id="entity_Money"><rect fill="#FFE5CC" height="125.6572" rx="2.5" ry="2.5" style="stroke:#000000;stroke-width:1;" width="245.6074" x="12" y="803.8273"/><ellipse cx="89.0117" cy="824.6266" fill="#FFFFFF" rx="9" ry="9" style="stroke:#000000;stroke-width:1;"/><path d="M91.4849,830.7697 Q90.9038,831.0685 90.2646,831.2179 Q89.6255,831.3673 88.9199,831.3673 Q86.4131,831.3673 85.0933,829.7155 Q83.7734,828.0636 83.7734,824.9425 Q83.7734,821.8131 85.0933,820.1613 Q86.4131,818.5094 88.9199,818.5094 Q89.6255,818.5094 90.2729,818.6588 Q90.9204,818.8083 91.4849,819.1071 L91.4849,821.8297 Q90.854,821.2487 90.2605,820.9789 Q89.667,820.7091 89.0361,820.7091 Q87.6914,820.7091 87.0066,821.7758 Q86.3218,822.8424 86.3218,824.9425 Q86.3218,827.0343 87.0066,828.101 Q87.6914,829.1676 89.0361,829.1676 Q89.667,829.1676 90.2605,828.8979 Q90.854,828.6281 91.4849,828.047 Z " fill="#000000"/><text fill="#000000" font-family="Verdana" font-size="12" font-style="italic" lengthAdjust="spacing" textLength="88.084" x="104.5117" y="820.8918">&#171;ValueObject&#187;</text><text fill="#000000" font-family="Verdana" font-size="14" lengthAdjust="spacing" textLength="45.7803" x="125.6636" y="837.4865">Money</text><line style="stroke:#000000;stroke-width:1;" x1="13" x2="256.6074" y1="845.4259" y2="845.4259"/><rect fill="none" height="6" style="stroke:#000000;stroke-width:1;" width="6" x="20" y="856.4333"/><text fill="#000000" font-family="Verdana" font-size="14" lengthAdjust="spacing" textLength="143.3291" x="30" y="863.5011">amount: BigDecimal</text><rect fill="none" height="6" style="stroke:#000000;stroke-width:1;" width="6" x="20" y="873.4479"/><text fill="#000000" font-family="Verdana" font-size="14" lengthAdjust="spacing" textLength="135.5225" x="30" y="880.5158">currency: Currency</text><line style="stroke:#000000;stroke-width:1;" x1="13" x2="256.6074" y1="887.4552" y2="887.4552"/><ellipse cx="23" cy="901.4626" fill="#FFFFFF" rx="3" ry="3" style="stroke:#000000;stroke-width:1;"/><text fill="#000000" font-family="Verdana" font-size="14" lengthAdjust="spacing" textLength="189.875" x="30" y="905.5304">add(other: Money): Money</text><ellipse cx="23" cy="918.4772" fill="#FFFFFF" rx="3" ry="3" style="stroke:#000000;stroke-width:1;"/><text fill="#000000" font-family="Verdana" font-size="14" lengthAdjust="spacing" textLength="221.6074" x="30" y="922.5451">subtract(other: Money): Money</text></g><!--class CustomerId--><g class="entity" data-entity="CustomerId" data-source-line="26" data-uid="ent0004" id="entity_CustomerId"><rect fill="#FFE5CC" height="91.6279" rx="2.5" ry="2.5" style="stroke:#000000;stroke-width:1;" width="192.9844" x="1228.31" y="584.1573"/><ellipse cx="1279.0102" cy="604.9566" fill="#FFFFFF" rx="9" ry="9" style="stroke:#000000;stroke-width:1;"/><path d="M1281.4833,611.0997 Q1280.9023,611.3985 1280.2631,611.5479 Q1279.624,611.6973 1278.9184,611.6973 Q1276.4116,611.6973 1275.0917,610.0455 Q1273.7719,608.3936 1273.7719,605.2725 Q1273.7719,602.1431 1275.0917,600.4913 Q1276.4116,598.8394 1278.9184,598.8394 Q1279.624,598.8394 1280.2714,598.9888 Q1280.9189,599.1383 1281.4833,599.4371 L1281.4833,602.1597 Q1280.8525,601.5787 1280.259,601.3089 Q1279.6655,601.0391 1279.0346,601.0391 Q1277.6899,601.0391 1277.0051,602.1058 Q1276.3203,603.1724 1276.3203,605.2725 Q1276.3203,607.3643 1277.0051,608.431 Q1277.6899,609.4976 1279.0346,609.4976 Q1279.6655,609.4976 1280.259,609.2279 Q1280.8525,608.9581 1281.4833,608.377 Z " fill="#000000"/><text fill="#000000" font-family="Verdana" font-size="12" font-style="italic" lengthAdjust="spacing" textLength="88.084" x="1294.5102" y="601.2218">&#171;ValueObject&#187;</text><text fill="#000000" font-family="Verdana" font-size="14" lengthAdjust="spacing" textLength="82.4893" x="1297.3076" y="617.8165">CustomerId</text><line style="stroke:#000000;stroke-width:1;" x1="1229.31" x2="1420.2944" y1="625.7559" y2="625.7559"/><rect fill="none" height="6" style="stroke:#000000;stroke-width:1;" width="6" x="1236.31" y="636.7633"/><text fill="#000000" font-family="Verdana" font-size="14" lengthAdjust="spacing" textLength="91.499" x="1246.31" y="643.8311">value: String</text><line style="stroke:#000000;stroke-width:1;" x1="1229.31" x2="1420.2944" y1="650.7706" y2="650.7706"/><ellipse cx="1239.31" cy="664.7779" fill="#FFFFFF" rx="3" ry="3" style="stroke:#000000;stroke-width:1;"/><text fill="#000000" font-family="Verdana" font-size="14" lengthAdjust="spacing" textLength="168.9844" x="1246.31" y="668.8458">generate(): CustomerId</text></g><!--class OrderId--><g class="entity" data-entity="OrderId" data-source-line="31" data-uid="ent0005" id="entity_OrderId"><rect fill="#FFE5CC" height="91.6279" rx="2.5" ry="2.5" style="stroke:#000000;stroke-width:1;" width="165.1416" x="292.23" y="820.8473"/><ellipse cx="329.1059" cy="841.6466" fill="#FFFFFF" rx="9" ry="9" style="stroke:#000000;stroke-width:1;"/><path d="M331.5791,847.7897 Q330.998,848.0885 330.3589,848.2379 Q329.7197,848.3873 329.0141,848.3873 Q326.5073,848.3873 325.1875,846.7355 Q323.8676,845.0836 323.8676,841.9625 Q323.8676,838.8331 325.1875,837.1813 Q326.5073,835.5294 329.0141,835.5294 Q329.7197,835.5294 330.3672,835.6788 Q331.0146,835.8283 331.5791,836.1271 L331.5791,838.8497 Q330.9482,838.2687 330.3547,837.9989 Q329.7612,837.7291 329.1303,837.7291 Q327.7856,837.7291 327.1008,838.7958 Q326.416,839.8624 326.416,841.9625 Q326.416,844.0543 327.1008,845.121 Q327.7856,846.1876 329.1303,846.1876 Q329.7612,846.1876 330.3547,845.9179 Q330.9482,845.6481 331.5791,845.067 Z " fill="#000000"/><text fill="#000000" font-family="Verdana" font-size="12" font-style="italic" lengthAdjust="spacing" textLength="88.084" x="344.4117" y="837.9118">&#171;ValueObject&#187;</text><text fill="#000000" font-family="Verdana" font-size="14" lengthAdjust="spacing" textLength="54.6465" x="361.1304" y="854.5065">OrderId</text><line style="stroke:#000000;stroke-width:1;" x1="293.23" x2="456.3716" y1="862.4459" y2="862.4459"/><rect fill="none" height="6" style="stroke:#000000;stroke-width:1;" width="6" x="300.23" y="873.4533"/><text fill="#000000" font-family="Verdana" font-size="14" lengthAdjust="spacing" textLength="91.499" x="310.23" y="880.5211">value: String</text><line style="stroke:#000000;stroke-width:1;" x1="293.23" x2="456.3716" y1="887.4606" y2="887.4606"/><ellipse cx="303.23" cy="901.4679" fill="#FFFFFF" rx="3" ry="3" style="stroke:#000000;stroke-width:1;"/><text fill="#000000" font-family="Verdana" font-size="14" lengthAdjust="spacing" textLength="141.1416" x="310.23" y="905.5358">generate(): OrderId</text></g><!--class Customer--><g class="entity" data-entity="Customer" data-source-line="37" data-uid="ent0006" id="entity_Customer"><rect fill="#FFE5B4" height="159.6865" rx="2.5" ry="2.5" style="stroke:#000000;stroke-width:1;" width="488.7754" x="834.42" y="296.4273"/><ellipse cx="1041.1207" cy="317.2266" fill="#FFFFFF" rx="9" ry="9" style="stroke:#000000;stroke-width:1;"/><path d="M1043.5938,323.3697 Q1043.0128,323.6685 1042.3736,323.8179 Q1041.7345,323.9673 1041.0289,323.9673 Q1038.5221,323.9673 1037.2022,322.3155 Q1035.8824,320.6636 1035.8824,317.5425 Q1035.8824,314.4131 1037.2022,312.7613 Q1038.5221,311.1094 1041.0289,311.1094 Q1041.7345,311.1094 1042.3819,311.2588 Q1043.0294,311.4083 1043.5938,311.7071 L1043.5938,314.4297 Q1042.963,313.8487 1042.3695,313.5789 Q1041.776,313.3091 1041.1451,313.3091 Q1039.8004,313.3091 1039.1156,314.3758 Q1038.4307,315.4424 1038.4307,317.5425 Q1038.4307,319.6343 1039.1156,320.701 Q1039.8004,321.7676 1041.1451,321.7676 Q1041.776,321.7676 1042.3695,321.4979 Q1042.963,321.2281 1043.5938,320.647 Z " fill="#000000"/><text fill="#000000" font-family="Verdana" font-size="12" font-style="italic" lengthAdjust="spacing" textLength="50.4902" x="1067.3126" y="313.4918">&#171;Entity&#187;</text><text fill="#000000" font-family="Verdana" font-size="14" lengthAdjust="spacing" textLength="67.874" x="1058.6207" y="330.0865">Customer</text><line style="stroke:#000000;stroke-width:1;" x1="835.42" x2="1322.1954" y1="338.0259" y2="338.0259"/><rect fill="none" height="6" style="stroke:#000000;stroke-width:1;" width="6" x="842.42" y="349.0333"/><text fill="#000000" font-family="Verdana" font-size="14" lengthAdjust="spacing" textLength="106.333" x="852.42" y="356.1011">id: CustomerId</text><rect fill="none" height="6" style="stroke:#000000;stroke-width:1;" width="6" x="842.42" y="366.0479"/><text fill="#000000" font-family="Verdana" font-size="14" lengthAdjust="spacing" textLength="92.9893" x="852.42" y="373.1158">name: String</text><rect fill="none" height="6" style="stroke:#000000;stroke-width:1;" width="6" x="842.42" y="383.0626"/><text fill="#000000" font-family="Verdana" font-size="14" lengthAdjust="spacing" textLength="87.8896" x="852.42" y="390.1304">email: Email</text><rect fill="none" height="6" style="stroke:#000000;stroke-width:1;" width="6" x="842.42" y="400.0772"/><text fill="#000000" font-family="Verdana" font-size="14" lengthAdjust="spacing" textLength="167.207" x="852.42" y="407.1451">status: CustomerStatus</text><line style="stroke:#000000;stroke-width:1;" x1="835.42" x2="1322.1954" y1="414.0845" y2="414.0845"/><ellipse cx="845.42" cy="428.0919" fill="#FFFFFF" rx="3" ry="3" style="stroke:#000000;stroke-width:1;"/><text fill="#000000" font-family="Verdana" font-size="14" lengthAdjust="spacing" textLength="464.7754" x="852.42" y="432.1597">changeEmail(email: Email): Either&lt;DomainError, EmailChanged&gt;</text><ellipse cx="845.42" cy="445.1065" fill="#FFFFFF" rx="3" ry="3" style="stroke:#000000;stroke-width:1;"/><text fill="#000000" font-family="Verdana" font-size="14" lengthAdjust="spacing" textLength="376.5713" x="852.42" y="449.1744">activate(): Either&lt;DomainError, CustomerActivated&gt;</text></g><!--class Order--><g class="entity" data-entity="Order" data-source-line="46" data-uid="ent0007" id="entity_Order"><rect fill="#FFE5B4" height="193.7158" rx="2.5" ry="2.5" style="stroke:#000000;stroke-width:1;" width="566.001" x="199.8" y="533.1173"/><ellipse cx="455.8054" cy="553.9166" fill="#FFFFFF" rx="9" ry="9" style="stroke:#000000;stroke-width:1;"/><path d="M458.2785,560.0597 Q457.6975,560.3585 457.0583,560.5079 Q456.4191,560.6573 455.7136,560.6573 Q453.2067,560.6573 451.8869,559.0055 Q450.5671,557.3536 450.5671,554.2325 Q450.5671,551.1031 451.8869,549.4513 Q453.2067,547.7994 455.7136,547.7994 Q456.4191,547.7994 457.0666,547.9488 Q457.7141,548.0983 458.2785,548.3971 L458.2785,551.1197 Q457.6477,550.5387 457.0542,550.2689 Q456.4606,549.9991 455.8298,549.9991 Q454.4851,549.9991 453.8002,551.0658 Q453.1154,552.1324 453.1154,554.2325 Q453.1154,556.3243 453.8002,557.391 Q454.4851,558.4576 455.8298,558.4576 Q456.4606,558.4576 457.0542,558.1879 Q457.6477,557.9181 458.2785,557.337 Z " fill="#000000"/><text fill="#000000" font-family="Verdana" font-size="12" font-style="italic" lengthAdjust="spacing" textLength="50.4902" x="471.3054" y="550.1818">&#171;Entity&#187;</text><text fill="#000000" font-family="Verdana" font-size="14" lengthAdjust="spacing" textLength="40.0313" x="476.5349" y="566.7765">Order</text><line style="stroke:#000000;stroke-width:1;" x1="200.8" x2="764.801" y1="574.7159" y2="574.7159"/><rect fill="none" height="6" style="stroke:#000000;stroke-width:1;" width="6" x="207.8" y="585.7233"/><text fill="#000000" font-family="Verdana" font-size="14" lengthAdjust="spacing" textLength="78.4902" x="217.8" y="592.7911">id: OrderId</text><rect fill="none" height="6" style="stroke:#000000;stroke-width:1;" width="6" x="207.8" y="602.7379"/><text fill="#000000" font-family="Verdana" font-size="14" lengthAdjust="spacing" textLength="173.7764" x="217.8" y="609.8058">customerId: CustomerId</text><rect fill="none" height="6" style="stroke:#000000;stroke-width:1;" width="6" x="207.8" y="619.7526"/><text fill="#000000" font-family="Verdana" font-size="14" lengthAdjust="spacing" textLength="170.6455" x="217.8" y="626.8204">items: List&lt;OrderItem&gt;</text><rect fill="none" height="6" style="stroke:#000000;stroke-width:1;" width="6" x="207.8" y="636.7672"/><text fill="#000000" font-family="Verdana" font-size="14" lengthAdjust="spacing" textLength="139.3643" x="217.8" y="643.8351">status: OrderStatus</text><line style="stroke:#000000;stroke-width:1;" x1="200.8" x2="764.801" y1="650.7745" y2="650.7745"/><ellipse cx="210.8" cy="664.7819" fill="#FFFFFF" rx="3" ry="3" style="stroke:#000000;stroke-width:1;"/><text fill="#000000" font-family="Verdana" font-size="14" lengthAdjust="spacing" textLength="542.001" x="217.8" y="668.8497">addItem(product: Product, quantity: Int): Either&lt;DomainError, ItemAdded&gt;</text><ellipse cx="210.8" cy="681.7965" fill="#FFFFFF" rx="3" ry="3" style="stroke:#000000;stroke-width:1;"/><text fill="#000000" font-family="Verdana" font-size="14" lengthAdjust="spacing" textLength="472.6094" x="217.8" y="685.8644">removeItem(itemId: String): Either&lt;DomainError, ItemRemoved&gt;</text><ellipse cx="210.8" cy="698.8112" fill="#FFFFFF" rx="3" ry="3" style="stroke:#000000;stroke-width:1;"/><text fill="#000000" font-family="Verdana" font-size="14" lengthAdjust="spacing" textLength="348.1816" x="217.8" y="702.879">submit(): Either&lt;DomainError, OrderSubmitted&gt;</text><ellipse cx="210.8" cy="715.8258" fill="#FFFFFF" rx="3" ry="3" style="stroke:#000000;stroke-width:1;"/><text fill="#000000" font-family="Verdana" font-size="14" lengthAdjust="spacing" textLength="166.4688" x="217.8" y="719.8937">calculateTotal(): Money</text></g><!--class Product--><g class="entity" data-entity="Product" data-source-line="57" data-uid="ent0008" id="entity_Product"><rect fill="#FFE5B4" height="159.6865" rx="2.5" ry="2.5" style="stroke:#000000;stroke-width:1;" width="484.9404" x="1342.33" y="59.7373"/><ellipse cx="1554.3969" cy="80.5366" fill="#FFFFFF" rx="9" ry="9" style="stroke:#000000;stroke-width:1;"/><path d="M1556.87,86.6797 Q1556.289,86.9785 1555.6498,87.1279 Q1555.0107,87.2773 1554.3051,87.2773 Q1551.7983,87.2773 1550.4784,85.6255 Q1549.1586,83.9736 1549.1586,80.8525 Q1549.1586,77.7231 1550.4784,76.0713 Q1551.7983,74.4194 1554.3051,74.4194 Q1555.0107,74.4194 1555.6581,74.5688 Q1556.3056,74.7183 1556.87,75.0171 L1556.87,77.7397 Q1556.2392,77.1587 1555.6457,76.8889 Q1555.0522,76.6191 1554.4213,76.6191 Q1553.0766,76.6191 1552.3918,77.6858 Q1551.707,78.7524 1551.707,80.8525 Q1551.707,82.9443 1552.3918,84.011 Q1553.0766,85.0776 1554.4213,85.0776 Q1555.0522,85.0776 1555.6457,84.8079 Q1556.2392,84.5381 1556.87,83.957 Z " fill="#000000"/><text fill="#000000" font-family="Verdana" font-size="12" font-style="italic" lengthAdjust="spacing" textLength="50.4902" x="1573.3051" y="76.8018">&#171;Entity&#187;</text><text fill="#000000" font-family="Verdana" font-size="14" lengthAdjust="spacing" textLength="53.3066" x="1571.8969" y="93.3965">Product</text><line style="stroke:#000000;stroke-width:1;" x1="1343.33" x2="1826.2704" y1="101.3359" y2="101.3359"/><rect fill="none" height="6" style="stroke:#000000;stroke-width:1;" width="6" x="1350.33" y="112.3433"/><text fill="#000000" font-family="Verdana" font-size="14" lengthAdjust="spacing" textLength="91.7656" x="1360.33" y="119.4111">id: ProductId</text><rect fill="none" height="6" style="stroke:#000000;stroke-width:1;" width="6" x="1350.33" y="129.3579"/><text fill="#000000" font-family="Verdana" font-size="14" lengthAdjust="spacing" textLength="92.9893" x="1360.33" y="136.4258">name: String</text><rect fill="none" height="6" style="stroke:#000000;stroke-width:1;" width="6" x="1350.33" y="146.3726"/><text fill="#000000" font-family="Verdana" font-size="14" lengthAdjust="spacing" textLength="91.2324" x="1360.33" y="153.4404">price: Money</text><rect fill="none" height="6" style="stroke:#000000;stroke-width:1;" width="6" x="1350.33" y="163.3872"/><text fill="#000000" font-family="Verdana" font-size="14" lengthAdjust="spacing" textLength="68.4346" x="1360.33" y="170.4551">stock: Int</text><line style="stroke:#000000;stroke-width:1;" x1="1343.33" x2="1826.2704" y1="177.3945" y2="177.3945"/><ellipse cx="1353.33" cy="191.4019" fill="#FFFFFF" rx="3" ry="3" style="stroke:#000000;stroke-width:1;"/><text fill="#000000" font-family="Verdana" font-size="14" lengthAdjust="spacing" textLength="453.8584" x="1360.33" y="195.4697">updatePrice(price: Money): Either&lt;DomainError, PriceUpdated&gt;</text><ellipse cx="1353.33" cy="208.4165" fill="#FFFFFF" rx="3" ry="3" style="stroke:#000000;stroke-width:1;"/><text fill="#000000" font-family="Verdana" font-size="14" lengthAdjust="spacing" textLength="460.9404" x="1360.33" y="212.4844">adjustStock(quantity: Int): Either&lt;DomainError, StockAdjusted&gt;</text></g><!--class PricingService--><g class="entity" data-entity="PricingService" data-source-line="67" data-uid="ent0009" id="entity_PricingService"><rect fill="#FFDAB9" height="91.6279" rx="2.5" ry="2.5" style="stroke:#000000;stroke-width:1;" width="459.9072" x="100.85" y="93.7673"/><ellipse cx="276.0702" cy="114.5666" fill="#FFFFFF" rx="9" ry="9" style="stroke:#000000;stroke-width:1;"/><path d="M278.5434,120.7097 Q277.9623,121.0085 277.3231,121.1579 Q276.684,121.3073 275.9784,121.3073 Q273.4716,121.3073 272.1518,119.6555 Q270.8319,118.0036 270.8319,114.8825 Q270.8319,111.7531 272.1518,110.1013 Q273.4716,108.4494 275.9784,108.4494 Q276.684,108.4494 277.3314,108.5988 Q277.9789,108.7483 278.5434,109.0471 L278.5434,111.7697 Q277.9125,111.1887 277.319,110.9189 Q276.7255,110.6491 276.0946,110.6491 Q274.7499,110.6491 274.0651,111.7158 Q273.3803,112.7824 273.3803,114.8825 Q273.3803,116.9743 274.0651,118.041 Q274.7499,119.1076 276.0946,119.1076 Q276.7255,119.1076 277.319,118.8379 Q277.9125,118.5681 278.5434,117.987 Z " fill="#000000"/><text fill="#000000" font-family="Verdana" font-size="12" font-style="italic" lengthAdjust="spacing" textLength="105.9668" x="291.5702" y="110.8318">&#171;DomainService&#187;</text><text fill="#000000" font-family="Verdana" font-size="14" lengthAdjust="spacing" textLength="98.6221" x="295.2426" y="127.4265">PricingService</text><line style="stroke:#000000;stroke-width:1;" x1="101.85" x2="559.7572" y1="135.3659" y2="135.3659"/><line style="stroke:#000000;stroke-width:1;" x1="101.85" x2="559.7572" y1="143.3659" y2="143.3659"/><ellipse cx="111.85" cy="157.3733" fill="#FFFFFF" rx="3" ry="3" style="stroke:#000000;stroke-width:1;"/><text fill="#000000" font-family="Verdana" font-size="14" lengthAdjust="spacing" textLength="435.9072" x="118.85" y="161.4411">calculateDiscount(order: Order, customer: Customer): Money</text><ellipse cx="111.85" cy="174.3879" fill="#FFFFFF" rx="3" ry="3" style="stroke:#000000;stroke-width:1;"/><text fill="#000000" font-family="Verdana" font-size="14" lengthAdjust="spacing" textLength="269.8623" x="118.85" y="178.4558">applyPromotions(order: Order): Order</text></g><!--class InventoryService--><g class="entity" data-entity="InventoryService" data-source-line="72" data-uid="ent0010" id="entity_InventoryService"><rect fill="#FFDAB9" height="91.6279" rx="2.5" ry="2.5" style="stroke:#000000;stroke-width:1;" width="571.6543" x="1861.98" y="93.7673"/><ellipse cx="2083.9795" cy="114.5666" fill="#FFFFFF" rx="9" ry="9" style="stroke:#000000;stroke-width:1;"/><path d="M2086.4527,120.7097 Q2085.8716,121.0085 2085.2324,121.1579 Q2084.5933,121.3073 2083.8877,121.3073 Q2081.3809,121.3073 2080.0611,119.6555 Q2078.7412,118.0036 2078.7412,114.8825 Q2078.7412,111.7531 2080.0611,110.1013 Q2081.3809,108.4494 2083.8877,108.4494 Q2084.5933,108.4494 2085.2407,108.5988 Q2085.8882,108.7483 2086.4527,109.0471 L2086.4527,111.7697 Q2085.8218,111.1887 2085.2283,110.9189 Q2084.6348,110.6491 2084.0039,110.6491 Q2082.6592,110.6491 2081.9744,111.7158 Q2081.2896,112.7824 2081.2896,114.8825 Q2081.2896,116.9743 2081.9744,118.041 Q2082.6592,119.1076 2084.0039,119.1076 Q2084.6348,119.1076 2085.2283,118.8379 Q2085.8218,118.5681 2086.4527,117.987 Z " fill="#000000"/><text fill="#000000" font-family="Verdana" font-size="12" font-style="italic" lengthAdjust="spacing" textLength="105.9668" x="2108.5738" y="110.8318">&#171;DomainService&#187;</text><text fill="#000000" font-family="Verdana" font-size="14" lengthAdjust="spacing" textLength="120.1553" x="2101.4795" y="127.4265">InventoryService</text><line style="stroke:#000000;stroke-width:1;" x1="1862.98" x2="2432.6343" y1="135.3659" y2="135.3659"/><line style="stroke:#000000;stroke-width:1;" x1="1862.98" x2="2432.6343" y1="143.3659" y2="143.3659"/><ellipse cx="1872.98" cy="157.3733" fill="#FFFFFF" rx="3" ry="3" style="stroke:#000000;stroke-width:1;"/><text fill="#000000" font-family="Verdana" font-size="14" lengthAdjust="spacing" textLength="530.7559" x="1879.98" y="161.4411">checkAvailability(items: List&lt;OrderItem&gt;): Either&lt;DomainError, Boolean&gt;</text><ellipse cx="1872.98" cy="174.3879" fill="#FFFFFF" rx="3" ry="3" style="stroke:#000000;stroke-width:1;"/><text fill="#000000" font-family="Verdana" font-size="14" lengthAdjust="spacing" textLength="547.6543" x="1879.98" y="178.4558">reserveStock(items: List&lt;OrderItem&gt;): Either&lt;DomainError, ReservationId&gt;</text></g><!--class CustomerRepository--><g class="entity" data-entity="CustomerRepository" data-source-line="78" data-uid="ent0011" id="entity_CustomerRepository"><rect fill="#FFD700" height="108.6426" rx="2.5" ry="2.5" style="stroke:#000000;stroke-width:1;" width="457.7813" x="849.91" y="85.2673"/><ellipse cx="1003.7655" cy="106.0666" fill="#FFFFFF" rx="9" ry="9" style="stroke:#000000;stroke-width:1;"/><path d="M1000.1932,102.3318 L1000.1932,100.1736 L1007.5726,100.1736 L1007.5726,102.3318 L1005.1073,102.3318 L1005.1073,110.4084 L1007.5726,110.4084 L1007.5726,112.5666 L1000.1932,112.5666 L1000.1932,110.4084 L1002.6585,110.4084 L1002.6585,102.3318 Z " fill="#000000"/><text fill="#000000" font-family="Verdana" font-size="12" font-style="italic" lengthAdjust="spacing" textLength="79.4883" x="1052.8065" y="102.3318">&#171;Repository&#187;</text><text fill="#000000" font-family="Verdana" font-size="14" font-style="italic" lengthAdjust="spacing" textLength="142.5703" x="1021.2655" y="118.9265">CustomerRepository</text><line style="stroke:#000000;stroke-width:1;" x1="850.91" x2="1306.6912" y1="126.8659" y2="126.8659"/><line style="stroke:#000000;stroke-width:1;" x1="850.91" x2="1306.6912" y1="134.8659" y2="134.8659"/><ellipse cx="860.91" cy="148.8733" fill="#FFFFFF" rx="3" ry="3" style="stroke:#000000;stroke-width:1;"/><text fill="#000000" font-family="Verdana" font-size="14" lengthAdjust="spacing" textLength="428.2783" x="867.91" y="152.9411">findById(id: CustomerId): Either&lt;DomainError, Customer?&gt;</text><ellipse cx="860.91" cy="165.8879" fill="#FFFFFF" rx="3" ry="3" style="stroke:#000000;stroke-width:1;"/><text fill="#000000" font-family="Verdana" font-size="14" lengthAdjust="spacing" textLength="432.3389" x="867.91" y="169.9558">save(customer: Customer): Either&lt;DomainError, Customer&gt;</text><ellipse cx="860.91" cy="182.9026" fill="#FFFFFF" rx="3" ry="3" style="stroke:#000000;stroke-width:1;"/><text fill="#000000" font-family="Verdana" font-size="14" lengthAdjust="spacing" textLength="433.7813" x="867.91" y="186.9704">findByEmail(email: Email): Either&lt;DomainError, Customer?&gt;</text></g><!--class OrderRepository--><g class="entity" data-entity="OrderRepository" data-source-line="84" data-uid="ent0012" id="entity_OrderRepository"><rect fill="#FFD700" height="108.6426" rx="2.5" ry="2.5" style="stroke:#000000;stroke-width:1;" width="599.4766" x="200.07" y="321.9473"/><ellipse cx="438.6979" cy="342.7466" fill="#FFFFFF" rx="9" ry="9" style="stroke:#000000;stroke-width:1;"/><path d="M435.1257,339.0118 L435.1257,336.8536 L442.5051,336.8536 L442.5051,339.0118 L440.0397,339.0118 L440.0397,347.0884 L442.5051,347.0884 L442.5051,349.2466 L435.1257,349.2466 L435.1257,347.0884 L437.591,347.0884 L437.591,339.0118 Z " fill="#000000"/><text fill="#000000" font-family="Verdana" font-size="12" font-style="italic" lengthAdjust="spacing" textLength="79.4883" x="473.8141" y="339.0118">&#171;Repository&#187;</text><text fill="#000000" font-family="Verdana" font-size="14" font-style="italic" lengthAdjust="spacing" textLength="114.7207" x="456.1979" y="355.6065">OrderRepository</text><line style="stroke:#000000;stroke-width:1;" x1="201.07" x2="798.5466" y1="363.5459" y2="363.5459"/><line style="stroke:#000000;stroke-width:1;" x1="201.07" x2="798.5466" y1="371.5459" y2="371.5459"/><ellipse cx="211.07" cy="385.5533" fill="#FFFFFF" rx="3" ry="3" style="stroke:#000000;stroke-width:1;"/><text fill="#000000" font-family="Verdana" font-size="14" lengthAdjust="spacing" textLength="372.5928" x="218.07" y="389.6211">findById(id: OrderId): Either&lt;DomainError, Order?&gt;</text><ellipse cx="211.07" cy="402.5679" fill="#FFFFFF" rx="3" ry="3" style="stroke:#000000;stroke-width:1;"/><text fill="#000000" font-family="Verdana" font-size="14" lengthAdjust="spacing" textLength="348.7695" x="218.07" y="406.6358">save(order: Order): Either&lt;DomainError, Order&gt;</text><ellipse cx="211.07" cy="419.5826" fill="#FFFFFF" rx="3" ry="3" style="stroke:#000000;stroke-width:1;"/><text fill="#000000" font-family="Verdana" font-size="14" lengthAdjust="spacing" textLength="575.4766" x="218.07" y="423.6504">findByCustomerId(customerId: CustomerId): Either&lt;DomainError, List&lt;Order&gt;&gt;</text></g><!--class OrderSubmitted--><g class="entity" data-entity="OrderSubmitted" data-source-line="91" data-uid="ent0013" id="entity_OrderSubmitted"><rect fill="#FFEBCD" height="125.6572" rx="2.5" ry="2.5" style="stroke:#000000;stroke-width:1;" width="197.7764" x="491.92" y="803.8273"/><ellipse cx="530.689" cy="824.6266" fill="#FFFFFF" rx="9" ry="9" style="stroke:#000000;stroke-width:1;"/><path d="M533.1622,830.7697 Q532.5811,831.0685 531.942,831.2179 Q531.3028,831.3673 530.5972,831.3673 Q528.0904,831.3673 526.7706,829.7155 Q525.4508,828.0636 525.4508,824.9425 Q525.4508,821.8131 526.7706,820.1613 Q528.0904,818.5094 530.5972,818.5094 Q531.3028,818.5094 531.9503,818.6588 Q532.5977,818.8083 533.1622,819.1071 L533.1622,821.8297 Q532.5313,821.2487 531.9378,820.9789 Q531.3443,820.7091 530.7135,820.7091 Q529.3687,820.7091 528.6839,821.7758 Q527.9991,822.8424 527.9991,824.9425 Q527.9991,827.0343 528.6839,828.101 Q529.3687,829.1676 530.7135,829.1676 Q531.3443,829.1676 531.9378,828.8979 Q532.5313,828.6281 533.1622,828.047 Z " fill="#000000"/><text fill="#000000" font-family="Verdana" font-size="12" font-style="italic" lengthAdjust="spacing" textLength="95.8594" x="556.6285" y="820.8918">&#171;DomainEvent&#187;</text><text fill="#000000" font-family="Verdana" font-size="14" lengthAdjust="spacing" textLength="112.7383" x="548.189" y="837.4865">OrderSubmitted</text><line style="stroke:#000000;stroke-width:1;" x1="492.92" x2="688.6964" y1="845.4259" y2="845.4259"/><ellipse cx="502.92" cy="859.4333" fill="none" rx="3" ry="3" style="stroke:#000000;stroke-width:1;"/><text fill="#000000" font-family="Verdana" font-size="14" lengthAdjust="spacing" textLength="118.0498" x="509.92" y="863.5011">orderId: OrderId</text><ellipse cx="502.92" cy="876.4479" fill="none" rx="3" ry="3" style="stroke:#000000;stroke-width:1;"/><text fill="#000000" font-family="Verdana" font-size="14" lengthAdjust="spacing" textLength="173.7764" x="509.92" y="880.5158">customerId: CustomerId</text><ellipse cx="502.92" cy="893.4626" fill="none" rx="3" ry="3" style="stroke:#000000;stroke-width:1;"/><text fill="#000000" font-family="Verdana" font-size="14" lengthAdjust="spacing" textLength="88.8398" x="509.92" y="897.5304">total: Money</text><ellipse cx="502.92" cy="910.4772" fill="none" rx="3" ry="3" style="stroke:#000000;stroke-width:1;"/><text fill="#000000" font-family="Verdana" font-size="14" lengthAdjust="spacing" textLength="137.6689" x="509.92" y="914.5451">occurredAt: Instant</text><line style="stroke:#000000;stroke-width:1;" x1="492.92" x2="688.6964" y1="921.4845" y2="921.4845"/></g><!--class CustomerActivated--><g class="entity" data-entity="CustomerActivated" data-source-line="98" data-uid="ent0014" id="entity_CustomerActivated"><rect fill="#FFEBCD" height="91.6279" rx="2.5" ry="2.5" style="stroke:#000000;stroke-width:1;" width="197.7764" x="995.92" y="584.1573"/><ellipse cx="1025.3033" cy="604.9566" fill="#FFFFFF" rx="9" ry="9" style="stroke:#000000;stroke-width:1;"/><path d="M1027.7764,611.0997 Q1027.1953,611.3985 1026.5562,611.5479 Q1025.917,611.6973 1025.2115,611.6973 Q1022.7046,611.6973 1021.3848,610.0455 Q1020.065,608.3936 1020.065,605.2725 Q1020.065,602.1431 1021.3848,600.4913 Q1022.7046,598.8394 1025.2115,598.8394 Q1025.917,598.8394 1026.5645,598.9888 Q1027.2119,599.1383 1027.7764,599.4371 L1027.7764,602.1597 Q1027.1455,601.5787 1026.552,601.3089 Q1025.9585,601.0391 1025.3277,601.0391 Q1023.9829,601.0391 1023.2981,602.1058 Q1022.6133,603.1724 1022.6133,605.2725 Q1022.6133,607.3643 1023.2981,608.431 Q1023.9829,609.4976 1025.3277,609.4976 Q1025.9585,609.4976 1026.552,609.2279 Q1027.1455,608.9581 1027.7764,608.377 Z " fill="#000000"/><text fill="#000000" font-family="Verdana" font-size="12" font-style="italic" lengthAdjust="spacing" textLength="95.8594" x="1059.6989" y="601.2218">&#171;DomainEvent&#187;</text><text fill="#000000" font-family="Verdana" font-size="14" lengthAdjust="spacing" textLength="133.3691" x="1040.944" y="617.8165">CustomerActivated</text><line style="stroke:#000000;stroke-width:1;" x1="996.92" x2="1192.6964" y1="625.7559" y2="625.7559"/><ellipse cx="1006.92" cy="639.7633" fill="none" rx="3" ry="3" style="stroke:#000000;stroke-width:1;"/><text fill="#000000" font-family="Verdana" font-size="14" lengthAdjust="spacing" textLength="173.7764" x="1013.92" y="643.8311">customerId: CustomerId</text><ellipse cx="1006.92" cy="656.7779" fill="none" rx="3" ry="3" style="stroke:#000000;stroke-width:1;"/><text fill="#000000" font-family="Verdana" font-size="14" lengthAdjust="spacing" textLength="137.6689" x="1013.92" y="660.8458">occurredAt: Instant</text><line style="stroke:#000000;stroke-width:1;" x1="996.92" x2="1192.6964" y1="667.7852" y2="667.7852"/></g><!--class OrderItem--><g class="entity" data-entity="OrderItem" data-source-line="105" data-uid="ent0016" id="entity_OrderItem"><rect fill="#FFFFFF" height="44" rx="2.5" ry="2.5" style="stroke:#000000;stroke-width:1;" width="101.3975" x="725.1" y="844.6573"/><ellipse cx="738.1" cy="858.6573" fill="#FFFFFF" rx="9" ry="9" style="stroke:#000000;stroke-width:1;"/><path d="M740.5731,864.8004 Q739.9921,865.0992 739.3529,865.2486 Q738.7138,865.398 738.0082,865.398 Q735.5014,865.398 734.1815,863.7462 Q732.8617,862.0943 732.8617,858.9732 Q732.8617,855.8438 734.1815,854.192 Q735.5014,852.5401 738.0082,852.5401 Q738.7138,852.5401 739.3612,852.6895 Q740.0087,852.8389 740.5731,853.1378 L740.5731,855.8604 Q739.9423,855.2794 739.3488,855.0096 Q738.7553,854.7398 738.1244,854.7398 Q736.7797,854.7398 736.0949,855.8065 Q735.4101,856.8731 735.4101,858.9732 Q735.4101,861.065 736.0949,862.1317 Q736.7797,863.1983 738.1244,863.1983 Q738.7553,863.1983 739.3488,862.9285 Q739.9423,862.6588 740.5731,862.0777 Z " fill="#000000"/><text fill="#000000" font-family="Verdana" font-size="14" lengthAdjust="spacing" textLength="73.3975" x="750.1" y="864.2252">OrderItem</text><line style="stroke:#000000;stroke-width:1;" x1="726.1" x2="825.4975" y1="872.6573" y2="872.6573"/><line style="stroke:#000000;stroke-width:1;" x1="726.1" x2="825.4975" y1="880.6573" y2="880.6573"/></g><!--link Customer to Order--><g class="link" data-entity-1="Customer" data-entity-2="Order" data-source-line="104" data-uid="lnk15" id="link_Customer_Order"><path codeLine="104" d="M891.04,456.5673 C833.89,480.6973 770.44,507.4973 710.93,532.6273" fill="none" id="Customer-Order" style="stroke:#000000;stroke-width:1;"/><text fill="#000000" font-family="Verdana" font-size="13" lengthAdjust="spacing" textLength="40.7646" x="817.49" y="500.1871">places</text><text fill="#000000" font-family="Verdana" font-size="13" lengthAdjust="spacing" textLength="8.2646" x="866.5713" y="477.2165">1</text><text fill="#000000" font-family="Verdana" font-size="13" lengthAdjust="spacing" textLength="8.2646" x="720.8009" y="522.3739">*</text></g><!--link Order to OrderItem--><g class="link" data-entity-1="Order" data-entity-2="OrderItem" data-source-line="105" data-uid="lnk17" id="link_Order_OrderItem"><path codeLine="105" d="M610.84,727.1873 C642.56,751.7373 676.22,778.3873 706.8,803.8273 C722.51,816.8973 739.61,832.2173 752.86,844.3373" fill="none" id="Order-OrderItem" style="stroke:#000000;stroke-width:1;"/><text fill="#000000" font-family="Verdana" font-size="13" lengthAdjust="spacing" textLength="54.3867" x="665.83" y="770.8971">contains</text><text fill="#000000" font-family="Verdana" font-size="13" lengthAdjust="spacing" textLength="8.2646" x="611.9589" y="747.9763">1</text><text fill="#000000" font-family="Verdana" font-size="13" lengthAdjust="spacing" textLength="8.2646" x="736.9856" y="833.7649">*</text></g><!--link Order to Money--><g class="link" data-entity-1="Order" data-entity-2="Money" data-source-line="106" data-uid="lnk18" id="link_Order_Money"><path codeLine="106" d="M340,727.2773 C301.92,752.9573 266.7545,776.6726 232.1745,799.9926" fill="none" id="Order-to-Money" style="stroke:#000000;stroke-width:1;"/><polygon fill="#000000" points="227.2,803.3473,236.8983,801.6316,231.3454,800.5517,232.4253,794.9989,227.2,803.3473" style="stroke:#000000;stroke-width:1;"/><text fill="#000000" font-family="Verdana" font-size="13" lengthAdjust="spacing" textLength="29.5103" x="288.97" y="770.8971">total</text></g><!--link Customer to Email--><g class="link" data-entity-1="Customer" data-entity-2="Email" data-source-line="107" data-uid="lnk19" id="link_Customer_Email"><path codeLine="107" d="M1016.43,456.5673 C983.44,498.4973 947.8493,543.7412 920.0693,579.0612" fill="none" id="Customer-to-Email" style="stroke:#000000;stroke-width:1;"/><polygon fill="#000000" points="916.36,583.7773,925.068,579.1761,919.4511,579.8473,918.7799,574.2304,916.36,583.7773" style="stroke:#000000;stroke-width:1;"/><text fill="#000000" font-family="Verdana" font-size="13" lengthAdjust="spacing" textLength="22.8071" x="992.66" y="500.1871">has</text></g><!--link Customer to CustomerId--><g class="link" data-entity-1="Customer" data-entity-2="CustomerId" data-source-line="108" data-uid="lnk20" id="link_Customer_CustomerId"><path codeLine="108" d="M1156.3,456.5673 C1197.28,498.4973 1241.9162,544.1663 1276.4362,579.4863" fill="none" id="Customer-to-CustomerId" style="stroke:#000000;stroke-width:1;"/><polygon fill="#000000" points="1280.63,583.7773,1277.2,574.545,1277.1352,580.2015,1271.4787,580.1367,1280.63,583.7773" style="stroke:#000000;stroke-width:1;"/><text fill="#000000" font-family="Verdana" font-size="13" lengthAdjust="spacing" textLength="80.6724" x="1195.43" y="500.1871">identified by</text></g><!--link Order to OrderId--><g class="link" data-entity-1="Order" data-entity-2="OrderId" data-source-line="109" data-uid="lnk21" id="link_Order_OrderId"><path codeLine="109" d="M438.56,727.1073 C423.71,759.3873 410.3491,788.4271 398.1491,814.9271" fill="none" id="Order-to-OrderId" style="stroke:#000000;stroke-width:1;"/><polygon fill="#000000" points="395.64,820.3773,403.0371,813.8748,397.7309,815.8355,395.7703,810.5293,395.64,820.3773" style="stroke:#000000;stroke-width:1;"/><text fill="#000000" font-family="Verdana" font-size="13" lengthAdjust="spacing" textLength="80.6724" x="423.34" y="770.8971">identified by</text></g><!--link Order to OrderSubmitted--><g class="link" data-entity-1="Order" data-entity-2="OrderSubmitted" data-source-line="110" data-uid="lnk22" id="link_Order_OrderSubmitted"><path codeLine="110" d="M527.04,727.1073 C538.93,752.9273 548.9521,774.7166 559.7321,798.1466" fill="none" id="Order-to-OrderSubmitted" style="stroke:#000000;stroke-width:1;stroke-dasharray:7,7;"/><polygon fill="#000000" points="562.24,803.5973,562.112,793.7493,560.1501,799.055,554.8444,797.0931,562.24,803.5973" style="stroke:#000000;stroke-width:1;"/><text fill="#000000" font-family="Verdana" font-size="13" lengthAdjust="spacing" textLength="35.8516" x="547.48" y="770.8971">emits</text></g><!--link Customer to CustomerActivated--><g class="link" data-entity-1="Customer" data-entity-2="CustomerActivated" data-source-line="111" data-uid="lnk23" id="link_Customer_CustomerActivated"><path codeLine="111" d="M1083.84,456.5673 C1086.51,498.4973 1089.3102,542.4693 1091.5502,577.7893" fill="none" id="Customer-to-CustomerActivated" style="stroke:#000000;stroke-width:1;stroke-dasharray:7,7;"/><polygon fill="#000000" points="1091.93,583.7773,1095.3523,574.5422,1091.6135,578.7873,1087.3684,575.0485,1091.93,583.7773" style="stroke:#000000;stroke-width:1;"/><text fill="#000000" font-family="Verdana" font-size="13" lengthAdjust="spacing" textLength="35.8516" x="1087.32" y="500.1871">emits</text></g><!--link PricingService to Order--><g class="link" data-entity-1="PricingService" data-entity-2="Order" data-source-line="112" data-uid="lnk24" id="link_PricingService_Order"><path codeLine="112" d="M218,185.7373 C171.02,210.8373 121.32,247.1373 94.8,296.4273 C61.18,358.9273 56.16,396.5873 94.8,456.1173 C120.7,496.0073 152.9673,523.8061 194.5473,547.5061" fill="none" id="PricingService-to-Order" style="stroke:#000000;stroke-width:1;stroke-dasharray:7,7;"/><polygon fill="#000000" points="199.76,550.4773,193.9217,542.5454,195.4161,548.0013,189.9602,549.4957,199.76,550.4773" style="stroke:#000000;stroke-width:1;"/><text fill="#000000" font-family="Verdana" font-size="13" lengthAdjust="spacing" textLength="86.7407" x="95.8" y="381.8371">calculates for</text></g><!--link PricingService to Customer--><g class="link" data-entity-1="PricingService" data-entity-2="Customer" data-source-line="113" data-uid="lnk25" id="link_PricingService_Customer"><path codeLine="113" d="M475.03,185.8373 C576.7,217.7373 709.6451,259.4513 828.4451,296.7213" fill="none" id="PricingService-to-Customer" style="stroke:#000000;stroke-width:1;stroke-dasharray:7,7;"/><polygon fill="#000000" points="834.17,298.5173,826.78,292.0067,829.3993,297.0206,824.3853,299.6399,834.17,298.5173" style="stroke:#000000;stroke-width:1;"/><text fill="#000000" font-family="Verdana" font-size="13" lengthAdjust="spacing" textLength="61.3945" x="728.23" y="263.4971">considers</text></g><!--link CustomerRepository to Customer--><g class="link" data-entity-1="CustomerRepository" data-entity-2="Customer" data-source-line="114" data-uid="lnk26" id="link_CustomerRepository_Customer"><path codeLine="114" d="M1078.8,194.1273 C1078.8,224.2973 1078.8,256.5473 1078.8,290.1173" fill="none" id="CustomerRepository-to-Customer" style="stroke:#000000;stroke-width:1;stroke-dasharray:7,7;"/><polygon fill="#000000" points="1078.8,296.1173,1082.8,287.1173,1078.8,291.1173,1074.8,287.1173,1078.8,296.1173" style="stroke:#000000;stroke-width:1;"/><text fill="#000000" font-family="Verdana" font-size="13" lengthAdjust="spacing" textLength="59.103" x="1079.8" y="263.4971">manages</text></g><!--link OrderRepository to Order--><g class="link" data-entity-1="OrderRepository" data-entity-2="Order" data-source-line="115" data-uid="lnk27" id="link_OrderRepository_Order"><path codeLine="115" d="M496.18,430.9573 C494.18,460.5573 492.0443,492.2109 489.7143,526.7109" fill="none" id="OrderRepository-to-Order" style="stroke:#000000;stroke-width:1;stroke-dasharray:7,7;"/><polygon fill="#000000" points="489.31,532.6973,493.9074,523.9873,489.6469,527.7087,485.9255,523.4482,489.31,532.6973" style="stroke:#000000;stroke-width:1;"/><text fill="#000000" font-family="Verdana" font-size="13" lengthAdjust="spacing" textLength="59.103" x="493.32" y="500.1871">manages</text></g><!--SRC=[fLPRJzim57xFh_2w1yAWY4cRfaMeKsz8bOP0TDkxSKnhIEpCTYfLQFzznxVScdIWyK9ZV-VsdUFFVgUtDAUeo33ZaMOwesWXSlX0DoAb6HgZkP0KpKh5E5KAlZYXXLPHf9uPBx34EI8PXfsN2C7V39FdZHGbJ-SY4_BgQid1wtuoGU-lhvUVPv_wKRzmLjBRXoTAT83Ev_rGbzwQoXqZr84NqzdNVl0zBOHYMaYVmUBBvUKnjyiTvI63sNpXe4AcL5eOccLW5_s9eXDaKqOkPnKv3fRW8qFTSXmpOxGpgmbQQydungwTcJMMOatZqmG2YOnYRjmxTpU2q_sWEvn3-XhCs6P12SjnvZT8AINbP9-WkV_bW-4qZGKqN2REzQd_xxTL-Q0b9heVKsKrBvKMEPMhz4sLRYYdqbTQkwZTtXgM_yEdjtVDiLF7gEgaZ1hp6Fooj9MFM-GuRySQ8sfwcxWM-oMbiIvLRRwstputiiLyGoqyRjf2gajc20uZ9wMGvsvlRctIIUWNqMpdo-kp2N6d7WU6RJg7wWrSXNa9rVSmmJJDeSJlJEahPmOBamu1TgDLFOoQ0SQ556b9O4hlt8zpzBl4DgK4hRWUACoOJjEqPaBINEoezMWICfcwvXnnS6zjAXSmtJdJGrIw2Yn4rpO4PwJCWDaVGkCiFZmBlgeXdltsiR4g9CXOynmQLWLvjlJuDCh2ICITGSPD_40j5lZJsjIZb3v1PzV6S_oQ3bZar1hviJe95uENNbLHm0YKurVHeK2_TCbSC4MCTCLMMFtqd5TZM0zXHvzmKMHxe3GNcWckMkP10EhMhBZHSb3-LsIsfL3i3WuWVc0PC1FtJ_q0LrwtwrbL484whj_awDvQObFTAf1Uts2cMrG-OaCz2pyhhXguphKNgdnaF9tjLsdSLhn_QCktwlpW7OrxUtJCVD8A_cerR4G75kfgBOLlBDMBtR63towoCrU3LktQQaRZVa4TS5MFngHzpknRH3NblD8dr7slXCA5gxMjy6V75FuCQQDjxPCcY7r3f5DjD09K7gJeuFwlRft1R8w67OXX9ZwpHq1jMQ6YwkeUVHoXyHYDFepytPQOLwiv3EwpksyE6c28u1fI2wZnUEAVLOahl0vWjjm3Ba5RhDeRZKTF0j8ETR971gK_x1kEmnEc7t5nCUcsCO5N1TEDK0Ppo6-0TQIsScZA3EAgqAEGVSWgXkL4GOQo3jmuKXriZZdU198xi10yOFu2]--></g></svg>