<svg xmlns="http://www.w3.org/2000/svg" xmlns:xlink="http://www.w3.org/1999/xlink" contentStyleType="text/css" data-diagram-type="CLASS" height="848px" preserveAspectRatio="none" style="width:1460px;height:848px;background:#FFFFFF;" version="1.1" viewBox="0 0 1460 848" width="1460px" zoomAndPan="magnify"><title>Error Handling Flow - Either Pattern</title><defs/><g><g class="title" data-source-line="2"><text fill="#000000" font-family="Verdana" font-size="22" font-weight="bold" lengthAdjust="spacing" textLength="445.7148" x="503.0175" y="37.1182">Error Handling Flow - Either Pattern</text></g><!--cluster Error Flow Example--><g class="cluster" data-entity="Error Flow Example" data-source-line="76" data-uid="ent0020" id="cluster_Error Flow Example"><path d="M1072.65,58.7373 L1227.4518,58.7373 A3.75,3.75 0 0 1 1229.9518,61.2373 L1236.9518,81.752 L1421.65,81.752 A2.5,2.5 0 0 1 1424.15,84.252 L1424.15,494.5773 A2.5,2.5 0 0 1 1421.65,497.0773 L1072.65,497.0773 A2.5,2.5 0 0 1 1070.15,494.5773 L1070.15,61.2373 A2.5,2.5 0 0 1 1072.65,58.7373" fill="#FFFFFF" style="stroke:#000000;stroke-width:1;"/><line style="stroke:#000000;stroke-width:1;" x1="1070.15" x2="1236.9518" y1="81.752" y2="81.752"/><text fill="#000000" font-family="Verdana" font-size="14" font-weight="bold" lengthAdjust="spacing" textLength="153.8018" x="1074.15" y="74.8125">Error Flow Example</text></g><!--class Repository--><g class="entity" data-entity="Repository" data-source-line="77" data-uid="ent0021" id="entity_Repository"><rect fill="#E5B4FF" height="74.6133" rx="2.5" ry="2.5" style="stroke:#000000;stroke-width:1;" width="299.3076" x="1086.5" y="94.7373"/><ellipse cx="1184.8042" cy="115.5366" fill="#FFFFFF" rx="9" ry="9" style="stroke:#000000;stroke-width:1;"/><path d="M1187.2773,121.6797 Q1186.6963,121.9785 1186.0571,122.1279 Q1185.418,122.2773 1184.7124,122.2773 Q1182.2056,122.2773 1180.8857,120.6255 Q1179.5659,118.9736 1179.5659,115.8525 Q1179.5659,112.7231 1180.8857,111.0713 Q1182.2056,109.4194 1184.7124,109.4194 Q1185.418,109.4194 1186.0654,109.5688 Q1186.7129,109.7183 1187.2773,110.0171 L1187.2773,112.7397 Q1186.6465,112.1587 1186.053,111.8889 Q1185.4595,111.6191 1184.8286,111.6191 Q1183.4839,111.6191 1182.7991,112.6858 Q1182.1143,113.7524 1182.1143,115.8525 Q1182.1143,117.9443 1182.7991,119.011 Q1183.4839,120.0776 1184.8286,120.0776 Q1185.4595,120.0776 1186.053,119.8079 Q1186.6465,119.5381 1187.2773,118.957 Z " fill="#000000"/><text fill="#000000" font-family="Verdana" font-size="12" font-style="italic" lengthAdjust="spacing" textLength="99.1992" x="1200.3042" y="111.8018">&#171;Infrastructure&#187;</text><text fill="#000000" font-family="Verdana" font-size="14" lengthAdjust="spacing" textLength="74.7031" x="1212.5522" y="128.3965">Repository</text><line style="stroke:#000000;stroke-width:1;" x1="1087.5" x2="1384.8076" y1="136.3359" y2="136.3359"/><line style="stroke:#000000;stroke-width:1;" x1="1087.5" x2="1384.8076" y1="144.3359" y2="144.3359"/><text fill="#000000" font-family="Verdana" font-size="14" lengthAdjust="spacing" textLength="287.3076" x="1092.5" y="162.4111">findById(): Either&lt;DomainError, Entity&gt;</text></g><!--class UseCase--><g class="entity" data-entity="UseCase" data-source-line="81" data-uid="ent0022" id="entity_UseCase"><rect fill="#B4E5FF" height="74.6133" rx="2.5" ry="2.5" style="stroke:#000000;stroke-width:1;" width="321.2578" x="1086.52" y="246.3473"/><ellipse cx="1204.6206" cy="267.1466" fill="#FFFFFF" rx="9" ry="9" style="stroke:#000000;stroke-width:1;"/><path d="M1207.0937,273.2897 Q1206.5127,273.5885 1205.8735,273.7379 Q1205.2344,273.8873 1204.5288,273.8873 Q1202.022,273.8873 1200.7021,272.2355 Q1199.3823,270.5836 1199.3823,267.4625 Q1199.3823,264.3331 1200.7021,262.6813 Q1202.022,261.0294 1204.5288,261.0294 Q1205.2344,261.0294 1205.8818,261.1788 Q1206.5293,261.3283 1207.0937,261.6271 L1207.0937,264.3497 Q1206.4629,263.7687 1205.8694,263.4989 Q1205.2759,263.2291 1204.645,263.2291 Q1203.3003,263.2291 1202.6155,264.2958 Q1201.9306,265.3624 1201.9306,267.4625 Q1201.9306,269.5543 1202.6155,270.621 Q1203.3003,271.6876 1204.645,271.6876 Q1205.2759,271.6876 1205.8694,271.4179 Q1206.4629,271.1481 1207.0937,270.567 Z " fill="#000000"/><text fill="#000000" font-family="Verdana" font-size="12" font-style="italic" lengthAdjust="spacing" textLength="81.5566" x="1220.1206" y="263.4118">&#171;Application&#187;</text><text fill="#000000" font-family="Verdana" font-size="14" lengthAdjust="spacing" textLength="59.6982" x="1231.0498" y="280.0065">UseCase</text><line style="stroke:#000000;stroke-width:1;" x1="1087.52" x2="1406.7778" y1="287.9459" y2="287.9459"/><line style="stroke:#000000;stroke-width:1;" x1="1087.52" x2="1406.7778" y1="295.9459" y2="295.9459"/><text fill="#000000" font-family="Verdana" font-size="14" lengthAdjust="spacing" textLength="309.2578" x="1092.52" y="314.0211">execute(): Either&lt;ApplicationError, Result&gt;</text></g><!--class Controller--><g class="entity" data-entity="Controller" data-source-line="85" data-uid="ent0023" id="entity_Controller"><rect fill="#B4FFE5" height="74.6133" rx="2.5" ry="2.5" style="stroke:#000000;stroke-width:1;" width="279.3262" x="1086.49" y="406.4673"/><ellipse cx="1179.0017" cy="427.2666" fill="#FFFFFF" rx="9" ry="9" style="stroke:#000000;stroke-width:1;"/><path d="M1181.4749,433.4097 Q1180.8938,433.7085 1180.2546,433.8579 Q1179.6155,434.0073 1178.9099,434.0073 Q1176.4031,434.0073 1175.0833,432.3555 Q1173.7634,430.7036 1173.7634,427.5825 Q1173.7634,424.4531 1175.0833,422.8013 Q1176.4031,421.1494 1178.9099,421.1494 Q1179.6155,421.1494 1180.2629,421.2988 Q1180.9104,421.4483 1181.4749,421.7471 L1181.4749,424.4697 Q1180.844,423.8887 1180.2505,423.6189 Q1179.657,423.3491 1179.0261,423.3491 Q1177.6814,423.3491 1176.9966,424.4158 Q1176.3118,425.4824 1176.3118,427.5825 Q1176.3118,429.6743 1176.9966,430.741 Q1177.6814,431.8076 1179.0261,431.8076 Q1179.657,431.8076 1180.2505,431.5379 Q1180.844,431.2681 1181.4749,430.687 Z " fill="#000000"/><text fill="#000000" font-family="Verdana" font-size="12" font-style="italic" lengthAdjust="spacing" textLength="90.8027" x="1194.5017" y="423.5318">&#171;Presentation&#187;</text><text fill="#000000" font-family="Verdana" font-size="14" lengthAdjust="spacing" textLength="69.1182" x="1205.344" y="440.1265">Controller</text><line style="stroke:#000000;stroke-width:1;" x1="1087.49" x2="1364.8162" y1="448.0659" y2="448.0659"/><line style="stroke:#000000;stroke-width:1;" x1="1087.49" x2="1364.8162" y1="456.0659" y2="456.0659"/><text fill="#000000" font-family="Verdana" font-size="14" lengthAdjust="spacing" textLength="267.3262" x="1092.49" y="474.1411">handleRequest(): ResponseEntity&lt;T&gt;</text></g><!--class DomainError--><g class="entity" data-entity="DomainError" data-source-line="12" data-uid="ent0002" id="entity_DomainError"><rect fill="#FFE5B4" height="57.5986" rx="2.5" ry="2.5" style="stroke:#000000;stroke-width:1;" width="117.2227" x="650.54" y="254.8573"/><ellipse cx="663.54" cy="275.6566" fill="#FFFFFF" rx="9" ry="9" style="stroke:#000000;stroke-width:1;"/><path d="M663.4033,271.0048 L662.2495,276.0765 L664.5654,276.0765 Z M661.9091,268.7636 L664.9057,268.7636 L668.2509,281.1566 L665.8022,281.1566 L665.0385,278.0936 L661.7597,278.0936 L661.0127,281.1566 L658.5639,281.1566 Z " fill="#000000"/><text fill="#000000" font-family="Verdana" font-size="12" font-style="italic" lengthAdjust="spacing" textLength="61.7109" x="689.2959" y="271.9218">&#171;Domain&#187;</text><text fill="#000000" font-family="Verdana" font-size="14" font-style="italic" lengthAdjust="spacing" textLength="89.2227" x="675.54" y="288.5165">DomainError</text><line style="stroke:#000000;stroke-width:1;" x1="651.54" x2="766.7627" y1="296.4559" y2="296.4559"/><line style="stroke:#000000;stroke-width:1;" x1="651.54" x2="766.7627" y1="304.4559" y2="304.4559"/></g><!--class ValidationError--><g class="entity" data-entity="ValidationError" data-source-line="16" data-uid="ent0003" id="entity_ValidationError"><rect fill="#FFE5B4" height="91.6279" rx="2.5" ry="2.5" style="stroke:#000000;stroke-width:1;" width="139.7803" x="542.26" y="397.9573"/><ellipse cx="558.4096" cy="418.7566" fill="#FFFFFF" rx="9" ry="9" style="stroke:#000000;stroke-width:1;"/><path d="M560.8827,424.8997 Q560.3017,425.1985 559.6625,425.3479 Q559.0233,425.4973 558.3178,425.4973 Q555.8109,425.4973 554.4911,423.8455 Q553.1713,422.1936 553.1713,419.0725 Q553.1713,415.9431 554.4911,414.2913 Q555.8109,412.6394 558.3178,412.6394 Q559.0233,412.6394 559.6708,412.7888 Q560.3183,412.9383 560.8827,413.2371 L560.8827,415.9597 Q560.2518,415.3787 559.6583,415.1089 Q559.0648,414.8391 558.434,414.8391 Q557.0892,414.8391 556.4044,415.9058 Q555.7196,416.9724 555.7196,419.0725 Q555.7196,421.1643 556.4044,422.231 Q557.0892,423.2976 558.434,423.2976 Q559.0648,423.2976 559.6583,423.0279 Q560.2518,422.7581 560.8827,422.177 Z " fill="#000000"/><text fill="#000000" font-family="Verdana" font-size="12" font-style="italic" lengthAdjust="spacing" textLength="61.7109" x="592.6446" y="415.0218">&#171;Domain&#187;</text><text fill="#000000" font-family="Verdana" font-size="14" lengthAdjust="spacing" textLength="104.7813" x="571.1095" y="431.6165">ValidationError</text><line style="stroke:#000000;stroke-width:1;" x1="543.26" x2="681.0403" y1="439.5559" y2="439.5559"/><ellipse cx="553.26" cy="453.5633" fill="none" rx="3" ry="3" style="stroke:#000000;stroke-width:1;"/><text fill="#000000" font-family="Verdana" font-size="14" lengthAdjust="spacing" textLength="83.4326" x="560.26" y="457.6311">field: String</text><ellipse cx="553.26" cy="470.5779" fill="none" rx="3" ry="3" style="stroke:#000000;stroke-width:1;"/><text fill="#000000" font-family="Verdana" font-size="14" lengthAdjust="spacing" textLength="115.7803" x="560.26" y="474.6458">message: String</text><line style="stroke:#000000;stroke-width:1;" x1="543.26" x2="681.0403" y1="481.5852" y2="481.5852"/></g><!--class BusinessRuleViolation--><g class="entity" data-entity="BusinessRuleViolation" data-source-line="21" data-uid="ent0004" id="entity_BusinessRuleViolation"><rect fill="#FFE5B4" height="91.6279" rx="2.5" ry="2.5" style="stroke:#000000;stroke-width:1;" width="181.0293" x="716.64" y="397.9573"/><ellipse cx="729.64" cy="418.7566" fill="#FFFFFF" rx="9" ry="9" style="stroke:#000000;stroke-width:1;"/><path d="M732.1131,424.8997 Q731.5321,425.1985 730.8929,425.3479 Q730.2538,425.4973 729.5482,425.4973 Q727.0414,425.4973 725.7215,423.8455 Q724.4017,422.1936 724.4017,419.0725 Q724.4017,415.9431 725.7215,414.2913 Q727.0414,412.6394 729.5482,412.6394 Q730.2538,412.6394 730.9012,412.7888 Q731.5487,412.9383 732.1131,413.2371 L732.1131,415.9597 Q731.4823,415.3787 730.8888,415.1089 Q730.2953,414.8391 729.6644,414.8391 Q728.3197,414.8391 727.6349,415.9058 Q726.9501,416.9724 726.9501,419.0725 Q726.9501,421.1643 727.6349,422.231 Q728.3197,423.2976 729.6644,423.2976 Q730.2953,423.2976 730.8888,423.0279 Q731.4823,422.7581 732.1131,422.177 Z " fill="#000000"/><text fill="#000000" font-family="Verdana" font-size="12" font-style="italic" lengthAdjust="spacing" textLength="61.7109" x="787.2992" y="415.0218">&#171;Domain&#187;</text><text fill="#000000" font-family="Verdana" font-size="14" lengthAdjust="spacing" textLength="153.0293" x="741.64" y="431.6165">BusinessRuleViolation</text><line style="stroke:#000000;stroke-width:1;" x1="717.64" x2="896.6693" y1="439.5559" y2="439.5559"/><ellipse cx="727.64" cy="453.5633" fill="none" rx="3" ry="3" style="stroke:#000000;stroke-width:1;"/><text fill="#000000" font-family="Verdana" font-size="14" lengthAdjust="spacing" textLength="80.7803" x="734.64" y="457.6311">rule: String</text><ellipse cx="727.64" cy="470.5779" fill="none" rx="3" ry="3" style="stroke:#000000;stroke-width:1;"/><text fill="#000000" font-family="Verdana" font-size="14" lengthAdjust="spacing" textLength="101.1377" x="734.64" y="474.6458">reason: String</text><line style="stroke:#000000;stroke-width:1;" x1="717.64" x2="896.6693" y1="481.5852" y2="481.5852"/></g><!--class NotFound--><g class="entity" data-entity="NotFound" data-source-line="26" data-uid="ent0005" id="entity_NotFound"><rect fill="#FFE5B4" height="91.6279" rx="2.5" ry="2.5" style="stroke:#000000;stroke-width:1;" width="118.124" x="933.09" y="397.9573"/><ellipse cx="956.284" cy="418.7566" fill="#FFFFFF" rx="9" ry="9" style="stroke:#000000;stroke-width:1;"/><path d="M958.7571,424.8997 Q958.1761,425.1985 957.5369,425.3479 Q956.8978,425.4973 956.1922,425.4973 Q953.6854,425.4973 952.3655,423.8455 Q951.0457,422.1936 951.0457,419.0725 Q951.0457,415.9431 952.3655,414.2913 Q953.6854,412.6394 956.1922,412.6394 Q956.8978,412.6394 957.5452,412.7888 Q958.1927,412.9383 958.7571,413.2371 L958.7571,415.9597 Q958.1263,415.3787 957.5328,415.1089 Q956.9393,414.8391 956.3084,414.8391 Q954.9637,414.8391 954.2789,415.9058 Q953.5941,416.9724 953.5941,419.0725 Q953.5941,421.1643 954.2789,422.231 Q954.9637,423.2976 956.3084,423.2976 Q956.9393,423.2976 957.5328,423.0279 Q958.1263,422.7581 958.7571,422.177 Z " fill="#000000"/><text fill="#000000" font-family="Verdana" font-size="12" font-style="italic" lengthAdjust="spacing" textLength="61.7109" x="973.4292" y="415.0218">&#171;Domain&#187;</text><text fill="#000000" font-family="Verdana" font-size="14" lengthAdjust="spacing" textLength="67.4707" x="970.5493" y="431.6165">NotFound</text><line style="stroke:#000000;stroke-width:1;" x1="934.09" x2="1050.214" y1="439.5559" y2="439.5559"/><ellipse cx="944.09" cy="453.5633" fill="none" rx="3" ry="3" style="stroke:#000000;stroke-width:1;"/><text fill="#000000" font-family="Verdana" font-size="14" lengthAdjust="spacing" textLength="94.124" x="951.09" y="457.6311">entity: String</text><ellipse cx="944.09" cy="470.5779" fill="none" rx="3" ry="3" style="stroke:#000000;stroke-width:1;"/><text fill="#000000" font-family="Verdana" font-size="14" lengthAdjust="spacing" textLength="66.3291" x="951.09" y="474.6458">id: String</text><line style="stroke:#000000;stroke-width:1;" x1="934.09" x2="1050.214" y1="481.5852" y2="481.5852"/></g><!--class ApplicationError--><g class="entity" data-entity="ApplicationError" data-source-line="31" data-uid="ent0006" id="entity_ApplicationError"><rect fill="#B4E5FF" height="57.5986" rx="2.5" ry="2.5" style="stroke:#000000;stroke-width:1;" width="140.376" x="366.96" y="414.9773"/><ellipse cx="379.96" cy="435.7766" fill="#FFFFFF" rx="9" ry="9" style="stroke:#000000;stroke-width:1;"/><path d="M379.8233,431.1248 L378.6695,436.1965 L380.9854,436.1965 Z M378.3291,428.8836 L381.3257,428.8836 L384.6709,441.2766 L382.2222,441.2766 L381.4585,438.2136 L378.1797,438.2136 L377.4327,441.2766 L374.9839,441.2766 Z " fill="#000000"/><text fill="#000000" font-family="Verdana" font-size="12" font-style="italic" lengthAdjust="spacing" textLength="81.5566" x="407.3697" y="432.0418">&#171;Application&#187;</text><text fill="#000000" font-family="Verdana" font-size="14" font-style="italic" lengthAdjust="spacing" textLength="112.376" x="391.96" y="448.6365">ApplicationError</text><line style="stroke:#000000;stroke-width:1;" x1="367.96" x2="506.336" y1="456.5759" y2="456.5759"/><line style="stroke:#000000;stroke-width:1;" x1="367.96" x2="506.336" y1="464.5759" y2="464.5759"/></g><!--class UseCaseError--><g class="entity" data-entity="UseCaseError" data-source-line="35" data-uid="ent0007" id="entity_UseCaseError"><rect fill="#B4E5FF" height="91.6279" rx="2.5" ry="2.5" style="stroke:#000000;stroke-width:1;" width="164.7588" x="259.77" y="575.0973"/><ellipse cx="291.5742" cy="595.8966" fill="#FFFFFF" rx="9" ry="9" style="stroke:#000000;stroke-width:1;"/><path d="M294.0473,602.0397 Q293.4663,602.3385 292.8271,602.4879 Q292.188,602.6373 291.4824,602.6373 Q288.9756,602.6373 287.6557,600.9855 Q286.3359,599.3336 286.3359,596.2125 Q286.3359,593.0831 287.6557,591.4313 Q288.9756,589.7794 291.4824,589.7794 Q292.188,589.7794 292.8354,589.9288 Q293.4829,590.0783 294.0473,590.3771 L294.0473,593.0997 Q293.4165,592.5187 292.823,592.2489 Q292.2295,591.9791 291.5986,591.9791 Q290.2539,591.9791 289.5691,593.0458 Q288.8843,594.1124 288.8843,596.2125 Q288.8843,598.3043 289.5691,599.371 Q290.2539,600.4376 291.5986,600.4376 Q292.2295,600.4376 292.823,600.1679 Q293.4165,599.8981 294.0473,599.317 Z " fill="#000000"/><text fill="#000000" font-family="Verdana" font-size="12" font-style="italic" lengthAdjust="spacing" textLength="81.5566" x="314.4604" y="592.1618">&#171;Application&#187;</text><text fill="#000000" font-family="Verdana" font-size="14" lengthAdjust="spacing" textLength="94.9717" x="307.7529" y="608.7565">UseCaseError</text><line style="stroke:#000000;stroke-width:1;" x1="260.77" x2="423.5288" y1="616.6959" y2="616.6959"/><ellipse cx="270.77" cy="630.7033" fill="none" rx="3" ry="3" style="stroke:#000000;stroke-width:1;"/><text fill="#000000" font-family="Verdana" font-size="14" lengthAdjust="spacing" textLength="112.0752" x="277.77" y="634.7711">useCase: String</text><ellipse cx="270.77" cy="647.7179" fill="none" rx="3" ry="3" style="stroke:#000000;stroke-width:1;"/><text fill="#000000" font-family="Verdana" font-size="14" lengthAdjust="spacing" textLength="140.7588" x="277.77" y="651.7858">cause: DomainError</text><line style="stroke:#000000;stroke-width:1;" x1="260.77" x2="423.5288" y1="658.7252" y2="658.7252"/></g><!--class RepositoryError--><g class="entity" data-entity="RepositoryError" data-source-line="40" data-uid="ent0008" id="entity_RepositoryError"><rect fill="#B4E5FF" height="91.6279" rx="2.5" ry="2.5" style="stroke:#000000;stroke-width:1;" width="144.4219" x="459.94" y="575.0973"/><ellipse cx="475.8404" cy="595.8966" fill="#FFFFFF" rx="9" ry="9" style="stroke:#000000;stroke-width:1;"/><path d="M478.3135,602.0397 Q477.7325,602.3385 477.0933,602.4879 Q476.4542,602.6373 475.7486,602.6373 Q473.2418,602.6373 471.9219,600.9855 Q470.6021,599.3336 470.6021,596.2125 Q470.6021,593.0831 471.9219,591.4313 Q473.2418,589.7794 475.7486,589.7794 Q476.4542,589.7794 477.1016,589.9288 Q477.7491,590.0783 478.3135,590.3771 L478.3135,593.0997 Q477.6827,592.5187 477.0892,592.2489 Q476.4957,591.9791 475.8648,591.9791 Q474.5201,591.9791 473.8353,593.0458 Q473.1504,594.1124 473.1504,596.2125 Q473.1504,598.3043 473.8353,599.371 Q474.5201,600.4376 475.8648,600.4376 Q476.4957,600.4376 477.0892,600.1679 Q477.6827,599.8981 478.3135,599.317 Z " fill="#000000"/><text fill="#000000" font-family="Verdana" font-size="12" font-style="italic" lengthAdjust="spacing" textLength="81.5566" x="502.6949" y="592.1618">&#171;Application&#187;</text><text fill="#000000" font-family="Verdana" font-size="14" lengthAdjust="spacing" textLength="109.9766" x="488.4849" y="608.7565">RepositoryError</text><line style="stroke:#000000;stroke-width:1;" x1="460.94" x2="603.3619" y1="616.6959" y2="616.6959"/><ellipse cx="470.94" cy="630.7033" fill="none" rx="3" ry="3" style="stroke:#000000;stroke-width:1;"/><text fill="#000000" font-family="Verdana" font-size="14" lengthAdjust="spacing" textLength="120.4219" x="477.94" y="634.7711">operation: String</text><ellipse cx="470.94" cy="647.7179" fill="none" rx="3" ry="3" style="stroke:#000000;stroke-width:1;"/><text fill="#000000" font-family="Verdana" font-size="14" lengthAdjust="spacing" textLength="115.7803" x="477.94" y="651.7858">message: String</text><line style="stroke:#000000;stroke-width:1;" x1="460.94" x2="603.3619" y1="658.7252" y2="658.7252"/></g><!--class ExternalServiceError--><g class="entity" data-entity="ExternalServiceError" data-source-line="45" data-uid="ent0009" id="entity_ExternalServiceError"><rect fill="#B4E5FF" height="91.6279" rx="2.5" ry="2.5" style="stroke:#000000;stroke-width:1;" width="172.9971" x="639.65" y="575.0973"/><ellipse cx="652.65" cy="595.8966" fill="#FFFFFF" rx="9" ry="9" style="stroke:#000000;stroke-width:1;"/><path d="M655.1231,602.0397 Q654.5421,602.3385 653.9029,602.4879 Q653.2638,602.6373 652.5582,602.6373 Q650.0514,602.6373 648.7315,600.9855 Q647.4117,599.3336 647.4117,596.2125 Q647.4117,593.0831 648.7315,591.4313 Q650.0514,589.7794 652.5582,589.7794 Q653.2638,589.7794 653.9112,589.9288 Q654.5587,590.0783 655.1231,590.3771 L655.1231,593.0997 Q654.4923,592.5187 653.8988,592.2489 Q653.3053,591.9791 652.6744,591.9791 Q651.3297,591.9791 650.6449,593.0458 Q649.9601,594.1124 649.9601,596.2125 Q649.9601,598.3043 650.6449,599.371 Q651.3297,600.4376 652.6744,600.4376 Q653.3053,600.4376 653.8988,600.1679 Q654.4923,599.8981 655.1231,599.317 Z " fill="#000000"/><text fill="#000000" font-family="Verdana" font-size="12" font-style="italic" lengthAdjust="spacing" textLength="81.5566" x="696.3702" y="592.1618">&#171;Application&#187;</text><text fill="#000000" font-family="Verdana" font-size="14" lengthAdjust="spacing" textLength="144.9971" x="664.65" y="608.7565">ExternalServiceError</text><line style="stroke:#000000;stroke-width:1;" x1="640.65" x2="811.6471" y1="616.6959" y2="616.6959"/><ellipse cx="650.65" cy="630.7033" fill="none" rx="3" ry="3" style="stroke:#000000;stroke-width:1;"/><text fill="#000000" font-family="Verdana" font-size="14" lengthAdjust="spacing" textLength="103.1338" x="657.65" y="634.7711">service: String</text><ellipse cx="650.65" cy="647.7179" fill="none" rx="3" ry="3" style="stroke:#000000;stroke-width:1;"/><text fill="#000000" font-family="Verdana" font-size="14" lengthAdjust="spacing" textLength="115.7803" x="657.65" y="651.7858">message: String</text><line style="stroke:#000000;stroke-width:1;" x1="640.65" x2="811.6471" y1="658.7252" y2="658.7252"/></g><!--class HttpError--><g class="entity" data-entity="HttpError" data-source-line="50" data-uid="ent0010" id="entity_HttpError"><rect fill="#B4FFE5" height="108.6426" rx="2.5" ry="2.5" style="stroke:#000000;stroke-width:1;" width="212.3027" x="12" y="566.5873"/><ellipse cx="71" cy="587.3866" fill="#FFFFFF" rx="9" ry="9" style="stroke:#000000;stroke-width:1;"/><path d="M73.4731,593.5297 Q72.8921,593.8285 72.2529,593.9779 Q71.6138,594.1273 70.9082,594.1273 Q68.4014,594.1273 67.0815,592.4755 Q65.7617,590.8236 65.7617,587.7025 Q65.7617,584.5731 67.0815,582.9213 Q68.4014,581.2694 70.9082,581.2694 Q71.6138,581.2694 72.2612,581.4188 Q72.9087,581.5683 73.4731,581.8671 L73.4731,584.5897 Q72.8423,584.0087 72.2488,583.7389 Q71.6553,583.4691 71.0244,583.4691 Q69.6797,583.4691 68.9949,584.5358 Q68.3101,585.6024 68.3101,587.7025 Q68.3101,589.7943 68.9949,590.861 Q69.6797,591.9276 71.0244,591.9276 Q71.6553,591.9276 72.2488,591.6579 Q72.8423,591.3881 73.4731,590.807 Z " fill="#000000"/><text fill="#000000" font-family="Verdana" font-size="12" font-style="italic" lengthAdjust="spacing" textLength="90.8027" x="86.5" y="583.6518">&#171;Presentation&#187;</text><text fill="#000000" font-family="Verdana" font-size="14" lengthAdjust="spacing" textLength="65.5498" x="99.1265" y="600.2465">HttpError</text><line style="stroke:#000000;stroke-width:1;" x1="13" x2="223.3027" y1="608.1859" y2="608.1859"/><ellipse cx="23" cy="622.1933" fill="none" rx="3" ry="3" style="stroke:#000000;stroke-width:1;"/><text fill="#000000" font-family="Verdana" font-size="14" lengthAdjust="spacing" textLength="74.4365" x="30" y="626.2611">status: Int</text><ellipse cx="23" cy="639.2079" fill="none" rx="3" ry="3" style="stroke:#000000;stroke-width:1;"/><text fill="#000000" font-family="Verdana" font-size="14" lengthAdjust="spacing" textLength="115.7803" x="30" y="643.2758">message: String</text><ellipse cx="23" cy="656.2226" fill="none" rx="3" ry="3" style="stroke:#000000;stroke-width:1;"/><text fill="#000000" font-family="Verdana" font-size="14" lengthAdjust="spacing" textLength="188.3027" x="30" y="660.2904">details: Map&lt;String, Any&gt;</text><line style="stroke:#000000;stroke-width:1;" x1="13" x2="223.3027" y1="667.2299" y2="667.2299"/></g><g class="entity" data-entity="GMN11" data-source-line="58" data-uid="ent0012" id="entity_GMN11"><path d="M631.79,103.3373 L631.79,160.7353 A0,0 0 0 0 631.79,160.7353 L705.15,160.7353 L709.15,254.3873 L713.15,160.7353 L786.5224,160.7353 A0,0 0 0 0 786.5224,160.7353 L786.5224,113.3373 L776.5224,103.3373 L631.79,103.3373 A0,0 0 0 0 631.79,103.3373" fill="#FFFFFF" style="stroke:#000000;stroke-width:1;"/><path d="M776.5224,103.3373 L776.5224,113.3373 L786.5224,113.3373 L776.5224,103.3373" fill="#FFFFFF" style="stroke:#000000;stroke-width:1;"/><text fill="#000000" font-family="Verdana" font-size="13" font-weight="bold" lengthAdjust="spacing" textLength="100.8262" x="637.79" y="121.4071">Domain Layer</text><text fill="#000000" font-family="Verdana" font-size="13" lengthAdjust="spacing" textLength="133.7324" x="637.79" y="137.2064">Pure business errors</text><text fill="#000000" font-family="Verdana" font-size="13" lengthAdjust="spacing" textLength="127.2451" x="637.79" y="153.0058">No technical details</text></g><g class="entity" data-entity="GMN14" data-source-line="64" data-uid="ent0015" id="entity_GMN14"><path d="M361.62,254.9573 L361.62,312.3553 A0,0 0 0 0 361.62,312.3553 L433.15,312.3553 L437.15,414.6173 L441.15,312.3553 L512.6835,312.3553 A0,0 0 0 0 512.6835,312.3553 L512.6835,264.9573 L502.6835,254.9573 L361.62,254.9573 A0,0 0 0 0 361.62,254.9573" fill="#FFFFFF" style="stroke:#000000;stroke-width:1;"/><path d="M502.6835,254.9573 L502.6835,264.9573 L512.6835,264.9573 L502.6835,254.9573" fill="#FFFFFF" style="stroke:#000000;stroke-width:1;"/><text fill="#000000" font-family="Verdana" font-size="13" font-weight="bold" lengthAdjust="spacing" textLength="127.0103" x="367.62" y="273.0271">Application Layer</text><text fill="#000000" font-family="Verdana" font-size="13" lengthAdjust="spacing" textLength="130.0635" x="367.62" y="288.8264">Maps domain errors</text><text fill="#000000" font-family="Verdana" font-size="13" lengthAdjust="spacing" textLength="85.0015" x="367.62" y="304.6258">Adds context</text></g><g class="entity" data-entity="GMN17" data-source-line="70" data-uid="ent0018" id="entity_GMN17"><path d="M30.94,415.0773 L30.94,472.4753 A0,0 0 0 0 30.94,472.4753 L114.15,472.4753 L118.15,566.4073 L122.15,472.4753 L205.3692,472.4753 A0,0 0 0 0 205.3692,472.4753 L205.3692,425.0773 L195.3692,415.0773 L30.94,415.0773 A0,0 0 0 0 30.94,415.0773" fill="#FFFFFF" style="stroke:#000000;stroke-width:1;"/><path d="M195.3692,415.0773 L195.3692,425.0773 L205.3692,425.0773 L195.3692,415.0773" fill="#FFFFFF" style="stroke:#000000;stroke-width:1;"/><text fill="#000000" font-family="Verdana" font-size="13" font-weight="bold" lengthAdjust="spacing" textLength="138.3535" x="36.94" y="433.1471">Presentation Layer</text><text fill="#000000" font-family="Verdana" font-size="13" lengthAdjust="spacing" textLength="131.022" x="36.94" y="448.9464">HTTP-specific errors</text><text fill="#000000" font-family="Verdana" font-size="13" lengthAdjust="spacing" textLength="153.4292" x="36.94" y="464.7458">User-friendly messages</text></g><!--class Client--><g class="entity" data-entity="Client" data-source-line="106" data-uid="ent0034" id="entity_Client"><rect fill="#FFFFFF" height="44" rx="2.5" ry="2.5" style="stroke:#000000;stroke-width:1;" width="68.1748" x="1192.06" y="598.9073"/><ellipse cx="1205.06" cy="612.9073" fill="#FFFFFF" rx="9" ry="9" style="stroke:#000000;stroke-width:1;"/><path d="M1207.5331,619.0504 Q1206.9521,619.3492 1206.3129,619.4986 Q1205.6738,619.648 1204.9682,619.648 Q1202.4614,619.648 1201.1415,617.9962 Q1199.8217,616.3443 1199.8217,613.2232 Q1199.8217,610.0938 1201.1415,608.442 Q1202.4614,606.7901 1204.9682,606.7901 Q1205.6738,606.7901 1206.3212,606.9395 Q1206.9687,607.0889 1207.5331,607.3878 L1207.5331,610.1104 Q1206.9023,609.5294 1206.3088,609.2596 Q1205.7153,608.9898 1205.0844,608.9898 Q1203.7397,608.9898 1203.0549,610.0565 Q1202.3701,611.1231 1202.3701,613.2232 Q1202.3701,615.315 1203.0549,616.3817 Q1203.7397,617.4483 1205.0844,617.4483 Q1205.7153,617.4483 1206.3088,617.1785 Q1206.9023,616.9088 1207.5331,616.3277 Z " fill="#000000"/><text fill="#000000" font-family="Verdana" font-size="14" lengthAdjust="spacing" textLength="40.1748" x="1217.06" y="618.4752">Client</text><line style="stroke:#000000;stroke-width:1;" x1="1193.06" x2="1259.2348" y1="626.9073" y2="626.9073"/><line style="stroke:#000000;stroke-width:1;" x1="1193.06" x2="1259.2348" y1="634.9073" y2="634.9073"/></g><g class="entity" data-entity="GMN36" data-source-line="109" data-uid="ent0037" id="entity_GMN36"><path d="M1087.57,736.2273 L1087.57,841.0232 A0,0 0 0 0 1087.57,841.0232 L1364.7233,841.0232 A0,0 0 0 0 1364.7233,841.0232 L1364.7233,746.2273 L1354.7233,736.2273 L1230.15,736.2273 L1226.15,643.2373 L1222.15,736.2273 L1087.57,736.2273 A0,0 0 0 0 1087.57,736.2273" fill="#FFFFFF" style="stroke:#000000;stroke-width:1;"/><path d="M1354.7233,736.2273 L1354.7233,746.2273 L1364.7233,746.2273 L1354.7233,736.2273" fill="#FFFFFF" style="stroke:#000000;stroke-width:1;"/><text fill="#000000" font-family="Verdana" font-size="13" font-weight="bold" lengthAdjust="spacing" textLength="188.1318" x="1093.57" y="754.2971">Error Handling Principles:</text><text fill="#000000" font-family="Verdana" font-size="13" lengthAdjust="spacing" textLength="227.9824" x="1093.57" y="770.0964">&#8226; Errors are values, not exceptions</text><text fill="#000000" font-family="Verdana" font-size="13" lengthAdjust="spacing" textLength="246.2129" x="1093.57" y="785.8958">&#8226; Use Either&lt;Error, Success&gt; pattern</text><text fill="#000000" font-family="Verdana" font-size="13" lengthAdjust="spacing" textLength="253.2842" x="1093.57" y="801.6951">&#8226; Transform errors at layer boundaries</text><text fill="#000000" font-family="Verdana" font-size="13" lengthAdjust="spacing" textLength="256.1533" x="1093.57" y="817.4944">&#8226; Never throw exceptions across layers</text><text fill="#000000" font-family="Verdana" font-size="13" lengthAdjust="spacing" textLength="227.2842" x="1093.57" y="833.2937">&#8226; Provide meaningful error context</text></g><!--reverse link DomainError to ValidationError--><g class="link" data-entity-1="DomainError" data-entity-2="ValidationError" data-source-line="91" data-uid="lnk24" id="link_DomainError_ValidationError"><path codeLine="91" d="M682.3981,328.2706 C667.9581,351.8106 656.54,370.4173 639.8,397.7073" fill="none" id="DomainError-backto-ValidationError" style="stroke:#000000;stroke-width:1;"/><polygon fill="none" points="691.81,312.9273,677.2837,325.1333,687.5125,331.4079,691.81,312.9273" style="stroke:#000000;stroke-width:1;"/></g><!--reverse link DomainError to BusinessRuleViolation--><g class="link" data-entity-1="DomainError" data-entity-2="BusinessRuleViolation" data-source-line="92" data-uid="lnk25" id="link_DomainError_BusinessRuleViolation"><path codeLine="92" d="M736.1527,328.227 C750.7427,351.767 762.31,370.4173 779.22,397.7073" fill="none" id="DomainError-backto-BusinessRuleViolation" style="stroke:#000000;stroke-width:1;"/><polygon fill="none" points="726.67,312.9273,731.0528,331.3878,741.2525,325.0661,726.67,312.9273" style="stroke:#000000;stroke-width:1;"/></g><!--reverse link DomainError to NotFound--><g class="link" data-entity-1="DomainError" data-entity-2="NotFound" data-source-line="93" data-uid="lnk26" id="link_DomainError_NotFound"><path codeLine="93" d="M777.223,321.5467 C818.983,344.2567 863.11,368.5073 915.15,397.9573 C920.94,401.2373 926.96,404.6773 932.96,408.1273" fill="none" id="DomainError-backto-NotFound" style="stroke:#000000;stroke-width:1;"/><polygon fill="none" points="761.41,312.9473,774.3565,326.8177,780.0894,316.2758,761.41,312.9473" style="stroke:#000000;stroke-width:1;"/></g><!--reverse link ApplicationError to UseCaseError--><g class="link" data-entity-1="ApplicationError" data-entity-2="UseCaseError" data-source-line="95" data-uid="lnk27" id="link_ApplicationError_UseCaseError"><path codeLine="95" d="M413.3054,488.7383 C398.4054,516.1983 384.09,542.5973 366.64,574.7573" fill="none" id="ApplicationError-backto-UseCaseError" style="stroke:#000000;stroke-width:1;"/><polygon fill="none" points="421.89,472.9173,408.0317,485.8768,418.5791,491.5999,421.89,472.9173" style="stroke:#000000;stroke-width:1;"/></g><!--reverse link ApplicationError to RepositoryError--><g class="link" data-entity-1="ApplicationError" data-entity-2="RepositoryError" data-source-line="96" data-uid="lnk28" id="link_ApplicationError_RepositoryError"><path codeLine="96" d="M460.9946,488.7383 C475.8946,516.1983 490.21,542.5973 507.66,574.7573" fill="none" id="ApplicationError-backto-RepositoryError" style="stroke:#000000;stroke-width:1;"/><polygon fill="none" points="452.41,472.9173,455.7209,491.5999,466.2683,485.8768,452.41,472.9173" style="stroke:#000000;stroke-width:1;"/></g><!--reverse link ApplicationError to ExternalServiceError--><g class="link" data-entity-1="ApplicationError" data-entity-2="ExternalServiceError" data-source-line="97" data-uid="lnk29" id="link_ApplicationError_ExternalServiceError"><path codeLine="97" d="M491.3573,483.0462 C506.3873,493.4562 508.99,494.9473 525.15,505.0773 C563.46,529.0973 606.92,554.1773 643.6,574.7573" fill="none" id="ApplicationError-backto-ExternalServiceError" style="stroke:#000000;stroke-width:1;"/><polygon fill="none" points="476.56,472.7973,487.941,487.9786,494.7736,478.1137,476.56,472.7973" style="stroke:#000000;stroke-width:1;"/></g><!--link DomainError to ApplicationError--><g class="link" data-entity-1="DomainError" data-entity-2="ApplicationError" data-source-line="100" data-uid="lnk30" id="link_DomainError_ApplicationError"><path codeLine="100" d="M660.52,312.9273 C611.17,341.6173 540.3772,382.7719 491.0072,411.4719" fill="none" id="DomainError-to-ApplicationError" style="stroke:#000000;stroke-width:1;stroke-dasharray:7,7;"/><polygon fill="#000000" points="485.82,414.4873,495.6111,413.4223,490.1427,411.9744,491.5905,406.506,485.82,414.4873" style="stroke:#000000;stroke-width:1;"/><text fill="#000000" font-family="Verdana" font-size="13" lengthAdjust="spacing" textLength="52.9077" x="590.44" y="365.0271">maps to</text></g><!--link ApplicationError to HttpError--><g class="link" data-entity-1="ApplicationError" data-entity-2="HttpError" data-source-line="101" data-uid="lnk31" id="link_ApplicationError_HttpError"><path codeLine="101" d="M385.9,472.9173 C340.2,498.0073 277.2997,532.5401 221.1897,563.3401" fill="none" id="ApplicationError-to-HttpError" style="stroke:#000000;stroke-width:1;stroke-dasharray:7,7;"/><polygon fill="#000000" points="215.93,566.2273,225.7443,565.403,220.3131,563.8213,221.8948,558.3901,215.93,566.2273" style="stroke:#000000;stroke-width:1;"/><text fill="#000000" font-family="Verdana" font-size="13" lengthAdjust="spacing" textLength="73.3535" x="297.75" y="533.6571">converts to</text></g><!--link Repository to UseCase--><g class="link" data-entity-1="Repository" data-entity-2="UseCase" data-source-line="104" data-uid="lnk32" id="link_Repository_UseCase"><path codeLine="104" d="M1238.84,169.6373 C1240.55,192.8273 1242.2991,216.7235 1244.0091,239.9335" fill="none" id="Repository-to-UseCase" style="stroke:#000000;stroke-width:1;"/><polygon fill="#000000" points="1244.45,245.9173,1247.7779,236.6477,1244.0826,240.9308,1239.7995,237.2355,1244.45,245.9173" style="stroke:#000000;stroke-width:1;"/><text fill="#000000" font-family="Verdana" font-size="13" lengthAdjust="spacing" textLength="189.8647" x="1242.98" y="213.4171">Either&lt;DomainError, Entity&gt;</text></g><!--link UseCase to Controller--><g class="link" data-entity-1="UseCase" data-entity-2="Controller" data-source-line="105" data-uid="lnk33" id="link_UseCase_Controller"><path codeLine="105" d="M1242.28,321.3273 C1238.9,346.7773 1235.1993,374.6094 1231.8193,400.0794" fill="none" id="UseCase-to-Controller" style="stroke:#000000;stroke-width:1;"/><polygon fill="#000000" points="1231.03,406.0273,1236.1792,397.6317,1231.6878,401.0708,1228.2487,396.5793,1231.03,406.0273" style="stroke:#000000;stroke-width:1;"/><text fill="#000000" font-family="Verdana" font-size="13" lengthAdjust="spacing" textLength="213.8398" x="1238.91" y="365.0271">Either&lt;ApplicationError, Result&gt;</text></g><!--link Controller to Client--><g class="link" data-entity-1="Controller" data-entity-2="Client" data-source-line="106" data-uid="lnk35" id="link_Controller_Client"><path codeLine="106" d="M1226.15,481.4873 C1226.15,516.9973 1226.15,563.5773 1226.15,592.6473" fill="none" id="Controller-to-Client" style="stroke:#000000;stroke-width:1;"/><polygon fill="#000000" points="1226.15,598.6473,1230.15,589.6473,1226.15,593.6473,1222.15,589.6473,1226.15,598.6473" style="stroke:#000000;stroke-width:1;"/><text fill="#000000" font-family="Verdana" font-size="13" lengthAdjust="spacing" textLength="100.4897" x="1227.15" y="533.6571">HTTP Response</text></g><!--SRC=[ZLRBRjiw4DthAwQ-Y_QcSLVjnZ0CnBas4g0DZ2Jjdg56CL6QLCbH6gCDq6_ff_LBEXGbcvAjt6YH1NbuvdNcnAzeZHk4KWjbCbAa4HREMGSNmkHQcNjOQliTnh1GZ7Im4aJeJ9RvhygKmeaDI2syXnyPy3SNykkzivN9pwssRZhzpswOUJQ3VvRBnOVv- -EeixBKIWfIjeREtoy-B9V7ePUcSCAJgoHL3WCwq0wXLmuz6agOGnhPKvQzRkfSAtJ2oVKs4tTCAoGr1SNC8oYf8zRvemK_1Qxuu8lGAgyZ3Jnw2uL2dK_WXXntjZdReFVY7dUdExvvvPNXo-jAunTbTKrzZDKne4VgK7Xh3ZclB2r3UuxHS9yKRNj4Aaz9UYrAnjQMt9taSBC-UpmN7fzxzXQg2Egb94KLpfBvx6cliRHUaNNRvvbjoLCFPoyTnk8no5xe6tGFIlvFtZw2NifzGLIsX3t1xXZvfF8Jk3Gqm1PFSoIXD0C_YN8QRqxXp6ndgUHv5iONrctgA3upbX38bc2BJbS3vSb9F86FOelkvAG-NF7cmLqZJy00zlN5bGL2kJRS4jtcaY7BBOJ8Ee7wsccY9SUTa5oFXpocaWGyotCFqXh2Hne8jEjk4o7jS2V4nUtjQknBbAfGCWt2MdNZmYdcrzksyMbThrjtB89NugFOb1gpais8WJ2ANQzzT17lHirWu_n7UzMEu8Z3HMpu2cNo-VOoV_Flf0avJGPs2ejwXMSr_gd-cuPfTcuqeDlmuIFAYZ3Xxy_fb7VCLvg6WfppC9pL6jreICxXMuT_BtYDtohq5C8nQybYn5Z2zBRbhtLxQJWLHS98p3g-_7Cyxllk8U2eaHx2Mc_CiaDV2_UfPGr0UlOpW3hc9Q7AsyvUrcBgPFdktUpGSYSmseJT83iw31TUxDs5eRmg3-WemZbaBKfXMCQD5tIqE1xF4jKyBxazhdwLok05MkhW0y6vvdKZVXgsSYUEPhFlB97TDFlS-xcoOi-JYdVCJvgz_lFhTpG-3u9zwq5erjnfM5sMkyGo5juYkOmstIR7cqfALiyCokQtJmlTpQin2n04EXWA9yWw4kmOUzuhvCO3hLtj46rO4D9PNflwsHwySlP1vSXU8mmNLLGwXZYqkhy0]--></g></svg>