<svg xmlns="http://www.w3.org/2000/svg" xmlns:xlink="http://www.w3.org/1999/xlink" contentStyleType="text/css" data-diagram-type="SEQUENCE" height="2090px" preserveAspectRatio="none" style="width:1275px;height:2090px;background:#FFFFFF;" version="1.1" viewBox="0 0 1275 2090" width="1275px" zoomAndPan="magnify"><title>Error Handling Flow - Sequence Diagram</title><defs/><g><text fill="#000000" font-family="Verdana" font-size="22" font-weight="bold" lengthAdjust="spacing" textLength="503.7441" x="384.2092" y="37.1182">Error Handling Flow - Sequence Diagram</text><g><title>CLI</title><rect fill="#FFFFFF" height="398.5884" style="stroke:#000000;stroke-width:1;" width="10" x="263.4414" y="222.1499"/></g><g><title>CLI</title><rect fill="#FFFFFF" height="400.1904" style="stroke:#000000;stroke-width:1;" width="10" x="263.4414" y="694.3369"/></g><g><title>CLI</title><rect fill="#FFFFFF" height="434.5884" style="stroke:#000000;stroke-width:1;" width="10" x="263.4414" y="1168.126"/></g><g><title>CLI</title><rect fill="#FFFFFF" height="139.9966" style="stroke:#000000;stroke-width:1;" width="10" x="263.4414" y="1676.313"/></g><g><title>CreateGreeting</title><rect fill="#FFFFFF" height="255.7925" style="stroke:#000000;stroke-width:1;" width="10" x="441.6348" y="251.9492"/></g><g><title>CreateGreeting</title><rect fill="#FFFFFF" height="308.9932" style="stroke:#000000;stroke-width:1;" width="10" x="441.6348" y="724.1362"/></g><g><title>CreateGreeting</title><rect fill="#FFFFFF" height="359.1904" style="stroke:#000000;stroke-width:1;" width="10" x="441.6348" y="1197.9253"/></g><g><title>PersonName</title><rect fill="#FFFFFF" height="112.9966" style="stroke:#000000;stroke-width:1;" width="10" x="666.4707" y="281.7485"/></g><g><title>PersonName</title><rect fill="#FFFFFF" height="29.7993" style="stroke:#000000;stroke-width:1;" width="10" x="666.4707" y="753.9355"/></g><g><title>PersonName</title><rect fill="#FFFFFF" height="29.7993" style="stroke:#000000;stroke-width:1;" width="10" x="666.4707" y="1227.7246"/></g><g><title>DefaultGreeting</title><rect fill="#FFFFFF" height="131.1973" style="stroke:#000000;stroke-width:1;" width="10" x="810.1558" y="813.5342"/></g><g><title>DefaultGreeting</title><rect fill="#FFFFFF" height="29.7993" style="stroke:#000000;stroke-width:1;" width="10" x="810.1558" y="1287.3232"/></g><g><title>ConsoleOutput</title><rect fill="#FFFFFF" height="164.5952" style="stroke:#000000;stroke-width:1;" width="10" x="973.8003" y="1346.9219"/></g><g><title>User</title><rect fill="#000000" fill-opacity="0.00000" height="1877.9521" width="8" x="24.9277" y="130.752"/><line style="stroke:#000000;stroke-width:1;" x1="28" x2="28" y1="130.752" y2="2008.7041"/></g><g><title>CLI</title><rect fill="#000000" fill-opacity="0.00000" height="1877.9521" width="8" x="264.4414" y="130.752"/><line style="stroke:#000000;stroke-width:1;" x1="267.7109" x2="267.7109" y1="130.752" y2="2008.7041"/></g><g><title>CreateGreeting</title><rect fill="#000000" fill-opacity="0.00000" height="1877.9521" width="8" x="442.6348" y="130.752"/><line style="stroke:#000000;stroke-width:1;" x1="446.2324" x2="446.2324" y1="130.752" y2="2008.7041"/></g><g><title>PersonName</title><rect fill="#000000" fill-opacity="0.00000" height="1877.9521" width="8" x="667.4707" y="130.752"/><line style="stroke:#000000;stroke-width:1;" x1="671.3481" x2="671.3481" y1="130.752" y2="2008.7041"/></g><g><title>DefaultGreeting</title><rect fill="#000000" fill-opacity="0.00000" height="1877.9521" width="8" x="811.1558" y="130.752"/><line style="stroke:#000000;stroke-width:1;" x1="814.5933" x2="814.5933" y1="130.752" y2="2008.7041"/></g><g><title>ConsoleOutput</title><rect fill="#000000" fill-opacity="0.00000" height="1877.9521" width="8" x="974.8003" y="130.752"/><line style="stroke:#000000;stroke-width:1;" x1="978.001" x2="978.001" y1="130.752" y2="2008.7041"/></g><g class="participant participant-head" data-participant="User"><text fill="#000000" font-family="Verdana" font-size="14" lengthAdjust="spacing" textLength="31.8555" x="10" y="127.8125">User</text><ellipse cx="28.9277" cy="61.7373" fill="#FFFFFF" rx="8" ry="8" style="stroke:#000000;stroke-width:1;"/><path d="M28.9277,69.7373 L28.9277,96.7373 M15.9277,77.7373 L41.9277,77.7373 M28.9277,96.7373 L15.9277,111.7373 M28.9277,96.7373 L41.9277,111.7373" fill="none" style="stroke:#000000;stroke-width:1;"/></g><g class="participant participant-tail" data-participant="User"><text fill="#000000" font-family="Verdana" font-size="14" lengthAdjust="spacing" textLength="31.8555" x="10" y="2021.7793">User</text><ellipse cx="28.9277" cy="2033.7188" fill="#FFFFFF" rx="8" ry="8" style="stroke:#000000;stroke-width:1;"/><path d="M28.9277,2041.7188 L28.9277,2068.7188 M15.9277,2049.7188 L41.9277,2049.7188 M28.9277,2068.7188 L15.9277,2083.7188 M28.9277,2068.7188 L41.9277,2083.7188" fill="none" style="stroke:#000000;stroke-width:1;"/></g><g class="participant participant-head" data-participant="CLI"><rect fill="#FFFFFF" height="31.0146" rx="2.5" ry="2.5" style="stroke:#000000;stroke-width:1;" width="37.4609" x="249.7109" y="98.7373"/><text fill="#000000" font-family="Verdana" font-size="14" lengthAdjust="spacing" textLength="23.4609" x="256.7109" y="119.8125">CLI</text></g><g class="participant participant-tail" data-participant="CLI"><rect fill="#FFFFFF" height="31.0146" rx="2.5" ry="2.5" style="stroke:#000000;stroke-width:1;" width="37.4609" x="249.7109" y="2007.7041"/><text fill="#000000" font-family="Verdana" font-size="14" lengthAdjust="spacing" textLength="23.4609" x="256.7109" y="2028.7793">CLI</text></g><g class="participant participant-head" data-participant="UC"><rect fill="#FFFFFF" height="48.0293" rx="2.5" ry="2.5" style="stroke:#000000;stroke-width:1;" width="120.8047" x="386.2324" y="81.7227"/><text fill="#000000" font-family="Verdana" font-size="14" lengthAdjust="spacing" textLength="106.8047" x="393.2324" y="102.7979">CreateGreeting</text><text fill="#000000" font-family="Verdana" font-size="14" lengthAdjust="spacing" textLength="59.6982" x="416.7856" y="119.8125">UseCase</text></g><g class="participant participant-tail" data-participant="UC"><rect fill="#FFFFFF" height="48.0293" rx="2.5" ry="2.5" style="stroke:#000000;stroke-width:1;" width="120.8047" x="386.2324" y="2007.7041"/><text fill="#000000" font-family="Verdana" font-size="14" lengthAdjust="spacing" textLength="106.8047" x="393.2324" y="2028.7793">CreateGreeting</text><text fill="#000000" font-family="Verdana" font-size="14" lengthAdjust="spacing" textLength="59.6982" x="416.7856" y="2045.7939">UseCase</text></g><g class="participant participant-head" data-participant="PN"><rect fill="#FFFFFF" height="31.0146" rx="2.5" ry="2.5" style="stroke:#000000;stroke-width:1;" width="102.2451" x="620.3481" y="98.7373"/><text fill="#000000" font-family="Verdana" font-size="14" lengthAdjust="spacing" textLength="88.2451" x="627.3481" y="119.8125">PersonName</text></g><g class="participant participant-tail" data-participant="PN"><rect fill="#FFFFFF" height="31.0146" rx="2.5" ry="2.5" style="stroke:#000000;stroke-width:1;" width="102.2451" x="620.3481" y="2007.7041"/><text fill="#000000" font-family="Verdana" font-size="14" lengthAdjust="spacing" textLength="88.2451" x="627.3481" y="2028.7793">PersonName</text></g><g class="participant participant-head" data-participant="GS"><rect fill="#FFFFFF" height="48.0293" rx="2.5" ry="2.5" style="stroke:#000000;stroke-width:1;" width="125.125" x="752.5933" y="81.7227"/><text fill="#000000" font-family="Verdana" font-size="14" lengthAdjust="spacing" textLength="111.125" x="759.5933" y="102.7979">DefaultGreeting</text><text fill="#000000" font-family="Verdana" font-size="14" lengthAdjust="spacing" textLength="51.6455" x="789.333" y="119.8125">Service</text></g><g class="participant participant-tail" data-participant="GS"><rect fill="#FFFFFF" height="48.0293" rx="2.5" ry="2.5" style="stroke:#000000;stroke-width:1;" width="125.125" x="752.5933" y="2007.7041"/><text fill="#000000" font-family="Verdana" font-size="14" lengthAdjust="spacing" textLength="111.125" x="759.5933" y="2028.7793">DefaultGreeting</text><text fill="#000000" font-family="Verdana" font-size="14" lengthAdjust="spacing" textLength="51.6455" x="789.333" y="2045.7939">Service</text></g><g class="participant participant-head" data-participant="OUT"><rect fill="#FFFFFF" height="48.0293" rx="2.5" ry="2.5" style="stroke:#000000;stroke-width:1;" width="117.5986" x="920.001" y="81.7227"/><text fill="#000000" font-family="Verdana" font-size="14" lengthAdjust="spacing" textLength="103.5986" x="927.001" y="102.7979">ConsoleOutput</text><text fill="#000000" font-family="Verdana" font-size="14" lengthAdjust="spacing" textLength="55.2549" x="951.1729" y="119.8125">Adapter</text></g><g class="participant participant-tail" data-participant="OUT"><rect fill="#FFFFFF" height="48.0293" rx="2.5" ry="2.5" style="stroke:#000000;stroke-width:1;" width="117.5986" x="920.001" y="2007.7041"/><text fill="#000000" font-family="Verdana" font-size="14" lengthAdjust="spacing" textLength="103.5986" x="927.001" y="2028.7793">ConsoleOutput</text><text fill="#000000" font-family="Verdana" font-size="14" lengthAdjust="spacing" textLength="55.2549" x="951.1729" y="2045.7939">Adapter</text></g><g><title>CLI</title><rect fill="#FFFFFF" height="398.5884" style="stroke:#000000;stroke-width:1;" width="10" x="263.4414" y="222.1499"/></g><g><title>CLI</title><rect fill="#FFFFFF" height="400.1904" style="stroke:#000000;stroke-width:1;" width="10" x="263.4414" y="694.3369"/></g><g><title>CLI</title><rect fill="#FFFFFF" height="434.5884" style="stroke:#000000;stroke-width:1;" width="10" x="263.4414" y="1168.126"/></g><g><title>CLI</title><rect fill="#FFFFFF" height="139.9966" style="stroke:#000000;stroke-width:1;" width="10" x="263.4414" y="1676.313"/></g><g><title>CreateGreeting</title><rect fill="#FFFFFF" height="255.7925" style="stroke:#000000;stroke-width:1;" width="10" x="441.6348" y="251.9492"/></g><g><title>CreateGreeting</title><rect fill="#FFFFFF" height="308.9932" style="stroke:#000000;stroke-width:1;" width="10" x="441.6348" y="724.1362"/></g><g><title>CreateGreeting</title><rect fill="#FFFFFF" height="359.1904" style="stroke:#000000;stroke-width:1;" width="10" x="441.6348" y="1197.9253"/></g><g><title>PersonName</title><rect fill="#FFFFFF" height="112.9966" style="stroke:#000000;stroke-width:1;" width="10" x="666.4707" y="281.7485"/></g><g><title>PersonName</title><rect fill="#FFFFFF" height="29.7993" style="stroke:#000000;stroke-width:1;" width="10" x="666.4707" y="753.9355"/></g><g><title>PersonName</title><rect fill="#FFFFFF" height="29.7993" style="stroke:#000000;stroke-width:1;" width="10" x="666.4707" y="1227.7246"/></g><g><title>DefaultGreeting</title><rect fill="#FFFFFF" height="131.1973" style="stroke:#000000;stroke-width:1;" width="10" x="810.1558" y="813.5342"/></g><g><title>DefaultGreeting</title><rect fill="#FFFFFF" height="29.7993" style="stroke:#000000;stroke-width:1;" width="10" x="810.1558" y="1287.3232"/></g><g><title>ConsoleOutput</title><rect fill="#FFFFFF" height="164.5952" style="stroke:#000000;stroke-width:1;" width="10" x="973.8003" y="1346.9219"/></g><rect fill="#FFFFFF" height="3" style="stroke:#FFFFFF;stroke-width:1;" width="1263.1626" x="5" y="161.6516"/><line style="stroke:#000000;stroke-width:0.5;" x1="5" x2="1268.1626" y1="161.6516" y2="161.6516"/><line style="stroke:#000000;stroke-width:0.5;" x1="5" x2="1268.1626" y1="164.6516" y2="164.6516"/><rect fill="#FFFFFF" height="23.7993" style="stroke:#000000;stroke-width:1;" width="172.9009" x="550.1309" y="150.752"/><text fill="#000000" font-family="Verdana" font-size="13" font-weight="bold" lengthAdjust="spacing" textLength="154.4575" x="556.1309" y="167.8218">Validation Error Flow</text><g class="message" data-participant-1="User" data-participant-2="CLI"><polygon fill="#000000" points="251.4414,218.1499,261.4414,222.1499,251.4414,226.1499,255.4414,222.1499" style="stroke:#000000;stroke-width:1;"/><line style="stroke:#000000;stroke-width:1;" x1="28.9277" x2="257.4414" y1="222.1499" y2="222.1499"/><text fill="#000000" font-family="Verdana" font-size="13" lengthAdjust="spacing" textLength="85.4268" x="35.9277" y="201.6211">Invalid name</text><text fill="#000000" font-family="Verdana" font-size="13" lengthAdjust="spacing" textLength="65.4824" x="35.9277" y="217.4204">"123!@#"</text></g><g class="message" data-participant-1="CLI" data-participant-2="UC"><polygon fill="#000000" points="429.6348,247.9492,439.6348,251.9492,429.6348,255.9492,433.6348,251.9492" style="stroke:#000000;stroke-width:1;"/><line style="stroke:#000000;stroke-width:1;" x1="273.4414" x2="435.6348" y1="251.9492" y2="251.9492"/><text fill="#000000" font-family="Verdana" font-size="13" lengthAdjust="spacing" textLength="126.9404" x="280.4414" y="247.2197">execute(command)</text></g><g class="message" data-participant-1="UC" data-participant-2="PN"><polygon fill="#000000" points="654.4707,277.7485,664.4707,281.7485,654.4707,285.7485,658.4707,281.7485" style="stroke:#000000;stroke-width:1;"/><line style="stroke:#000000;stroke-width:1;" x1="451.6348" x2="660.4707" y1="281.7485" y2="281.7485"/><text fill="#000000" font-family="Verdana" font-size="13" lengthAdjust="spacing" textLength="118.0283" x="458.6348" y="277.019">create("123!@#")</text></g><g class="message" data-participant-1="PN" data-participant-2="PN"><line style="stroke:#000000;stroke-width:1;" x1="676.4707" x2="718.4707" y1="323.8472" y2="323.8472"/><line style="stroke:#000000;stroke-width:1;" x1="718.4707" x2="718.4707" y1="323.8472" y2="336.8472"/><line style="stroke:#000000;stroke-width:1;" x1="677.4707" x2="718.4707" y1="336.8472" y2="336.8472"/><polygon fill="#000000" points="687.4707,332.8472,677.4707,336.8472,687.4707,340.8472,683.4707,336.8472" style="stroke:#000000;stroke-width:1;"/><text fill="#000000" font-family="Verdana" font-size="13" lengthAdjust="spacing" textLength="52.603" x="683.4707" y="319.1177">Validate</text></g><path d="M757.603,294.7485 L757.603,351.7485 L928.603,351.7485 L928.603,304.7485 L918.603,294.7485 L757.603,294.7485" fill="#FFFFFF" style="stroke:#000000;stroke-width:1;"/><path d="M918.603,294.7485 L918.603,304.7485 L928.603,304.7485 L918.603,294.7485" fill="#FFFFFF" style="stroke:#000000;stroke-width:1;"/><text fill="#000000" font-family="Verdana" font-size="13" lengthAdjust="spacing" textLength="126.5723" x="763.603" y="312.8184">Fails pattern match</text><text fill="#000000" font-family="Verdana" font-size="13" lengthAdjust="spacing" textLength="137.4712" x="763.603" y="328.6177">(only letters, spaces,</text><text fill="#000000" font-family="Verdana" font-size="13" lengthAdjust="spacing" textLength="150.1665" x="763.603" y="344.417">hyphens, apostrophes)</text><g class="message" data-participant-1="PN" data-participant-2="UC"><polygon fill="#000000" points="462.6348,390.7451,452.6348,394.7451,462.6348,398.7451,458.6348,394.7451" style="stroke:#000000;stroke-width:1;"/><line style="stroke:#000000;stroke-width:1;stroke-dasharray:2,2;" x1="456.6348" x2="670.4707" y1="394.7451" y2="394.7451"/><text fill="#000000" font-family="Verdana" font-size="13" lengthAdjust="spacing" textLength="73.7344" x="468.6348" y="374.2163">Either.Left(</text><text fill="#000000" font-family="Verdana" font-size="13" lengthAdjust="spacing" textLength="190.8359" x="468.6348" y="390.0156">DomainError.ValidationError)</text></g><g class="message" data-participant-1="UC" data-participant-2="UC"><line style="stroke:#000000;stroke-width:1;" x1="451.6348" x2="493.6348" y1="436.8438" y2="436.8438"/><line style="stroke:#000000;stroke-width:1;" x1="493.6348" x2="493.6348" y1="436.8438" y2="449.8438"/><line style="stroke:#000000;stroke-width:1;" x1="452.6348" x2="493.6348" y1="449.8438" y2="449.8438"/><polygon fill="#000000" points="462.6348,445.8438,452.6348,449.8438,462.6348,453.8438,458.6348,449.8438" style="stroke:#000000;stroke-width:1;"/><text fill="#000000" font-family="Verdana" font-size="13" lengthAdjust="spacing" textLength="103.8667" x="458.6348" y="432.1143">Transform error</text></g><path d="M583.8667,407.7451 L583.8667,464.7451 L742.8667,464.7451 L742.8667,417.7451 L732.8667,407.7451 L583.8667,407.7451" fill="#FFFFFF" style="stroke:#000000;stroke-width:1;"/><path d="M732.8667,407.7451 L732.8667,417.7451 L742.8667,417.7451 L732.8667,407.7451" fill="#FFFFFF" style="stroke:#000000;stroke-width:1;"/><text fill="#000000" font-family="Verdana" font-size="13" lengthAdjust="spacing" textLength="50.6733" x="589.8667" y="425.8149">Wrap in</text><text fill="#000000" font-family="Verdana" font-size="13" lengthAdjust="spacing" textLength="109.0908" x="589.8667" y="441.6143">ApplicationError.</text><text fill="#000000" font-family="Verdana" font-size="13" lengthAdjust="spacing" textLength="138.6074" x="589.8667" y="457.4136">DomainErrorWrapper</text><g class="message" data-participant-1="UC" data-participant-2="CLI"><polygon fill="#000000" points="284.4414,503.7417,274.4414,507.7417,284.4414,511.7417,280.4414,507.7417" style="stroke:#000000;stroke-width:1;"/><line style="stroke:#000000;stroke-width:1;stroke-dasharray:2,2;" x1="278.4414" x2="445.6348" y1="507.7417" y2="507.7417"/><text fill="#000000" font-family="Verdana" font-size="13" lengthAdjust="spacing" textLength="73.7344" x="290.4414" y="487.2129">Either.Left(</text><text fill="#000000" font-family="Verdana" font-size="13" lengthAdjust="spacing" textLength="110.2651" x="290.4414" y="503.0122">ApplicationError)</text></g><g class="message" data-participant-1="CLI" data-participant-2="CLI"><line style="stroke:#000000;stroke-width:1;" x1="273.4414" x2="315.4414" y1="549.8403" y2="549.8403"/><line style="stroke:#000000;stroke-width:1;" x1="315.4414" x2="315.4414" y1="549.8403" y2="562.8403"/><line style="stroke:#000000;stroke-width:1;" x1="274.4414" x2="315.4414" y1="562.8403" y2="562.8403"/><polygon fill="#000000" points="284.4414,558.8403,274.4414,562.8403,284.4414,566.8403,280.4414,562.8403" style="stroke:#000000;stroke-width:1;"/><text fill="#000000" font-family="Verdana" font-size="13" lengthAdjust="spacing" textLength="83.332" x="280.4414" y="545.1108">Format error</text></g><path d="M385.332,520.7417 L385.332,577.7417 L556.332,577.7417 L556.332,530.7417 L546.332,520.7417 L385.332,520.7417" fill="#FFFFFF" style="stroke:#000000;stroke-width:1;"/><path d="M546.332,520.7417 L546.332,530.7417 L556.332,530.7417 L546.332,520.7417" fill="#FFFFFF" style="stroke:#000000;stroke-width:1;"/><text fill="#000000" font-family="Verdana" font-size="13" lengthAdjust="spacing" textLength="140.9497" x="391.332" y="538.8115">Extract userMessage:</text><text fill="#000000" font-family="Verdana" font-size="13" lengthAdjust="spacing" textLength="150.1094" x="391.332" y="554.6108">"name: Name can only</text><text fill="#000000" font-family="Verdana" font-size="13" lengthAdjust="spacing" textLength="113.9595" x="391.332" y="570.4102">contain letters..."</text><g class="message" data-participant-1="CLI" data-participant-2="User"><polygon fill="#000000" points="39.9277,616.7383,29.9277,620.7383,39.9277,624.7383,35.9277,620.7383" style="stroke:#000000;stroke-width:1;"/><line style="stroke:#000000;stroke-width:1;" x1="33.9277" x2="267.4414" y1="620.7383" y2="620.7383"/><text fill="#000000" font-family="Verdana" font-size="13" lengthAdjust="spacing" textLength="131.3774" x="45.9277" y="600.2095">Error: Invalid input:</text><text fill="#000000" font-family="Verdana" font-size="13" lengthAdjust="spacing" textLength="210.5137" x="45.9277" y="616.0088">name: Name can only contain...</text></g><rect fill="#FFFFFF" height="3" style="stroke:#FFFFFF;stroke-width:1;" width="1263.1626" x="5" y="649.6379"/><line style="stroke:#000000;stroke-width:0.5;" x1="5" x2="1268.1626" y1="649.6379" y2="649.6379"/><line style="stroke:#000000;stroke-width:0.5;" x1="5" x2="1268.1626" y1="652.6379" y2="652.6379"/><rect fill="#FFFFFF" height="23.7993" style="stroke:#000000;stroke-width:1;" width="189.4492" x="541.8567" y="638.7383"/><text fill="#000000" font-family="Verdana" font-size="13" font-weight="bold" lengthAdjust="spacing" textLength="171.0059" x="547.8567" y="655.8081">Business Rule Violation</text><g class="message" data-participant-1="User" data-participant-2="CLI"><polygon fill="#000000" points="251.4414,690.3369,261.4414,694.3369,251.4414,698.3369,255.4414,694.3369" style="stroke:#000000;stroke-width:1;"/><line style="stroke:#000000;stroke-width:1;" x1="28.9277" x2="257.4414" y1="694.3369" y2="694.3369"/><text fill="#000000" font-family="Verdana" font-size="13" lengthAdjust="spacing" textLength="120.9482" x="35.9277" y="689.6074">Very long greeting</text></g><g class="message" data-participant-1="CLI" data-participant-2="UC"><polygon fill="#000000" points="429.6348,720.1362,439.6348,724.1362,429.6348,728.1362,433.6348,724.1362" style="stroke:#000000;stroke-width:1;"/><line style="stroke:#000000;stroke-width:1;" x1="273.4414" x2="435.6348" y1="724.1362" y2="724.1362"/><text fill="#000000" font-family="Verdana" font-size="13" lengthAdjust="spacing" textLength="126.9404" x="280.4414" y="719.4067">execute(command)</text></g><g class="message" data-participant-1="UC" data-participant-2="PN"><polygon fill="#000000" points="654.4707,749.9355,664.4707,753.9355,654.4707,757.9355,658.4707,753.9355" style="stroke:#000000;stroke-width:1;"/><line style="stroke:#000000;stroke-width:1;" x1="451.6348" x2="660.4707" y1="753.9355" y2="753.9355"/><text fill="#000000" font-family="Verdana" font-size="13" lengthAdjust="spacing" textLength="88.9688" x="458.6348" y="749.2061">create(name)</text></g><g class="message" data-participant-1="PN" data-participant-2="UC"><polygon fill="#000000" points="462.6348,779.7349,452.6348,783.7349,462.6348,787.7349,458.6348,783.7349" style="stroke:#000000;stroke-width:1;"/><line style="stroke:#000000;stroke-width:1;stroke-dasharray:2,2;" x1="456.6348" x2="670.4707" y1="783.7349" y2="783.7349"/><text fill="#000000" font-family="Verdana" font-size="13" lengthAdjust="spacing" textLength="170.9614" x="468.6348" y="779.0054">Either.Right(PersonName)</text></g><g class="message" data-participant-1="UC" data-participant-2="GS"><polygon fill="#000000" points="798.1558,809.5342,808.1558,813.5342,798.1558,817.5342,802.1558,813.5342" style="stroke:#000000;stroke-width:1;"/><line style="stroke:#000000;stroke-width:1;" x1="451.6348" x2="804.1558" y1="813.5342" y2="813.5342"/><text fill="#000000" font-family="Verdana" font-size="13" lengthAdjust="spacing" textLength="145.1011" x="458.6348" y="808.8047">createGreeting(name)</text></g><g class="message" data-participant-1="GS" data-participant-2="GS"><line style="stroke:#000000;stroke-width:1;" x1="820.1558" x2="862.1558" y1="843.3335" y2="843.3335"/><line style="stroke:#000000;stroke-width:1;" x1="862.1558" x2="862.1558" y1="843.3335" y2="856.3335"/><line style="stroke:#000000;stroke-width:1;" x1="821.1558" x2="862.1558" y1="856.3335" y2="856.3335"/><polygon fill="#000000" points="831.1558,852.3335,821.1558,856.3335,831.1558,860.3335,827.1558,856.3335" style="stroke:#000000;stroke-width:1;"/><text fill="#000000" font-family="Verdana" font-size="13" lengthAdjust="spacing" textLength="118.7393" x="827.1558" y="838.604">Generate greeting</text></g><g class="message" data-participant-1="GS" data-participant-2="GS"><line style="stroke:#000000;stroke-width:1;" x1="820.1558" x2="862.1558" y1="886.1328" y2="886.1328"/><line style="stroke:#000000;stroke-width:1;" x1="862.1558" x2="862.1558" y1="886.1328" y2="899.1328"/><line style="stroke:#000000;stroke-width:1;" x1="821.1558" x2="862.1558" y1="899.1328" y2="899.1328"/><polygon fill="#000000" points="831.1558,895.1328,821.1558,899.1328,831.1558,903.1328,827.1558,899.1328" style="stroke:#000000;stroke-width:1;"/><text fill="#000000" font-family="Verdana" font-size="13" lengthAdjust="spacing" textLength="129.6445" x="827.1558" y="881.4033">Check length &gt; 200</text></g><g class="message" data-participant-1="GS" data-participant-2="UC"><polygon fill="#000000" points="462.6348,940.7314,452.6348,944.7314,462.6348,948.7314,458.6348,944.7314" style="stroke:#000000;stroke-width:1;"/><line style="stroke:#000000;stroke-width:1;stroke-dasharray:2,2;" x1="456.6348" x2="814.1558" y1="944.7314" y2="944.7314"/><text fill="#000000" font-family="Verdana" font-size="13" lengthAdjust="spacing" textLength="73.7344" x="468.6348" y="924.2026">Either.Left(</text><text fill="#000000" font-family="Verdana" font-size="13" lengthAdjust="spacing" textLength="148.002" x="468.6348" y="940.002">BusinessRuleViolation)</text></g><g class="message" data-participant-1="UC" data-participant-2="UC"><line style="stroke:#000000;stroke-width:1;" x1="451.6348" x2="493.6348" y1="974.5308" y2="974.5308"/><line style="stroke:#000000;stroke-width:1;" x1="493.6348" x2="493.6348" y1="974.5308" y2="987.5308"/><line style="stroke:#000000;stroke-width:1;" x1="452.6348" x2="493.6348" y1="987.5308" y2="987.5308"/><polygon fill="#000000" points="462.6348,983.5308,452.6348,987.5308,462.6348,991.5308,458.6348,987.5308" style="stroke:#000000;stroke-width:1;"/><text fill="#000000" font-family="Verdana" font-size="13" lengthAdjust="spacing" textLength="71.1572" x="458.6348" y="969.8013">Wrap error</text></g><g class="message" data-participant-1="UC" data-participant-2="CLI"><polygon fill="#000000" points="284.4414,1029.1294,274.4414,1033.1294,284.4414,1037.1294,280.4414,1033.1294" style="stroke:#000000;stroke-width:1;"/><line style="stroke:#000000;stroke-width:1;stroke-dasharray:2,2;" x1="278.4414" x2="445.6348" y1="1033.1294" y2="1033.1294"/><text fill="#000000" font-family="Verdana" font-size="13" lengthAdjust="spacing" textLength="73.7344" x="290.4414" y="1012.6006">Either.Left(</text><text fill="#000000" font-family="Verdana" font-size="13" lengthAdjust="spacing" textLength="110.2651" x="290.4414" y="1028.3999">ApplicationError)</text></g><g class="message" data-participant-1="CLI" data-participant-2="User"><polygon fill="#000000" points="39.9277,1090.5273,29.9277,1094.5273,39.9277,1098.5273,35.9277,1094.5273" style="stroke:#000000;stroke-width:1;"/><line style="stroke:#000000;stroke-width:1;" x1="33.9277" x2="267.4414" y1="1094.5273" y2="1094.5273"/><text fill="#000000" font-family="Verdana" font-size="13" lengthAdjust="spacing" textLength="131.3774" x="45.9277" y="1058.1992">Error: Invalid input:</text><text fill="#000000" font-family="Verdana" font-size="13" lengthAdjust="spacing" textLength="198.4214" x="45.9277" y="1073.9985">MaxGreetingLength - Greeting</text><text fill="#000000" font-family="Verdana" font-size="13" lengthAdjust="spacing" textLength="167.9272" x="45.9277" y="1089.7979">exceeds maximum length</text></g><rect fill="#FFFFFF" height="3" style="stroke:#FFFFFF;stroke-width:1;" width="1263.1626" x="5" y="1123.427"/><line style="stroke:#000000;stroke-width:0.5;" x1="5" x2="1268.1626" y1="1123.427" y2="1123.427"/><line style="stroke:#000000;stroke-width:0.5;" x1="5" x2="1268.1626" y1="1126.427" y2="1126.427"/><rect fill="#FFFFFF" height="23.7993" style="stroke:#000000;stroke-width:1;" width="164.3569" x="554.4028" y="1112.5273"/><text fill="#000000" font-family="Verdana" font-size="13" font-weight="bold" lengthAdjust="spacing" textLength="145.9136" x="560.4028" y="1129.5972">Infrastructure Error</text><g class="message" data-participant-1="User" data-participant-2="CLI"><polygon fill="#000000" points="251.4414,1164.126,261.4414,1168.126,251.4414,1172.126,255.4414,1168.126" style="stroke:#000000;stroke-width:1;"/><line style="stroke:#000000;stroke-width:1;" x1="28.9277" x2="257.4414" y1="1168.126" y2="1168.126"/><text fill="#000000" font-family="Verdana" font-size="13" lengthAdjust="spacing" textLength="101.0103" x="35.9277" y="1163.3965">Normal request</text></g><g class="message" data-participant-1="CLI" data-participant-2="UC"><polygon fill="#000000" points="429.6348,1193.9253,439.6348,1197.9253,429.6348,1201.9253,433.6348,1197.9253" style="stroke:#000000;stroke-width:1;"/><line style="stroke:#000000;stroke-width:1;" x1="273.4414" x2="435.6348" y1="1197.9253" y2="1197.9253"/><text fill="#000000" font-family="Verdana" font-size="13" lengthAdjust="spacing" textLength="126.9404" x="280.4414" y="1193.1958">execute(command)</text></g><g class="message" data-participant-1="UC" data-participant-2="PN"><polygon fill="#000000" points="654.4707,1223.7246,664.4707,1227.7246,654.4707,1231.7246,658.4707,1227.7246" style="stroke:#000000;stroke-width:1;"/><line style="stroke:#000000;stroke-width:1;" x1="451.6348" x2="660.4707" y1="1227.7246" y2="1227.7246"/><text fill="#000000" font-family="Verdana" font-size="13" lengthAdjust="spacing" textLength="88.9688" x="458.6348" y="1222.9951">create(name)</text></g><g class="message" data-participant-1="PN" data-participant-2="UC"><polygon fill="#000000" points="462.6348,1253.5239,452.6348,1257.5239,462.6348,1261.5239,458.6348,1257.5239" style="stroke:#000000;stroke-width:1;"/><line style="stroke:#000000;stroke-width:1;stroke-dasharray:2,2;" x1="456.6348" x2="670.4707" y1="1257.5239" y2="1257.5239"/><text fill="#000000" font-family="Verdana" font-size="13" lengthAdjust="spacing" textLength="170.9614" x="468.6348" y="1252.7944">Either.Right(PersonName)</text></g><g class="message" data-participant-1="UC" data-participant-2="GS"><polygon fill="#000000" points="798.1558,1283.3232,808.1558,1287.3232,798.1558,1291.3232,802.1558,1287.3232" style="stroke:#000000;stroke-width:1;"/><line style="stroke:#000000;stroke-width:1;" x1="451.6348" x2="804.1558" y1="1287.3232" y2="1287.3232"/><text fill="#000000" font-family="Verdana" font-size="13" lengthAdjust="spacing" textLength="145.1011" x="458.6348" y="1282.5938">createGreeting(name)</text></g><g class="message" data-participant-1="GS" data-participant-2="UC"><polygon fill="#000000" points="462.6348,1313.1226,452.6348,1317.1226,462.6348,1321.1226,458.6348,1317.1226" style="stroke:#000000;stroke-width:1;"/><line style="stroke:#000000;stroke-width:1;stroke-dasharray:2,2;" x1="456.6348" x2="814.1558" y1="1317.1226" y2="1317.1226"/><text fill="#000000" font-family="Verdana" font-size="13" lengthAdjust="spacing" textLength="143.1714" x="468.6348" y="1312.3931">Either.Right(greeting)</text></g><g class="message" data-participant-1="UC" data-participant-2="OUT"><polygon fill="#000000" points="961.8003,1342.9219,971.8003,1346.9219,961.8003,1350.9219,965.8003,1346.9219" style="stroke:#000000;stroke-width:1;"/><line style="stroke:#000000;stroke-width:1;" x1="451.6348" x2="967.8003" y1="1346.9219" y2="1346.9219"/><text fill="#000000" font-family="Verdana" font-size="13" lengthAdjust="spacing" textLength="96.8018" x="458.6348" y="1342.1924">send(greeting)</text></g><g class="message" data-participant-1="OUT" data-participant-2="OUT"><line style="stroke:#000000;stroke-width:1;" x1="983.8003" x2="1025.8003" y1="1381.1208" y2="1381.1208"/><line style="stroke:#000000;stroke-width:1;" x1="1025.8003" x2="1025.8003" y1="1381.1208" y2="1394.1208"/><line style="stroke:#000000;stroke-width:1;" x1="984.8003" x2="1025.8003" y1="1394.1208" y2="1394.1208"/><polygon fill="#000000" points="994.8003,1390.1208,984.8003,1394.1208,994.8003,1398.1208,990.8003,1394.1208" style="stroke:#000000;stroke-width:1;"/><text fill="#000000" font-family="Verdana" font-size="13" lengthAdjust="spacing" textLength="73.9692" x="990.8003" y="1376.3914">Try to print</text></g><path d="M1085.9692,1359.9219 L1085.9692,1400.9219 L1251.9692,1400.9219 L1251.9692,1369.9219 L1241.9692,1359.9219 L1085.9692,1359.9219" fill="#FFFFFF" style="stroke:#000000;stroke-width:1;"/><path d="M1241.9692,1359.9219 L1241.9692,1369.9219 L1251.9692,1369.9219 L1241.9692,1359.9219" fill="#FFFFFF" style="stroke:#000000;stroke-width:1;"/><text fill="#000000" font-family="Verdana" font-size="13" lengthAdjust="spacing" textLength="122.8018" x="1091.9692" y="1377.9917">SecurityException:</text><text fill="#000000" font-family="Verdana" font-size="13" lengthAdjust="spacing" textLength="145.3931" x="1091.9692" y="1393.791">System.out redirected</text><g class="message" data-participant-1="OUT" data-participant-2="OUT"><line style="stroke:#000000;stroke-width:1;" x1="983.8003" x2="1025.8003" y1="1440.6191" y2="1440.6191"/><line style="stroke:#000000;stroke-width:1;" x1="1025.8003" x2="1025.8003" y1="1440.6191" y2="1453.6191"/><line style="stroke:#000000;stroke-width:1;" x1="984.8003" x2="1025.8003" y1="1453.6191" y2="1453.6191"/><polygon fill="#000000" points="994.8003,1449.6191,984.8003,1453.6191,994.8003,1457.6191,990.8003,1453.6191" style="stroke:#000000;stroke-width:1;"/><text fill="#000000" font-family="Verdana" font-size="13" lengthAdjust="spacing" textLength="104.438" x="990.8003" y="1435.8896">Catch exception</text></g><path d="M1116.438,1411.5205 L1116.438,1468.5205 L1246.438,1468.5205 L1246.438,1421.5205 L1236.438,1411.5205 L1116.438,1411.5205" fill="#FFFFFF" style="stroke:#000000;stroke-width:1;"/><path d="M1236.438,1411.5205 L1236.438,1421.5205 L1246.438,1421.5205 L1236.438,1411.5205" fill="#FFFFFF" style="stroke:#000000;stroke-width:1;"/><text fill="#000000" font-family="Verdana" font-size="13" lengthAdjust="spacing" textLength="84.6016" x="1122.438" y="1429.5903">Transform to</text><text fill="#000000" font-family="Verdana" font-size="13" lengthAdjust="spacing" textLength="109.0908" x="1122.438" y="1445.3896">ApplicationError.</text><text fill="#000000" font-family="Verdana" font-size="13" lengthAdjust="spacing" textLength="77.7842" x="1122.438" y="1461.189">OutputError</text><g class="message" data-participant-1="OUT" data-participant-2="UC"><polygon fill="#000000" points="462.6348,1507.5171,452.6348,1511.5171,462.6348,1515.5171,458.6348,1511.5171" style="stroke:#000000;stroke-width:1;"/><line style="stroke:#000000;stroke-width:1;stroke-dasharray:2,2;" x1="456.6348" x2="977.8003" y1="1511.5171" y2="1511.5171"/><text fill="#000000" font-family="Verdana" font-size="13" lengthAdjust="spacing" textLength="73.7344" x="468.6348" y="1490.9883">Either.Left(</text><text fill="#000000" font-family="Verdana" font-size="13" lengthAdjust="spacing" textLength="83.6875" x="468.6348" y="1506.7876">OutputError)</text></g><g class="message" data-participant-1="UC" data-participant-2="CLI"><polygon fill="#000000" points="284.4414,1553.1157,274.4414,1557.1157,284.4414,1561.1157,280.4414,1557.1157" style="stroke:#000000;stroke-width:1;"/><line style="stroke:#000000;stroke-width:1;stroke-dasharray:2,2;" x1="278.4414" x2="445.6348" y1="1557.1157" y2="1557.1157"/><text fill="#000000" font-family="Verdana" font-size="13" lengthAdjust="spacing" textLength="73.7344" x="290.4414" y="1536.5869">Either.Left(</text><text fill="#000000" font-family="Verdana" font-size="13" lengthAdjust="spacing" textLength="110.2651" x="290.4414" y="1552.3862">ApplicationError)</text></g><g class="message" data-participant-1="CLI" data-participant-2="User"><polygon fill="#000000" points="39.9277,1598.7144,29.9277,1602.7144,39.9277,1606.7144,35.9277,1602.7144" style="stroke:#000000;stroke-width:1;"/><line style="stroke:#000000;stroke-width:1;" x1="33.9277" x2="267.4414" y1="1602.7144" y2="1602.7144"/><text fill="#000000" font-family="Verdana" font-size="13" lengthAdjust="spacing" textLength="147.6021" x="45.9277" y="1582.1855">Error: Failed to deliver</text><text fill="#000000" font-family="Verdana" font-size="13" lengthAdjust="spacing" textLength="169.2222" x="45.9277" y="1597.9849">greeting: Security error...</text></g><rect fill="#FFFFFF" height="3" style="stroke:#FFFFFF;stroke-width:1;" width="1263.1626" x="5" y="1631.614"/><line style="stroke:#000000;stroke-width:0.5;" x1="5" x2="1268.1626" y1="1631.614" y2="1631.614"/><line style="stroke:#000000;stroke-width:0.5;" x1="5" x2="1268.1626" y1="1634.614" y2="1634.614"/><rect fill="#FFFFFF" height="23.7993" style="stroke:#000000;stroke-width:1;" width="146.2407" x="563.4609" y="1620.7144"/><text fill="#000000" font-family="Verdana" font-size="13" font-weight="bold" lengthAdjust="spacing" textLength="127.7974" x="569.4609" y="1637.7842">Unexpected Error</text><g class="message" data-participant-1="User" data-participant-2="CLI"><polygon fill="#000000" points="251.4414,1672.313,261.4414,1676.313,251.4414,1680.313,255.4414,1676.313" style="stroke:#000000;stroke-width:1;"/><line style="stroke:#000000;stroke-width:1;" x1="28.9277" x2="257.4414" y1="1676.313" y2="1676.313"/><text fill="#000000" font-family="Verdana" font-size="13" lengthAdjust="spacing" textLength="52.749" x="35.9277" y="1671.5835">Request</text></g><g class="message" data-participant-1="CLI" data-participant-2="CLI"><line style="stroke:#000000;stroke-width:1;" x1="273.4414" x2="315.4414" y1="1710.512" y2="1710.512"/><line style="stroke:#000000;stroke-width:1;" x1="315.4414" x2="315.4414" y1="1710.512" y2="1723.512"/><line style="stroke:#000000;stroke-width:1;" x1="274.4414" x2="315.4414" y1="1723.512" y2="1723.512"/><polygon fill="#000000" points="284.4414,1719.512,274.4414,1723.512,284.4414,1727.512,280.4414,1723.512" style="stroke:#000000;stroke-width:1;"/><text fill="#000000" font-family="Verdana" font-size="13" lengthAdjust="spacing" textLength="144.1934" x="280.4414" y="1705.7825">Unexpected exception</text></g><path d="M446.1934,1689.313 L446.1934,1730.313 L558.1934,1730.313 L558.1934,1699.313 L548.1934,1689.313 L446.1934,1689.313" fill="#FFFFFF" style="stroke:#000000;stroke-width:1;"/><path d="M548.1934,1689.313 L548.1934,1699.313 L558.1934,1699.313 L548.1934,1689.313" fill="#FFFFFF" style="stroke:#000000;stroke-width:1;"/><text fill="#000000" font-family="Verdana" font-size="13" lengthAdjust="spacing" textLength="91.9268" x="452.1934" y="1707.3828">Not caught by</text><text fill="#000000" font-family="Verdana" font-size="13" lengthAdjust="spacing" textLength="69.6655" x="452.1934" y="1723.1821">Either flow</text><g class="message" data-participant-1="CLI" data-participant-2="CLI"><line style="stroke:#000000;stroke-width:1;" x1="273.4414" x2="315.4414" y1="1757.7109" y2="1757.7109"/><line style="stroke:#000000;stroke-width:1;" x1="315.4414" x2="315.4414" y1="1757.7109" y2="1770.7109"/><line style="stroke:#000000;stroke-width:1;" x1="274.4414" x2="315.4414" y1="1770.7109" y2="1770.7109"/><polygon fill="#000000" points="284.4414,1766.7109,274.4414,1770.7109,284.4414,1774.7109,280.4414,1770.7109" style="stroke:#000000;stroke-width:1;"/><text fill="#000000" font-family="Verdana" font-size="13" lengthAdjust="spacing" textLength="110.3096" x="280.4414" y="1752.9814">Catch all handler</text></g><path d="M412.3096,1744.4116 L412.3096,1769.4116 L565.3096,1769.4116 L565.3096,1754.4116 L555.3096,1744.4116 L412.3096,1744.4116" fill="#FFFFFF" style="stroke:#000000;stroke-width:1;"/><path d="M555.3096,1744.4116 L555.3096,1754.4116 L565.3096,1754.4116 L555.3096,1744.4116" fill="#FFFFFF" style="stroke:#000000;stroke-width:1;"/><text fill="#000000" font-family="Verdana" font-size="13" lengthAdjust="spacing" textLength="132.6343" x="418.3096" y="1762.4814">catch (e: Exception)</text><g class="message" data-participant-1="CLI" data-participant-2="User"><polygon fill="#000000" points="39.9277,1812.3096,29.9277,1816.3096,39.9277,1820.3096,35.9277,1816.3096" style="stroke:#000000;stroke-width:1;"/><line style="stroke:#000000;stroke-width:1;" x1="33.9277" x2="267.4414" y1="1816.3096" y2="1816.3096"/><text fill="#000000" font-family="Verdana" font-size="13" lengthAdjust="spacing" textLength="119.5137" x="45.9277" y="1795.7808">Unexpected error:</text><text fill="#000000" font-family="Verdana" font-size="13" lengthAdjust="spacing" textLength="121.9194" x="45.9277" y="1811.5801">[exception details]</text></g><rect fill="#FFFFFF" height="3" style="stroke:#FFFFFF;stroke-width:1;" width="1263.1626" x="5" y="1845.2092"/><line style="stroke:#000000;stroke-width:0.5;" x1="5" x2="1268.1626" y1="1845.2092" y2="1845.2092"/><line style="stroke:#000000;stroke-width:0.5;" x1="5" x2="1268.1626" y1="1848.2092" y2="1848.2092"/><rect fill="#FFFFFF" height="23.7993" style="stroke:#000000;stroke-width:1;" width="218.4263" x="527.3682" y="1834.3096"/><text fill="#000000" font-family="Verdana" font-size="13" font-weight="bold" lengthAdjust="spacing" textLength="199.9829" x="533.3682" y="1851.3794">Error Transformation Chain</text><path d="M609,1873.1089 L609,1993.1089 L1041,1993.1089 L1041,1883.1089 L1031,1873.1089 L609,1873.1089" fill="#FFFFFF" style="stroke:#000000;stroke-width:1;"/><path d="M1031,1873.1089 L1031,1883.1089 L1041,1883.1089 L1031,1873.1089" fill="#FFFFFF" style="stroke:#000000;stroke-width:1;"/><text fill="#000000" font-family="Verdana" font-size="13" lengthAdjust="spacing" textLength="184.1328" x="635.436" y="1891.1787">Domain Layer: DomainError</text><text fill="#000000" font-family="Verdana" font-size="13" lengthAdjust="spacing" textLength="8.3853" x="635.436" y="1906.978">&#8595;</text><text fill="#000000" font-family="Verdana" font-size="13" lengthAdjust="spacing" textLength="370.3794" x="635.436" y="1922.7773">Application Layer: ApplicationError.DomainErrorWrapper</text><text fill="#000000" font-family="Verdana" font-size="13" lengthAdjust="spacing" textLength="8.3853" x="635.436" y="1938.5767">&#8595;</text><text fill="#000000" font-family="Verdana" font-size="13" lengthAdjust="spacing" textLength="288.0566" x="635.436" y="1954.376">Infrastructure: ApplicationError.OutputError</text><text fill="#000000" font-family="Verdana" font-size="13" lengthAdjust="spacing" textLength="8.3853" x="635.436" y="1970.1753">&#8595;</text><text fill="#000000" font-family="Verdana" font-size="13" lengthAdjust="spacing" textLength="238.7417" x="635.436" y="1985.9746">Presentation: User-friendly message</text><!--SRC=[rLR1Sjj63BtpAn3r8i_OcYIzSSQPfhAiUiPHD9Rb7C8SjYGaxeJSPNT1L_g1_43_i5zIxAueaXATao-zq2Rt0GiyF01wGpcM25KXf8f8Ke4mCqOR-4Eeh91g2xU5_XkkO8L_rQXIX1ifjaQKKIHIOjpQeeagOKYciXAAO3Izlnk1iC1_JmuC2iAvGIHsd2WsdGgB7hoUzh5BD5QhXIZ3yNBHFxx1ZQWBQdsjq3pBD83dgvDxjRAwmCyrLJKbwcCcAaBZeP_NZr5qVGrFef2P8AdL8NsVzVLr5BdyuEg3ooQ6E_NiWA0uhaIDtht_zSrllumS4_APK_CfH_nm1kjf3BZ3j2OSfxeicS-B5idvHkkfmoqNCQIUcN7Zi8FZnAFbei4TmiH8QJupSfjJ3BT25XOgGPoKWb9GcYTgh5MnXmBTHti9jX8fsij4vVigHyLVHAKj6SrlzY9SSOXv9baIPdAF6nedwaQNh0pFoQGboRzVH1dsuWpvE1-FHYYxqQO4TCXUk5-Cg40ghaDL5J9j_KrwjpbOnTBoNXl- -x6TEkW5v0W-LCARtd8qWWRYcUt8i1NKNEXFQAtOOiorTIMEmGaGKg70qPceL2lY01jU9vF9gAqtsyT1FQrGf6B9iRi1Rt1mnawwSNi9iI9_hwrK70uyrDoJJr8NGPvdcdn2muNMtAdRGpUycXvTr7qjdklamR4uRjlr1LNCLutNfcTFlNFNHlDLWvsZGkC-7vDgpwOvfj-v1cfBENo0zs_V1ij10JSyEXgFBFQ2T1UtqlNo32fv1UdzL1IVnAuXupuaSmNjHCDTYfXPRkYTBEloaE-GLExKnWXkvZgbsZJp-qmd2zS01HWtnotzRpLoNkZWlT792wNbGH-3HPLrW4UOtmByE08VkQL8GsMaejwmM34tHj9-niMfNFMvZAkz9ImdkYOcDvC6KyAixs_gXZ9WOzHpsSvAqeD3CUojMP2azpeez0winu5FxfMLx5OEPewY30lvZ2PH3QqjHw6BNXXlQzPtvPbwIQyFFnEgHtHy35ExqCJZjkR_uK-UtY5nsF1gxpiAvH550RdxrOFz1P7wqp6wLN6uvUA4bcuadg54VJs6n1oHMz7VXdW8oHyr46RyD7TBnZ7Yuz1CCBV9fIybG5YIS2_sxkhEokIpVt_ymyzEJHlOcQu6LcrZtfyd0xPTHJP6IuFSNkHHiQVbQcCaDnnlkZAirOZVm6KK_GS0]--></g></svg>