<svg xmlns="http://www.w3.org/2000/svg" xmlns:xlink="http://www.w3.org/1999/xlink" contentStyleType="text/css" data-diagram-type="SEQUENCE" height="1617px" preserveAspectRatio="none" style="width:1852px;height:1617px;background:#FFFFFF;" version="1.1" viewBox="0 0 1852 1617" width="1852px" zoomAndPan="magnify"><title>Create Greeting Flow - Sequence Diagram</title><defs/><g><text fill="#000000" font-family="Verdana" font-size="22" font-weight="bold" lengthAdjust="spacing" textLength="517.9238" x="665.9236" y="37.1182">Create Greeting Flow - Sequence Diagram</text><g><title>main..</title><rect fill="#FFFFFF" height="1161.772" style="stroke:#000000;stroke-width:1;" width="10" x="138.3438" y="222.1499"/></g><g><title>App</title><rect fill="#FFFFFF" height="1096.1733" style="stroke:#000000;stroke-width:1;" width="10" x="265.8828" y="251.9492"/></g><g><title>CompositionRoot</title><rect fill="#FFFFFF" height="156.7959" style="stroke:#000000;stroke-width:1;" width="10" x="432.7539" y="333.3472"/></g><g><title>CLI</title><rect fill="#FFFFFF" height="29.7993" style="stroke:#000000;stroke-width:1;" width="10" x="590.04" y="430.5444"/></g><g><title>CLI</title><rect fill="#FFFFFF" height="754.5815" style="stroke:#000000;stroke-width:1;" width="10" x="590.04" y="563.7417"/></g><g><title>CreateGreeting</title><rect fill="#FFFFFF" height="591.7856" style="stroke:#000000;stroke-width:1;" width="10" x="809.6646" y="645.1396"/></g><g><title>PersonName</title><rect fill="#FFFFFF" height="97.1973" style="stroke:#000000;stroke-width:1;" width="10" x="1014.626" y="674.939"/></g><g><title>DefaultGreeting</title><rect fill="#FFFFFF" height="259.9932" style="stroke:#000000;stroke-width:1;" width="10" x="1158.311" y="801.9355"/></g><g><title>GreetingPolicy</title><rect fill="#FFFFFF" height="97.1973" style="stroke:#000000;stroke-width:1;" width="10" x="1404.5977" y="831.7349"/></g><g><title>ConsoleOutput</title><rect fill="#FFFFFF" height="115.3979" style="stroke:#000000;stroke-width:1;" width="10" x="1550.7231" y="1091.728"/></g><g><title>User</title><rect fill="#000000" fill-opacity="0.00000" height="1405.1665" width="8" x="24.9277" y="130.752"/><line style="stroke:#000000;stroke-width:1;" x1="28" x2="28" y1="130.752" y2="1535.9185"/></g><g><title>main..</title><rect fill="#000000" fill-opacity="0.00000" height="1405.1665" width="8" x="139.3438" y="130.752"/><line style="stroke:#000000;stroke-width:1;" x1="142.623" x2="142.623" y1="130.752" y2="1535.9185"/></g><g><title>App</title><rect fill="#000000" fill-opacity="0.00000" height="1405.1665" width="8" x="266.8828" y="130.752"/><line style="stroke:#000000;stroke-width:1;" x1="270.375" x2="270.375" y1="130.752" y2="1535.9185"/></g><g><title>CompositionRoot</title><rect fill="#000000" fill-opacity="0.00000" height="1405.1665" width="8" x="433.7539" y="130.752"/><line style="stroke:#000000;stroke-width:1;" x1="437.1514" x2="437.1514" y1="130.752" y2="1535.9185"/></g><g><title>CLI</title><rect fill="#000000" fill-opacity="0.00000" height="1405.1665" width="8" x="591.04" y="130.752"/><line style="stroke:#000000;stroke-width:1;" x1="595.0293" x2="595.0293" y1="130.752" y2="1535.9185"/></g><g><title>CreateGreeting</title><rect fill="#000000" fill-opacity="0.00000" height="1405.1665" width="8" x="810.6646" y="130.752"/><line style="stroke:#000000;stroke-width:1;" x1="814.2622" x2="814.2622" y1="130.752" y2="1535.9185"/></g><g><title>PersonName</title><rect fill="#000000" fill-opacity="0.00000" height="1405.1665" width="8" x="1015.626" y="130.752"/><line style="stroke:#000000;stroke-width:1;" x1="1019.5034" x2="1019.5034" y1="130.752" y2="1535.9185"/></g><g><title>DefaultGreeting</title><rect fill="#000000" fill-opacity="0.00000" height="1405.1665" width="8" x="1159.311" y="130.752"/><line style="stroke:#000000;stroke-width:1;" x1="1162.7485" x2="1162.7485" y1="130.752" y2="1535.9185"/></g><g><title>GreetingPolicy</title><rect fill="#000000" fill-opacity="0.00000" height="1405.1665" width="8" x="1405.5977" y="130.752"/><line style="stroke:#000000;stroke-width:1;" x1="1409.2715" x2="1409.2715" y1="130.752" y2="1535.9185"/></g><g><title>ConsoleOutput</title><rect fill="#000000" fill-opacity="0.00000" height="1405.1665" width="8" x="1551.7231" y="130.752"/><line style="stroke:#000000;stroke-width:1;" x1="1554.9238" x2="1554.9238" y1="130.752" y2="1535.9185"/></g><g class="participant participant-head" data-participant="User"><text fill="#000000" font-family="Verdana" font-size="14" lengthAdjust="spacing" textLength="31.8555" x="10" y="127.8125">User</text><ellipse cx="28.9277" cy="61.7373" fill="#FFFFFF" rx="8" ry="8" style="stroke:#000000;stroke-width:1;"/><path d="M28.9277,69.7373 L28.9277,96.7373 M15.9277,77.7373 L41.9277,77.7373 M28.9277,96.7373 L15.9277,111.7373 M28.9277,96.7373 L41.9277,111.7373" fill="none" style="stroke:#000000;stroke-width:1;"/></g><g class="participant participant-tail" data-participant="User"><text fill="#000000" font-family="Verdana" font-size="14" lengthAdjust="spacing" textLength="31.8555" x="10" y="1548.9937">User</text><ellipse cx="28.9277" cy="1560.9331" fill="#FFFFFF" rx="8" ry="8" style="stroke:#000000;stroke-width:1;"/><path d="M28.9277,1568.9331 L28.9277,1595.9331 M15.9277,1576.9331 L41.9277,1576.9331 M28.9277,1595.9331 L15.9277,1610.9331 M28.9277,1595.9331 L41.9277,1610.9331" fill="none" style="stroke:#000000;stroke-width:1;"/></g><g class="participant participant-head" data-participant="Main"><rect fill="#FFFFFF" height="31.0146" rx="2.5" ry="2.5" style="stroke:#000000;stroke-width:1;" width="61.4414" x="112.623" y="98.7373"/><text fill="#000000" font-family="Verdana" font-size="14" lengthAdjust="spacing" textLength="47.4414" x="119.623" y="119.8125">main()</text></g><g class="participant participant-tail" data-participant="Main"><rect fill="#FFFFFF" height="31.0146" rx="2.5" ry="2.5" style="stroke:#000000;stroke-width:1;" width="61.4414" x="112.623" y="1534.9185"/><text fill="#000000" font-family="Verdana" font-size="14" lengthAdjust="spacing" textLength="47.4414" x="119.623" y="1555.9937">main()</text></g><g class="participant participant-head" data-participant="App"><rect fill="#FFFFFF" height="31.0146" rx="2.5" ry="2.5" style="stroke:#000000;stroke-width:1;" width="41.0156" x="250.375" y="98.7373"/><text fill="#000000" font-family="Verdana" font-size="14" lengthAdjust="spacing" textLength="27.0156" x="257.375" y="119.8125">App</text></g><g class="participant participant-tail" data-participant="App"><rect fill="#FFFFFF" height="31.0146" rx="2.5" ry="2.5" style="stroke:#000000;stroke-width:1;" width="41.0156" x="250.375" y="1534.9185"/><text fill="#000000" font-family="Verdana" font-size="14" lengthAdjust="spacing" textLength="27.0156" x="257.375" y="1555.9937">App</text></g><g class="participant participant-head" data-participant="CR"><rect fill="#FFFFFF" height="31.0146" rx="2.5" ry="2.5" style="stroke:#000000;stroke-width:1;" width="133.2051" x="371.1514" y="98.7373"/><text fill="#000000" font-family="Verdana" font-size="14" lengthAdjust="spacing" textLength="119.2051" x="378.1514" y="119.8125">CompositionRoot</text></g><g class="participant participant-tail" data-participant="CR"><rect fill="#FFFFFF" height="31.0146" rx="2.5" ry="2.5" style="stroke:#000000;stroke-width:1;" width="133.2051" x="371.1514" y="1534.9185"/><text fill="#000000" font-family="Verdana" font-size="14" lengthAdjust="spacing" textLength="119.2051" x="378.1514" y="1555.9937">CompositionRoot</text></g><g class="participant participant-head" data-participant="CLI"><rect fill="#FFFFFF" height="48.0293" rx="2.5" ry="2.5" style="stroke:#000000;stroke-width:1;" width="66.0215" x="562.0293" y="81.7227"/><text fill="#000000" font-family="Verdana" font-size="14" lengthAdjust="spacing" textLength="23.4609" x="583.3096" y="102.7979">CLI</text><text fill="#000000" font-family="Verdana" font-size="14" lengthAdjust="spacing" textLength="52.0215" x="569.0293" y="119.8125">Factory</text></g><g class="participant participant-tail" data-participant="CLI"><rect fill="#FFFFFF" height="48.0293" rx="2.5" ry="2.5" style="stroke:#000000;stroke-width:1;" width="66.0215" x="562.0293" y="1534.9185"/><text fill="#000000" font-family="Verdana" font-size="14" lengthAdjust="spacing" textLength="23.4609" x="583.3096" y="1555.9937">CLI</text><text fill="#000000" font-family="Verdana" font-size="14" lengthAdjust="spacing" textLength="52.0215" x="569.0293" y="1573.0083">Factory</text></g><g class="participant participant-head" data-participant="UC"><rect fill="#FFFFFF" height="48.0293" rx="2.5" ry="2.5" style="stroke:#000000;stroke-width:1;" width="120.8047" x="754.2622" y="81.7227"/><text fill="#000000" font-family="Verdana" font-size="14" lengthAdjust="spacing" textLength="106.8047" x="761.2622" y="102.7979">CreateGreeting</text><text fill="#000000" font-family="Verdana" font-size="14" lengthAdjust="spacing" textLength="59.6982" x="784.8154" y="119.8125">UseCase</text></g><g class="participant participant-tail" data-participant="UC"><rect fill="#FFFFFF" height="48.0293" rx="2.5" ry="2.5" style="stroke:#000000;stroke-width:1;" width="120.8047" x="754.2622" y="1534.9185"/><text fill="#000000" font-family="Verdana" font-size="14" lengthAdjust="spacing" textLength="106.8047" x="761.2622" y="1555.9937">CreateGreeting</text><text fill="#000000" font-family="Verdana" font-size="14" lengthAdjust="spacing" textLength="59.6982" x="784.8154" y="1573.0083">UseCase</text></g><g class="participant participant-head" data-participant="PN"><rect fill="#FFFFFF" height="31.0146" rx="2.5" ry="2.5" style="stroke:#000000;stroke-width:1;" width="102.2451" x="968.5034" y="98.7373"/><text fill="#000000" font-family="Verdana" font-size="14" lengthAdjust="spacing" textLength="88.2451" x="975.5034" y="119.8125">PersonName</text></g><g class="participant participant-tail" data-participant="PN"><rect fill="#FFFFFF" height="31.0146" rx="2.5" ry="2.5" style="stroke:#000000;stroke-width:1;" width="102.2451" x="968.5034" y="1534.9185"/><text fill="#000000" font-family="Verdana" font-size="14" lengthAdjust="spacing" textLength="88.2451" x="975.5034" y="1555.9937">PersonName</text></g><g class="participant participant-head" data-participant="GS"><rect fill="#FFFFFF" height="48.0293" rx="2.5" ry="2.5" style="stroke:#000000;stroke-width:1;" width="125.125" x="1100.7485" y="81.7227"/><text fill="#000000" font-family="Verdana" font-size="14" lengthAdjust="spacing" textLength="111.125" x="1107.7485" y="102.7979">DefaultGreeting</text><text fill="#000000" font-family="Verdana" font-size="14" lengthAdjust="spacing" textLength="51.6455" x="1137.4883" y="119.8125">Service</text></g><g class="participant participant-tail" data-participant="GS"><rect fill="#FFFFFF" height="48.0293" rx="2.5" ry="2.5" style="stroke:#000000;stroke-width:1;" width="125.125" x="1100.7485" y="1534.9185"/><text fill="#000000" font-family="Verdana" font-size="14" lengthAdjust="spacing" textLength="111.125" x="1107.7485" y="1555.9937">DefaultGreeting</text><text fill="#000000" font-family="Verdana" font-size="14" lengthAdjust="spacing" textLength="51.6455" x="1137.4883" y="1573.0083">Service</text></g><g class="participant participant-head" data-participant="GP"><rect fill="#FFFFFF" height="31.0146" rx="2.5" ry="2.5" style="stroke:#000000;stroke-width:1;" width="114.6523" x="1352.2715" y="98.7373"/><text fill="#000000" font-family="Verdana" font-size="14" lengthAdjust="spacing" textLength="100.6523" x="1359.2715" y="119.8125">GreetingPolicy</text></g><g class="participant participant-tail" data-participant="GP"><rect fill="#FFFFFF" height="31.0146" rx="2.5" ry="2.5" style="stroke:#000000;stroke-width:1;" width="114.6523" x="1352.2715" y="1534.9185"/><text fill="#000000" font-family="Verdana" font-size="14" lengthAdjust="spacing" textLength="100.6523" x="1359.2715" y="1555.9937">GreetingPolicy</text></g><g class="participant participant-head" data-participant="OUT"><rect fill="#FFFFFF" height="48.0293" rx="2.5" ry="2.5" style="stroke:#000000;stroke-width:1;" width="117.5986" x="1496.9238" y="81.7227"/><text fill="#000000" font-family="Verdana" font-size="14" lengthAdjust="spacing" textLength="103.5986" x="1503.9238" y="102.7979">ConsoleOutput</text><text fill="#000000" font-family="Verdana" font-size="14" lengthAdjust="spacing" textLength="55.2549" x="1528.0957" y="119.8125">Adapter</text></g><g class="participant participant-tail" data-participant="OUT"><rect fill="#FFFFFF" height="48.0293" rx="2.5" ry="2.5" style="stroke:#000000;stroke-width:1;" width="117.5986" x="1496.9238" y="1534.9185"/><text fill="#000000" font-family="Verdana" font-size="14" lengthAdjust="spacing" textLength="103.5986" x="1503.9238" y="1555.9937">ConsoleOutput</text><text fill="#000000" font-family="Verdana" font-size="14" lengthAdjust="spacing" textLength="55.2549" x="1528.0957" y="1573.0083">Adapter</text></g><g><title>main..</title><rect fill="#FFFFFF" height="1161.772" style="stroke:#000000;stroke-width:1;" width="10" x="138.3438" y="222.1499"/></g><g><title>App</title><rect fill="#FFFFFF" height="1096.1733" style="stroke:#000000;stroke-width:1;" width="10" x="265.8828" y="251.9492"/></g><g><title>CompositionRoot</title><rect fill="#FFFFFF" height="156.7959" style="stroke:#000000;stroke-width:1;" width="10" x="432.7539" y="333.3472"/></g><g><title>CLI</title><rect fill="#FFFFFF" height="29.7993" style="stroke:#000000;stroke-width:1;" width="10" x="590.04" y="430.5444"/></g><g><title>CLI</title><rect fill="#FFFFFF" height="754.5815" style="stroke:#000000;stroke-width:1;" width="10" x="590.04" y="563.7417"/></g><g><title>CreateGreeting</title><rect fill="#FFFFFF" height="591.7856" style="stroke:#000000;stroke-width:1;" width="10" x="809.6646" y="645.1396"/></g><g><title>PersonName</title><rect fill="#FFFFFF" height="97.1973" style="stroke:#000000;stroke-width:1;" width="10" x="1014.626" y="674.939"/></g><g><title>DefaultGreeting</title><rect fill="#FFFFFF" height="259.9932" style="stroke:#000000;stroke-width:1;" width="10" x="1158.311" y="801.9355"/></g><g><title>GreetingPolicy</title><rect fill="#FFFFFF" height="97.1973" style="stroke:#000000;stroke-width:1;" width="10" x="1404.5977" y="831.7349"/></g><g><title>ConsoleOutput</title><rect fill="#FFFFFF" height="115.3979" style="stroke:#000000;stroke-width:1;" width="10" x="1550.7231" y="1091.728"/></g><rect fill="#FFFFFF" height="3" style="stroke:#FFFFFF;stroke-width:1;" width="1840.771" x="5" y="161.6516"/><line style="stroke:#000000;stroke-width:0.5;" x1="5" x2="1845.771" y1="161.6516" y2="161.6516"/><line style="stroke:#000000;stroke-width:0.5;" x1="5" x2="1845.771" y1="164.6516" y2="164.6516"/><rect fill="#FFFFFF" height="23.7993" style="stroke:#000000;stroke-width:1;" width="251.2563" x="799.7573" y="150.752"/><text fill="#000000" font-family="Verdana" font-size="13" font-weight="bold" lengthAdjust="spacing" textLength="232.813" x="805.7573" y="167.8218">Startup and Dependency Wiring</text><g class="message" data-participant-1="User" data-participant-2="Main"><polygon fill="#000000" points="126.3438,218.1499,136.3438,222.1499,126.3438,226.1499,130.3438,222.1499" style="stroke:#000000;stroke-width:1;"/><line style="stroke:#000000;stroke-width:1;" x1="28.9277" x2="132.3438" y1="222.1499" y2="222.1499"/><text fill="#000000" font-family="Verdana" font-size="13" lengthAdjust="spacing" textLength="90.416" x="35.9277" y="201.6211">Run with args</text><text fill="#000000" font-family="Verdana" font-size="13" lengthAdjust="spacing" textLength="53.9932" x="35.9277" y="217.4204">["John"]</text></g><g class="message" data-participant-1="Main" data-participant-2="App"><polygon fill="#000000" points="253.8828,247.9492,263.8828,251.9492,253.8828,255.9492,257.8828,251.9492" style="stroke:#000000;stroke-width:1;"/><line style="stroke:#000000;stroke-width:1;" x1="148.3438" x2="259.8828" y1="251.9492" y2="251.9492"/><text fill="#000000" font-family="Verdana" font-size="13" lengthAdjust="spacing" textLength="62.0356" x="155.3438" y="247.2197">run(args)</text></g><g class="message" data-participant-1="App" data-participant-2="App"><line style="stroke:#000000;stroke-width:1;" x1="275.8828" x2="317.8828" y1="286.1482" y2="286.1482"/><line style="stroke:#000000;stroke-width:1;" x1="317.8828" x2="317.8828" y1="286.1482" y2="299.1482"/><line style="stroke:#000000;stroke-width:1;" x1="276.8828" x2="317.8828" y1="299.1482" y2="299.1482"/><polygon fill="#000000" points="286.8828,295.1482,276.8828,299.1482,286.8828,303.1482,282.8828,299.1482" style="stroke:#000000;stroke-width:1;"/><text fill="#000000" font-family="Verdana" font-size="13" lengthAdjust="spacing" textLength="105.314" x="282.8828" y="281.4187">parseArgs(args)</text></g><path d="M409.314,264.9492 L409.314,305.9492 L582.314,305.9492 L582.314,274.9492 L572.314,264.9492 L409.314,264.9492" fill="#FFFFFF" style="stroke:#000000;stroke-width:1;"/><path d="M572.314,264.9492 L572.314,274.9492 L582.314,274.9492 L572.314,264.9492" fill="#FFFFFF" style="stroke:#000000;stroke-width:1;"/><text fill="#000000" font-family="Verdana" font-size="13" lengthAdjust="spacing" textLength="152.8008" x="415.314" y="283.019">Extract name, verbose,</text><text fill="#000000" font-family="Verdana" font-size="13" lengthAdjust="spacing" textLength="100.3882" x="415.314" y="298.8184">and outputPath</text><g class="message" data-participant-1="App" data-participant-2="CR"><polygon fill="#000000" points="420.7539,329.3472,430.7539,333.3472,420.7539,337.3472,424.7539,333.3472" style="stroke:#000000;stroke-width:1;"/><line style="stroke:#000000;stroke-width:1;" x1="275.8828" x2="426.7539" y1="333.3472" y2="333.3472"/><text fill="#000000" font-family="Verdana" font-size="13" lengthAdjust="spacing" textLength="137.8711" x="282.8828" y="328.6177">buildProgram(config)</text></g><g class="message" data-participant-1="CR" data-participant-2="CR"><line style="stroke:#000000;stroke-width:1;" x1="442.7539" x2="484.7539" y1="375.4458" y2="375.4458"/><line style="stroke:#000000;stroke-width:1;" x1="484.7539" x2="484.7539" y1="375.4458" y2="388.4458"/><line style="stroke:#000000;stroke-width:1;" x1="443.7539" x2="484.7539" y1="388.4458" y2="388.4458"/><polygon fill="#000000" points="453.7539,384.4458,443.7539,388.4458,453.7539,392.4458,449.7539,388.4458" style="stroke:#000000;stroke-width:1;"/><text fill="#000000" font-family="Verdana" font-size="13" lengthAdjust="spacing" textLength="123.1255" x="449.7539" y="370.7163">Wire dependencies</text></g><path d="M594.1255,346.3472 L594.1255,403.3472 L768.1255,403.3472 L768.1255,356.3472 L758.1255,346.3472 L594.1255,346.3472" fill="#FFFFFF" style="stroke:#000000;stroke-width:1;"/><path d="M758.1255,346.3472 L758.1255,356.3472 L768.1255,356.3472 L758.1255,346.3472" fill="#FFFFFF" style="stroke:#000000;stroke-width:1;"/><text fill="#000000" font-family="Verdana" font-size="13" lengthAdjust="spacing" textLength="153.9814" x="600.1255" y="364.417">1. Create infrastructure</text><text fill="#000000" font-family="Verdana" font-size="13" lengthAdjust="spacing" textLength="128.3623" x="600.1255" y="380.2163">2. Create use cases</text><text fill="#000000" font-family="Verdana" font-size="13" lengthAdjust="spacing" textLength="147.0498" x="600.1255" y="396.0156">3. Create presentation</text><g class="message" data-participant-1="CR" data-participant-2="CLI"><polygon fill="#000000" points="578.04,426.5444,588.04,430.5444,578.04,434.5444,582.04,430.5444" style="stroke:#000000;stroke-width:1;"/><line style="stroke:#000000;stroke-width:1;" x1="442.7539" x2="584.04" y1="430.5444" y2="430.5444"/><text fill="#000000" font-family="Verdana" font-size="13" lengthAdjust="spacing" textLength="128.2861" x="449.7539" y="425.8149">cli(config, useCase)</text></g><g class="message" data-participant-1="CLI" data-participant-2="CR"><polygon fill="#000000" points="453.7539,456.3438,443.7539,460.3438,453.7539,464.3438,449.7539,460.3438" style="stroke:#000000;stroke-width:1;"/><line style="stroke:#000000;stroke-width:1;stroke-dasharray:2,2;" x1="447.7539" x2="594.04" y1="460.3438" y2="460.3438"/><text fill="#000000" font-family="Verdana" font-size="13" lengthAdjust="spacing" textLength="60.9375" x="459.7539" y="455.6143">Runnable</text></g><g class="message" data-participant-1="CR" data-participant-2="App"><polygon fill="#000000" points="286.8828,486.1431,276.8828,490.1431,286.8828,494.1431,282.8828,490.1431" style="stroke:#000000;stroke-width:1;"/><line style="stroke:#000000;stroke-width:1;stroke-dasharray:2,2;" x1="280.8828" x2="436.7539" y1="490.1431" y2="490.1431"/><text fill="#000000" font-family="Verdana" font-size="13" lengthAdjust="spacing" textLength="56.3101" x="292.8828" y="485.4136">() -&gt; Int</text></g><rect fill="#FFFFFF" height="3" style="stroke:#FFFFFF;stroke-width:1;" width="1840.771" x="5" y="519.0427"/><line style="stroke:#000000;stroke-width:0.5;" x1="5" x2="1845.771" y1="519.0427" y2="519.0427"/><line style="stroke:#000000;stroke-width:0.5;" x1="5" x2="1845.771" y1="522.0427" y2="522.0427"/><rect fill="#FFFFFF" height="23.7993" style="stroke:#000000;stroke-width:1;" width="129.1147" x="860.8281" y="508.1431"/><text fill="#000000" font-family="Verdana" font-size="13" font-weight="bold" lengthAdjust="spacing" textLength="110.6714" x="866.8281" y="525.2129">Execution Flow</text><g class="message" data-participant-1="App" data-participant-2="CLI"><polygon fill="#000000" points="578.04,559.7417,588.04,563.7417,578.04,567.7417,582.04,563.7417" style="stroke:#000000;stroke-width:1;"/><line style="stroke:#000000;stroke-width:1;" x1="275.8828" x2="584.04" y1="563.7417" y2="563.7417"/><text fill="#000000" font-family="Verdana" font-size="13" lengthAdjust="spacing" textLength="95.9829" x="282.8828" y="559.0122">runnable.run()</text></g><g class="message" data-participant-1="CLI" data-participant-2="CLI"><line style="stroke:#000000;stroke-width:1;" x1="600.04" x2="642.04" y1="597.9407" y2="597.9407"/><line style="stroke:#000000;stroke-width:1;" x1="642.04" x2="642.04" y1="597.9407" y2="610.9407"/><line style="stroke:#000000;stroke-width:1;" x1="601.04" x2="642.04" y1="610.9407" y2="610.9407"/><polygon fill="#000000" points="611.04,606.9407,601.04,610.9407,611.04,614.9407,607.04,610.9407" style="stroke:#000000;stroke-width:1;"/><text fill="#000000" font-family="Verdana" font-size="13" lengthAdjust="spacing" textLength="111.6997" x="607.04" y="593.2112">Create command</text></g><path d="M740.6997,576.7417 L740.6997,617.7417 L926.6997,617.7417 L926.6997,586.7417 L916.6997,576.7417 L740.6997,576.7417" fill="#FFFFFF" style="stroke:#000000;stroke-width:1;"/><path d="M916.6997,576.7417 L916.6997,586.7417 L926.6997,586.7417 L916.6997,576.7417" fill="#FFFFFF" style="stroke:#000000;stroke-width:1;"/><text fill="#000000" font-family="Verdana" font-size="13" lengthAdjust="spacing" textLength="165.5659" x="746.6997" y="594.8115">CreateGreetingCommand</text><text fill="#000000" font-family="Verdana" font-size="13" lengthAdjust="spacing" textLength="101.0547" x="746.6997" y="610.6108">(name="John")</text><g class="message" data-participant-1="CLI" data-participant-2="UC"><polygon fill="#000000" points="797.6646,641.1396,807.6646,645.1396,797.6646,649.1396,801.6646,645.1396" style="stroke:#000000;stroke-width:1;"/><line style="stroke:#000000;stroke-width:1;" x1="600.04" x2="803.6646" y1="645.1396" y2="645.1396"/><text fill="#000000" font-family="Verdana" font-size="13" lengthAdjust="spacing" textLength="126.9404" x="607.04" y="640.4102">execute(command)</text></g><g class="message" data-participant-1="UC" data-participant-2="PN"><polygon fill="#000000" points="1002.626,670.939,1012.626,674.939,1002.626,678.939,1006.626,674.939" style="stroke:#000000;stroke-width:1;"/><line style="stroke:#000000;stroke-width:1;" x1="819.6646" x2="1008.626" y1="674.939" y2="674.939"/><text fill="#000000" font-family="Verdana" font-size="13" lengthAdjust="spacing" textLength="94.7324" x="826.6646" y="670.2095">create("John")</text></g><g class="message" data-participant-1="PN" data-participant-2="PN"><line style="stroke:#000000;stroke-width:1;" x1="1024.626" x2="1066.626" y1="717.0376" y2="717.0376"/><line style="stroke:#000000;stroke-width:1;" x1="1066.626" x2="1066.626" y1="717.0376" y2="730.0376"/><line style="stroke:#000000;stroke-width:1;" x1="1025.626" x2="1066.626" y1="730.0376" y2="730.0376"/><polygon fill="#000000" points="1035.626,726.0376,1025.626,730.0376,1035.626,734.0376,1031.626,730.0376" style="stroke:#000000;stroke-width:1;"/><text fill="#000000" font-family="Verdana" font-size="13" lengthAdjust="spacing" textLength="93.5962" x="1031.626" y="712.3081">Validate name</text></g><path d="M1146.5962,687.939 L1146.5962,744.939 L1273.5962,744.939 L1273.5962,697.939 L1263.5962,687.939 L1146.5962,687.939" fill="#FFFFFF" style="stroke:#000000;stroke-width:1;"/><path d="M1263.5962,687.939 L1263.5962,697.939 L1273.5962,697.939 L1263.5962,687.939" fill="#FFFFFF" style="stroke:#000000;stroke-width:1;"/><text fill="#000000" font-family="Verdana" font-size="13" lengthAdjust="spacing" textLength="79.479" x="1152.5962" y="706.0088">Check blank</text><text fill="#000000" font-family="Verdana" font-size="13" lengthAdjust="spacing" textLength="91.7554" x="1152.5962" y="721.8081">Check pattern</text><text fill="#000000" font-family="Verdana" font-size="13" lengthAdjust="spacing" textLength="106.8374" x="1152.5962" y="737.6074">Trim whitespace</text><g class="message" data-participant-1="PN" data-participant-2="UC"><polygon fill="#000000" points="830.6646,768.1362,820.6646,772.1362,830.6646,776.1362,826.6646,772.1362" style="stroke:#000000;stroke-width:1;"/><line style="stroke:#000000;stroke-width:1;stroke-dasharray:2,2;" x1="824.6646" x2="1018.626" y1="772.1362" y2="772.1362"/><text fill="#000000" font-family="Verdana" font-size="13" lengthAdjust="spacing" textLength="170.9614" x="836.6646" y="767.4067">Either.Right(PersonName)</text></g><g class="message" data-participant-1="UC" data-participant-2="GS"><polygon fill="#000000" points="1146.311,797.9355,1156.311,801.9355,1146.311,805.9355,1150.311,801.9355" style="stroke:#000000;stroke-width:1;"/><line style="stroke:#000000;stroke-width:1;" x1="819.6646" x2="1152.311" y1="801.9355" y2="801.9355"/><text fill="#000000" font-family="Verdana" font-size="13" lengthAdjust="spacing" textLength="190.8804" x="826.6646" y="797.2061">createGreeting(personName)</text></g><g class="message" data-participant-1="GS" data-participant-2="GP"><polygon fill="#000000" points="1392.5977,827.7349,1402.5977,831.7349,1392.5977,835.7349,1396.5977,831.7349" style="stroke:#000000;stroke-width:1;"/><line style="stroke:#000000;stroke-width:1;" x1="1168.311" x2="1398.5977" y1="831.7349" y2="831.7349"/><text fill="#000000" font-family="Verdana" font-size="13" lengthAdjust="spacing" textLength="217.2866" x="1175.311" y="827.0054">determineGreetingFormat(name)</text></g><g class="message" data-participant-1="GP" data-participant-2="GP"><line style="stroke:#000000;stroke-width:1;" x1="1414.5977" x2="1456.5977" y1="873.8335" y2="873.8335"/><line style="stroke:#000000;stroke-width:1;" x1="1456.5977" x2="1456.5977" y1="873.8335" y2="886.8335"/><line style="stroke:#000000;stroke-width:1;" x1="1415.5977" x2="1456.5977" y1="886.8335" y2="886.8335"/><polygon fill="#000000" points="1425.5977,882.8335,1415.5977,886.8335,1425.5977,890.8335,1421.5977,886.8335" style="stroke:#000000;stroke-width:1;"/><text fill="#000000" font-family="Verdana" font-size="13" lengthAdjust="spacing" textLength="72.7759" x="1421.5977" y="869.104">Apply rules</text></g><path d="M1515.7759,844.7349 L1515.7759,901.7349 L1683.7759,901.7349 L1683.7759,854.7349 L1673.7759,844.7349 L1515.7759,844.7349" fill="#FFFFFF" style="stroke:#000000;stroke-width:1;"/><path d="M1673.7759,844.7349 L1673.7759,854.7349 L1683.7759,854.7349 L1673.7759,844.7349" fill="#FFFFFF" style="stroke:#000000;stroke-width:1;"/><text fill="#000000" font-family="Verdana" font-size="13" lengthAdjust="spacing" textLength="146.4468" x="1521.7759" y="862.8047">Length &gt; 20? FORMAL</text><text fill="#000000" font-family="Verdana" font-size="13" lengthAdjust="spacing" textLength="147.4751" x="1521.7759" y="878.604">Anonymous? DEFAULT</text><text fill="#000000" font-family="Verdana" font-size="13" lengthAdjust="spacing" textLength="103.1431" x="1521.7759" y="894.4033">Else? FRIENDLY</text><g class="message" data-participant-1="GP" data-participant-2="GS"><polygon fill="#000000" points="1179.311,924.9321,1169.311,928.9321,1179.311,932.9321,1175.311,928.9321" style="stroke:#000000;stroke-width:1;"/><line style="stroke:#000000;stroke-width:1;stroke-dasharray:2,2;" x1="1173.311" x2="1408.5977" y1="928.9321" y2="928.9321"/><text fill="#000000" font-family="Verdana" font-size="13" lengthAdjust="spacing" textLength="172.5229" x="1185.311" y="924.2026">GreetingFormat.FRIENDLY</text></g><g class="message" data-participant-1="GS" data-participant-2="GS"><line style="stroke:#000000;stroke-width:1;" x1="1168.311" x2="1210.311" y1="963.1311" y2="963.1311"/><line style="stroke:#000000;stroke-width:1;" x1="1210.311" x2="1210.311" y1="963.1311" y2="976.1311"/><line style="stroke:#000000;stroke-width:1;" x1="1169.311" x2="1210.311" y1="976.1311" y2="976.1311"/><polygon fill="#000000" points="1179.311,972.1311,1169.311,976.1311,1179.311,980.1311,1175.311,976.1311" style="stroke:#000000;stroke-width:1;"/><text fill="#000000" font-family="Verdana" font-size="13" lengthAdjust="spacing" textLength="118.7393" x="1175.311" y="958.4016">Generate greeting</text></g><path d="M1315.7393,941.9321 L1315.7393,982.9321 L1450.7393,982.9321 L1450.7393,951.9321 L1440.7393,941.9321 L1315.7393,941.9321" fill="#FFFFFF" style="stroke:#000000;stroke-width:1;"/><path d="M1440.7393,941.9321 L1440.7393,951.9321 L1450.7393,951.9321 L1440.7393,941.9321" fill="#FFFFFF" style="stroke:#000000;stroke-width:1;"/><text fill="#000000" font-family="Verdana" font-size="13" lengthAdjust="spacing" textLength="114.7974" x="1321.7393" y="960.002">"Hey there, John!</text><text fill="#000000" font-family="Verdana" font-size="13" lengthAdjust="spacing" textLength="70.3003" x="1321.7393" y="975.8013">Welcome!"</text><g class="message" data-participant-1="GS" data-participant-2="GS"><line style="stroke:#000000;stroke-width:1;" x1="1168.311" x2="1210.311" y1="1014.7297" y2="1014.7297"/><line style="stroke:#000000;stroke-width:1;" x1="1210.311" x2="1210.311" y1="1014.7297" y2="1027.7297"/><line style="stroke:#000000;stroke-width:1;" x1="1169.311" x2="1210.311" y1="1027.7297" y2="1027.7297"/><polygon fill="#000000" points="1179.311,1023.7297,1169.311,1027.7297,1179.311,1031.7297,1175.311,1027.7297" style="stroke:#000000;stroke-width:1;"/><text fill="#000000" font-family="Verdana" font-size="13" lengthAdjust="spacing" textLength="98.1602" x="1175.311" y="1010.0002">Validate length</text></g><path d="M1295.1602,993.5308 L1295.1602,1034.5308 L1483.1602,1034.5308 L1483.1602,1003.5308 L1473.1602,993.5308 L1295.1602,993.5308" fill="#FFFFFF" style="stroke:#000000;stroke-width:1;"/><path d="M1473.1602,993.5308 L1473.1602,1003.5308 L1483.1602,1003.5308 L1473.1602,993.5308" fill="#FFFFFF" style="stroke:#000000;stroke-width:1;"/><text fill="#000000" font-family="Verdana" font-size="13" lengthAdjust="spacing" textLength="91.4888" x="1301.1602" y="1011.6006">Check against</text><text fill="#000000" font-family="Verdana" font-size="13" lengthAdjust="spacing" textLength="167.1655" x="1301.1602" y="1027.3999">MAX_GREETING_LENGTH</text><g class="message" data-participant-1="GS" data-participant-2="UC"><polygon fill="#000000" points="830.6646,1057.9287,820.6646,1061.9287,830.6646,1065.9287,826.6646,1061.9287" style="stroke:#000000;stroke-width:1;"/><line style="stroke:#000000;stroke-width:1;stroke-dasharray:2,2;" x1="824.6646" x2="1162.311" y1="1061.9287" y2="1061.9287"/><text fill="#000000" font-family="Verdana" font-size="13" lengthAdjust="spacing" textLength="143.1714" x="836.6646" y="1057.1992">Either.Right(greeting)</text></g><g class="message" data-participant-1="UC" data-participant-2="OUT"><polygon fill="#000000" points="1538.7231,1087.728,1548.7231,1091.728,1538.7231,1095.728,1542.7231,1091.728" style="stroke:#000000;stroke-width:1;"/><line style="stroke:#000000;stroke-width:1;" x1="819.6646" x2="1544.7231" y1="1091.728" y2="1091.728"/><text fill="#000000" font-family="Verdana" font-size="13" lengthAdjust="spacing" textLength="96.8018" x="826.6646" y="1086.9985">send(greeting)</text></g><g class="message" data-participant-1="OUT" data-participant-2="OUT"><line style="stroke:#000000;stroke-width:1;" x1="1560.7231" x2="1602.7231" y1="1121.5273" y2="1121.5273"/><line style="stroke:#000000;stroke-width:1;" x1="1602.7231" x2="1602.7231" y1="1121.5273" y2="1134.5273"/><line style="stroke:#000000;stroke-width:1;" x1="1561.7231" x2="1602.7231" y1="1134.5273" y2="1134.5273"/><polygon fill="#000000" points="1571.7231,1130.5273,1561.7231,1134.5273,1571.7231,1138.5273,1567.7231,1134.5273" style="stroke:#000000;stroke-width:1;"/><text fill="#000000" font-family="Verdana" font-size="13" lengthAdjust="spacing" textLength="114.7593" x="1567.7231" y="1116.7979">Validate message</text></g><path d="M1703.7593,1108.228 L1703.7593,1133.228 L1829.7593,1133.228 L1829.7593,1118.228 L1819.7593,1108.228 L1703.7593,1108.228" fill="#FFFFFF" style="stroke:#000000;stroke-width:1;"/><path d="M1819.7593,1108.228 L1819.7593,1118.228 L1829.7593,1118.228 L1819.7593,1108.228" fill="#FFFFFF" style="stroke:#000000;stroke-width:1;"/><text fill="#000000" font-family="Verdana" font-size="13" lengthAdjust="spacing" textLength="105.2886" x="1709.7593" y="1126.2979">Check not blank</text><g class="message" data-participant-1="OUT" data-participant-2="OUT"><line style="stroke:#000000;stroke-width:1;" x1="1560.7231" x2="1602.7231" y1="1164.3267" y2="1164.3267"/><line style="stroke:#000000;stroke-width:1;" x1="1602.7231" x2="1602.7231" y1="1164.3267" y2="1177.3267"/><line style="stroke:#000000;stroke-width:1;" x1="1561.7231" x2="1602.7231" y1="1177.3267" y2="1177.3267"/><polygon fill="#000000" points="1571.7231,1173.3267,1561.7231,1177.3267,1571.7231,1181.3267,1567.7231,1177.3267" style="stroke:#000000;stroke-width:1;"/><text fill="#000000" font-family="Verdana" font-size="13" lengthAdjust="spacing" textLength="111.7505" x="1567.7231" y="1159.5972">println(message)</text></g><g class="message" data-participant-1="OUT" data-participant-2="UC"><polygon fill="#000000" points="830.6646,1203.126,820.6646,1207.126,830.6646,1211.126,826.6646,1207.126" style="stroke:#000000;stroke-width:1;"/><line style="stroke:#000000;stroke-width:1;stroke-dasharray:2,2;" x1="824.6646" x2="1554.7231" y1="1207.126" y2="1207.126"/><text fill="#000000" font-family="Verdana" font-size="13" lengthAdjust="spacing" textLength="115.4512" x="836.6646" y="1202.3965">Either.Right(Unit)</text></g><g class="message" data-participant-1="UC" data-participant-2="CLI"><polygon fill="#000000" points="611.04,1232.9253,601.04,1236.9253,611.04,1240.9253,607.04,1236.9253" style="stroke:#000000;stroke-width:1;"/><line style="stroke:#000000;stroke-width:1;stroke-dasharray:2,2;" x1="605.04" x2="813.6646" y1="1236.9253" y2="1236.9253"/><text fill="#000000" font-family="Verdana" font-size="13" lengthAdjust="spacing" textLength="185.6245" x="617.04" y="1232.1958">Either.Right(GreetingResult)</text></g><g class="message" data-participant-1="CLI" data-participant-2="CLI"><line style="stroke:#000000;stroke-width:1;" x1="600.04" x2="642.04" y1="1271.1243" y2="1271.1243"/><line style="stroke:#000000;stroke-width:1;" x1="642.04" x2="642.04" y1="1271.1243" y2="1284.1243"/><line style="stroke:#000000;stroke-width:1;" x1="601.04" x2="642.04" y1="1284.1243" y2="1284.1243"/><polygon fill="#000000" points="611.04,1280.1243,601.04,1284.1243,611.04,1288.1243,607.04,1284.1243" style="stroke:#000000;stroke-width:1;"/><text fill="#000000" font-family="Verdana" font-size="13" lengthAdjust="spacing" textLength="99.6201" x="607.04" y="1266.3948">Handle success</text></g><path d="M728.6201,1249.9253 L728.6201,1290.9253 L930.6201,1290.9253 L930.6201,1259.9253 L920.6201,1249.9253 L728.6201,1249.9253" fill="#FFFFFF" style="stroke:#000000;stroke-width:1;"/><path d="M920.6201,1249.9253 L920.6201,1259.9253 L930.6201,1259.9253 L920.6201,1249.9253" fill="#FFFFFF" style="stroke:#000000;stroke-width:1;"/><text fill="#000000" font-family="Verdana" font-size="13" lengthAdjust="spacing" textLength="105.9678" x="734.6201" y="1267.9951">If verbose, print</text><text fill="#000000" font-family="Verdana" font-size="13" lengthAdjust="spacing" textLength="181.7207" x="734.6201" y="1283.7944">"[INFO] Greeting delivered"</text><g class="message" data-participant-1="CLI" data-participant-2="App"><polygon fill="#000000" points="286.8828,1314.3232,276.8828,1318.3232,286.8828,1322.3232,282.8828,1318.3232" style="stroke:#000000;stroke-width:1;"/><line style="stroke:#000000;stroke-width:1;stroke-dasharray:2,2;" x1="280.8828" x2="594.04" y1="1318.3232" y2="1318.3232"/><text fill="#000000" font-family="Verdana" font-size="13" lengthAdjust="spacing" textLength="58.9951" x="292.8828" y="1313.5938">(returns)</text></g><g class="message" data-participant-1="App" data-participant-2="Main"><polygon fill="#000000" points="159.3438,1344.1226,149.3438,1348.1226,159.3438,1352.1226,155.3438,1348.1226" style="stroke:#000000;stroke-width:1;"/><line style="stroke:#000000;stroke-width:1;stroke-dasharray:2,2;" x1="153.3438" x2="269.8828" y1="1348.1226" y2="1348.1226"/><text fill="#000000" font-family="Verdana" font-size="13" lengthAdjust="spacing" textLength="74.4771" x="165.3438" y="1343.3931">0 (success)</text></g><g class="message" data-participant-1="Main" data-participant-2="Main"><line style="stroke:#000000;stroke-width:1;" x1="148.3438" x2="190.3438" y1="1382.9219" y2="1382.9219"/><line style="stroke:#000000;stroke-width:1;" x1="190.3438" x2="190.3438" y1="1382.9219" y2="1395.9219"/><line style="stroke:#000000;stroke-width:1;" x1="143.3438" x2="190.3438" y1="1395.9219" y2="1395.9219"/><polygon fill="#000000" points="153.3438,1391.9219,143.3438,1395.9219,153.3438,1399.9219,149.3438,1395.9219" style="stroke:#000000;stroke-width:1;"/><text fill="#000000" font-family="Verdana" font-size="13" lengthAdjust="spacing" textLength="93.5391" x="155.3438" y="1378.1924">exitProcess(0)</text></g><rect fill="#FFFFFF" height="3" style="stroke:#FFFFFF;stroke-width:1;" width="1840.771" x="5" y="1419.8215"/><line style="stroke:#000000;stroke-width:0.5;" x1="5" x2="1845.771" y1="1419.8215" y2="1419.8215"/><line style="stroke:#000000;stroke-width:0.5;" x1="5" x2="1845.771" y1="1422.8215" y2="1422.8215"/><rect fill="#FFFFFF" height="23.7993" style="stroke:#000000;stroke-width:1;" width="191.8613" x="829.4548" y="1408.9219"/><text fill="#000000" font-family="Verdana" font-size="13" font-weight="bold" lengthAdjust="spacing" textLength="173.418" x="835.4548" y="1425.9917">Error Handling Example</text><path d="M747,1447.7212 L747,1520.7212 L1622,1520.7212 L1622,1457.7212 L1612,1447.7212 L747,1447.7212" fill="#FFFFFF" style="stroke:#000000;stroke-width:1;"/><path d="M1612,1447.7212 L1612,1457.7212 L1622,1457.7212 L1612,1447.7212" fill="#FFFFFF" style="stroke:#000000;stroke-width:1;"/><text fill="#000000" font-family="Verdana" font-size="13" lengthAdjust="spacing" textLength="200.7129" x="1058.0234" y="1465.791">If any step returns Either.Left:</text><text fill="#000000" font-family="Verdana" font-size="13" lengthAdjust="spacing" textLength="165.0137" x="1058.0234" y="1481.5903">1. Error is propagated up</text><text fill="#000000" font-family="Verdana" font-size="13" lengthAdjust="spacing" textLength="244.2134" x="1058.0234" y="1497.3896">2. CLI formats user-friendly message</text><text fill="#000000" font-family="Verdana" font-size="13" lengthAdjust="spacing" textLength="238.0879" x="1058.0234" y="1513.189">3. App returns appropriate exit code</text><!--SRC=[RLR1Rjiu4BthAoO-oK0IPBit0sbXEBRZXUC8ihtTeYeAHXhRH2LIIr99_FSTaf8YfZdKHSKtZs_cpGnxOKvO8TGbuo8ot9G8CuNC82mLek7Y28jIli0LRF7_1aMESCVPKR4gYbXkf8AzHXNLJ1cUyve90wEAkEBn29Y61qiR74xhsftGt-71J5QrrDnmAL8fZGFDqdUOzIeJ2tVlsGFMgtS89xxJdWbIDsCQ7NW_2x49AYt5XbN-EDc4ntTuO4rfthYsg9vvxi7BRGZkK8aiUUwrBPFt2GejItniJDsOJ4mBLXjK3lgutqNHxIri3GKqDJ1Hm1tMA0gg-1c-ScMDkBsD8bjjkFhi2Zk1j17mmiq9c3hgJ7mV_IDFOlJ3EiEVhOck_f7zjK5KymceHiGMFdv3MIyY-kanf5lZb40jKaX2ANuycGdCNusYI11KjqjuHlKaDLvcmcgMBhU4cLFFDqidyDJmiaYKj6qJvr8S-75mEvaSpT8EIxaY55tk7FNWyWZWh-kkFxauAAQDQdBJAAIZJ_rHen5oSbtJrx_xhxL2ZS8mss4HqOCbxgzUhoQGbxoLTsavRECCTLAlqH-uQfLIyGLxAZ4gCC0ungwIyTYohuG9KAbpU_wAUMFL-16pzdP5isfKotzj7NkdmmjfWMr-kQmgCY4mAno7cKTa8hRctVfk6VTa-za4q6d2k2KRN4lJ4-rd5fTig5IEEEueUXGDKPHiEjI_hEI5_Mpl2uMTCFy5JoKJlpBX_r4pG_CWCh5Jl8AN4pUeQvQZ9sprpQdRKLsdbYL-6-3niBnMWrUwt7PAknB4zI2cZw1fZfPR5v5CgFj8HyL57xIGgcB65MqOb51GqWMHS-MPF2k3Zft06iMH1lGpVBhv0el7z66wfjaNKfmhsUWlS3TVJFVhNIRcfKP2fAlvvcxzpLEtAOGwhdlC86SdPjlbl4I1odu-jf61fD4zdi6MaURN-dUHYQzOakDuCHgozEwLBeSF_6D7sYoQbjd3zB-VotG-twqsov_h-MQvk_TC7zdMYGfCinPuqsWPJe0cjHW0UvZRbFJJ0tkH5MhDZXzr6NtndHP6rhHKJIdYDd3i3pyIl1VS16AT2gks6y40tjcLegRt8mYqGpGStNkQCNfoTPFdf2BGlZhqozLBpSJe-sgpUFpnzZGNM782OJ6A-jNaruv2sef2Z_zOJcx3z0_83SJjtG7IFGZTg-6H-CeDhN0BZMy2i7zZx3vJYlu_u5AoukQlhAefERlNN6AIf585Bbtvm2R8n1cqmHfQkLqTrtWm4x_jFIdNL0DPKxyPBA2fstLFAH_SJ6YxhzNLGN7g6vh3hXdS_hSfTnUmsl8eReNRb6Xh5lZs6lm6]--></g></svg>