<svg xmlns="http://www.w3.org/2000/svg" xmlns:xlink="http://www.w3.org/1999/xlink" contentStyleType="text/css" data-diagram-type="SEQUENCE" height="1887px" preserveAspectRatio="none" style="width:2327px;height:1887px;background:#FFFFFF;" version="1.1" viewBox="0 0 2327 1887" width="2327px" zoomAndPan="magnify"><title>Create Greeting Flow - Async Sequence Diagram</title><defs/><g><text fill="#000000" font-family="Verdana" font-size="22" font-weight="bold" lengthAdjust="spacing" textLength="598.5117" x="863.1907" y="37.1182">Create Greeting Flow - Async Sequence Diagram</text><g><title>suspend main..</title><rect fill="#FFFFFF" height="1415.7358" style="stroke:#000000;stroke-width:1;" width="10" x="250.4307" y="222.1499"/></g><g><title>AsyncApp</title><rect fill="#FFFFFF" height="1350.1372" style="stroke:#000000;stroke-width:1;" width="10" x="383.8174" y="251.9492"/></g><g><title>SecureArgParser</title><rect fill="#FFFFFF" height="112.9966" style="stroke:#000000;stroke-width:1;" width="10" x="565.9463" y="377.1465"/></g><g><title>CompositionRoot</title><rect fill="#FFFFFF" height="913.1475" style="stroke:#000000;stroke-width:1;" width="10" x="728.0884" y="563.7417"/></g><g><title>AsyncCliRunner</title><rect fill="#FFFFFF" height="726.5522" style="stroke:#000000;stroke-width:1;" width="10" x="952.5518" y="720.5376"/></g><g><title>CreateGreeting</title><rect fill="#FFFFFF" height="615.355" style="stroke:#000000;stroke-width:1;" width="10" x="1172.1763" y="801.9355"/></g><g><title>PersonName</title><rect fill="#FFFFFF" height="72.5986" style="stroke:#000000;stroke-width:1;" width="10" x="1377.1377" y="831.7349"/></g><g><title>DefaultGreeting</title><rect fill="#FFFFFF" height="140.9966" style="stroke:#000000;stroke-width:1;" width="10" x="1520.8228" y="934.1328"/></g><g><title>GreetingPolicy</title><rect fill="#FFFFFF" height="29.7993" style="stroke:#000000;stroke-width:1;" width="10" x="1767.1094" y="963.9321"/></g><g><title>CompositeOutput</title><rect fill="#FFFFFF" height="238.7632" style="stroke:#000000;stroke-width:1;" width="10" x="1922.7334" y="1148.728"/></g><rect fill="#FFFFFF" height="127.5659" style="stroke:#000000;stroke-width:1;" width="471.4575" x="1839.4355" y="1231.126"/><rect fill="#FFFFFF" height="66.9673" style="stroke:none;stroke-width:1;" width="471.4575" x="1839.4355" y="1291.7246"/><g><title>User</title><rect fill="#000000" fill-opacity="0.00000" height="1674.9297" width="8" x="24.9277" y="130.752"/><line style="stroke:#000000;stroke-width:1;" x1="28" x2="28" y1="130.752" y2="1805.6816"/></g><g><title>suspend main..</title><rect fill="#000000" fill-opacity="0.00000" height="1674.9297" width="8" x="251.4307" y="130.752"/><line style="stroke:#000000;stroke-width:1;" x1="255.2031" x2="255.2031" y1="130.752" y2="1805.6816"/></g><g><title>AsyncApp</title><rect fill="#000000" fill-opacity="0.00000" height="1674.9297" width="8" x="384.8174" y="130.752"/><line style="stroke:#000000;stroke-width:1;" x1="388.6582" x2="388.6582" y1="130.752" y2="1805.6816"/></g><g><title>SecureArgParser</title><rect fill="#000000" fill-opacity="0.00000" height="1674.9297" width="8" x="566.9463" y="130.752"/><line style="stroke:#000000;stroke-width:1;" x1="570.4067" x2="570.4067" y1="130.752" y2="1805.6816"/></g><g><title>CompositionRoot</title><rect fill="#000000" fill-opacity="0.00000" height="1674.9297" width="8" x="729.0884" y="130.752"/><line style="stroke:#000000;stroke-width:1;" x1="732.4858" x2="732.4858" y1="130.752" y2="1805.6816"/></g><g><title>AsyncCliRunner</title><rect fill="#000000" fill-opacity="0.00000" height="1674.9297" width="8" x="953.5518" y="130.752"/><line style="stroke:#000000;stroke-width:1;" x1="956.8574" x2="956.8574" y1="130.752" y2="1805.6816"/></g><g><title>CreateGreeting</title><rect fill="#000000" fill-opacity="0.00000" height="1674.9297" width="8" x="1173.1763" y="130.752"/><line style="stroke:#000000;stroke-width:1;" x1="1176.7739" x2="1176.7739" y1="130.752" y2="1805.6816"/></g><g><title>PersonName</title><rect fill="#000000" fill-opacity="0.00000" height="1674.9297" width="8" x="1378.1377" y="130.752"/><line style="stroke:#000000;stroke-width:1;" x1="1382.0151" x2="1382.0151" y1="130.752" y2="1805.6816"/></g><g><title>DefaultGreeting</title><rect fill="#000000" fill-opacity="0.00000" height="1674.9297" width="8" x="1521.8228" y="130.752"/><line style="stroke:#000000;stroke-width:1;" x1="1525.2603" x2="1525.2603" y1="130.752" y2="1805.6816"/></g><g><title>GreetingPolicy</title><rect fill="#000000" fill-opacity="0.00000" height="1674.9297" width="8" x="1768.1094" y="130.752"/><line style="stroke:#000000;stroke-width:1;" x1="1771.7832" x2="1771.7832" y1="130.752" y2="1805.6816"/></g><g><title>CompositeOutput</title><rect fill="#000000" fill-opacity="0.00000" height="1674.9297" width="8" x="1923.7334" y="130.752"/><line style="stroke:#000000;stroke-width:1;" x1="1927.4355" x2="1927.4355" y1="130.752" y2="1805.6816"/></g><g class="participant participant-head" data-participant="User"><text fill="#000000" font-family="Verdana" font-size="14" lengthAdjust="spacing" textLength="31.8555" x="10" y="127.8125">User</text><ellipse cx="28.9277" cy="61.7373" fill="#FFFFFF" rx="8" ry="8" style="stroke:#000000;stroke-width:1;"/><path d="M28.9277,69.7373 L28.9277,96.7373 M15.9277,77.7373 L41.9277,77.7373 M28.9277,96.7373 L15.9277,111.7373 M28.9277,96.7373 L41.9277,111.7373" fill="none" style="stroke:#000000;stroke-width:1;"/></g><g class="participant participant-tail" data-participant="User"><text fill="#000000" font-family="Verdana" font-size="14" lengthAdjust="spacing" textLength="31.8555" x="10" y="1818.7568">User</text><ellipse cx="28.9277" cy="1830.6963" fill="#FFFFFF" rx="8" ry="8" style="stroke:#000000;stroke-width:1;"/><path d="M28.9277,1838.6963 L28.9277,1865.6963 M15.9277,1846.6963 L41.9277,1846.6963 M28.9277,1865.6963 L15.9277,1880.6963 M28.9277,1865.6963 L41.9277,1880.6963" fill="none" style="stroke:#000000;stroke-width:1;"/></g><g class="participant participant-head" data-participant="Main"><rect fill="#FFFFFF" height="31.0146" rx="2.5" ry="2.5" style="stroke:#000000;stroke-width:1;" width="124.4551" x="193.2031" y="98.7373"/><text fill="#000000" font-family="Verdana" font-size="14" lengthAdjust="spacing" textLength="110.4551" x="200.2031" y="119.8125">suspend main()</text></g><g class="participant participant-tail" data-participant="Main"><rect fill="#FFFFFF" height="31.0146" rx="2.5" ry="2.5" style="stroke:#000000;stroke-width:1;" width="124.4551" x="193.2031" y="1804.6816"/><text fill="#000000" font-family="Verdana" font-size="14" lengthAdjust="spacing" textLength="110.4551" x="200.2031" y="1825.7568">suspend main()</text></g><g class="participant participant-head" data-participant="App"><rect fill="#FFFFFF" height="31.0146" rx="2.5" ry="2.5" style="stroke:#000000;stroke-width:1;" width="82.3184" x="347.6582" y="98.7373"/><text fill="#000000" font-family="Verdana" font-size="14" lengthAdjust="spacing" textLength="68.3184" x="354.6582" y="119.8125">AsyncApp</text></g><g class="participant participant-tail" data-participant="App"><rect fill="#FFFFFF" height="31.0146" rx="2.5" ry="2.5" style="stroke:#000000;stroke-width:1;" width="82.3184" x="347.6582" y="1804.6816"/><text fill="#000000" font-family="Verdana" font-size="14" lengthAdjust="spacing" textLength="68.3184" x="354.6582" y="1825.7568">AsyncApp</text></g><g class="participant participant-head" data-participant="Parser"><rect fill="#FFFFFF" height="31.0146" rx="2.5" ry="2.5" style="stroke:#000000;stroke-width:1;" width="131.0791" x="505.4067" y="98.7373"/><text fill="#000000" font-family="Verdana" font-size="14" lengthAdjust="spacing" textLength="117.0791" x="512.4067" y="119.8125">SecureArgParser</text></g><g class="participant participant-tail" data-participant="Parser"><rect fill="#FFFFFF" height="31.0146" rx="2.5" ry="2.5" style="stroke:#000000;stroke-width:1;" width="131.0791" x="505.4067" y="1804.6816"/><text fill="#000000" font-family="Verdana" font-size="14" lengthAdjust="spacing" textLength="117.0791" x="512.4067" y="1825.7568">SecureArgParser</text></g><g class="participant participant-head" data-participant="CR"><rect fill="#FFFFFF" height="31.0146" rx="2.5" ry="2.5" style="stroke:#000000;stroke-width:1;" width="133.2051" x="666.4858" y="98.7373"/><text fill="#000000" font-family="Verdana" font-size="14" lengthAdjust="spacing" textLength="119.2051" x="673.4858" y="119.8125">CompositionRoot</text></g><g class="participant participant-tail" data-participant="CR"><rect fill="#FFFFFF" height="31.0146" rx="2.5" ry="2.5" style="stroke:#000000;stroke-width:1;" width="133.2051" x="666.4858" y="1804.6816"/><text fill="#000000" font-family="Verdana" font-size="14" lengthAdjust="spacing" textLength="119.2051" x="673.4858" y="1825.7568">CompositionRoot</text></g><g class="participant participant-head" data-participant="CLI"><rect fill="#FFFFFF" height="31.0146" rx="2.5" ry="2.5" style="stroke:#000000;stroke-width:1;" width="123.3887" x="895.8574" y="98.7373"/><text fill="#000000" font-family="Verdana" font-size="14" lengthAdjust="spacing" textLength="109.3887" x="902.8574" y="119.8125">AsyncCliRunner</text></g><g class="participant participant-tail" data-participant="CLI"><rect fill="#FFFFFF" height="31.0146" rx="2.5" ry="2.5" style="stroke:#000000;stroke-width:1;" width="123.3887" x="895.8574" y="1804.6816"/><text fill="#000000" font-family="Verdana" font-size="14" lengthAdjust="spacing" textLength="109.3887" x="902.8574" y="1825.7568">AsyncCliRunner</text></g><g class="participant participant-head" data-participant="UC"><rect fill="#FFFFFF" height="48.0293" rx="2.5" ry="2.5" style="stroke:#000000;stroke-width:1;" width="120.8047" x="1116.7739" y="81.7227"/><text fill="#000000" font-family="Verdana" font-size="14" lengthAdjust="spacing" textLength="106.8047" x="1123.7739" y="102.7979">CreateGreeting</text><text fill="#000000" font-family="Verdana" font-size="14" lengthAdjust="spacing" textLength="59.6982" x="1147.3271" y="119.8125">UseCase</text></g><g class="participant participant-tail" data-participant="UC"><rect fill="#FFFFFF" height="48.0293" rx="2.5" ry="2.5" style="stroke:#000000;stroke-width:1;" width="120.8047" x="1116.7739" y="1804.6816"/><text fill="#000000" font-family="Verdana" font-size="14" lengthAdjust="spacing" textLength="106.8047" x="1123.7739" y="1825.7568">CreateGreeting</text><text fill="#000000" font-family="Verdana" font-size="14" lengthAdjust="spacing" textLength="59.6982" x="1147.3271" y="1842.7715">UseCase</text></g><g class="participant participant-head" data-participant="PN"><rect fill="#FFFFFF" height="31.0146" rx="2.5" ry="2.5" style="stroke:#000000;stroke-width:1;" width="102.2451" x="1331.0151" y="98.7373"/><text fill="#000000" font-family="Verdana" font-size="14" lengthAdjust="spacing" textLength="88.2451" x="1338.0151" y="119.8125">PersonName</text></g><g class="participant participant-tail" data-participant="PN"><rect fill="#FFFFFF" height="31.0146" rx="2.5" ry="2.5" style="stroke:#000000;stroke-width:1;" width="102.2451" x="1331.0151" y="1804.6816"/><text fill="#000000" font-family="Verdana" font-size="14" lengthAdjust="spacing" textLength="88.2451" x="1338.0151" y="1825.7568">PersonName</text></g><g class="participant participant-head" data-participant="GS"><rect fill="#FFFFFF" height="48.0293" rx="2.5" ry="2.5" style="stroke:#000000;stroke-width:1;" width="125.125" x="1463.2603" y="81.7227"/><text fill="#000000" font-family="Verdana" font-size="14" lengthAdjust="spacing" textLength="111.125" x="1470.2603" y="102.7979">DefaultGreeting</text><text fill="#000000" font-family="Verdana" font-size="14" lengthAdjust="spacing" textLength="51.6455" x="1500" y="119.8125">Service</text></g><g class="participant participant-tail" data-participant="GS"><rect fill="#FFFFFF" height="48.0293" rx="2.5" ry="2.5" style="stroke:#000000;stroke-width:1;" width="125.125" x="1463.2603" y="1804.6816"/><text fill="#000000" font-family="Verdana" font-size="14" lengthAdjust="spacing" textLength="111.125" x="1470.2603" y="1825.7568">DefaultGreeting</text><text fill="#000000" font-family="Verdana" font-size="14" lengthAdjust="spacing" textLength="51.6455" x="1500" y="1842.7715">Service</text></g><g class="participant participant-head" data-participant="GP"><rect fill="#FFFFFF" height="31.0146" rx="2.5" ry="2.5" style="stroke:#000000;stroke-width:1;" width="114.6523" x="1714.7832" y="98.7373"/><text fill="#000000" font-family="Verdana" font-size="14" lengthAdjust="spacing" textLength="100.6523" x="1721.7832" y="119.8125">GreetingPolicy</text></g><g class="participant participant-tail" data-participant="GP"><rect fill="#FFFFFF" height="31.0146" rx="2.5" ry="2.5" style="stroke:#000000;stroke-width:1;" width="114.6523" x="1714.7832" y="1804.6816"/><text fill="#000000" font-family="Verdana" font-size="14" lengthAdjust="spacing" textLength="100.6523" x="1721.7832" y="1825.7568">GreetingPolicy</text></g><g class="participant participant-head" data-participant="OUT"><rect fill="#FFFFFF" height="48.0293" rx="2.5" ry="2.5" style="stroke:#000000;stroke-width:1;" width="136.5957" x="1859.4355" y="81.7227"/><text fill="#000000" font-family="Verdana" font-size="14" lengthAdjust="spacing" textLength="122.5957" x="1866.4355" y="102.7979">CompositeOutput</text><text fill="#000000" font-family="Verdana" font-size="14" lengthAdjust="spacing" textLength="55.2549" x="1900.106" y="119.8125">Adapter</text></g><g class="participant participant-tail" data-participant="OUT"><rect fill="#FFFFFF" height="48.0293" rx="2.5" ry="2.5" style="stroke:#000000;stroke-width:1;" width="136.5957" x="1859.4355" y="1804.6816"/><text fill="#000000" font-family="Verdana" font-size="14" lengthAdjust="spacing" textLength="122.5957" x="1866.4355" y="1825.7568">CompositeOutput</text><text fill="#000000" font-family="Verdana" font-size="14" lengthAdjust="spacing" textLength="55.2549" x="1900.106" y="1842.7715">Adapter</text></g><g><title>suspend main..</title><rect fill="#FFFFFF" height="1415.7358" style="stroke:#000000;stroke-width:1;" width="10" x="250.4307" y="222.1499"/></g><g><title>AsyncApp</title><rect fill="#FFFFFF" height="1350.1372" style="stroke:#000000;stroke-width:1;" width="10" x="383.8174" y="251.9492"/></g><g><title>SecureArgParser</title><rect fill="#FFFFFF" height="112.9966" style="stroke:#000000;stroke-width:1;" width="10" x="565.9463" y="377.1465"/></g><g><title>CompositionRoot</title><rect fill="#FFFFFF" height="913.1475" style="stroke:#000000;stroke-width:1;" width="10" x="728.0884" y="563.7417"/></g><g><title>AsyncCliRunner</title><rect fill="#FFFFFF" height="726.5522" style="stroke:#000000;stroke-width:1;" width="10" x="952.5518" y="720.5376"/></g><g><title>CreateGreeting</title><rect fill="#FFFFFF" height="615.355" style="stroke:#000000;stroke-width:1;" width="10" x="1172.1763" y="801.9355"/></g><g><title>PersonName</title><rect fill="#FFFFFF" height="72.5986" style="stroke:#000000;stroke-width:1;" width="10" x="1377.1377" y="831.7349"/></g><g><title>DefaultGreeting</title><rect fill="#FFFFFF" height="140.9966" style="stroke:#000000;stroke-width:1;" width="10" x="1520.8228" y="934.1328"/></g><g><title>GreetingPolicy</title><rect fill="#FFFFFF" height="29.7993" style="stroke:#000000;stroke-width:1;" width="10" x="1767.1094" y="963.9321"/></g><g><title>CompositeOutput</title><rect fill="#FFFFFF" height="238.7632" style="stroke:#000000;stroke-width:1;" width="10" x="1922.7334" y="1148.728"/></g><rect fill="#FFFFFF" height="3" style="stroke:#FFFFFF;stroke-width:1;" width="2315.8931" x="5" y="161.6516"/><line style="stroke:#000000;stroke-width:0.5;" x1="5" x2="2320.8931" y1="161.6516" y2="161.6516"/><line style="stroke:#000000;stroke-width:0.5;" x1="5" x2="2320.8931" y1="164.6516" y2="164.6516"/><rect fill="#FFFFFF" height="23.7993" style="stroke:#000000;stroke-width:1;" width="243.3408" x="1041.2761" y="150.752"/><text fill="#000000" font-family="Verdana" font-size="13" font-weight="bold" lengthAdjust="spacing" textLength="224.8975" x="1047.2761" y="167.8218">Startup and Signal Installation</text><g class="message" data-participant-1="User" data-participant-2="Main"><polygon fill="#000000" points="238.4307,218.1499,248.4307,222.1499,238.4307,226.1499,242.4307,222.1499" style="stroke:#000000;stroke-width:1;"/><line style="stroke:#000000;stroke-width:1;" x1="28.9277" x2="244.4307" y1="222.1499" y2="222.1499"/><text fill="#000000" font-family="Verdana" font-size="13" lengthAdjust="spacing" textLength="90.416" x="35.9277" y="201.6211">Run with args</text><text fill="#000000" font-family="Verdana" font-size="13" lengthAdjust="spacing" textLength="202.5029" x="35.9277" y="217.4204">["John", "--out=greetings.txt"]</text></g><g class="message" data-participant-1="Main" data-participant-2="App"><polygon fill="#000000" points="371.8174,247.9492,381.8174,251.9492,371.8174,255.9492,375.8174,251.9492" style="stroke:#000000;stroke-width:1;"/><line style="stroke:#000000;stroke-width:1;" x1="260.4307" x2="377.8174" y1="251.9492" y2="251.9492"/><text fill="#000000" font-family="Verdana" font-size="13" lengthAdjust="spacing" textLength="100.3882" x="267.4307" y="247.2197">runAsync(args)</text></g><g class="message" data-participant-1="App" data-participant-2="App"><line style="stroke:#000000;stroke-width:1;" x1="393.8174" x2="435.8174" y1="286.1482" y2="286.1482"/><line style="stroke:#000000;stroke-width:1;" x1="435.8174" x2="435.8174" y1="286.1482" y2="299.1482"/><line style="stroke:#000000;stroke-width:1;" x1="394.8174" x2="435.8174" y1="299.1482" y2="299.1482"/><polygon fill="#000000" points="404.8174,295.1482,394.8174,299.1482,404.8174,303.1482,400.8174,299.1482" style="stroke:#000000;stroke-width:1;"/><text fill="#000000" font-family="Verdana" font-size="13" lengthAdjust="spacing" textLength="148.1289" x="400.8174" y="281.4187">installSignalHandlers()</text></g><path d="M570.1289,264.9492 L570.1289,305.9492 L733.1289,305.9492 L733.1289,274.9492 L723.1289,264.9492 L570.1289,264.9492" fill="#FFFFFF" style="stroke:#000000;stroke-width:1;"/><path d="M723.1289,264.9492 L723.1289,274.9492 L733.1289,274.9492 L723.1289,264.9492" fill="#FFFFFF" style="stroke:#000000;stroke-width:1;"/><text fill="#000000" font-family="Verdana" font-size="13" lengthAdjust="spacing" textLength="117.6094" x="576.1289" y="283.019">SIGTERM, SIGINT</text><text fill="#000000" font-family="Verdana" font-size="13" lengthAdjust="spacing" textLength="142.689" x="576.1289" y="298.8184">for graceful shutdown</text><rect fill="#FFFFFF" height="3" style="stroke:#FFFFFF;stroke-width:1;" width="2315.8931" x="5" y="332.4475"/><line style="stroke:#000000;stroke-width:0.5;" x1="5" x2="2320.8931" y1="332.4475" y2="332.4475"/><line style="stroke:#000000;stroke-width:0.5;" x1="5" x2="2320.8931" y1="335.4475" y2="335.4475"/><rect fill="#FFFFFF" height="23.7993" style="stroke:#000000;stroke-width:1;" width="177.6426" x="1074.1252" y="321.5479"/><text fill="#000000" font-family="Verdana" font-size="13" font-weight="bold" lengthAdjust="spacing" textLength="159.1992" x="1080.1252" y="338.6177">Configuration Parsing</text><g class="message" data-participant-1="App" data-participant-2="Parser"><polygon fill="#000000" points="553.9463,373.1465,563.9463,377.1465,553.9463,381.1465,557.9463,377.1465" style="stroke:#000000;stroke-width:1;"/><line style="stroke:#000000;stroke-width:1;" x1="393.8174" x2="559.9463" y1="377.1465" y2="377.1465"/><text fill="#000000" font-family="Verdana" font-size="13" lengthAdjust="spacing" textLength="120.9292" x="400.8174" y="372.417">parseSecure(args)</text></g><g class="message" data-participant-1="Parser" data-participant-2="Parser"><line style="stroke:#000000;stroke-width:1;" x1="575.9463" x2="617.9463" y1="427.1448" y2="427.1448"/><line style="stroke:#000000;stroke-width:1;" x1="617.9463" x2="617.9463" y1="427.1448" y2="440.1448"/><line style="stroke:#000000;stroke-width:1;" x1="576.9463" x2="617.9463" y1="440.1448" y2="440.1448"/><polygon fill="#000000" points="586.9463,436.1448,576.9463,440.1448,586.9463,444.1448,582.9463,440.1448" style="stroke:#000000;stroke-width:1;"/><text fill="#000000" font-family="Verdana" font-size="13" lengthAdjust="spacing" textLength="127.3657" x="582.9463" y="422.4153">Validate arguments</text></g><path d="M731.3657,390.1465 L731.3657,463.1465 L899.3657,463.1465 L899.3657,400.1465 L889.3657,390.1465 L731.3657,390.1465" fill="#FFFFFF" style="stroke:#000000;stroke-width:1;"/><path d="M889.3657,390.1465 L889.3657,400.1465 L899.3657,400.1465 L889.3657,390.1465" fill="#FFFFFF" style="stroke:#000000;stroke-width:1;"/><text fill="#000000" font-family="Verdana" font-size="13" lengthAdjust="spacing" textLength="108.0181" x="737.3657" y="408.2163">Security checks:</text><text fill="#000000" font-family="Verdana" font-size="13" lengthAdjust="spacing" textLength="147.2656" x="737.3657" y="424.0156">- No injection patterns</text><text fill="#000000" font-family="Verdana" font-size="13" lengthAdjust="spacing" textLength="107.3896" x="737.3657" y="439.8149">- Path validation</text><text fill="#000000" font-family="Verdana" font-size="13" lengthAdjust="spacing" textLength="94.9419" x="737.3657" y="455.6143">- Length limits</text><g class="message" data-participant-1="Parser" data-participant-2="App"><polygon fill="#000000" points="404.8174,486.1431,394.8174,490.1431,404.8174,494.1431,400.8174,490.1431" style="stroke:#000000;stroke-width:1;"/><line style="stroke:#000000;stroke-width:1;stroke-dasharray:2,2;" x1="398.8174" x2="569.9463" y1="490.1431" y2="490.1431"/><text fill="#000000" font-family="Verdana" font-size="13" lengthAdjust="spacing" textLength="66.5171" x="410.8174" y="485.4136">AppConfig</text></g><rect fill="#FFFFFF" height="3" style="stroke:#FFFFFF;stroke-width:1;" width="2315.8931" x="5" y="519.0427"/><line style="stroke:#000000;stroke-width:0.5;" x1="5" x2="2320.8931" y1="519.0427" y2="519.0427"/><line style="stroke:#000000;stroke-width:0.5;" x1="5" x2="2320.8931" y1="522.0427" y2="522.0427"/><rect fill="#FFFFFF" height="23.7993" style="stroke:#000000;stroke-width:1;" width="160.7578" x="1082.5676" y="508.1431"/><text fill="#000000" font-family="Verdana" font-size="13" font-weight="bold" lengthAdjust="spacing" textLength="142.3145" x="1088.5676" y="525.2129">Dependency Wiring</text><g class="message" data-participant-1="App" data-participant-2="CR"><polygon fill="#000000" points="716.0884,559.7417,726.0884,563.7417,716.0884,567.7417,720.0884,563.7417" style="stroke:#000000;stroke-width:1;"/><line style="stroke:#000000;stroke-width:1;" x1="393.8174" x2="722.0884" y1="563.7417" y2="563.7417"/><text fill="#000000" font-family="Verdana" font-size="13" lengthAdjust="spacing" textLength="171.5518" x="400.8174" y="559.0122">buildAndRunAsync(config)</text></g><g class="message" data-participant-1="CR" data-participant-2="CR"><line style="stroke:#000000;stroke-width:1;" x1="738.0884" x2="780.0884" y1="613.74" y2="613.74"/><line style="stroke:#000000;stroke-width:1;" x1="780.0884" x2="780.0884" y1="613.74" y2="626.74"/><line style="stroke:#000000;stroke-width:1;" x1="739.0884" x2="780.0884" y1="626.74" y2="626.74"/><polygon fill="#000000" points="749.0884,622.74,739.0884,626.74,749.0884,630.74,745.0884,626.74" style="stroke:#000000;stroke-width:1;"/><text fill="#000000" font-family="Verdana" font-size="13" lengthAdjust="spacing" textLength="123.1255" x="745.0884" y="609.0105">Wire dependencies</text></g><path d="M890.1255,576.7417 L890.1255,649.7417 L1093.1255,649.7417 L1093.1255,586.7417 L1083.1255,576.7417 L890.1255,576.7417" fill="#FFFFFF" style="stroke:#000000;stroke-width:1;"/><path d="M1083.1255,576.7417 L1083.1255,586.7417 L1093.1255,586.7417 L1083.1255,576.7417" fill="#FFFFFF" style="stroke:#000000;stroke-width:1;"/><text fill="#000000" font-family="Verdana" font-size="13" lengthAdjust="spacing" textLength="168.708" x="896.1255" y="594.8115">1. DefaultGreetingService</text><text fill="#000000" font-family="Verdana" font-size="13" lengthAdjust="spacing" textLength="182.7109" x="896.1255" y="610.6108">2. CompositeOutputAdapter</text><text fill="#000000" font-family="Verdana" font-size="13" lengthAdjust="spacing" textLength="172.1738" x="896.1255" y="626.4102">3. CreateGreetingUseCase</text><text fill="#000000" font-family="Verdana" font-size="13" lengthAdjust="spacing" textLength="119.1392" x="896.1255" y="642.2095">4. AsyncCliRunner</text><rect fill="#FFFFFF" height="3" style="stroke:#FFFFFF;stroke-width:1;" width="2315.8931" x="5" y="675.8386"/><line style="stroke:#000000;stroke-width:0.5;" x1="5" x2="2320.8931" y1="675.8386" y2="675.8386"/><line style="stroke:#000000;stroke-width:0.5;" x1="5" x2="2320.8931" y1="678.8386" y2="678.8386"/><rect fill="#FFFFFF" height="23.7993" style="stroke:#000000;stroke-width:1;" width="137.7349" x="1094.0791" y="664.939"/><text fill="#000000" font-family="Verdana" font-size="13" font-weight="bold" lengthAdjust="spacing" textLength="119.2915" x="1100.0791" y="682.0088">Async Execution</text><g class="message" data-participant-1="CR" data-participant-2="CLI"><polygon fill="#000000" points="940.5518,716.5376,950.5518,720.5376,940.5518,724.5376,944.5518,720.5376" style="stroke:#000000;stroke-width:1;"/><line style="stroke:#000000;stroke-width:1;" x1="738.0884" x2="946.5518" y1="720.5376" y2="720.5376"/><text fill="#000000" font-family="Verdana" font-size="13" lengthAdjust="spacing" textLength="195.4634" x="745.0884" y="715.8081">runAsync(presentationConfig)</text></g><g class="message" data-participant-1="CLI" data-participant-2="CLI"><line style="stroke:#000000;stroke-width:1;" x1="962.5518" x2="1004.5518" y1="754.7366" y2="754.7366"/><line style="stroke:#000000;stroke-width:1;" x1="1004.5518" x2="1004.5518" y1="754.7366" y2="767.7366"/><line style="stroke:#000000;stroke-width:1;" x1="963.5518" x2="1004.5518" y1="767.7366" y2="767.7366"/><polygon fill="#000000" points="973.5518,763.7366,963.5518,767.7366,973.5518,771.7366,969.5518,767.7366" style="stroke:#000000;stroke-width:1;"/><text fill="#000000" font-family="Verdana" font-size="13" lengthAdjust="spacing" textLength="111.6997" x="969.5518" y="750.0071">Create command</text></g><path d="M1102.6997,733.5376 L1102.6997,774.5376 L1309.6997,774.5376 L1309.6997,743.5376 L1299.6997,733.5376 L1102.6997,733.5376" fill="#FFFFFF" style="stroke:#000000;stroke-width:1;"/><path d="M1299.6997,733.5376 L1299.6997,743.5376 L1309.6997,743.5376 L1299.6997,733.5376" fill="#FFFFFF" style="stroke:#000000;stroke-width:1;"/><text fill="#000000" font-family="Verdana" font-size="13" lengthAdjust="spacing" textLength="165.5659" x="1108.6997" y="751.6074">CreateGreetingCommand</text><text fill="#000000" font-family="Verdana" font-size="13" lengthAdjust="spacing" textLength="186.4561" x="1108.6997" y="767.4067">(name="John", silent=false)</text><g class="message" data-participant-1="CLI" data-participant-2="UC"><polygon fill="#000000" points="1160.1763,797.9355,1170.1763,801.9355,1160.1763,805.9355,1164.1763,801.9355" style="stroke:#000000;stroke-width:1;"/><line style="stroke:#000000;stroke-width:1;" x1="962.5518" x2="1166.1763" y1="801.9355" y2="801.9355"/><text fill="#000000" font-family="Verdana" font-size="13" lengthAdjust="spacing" textLength="126.9404" x="969.5518" y="797.2061">execute(command)</text></g><g class="message" data-participant-1="UC" data-participant-2="PN"><polygon fill="#000000" points="1365.1377,827.7349,1375.1377,831.7349,1365.1377,835.7349,1369.1377,831.7349" style="stroke:#000000;stroke-width:1;"/><line style="stroke:#000000;stroke-width:1;" x1="1182.1763" x2="1371.1377" y1="831.7349" y2="831.7349"/><text fill="#000000" font-family="Verdana" font-size="13" lengthAdjust="spacing" textLength="94.7324" x="1189.1763" y="827.0054">create("John")</text></g><g class="message" data-participant-1="PN" data-participant-2="PN"><line style="stroke:#000000;stroke-width:1;" x1="1387.1377" x2="1429.1377" y1="861.5342" y2="861.5342"/><line style="stroke:#000000;stroke-width:1;" x1="1429.1377" x2="1429.1377" y1="861.5342" y2="874.5342"/><line style="stroke:#000000;stroke-width:1;" x1="1388.1377" x2="1429.1377" y1="874.5342" y2="874.5342"/><polygon fill="#000000" points="1398.1377,870.5342,1388.1377,874.5342,1398.1377,878.5342,1394.1377,874.5342" style="stroke:#000000;stroke-width:1;"/><text fill="#000000" font-family="Verdana" font-size="13" lengthAdjust="spacing" textLength="93.5962" x="1394.1377" y="856.8047">Validate name</text></g><path d="M1509.5962,848.2349 L1509.5962,873.2349 L1669.5962,873.2349 L1669.5962,858.2349 L1659.5962,848.2349 L1509.5962,848.2349" fill="#FFFFFF" style="stroke:#000000;stroke-width:1;"/><path d="M1659.5962,848.2349 L1659.5962,858.2349 L1669.5962,858.2349 L1659.5962,848.2349" fill="#FFFFFF" style="stroke:#000000;stroke-width:1;"/><text fill="#000000" font-family="Verdana" font-size="13" lengthAdjust="spacing" textLength="139.0708" x="1515.5962" y="866.3047">Async-safe validation</text><g class="message" data-participant-1="PN" data-participant-2="UC"><polygon fill="#000000" points="1193.1763,900.3335,1183.1763,904.3335,1193.1763,908.3335,1189.1763,904.3335" style="stroke:#000000;stroke-width:1;"/><line style="stroke:#000000;stroke-width:1;stroke-dasharray:2,2;" x1="1187.1763" x2="1381.1377" y1="904.3335" y2="904.3335"/><text fill="#000000" font-family="Verdana" font-size="13" lengthAdjust="spacing" textLength="170.9614" x="1199.1763" y="899.604">Either.Right(PersonName)</text></g><g class="message" data-participant-1="UC" data-participant-2="GS"><polygon fill="#000000" points="1508.8228,930.1328,1518.8228,934.1328,1508.8228,938.1328,1512.8228,934.1328" style="stroke:#000000;stroke-width:1;"/><line style="stroke:#000000;stroke-width:1;" x1="1182.1763" x2="1514.8228" y1="934.1328" y2="934.1328"/><text fill="#000000" font-family="Verdana" font-size="13" lengthAdjust="spacing" textLength="190.8804" x="1189.1763" y="929.4033">createGreeting(personName)</text></g><g class="message" data-participant-1="GS" data-participant-2="GP"><polygon fill="#000000" points="1755.1094,959.9321,1765.1094,963.9321,1755.1094,967.9321,1759.1094,963.9321" style="stroke:#000000;stroke-width:1;"/><line style="stroke:#000000;stroke-width:1;" x1="1530.8228" x2="1761.1094" y1="963.9321" y2="963.9321"/><text fill="#000000" font-family="Verdana" font-size="13" lengthAdjust="spacing" textLength="217.2866" x="1537.8228" y="959.2026">determineGreetingFormat(name)</text></g><g class="message" data-participant-1="GP" data-participant-2="GS"><polygon fill="#000000" points="1541.8228,989.7314,1531.8228,993.7314,1541.8228,997.7314,1537.8228,993.7314" style="stroke:#000000;stroke-width:1;"/><line style="stroke:#000000;stroke-width:1;stroke-dasharray:2,2;" x1="1535.8228" x2="1771.1094" y1="993.7314" y2="993.7314"/><text fill="#000000" font-family="Verdana" font-size="13" lengthAdjust="spacing" textLength="172.5229" x="1547.8228" y="989.002">GreetingFormat.FRIENDLY</text></g><g class="message" data-participant-1="GS" data-participant-2="GS"><line style="stroke:#000000;stroke-width:1;" x1="1530.8228" x2="1572.8228" y1="1027.9304" y2="1027.9304"/><line style="stroke:#000000;stroke-width:1;" x1="1572.8228" x2="1572.8228" y1="1027.9304" y2="1040.9304"/><line style="stroke:#000000;stroke-width:1;" x1="1531.8228" x2="1572.8228" y1="1040.9304" y2="1040.9304"/><polygon fill="#000000" points="1541.8228,1036.9304,1531.8228,1040.9304,1541.8228,1044.9304,1537.8228,1040.9304" style="stroke:#000000;stroke-width:1;"/><text fill="#000000" font-family="Verdana" font-size="13" lengthAdjust="spacing" textLength="118.7393" x="1537.8228" y="1023.2009">Generate greeting</text></g><path d="M1677.7393,1006.7314 L1677.7393,1047.7314 L1812.7393,1047.7314 L1812.7393,1016.7314 L1802.7393,1006.7314 L1677.7393,1006.7314" fill="#FFFFFF" style="stroke:#000000;stroke-width:1;"/><path d="M1802.7393,1006.7314 L1802.7393,1016.7314 L1812.7393,1016.7314 L1802.7393,1006.7314" fill="#FFFFFF" style="stroke:#000000;stroke-width:1;"/><text fill="#000000" font-family="Verdana" font-size="13" lengthAdjust="spacing" textLength="114.7974" x="1683.7393" y="1024.8013">"Hey there, John!</text><text fill="#000000" font-family="Verdana" font-size="13" lengthAdjust="spacing" textLength="70.3003" x="1683.7393" y="1040.6006">Welcome!"</text><g class="message" data-participant-1="GS" data-participant-2="UC"><polygon fill="#000000" points="1193.1763,1071.1294,1183.1763,1075.1294,1193.1763,1079.1294,1189.1763,1075.1294" style="stroke:#000000;stroke-width:1;"/><line style="stroke:#000000;stroke-width:1;stroke-dasharray:2,2;" x1="1187.1763" x2="1524.8228" y1="1075.1294" y2="1075.1294"/><text fill="#000000" font-family="Verdana" font-size="13" lengthAdjust="spacing" textLength="143.1714" x="1199.1763" y="1070.3999">Either.Right(greeting)</text></g><rect fill="#FFFFFF" height="3" style="stroke:#FFFFFF;stroke-width:1;" width="2315.8931" x="5" y="1104.0291"/><line style="stroke:#000000;stroke-width:0.5;" x1="5" x2="2320.8931" y1="1104.0291" y2="1104.0291"/><line style="stroke:#000000;stroke-width:0.5;" x1="5" x2="2320.8931" y1="1107.0291" y2="1107.0291"/><rect fill="#FFFFFF" height="23.7993" style="stroke:#000000;stroke-width:1;" width="154.6387" x="1085.6272" y="1093.1294"/><text fill="#000000" font-family="Verdana" font-size="13" font-weight="bold" lengthAdjust="spacing" textLength="136.1953" x="1091.6272" y="1110.1992">Concurrent Output</text><g class="message" data-participant-1="UC" data-participant-2="OUT"><polygon fill="#000000" points="1910.7334,1144.728,1920.7334,1148.728,1910.7334,1152.728,1914.7334,1148.728" style="stroke:#000000;stroke-width:1;"/><line style="stroke:#000000;stroke-width:1;" x1="1182.1763" x2="1916.7334" y1="1148.728" y2="1148.728"/><text fill="#000000" font-family="Verdana" font-size="13" lengthAdjust="spacing" textLength="96.8018" x="1189.1763" y="1143.9985">send(greeting)</text></g><g class="message" data-participant-1="OUT" data-participant-2="OUT"><line style="stroke:#000000;stroke-width:1;" x1="1932.7334" x2="1974.7334" y1="1190.8267" y2="1190.8267"/><line style="stroke:#000000;stroke-width:1;" x1="1974.7334" x2="1974.7334" y1="1190.8267" y2="1203.8267"/><line style="stroke:#000000;stroke-width:1;" x1="1933.7334" x2="1974.7334" y1="1203.8267" y2="1203.8267"/><polygon fill="#000000" points="1943.7334,1199.8267,1933.7334,1203.8267,1943.7334,1207.8267,1939.7334,1203.8267" style="stroke:#000000;stroke-width:1;"/><text fill="#000000" font-family="Verdana" font-size="13" lengthAdjust="spacing" textLength="118.8281" x="1939.7334" y="1186.0972">Launch coroutines</text></g><path d="M2079.8281,1161.728 L2079.8281,1218.728 L2245.8281,1218.728 L2245.8281,1171.728 L2235.8281,1161.728 L2079.8281,1161.728" fill="#FFFFFF" style="stroke:#000000;stroke-width:1;"/><path d="M2235.8281,1161.728 L2235.8281,1171.728 L2245.8281,1171.728 L2235.8281,1161.728" fill="#FFFFFF" style="stroke:#000000;stroke-width:1;"/><text fill="#000000" font-family="Verdana" font-size="13" lengthAdjust="spacing" textLength="145.8438" x="2085.8281" y="1179.7979">Concurrent execution:</text><text fill="#000000" font-family="Verdana" font-size="13" lengthAdjust="spacing" textLength="108.9004" x="2085.8281" y="1195.5972">- Console output</text><text fill="#000000" font-family="Verdana" font-size="13" lengthAdjust="spacing" textLength="80.082" x="2085.8281" y="1211.3965">- File output</text><path d="M1839.4355,1231.126 L1908.6709,1231.126 L1908.6709,1238.9253 L1898.6709,1248.9253 L1839.4355,1248.9253 L1839.4355,1231.126" fill="#FFFFFF" style="stroke:#000000;stroke-width:1;"/><rect fill="none" height="127.5659" style="stroke:#000000;stroke-width:1;" width="471.4575" x="1839.4355" y="1231.126"/><text fill="#000000" font-family="Verdana" font-size="13" font-weight="bold" lengthAdjust="spacing" textLength="24.2354" x="1854.4355" y="1245.1958">par</text><text fill="#000000" font-family="Verdana" font-size="11" font-weight="bold" lengthAdjust="spacing" textLength="106.9438" x="1923.6709" y="1244.1851">[Console Output]</text><g class="message" data-participant-1="OUT" data-participant-2="OUT"><line style="stroke:#000000;stroke-width:1;" x1="1932.7334" x2="1974.7334" y1="1270.7246" y2="1270.7246"/><line style="stroke:#000000;stroke-width:1;" x1="1974.7334" x2="1974.7334" y1="1270.7246" y2="1283.7246"/><line style="stroke:#000000;stroke-width:1;" x1="1933.7334" x2="1974.7334" y1="1283.7246" y2="1283.7246"/><polygon fill="#000000" points="1943.7334,1279.7246,1933.7334,1283.7246,1943.7334,1287.7246,1939.7334,1283.7246" style="stroke:#000000;stroke-width:1;"/><text fill="#000000" font-family="Verdana" font-size="13" lengthAdjust="spacing" textLength="149.8555" x="1939.7334" y="1265.9951">ConsoleAdapter.send()</text></g><path d="M2110.8555,1257.4253 L2110.8555,1282.4253 L2242.8555,1282.4253 L2242.8555,1267.4253 L2232.8555,1257.4253 L2110.8555,1257.4253" fill="#FFFFFF" style="stroke:#000000;stroke-width:1;"/><path d="M2232.8555,1257.4253 L2232.8555,1267.4253 L2242.8555,1267.4253 L2232.8555,1257.4253" fill="#FFFFFF" style="stroke:#000000;stroke-width:1;"/><text fill="#000000" font-family="Verdana" font-size="13" lengthAdjust="spacing" textLength="111.7505" x="2116.8555" y="1275.4951">println(message)</text><line style="stroke:#000000;stroke-width:1;stroke-dasharray:2,2;" x1="1839.4355" x2="2310.8931" y1="1292.7246" y2="1292.7246"/><text fill="#000000" font-family="Verdana" font-size="11" font-weight="bold" lengthAdjust="spacing" textLength="80.4321" x="1844.4355" y="1303.7837">[File Output]</text><g class="message" data-participant-1="OUT" data-participant-2="OUT"><line style="stroke:#000000;stroke-width:1;" x1="1932.7334" x2="1974.7334" y1="1333.2922" y2="1333.2922"/><line style="stroke:#000000;stroke-width:1;" x1="1974.7334" x2="1974.7334" y1="1333.2922" y2="1346.2922"/><line style="stroke:#000000;stroke-width:1;" x1="1933.7334" x2="1974.7334" y1="1346.2922" y2="1346.2922"/><polygon fill="#000000" points="1943.7334,1342.2922,1933.7334,1346.2922,1943.7334,1350.2922,1939.7334,1346.2922" style="stroke:#000000;stroke-width:1;"/><text fill="#000000" font-family="Verdana" font-size="13" lengthAdjust="spacing" textLength="121.0371" x="1939.7334" y="1328.5627">FileAdapter.send()</text></g><path d="M2082.0371,1312.0933 L2082.0371,1353.0933 L2290.0371,1353.0933 L2290.0371,1322.0933 L2280.0371,1312.0933 L2082.0371,1312.0933" fill="#FFFFFF" style="stroke:#000000;stroke-width:1;"/><path d="M2280.0371,1312.0933 L2280.0371,1322.0933 L2290.0371,1322.0933 L2280.0371,1312.0933" fill="#FFFFFF" style="stroke:#000000;stroke-width:1;"/><text fill="#000000" font-family="Verdana" font-size="13" lengthAdjust="spacing" textLength="187.1226" x="2088.0371" y="1330.1631">withContext(Dispatchers.IO)</text><text fill="#000000" font-family="Verdana" font-size="13" lengthAdjust="spacing" textLength="89.6797" x="2088.0371" y="1345.9624">append to file</text><g class="message" data-participant-1="OUT" data-participant-2="UC"><polygon fill="#000000" points="1193.1763,1383.4912,1183.1763,1387.4912,1193.1763,1391.4912,1189.1763,1387.4912" style="stroke:#000000;stroke-width:1;"/><line style="stroke:#000000;stroke-width:1;stroke-dasharray:2,2;" x1="1187.1763" x2="1926.7334" y1="1387.4912" y2="1387.4912"/><text fill="#000000" font-family="Verdana" font-size="13" lengthAdjust="spacing" textLength="115.4512" x="1199.1763" y="1382.7617">Either.Right(Unit)</text></g><g class="message" data-participant-1="UC" data-participant-2="CLI"><polygon fill="#000000" points="973.5518,1413.2905,963.5518,1417.2905,973.5518,1421.2905,969.5518,1417.2905" style="stroke:#000000;stroke-width:1;"/><line style="stroke:#000000;stroke-width:1;stroke-dasharray:2,2;" x1="967.5518" x2="1176.1763" y1="1417.2905" y2="1417.2905"/><text fill="#000000" font-family="Verdana" font-size="13" lengthAdjust="spacing" textLength="185.6245" x="979.5518" y="1412.561">Either.Right(GreetingResult)</text></g><g class="message" data-participant-1="CLI" data-participant-2="CR"><polygon fill="#000000" points="749.0884,1443.0898,739.0884,1447.0898,749.0884,1451.0898,745.0884,1447.0898" style="stroke:#000000;stroke-width:1;"/><line style="stroke:#000000;stroke-width:1;stroke-dasharray:2,2;" x1="743.0884" x2="956.5518" y1="1447.0898" y2="1447.0898"/><text fill="#000000" font-family="Verdana" font-size="13" lengthAdjust="spacing" textLength="74.4771" x="755.0884" y="1442.3604">0 (success)</text></g><g class="message" data-participant-1="CR" data-participant-2="App"><polygon fill="#000000" points="404.8174,1472.8892,394.8174,1476.8892,404.8174,1480.8892,400.8174,1476.8892" style="stroke:#000000;stroke-width:1;"/><line style="stroke:#000000;stroke-width:1;stroke-dasharray:2,2;" x1="398.8174" x2="732.0884" y1="1476.8892" y2="1476.8892"/><text fill="#000000" font-family="Verdana" font-size="13" lengthAdjust="spacing" textLength="8.2646" x="410.8174" y="1472.1597">0</text></g><rect fill="#FFFFFF" height="3" style="stroke:#FFFFFF;stroke-width:1;" width="2315.8931" x="5" y="1505.7888"/><line style="stroke:#000000;stroke-width:0.5;" x1="5" x2="2320.8931" y1="1505.7888" y2="1505.7888"/><line style="stroke:#000000;stroke-width:0.5;" x1="5" x2="2320.8931" y1="1508.7888" y2="1508.7888"/><rect fill="#FFFFFF" height="23.7993" style="stroke:#000000;stroke-width:1;" width="157.7427" x="1084.0752" y="1494.8892"/><text fill="#000000" font-family="Verdana" font-size="13" font-weight="bold" lengthAdjust="spacing" textLength="139.2993" x="1090.0752" y="1511.959">Graceful Shutdown</text><g class="message" data-participant-1="App" data-participant-2="App"><line style="stroke:#000000;stroke-width:1;" x1="393.8174" x2="435.8174" y1="1554.8875" y2="1554.8875"/><line style="stroke:#000000;stroke-width:1;" x1="435.8174" x2="435.8174" y1="1554.8875" y2="1567.8875"/><line style="stroke:#000000;stroke-width:1;" x1="394.8174" x2="435.8174" y1="1567.8875" y2="1567.8875"/><polygon fill="#000000" points="404.8174,1563.8875,394.8174,1567.8875,404.8174,1571.8875,400.8174,1567.8875" style="stroke:#000000;stroke-width:1;"/><text fill="#000000" font-family="Verdana" font-size="13" lengthAdjust="spacing" textLength="62.2515" x="400.8174" y="1550.158">cleanup()</text></g><path d="M484.2515,1533.6885 L484.2515,1574.6885 L623.2515,1574.6885 L623.2515,1543.6885 L613.2515,1533.6885 L484.2515,1533.6885" fill="#FFFFFF" style="stroke:#000000;stroke-width:1;"/><path d="M613.2515,1533.6885 L613.2515,1543.6885 L623.2515,1543.6885 L613.2515,1533.6885" fill="#FFFFFF" style="stroke:#000000;stroke-width:1;"/><text fill="#000000" font-family="Verdana" font-size="13" lengthAdjust="spacing" textLength="115.5273" x="490.2515" y="1551.7583">Cancel coroutines</text><text fill="#000000" font-family="Verdana" font-size="13" lengthAdjust="spacing" textLength="118.0093" x="490.2515" y="1567.5576">Release resources</text><g class="message" data-participant-1="App" data-participant-2="Main"><polygon fill="#000000" points="271.4307,1598.0864,261.4307,1602.0864,271.4307,1606.0864,267.4307,1602.0864" style="stroke:#000000;stroke-width:1;"/><line style="stroke:#000000;stroke-width:1;stroke-dasharray:2,2;" x1="265.4307" x2="387.8174" y1="1602.0864" y2="1602.0864"/><text fill="#000000" font-family="Verdana" font-size="13" lengthAdjust="spacing" textLength="56.9385" x="277.4307" y="1597.3569">exitCode</text></g><g class="message" data-participant-1="Main" data-participant-2="Main"><line style="stroke:#000000;stroke-width:1;" x1="260.4307" x2="302.4307" y1="1636.8857" y2="1636.8857"/><line style="stroke:#000000;stroke-width:1;" x1="302.4307" x2="302.4307" y1="1636.8857" y2="1649.8857"/><line style="stroke:#000000;stroke-width:1;" x1="255.4307" x2="302.4307" y1="1649.8857" y2="1649.8857"/><polygon fill="#000000" points="265.4307,1645.8857,255.4307,1649.8857,265.4307,1653.8857,261.4307,1649.8857" style="stroke:#000000;stroke-width:1;"/><text fill="#000000" font-family="Verdana" font-size="13" lengthAdjust="spacing" textLength="93.5391" x="267.4307" y="1632.1563">exitProcess(0)</text></g><rect fill="#FFFFFF" height="3" style="stroke:#FFFFFF;stroke-width:1;" width="2315.8931" x="5" y="1673.7854"/><line style="stroke:#000000;stroke-width:0.5;" x1="5" x2="2320.8931" y1="1673.7854" y2="1673.7854"/><line style="stroke:#000000;stroke-width:0.5;" x1="5" x2="2320.8931" y1="1676.7854" y2="1676.7854"/><rect fill="#FFFFFF" height="23.7993" style="stroke:#000000;stroke-width:1;" width="133.2026" x="1096.3452" y="1662.8857"/><text fill="#000000" font-family="Verdana" font-size="13" font-weight="bold" lengthAdjust="spacing" textLength="114.7593" x="1102.3452" y="1679.9556">Signal Handling</text><path d="M281,1701.6851 L281,1789.6851 L496,1789.6851 L496,1711.6851 L486,1701.6851 L281,1701.6851" fill="#FFFFFF" style="stroke:#000000;stroke-width:1;"/><path d="M486,1701.6851 L486,1711.6851 L496,1711.6851 L486,1701.6851" fill="#FFFFFF" style="stroke:#000000;stroke-width:1;"/><text fill="#000000" font-family="Verdana" font-size="13" lengthAdjust="spacing" textLength="194.2129" x="287" y="1719.7549">If SIGTERM/SIGINT received:</text><text fill="#000000" font-family="Verdana" font-size="13" lengthAdjust="spacing" textLength="163.2998" x="287" y="1735.5542">1. 5-second grace period</text><text fill="#000000" font-family="Verdana" font-size="13" lengthAdjust="spacing" textLength="188.6904" x="287" y="1751.3535">2. Cancel running operations</text><text fill="#000000" font-family="Verdana" font-size="13" lengthAdjust="spacing" textLength="137.9028" x="287" y="1767.1528">3. Cleanup resources</text><text fill="#000000" font-family="Verdana" font-size="13" lengthAdjust="spacing" textLength="138.7344" x="287" y="1782.9521">4. Exit with code 130</text><!--SRC=[XLPHR-Cs37xths3pv01DrjljNWpaWC9jSnbwQM0tEnoMFMWsasYp9K-Iq_RVZv8inyvrs8lJMX-fZ-H7qbVcY3L2Kp4k8iDDXP0gP0PXgH0D5mTugEGBpE1Mlua2SlodHL4Wt75sKAoE8bOOgM2hKKKDKuONl672m4Itka5HGasUu-a4c8Qlzf8Ho3czRHftJB_ZqnoBLk6jEcoO8lyEvFySur9PDr9pmwN8f3GEbsRlt9HMF6k5w5obZwiBFoxo4FXEK50fq-Z0stICtQ3IKgnPxOytw_7n7UvPMvcphnpLYHSUlCp7u83Qo8eNRnwoUJz4V6fDqvgTk2rPOxf0dhRFKRHOG6x8f6s0KTfpVX2iWfNGXbKLixc1nIAARA5WzjdL8W7A1hnmSmIc3dedVf_yAezYSWsJsKosPd7eYEcvUJMJFsoj-ScAmrKoia_hYmgNW6g5ot5iNKtFK5lLY1uza7jAdk0NubfHAkDf92IX5JySJGBvQlbydtszjd-iriyxiIUDaTuAtBSLw6DhIlaYND2f57j-Q9KFqSh3YjQ6sbtg5PD0Ot-zf2uvTgAA_E_Gw3TMyT92oAAjKHWzu1a1E7_Sl45nnE9ldT2h6Qmb1VaN5evHmmpLIMXtic6KwvFtIOVktIEA0xsjUCt9ksqPUyEPJCWRFNoiKOa_CAT4tA7jDshED_Z6rKKIqYo1FrjUbRUYp4Ab2kTka0TgcYZD0fwy89J1AyUBq3_CuKBbdSRfxESvN2YsqokTVPp3kD6wDgEZN-OmxjD1EYX2FuBkNoddlPuxke-hWG8RXPfAvLAS_X0ZTNr4ZzwictU5h6iIuqY6OvwfH-n4BAZj5w5NDA_eiiMULHgdlUjjcW0wfXXthWSaQ9f4szG9RPr0uQw9lSEXBDUaWdL0zLAqjuzekgXdckrng2rdsZ6vfnv7DSyiFZwFhkb8Ikl0QPa7JY7qk1dOz1Oqnw9bxYms2Ic5wbjpqHizI5Kpuv8rDDgGqSOni_UCmVE7R7M_ldlyFYJcBF90R8ca2_iw3ATHAYPVy0rih7WDDfrNE_4DAoe0Nasyb_So4boDyc6Zy_E5MbnHYS4hsOzHboWQl0cGrCg1XzxUJMLwzC17rehYI49JD5ifJnVzDBW8WyJzFA4JBMapItU_U_N0p_-VUuH6N0z-2c208Odkk6l7kIC_TQXX6XkQ7wOISOrQimEL3qdS_jB_y6lF_iUfNJHqlS5N4zznJOEHXgRIyzNJT2TOuxuMZ8GzUR8nTSbxhrvRmSseLYxNjYQXgKVmeB4CDKshaQ5jHDUntSoxWLYtHK5XZs1-Q6JdONmpEisSKfPXF-NTVXeEO6TLLCX4srmikvJH1rKrqCLEP4X8oZWDCjagejFvwHStldAJoXA7DDoc3Jlv3DieQUE9RqOH-GrkFnhyXu9Rn65fE7RoHDl7-WHOxSD6_ialP29M83zXcVX5y6ccaRP9wNSqqBJWikpsW8-EXhEmxcM3VbNhRXNub0mYTMlWdeZxBvE2eeGF7s_EClyN]--></g></svg>