<svg xmlns="http://www.w3.org/2000/svg" xmlns:xlink="http://www.w3.org/1999/xlink" contentStyleType="text/css" data-diagram-type="DESCRIPTION" height="1055px" preserveAspectRatio="none" style="width:2530px;height:1055px;background:#FFFFFF;" version="1.1" viewBox="0 0 2530 1055" width="2530px" zoomAndPan="magnify"><title>Hexagonal Architecture - Ports and Adapters Pattern</title><defs/><g><g class="title" data-source-line="2"><text fill="#000000" font-family="Verdana" font-size="22" font-weight="bold" lengthAdjust="spacing" textLength="653.6943" x="933.7918" y="37.1182">Hexagonal Architecture - Ports and Adapters Pattern</text></g><!--cluster Application Core--><g class="cluster" data-entity="Application Core" data-source-line="20" data-uid="ent0002" id="cluster_Application Core"><path d="M1440.5,58.7373 L1570.6377,58.7373 A3.75,3.75 0 0 1 1573.1377,61.2373 L1580.1377,81.752 L2114.5,81.752 A2.5,2.5 0 0 1 2117,84.252 L2117,642.8973 A2.5,2.5 0 0 1 2114.5,645.3973 L1440.5,645.3973 A2.5,2.5 0 0 1 1438,642.8973 L1438,61.2373 A2.5,2.5 0 0 1 1440.5,58.7373" fill="#FFFFFF" style="stroke:#000000;stroke-width:1;"/><line style="stroke:#000000;stroke-width:1;" x1="1438" x2="1580.1377" y1="81.752" y2="81.752"/><text fill="#000000" font-family="Verdana" font-size="14" font-weight="bold" lengthAdjust="spacing" textLength="129.1377" x="1442" y="74.8125">Application Core</text><text fill="#000000" font-family="Verdana" font-size="14" font-style="italic" lengthAdjust="spacing" textLength="50.6338" x="1756.1831" y="97.8271">&#171;Core&#187;</text></g><!--cluster Use Cases--><g class="cluster" data-entity="Use Cases" data-source-line="22" data-uid="ent0003" id="cluster_Use Cases"><path d="M1464.5,119.7373 L1544.6465,119.7373 A3.75,3.75 0 0 1 1547.1465,122.2373 L1554.1465,142.752 L1713.5,142.752 A2.5,2.5 0 0 1 1716,145.252 L1716,424.6073 A2.5,2.5 0 0 1 1713.5,427.1073 L1464.5,427.1073 A2.5,2.5 0 0 1 1462,424.6073 L1462,122.2373 A2.5,2.5 0 0 1 1464.5,119.7373" fill="#FFFFFF" style="stroke:#000000;stroke-width:1;"/><line style="stroke:#000000;stroke-width:1;" x1="1462" x2="1554.1465" y1="142.752" y2="142.752"/><text fill="#000000" font-family="Verdana" font-size="14" font-weight="bold" lengthAdjust="spacing" textLength="79.1465" x="1466" y="135.8125">Use Cases</text></g><!--cluster Domain--><g class="cluster" data-entity="Domain" data-source-line="27" data-uid="ent0006" id="cluster_Domain"><path d="M1464.5,524.8173 L1525.6563,524.8173 A3.75,3.75 0 0 1 1528.1563,527.3173 L1535.1563,547.832 L2090.5,547.832 A2.5,2.5 0 0 1 2093,550.332 L2093,618.8973 A2.5,2.5 0 0 1 2090.5,621.3973 L1464.5,621.3973 A2.5,2.5 0 0 1 1462,618.8973 L1462,527.3173 A2.5,2.5 0 0 1 1464.5,524.8173" fill="#FFFFFF" style="stroke:#000000;stroke-width:1;"/><line style="stroke:#000000;stroke-width:1;" x1="1462" x2="1535.1563" y1="547.832" y2="547.832"/><text fill="#000000" font-family="Verdana" font-size="14" font-weight="bold" lengthAdjust="spacing" textLength="60.1563" x="1466" y="540.8925">Domain</text></g><!--cluster Input Ports--><g class="cluster" data-entity="Input Ports" data-source-line="40" data-uid="ent0014" id="cluster_Input Ports"><path d="M1961.5,885.5973 L2052.5566,885.5973 A3.75,3.75 0 0 1 2055.0566,888.0973 L2062.0566,908.612 L2176.5,908.612 A2.5,2.5 0 0 1 2179,911.112 L2179,1012.0973 A2.5,2.5 0 0 1 2176.5,1014.5973 L1961.5,1014.5973 A2.5,2.5 0 0 1 1959,1012.0973 L1959,888.0973 A2.5,2.5 0 0 1 1961.5,885.5973" fill="#FFFFFF" style="stroke:#000000;stroke-width:1;"/><line style="stroke:#000000;stroke-width:1;" x1="1959" x2="2062.0566" y1="908.612" y2="908.612"/><text fill="#000000" font-family="Verdana" font-size="14" font-weight="bold" lengthAdjust="spacing" textLength="90.0566" x="1963" y="901.6725">Input Ports</text><text fill="#000000" font-family="Verdana" font-size="14" font-style="italic" lengthAdjust="spacing" textLength="46.4775" x="2049.7612" y="924.6871">&#171;Port&#187;</text></g><!--cluster Output Ports--><g class="cluster" data-entity="Output Ports" data-source-line="45" data-uid="ent0016" id="cluster_Output Ports"><path d="M871.5,500.1073 L973.1934,500.1073 A3.75,3.75 0 0 1 975.6934,502.6073 L982.6934,523.122 L1316.5,523.122 A2.5,2.5 0 0 1 1319,525.622 L1319,626.6073 A2.5,2.5 0 0 1 1316.5,629.1073 L871.5,629.1073 A2.5,2.5 0 0 1 869,626.6073 L869,502.6073 A2.5,2.5 0 0 1 871.5,500.1073" fill="#FFFFFF" style="stroke:#000000;stroke-width:1;"/><line style="stroke:#000000;stroke-width:1;" x1="869" x2="982.6934" y1="523.122" y2="523.122"/><text fill="#000000" font-family="Verdana" font-size="14" font-weight="bold" lengthAdjust="spacing" textLength="100.6934" x="873" y="516.1825">Output Ports</text><text fill="#000000" font-family="Verdana" font-size="14" font-style="italic" lengthAdjust="spacing" textLength="46.4775" x="1074.7612" y="539.1971">&#171;Port&#187;</text></g><!--cluster Input Adapters--><g class="cluster" data-entity="Input Adapters" data-source-line="52" data-uid="ent0020" id="cluster_Input Adapters"><path d="M905.5,694.3973 L1025.7803,694.3973 A3.75,3.75 0 0 1 1028.2803,696.8973 L1035.2803,717.412 L1234.5,717.412 A2.5,2.5 0 0 1 1237,719.912 L1237,834.0973 A2.5,2.5 0 0 1 1234.5,836.5973 L905.5,836.5973 A2.5,2.5 0 0 1 903,834.0973 L903,696.8973 A2.5,2.5 0 0 1 905.5,694.3973" fill="#FFFFFF" style="stroke:#000000;stroke-width:1;"/><line style="stroke:#000000;stroke-width:1;" x1="903" x2="1035.2803" y1="717.412" y2="717.412"/><text fill="#000000" font-family="Verdana" font-size="14" font-weight="bold" lengthAdjust="spacing" textLength="119.2803" x="907" y="710.4725">Input Adapters</text><text fill="#000000" font-family="Verdana" font-size="14" font-style="italic" lengthAdjust="spacing" textLength="73.2881" x="1037.356" y="733.4871">&#171;Adapter&#187;</text></g><!--cluster Output Adapters--><g class="cluster" data-entity="Output Adapters" data-source-line="58" data-uid="ent0025" id="cluster_Output Adapters"><path d="M13.5,269.5273 L144.417,269.5273 A3.75,3.75 0 0 1 146.917,272.0273 L153.917,292.542 L1411.5,292.542 A2.5,2.5 0 0 1 1414,295.042 L1414,448.6073 A2.5,2.5 0 0 1 1411.5,451.1073 L13.5,451.1073 A2.5,2.5 0 0 1 11,448.6073 L11,272.0273 A2.5,2.5 0 0 1 13.5,269.5273" fill="#FFFFFF" style="stroke:#000000;stroke-width:1;"/><line style="stroke:#000000;stroke-width:1;" x1="11" x2="153.917" y1="292.542" y2="292.542"/><text fill="#000000" font-family="Verdana" font-size="14" font-weight="bold" lengthAdjust="spacing" textLength="129.917" x="15" y="285.6025">Output Adapters</text><text fill="#000000" font-family="Verdana" font-size="14" font-style="italic" lengthAdjust="spacing" textLength="73.2881" x="679.856" y="308.6171">&#171;Adapter&#187;</text></g><!--cluster Message Output--><g class="cluster" data-entity="Message Output" data-source-line="60" data-uid="ent0026" id="cluster_Message Output"><path d="M37.5,330.5273 L165.293,330.5273 A3.75,3.75 0 0 1 167.793,333.0273 L174.793,353.542 L888.5,353.542 A2.5,2.5 0 0 1 891,356.042 L891,424.6073 A2.5,2.5 0 0 1 888.5,427.1073 L37.5,427.1073 A2.5,2.5 0 0 1 35,424.6073 L35,333.0273 A2.5,2.5 0 0 1 37.5,330.5273" fill="#FFFFFF" style="stroke:#000000;stroke-width:1;"/><line style="stroke:#000000;stroke-width:1;" x1="35" x2="174.793" y1="353.542" y2="353.542"/><text fill="#000000" font-family="Verdana" font-size="14" font-weight="bold" lengthAdjust="spacing" textLength="126.793" x="39" y="346.6025">Message Output</text></g><!--cluster Error Output--><g class="cluster" data-entity="Error Output" data-source-line="67" data-uid="ent0031" id="cluster_Error Output"><path d="M917.5,330.5273 L1017.7305,330.5273 A3.75,3.75 0 0 1 1020.2305,333.0273 L1027.2305,353.542 L1150.5,353.542 A2.5,2.5 0 0 1 1153,356.042 L1153,424.6073 A2.5,2.5 0 0 1 1150.5,427.1073 L917.5,427.1073 A2.5,2.5 0 0 1 915,424.6073 L915,333.0273 A2.5,2.5 0 0 1 917.5,330.5273" fill="#FFFFFF" style="stroke:#000000;stroke-width:1;"/><line style="stroke:#000000;stroke-width:1;" x1="915" x2="1027.2305" y1="353.542" y2="353.542"/><text fill="#000000" font-family="Verdana" font-size="14" font-weight="bold" lengthAdjust="spacing" textLength="99.2305" x="919" y="346.6025">Error Output</text></g><!--cluster Service Implementations--><g class="cluster" data-entity="Service Implementations" data-source-line="71" data-uid="ent0033" id="cluster_Service Implementations"><path d="M1179.5,330.5273 L1378.0996,330.5273 A3.75,3.75 0 0 1 1380.5996,333.0273 L1387.5996,353.542 L1387.5,353.542 A2.5,2.5 0 0 1 1390,356.042 L1390,424.6073 A2.5,2.5 0 0 1 1387.5,427.1073 L1179.5,427.1073 A2.5,2.5 0 0 1 1177,424.6073 L1177,333.0273 A2.5,2.5 0 0 1 1179.5,330.5273" fill="#FFFFFF" style="stroke:#000000;stroke-width:1;"/><line style="stroke:#000000;stroke-width:1;" x1="1177" x2="1387.5996" y1="353.542" y2="353.542"/><text fill="#000000" font-family="Verdana" font-size="14" font-weight="bold" lengthAdjust="spacing" textLength="197.5996" x="1181" y="346.6025">Service Implementations</text></g><!--cluster External Systems--><g class="cluster" data-entity="External Systems" data-source-line="77" data-uid="ent0035" id="cluster_External Systems"><path d="M69.5,507.8173 L207.1162,507.8173 A3.75,3.75 0 0 1 209.6162,510.3173 L216.6162,530.832 L651.5,530.832 A2.5,2.5 0 0 1 654,533.332 L654,618.8973 A2.5,2.5 0 0 1 651.5,621.3973 L69.5,621.3973 A2.5,2.5 0 0 1 67,618.8973 L67,510.3173 A2.5,2.5 0 0 1 69.5,507.8173" fill="#FFFFFF" style="stroke:#000000;stroke-width:1;"/><line style="stroke:#000000;stroke-width:1;" x1="67" x2="216.6162" y1="530.832" y2="530.832"/><text fill="#000000" font-family="Verdana" font-size="14" font-weight="bold" lengthAdjust="spacing" textLength="136.6162" x="71" y="523.8925">External Systems</text><text fill="#000000" font-family="Verdana" font-size="14" font-style="italic" lengthAdjust="spacing" textLength="76.125" x="326.4375" y="546.9071">&#171;External&#187;</text></g><!--entity usecase--><g class="entity" data-entity="usecase" data-source-line="23" data-uid="ent0004" id="entity_usecase"><rect fill="#FFFFFF" height="44.584" rx="2.5" ry="2.5" style="stroke:#000000;stroke-width:1;" width="182.7168" x="1477.64" y="366.5273"/><rect fill="#FFFFFF" height="10" style="stroke:#000000;stroke-width:1;" width="15" x="1640.3568" y="371.5273"/><rect fill="#FFFFFF" height="2" style="stroke:#000000;stroke-width:1;" width="4" x="1638.3568" y="373.5273"/><rect fill="#FFFFFF" height="2" style="stroke:#000000;stroke-width:1;" width="4" x="1638.3568" y="377.5273"/><text fill="#000000" font-family="Verdana" font-size="12" lengthAdjust="spacing" textLength="142.7168" x="1492.64" y="398.5918">CreateGreetingUseCase</text></g><!--entity batch--><g class="entity" data-entity="batch" data-source-line="24" data-uid="ent0005" id="entity_batch"><rect fill="#FFFFFF" height="44.584" rx="2.5" ry="2.5" style="stroke:#000000;stroke-width:1;" width="222.9766" x="1477.51" y="155.7373"/><rect fill="#FFFFFF" height="10" style="stroke:#000000;stroke-width:1;" width="15" x="1680.4866" y="160.7373"/><rect fill="#FFFFFF" height="2" style="stroke:#000000;stroke-width:1;" width="4" x="1678.4866" y="162.7373"/><rect fill="#FFFFFF" height="2" style="stroke:#000000;stroke-width:1;" width="4" x="1678.4866" y="166.7373"/><text fill="#000000" font-family="Verdana" font-size="12" lengthAdjust="spacing" textLength="182.9766" x="1492.51" y="187.8018">CreateBatchGreetingsUseCase</text></g><!--entity domain1--><g class="entity" data-entity="domain1" data-source-line="28" data-uid="ent0007" id="entity_domain1"><rect fill="#FFFFFF" height="44.584" rx="2.5" ry="2.5" style="stroke:#000000;stroke-width:1;" width="115.6387" x="1478.18" y="560.8173"/><rect fill="#FFFFFF" height="10" style="stroke:#000000;stroke-width:1;" width="15" x="1573.8187" y="565.8173"/><rect fill="#FFFFFF" height="2" style="stroke:#000000;stroke-width:1;" width="4" x="1571.8187" y="567.8173"/><rect fill="#FFFFFF" height="2" style="stroke:#000000;stroke-width:1;" width="4" x="1571.8187" y="571.8173"/><text fill="#000000" font-family="Verdana" font-size="12" lengthAdjust="spacing" textLength="75.6387" x="1493.18" y="592.8818">PersonName</text></g><!--entity domain2--><g class="entity" data-entity="domain2" data-source-line="29" data-uid="ent0008" id="entity_domain2"><rect fill="#FFFFFF" height="44.584" rx="2.5" ry="2.5" style="stroke:#000000;stroke-width:1;" width="136.082" x="1628.96" y="560.8173"/><rect fill="#FFFFFF" height="10" style="stroke:#000000;stroke-width:1;" width="15" x="1745.042" y="565.8173"/><rect fill="#FFFFFF" height="2" style="stroke:#000000;stroke-width:1;" width="4" x="1743.042" y="567.8173"/><rect fill="#FFFFFF" height="2" style="stroke:#000000;stroke-width:1;" width="4" x="1743.042" y="571.8173"/><text fill="#000000" font-family="Verdana" font-size="12" lengthAdjust="spacing" textLength="96.082" x="1643.96" y="592.8818">GreetingService</text></g><!--entity domain3--><g class="entity" data-entity="domain3" data-source-line="30" data-uid="ent0009" id="entity_domain3"><rect fill="#FFFFFF" height="44.584" rx="2.5" ry="2.5" style="stroke:#000000;stroke-width:1;" width="126.2734" x="1799.86" y="560.8173"/><rect fill="#FFFFFF" height="10" style="stroke:#000000;stroke-width:1;" width="15" x="1906.1334" y="565.8173"/><rect fill="#FFFFFF" height="2" style="stroke:#000000;stroke-width:1;" width="4" x="1904.1334" y="567.8173"/><rect fill="#FFFFFF" height="2" style="stroke:#000000;stroke-width:1;" width="4" x="1904.1334" y="571.8173"/><text fill="#000000" font-family="Verdana" font-size="12" lengthAdjust="spacing" textLength="86.2734" x="1814.86" y="592.8818">GreetingPolicy</text></g><!--entity domain4--><g class="entity" data-entity="domain4" data-source-line="31" data-uid="ent0010" id="entity_domain4"><rect fill="#FFFFFF" height="44.584" rx="2.5" ry="2.5" style="stroke:#000000;stroke-width:1;" width="116.5293" x="1960.74" y="560.8173"/><rect fill="#FFFFFF" height="10" style="stroke:#000000;stroke-width:1;" width="15" x="2057.2693" y="565.8173"/><rect fill="#FFFFFF" height="2" style="stroke:#000000;stroke-width:1;" width="4" x="2055.2693" y="567.8173"/><rect fill="#FFFFFF" height="2" style="stroke:#000000;stroke-width:1;" width="4" x="2055.2693" y="571.8173"/><text fill="#000000" font-family="Verdana" font-size="12" lengthAdjust="spacing" textLength="76.5293" x="1975.74" y="592.8818">DomainError</text></g><!--entity input_port--><g class="entity" data-entity="input_port" data-source-line="41" data-uid="ent0015" id="entity_input_port"><ellipse cx="2069" cy="968.5973" fill="#87CEEB" rx="8" ry="8" style="stroke:#000000;stroke-width:1;"/><text fill="#000000" font-family="Verdana" font-size="14" lengthAdjust="spacing" textLength="173.0859" x="1982.457" y="999.6725">CreateGreetingInputPort</text></g><!--entity output_port--><g class="entity" data-entity="output_port" data-source-line="46" data-uid="ent0017" id="entity_output_port"><ellipse cx="931" cy="583.1073" fill="#87CEEB" rx="8" ry="8" style="stroke:#000000;stroke-width:1;"/><text fill="#000000" font-family="Verdana" font-size="14" lengthAdjust="spacing" textLength="76.9248" x="892.5376" y="614.1825">OutputPort</text></g><!--entity error_port--><g class="entity" data-entity="error_port" data-source-line="47" data-uid="ent0018" id="entity_error_port"><ellipse cx="1076" cy="583.1073" fill="#87CEEB" rx="8" ry="8" style="stroke:#000000;stroke-width:1;"/><text fill="#000000" font-family="Verdana" font-size="14" lengthAdjust="spacing" textLength="112.1982" x="1019.9009" y="614.1825">ErrorOutputPort</text></g><!--entity service_port--><g class="entity" data-entity="service_port" data-source-line="48" data-uid="ent0019" id="entity_service_port"><ellipse cx="1239" cy="583.1073" fill="#87CEEB" rx="8" ry="8" style="stroke:#000000;stroke-width:1;"/><text fill="#000000" font-family="Verdana" font-size="14" lengthAdjust="spacing" textLength="112.0957" x="1182.9521" y="614.1825">GreetingService</text></g><!--entity cli_adapter--><g class="entity" data-entity="cli_adapter" data-source-line="53" data-uid="ent0021" id="entity_cli_adapter"><rect fill="#FFFFFF" height="44.584" rx="2.5" ry="2.5" style="stroke:#000000;stroke-width:1;" width="117.4668" x="919.27" y="761.7073"/><rect fill="#FFFFFF" height="10" style="stroke:#000000;stroke-width:1;" width="15" x="1016.7368" y="766.7073"/><rect fill="#FFFFFF" height="2" style="stroke:#000000;stroke-width:1;" width="4" x="1014.7368" y="768.7073"/><rect fill="#FFFFFF" height="2" style="stroke:#000000;stroke-width:1;" width="4" x="1014.7368" y="772.7073"/><text fill="#000000" font-family="Verdana" font-size="12" lengthAdjust="spacing" textLength="77.4668" x="934.27" y="793.7718">PureAsyncCli</text></g><g class="entity" data-entity="GMN22" data-source-line="54" data-uid="ent0023" id="entity_GMN22"><path d="M1071.36,747.3973 L1071.36,779.9973 L1037.06,783.9973 L1071.36,787.9973 L1071.36,820.5946 A0,0 0 0 0 1071.36,820.5946 L1220.6334,820.5946 A0,0 0 0 0 1220.6334,820.5946 L1220.6334,757.3973 L1210.6334,747.3973 L1071.36,747.3973 A0,0 0 0 0 1071.36,747.3973" fill="#FFFFFF" style="stroke:#000000;stroke-width:1;"/><path d="M1210.6334,747.3973 L1210.6334,757.3973 L1220.6334,757.3973 L1210.6334,747.3973" fill="#FFFFFF" style="stroke:#000000;stroke-width:1;"/><text fill="#000000" font-family="Verdana" font-size="13" lengthAdjust="spacing" textLength="109.8145" x="1077.36" y="765.4671">Future adapters:</text><text fill="#000000" font-family="Verdana" font-size="13" lengthAdjust="spacing" textLength="113.3818" x="1077.36" y="781.2664">- REST Controller</text><text fill="#000000" font-family="Verdana" font-size="13" lengthAdjust="spacing" textLength="128.2734" x="1077.36" y="797.0658">- GraphQL Resolver</text><text fill="#000000" font-family="Verdana" font-size="13" lengthAdjust="spacing" textLength="97.0557" x="1077.36" y="812.8651">- gRPC Service</text></g><!--entity console--><g class="entity" data-entity="console" data-source-line="61" data-uid="ent0027" id="entity_console"><rect fill="#FFFFFF" height="44.584" rx="2.5" ry="2.5" style="stroke:#000000;stroke-width:1;" width="176.1602" x="50.92" y="366.5273"/><rect fill="#FFFFFF" height="10" style="stroke:#000000;stroke-width:1;" width="15" x="207.0802" y="371.5273"/><rect fill="#FFFFFF" height="2" style="stroke:#000000;stroke-width:1;" width="4" x="205.0802" y="373.5273"/><rect fill="#FFFFFF" height="2" style="stroke:#000000;stroke-width:1;" width="4" x="205.0802" y="377.5273"/><text fill="#000000" font-family="Verdana" font-size="12" lengthAdjust="spacing" textLength="136.1602" x="65.92" y="398.5918">ConsoleOutputAdapter</text></g><!--entity file--><g class="entity" data-entity="file" data-source-line="62" data-uid="ent0028" id="entity_file"><rect fill="#FFFFFF" height="44.584" rx="2.5" ry="2.5" style="stroke:#000000;stroke-width:1;" width="149.5586" x="262.22" y="366.5273"/><rect fill="#FFFFFF" height="10" style="stroke:#000000;stroke-width:1;" width="15" x="391.7786" y="371.5273"/><rect fill="#FFFFFF" height="2" style="stroke:#000000;stroke-width:1;" width="4" x="389.7786" y="373.5273"/><rect fill="#FFFFFF" height="2" style="stroke:#000000;stroke-width:1;" width="4" x="389.7786" y="377.5273"/><text fill="#000000" font-family="Verdana" font-size="12" lengthAdjust="spacing" textLength="109.5586" x="277.22" y="398.5918">FileOutputAdapter</text></g><!--entity buffer--><g class="entity" data-entity="buffer" data-source-line="63" data-uid="ent0029" id="entity_buffer"><rect fill="#FFFFFF" height="44.584" rx="2.5" ry="2.5" style="stroke:#000000;stroke-width:1;" width="200.7109" x="446.64" y="366.5273"/><rect fill="#FFFFFF" height="10" style="stroke:#000000;stroke-width:1;" width="15" x="627.3509" y="371.5273"/><rect fill="#FFFFFF" height="2" style="stroke:#000000;stroke-width:1;" width="4" x="625.3509" y="373.5273"/><rect fill="#FFFFFF" height="2" style="stroke:#000000;stroke-width:1;" width="4" x="625.3509" y="377.5273"/><text fill="#000000" font-family="Verdana" font-size="12" lengthAdjust="spacing" textLength="160.7109" x="461.64" y="398.5918">BufferedFileOutputAdapter</text></g><!--entity composite--><g class="entity" data-entity="composite" data-source-line="64" data-uid="ent0030" id="entity_composite"><rect fill="#FFFFFF" height="44.584" rx="2.5" ry="2.5" style="stroke:#000000;stroke-width:1;" width="192.4434" x="682.78" y="366.5273"/><rect fill="#FFFFFF" height="10" style="stroke:#000000;stroke-width:1;" width="15" x="855.2234" y="371.5273"/><rect fill="#FFFFFF" height="2" style="stroke:#000000;stroke-width:1;" width="4" x="853.2234" y="373.5273"/><rect fill="#FFFFFF" height="2" style="stroke:#000000;stroke-width:1;" width="4" x="853.2234" y="377.5273"/><text fill="#000000" font-family="Verdana" font-size="12" lengthAdjust="spacing" textLength="152.4434" x="697.78" y="398.5918">CompositeOutputAdapter</text></g><!--entity error_console--><g class="entity" data-entity="error_console" data-source-line="68" data-uid="ent0032" id="entity_error_console"><rect fill="#FFFFFF" height="44.584" rx="2.5" ry="2.5" style="stroke:#000000;stroke-width:1;" width="206.3945" x="930.8" y="366.5273"/><rect fill="#FFFFFF" height="10" style="stroke:#000000;stroke-width:1;" width="15" x="1117.1945" y="371.5273"/><rect fill="#FFFFFF" height="2" style="stroke:#000000;stroke-width:1;" width="4" x="1115.1945" y="373.5273"/><rect fill="#FFFFFF" height="2" style="stroke:#000000;stroke-width:1;" width="4" x="1115.1945" y="377.5273"/><text fill="#000000" font-family="Verdana" font-size="12" lengthAdjust="spacing" textLength="166.3945" x="945.8" y="398.5918">ConsoleErrorOutputAdapter</text></g><!--entity greeting_impl--><g class="entity" data-entity="greeting_impl" data-source-line="72" data-uid="ent0034" id="entity_greeting_impl"><rect fill="#FFFFFF" height="44.584" rx="2.5" ry="2.5" style="stroke:#000000;stroke-width:1;" width="179.5176" x="1193.24" y="366.5273"/><rect fill="#FFFFFF" height="10" style="stroke:#000000;stroke-width:1;" width="15" x="1352.7576" y="371.5273"/><rect fill="#FFFFFF" height="2" style="stroke:#000000;stroke-width:1;" width="4" x="1350.7576" y="373.5273"/><rect fill="#FFFFFF" height="2" style="stroke:#000000;stroke-width:1;" width="4" x="1350.7576" y="377.5273"/><text fill="#000000" font-family="Verdana" font-size="12" lengthAdjust="spacing" textLength="139.5176" x="1208.24" y="398.5918">DefaultGreetingService</text></g><!--entity terminal--><g class="entity" data-entity="terminal" data-source-line="78" data-uid="ent0036" id="entity_terminal"><rect fill="#FFFFFF" height="44.584" rx="2.5" ry="2.5" style="stroke:#000000;stroke-width:1;" width="124.2461" x="82.88" y="560.8173"/><rect fill="#FFFFFF" height="10" style="stroke:#000000;stroke-width:1;" width="15" x="187.1261" y="565.8173"/><rect fill="#FFFFFF" height="2" style="stroke:#000000;stroke-width:1;" width="4" x="185.1261" y="567.8173"/><rect fill="#FFFFFF" height="2" style="stroke:#000000;stroke-width:1;" width="4" x="185.1261" y="571.8173"/><text fill="#000000" font-family="Verdana" font-size="12" lengthAdjust="spacing" textLength="84.2461" x="97.88" y="592.8818">User Terminal</text></g><!--entity filesystem--><g class="entity" data-entity="filesystem" data-source-line="79" data-uid="ent0037" id="entity_filesystem"><rect fill="#FFFFFF" height="44.584" rx="2.5" ry="2.5" style="stroke:#000000;stroke-width:1;" width="109.9551" x="387.02" y="560.8173"/><rect fill="#FFFFFF" height="10" style="stroke:#000000;stroke-width:1;" width="15" x="476.9751" y="565.8173"/><rect fill="#FFFFFF" height="2" style="stroke:#000000;stroke-width:1;" width="4" x="474.9751" y="567.8173"/><rect fill="#FFFFFF" height="2" style="stroke:#000000;stroke-width:1;" width="4" x="474.9751" y="571.8173"/><text fill="#000000" font-family="Verdana" font-size="12" lengthAdjust="spacing" textLength="69.9551" x="402.02" y="592.8818">File System</text></g><!--entity stdout--><g class="entity" data-entity="stdout" data-source-line="80" data-uid="ent0038" id="entity_stdout"><rect fill="#FFFFFF" height="44.584" rx="2.5" ry="2.5" style="stroke:#000000;stroke-width:1;" width="109.0762" x="242.46" y="560.8173"/><rect fill="#FFFFFF" height="10" style="stroke:#000000;stroke-width:1;" width="15" x="331.5362" y="565.8173"/><rect fill="#FFFFFF" height="2" style="stroke:#000000;stroke-width:1;" width="4" x="329.5362" y="567.8173"/><rect fill="#FFFFFF" height="2" style="stroke:#000000;stroke-width:1;" width="4" x="329.5362" y="571.8173"/><text fill="#000000" font-family="Verdana" font-size="12" lengthAdjust="spacing" textLength="69.0762" x="257.46" y="592.8818">System.out</text></g><!--entity stderr--><g class="entity" data-entity="stderr" data-source-line="81" data-uid="ent0039" id="entity_stderr"><rect fill="#FFFFFF" height="44.584" rx="2.5" ry="2.5" style="stroke:#000000;stroke-width:1;" width="106.8613" x="531.57" y="560.8173"/><rect fill="#FFFFFF" height="10" style="stroke:#000000;stroke-width:1;" width="15" x="618.4313" y="565.8173"/><rect fill="#FFFFFF" height="2" style="stroke:#000000;stroke-width:1;" width="4" x="616.4313" y="567.8173"/><rect fill="#FFFFFF" height="2" style="stroke:#000000;stroke-width:1;" width="4" x="616.4313" y="571.8173"/><text fill="#000000" font-family="Verdana" font-size="12" lengthAdjust="spacing" textLength="66.8613" x="546.57" y="592.8818">System.err</text></g><g class="entity" data-entity="HexNote" data-source-line="109" data-uid="ent0056" id="entity_HexNote"><path d="M2132.73,133.5273 L2132.73,222.5239 L2523.2779,222.5239 L2523.2779,143.5273 L2513.2779,133.5273 L2132.73,133.5273" fill="#FFFFFF" style="stroke:#000000;stroke-width:1;"/><path d="M2513.2779,133.5273 L2513.2779,143.5273 L2523.2779,143.5273 L2513.2779,133.5273" fill="#FFFFFF" style="stroke:#000000;stroke-width:1;"/><text fill="#000000" font-family="Verdana" font-size="13" font-weight="bold" lengthAdjust="spacing" textLength="241.8076" x="2138.73" y="151.5971">Hexagonal Architecture Benefits:</text><text fill="#000000" font-family="Verdana" font-size="13" lengthAdjust="spacing" textLength="324.7905" x="2138.73" y="167.3964">&#8226; Testability - swap real adapters for test doubles</text><text fill="#000000" font-family="Verdana" font-size="13" lengthAdjust="spacing" textLength="354.6118" x="2138.73" y="183.1958">&#8226; Flexibility - add new adapters without changing core</text><text fill="#000000" font-family="Verdana" font-size="13" lengthAdjust="spacing" textLength="369.5479" x="2138.73" y="198.9951">&#8226; Isolation - business logic independent of infrastructure</text><text fill="#000000" font-family="Verdana" font-size="13" lengthAdjust="spacing" textLength="242.6328" x="2138.73" y="214.7944">&#8226; Portability - core can run anywhere</text></g><!--link usecase to domain2--><g class="link" data-entity-1="usecase" data-entity-2="domain2" data-source-line="34" data-uid="lnk11" id="link_usecase_domain2"><path d="M1583.43,411.4973 C1608.08,448.5273 1654.6859,518.5323 1679.2959,555.5123" fill="none" id="usecase-to-domain2" style="stroke:#000000;stroke-width:1;"/><polygon fill="#000000" points="1682.62,560.5073,1680.9638,550.7987,1679.8499,556.3448,1674.3038,555.2309,1682.62,560.5073" style="stroke:#000000;stroke-width:1;"/></g><!--link usecase to domain1--><g class="link" data-entity-1="usecase" data-entity-2="domain1" data-source-line="35" data-uid="lnk12" id="link_usecase_domain1"><path d="M1565.28,411.4973 C1558.92,448.5273 1547.0639,517.6136 1540.7239,554.5936" fill="none" id="usecase-to-domain1" style="stroke:#000000;stroke-width:1;"/><polygon fill="#000000" points="1539.71,560.5073,1545.1733,552.3126,1540.5549,555.5792,1537.2883,550.9608,1539.71,560.5073" style="stroke:#000000;stroke-width:1;"/></g><!--link batch to usecase--><g class="link" data-entity-1="batch" data-entity-2="usecase" data-source-line="36" data-uid="lnk13" id="link_batch_usecase"><path d="M1586.93,200.5873 C1583.1,240.5973 1575.5026,319.9347 1571.6526,360.0947" fill="none" id="batch-to-usecase" style="stroke:#000000;stroke-width:1;"/><polygon fill="#000000" points="1571.08,366.0673,1575.9206,357.4901,1571.5571,361.0901,1567.9571,356.7267,1571.08,366.0673" style="stroke:#000000;stroke-width:1;"/></g><!--link cli_adapter to input_port--><g class="link" data-entity-1="cli_adapter" data-entity-2="input_port" data-source-line="85" data-uid="lnk40" id="link_cli_adapter_input_port"><path d="M998.87,806.5473 C1013.1,819.8373 1033.09,835.9373 1054,844.5973 C1250.99,926.2173 1966.1969,962.6799 2054.1869,966.8999" fill="none" id="cli_adapter-to-input_port" style="stroke:#000000;stroke-width:1;"/><polygon fill="#000000" points="2060.18,967.1873,2051.382,962.7608,2055.1857,966.9478,2050.9987,970.7516,2060.18,967.1873" style="stroke:#000000;stroke-width:1;"/><text fill="#000000" font-family="Verdana" font-size="13" lengthAdjust="spacing" textLength="29.5166" x="1134.43" y="866.6671">uses</text></g><!--link usecase to input_port--><g class="link" data-entity-1="usecase" data-entity-2="input_port" data-source-line="86" data-uid="lnk41" id="link_usecase_input_port"><path d="M1660.76,394.1473 C1796.15,402.6673 2039.26,426.8673 2093,492.1073 C2214.92,640.1273 2103.8432,894.1042 2080.5032,943.4742" fill="none" id="usecase-to-input_port" style="stroke:#000000;stroke-width:1;stroke-dasharray:7,7;"/><polygon fill="none" points="2072.81,959.7473,2085.9276,946.0386,2075.0789,940.9098,2072.81,959.7473" style="stroke:#000000;stroke-width:1;"/><text fill="#000000" font-family="Verdana" font-size="13" lengthAdjust="spacing" textLength="76.1338" x="2148.14" y="675.4671">implements</text></g><!--link usecase to output_port--><g class="link" data-entity-1="usecase" data-entity-2="output_port" data-source-line="89" data-uid="lnk42" id="link_usecase_output_port"><path d="M1524.72,411.4473 C1489.01,427.7573 1437,448.9873 1389,459.1073 C1316.73,474.3473 1296.29,457.8973 1223,467.1073 C1185.64,471.8073 1177.34,479.2773 1140,484.1073 C1124,486.1773 1009.13,484.3173 995,492.1073 C961.08,510.8073 942.9978,550.4387 935.9678,568.6787" fill="none" id="usecase-to-output_port" style="stroke:#000000;stroke-width:1;"/><polygon fill="#000000" points="933.81,574.2773,940.7791,567.318,935.6082,569.6118,933.3143,564.4409,933.81,574.2773" style="stroke:#000000;stroke-width:1;"/><text fill="#000000" font-family="Verdana" font-size="13" lengthAdjust="spacing" textLength="29.5166" x="1224" y="481.1771">uses</text></g><!--link usecase to error_port--><g class="link" data-entity-1="usecase" data-entity-2="error_port" data-source-line="90" data-uid="lnk43" id="link_usecase_error_port"><path d="M1530.7,411.5473 C1488.28,434.3673 1417.13,468.9873 1351,484.1073 C1330.08,488.8973 1177.45,483.0273 1158,492.1073 C1119.31,510.1673 1093.5632,550.5288 1083.1832,568.9688" fill="none" id="usecase-to-error_port" style="stroke:#000000;stroke-width:1;"/><polygon fill="#000000" points="1080.24,574.1973,1088.1405,568.3166,1082.6927,569.8402,1081.1691,564.3924,1080.24,574.1973" style="stroke:#000000;stroke-width:1;"/><text fill="#000000" font-family="Verdana" font-size="13" lengthAdjust="spacing" textLength="29.5166" x="1408.01" y="481.1771">uses</text></g><!--link usecase to service_port--><g class="link" data-entity-1="usecase" data-entity-2="service_port" data-source-line="91" data-uid="lnk44" id="link_usecase_service_port"><path d="M1545.9,411.5673 C1523.4,432.0073 1487.61,462.6073 1453,484.1073 C1378.38,530.4773 1283.8064,566.058 1253.6164,576.908" fill="none" id="usecase-to-service_port" style="stroke:#000000;stroke-width:1;"/><polygon fill="#000000" points="1247.97,578.9373,1257.7925,579.6577,1252.6754,577.2462,1255.0868,572.1291,1247.97,578.9373" style="stroke:#000000;stroke-width:1;"/><text fill="#000000" font-family="Verdana" font-size="13" lengthAdjust="spacing" textLength="29.5166" x="1477.71" y="481.1771">uses</text></g><!--link console to output_port--><g class="link" data-entity-1="console" data-entity-2="output_port" data-source-line="93" data-uid="lnk45" id="link_console_output_port"><path d="M163.53,411.5073 C183.81,427.9673 214.18,449.3673 245,459.1073 C295.67,475.1273 432.66,453.3973 484,467.1073 C499.56,471.2573 500.49,479.7673 516,484.1073 C575.16,500.6773 593.62,480.7473 654,492.1073 C762.83,512.5873 871.5983,556.8704 905.5583,571.2704" fill="none" id="console-to-output_port" style="stroke:#000000;stroke-width:1;stroke-dasharray:7,7;"/><polygon fill="none" points="922.13,578.2973,907.9005,565.7465,903.216,576.7943,922.13,578.2973" style="stroke:#000000;stroke-width:1;"/><text fill="#000000" font-family="Verdana" font-size="13" lengthAdjust="spacing" textLength="76.1338" x="517" y="481.1771">implements</text></g><!--link file to output_port--><g class="link" data-entity-1="file" data-entity-2="output_port" data-source-line="94" data-uid="lnk46" id="link_file_output_port"><path d="M357.79,411.3873 C375.12,427.7773 401.35,449.1473 429,459.1073 C465.21,472.1573 564.88,456.9473 602,467.1073 C617.53,471.3573 619.19,477.7873 634,484.1073 C690.43,508.1973 861.4761,560.8659 904.8261,574.1159" fill="none" id="file-to-output_port" style="stroke:#000000;stroke-width:1;stroke-dasharray:7,7;"/><polygon fill="none" points="922.04,579.3773,906.5799,568.3779,903.0723,579.8538,922.04,579.3773" style="stroke:#000000;stroke-width:1;"/><text fill="#000000" font-family="Verdana" font-size="13" lengthAdjust="spacing" textLength="76.1338" x="635" y="481.1771">implements</text></g><!--link buffer to output_port--><g class="link" data-entity-1="buffer" data-entity-2="output_port" data-source-line="95" data-uid="lnk47" id="link_buffer_output_port"><path d="M576.46,411.4873 C599.42,427.2673 632.72,447.7773 665,459.1073 C688.31,467.2873 696.57,459.2973 720,467.1073 C731.06,470.7973 867.9077,546.9332 906.4777,568.4332" fill="none" id="buffer-to-output_port" style="stroke:#000000;stroke-width:1;stroke-dasharray:7,7;"/><polygon fill="none" points="922.2,577.1973,909.399,563.1925,903.5563,573.674,922.2,577.1973" style="stroke:#000000;stroke-width:1;"/><text fill="#000000" font-family="Verdana" font-size="13" lengthAdjust="spacing" textLength="76.1338" x="752.23" y="481.1771">implements</text></g><!--link composite to output_port--><g class="link" data-entity-1="composite" data-entity-2="output_port" data-source-line="96" data-uid="lnk48" id="link_composite_output_port"><path d="M796.14,411.4973 C829.84,454.1273 892.1489,532.9554 913.7489,560.2854" fill="none" id="composite-to-output_port" style="stroke:#000000;stroke-width:1;stroke-dasharray:7,7;"/><polygon fill="none" points="924.91,574.4073,918.4562,556.565,909.0416,564.0057,924.91,574.4073" style="stroke:#000000;stroke-width:1;"/><text fill="#000000" font-family="Verdana" font-size="13" lengthAdjust="spacing" textLength="76.1338" x="851.44" y="481.1771">implements</text></g><!--link error_console to error_port--><g class="link" data-entity-1="error_console" data-entity-2="error_port" data-source-line="97" data-uid="lnk49" id="link_error_console_error_port"><path d="M1038.74,411.4973 C1048.05,454.1273 1064.5086,529.492 1070.4786,556.822" fill="none" id="error_console-to-error_port" style="stroke:#000000;stroke-width:1;stroke-dasharray:7,7;"/><polygon fill="none" points="1074.32,574.4073,1076.3404,555.5415,1064.6169,558.1024,1074.32,574.4073" style="stroke:#000000;stroke-width:1;"/><text fill="#000000" font-family="Verdana" font-size="13" lengthAdjust="spacing" textLength="76.1338" x="1054.74" y="481.1771">implements</text></g><!--link greeting_impl to service_port--><g class="link" data-entity-1="greeting_impl" data-entity-2="service_port" data-source-line="98" data-uid="lnk50" id="link_greeting_impl_service_port"><path d="M1278.04,411.4973 C1268.28,454.1273 1251.0389,529.5317 1244.7789,556.8617" fill="none" id="greeting_impl-to-service_port" style="stroke:#000000;stroke-width:1;stroke-dasharray:7,7;"/><polygon fill="none" points="1240.76,574.4073,1250.6274,558.2013,1238.9303,555.5221,1240.76,574.4073" style="stroke:#000000;stroke-width:1;"/><text fill="#000000" font-family="Verdana" font-size="13" lengthAdjust="spacing" textLength="76.1338" x="1265.94" y="481.1771">implements</text></g><!--link terminal to cli_adapter--><g class="link" data-entity-1="terminal" data-entity-2="cli_adapter" data-source-line="101" data-uid="lnk51" id="link_terminal_cli_adapter"><path d="M163.81,605.7873 C178.76,621.5673 201.08,642.0773 225,653.3973 C464.19,766.6273 781.8803,782.0274 913.1103,783.3374" fill="none" id="terminal-to-cli_adapter" style="stroke:#000000;stroke-width:1;"/><polygon fill="#000000" points="919.11,783.3973,910.1504,779.3077,914.1102,783.3474,910.0705,787.3073,919.11,783.3973" style="stroke:#000000;stroke-width:1;"/><text fill="#000000" font-family="Verdana" font-size="13" lengthAdjust="spacing" textLength="70.8589" x="282.62" y="675.4671">commands</text></g><!--link console to stdout--><g class="link" data-entity-1="console" data-entity-2="stdout" data-source-line="102" data-uid="lnk52" id="link_console_stdout"><path d="M157.27,411.2373 C174.79,431.8473 201.9,463.9473 225,492.1073 C244.03,515.3173 261.7538,537.5246 276.2538,555.8246" fill="none" id="console-to-stdout" style="stroke:#000000;stroke-width:1;"/><polygon fill="#000000" points="279.98,560.5273,277.5259,550.9891,276.8748,556.6084,271.2556,555.9574,279.98,560.5273" style="stroke:#000000;stroke-width:1;"/><text fill="#000000" font-family="Verdana" font-size="13" lengthAdjust="spacing" textLength="39.3936" x="219.12" y="481.1771">writes</text></g><!--link error_console to stderr--><g class="link" data-entity-1="error_console" data-entity-2="stderr" data-source-line="103" data-uid="lnk53" id="link_error_console_stderr"><path d="M1018.37,411.5873 C1001,433.9073 970.78,467.6273 936,484.1073 C908.9,496.9473 898.31,485.7773 869,492.1073 C787.23,509.7773 701.0463,538.99 644.5263,559.62" fill="none" id="error_console-to-stderr" style="stroke:#000000;stroke-width:1;"/><polygon fill="#000000" points="638.89,561.6773,648.7159,562.3489,643.5869,559.9629,645.9729,554.8339,638.89,561.6773" style="stroke:#000000;stroke-width:1;"/><text fill="#000000" font-family="Verdana" font-size="13" lengthAdjust="spacing" textLength="39.3936" x="962.22" y="481.1771">writes</text></g><!--link file to filesystem--><g class="link" data-entity-1="file" data-entity-2="filesystem" data-source-line="104" data-uid="lnk54" id="link_file_filesystem"><path d="M337.51,411.3373 C338.93,431.6173 343.56,462.0873 358,484.1073 C361.32,489.1673 364.61,487.9473 369,492.1073 C391.33,513.2973 409.529,536.4491 423.379,555.5591" fill="none" id="file-to-filesystem" style="stroke:#000000;stroke-width:1;"/><polygon fill="#000000" points="426.9,560.4173,424.8573,550.7826,423.9658,556.3688,418.3797,555.4773,426.9,560.4173" style="stroke:#000000;stroke-width:1;"/><text fill="#000000" font-family="Verdana" font-size="13" lengthAdjust="spacing" textLength="39.3936" x="359" y="481.1771">writes</text></g><!--link buffer to filesystem--><g class="link" data-entity-1="buffer" data-entity-2="filesystem" data-source-line="105" data-uid="lnk55" id="link_buffer_filesystem"><path d="M498.09,411.5673 C475.76,424.2873 451.54,442.7073 439,467.1073 C423.84,496.5973 428.172,530.3697 434.102,554.5697" fill="none" id="buffer-to-filesystem" style="stroke:#000000;stroke-width:1;"/><polygon fill="#000000" points="435.53,560.3973,437.2731,550.7039,434.34,555.541,429.5029,552.6079,435.53,560.3973" style="stroke:#000000;stroke-width:1;"/><text fill="#000000" font-family="Verdana" font-size="13" lengthAdjust="spacing" textLength="39.3936" x="440" y="481.1771">writes</text></g><g class="caption" data-source-line="3"><text fill="#000000" font-family="Verdana" font-size="14" lengthAdjust="spacing" textLength="664.5078" x="928.385" y="1039.6725">Shows how the application core is isolated from external concerns through ports and adapters</text></g><!--SRC=[XLRTRjis5BxNKvnv5sild21TjwL1O21sx2v0rtfnTzKD0IqTMqGbKY0fE-vQOC-oHzkJxF175gKeIL2u5CztU7xvyNndSYmHge9naHXk2eHVyPvjfM05NAaqvmPJKok4CIobCXgOoE0gOvL1fM793FqlafI-kHImokLU0_q0dGkigWgUCYT99Pt1DVsJ1JEOmKR94l3UgfEfL8gKLfhqbAotELH7OomOInBzcOkAALOIlAoaG67WxmJeRyhIprjI5DbC5b9TNix8t6G2toyMyv-chuSnDXwBEVzbDfzFXp4XKWjxSxwOlZaVXir37DxazEVPcST9bQ5o69WMfEHs5rAO5V-2SFOg-HP7nGMTic4f3aVLzVJ1qNJK3p13UmRaleQWi5AeQO-BxM19aefKsHPXT1L9RFP6SCoYzyRz7E5_Q8GPqwX7GMp_FiqKKd7VAaHhaJ0MyXSm3RN6bDPzw9IPD6_mEbPOMuc3VnimVorBwjYExINrY1JlMUdrCuSuQ-MDbHMg7KzZqAk7eAMaP1mYp8yjnjkUAoLL17ZTzpL43EFnf6FduRvtqWNiTfjSkOhUYAesuUwzk5PyHzwTBXKlcJgyRCiNmMpbGc_xzBHzDUeMo2bPwCZ6mUtNdRrutlA7slHCepXT8LtLh6ix1ZvbtEEEzgJxz0PxI9VS7XpjtY2wLrc7rduTXUCpTAIkPtFP86r4BGtue3ujYHAlz46aiuAx9aWBVXUOoY64D0YARtC35x2e7OKsJ7RnfnZ3xNpraIwQC4eM1IgxzLQnAl_z7TmYaUJExsrlbpC8WNNAqWtawSey5KhtNls6Mjk5L-pURId8BVIIS8eFtGjQv88FmJOynaphpGOLPiFOjPF6jedlDRr5GzQ3w56kSCtqH4HHiyK7-twBWniwF9G6Rigge9TK6CUWNLQynWsh2pD4GDkmTyT9FnXnLMvU55WTjC5IjpNjIsnHe_SdD2XHgOAFg4fEsywK2H_9iKRXX6DrjFlqSYyweJlgnDfajEo8A3-DY9RX-P52qBnWCq03Wxz7AvvX4bqFHt4jrz3r8BxJIKEB9oTVUsBUf5O_D14QtDc8YJNYbhu1AswvP4WQSqSZJq8ZUF-wnqSEsZG-0_6z_GpesDNFu3fDwh6Ts29efzKyj1TeDz7pQ3PhCfuqJUJo51Vrmbx4akOrVSoKIwNh6vBk5GNJzpSWQBD5k0nQGTkHhJ3axZ4nUHscLzXnNRE2V_43pOkCo57HUeSl4qVDrBW4VK_Bv78zUMJcdQB03JVwul9qFKd- - -TVkb7Qi3Klk3bGz-azgsZ68hM6sc53L4Ek67hQwpLvwBGM1TxpenRBCX2uRtNstEGsIsdEnDPEQcuoiuetRbgs4Oo94pKNHCzGo2rFwOfaM27zq10iD_IvKKmRLJlFdR9zELjVtG2UCfe9Qq5pzM6V4_qcT81xgfB_0G00]--></g></svg>