<svg xmlns="http://www.w3.org/2000/svg" xmlns:xlink="http://www.w3.org/1999/xlink" contentStyleType="text/css" data-diagram-type="DESCRIPTION" height="930px" preserveAspectRatio="none" style="width:1649px;height:930px;background:#FFFFFF;" version="1.1" viewBox="0 0 1649 930" width="1649px" zoomAndPan="magnify"><title>Hexagonal Architecture - Ports and Adapters Pattern</title><defs/><g><g class="title" data-source-line="2"><text fill="#000000" font-family="Verdana" font-size="22" font-weight="bold" lengthAdjust="spacing" textLength="653.6943" x="493.4196" y="37.1182">Hexagonal Architecture - Ports and Adapters Pattern</text></g><!--cluster Core--><g class="cluster" data-entity="Core" data-source-line="13" data-uid="ent0002" id="cluster_Core"><rect fill="#FFE5B4" height="255.03" rx="2.5" ry="2.5" style="stroke:#000000;stroke-width:1;" width="359" x="12" y="59.7373"/><rect fill="#FFE5B4" height="10" style="stroke:#000000;stroke-width:1;" width="15" x="351" y="64.7373"/><rect fill="#FFE5B4" height="2" style="stroke:#000000;stroke-width:1;" width="4" x="349" y="66.7373"/><rect fill="#FFE5B4" height="2" style="stroke:#000000;stroke-width:1;" width="4" x="349" y="70.7373"/><text fill="#000000" font-family="Verdana" font-size="14" font-style="italic" lengthAdjust="spacing" textLength="50.6338" x="166.1831" y="86.8125">&#171;Core&#187;</text><text fill="#000000" font-family="Verdana" font-size="14" font-weight="bold" lengthAdjust="spacing" textLength="100.9395" x="141.0303" y="103.8271">Domain Core</text></g><!--cluster App--><g class="cluster" data-entity="App" data-source-line="19" data-uid="ent0006" id="cluster_App"><rect fill="#FFE5B4" height="116.01" rx="2.5" ry="2.5" style="stroke:#000000;stroke-width:1;" width="359" x="624" y="368.2573"/><rect fill="#FFE5B4" height="10" style="stroke:#000000;stroke-width:1;" width="15" x="963" y="373.2573"/><rect fill="#FFE5B4" height="2" style="stroke:#000000;stroke-width:1;" width="4" x="961" y="375.2573"/><rect fill="#FFE5B4" height="2" style="stroke:#000000;stroke-width:1;" width="4" x="961" y="379.2573"/><text fill="#000000" font-family="Verdana" font-size="14" font-style="italic" lengthAdjust="spacing" textLength="50.6338" x="778.1831" y="395.3325">&#171;Core&#187;</text><text fill="#000000" font-family="Verdana" font-size="14" font-weight="bold" lengthAdjust="spacing" textLength="136.7803" x="735.1099" y="412.3471">Application Layer</text></g><!--entity Domain Models--><g class="entity" data-entity="Domain Models" data-source-line="14" data-uid="ent0003" id="entity_Domain Models"><rect fill="#FFFFFF" height="47.0146" rx="2.5" ry="2.5" style="stroke:#000000;stroke-width:1;" width="147.4268" x="28.29" y="112.7373"/><rect fill="#FFFFFF" height="10" style="stroke:#000000;stroke-width:1;" width="15" x="155.7168" y="117.7373"/><rect fill="#FFFFFF" height="2" style="stroke:#000000;stroke-width:1;" width="4" x="153.7168" y="119.7373"/><rect fill="#FFFFFF" height="2" style="stroke:#000000;stroke-width:1;" width="4" x="153.7168" y="123.7373"/><text fill="#000000" font-family="Verdana" font-size="14" lengthAdjust="spacing" textLength="107.4268" x="43.29" y="146.8125">Domain Models</text></g><!--entity Business Rules--><g class="entity" data-entity="Business Rules" data-source-line="15" data-uid="ent0004" id="entity_Business Rules"><rect fill="#FFFFFF" height="47.0146" rx="2.5" ry="2.5" style="stroke:#000000;stroke-width:1;" width="144.3711" x="210.81" y="112.7373"/><rect fill="#FFFFFF" height="10" style="stroke:#000000;stroke-width:1;" width="15" x="335.1811" y="117.7373"/><rect fill="#FFFFFF" height="2" style="stroke:#000000;stroke-width:1;" width="4" x="333.1811" y="119.7373"/><rect fill="#FFFFFF" height="2" style="stroke:#000000;stroke-width:1;" width="4" x="333.1811" y="123.7373"/><text fill="#000000" font-family="Verdana" font-size="14" lengthAdjust="spacing" textLength="104.3711" x="225.81" y="146.8125">Business Rules</text></g><!--entity Domain Services--><g class="entity" data-entity="Domain Services" data-source-line="16" data-uid="ent0005" id="entity_Domain Services"><rect fill="#FFFFFF" height="47.0146" rx="2.5" ry="2.5" style="stroke:#000000;stroke-width:1;" width="157.8721" x="28.06" y="251.7473"/><rect fill="#FFFFFF" height="10" style="stroke:#000000;stroke-width:1;" width="15" x="165.9321" y="256.7473"/><rect fill="#FFFFFF" height="2" style="stroke:#000000;stroke-width:1;" width="4" x="163.9321" y="258.7473"/><rect fill="#FFFFFF" height="2" style="stroke:#000000;stroke-width:1;" width="4" x="163.9321" y="262.7473"/><text fill="#000000" font-family="Verdana" font-size="14" lengthAdjust="spacing" textLength="117.8721" x="43.06" y="285.8225">Domain Services</text></g><!--entity Use Cases--><g class="entity" data-entity="Use Cases" data-source-line="20" data-uid="ent0007" id="entity_Use Cases"><rect fill="#FFFFFF" height="47.0146" rx="2.5" ry="2.5" style="stroke:#000000;stroke-width:1;" width="111.9141" x="640.04" y="421.2573"/><rect fill="#FFFFFF" height="10" style="stroke:#000000;stroke-width:1;" width="15" x="731.9541" y="426.2573"/><rect fill="#FFFFFF" height="2" style="stroke:#000000;stroke-width:1;" width="4" x="729.9541" y="428.2573"/><rect fill="#FFFFFF" height="2" style="stroke:#000000;stroke-width:1;" width="4" x="729.9541" y="432.2573"/><text fill="#000000" font-family="Verdana" font-size="14" lengthAdjust="spacing" textLength="71.9141" x="655.04" y="455.3325">Use Cases</text></g><!--entity Application Services--><g class="entity" data-entity="Application Services" data-source-line="21" data-uid="ent0008" id="entity_Application Services"><rect fill="#FFFFFF" height="47.0146" rx="2.5" ry="2.5" style="stroke:#000000;stroke-width:1;" width="180.9775" x="786.51" y="421.2573"/><rect fill="#FFFFFF" height="10" style="stroke:#000000;stroke-width:1;" width="15" x="947.4875" y="426.2573"/><rect fill="#FFFFFF" height="2" style="stroke:#000000;stroke-width:1;" width="4" x="945.4875" y="428.2573"/><rect fill="#FFFFFF" height="2" style="stroke:#000000;stroke-width:1;" width="4" x="945.4875" y="432.2573"/><text fill="#000000" font-family="Verdana" font-size="14" lengthAdjust="spacing" textLength="140.9775" x="801.51" y="455.3325">Application Services</text></g><!--entity CreateOrderPort--><g class="entity" data-entity="CreateOrderPort" data-source-line="25" data-uid="ent0009" id="entity_CreateOrderPort"><ellipse cx="896" cy="275.2573" fill="#FFFFFF" rx="8" ry="8" style="stroke:#000000;stroke-width:1;"/><text fill="#000000" font-family="Verdana" font-size="14" lengthAdjust="spacing" textLength="146.084" x="822.958" y="306.3325">CreateOrderUseCase</text><text fill="#000000" font-family="Verdana" font-size="14" font-style="italic" lengthAdjust="spacing" textLength="46.4775" x="872.7612" y="255.3179">&#171;Port&#187;</text></g><!--entity GetCustomerPort--><g class="entity" data-entity="GetCustomerPort" data-source-line="26" data-uid="ent0010" id="entity_GetCustomerPort"><ellipse cx="696" cy="275.2573" fill="#FFFFFF" rx="8" ry="8" style="stroke:#000000;stroke-width:1;"/><text fill="#000000" font-family="Verdana" font-size="14" lengthAdjust="spacing" textLength="152.2842" x="619.8579" y="306.3325">GetCustomerUseCase</text><text fill="#000000" font-family="Verdana" font-size="14" font-style="italic" lengthAdjust="spacing" textLength="46.4775" x="672.7612" y="255.3179">&#171;Port&#187;</text></g><!--entity ProcessPaymentPort--><g class="entity" data-entity="ProcessPaymentPort" data-source-line="27" data-uid="ent0011" id="entity_ProcessPaymentPort"><ellipse cx="482" cy="275.2573" fill="#FFFFFF" rx="8" ry="8" style="stroke:#000000;stroke-width:1;"/><text fill="#000000" font-family="Verdana" font-size="14" lengthAdjust="spacing" textLength="174.3027" x="394.8486" y="306.3325">ProcessPaymentUseCase</text><text fill="#000000" font-family="Verdana" font-size="14" font-style="italic" lengthAdjust="spacing" textLength="46.4775" x="458.7612" y="255.3179">&#171;Port&#187;</text></g><!--entity CustomerRepoPort--><g class="entity" data-entity="CustomerRepoPort" data-source-line="30" data-uid="ent0012" id="entity_CustomerRepoPort"><ellipse cx="360" cy="577.2673" fill="#FFFFFF" rx="8" ry="8" style="stroke:#000000;stroke-width:1;"/><text fill="#000000" font-family="Verdana" font-size="14" lengthAdjust="spacing" textLength="142.5771" x="288.7114" y="608.3425">CustomerRepository</text><text fill="#000000" font-family="Verdana" font-size="14" font-style="italic" lengthAdjust="spacing" textLength="46.4775" x="336.7612" y="557.3279">&#171;Port&#187;</text></g><!--entity OrderRepoPort--><g class="entity" data-entity="OrderRepoPort" data-source-line="31" data-uid="ent0013" id="entity_OrderRepoPort"><ellipse cx="544" cy="577.2673" fill="#FFFFFF" rx="8" ry="8" style="stroke:#000000;stroke-width:1;"/><text fill="#000000" font-family="Verdana" font-size="14" lengthAdjust="spacing" textLength="114.7344" x="486.6328" y="608.3425">OrderRepository</text><text fill="#000000" font-family="Verdana" font-size="14" font-style="italic" lengthAdjust="spacing" textLength="46.4775" x="520.7612" y="557.3279">&#171;Port&#187;</text></g><!--entity PaymentPort--><g class="entity" data-entity="PaymentPort" data-source-line="32" data-uid="ent0014" id="entity_PaymentPort"><ellipse cx="713" cy="577.2673" fill="#FFFFFF" rx="8" ry="8" style="stroke:#000000;stroke-width:1;"/><text fill="#000000" font-family="Verdana" font-size="14" lengthAdjust="spacing" textLength="122.7393" x="651.6304" y="608.3425">PaymentGateway</text><text fill="#000000" font-family="Verdana" font-size="14" font-style="italic" lengthAdjust="spacing" textLength="46.4775" x="689.7612" y="557.3279">&#171;Port&#187;</text></g><!--entity NotificationPort--><g class="entity" data-entity="NotificationPort" data-source-line="33" data-uid="ent0015" id="entity_NotificationPort"><ellipse cx="1303" cy="577.2673" fill="#FFFFFF" rx="8" ry="8" style="stroke:#000000;stroke-width:1;"/><text fill="#000000" font-family="Verdana" font-size="14" lengthAdjust="spacing" textLength="131.1543" x="1237.4229" y="608.3425">NotificationService</text><text fill="#000000" font-family="Verdana" font-size="14" font-style="italic" lengthAdjust="spacing" textLength="46.4775" x="1279.7612" y="557.3279">&#171;Port&#187;</text></g><!--entity EventPort--><g class="entity" data-entity="EventPort" data-source-line="34" data-uid="ent0016" id="entity_EventPort"><ellipse cx="877" cy="577.2673" fill="#FFFFFF" rx="8" ry="8" style="stroke:#000000;stroke-width:1;"/><text fill="#000000" font-family="Verdana" font-size="14" lengthAdjust="spacing" textLength="104.0293" x="824.9854" y="608.3425">EventPublisher</text><text fill="#000000" font-family="Verdana" font-size="14" font-style="italic" lengthAdjust="spacing" textLength="46.4775" x="853.7612" y="557.3279">&#171;Port&#187;</text></g><!--entity RestAdapter--><g class="entity" data-entity="RestAdapter" data-source-line="37" data-uid="ent0017" id="entity_RestAdapter"><rect fill="#E5B4FF" height="64.0293" rx="2.5" ry="2.5" style="stroke:#000000;stroke-width:1;" width="150.8242" x="620.59" y="104.2273"/><rect fill="#E5B4FF" height="10" style="stroke:#000000;stroke-width:1;" width="15" x="751.4142" y="109.2273"/><rect fill="#E5B4FF" height="2" style="stroke:#000000;stroke-width:1;" width="4" x="749.4142" y="111.2273"/><rect fill="#E5B4FF" height="2" style="stroke:#000000;stroke-width:1;" width="4" x="749.4142" y="115.2273"/><text fill="#000000" font-family="Verdana" font-size="14" font-style="italic" lengthAdjust="spacing" textLength="73.2881" x="654.3581" y="138.3025">&#171;Adapter&#187;</text><text fill="#000000" font-family="Verdana" font-size="14" lengthAdjust="spacing" textLength="110.8242" x="635.59" y="155.3171">REST Controller</text></g><!--entity GraphQLAdapter--><g class="entity" data-entity="GraphQLAdapter" data-source-line="38" data-uid="ent0018" id="entity_GraphQLAdapter"><rect fill="#E5B4FF" height="64.0293" rx="2.5" ry="2.5" style="stroke:#000000;stroke-width:1;" width="166.8613" x="1018.57" y="104.2273"/><rect fill="#E5B4FF" height="10" style="stroke:#000000;stroke-width:1;" width="15" x="1165.4313" y="109.2273"/><rect fill="#E5B4FF" height="2" style="stroke:#000000;stroke-width:1;" width="4" x="1163.4313" y="111.2273"/><rect fill="#E5B4FF" height="2" style="stroke:#000000;stroke-width:1;" width="4" x="1163.4313" y="115.2273"/><text fill="#000000" font-family="Verdana" font-size="14" font-style="italic" lengthAdjust="spacing" textLength="73.2881" x="1060.3566" y="138.3025">&#171;Adapter&#187;</text><text fill="#000000" font-family="Verdana" font-size="14" lengthAdjust="spacing" textLength="126.8613" x="1033.57" y="155.3171">GraphQL Resolver</text></g><!--entity CLIAdapter--><g class="entity" data-entity="CLIAdapter" data-source-line="39" data-uid="ent0019" id="entity_CLIAdapter"><rect fill="#E5B4FF" height="64.0293" rx="2.5" ry="2.5" style="stroke:#000000;stroke-width:1;" width="139.8799" x="412.06" y="104.2273"/><rect fill="#E5B4FF" height="10" style="stroke:#000000;stroke-width:1;" width="15" x="531.9399" y="109.2273"/><rect fill="#E5B4FF" height="2" style="stroke:#000000;stroke-width:1;" width="4" x="529.9399" y="111.2273"/><rect fill="#E5B4FF" height="2" style="stroke:#000000;stroke-width:1;" width="4" x="529.9399" y="115.2273"/><text fill="#000000" font-family="Verdana" font-size="14" font-style="italic" lengthAdjust="spacing" textLength="73.2881" x="440.3559" y="138.3025">&#171;Adapter&#187;</text><text fill="#000000" font-family="Verdana" font-size="14" lengthAdjust="spacing" textLength="99.8799" x="427.06" y="155.3171">CLI Command</text></g><!--entity MessageAdapter--><g class="entity" data-entity="MessageAdapter" data-source-line="40" data-uid="ent0020" id="entity_MessageAdapter"><rect fill="#E5B4FF" height="64.0293" rx="2.5" ry="2.5" style="stroke:#000000;stroke-width:1;" width="176.3359" x="806.83" y="104.2273"/><rect fill="#E5B4FF" height="10" style="stroke:#000000;stroke-width:1;" width="15" x="963.1659" y="109.2273"/><rect fill="#E5B4FF" height="2" style="stroke:#000000;stroke-width:1;" width="4" x="961.1659" y="111.2273"/><rect fill="#E5B4FF" height="2" style="stroke:#000000;stroke-width:1;" width="4" x="961.1659" y="115.2273"/><text fill="#000000" font-family="Verdana" font-size="14" font-style="italic" lengthAdjust="spacing" textLength="73.2881" x="853.3539" y="138.3025">&#171;Adapter&#187;</text><text fill="#000000" font-family="Verdana" font-size="14" lengthAdjust="spacing" textLength="136.3359" x="821.83" y="155.3171">Message Consumer</text></g><!--entity JPAAdapter--><g class="entity" data-entity="JPAAdapter" data-source-line="43" data-uid="ent0021" id="entity_JPAAdapter"><rect fill="#E5B4FF" height="64.0293" rx="2.5" ry="2.5" style="stroke:#000000;stroke-width:1;" width="144.002" x="272" y="696.7573"/><rect fill="#E5B4FF" height="10" style="stroke:#000000;stroke-width:1;" width="15" x="396.002" y="701.7573"/><rect fill="#E5B4FF" height="2" style="stroke:#000000;stroke-width:1;" width="4" x="394.002" y="703.7573"/><rect fill="#E5B4FF" height="2" style="stroke:#000000;stroke-width:1;" width="4" x="394.002" y="707.7573"/><text fill="#000000" font-family="Verdana" font-size="14" font-style="italic" lengthAdjust="spacing" textLength="73.2881" x="302.3569" y="730.8325">&#171;Adapter&#187;</text><text fill="#000000" font-family="Verdana" font-size="14" lengthAdjust="spacing" textLength="104.002" x="287" y="747.8471">JPA Repository</text></g><!--entity MongoAdapter--><g class="entity" data-entity="MongoAdapter" data-source-line="44" data-uid="ent0022" id="entity_MongoAdapter"><rect fill="#E5B4FF" height="64.0293" rx="2.5" ry="2.5" style="stroke:#000000;stroke-width:1;" width="186.3848" x="450.81" y="696.7573"/><rect fill="#E5B4FF" height="10" style="stroke:#000000;stroke-width:1;" width="15" x="617.1948" y="701.7573"/><rect fill="#E5B4FF" height="2" style="stroke:#000000;stroke-width:1;" width="4" x="615.1948" y="703.7573"/><rect fill="#E5B4FF" height="2" style="stroke:#000000;stroke-width:1;" width="4" x="615.1948" y="707.7573"/><text fill="#000000" font-family="Verdana" font-size="14" font-style="italic" lengthAdjust="spacing" textLength="73.2881" x="502.3583" y="730.8325">&#171;Adapter&#187;</text><text fill="#000000" font-family="Verdana" font-size="14" lengthAdjust="spacing" textLength="146.3848" x="465.81" y="747.8471">MongoDB Repository</text></g><!--entity StripeAdapter--><g class="entity" data-entity="StripeAdapter" data-source-line="45" data-uid="ent0023" id="entity_StripeAdapter"><rect fill="#E5B4FF" height="64.0293" rx="2.5" ry="2.5" style="stroke:#000000;stroke-width:1;" width="142.1426" x="1300.93" y="696.7573"/><rect fill="#E5B4FF" height="10" style="stroke:#000000;stroke-width:1;" width="15" x="1423.0726" y="701.7573"/><rect fill="#E5B4FF" height="2" style="stroke:#000000;stroke-width:1;" width="4" x="1421.0726" y="703.7573"/><rect fill="#E5B4FF" height="2" style="stroke:#000000;stroke-width:1;" width="4" x="1421.0726" y="707.7573"/><text fill="#000000" font-family="Verdana" font-size="14" font-style="italic" lengthAdjust="spacing" textLength="73.2881" x="1330.3572" y="730.8325">&#171;Adapter&#187;</text><text fill="#000000" font-family="Verdana" font-size="14" lengthAdjust="spacing" textLength="102.1426" x="1315.93" y="747.8471">Stripe Adapter</text></g><!--entity EmailAdapter--><g class="entity" data-entity="EmailAdapter" data-source-line="46" data-uid="ent0024" id="entity_EmailAdapter"><rect fill="#E5B4FF" height="64.0293" rx="2.5" ry="2.5" style="stroke:#000000;stroke-width:1;" width="165.0635" x="1478.47" y="696.7573"/><rect fill="#E5B4FF" height="10" style="stroke:#000000;stroke-width:1;" width="15" x="1623.5335" y="701.7573"/><rect fill="#E5B4FF" height="2" style="stroke:#000000;stroke-width:1;" width="4" x="1621.5335" y="703.7573"/><rect fill="#E5B4FF" height="2" style="stroke:#000000;stroke-width:1;" width="4" x="1621.5335" y="707.7573"/><text fill="#000000" font-family="Verdana" font-size="14" font-style="italic" lengthAdjust="spacing" textLength="73.2881" x="1519.3577" y="730.8325">&#171;Adapter&#187;</text><text fill="#000000" font-family="Verdana" font-size="14" lengthAdjust="spacing" textLength="125.0635" x="1493.47" y="747.8471">SendGrid Adapter</text></g><!--entity KafkaAdapter--><g class="entity" data-entity="KafkaAdapter" data-source-line="47" data-uid="ent0025" id="entity_KafkaAdapter"><rect fill="#E5B4FF" height="64.0293" rx="2.5" ry="2.5" style="stroke:#000000;stroke-width:1;" width="148.8213" x="672.59" y="696.7573"/><rect fill="#E5B4FF" height="10" style="stroke:#000000;stroke-width:1;" width="15" x="801.4113" y="701.7573"/><rect fill="#E5B4FF" height="2" style="stroke:#000000;stroke-width:1;" width="4" x="799.4113" y="703.7573"/><rect fill="#E5B4FF" height="2" style="stroke:#000000;stroke-width:1;" width="4" x="799.4113" y="707.7573"/><text fill="#000000" font-family="Verdana" font-size="14" font-style="italic" lengthAdjust="spacing" textLength="73.2881" x="705.3566" y="730.8325">&#171;Adapter&#187;</text><text fill="#000000" font-family="Verdana" font-size="14" lengthAdjust="spacing" textLength="108.8213" x="687.59" y="747.8471">Kafka Publisher</text></g><!--entity Postgres--><g class="entity" data-entity="Postgres" data-source-line="50" data-uid="ent0026" id="entity_Postgres"><path d="M293.42,860.7673 C293.42,850.7673 344.005,850.7673 344.005,850.7673 C344.005,850.7673 394.5899,850.7673 394.5899,860.7673 L394.5899,903.7966 C394.5899,913.7966 344.005,913.7966 344.005,913.7966 C344.005,913.7966 293.42,913.7966 293.42,903.7966 L293.42,860.7673" fill="#FFFFFF" style="stroke:#000000;stroke-width:1;"/><path d="M293.42,860.7673 C293.42,870.7673 344.005,870.7673 344.005,870.7673 C344.005,870.7673 394.5899,870.7673 394.5899,860.7673" fill="none" style="stroke:#000000;stroke-width:1;"/><text fill="#000000" font-family="Verdana" font-size="14" font-style="italic" lengthAdjust="spacing" textLength="76.125" x="305.9425" y="888.8425">&#171;External&#187;</text><text fill="#000000" font-family="Verdana" font-size="14" lengthAdjust="spacing" textLength="81.1699" x="303.42" y="905.8571">PostgreSQL</text></g><!--entity Mongo--><g class="entity" data-entity="Mongo" data-source-line="51" data-uid="ent0027" id="entity_Mongo"><path d="M494.94,860.7673 C494.94,850.7673 544.0025,850.7673 544.0025,850.7673 C544.0025,850.7673 593.065,850.7673 593.065,860.7673 L593.065,903.7966 C593.065,913.7966 544.0025,913.7966 544.0025,913.7966 C544.0025,913.7966 494.94,913.7966 494.94,903.7966 L494.94,860.7673" fill="#FFFFFF" style="stroke:#000000;stroke-width:1;"/><path d="M494.94,860.7673 C494.94,870.7673 544.0025,870.7673 544.0025,870.7673 C544.0025,870.7673 593.065,870.7673 593.065,860.7673" fill="none" style="stroke:#000000;stroke-width:1;"/><text fill="#000000" font-family="Verdana" font-size="14" font-style="italic" lengthAdjust="spacing" textLength="76.125" x="505.94" y="888.8425">&#171;External&#187;</text><text fill="#000000" font-family="Verdana" font-size="14" lengthAdjust="spacing" textLength="66.7598" x="510.6226" y="905.8571">MongoDB</text></g><!--entity Stripe--><g class="entity" data-entity="Stripe" data-source-line="52" data-uid="ent0028" id="entity_Stripe"><path d="M1326.8931,858.7115 C1330.2052,852.3568 1333.6536,852.081 1338.3179,857.3866 C1340.8134,852.0647 1346.8604,851.2214 1350.573,855.8941 C1353.1894,850.869 1358.0275,850.3192 1361.5964,854.7882 C1364.3655,849.5267 1368.8256,849.2486 1372.7072,853.4871 C1376.5846,847.5642 1381.0173,846.9598 1384.9692,853.4134 C1389.226,848.6687 1395.0449,850.2091 1396.7523,856.2092 C1401.2854,851.8918 1405.5856,852.1546 1407.5546,858.7479 C1411.5528,853.5704 1416.9809,854.8263 1419.6283,860.2817 C1426.323,862.5774 1427.0146,866.579 1422.1048,871.4483 C1430.0381,874.0102 1430.2012,878.3458 1425.2111,884.0846 C1430.1488,889.4949 1427.594,893.0327 1421.9788,895.4389 C1425.6737,900.4877 1425.8937,905.8056 1418.267,907.3162 C1416.1593,912.687 1410.7396,914.5626 1407.049,908.93 C1404.8005,914.862 1400.098,916.6724 1395.6007,911.1843 C1393.0175,916.7713 1388.634,917.3434 1385.1572,912.0413 C1382.3643,918.0825 1377.0323,919.1594 1372.3235,914.2963 C1368.6765,918.2828 1363.847,916.9534 1362.0957,912.1024 C1357.3303,918.3073 1352.9346,917.7546 1349.2476,911.0308 C1345.1855,914.863 1340.3785,913.21 1338.7289,908.1704 C1334.2709,913.1795 1330.4097,912.6902 1326.6665,907.3383 C1321.4802,903.5716 1320.2922,899.6542 1326.1848,895.4391 C1318.8164,892.9819 1318.1279,888.7594 1322.5369,882.881 C1317.9609,878.3041 1319.5759,873.255 1325.462,871.3267 C1320.2198,866.498 1319.672,862.1263 1326.8931,858.7115" fill="#FFFFFF" style="stroke:#000000;stroke-width:1;"/><text fill="#000000" font-family="Verdana" font-size="14" font-style="italic" lengthAdjust="spacing" textLength="76.125" x="1333.94" y="879.3425">&#171;External&#187;</text><text fill="#000000" font-family="Verdana" font-size="14" lengthAdjust="spacing" textLength="70.793" x="1336.606" y="896.3571">Stripe API</text></g><!--entity SendGrid--><g class="entity" data-entity="SendGrid" data-source-line="53" data-uid="ent0029" id="entity_SendGrid"><path d="M1509.0601,858.7638 C1513.1735,851.4387 1517.7507,851.907 1522.7252,857.8788 C1526.0986,851.4551 1529.7581,849.7039 1535.3823,855.5584 C1538.1085,848.9715 1544.1908,848.2093 1548.5201,853.8336 C1551.448,847.2067 1557.3866,845.726 1561.8941,852.224 C1567.3476,846.925 1572.096,848.8819 1574.6119,855.3885 C1580.0857,847.8254 1584.7146,849.8637 1589.318,856.3026 C1593.4732,850.9339 1599.2216,851.5736 1602.5554,857.2841 C1607.3511,850.8111 1612.6303,851.402 1615.7231,858.8903 C1622.7494,861.6884 1624.7181,866.4787 1618.6386,872.157 C1623.6529,875.2875 1623.6558,878.8331 1619.6044,882.7873 C1625.2596,886.5081 1625.1397,891.2741 1619.2349,894.6342 C1623.5399,899.1419 1622.2967,904.9368 1616.0467,906.6422 C1613.9239,913.8342 1608.2091,916.0224 1602.8597,909.8184 C1598.9535,917.191 1593.7076,916.9912 1589.1317,910.4805 C1585.7287,917.843 1579.8795,918.6475 1575.2769,911.6369 C1571.7084,917.0268 1566.6031,917.6944 1562.9588,911.719 C1558.7198,917.9132 1553.4148,917.2999 1549.4998,911.3596 C1543.9715,917.5069 1538.8733,917.2861 1535.3938,909.3129 C1530.8501,915.3387 1526.2206,914.5491 1522.5032,908.4355 C1518.3356,915.0832 1511.6159,915.7242 1508.1503,907.7466 C1502.5246,904.3471 1501.1613,899.6013 1506.8981,895.0787 C1501.2978,892.5724 1500.1129,888.3536 1505.3017,884.2559 C1498.4048,879.8051 1499.5215,874.5482 1505.9151,870.6988 C1500.5475,865.609 1502.0107,860.5815 1509.0601,858.7638" fill="#FFFFFF" style="stroke:#000000;stroke-width:1;"/><text fill="#000000" font-family="Verdana" font-size="14" font-style="italic" lengthAdjust="spacing" textLength="76.125" x="1522.9344" y="879.3425">&#171;External&#187;</text><text fill="#000000" font-family="Verdana" font-size="14" lengthAdjust="spacing" textLength="93.7139" x="1514.14" y="896.3571">SendGrid API</text></g><!--entity Kafka--><g class="entity" data-entity="Kafka" data-source-line="54" data-uid="ent0030" id="entity_Kafka"><path d="M859.94,860.2673 L948.065,860.2673 C953.065,860.2673 953.065,882.282 953.065,882.282 C953.065,882.282 953.065,904.2966 948.065,904.2966 L859.94,904.2966 C854.94,904.2966 854.94,882.282 854.94,882.282 C854.94,882.282 854.94,860.2673 859.94,860.2673" fill="#FFFFFF" style="stroke:#000000;stroke-width:1;"/><path d="M948.065,860.2673 C943.065,860.2673 943.065,882.282 943.065,882.282 C943.065,904.2966 948.065,904.2966 948.065,904.2966" fill="none" style="stroke:#000000;stroke-width:1;"/><text fill="#000000" font-family="Verdana" font-size="14" font-style="italic" lengthAdjust="spacing" textLength="76.125" x="860.94" y="879.3425">&#171;External&#187;</text><text fill="#000000" font-family="Verdana" font-size="14" lengthAdjust="spacing" textLength="39.7236" x="879.1407" y="896.3571">Kafka</text></g><g class="entity" data-entity="GMN54" data-source-line="90" data-uid="ent0055" id="entity_GMN54"><path d="M856.36,684.2673 L856.36,773.2639 A0,0 0 0 0 856.36,773.2639 L1011.59,773.2639 L926.22,859.8373 L1019.59,773.2639 L1265.6461,773.2639 A0,0 0 0 0 1265.6461,773.2639 L1265.6461,694.2673 L1255.6461,684.2673 L856.36,684.2673 A0,0 0 0 0 856.36,684.2673" fill="#FFFFFF" style="stroke:#000000;stroke-width:1;"/><path d="M1255.6461,684.2673 L1255.6461,694.2673 L1265.6461,694.2673 L1255.6461,684.2673" fill="#FFFFFF" style="stroke:#000000;stroke-width:1;"/><text fill="#000000" font-family="Verdana" font-size="13" font-weight="bold" lengthAdjust="spacing" textLength="172.1357" x="862.36" y="702.3371">Hexagonal Architecture</text><text fill="#000000" font-family="Verdana" font-size="13" lengthAdjust="spacing" textLength="294.9502" x="862.36" y="718.1364">&#8226; Core business logic is isolated in the center</text><text fill="#000000" font-family="Verdana" font-size="13" lengthAdjust="spacing" textLength="342.3354" x="862.36" y="733.9358">&#8226; Ports define interfaces for external communication</text><text fill="#000000" font-family="Verdana" font-size="13" lengthAdjust="spacing" textLength="388.2861" x="862.36" y="749.7351">&#8226; Adapters implement ports to connect to external systems</text><text fill="#000000" font-family="Verdana" font-size="13" lengthAdjust="spacing" textLength="237.2119" x="862.36" y="765.5344">&#8226; Dependencies always point inward</text></g><!--link RestAdapter to CreateOrderPort--><g class="link" data-entity-1="RestAdapter" data-entity-2="CreateOrderPort" data-source-line="57" data-uid="lnk31" id="link_RestAdapter_CreateOrderPort"><path d="M741.88,168.6773 C790.09,201.6973 857.36,247.7865 882.25,264.8365" fill="none" id="RestAdapter-to-CreateOrderPort" style="stroke:#000000;stroke-width:1;"/><polygon fill="#000000" points="887.2,268.2273,882.0356,259.8411,883.075,265.4016,877.5145,266.4411,887.2,268.2273" style="stroke:#000000;stroke-width:1;"/><text fill="#000000" font-family="Verdana" font-size="13" lengthAdjust="spacing" textLength="28.4883" x="808.97" y="212.3271">calls</text></g><!--link RestAdapter to GetCustomerPort--><g class="link" data-entity-1="RestAdapter" data-entity-2="GetCustomerPort" data-source-line="58" data-uid="lnk32" id="link_RestAdapter_GetCustomerPort"><path d="M696,168.6773 C696,200.5973 696,241.8773 696,260.4073" fill="none" id="RestAdapter-to-GetCustomerPort" style="stroke:#000000;stroke-width:1;"/><polygon fill="#000000" points="696,266.4073,700,257.4073,696,261.4073,692,257.4073,696,266.4073" style="stroke:#000000;stroke-width:1;"/><text fill="#000000" font-family="Verdana" font-size="13" lengthAdjust="spacing" textLength="28.4883" x="697" y="212.3271">calls</text></g><!--link GraphQLAdapter to CreateOrderPort--><g class="link" data-entity-1="GraphQLAdapter" data-entity-2="CreateOrderPort" data-source-line="59" data-uid="lnk33" id="link_GraphQLAdapter_CreateOrderPort"><path d="M1054.74,168.6773 C1004.85,201.8573 934.9859,248.3246 909.6959,265.1446" fill="none" id="GraphQLAdapter-to-CreateOrderPort" style="stroke:#000000;stroke-width:1;"/><polygon fill="#000000" points="904.7,268.4673,914.4091,266.8138,908.8633,265.6984,909.9788,260.1526,904.7,268.4673" style="stroke:#000000;stroke-width:1;"/><text fill="#000000" font-family="Verdana" font-size="13" lengthAdjust="spacing" textLength="28.4883" x="1006.18" y="212.3271">calls</text></g><!--link CLIAdapter to ProcessPaymentPort--><g class="link" data-entity-1="CLIAdapter" data-entity-2="ProcessPaymentPort" data-source-line="60" data-uid="lnk34" id="link_CLIAdapter_ProcessPaymentPort"><path d="M482,168.6773 C482,200.5973 482,241.8773 482,260.4073" fill="none" id="CLIAdapter-to-ProcessPaymentPort" style="stroke:#000000;stroke-width:1;"/><polygon fill="#000000" points="482,266.4073,486,257.4073,482,261.4073,478,257.4073,482,266.4073" style="stroke:#000000;stroke-width:1;"/><text fill="#000000" font-family="Verdana" font-size="13" lengthAdjust="spacing" textLength="28.4883" x="483" y="212.3271">calls</text></g><!--link MessageAdapter to CreateOrderPort--><g class="link" data-entity-1="MessageAdapter" data-entity-2="CreateOrderPort" data-source-line="61" data-uid="lnk35" id="link_MessageAdapter_CreateOrderPort"><path d="M895.23,168.6773 C895.46,200.5973 895.7679,241.8775 895.8979,260.4075" fill="none" id="MessageAdapter-to-CreateOrderPort" style="stroke:#000000;stroke-width:1;"/><polygon fill="#000000" points="895.94,266.4073,899.8768,257.3795,895.9049,261.4074,891.877,257.4356,895.94,266.4073" style="stroke:#000000;stroke-width:1;"/><text fill="#000000" font-family="Verdana" font-size="13" lengthAdjust="spacing" textLength="28.4883" x="896.56" y="212.3271">calls</text></g><!--reverse link CreateOrderPort to Use Cases--><g class="link" data-entity-1="CreateOrderPort" data-entity-2="Use Cases" data-source-line="64" data-uid="lnk36" id="link_CreateOrderPort_Use Cases"><path d="M872.3345,292.4271 C853.2945,305.4271 821.66,326.8473 782,352.2573 C776.29,355.9173 774.18,355.8773 769,360.2573 C747.53,378.4173 726.81,403.0173 712.96,420.8173" fill="none" id="CreateOrderPort-backto-Use Cases" style="stroke:#000000;stroke-width:1;stroke-dasharray:7,7;"/><polygon fill="none" points="887.2,282.2773,868.9513,287.4719,875.7178,297.3822,887.2,282.2773" style="stroke:#000000;stroke-width:1;"/><text fill="#000000" font-family="Verdana" font-size="13" lengthAdjust="spacing" textLength="76.1338" x="808.19" y="349.3271">implements</text></g><!--reverse link GetCustomerPort to Use Cases--><g class="link" data-entity-1="GetCustomerPort" data-entity-2="Use Cases" data-source-line="65" data-uid="lnk37" id="link_GetCustomerPort_Use Cases"><path d="M696,301.8873 C696,325.9573 696,382.8973 696,421.0073" fill="none" id="GetCustomerPort-backto-Use Cases" style="stroke:#000000;stroke-width:1;stroke-dasharray:7,7;"/><polygon fill="none" points="696,283.8873,690,301.8873,702,301.8873,696,283.8873" style="stroke:#000000;stroke-width:1;"/><text fill="#000000" font-family="Verdana" font-size="13" lengthAdjust="spacing" textLength="76.1338" x="697" y="349.3271">implements</text></g><!--reverse link ProcessPaymentPort to Use Cases--><g class="link" data-entity-1="ProcessPaymentPort" data-entity-2="Use Cases" data-source-line="66" data-uid="lnk38" id="link_ProcessPaymentPort_Use Cases"><path d="M505.0922,294.3346 C534.9122,317.6846 617.84,382.5873 666.97,421.0373" fill="none" id="ProcessPaymentPort-backto-Use Cases" style="stroke:#000000;stroke-width:1;stroke-dasharray:7,7;"/><polygon fill="none" points="490.92,283.2373,501.3931,299.0586,508.7913,289.6105,490.92,283.2373" style="stroke:#000000;stroke-width:1;"/><text fill="#000000" font-family="Verdana" font-size="13" lengthAdjust="spacing" textLength="76.1338" x="577.19" y="349.3271">implements</text></g><!--link Use Cases to CustomerRepoPort--><g class="link" data-entity-1="Use Cases" data-entity-2="CustomerRepoPort" data-source-line="69" data-uid="lnk39" id="link_Use Cases_CustomerRepoPort"><path d="M639.76,467.6073 C556.63,499.8973 412.2629,555.9749 374.4429,570.6649" fill="none" id="Use Cases-to-CustomerRepoPort" style="stroke:#000000;stroke-width:1;"/><polygon fill="#000000" points="368.85,572.8373,378.6876,573.3073,373.5108,571.027,375.7911,565.8501,368.85,572.8373" style="stroke:#000000;stroke-width:1;"/><text fill="#000000" font-family="Verdana" font-size="13" lengthAdjust="spacing" textLength="29.5166" x="549.12" y="514.3371">uses</text></g><!--link Use Cases to OrderRepoPort--><g class="link" data-entity-1="Use Cases" data-entity-2="OrderRepoPort" data-source-line="70" data-uid="lnk40" id="link_Use Cases_OrderRepoPort"><path d="M669.52,468.4973 C634.65,498.4373 579.6925,545.629 557.3625,564.799" fill="none" id="Use Cases-to-OrderRepoPort" style="stroke:#000000;stroke-width:1;"/><polygon fill="#000000" points="552.81,568.7073,562.2443,565.8799,556.6038,565.4504,557.0333,559.8099,552.81,568.7073" style="stroke:#000000;stroke-width:1;"/><text fill="#000000" font-family="Verdana" font-size="13" lengthAdjust="spacing" textLength="29.5166" x="630.1" y="514.3371">uses</text></g><!--link Use Cases to PaymentPort--><g class="link" data-entity-1="Use Cases" data-entity-2="PaymentPort" data-source-line="71" data-uid="lnk41" id="link_Use Cases_PaymentPort"><path d="M698.96,468.4973 C702.84,498.2973 708.6737,543.0877 711.2037,562.4777" fill="none" id="Use Cases-to-PaymentPort" style="stroke:#000000;stroke-width:1;"/><polygon fill="#000000" points="711.98,568.4273,714.7819,558.9854,711.3331,563.4693,706.8492,560.0205,711.98,568.4273" style="stroke:#000000;stroke-width:1;"/><text fill="#000000" font-family="Verdana" font-size="13" lengthAdjust="spacing" textLength="29.5166" x="706.01" y="514.3371">uses</text></g><!--link Application Services to NotificationPort--><g class="link" data-entity-1="Application Services" data-entity-2="NotificationPort" data-source-line="72" data-uid="lnk42" id="link_Application Services_NotificationPort"><path d="M951.69,468.6473 C1059.55,501.6873 1245.0334,558.5091 1288.3634,571.7891" fill="none" id="Application Services-to-NotificationPort" style="stroke:#000000;stroke-width:1;"/><polygon fill="#000000" points="1294.1,573.5473,1286.6672,567.0856,1289.3195,572.0821,1284.3229,574.7344,1294.1,573.5473" style="stroke:#000000;stroke-width:1;"/><text fill="#000000" font-family="Verdana" font-size="13" lengthAdjust="spacing" textLength="29.5166" x="1103.77" y="514.3371">uses</text></g><!--link Application Services to EventPort--><g class="link" data-entity-1="Application Services" data-entity-2="EventPort" data-source-line="73" data-uid="lnk43" id="link_Application Services_EventPort"><path d="M877,468.4973 C877,498.2973 877,543.0373 877,562.4273" fill="none" id="Application Services-to-EventPort" style="stroke:#000000;stroke-width:1;"/><polygon fill="#000000" points="877,568.4273,881,559.4273,877,563.4273,873,559.4273,877,568.4273" style="stroke:#000000;stroke-width:1;"/><text fill="#000000" font-family="Verdana" font-size="13" lengthAdjust="spacing" textLength="29.5166" x="878" y="514.3371">uses</text></g><!--reverse link CustomerRepoPort to JPAAdapter--><g class="link" data-entity-1="CustomerRepoPort" data-entity-2="JPAAdapter" data-source-line="76" data-uid="lnk44" id="link_CustomerRepoPort_JPAAdapter"><path d="M357.2706,603.7857 C355.1306,623.8457 351.14,661.0673 347.36,696.4073" fill="none" id="CustomerRepoPort-backto-JPAAdapter" style="stroke:#000000;stroke-width:1;stroke-dasharray:7,7;"/><polygon fill="none" points="359.18,585.8873,351.3044,603.1493,363.2367,604.4222,359.18,585.8873" style="stroke:#000000;stroke-width:1;"/><text fill="#000000" font-family="Verdana" font-size="13" lengthAdjust="spacing" textLength="76.1338" x="354.43" y="651.3371">implements</text></g><!--reverse link OrderRepoPort to MongoAdapter--><g class="link" data-entity-1="OrderRepoPort" data-entity-2="MongoAdapter" data-source-line="77" data-uid="lnk45" id="link_OrderRepoPort_MongoAdapter"><path d="M544,603.8873 C544,623.9473 544,661.0673 544,696.4073" fill="none" id="OrderRepoPort-backto-MongoAdapter" style="stroke:#000000;stroke-width:1;stroke-dasharray:7,7;"/><polygon fill="none" points="544,585.8873,538,603.8873,550,603.8873,544,585.8873" style="stroke:#000000;stroke-width:1;"/><text fill="#000000" font-family="Verdana" font-size="13" lengthAdjust="spacing" textLength="76.1338" x="545" y="651.3371">implements</text></g><!--reverse link PaymentPort to StripeAdapter--><g class="link" data-entity-1="PaymentPort" data-entity-2="StripeAdapter" data-source-line="78" data-uid="lnk46" id="link_PaymentPort_StripeAdapter"><path d="M708.8601,603.7606 C706.4801,619.3306 706.41,636.8173 726,654.2673 C772.28,695.4873 1223.01,668.6873 1283,684.2673 C1294.15,687.1673 1305.56,691.5273 1316.33,696.3873" fill="none" id="PaymentPort-backto-StripeAdapter" style="stroke:#000000;stroke-width:1;stroke-dasharray:7,7;"/><polygon fill="none" points="711.58,585.9673,702.929,602.854,714.7913,604.6672,711.58,585.9673" style="stroke:#000000;stroke-width:1;"/><text fill="#000000" font-family="Verdana" font-size="13" lengthAdjust="spacing" textLength="76.1338" x="727" y="651.3371">implements</text></g><!--reverse link NotificationPort to EmailAdapter--><g class="link" data-entity-1="NotificationPort" data-entity-2="EmailAdapter" data-source-line="79" data-uid="lnk47" id="link_NotificationPort_EmailAdapter"><path d="M1327.4537,592.4428 C1357.7537,610.0028 1443.16,659.4873 1506.87,696.4073" fill="none" id="NotificationPort-backto-EmailAdapter" style="stroke:#000000;stroke-width:1;stroke-dasharray:7,7;"/><polygon fill="none" points="1311.88,583.4173,1324.4452,597.6341,1330.4622,587.2516,1311.88,583.4173" style="stroke:#000000;stroke-width:1;"/><text fill="#000000" font-family="Verdana" font-size="13" lengthAdjust="spacing" textLength="76.1338" x="1433" y="651.3371">implements</text></g><!--reverse link EventPort to KafkaAdapter--><g class="link" data-entity-1="EventPort" data-entity-2="KafkaAdapter" data-source-line="80" data-uid="lnk48" id="link_EventPort_KafkaAdapter"><path d="M858.564,599.4747 C841.134,619.5347 805.01,661.0673 774.28,696.4073" fill="none" id="EventPort-backto-KafkaAdapter" style="stroke:#000000;stroke-width:1;stroke-dasharray:7,7;"/><polygon fill="none" points="870.37,585.8873,854.0348,595.5394,863.0931,603.4101,870.37,585.8873" style="stroke:#000000;stroke-width:1;"/><text fill="#000000" font-family="Verdana" font-size="13" lengthAdjust="spacing" textLength="76.1338" x="824.64" y="651.3371">implements</text></g><!--link JPAAdapter to Postgres--><g class="link" data-entity-1="JPAAdapter" data-entity-2="Postgres" data-source-line="83" data-uid="lnk49" id="link_JPAAdapter_Postgres"><path d="M344,761.1673 C344,787.3373 344,818.4273 344,844.4473" fill="none" id="JPAAdapter-to-Postgres" style="stroke:#000000;stroke-width:1;"/><polygon fill="#000000" points="344,850.4473,348,841.4473,344,845.4473,340,841.4473,344,850.4473" style="stroke:#000000;stroke-width:1;"/><text fill="#000000" font-family="Verdana" font-size="13" lengthAdjust="spacing" textLength="29.5166" x="345" y="817.3371">uses</text></g><!--link MongoAdapter to Mongo--><g class="link" data-entity-1="MongoAdapter" data-entity-2="Mongo" data-source-line="84" data-uid="lnk50" id="link_MongoAdapter_Mongo"><path d="M544,761.1673 C544,787.3373 544,818.4273 544,844.4473" fill="none" id="MongoAdapter-to-Mongo" style="stroke:#000000;stroke-width:1;"/><polygon fill="#000000" points="544,850.4473,548,841.4473,544,845.4473,540,841.4473,544,850.4473" style="stroke:#000000;stroke-width:1;"/><text fill="#000000" font-family="Verdana" font-size="13" lengthAdjust="spacing" textLength="29.5166" x="545" y="817.3371">uses</text></g><!--link StripeAdapter to Stripe--><g class="link" data-entity-1="StripeAdapter" data-entity-2="Stripe" data-source-line="85" data-uid="lnk51" id="link_StripeAdapter_Stripe"><path d="M1372,761.1673 C1372,787.1673 1372,817.9373 1372,843.9273" fill="none" id="StripeAdapter-to-Stripe" style="stroke:#000000;stroke-width:1;"/><polygon fill="#000000" points="1372,849.9273,1376,840.9273,1372,844.9273,1368,840.9273,1372,849.9273" style="stroke:#000000;stroke-width:1;"/><text fill="#000000" font-family="Verdana" font-size="13" lengthAdjust="spacing" textLength="28.4883" x="1373" y="817.3371">calls</text></g><!--link EmailAdapter to SendGrid--><g class="link" data-entity-1="EmailAdapter" data-entity-2="SendGrid" data-source-line="86" data-uid="lnk52" id="link_EmailAdapter_SendGrid"><path d="M1561,761.1673 C1561,787.1673 1561,817.9373 1561,843.9273" fill="none" id="EmailAdapter-to-SendGrid" style="stroke:#000000;stroke-width:1;"/><polygon fill="#000000" points="1561,849.9273,1565,840.9273,1561,844.9273,1557,840.9273,1561,849.9273" style="stroke:#000000;stroke-width:1;"/><text fill="#000000" font-family="Verdana" font-size="13" lengthAdjust="spacing" textLength="28.4883" x="1562" y="817.3371">calls</text></g><!--link KafkaAdapter to Kafka--><g class="link" data-entity-1="KafkaAdapter" data-entity-2="Kafka" data-source-line="87" data-uid="lnk53" id="link_KafkaAdapter_Kafka"><path d="M779.53,761.1673 C810.25,790.8073 851.1419,830.2815 877.7919,855.9915" fill="none" id="KafkaAdapter-to-Kafka" style="stroke:#000000;stroke-width:1;"/><polygon fill="#000000" points="882.11,860.1573,878.41,851.0299,878.5116,856.6858,872.8556,856.7873,882.11,860.1573" style="stroke:#000000;stroke-width:1;"/><text fill="#000000" font-family="Verdana" font-size="13" lengthAdjust="spacing" textLength="78.6602" x="840.56" y="817.3371">publishes to</text></g><!--SRC=[XLVDRXit4BxlKqpTGnmNJWzDBaPWm99brwtIA59xAdgWTqSIOIwv9RbEXBH0dwMFrYVfS4ckoDNAiWrO7duVEVDnVkXlx1PhX4OmBWlBhK3u4R-mZP9Cm8qkjznYQLkDS0aBfQq19YkugLXZKHjOC4k_PL6O9ouRfbaDfQeR9L5Q-5e0VKrO-RJHgfNLL0cbtx-VAetNr_3jtTtitUJjECOTvJ2JjxDtTtVZcE24WxcDZi5cNvo7J3ZSxG_ks-EKhb1t69W88XL_5yKhc9BZg67hDO3pMrMJCl0Tt3IDu2MpNCdNnJx6im1mGPq1Czq7w8Fq4lmUG1zKXSByuMsJrd29ni2o5HYD0RX2_SnBPoMdaiCI9s3ETgYx8ybwSE9l1c7AJBznoinsVmKFicbjkDppMysVkTp0YbVkokUujgyBxZHPinBXRAgHMVpejACZt0a-whtPRGJn1bFgFTffQwogSsfYFafTQ4N-cWNRrQH3oivNyWqeje-j7GI7CiQsv9lj8BZWnn8RPRXLUkU3Iyn7NUnY7n1xs_70lD_t9DvdvacZeIIKNvJbwt2LuIOxNce_IfuzkwtRHy7DDcIFDms5yqdHr_dvGlEQwTttCJ_wbPWZIPOkPwjVgGwarKg8SCeIZGqSI4etfTrhrcm_pHrKYUV02yOJrEdyWGwiQ-fD_iRc3oSO7oXfs0QTcwQjms71E4RTvz9UanMMIbPH5KgiH9IGNCc9ForkO90VP3hbff8RTJiP4Zlp2UhAQjvWzAcZUTCf7ihgNlCgOyweBOaJn9_P-eb1dboTxOYUiJ73QcSirgQec6MFLDXK5ihOZSRLfxal2V-dWRIR9_2WqbwQ75WArLPxGHOFYHZZo5w2Y8s63FrdYos6kFVHvXWtKfIKD4E79MLLsdcBj40kBwyFEkeLb4o8GzomVKRSe71UsZAf5WSRQQaHEIYGbpPD0kzdaOlPZQdYO5pyzUPDEhDe5rut0fq35CfmGho87fi8Bn8IJxlXJKwcOwD8YLt4mt5m1Iqj7k3oxdy4bAli8QEpkaCVzFZJb7rx3zWat6576qP-EFYSa4dNodGSJ3i7pVfKVal3wybxKuOzd6oEaBMa39zCD0VCUj2ncn-Hug0_9O5tLnUxKX0s2zO1V2iAgtbyRZaqe5WmMJpTUcmw4P45uX2-trn14tgkSxiefB8kYPlkuNTnCVwSlxZebl_xvr-Vz8_nDIhKXfV03VqeGKLQ0Rr7wPy4ABkNSS_oJweArqI3_eLXO4tlQOpAqNIeMnckhgVs8lTN0Kst6ubUXlkWZ_qk9kWV-RVOa3GeIqxdCK4F9qCRa0_ansUcgu9MmQbG_0y0]--></g></svg>