<svg xmlns="http://www.w3.org/2000/svg" xmlns:xlink="http://www.w3.org/1999/xlink" contentStyleType="text/css" data-diagram-type="CLASS" height="588px" preserveAspectRatio="none" style="width:4781px;height:588px;background:#FFFFFF;" version="1.1" viewBox="0 0 4781 588" width="4781px" zoomAndPan="magnify"><title>Infrastructure Layer - Class Diagram</title><defs/><g><g class="title" data-source-line="2"><text fill="#000000" font-family="Verdana" font-size="22" font-weight="bold" lengthAdjust="spacing" textLength="454.6953" x="2158.6537" y="37.1182">Infrastructure Layer - Class Diagram</text></g><!--cluster Infrastructure Layer--><g class="cluster" data-entity="Infrastructure Layer" data-source-line="4" data-uid="ent0002" id="cluster_Infrastructure Layer"><path d="M13.5,103.3173 L175.2266,103.3173 A3.75,3.75 0 0 1 177.7266,105.8173 L184.7266,126.332 L3936.5,126.332 A2.5,2.5 0 0 1 3939,128.832 L3939,434.9073 A2.5,2.5 0 0 1 3936.5,437.4073 L13.5,437.4073 A2.5,2.5 0 0 1 11,434.9073 L11,105.8173 A2.5,2.5 0 0 1 13.5,103.3173" fill="#FFFFFF" style="stroke:#000000;stroke-width:1;"/><line style="stroke:#000000;stroke-width:1;" x1="11" x2="184.7266" y1="126.332" y2="126.332"/><text fill="#000000" font-family="Verdana" font-size="14" font-weight="bold" lengthAdjust="spacing" textLength="160.7266" x="15" y="119.3925">Infrastructure Layer</text></g><!--cluster adapter--><g class="cluster" data-entity="adapter" data-source-line="6" data-uid="ent0005" id="cluster_adapter"><path d="M37.5,147.3173 L99.415,147.3173 A3.75,3.75 0 0 1 101.915,149.8173 L108.915,170.332 L1608.5,170.332 A2.5,2.5 0 0 1 1611,172.832 L1611,410.9073 A2.5,2.5 0 0 1 1608.5,413.4073 L37.5,413.4073 A2.5,2.5 0 0 1 35,410.9073 L35,149.8173 A2.5,2.5 0 0 1 37.5,147.3173" fill="#FFFFFF" style="stroke:#000000;stroke-width:1;"/><line style="stroke:#000000;stroke-width:1;" x1="35" x2="108.915" y1="170.332" y2="170.332"/><text fill="#000000" font-family="Verdana" font-size="14" font-weight="bold" lengthAdjust="spacing" textLength="60.915" x="39" y="163.3925">adapter</text></g><!--cluster output--><g class="cluster" data-entity="output" data-source-line="5" data-uid="ent0003" id="cluster_output"><path d="M61.5,191.3173 L114.6035,191.3173 A3.75,3.75 0 0 1 117.1035,193.8173 L124.1035,214.332 L1584.5,214.332 A2.5,2.5 0 0 1 1587,216.832 L1587,386.9073 A2.5,2.5 0 0 1 1584.5,389.4073 L61.5,389.4073 A2.5,2.5 0 0 1 59,386.9073 L59,193.8173 A2.5,2.5 0 0 1 61.5,191.3173" fill="#FFFFFF" style="stroke:#000000;stroke-width:1;"/><line style="stroke:#000000;stroke-width:1;" x1="59" x2="124.1035" y1="214.332" y2="214.332"/><text fill="#000000" font-family="Verdana" font-size="14" font-weight="bold" lengthAdjust="spacing" textLength="52.1035" x="63" y="207.3925">output</text></g><!--cluster service--><g class="cluster" data-entity="service" data-source-line="33" data-uid="ent0008" id="cluster_service"><path d="M1637.5,208.3373 L1694.4795,208.3373 A3.75,3.75 0 0 1 1696.9795,210.8373 L1703.9795,231.352 L2224.5,231.352 A2.5,2.5 0 0 1 2227,233.852 L2227,369.8973 A2.5,2.5 0 0 1 2224.5,372.3973 L1637.5,372.3973 A2.5,2.5 0 0 1 1635,369.8973 L1635,210.8373 A2.5,2.5 0 0 1 1637.5,208.3373" fill="#FFFFFF" style="stroke:#000000;stroke-width:1;"/><line style="stroke:#000000;stroke-width:1;" x1="1635" x2="1703.9795" y1="231.352" y2="231.352"/><text fill="#000000" font-family="Verdana" font-size="14" font-weight="bold" lengthAdjust="spacing" textLength="55.9795" x="1639" y="224.4125">service</text></g><!--cluster Future Adapters--><g class="cluster" data-entity="Future Adapters" data-source-line="43" data-uid="ent0010" id="cluster_Future Adapters"><path d="M2286.7485,239.1861 C2330.7228,177.1403 2366.7328,189.0649 2405.8008,244.1719 C2433.9866,185.0609 2478.7169,184.6692 2514.3522,236.9097 C2552.3779,183.2761 2606.1812,173.3993 2639.1396,242.0794 C2664.3905,188.9734 2709.3814,180.0951 2749.2921,225.7245 C2786.2375,175.2027 2837.5146,173.1832 2863.8563,236.4048 C2896.8537,173.7478 2949.1451,186.078 2979.7817,238.7773 C3014.103,176.9355 3056.586,181.8588 3093.9109,235.8171 C3125.5,174.4844 3176.1548,171.8795 3213.1833,230.4042 C3254.089,168.7656 3303.0231,177.5618 3333.1692,240.7468 C3363.6764,181.6254 3409.0822,190.6597 3444.3706,235.6396 C3478.5336,185.802 3526.436,176.0311 3561.6587,234.4919 C3592.2414,188.6604 3626.3015,172.7267 3665.2387,225.7369 C3709.62,174.7344 3748.4316,183.4989 3778.6237,240.6169 C3806.4647,184.9202 3863.5939,177.9242 3899,232.3473 C3901.5311,231.6641 3903.4559,232.9994 3903.0841,235.775 C3916.6883,242.1342 3919.4065,253.5027 3905.9346,262.7257 C3921.6893,270.3098 3926.1557,282.761 3910.1577,294.5576 C3925.7957,303.6514 3923.8966,318.291 3907.614,324.6902 C3917.4345,342.2447 3909.9618,351.9587 3892,355.3773 C3895.9738,356.3657 3896.2795,358.3843 3894.0093,361.4415 C3870.5306,419.8184 3815.8433,426.5304 3784.0343,369.3708 C3748.068,417.2581 3700.2697,426.0147 3667.4781,365.9433 C3630.2106,429.4146 3579.6963,429.375 3546.7887,361.9242 C3528.1823,419.303 3483.0219,424.8694 3447.3981,378.1762 C3410.1264,426.0858 3354.1191,431.5121 3326.956,367.316 C3293.7334,425.0731 3240.9943,442.4786 3199.4447,375.8525 C3168.9982,421.1008 3127.4004,414.8199 3099.13,373.3356 C3061.5361,438.3317 3003.8165,438.0648 2968.4709,371.1093 C2943.2775,415.8516 2901.324,418.2583 2870.2456,377.902 C2824.9469,425.8984 2784.7181,421.5111 2756.0259,360.5013 C2718.3151,416.5796 2672.8753,429.5525 2633.0255,362.6405 C2599.7936,417.8491 2555.6069,422.1441 2512.4291,374.277 C2481.4039,423.9951 2431.5632,428.5572 2405.9556,368.9984 C2361.0347,428.7414 2293.649,411.7601 2267,348.3773 C2269.6361,346.5708 2271.1879,347.7813 2271.8137,350.5107 C2258.8388,345.3376 2256.4063,332.2921 2267.5629,323.3432 C2252.992,318.0701 2246.4396,308.0514 2259.3461,294.8535 C2246.5552,282.5848 2249.5112,271.9892 2265.5692,265.9269 C2245.694,251.1992 2254.7701,231.9505 2274,225.3473 C2284.6334,222.3902 2290.7914,228.6231 2286.7485,239.1861" fill="#FFFFFF" style="stroke:#000000;stroke-width:1;"/><text fill="#000000" font-family="Verdana" font-size="14" font-weight="bold" lengthAdjust="spacing" textLength="127.21" x="3019.395" y="244.4225">Future Adapters</text></g><!--cluster Application Layer--><g class="cluster" data-entity="Application Layer" data-source-line="61" data-uid="ent0014" id="cluster_Application Layer"><rect fill="#FFFFFF" height="96" rx="2.5" ry="2.5" style="stroke:#000000;stroke-width:1;" width="312" x="1031" y="486.4073"/><text fill="#000000" font-family="Verdana" font-size="14" font-weight="bold" lengthAdjust="spacing" textLength="136.7803" x="1118.6099" y="502.4825">Application Layer</text></g><!--cluster Domain Layer--><g class="cluster" data-entity="Domain Layer" data-source-line="66" data-uid="ent0017" id="cluster_Domain Layer"><rect fill="#FFFFFF" height="96" rx="2.5" ry="2.5" style="stroke:#000000;stroke-width:1;" width="798" x="1628" y="486.4073"/><text fill="#000000" font-family="Verdana" font-size="14" font-weight="bold" lengthAdjust="spacing" textLength="108.582" x="1972.709" y="502.4825">Domain Layer</text></g><!--class ConsoleOutputAdapter--><g class="entity" data-entity="ConsoleOutputAdapter" data-source-line="6" data-uid="ent0004" id="entity_ConsoleOutputAdapter"><rect fill="#FFFFFF" height="95.0439" rx="2.5" ry="2.5" style="stroke:#000000;stroke-width:1;" width="475.1719" x="75.41" y="252.8373"/><ellipse cx="229.8192" cy="266.8373" fill="#FFFFFF" rx="9" ry="9" style="stroke:#000000;stroke-width:1;"/><path d="M232.2923,272.9804 Q231.7113,273.2792 231.0721,273.4286 Q230.4329,273.578 229.7274,273.578 Q227.2205,273.578 225.9007,271.9262 Q224.5809,270.2743 224.5809,267.1532 Q224.5809,264.0238 225.9007,262.372 Q227.2205,260.7201 229.7274,260.7201 Q230.4329,260.7201 231.0804,260.8695 Q231.7279,261.0189 232.2923,261.3178 L232.2923,264.0404 Q231.6615,263.4594 231.068,263.1896 Q230.4745,262.9198 229.8436,262.9198 Q228.4989,262.9198 227.8141,263.9865 Q227.1292,265.0531 227.1292,267.1532 Q227.1292,269.245 227.8141,270.3117 Q228.4989,271.3783 229.8436,271.3783 Q230.4745,271.3783 231.068,271.1085 Q231.6615,270.8388 232.2923,270.2577 Z " fill="#000000"/><text fill="#000000" font-family="Verdana" font-size="14" lengthAdjust="spacing" textLength="158.8535" x="247.3192" y="272.4052">ConsoleOutputAdapter</text><line style="stroke:#000000;stroke-width:1;" x1="76.41" x2="549.5819" y1="280.8373" y2="280.8373"/><ellipse cx="86.41" cy="294.8446" fill="#FFFFFF" rx="3" ry="3" style="stroke:#000000;stroke-width:1;"/><text fill="#000000" font-family="Verdana" font-size="14" lengthAdjust="spacing" textLength="451.1719" x="93.41" y="298.9125">suspend send(message: String): Either&lt;ApplicationError, Unit&gt;</text><line style="stroke:#000000;stroke-width:1;" x1="76.41" x2="549.5819" y1="305.852" y2="305.852"/><rect fill="none" height="6" style="stroke:#000000;stroke-width:1;" width="6" x="83.41" y="316.8593"/><text fill="#000000" font-family="Verdana" font-size="14" lengthAdjust="spacing" textLength="200.4297" x="93.41" y="323.9271">validates message not blank</text><rect fill="none" height="6" style="stroke:#000000;stroke-width:1;" width="6" x="83.41" y="333.8739"/><text fill="#000000" font-family="Verdana" font-size="14" lengthAdjust="spacing" textLength="207.6484" x="93.41" y="340.9418">handles exceptions gracefully</text></g><!--class FileOutputAdapter--><g class="entity" data-entity="FileOutputAdapter" data-source-line="13" data-uid="ent0006" id="entity_FileOutputAdapter"><rect fill="#FFFFFF" height="129.0732" rx="2.5" ry="2.5" style="stroke:#000000;stroke-width:1;" width="475.1719" x="585.41" y="235.8273"/><ellipse cx="755.3368" cy="249.8273" fill="#FFFFFF" rx="9" ry="9" style="stroke:#000000;stroke-width:1;"/><path d="M757.8099,255.9704 Q757.2288,256.2692 756.5897,256.4186 Q755.9505,256.568 755.245,256.568 Q752.7381,256.568 751.4183,254.9162 Q750.0985,253.2643 750.0985,250.1432 Q750.0985,247.0138 751.4183,245.362 Q752.7381,243.7101 755.245,243.7101 Q755.9505,243.7101 756.598,243.8595 Q757.2454,244.0089 757.8099,244.3078 L757.8099,247.0304 Q757.179,246.4494 756.5855,246.1796 Q755.992,245.9098 755.3612,245.9098 Q754.0164,245.9098 753.3316,246.9765 Q752.6468,248.0431 752.6468,250.1432 Q752.6468,252.235 753.3316,253.3017 Q754.0164,254.3683 755.3612,254.3683 Q755.992,254.3683 756.5855,254.0985 Q757.179,253.8288 757.8099,253.2477 Z " fill="#000000"/><text fill="#000000" font-family="Verdana" font-size="14" lengthAdjust="spacing" textLength="127.8184" x="772.8368" y="255.3952">FileOutputAdapter</text><line style="stroke:#000000;stroke-width:1;" x1="586.41" x2="1059.5819" y1="263.8273" y2="263.8273"/><rect fill="none" height="6" style="stroke:#000000;stroke-width:1;" width="6" x="593.41" y="274.8346"/><text fill="#000000" font-family="Verdana" font-size="14" lengthAdjust="spacing" textLength="105.9365" x="603.41" y="281.9025">filePath: String</text><ellipse cx="596.41" cy="294.8493" fill="#FFFFFF" rx="3" ry="3" style="stroke:#000000;stroke-width:1;"/><text fill="#000000" font-family="Verdana" font-size="14" lengthAdjust="spacing" textLength="451.1719" x="603.41" y="298.9171">suspend send(message: String): Either&lt;ApplicationError, Unit&gt;</text><line style="stroke:#000000;stroke-width:1;" x1="586.41" x2="1059.5819" y1="305.8566" y2="305.8566"/><rect fill="none" height="6" style="stroke:#000000;stroke-width:1;" width="6" x="593.41" y="316.8639"/><text fill="#000000" font-family="Verdana" font-size="14" lengthAdjust="spacing" textLength="180.4688" x="603.41" y="323.9318">creates parent directories</text><rect fill="none" height="6" style="stroke:#000000;stroke-width:1;" width="6" x="593.41" y="333.8786"/><text fill="#000000" font-family="Verdana" font-size="14" lengthAdjust="spacing" textLength="103.8721" x="603.41" y="340.9464">appends to file</text><rect fill="none" height="6" style="stroke:#000000;stroke-width:1;" width="6" x="593.41" y="350.8932"/><text fill="#000000" font-family="Verdana" font-size="14" lengthAdjust="spacing" textLength="212.1875" x="603.41" y="357.9611">async I/O with Dispatchers.IO</text></g><!--class CompositeOutputAdapter--><g class="entity" data-entity="CompositeOutputAdapter" data-source-line="22" data-uid="ent0007" id="entity_CompositeOutputAdapter"><rect fill="#FFFFFF" height="146.0879" rx="2.5" ry="2.5" style="stroke:#000000;stroke-width:1;" width="475.1719" x="1095.41" y="227.3173"/><ellipse cx="1240.3206" cy="241.3173" fill="#FFFFFF" rx="9" ry="9" style="stroke:#000000;stroke-width:1;"/><path d="M1242.7938,247.4604 Q1242.2127,247.7592 1241.5736,247.9086 Q1240.9344,248.058 1240.2288,248.058 Q1237.722,248.058 1236.4022,246.4062 Q1235.0824,244.7543 1235.0824,241.6332 Q1235.0824,238.5038 1236.4022,236.852 Q1237.722,235.2001 1240.2288,235.2001 Q1240.9344,235.2001 1241.5819,235.3495 Q1242.2293,235.4989 1242.7938,235.7978 L1242.7938,238.5204 Q1242.1629,237.9394 1241.5694,237.6696 Q1240.9759,237.3998 1240.3451,237.3998 Q1239.0003,237.3998 1238.3155,238.4665 Q1237.6307,239.5331 1237.6307,241.6332 Q1237.6307,243.725 1238.3155,244.7917 Q1239.0003,245.8583 1240.3451,245.8583 Q1240.9759,245.8583 1241.5694,245.5885 Q1242.1629,245.3188 1242.7938,244.7377 Z " fill="#000000"/><text fill="#000000" font-family="Verdana" font-size="14" lengthAdjust="spacing" textLength="177.8506" x="1257.8206" y="246.8852">CompositeOutputAdapter</text><line style="stroke:#000000;stroke-width:1;" x1="1096.41" x2="1569.5819" y1="255.3173" y2="255.3173"/><rect fill="none" height="6" style="stroke:#000000;stroke-width:1;" width="6" x="1103.41" y="266.3246"/><text fill="#000000" font-family="Verdana" font-size="14" lengthAdjust="spacing" textLength="188.8291" x="1113.41" y="273.3925">outputs: List&lt;OutputPort&gt;</text><ellipse cx="1106.41" cy="286.3393" fill="#FFFFFF" rx="3" ry="3" style="stroke:#000000;stroke-width:1;"/><text fill="#000000" font-family="Verdana" font-size="14" lengthAdjust="spacing" textLength="451.1719" x="1113.41" y="290.4071">suspend send(message: String): Either&lt;ApplicationError, Unit&gt;</text><ellipse cx="1106.41" cy="303.3539" fill="#FFFFFF" rx="3" ry="3" style="stroke:#000000;stroke-width:1;"/><text fill="#000000" font-family="Verdana" font-size="14" lengthAdjust="spacing" text-decoration="underline" textLength="309.0391" x="1113.41" y="307.4218">createDefault(filePath: String?): OutputPort</text><line style="stroke:#000000;stroke-width:1;" x1="1096.41" x2="1569.5819" y1="314.3613" y2="314.3613"/><rect fill="none" height="6" style="stroke:#000000;stroke-width:1;" width="6" x="1103.41" y="325.3686"/><text fill="#000000" font-family="Verdana" font-size="14" lengthAdjust="spacing" textLength="231.1641" x="1113.41" y="332.4364">sends to all outputs concurrently</text><rect fill="none" height="6" style="stroke:#000000;stroke-width:1;" width="6" x="1103.41" y="342.3832"/><text fill="#000000" font-family="Verdana" font-size="14" lengthAdjust="spacing" textLength="119.9092" x="1113.41" y="349.4511">collects all errors</text><rect fill="none" height="6" style="stroke:#000000;stroke-width:1;" width="6" x="1103.41" y="359.3979"/><text fill="#000000" font-family="Verdana" font-size="14" lengthAdjust="spacing" textLength="263.0537" x="1113.41" y="366.4657">uses coroutines for parallel execution</text></g><!--class DefaultGreetingService--><g class="entity" data-entity="DefaultGreetingService" data-source-line="34" data-uid="ent0009" id="entity_DefaultGreetingService"><rect fill="#FFFFFF" height="112.0586" rx="2.5" ry="2.5" style="stroke:#000000;stroke-width:1;" width="560.1631" x="1650.92" y="244.3373"/><ellipse cx="1845.8663" cy="258.3373" fill="#FFFFFF" rx="9" ry="9" style="stroke:#000000;stroke-width:1;"/><path d="M1848.3394,264.4804 Q1847.7584,264.7792 1847.1192,264.9286 Q1846.4801,265.078 1845.7745,265.078 Q1843.2677,265.078 1841.9478,263.4262 Q1840.628,261.7743 1840.628,258.6532 Q1840.628,255.5238 1841.9478,253.872 Q1843.2677,252.2201 1845.7745,252.2201 Q1846.4801,252.2201 1847.1275,252.3695 Q1847.775,252.5189 1848.3394,252.8178 L1848.3394,255.5404 Q1847.7086,254.9594 1847.1151,254.6896 Q1846.5216,254.4198 1845.8907,254.4198 Q1844.546,254.4198 1843.8612,255.4865 Q1843.1763,256.5531 1843.1763,258.6532 Q1843.1763,260.745 1843.8612,261.8117 Q1844.546,262.8783 1845.8907,262.8783 Q1846.5216,262.8783 1847.1151,262.6085 Q1847.7086,262.3388 1848.3394,261.7577 Z " fill="#000000"/><text fill="#000000" font-family="Verdana" font-size="14" lengthAdjust="spacing" textLength="162.7705" x="1863.3663" y="263.9052">DefaultGreetingService</text><line style="stroke:#000000;stroke-width:1;" x1="1651.92" x2="2210.0831" y1="272.3373" y2="272.3373"/><ellipse cx="1661.92" cy="286.3446" fill="#FFFFFF" rx="3" ry="3" style="stroke:#000000;stroke-width:1;"/><text fill="#000000" font-family="Verdana" font-size="14" lengthAdjust="spacing" textLength="536.1631" x="1668.92" y="290.4125">suspend createGreeting(name: PersonName): Either&lt;DomainError, String&gt;</text><line style="stroke:#000000;stroke-width:1;" x1="1651.92" x2="2210.0831" y1="297.352" y2="297.352"/><rect fill="none" height="6" style="stroke:#000000;stroke-width:1;" width="6" x="1658.92" y="308.3593"/><text fill="#000000" font-family="Verdana" font-size="14" lengthAdjust="spacing" textLength="213.5342" x="1668.92" y="315.4271">uses GreetingPolicy for format</text><rect fill="none" height="6" style="stroke:#000000;stroke-width:1;" width="6" x="1658.92" y="325.3739"/><text fill="#000000" font-family="Verdana" font-size="14" lengthAdjust="spacing" textLength="174.959" x="1668.92" y="332.4418">validates greeting length</text><rect fill="none" height="6" style="stroke:#000000;stroke-width:1;" width="6" x="1658.92" y="342.3886"/><text fill="#000000" font-family="Verdana" font-size="14" lengthAdjust="spacing" textLength="188.4941" x="1668.92" y="349.4564">returns formatted greeting</text></g><!--class DatabaseOutputAdapter--><g class="entity" data-entity="DatabaseOutputAdapter" data-source-line="44" data-uid="ent0011" id="entity_DatabaseOutputAdapter"><rect fill="#FFFFFF" height="78.0293" rx="2.5" ry="2.5" style="stroke:#000000;stroke-width:1;" width="475.1719" x="2283.41" y="261.3473"/><ellipse cx="2432.429" cy="275.3473" fill="#FFFFFF" rx="9" ry="9" style="stroke:#000000;stroke-width:1;"/><path d="M2434.9022,281.4904 Q2434.3211,281.7892 2433.682,281.9386 Q2433.0428,282.088 2432.3372,282.088 Q2429.8304,282.088 2428.5106,280.4362 Q2427.1908,278.7843 2427.1908,275.6632 Q2427.1908,272.5338 2428.5106,270.882 Q2429.8304,269.2301 2432.3372,269.2301 Q2433.0428,269.2301 2433.6903,269.3795 Q2434.3377,269.5289 2434.9022,269.8278 L2434.9022,272.5504 Q2434.2713,271.9694 2433.6778,271.6996 Q2433.0843,271.4298 2432.4535,271.4298 Q2431.1087,271.4298 2430.4239,272.4965 Q2429.7391,273.5631 2429.7391,275.6632 Q2429.7391,277.755 2430.4239,278.8217 Q2431.1087,279.8883 2432.4535,279.8883 Q2433.0843,279.8883 2433.6778,279.6185 Q2434.2713,279.3488 2434.9022,278.7677 Z " fill="#000000"/><text fill="#000000" font-family="Verdana" font-size="14" lengthAdjust="spacing" textLength="169.6338" x="2449.929" y="280.9152">DatabaseOutputAdapter</text><line style="stroke:#000000;stroke-width:1;" x1="2284.41" x2="2757.5819" y1="289.3473" y2="289.3473"/><rect fill="none" height="6" style="stroke:#000000;stroke-width:1;" width="6" x="2291.41" y="300.3546"/><text fill="#000000" font-family="Verdana" font-size="14" lengthAdjust="spacing" textLength="172.5254" x="2301.41" y="307.4225">dataSource: DataSource</text><line style="stroke:#000000;stroke-width:1;" x1="2284.41" x2="2757.5819" y1="314.362" y2="314.362"/><ellipse cx="2294.41" cy="328.3693" fill="#FFFFFF" rx="3" ry="3" style="stroke:#000000;stroke-width:1;"/><text fill="#000000" font-family="Verdana" font-size="14" lengthAdjust="spacing" textLength="451.1719" x="2301.41" y="332.4371">suspend send(message: String): Either&lt;ApplicationError, Unit&gt;</text></g><!--class ApiOutputAdapter--><g class="entity" data-entity="ApiOutputAdapter" data-source-line="49" data-uid="ent0012" id="entity_ApiOutputAdapter"><rect fill="#FFFFFF" height="78.0293" rx="2.5" ry="2.5" style="stroke:#000000;stroke-width:1;" width="475.1719" x="2793.41" y="261.3473"/><ellipse cx="2964.304" cy="275.3473" fill="#FFFFFF" rx="9" ry="9" style="stroke:#000000;stroke-width:1;"/><path d="M2966.7772,281.4904 Q2966.1961,281.7892 2965.557,281.9386 Q2964.9178,282.088 2964.2122,282.088 Q2961.7054,282.088 2960.3856,280.4362 Q2959.0658,278.7843 2959.0658,275.6632 Q2959.0658,272.5338 2960.3856,270.882 Q2961.7054,269.2301 2964.2122,269.2301 Q2964.9178,269.2301 2965.5653,269.3795 Q2966.2127,269.5289 2966.7772,269.8278 L2966.7772,272.5504 Q2966.1463,271.9694 2965.5528,271.6996 Q2964.9593,271.4298 2964.3285,271.4298 Q2962.9837,271.4298 2962.2989,272.4965 Q2961.6141,273.5631 2961.6141,275.6632 Q2961.6141,277.755 2962.2989,278.8217 Q2962.9837,279.8883 2964.3285,279.8883 Q2964.9593,279.8883 2965.5528,279.6185 Q2966.1463,279.3488 2966.7772,278.7677 Z " fill="#000000"/><text fill="#000000" font-family="Verdana" font-size="14" lengthAdjust="spacing" textLength="125.8838" x="2981.804" y="280.9152">ApiOutputAdapter</text><line style="stroke:#000000;stroke-width:1;" x1="2794.41" x2="3267.5819" y1="289.3473" y2="289.3473"/><rect fill="none" height="6" style="stroke:#000000;stroke-width:1;" width="6" x="2801.41" y="300.3546"/><text fill="#000000" font-family="Verdana" font-size="14" lengthAdjust="spacing" textLength="150.5205" x="2811.41" y="307.4225">httpClient: HttpClient</text><line style="stroke:#000000;stroke-width:1;" x1="2794.41" x2="3267.5819" y1="314.362" y2="314.362"/><ellipse cx="2804.41" cy="328.3693" fill="#FFFFFF" rx="3" ry="3" style="stroke:#000000;stroke-width:1;"/><text fill="#000000" font-family="Verdana" font-size="14" lengthAdjust="spacing" textLength="451.1719" x="2811.41" y="332.4371">suspend send(message: String): Either&lt;ApplicationError, Unit&gt;</text></g><!--class ApiGreetingService--><g class="entity" data-entity="ApiGreetingService" data-source-line="54" data-uid="ent0013" id="entity_ApiGreetingService"><rect fill="#FFFFFF" height="78.0293" rx="2.5" ry="2.5" style="stroke:#000000;stroke-width:1;" width="560.1631" x="3303.92" y="261.3473"/><ellipse cx="3513.1363" cy="275.3473" fill="#FFFFFF" rx="9" ry="9" style="stroke:#000000;stroke-width:1;"/><path d="M3515.6095,281.4904 Q3515.0284,281.7892 3514.3892,281.9386 Q3513.7501,282.088 3513.0445,282.088 Q3510.5377,282.088 3509.2179,280.4362 Q3507.898,278.7843 3507.898,275.6632 Q3507.898,272.5338 3509.2179,270.882 Q3510.5377,269.2301 3513.0445,269.2301 Q3513.7501,269.2301 3514.3975,269.3795 Q3515.045,269.5289 3515.6095,269.8278 L3515.6095,272.5504 Q3514.9786,271.9694 3514.3851,271.6996 Q3513.7916,271.4298 3513.1607,271.4298 Q3511.816,271.4298 3511.1312,272.4965 Q3510.4464,273.5631 3510.4464,275.6632 Q3510.4464,277.755 3511.1312,278.8217 Q3511.816,279.8883 3513.1607,279.8883 Q3513.7916,279.8883 3514.3851,279.6185 Q3514.9786,279.3488 3515.6095,278.7677 Z " fill="#000000"/><text fill="#000000" font-family="Verdana" font-size="14" lengthAdjust="spacing" textLength="134.2305" x="3530.6363" y="280.9152">ApiGreetingService</text><line style="stroke:#000000;stroke-width:1;" x1="3304.92" x2="3863.0831" y1="289.3473" y2="289.3473"/><rect fill="none" height="6" style="stroke:#000000;stroke-width:1;" width="6" x="3311.92" y="300.3546"/><text fill="#000000" font-family="Verdana" font-size="14" lengthAdjust="spacing" textLength="150.5205" x="3321.92" y="307.4225">httpClient: HttpClient</text><line style="stroke:#000000;stroke-width:1;" x1="3304.92" x2="3863.0831" y1="314.362" y2="314.362"/><ellipse cx="3314.92" cy="328.3693" fill="#FFFFFF" rx="3" ry="3" style="stroke:#000000;stroke-width:1;"/><text fill="#000000" font-family="Verdana" font-size="14" lengthAdjust="spacing" textLength="536.1631" x="3321.92" y="332.4371">suspend createGreeting(name: PersonName): Either&lt;DomainError, String&gt;</text></g><!--class OutputPort--><g class="entity" data-entity="OutputPort" data-source-line="62" data-uid="ent0015" id="entity_OutputPort"><rect fill="#FFFFFF" height="44" rx="2.5" ry="2.5" style="stroke:#000000;stroke-width:1;" width="104.9248" x="1222.54" y="522.4073"/><ellipse cx="1235.54" cy="536.4073" fill="#FFFFFF" rx="9" ry="9" style="stroke:#000000;stroke-width:1;"/><path d="M1231.9677,532.6724 L1231.9677,530.5142 L1239.3471,530.5142 L1239.3471,532.6724 L1236.8818,532.6724 L1236.8818,540.7491 L1239.3471,540.7491 L1239.3471,542.9073 L1231.9677,542.9073 L1231.9677,540.7491 L1234.4331,540.7491 L1234.4331,532.6724 Z " fill="#000000"/><text fill="#000000" font-family="Verdana" font-size="14" font-style="italic" lengthAdjust="spacing" textLength="76.9248" x="1247.54" y="541.9752">OutputPort</text><line style="stroke:#000000;stroke-width:1;" x1="1223.54" x2="1326.4648" y1="550.4073" y2="550.4073"/><line style="stroke:#000000;stroke-width:1;" x1="1223.54" x2="1326.4648" y1="558.4073" y2="558.4073"/></g><!--class ApplicationError--><g class="entity" data-entity="ApplicationError" data-source-line="63" data-uid="ent0016" id="entity_ApplicationError"><rect fill="#FFFFFF" height="44" rx="2.5" ry="2.5" style="stroke:#000000;stroke-width:1;" width="140.376" x="1046.81" y="522.4073"/><ellipse cx="1059.81" cy="536.4073" fill="#FFFFFF" rx="9" ry="9" style="stroke:#000000;stroke-width:1;"/><path d="M1059.6733,531.7554 L1058.5195,536.8272 L1060.8354,536.8272 Z M1058.1791,529.5142 L1061.1757,529.5142 L1064.5209,541.9073 L1062.0722,541.9073 L1061.3085,538.8443 L1058.0297,538.8443 L1057.2827,541.9073 L1054.8339,541.9073 Z " fill="#000000"/><text fill="#000000" font-family="Verdana" font-size="14" font-style="italic" lengthAdjust="spacing" textLength="112.376" x="1071.81" y="541.9752">ApplicationError</text><line style="stroke:#000000;stroke-width:1;" x1="1047.81" x2="1186.186" y1="550.4073" y2="550.4073"/><line style="stroke:#000000;stroke-width:1;" x1="1047.81" x2="1186.186" y1="558.4073" y2="558.4073"/></g><!--class GreetingService--><g class="entity" data-entity="GreetingService" data-source-line="67" data-uid="ent0018" id="entity_GreetingService"><rect fill="#FFFFFF" height="44" rx="2.5" ry="2.5" style="stroke:#000000;stroke-width:1;" width="140.0615" x="2269.97" y="522.4073"/><ellipse cx="2282.97" cy="536.4073" fill="#FFFFFF" rx="9" ry="9" style="stroke:#000000;stroke-width:1;"/><path d="M2279.3977,532.6724 L2279.3977,530.5142 L2286.7771,530.5142 L2286.7771,532.6724 L2284.3118,532.6724 L2284.3118,540.7491 L2286.7771,540.7491 L2286.7771,542.9073 L2279.3977,542.9073 L2279.3977,540.7491 L2281.8631,540.7491 L2281.8631,532.6724 Z " fill="#000000"/><text fill="#000000" font-family="Verdana" font-size="14" font-style="italic" lengthAdjust="spacing" textLength="112.0615" x="2294.97" y="541.9752">GreetingService</text><line style="stroke:#000000;stroke-width:1;" x1="2270.97" x2="2409.0315" y1="550.4073" y2="550.4073"/><line style="stroke:#000000;stroke-width:1;" x1="2270.97" x2="2409.0315" y1="558.4073" y2="558.4073"/></g><!--class PersonName--><g class="entity" data-entity="PersonName" data-source-line="68" data-uid="ent0019" id="entity_PersonName"><rect fill="#FFFFFF" height="44" rx="2.5" ry="2.5" style="stroke:#000000;stroke-width:1;" width="116.2451" x="1816.88" y="522.4073"/><ellipse cx="1829.88" cy="536.4073" fill="#FFFFFF" rx="9" ry="9" style="stroke:#000000;stroke-width:1;"/><path d="M1832.3531,542.5504 Q1831.7721,542.8492 1831.1329,542.9986 Q1830.4938,543.148 1829.7882,543.148 Q1827.2814,543.148 1825.9615,541.4962 Q1824.6417,539.8443 1824.6417,536.7232 Q1824.6417,533.5938 1825.9615,531.942 Q1827.2814,530.2901 1829.7882,530.2901 Q1830.4938,530.2901 1831.1412,530.4395 Q1831.7887,530.5889 1832.3531,530.8878 L1832.3531,533.6104 Q1831.7223,533.0294 1831.1288,532.7596 Q1830.5353,532.4898 1829.9044,532.4898 Q1828.5597,532.4898 1827.8749,533.5565 Q1827.1901,534.6231 1827.1901,536.7232 Q1827.1901,538.815 1827.8749,539.8817 Q1828.5597,540.9483 1829.9044,540.9483 Q1830.5353,540.9483 1831.1288,540.6785 Q1831.7223,540.4088 1832.3531,539.8277 Z " fill="#000000"/><text fill="#000000" font-family="Verdana" font-size="14" lengthAdjust="spacing" textLength="88.2451" x="1841.88" y="541.9752">PersonName</text><line style="stroke:#000000;stroke-width:1;" x1="1817.88" x2="1932.1251" y1="550.4073" y2="550.4073"/><line style="stroke:#000000;stroke-width:1;" x1="1817.88" x2="1932.1251" y1="558.4073" y2="558.4073"/></g><!--class DomainError--><g class="entity" data-entity="DomainError" data-source-line="69" data-uid="ent0020" id="entity_DomainError"><rect fill="#FFFFFF" height="44" rx="2.5" ry="2.5" style="stroke:#000000;stroke-width:1;" width="117.2227" x="1968.39" y="522.4073"/><ellipse cx="1981.39" cy="536.4073" fill="#FFFFFF" rx="9" ry="9" style="stroke:#000000;stroke-width:1;"/><path d="M1981.2533,531.7554 L1980.0995,536.8272 L1982.4154,536.8272 Z M1979.7591,529.5142 L1982.7557,529.5142 L1986.1009,541.9073 L1983.6522,541.9073 L1982.8885,538.8443 L1979.6097,538.8443 L1978.8627,541.9073 L1976.4139,541.9073 Z " fill="#000000"/><text fill="#000000" font-family="Verdana" font-size="14" font-style="italic" lengthAdjust="spacing" textLength="89.2227" x="1993.39" y="541.9752">DomainError</text><line style="stroke:#000000;stroke-width:1;" x1="1969.39" x2="2084.6127" y1="550.4073" y2="550.4073"/><line style="stroke:#000000;stroke-width:1;" x1="1969.39" x2="2084.6127" y1="558.4073" y2="558.4073"/></g><g class="entity" data-entity="GreetingPolicy" data-source-line="70" data-uid="ent0021" id="entity_GreetingPolicy"><rect fill="#FFFFFF" height="37.0146" rx="2.5" ry="2.5" style="stroke:#000000;stroke-width:1;" width="114.6523" x="2120.67" y="525.8973"/><text fill="#000000" font-family="Verdana" font-size="14" lengthAdjust="spacing" textLength="100.6523" x="2127.67" y="541.9725">GreetingPolicy</text><line style="stroke:#000000;stroke-width:1;" x1="2121.67" x2="2234.3223" y1="546.912" y2="546.912"/></g><!--class GreetingFormat--><g class="entity" data-entity="GreetingFormat" data-source-line="71" data-uid="ent0022" id="entity_GreetingFormat"><rect fill="#FFFFFF" height="44" rx="2.5" ry="2.5" style="stroke:#000000;stroke-width:1;" width="138.5098" x="1643.75" y="522.4073"/><ellipse cx="1656.75" cy="536.4073" fill="#FFFFFF" rx="9" ry="9" style="stroke:#000000;stroke-width:1;"/><path d="M1660.3643,542.9073 L1652.6445,542.9073 L1652.6445,530.5142 L1660.3643,530.5142 L1660.3643,532.6724 L1655.0933,532.6724 L1655.0933,535.3453 L1659.8662,535.3453 L1659.8662,537.5035 L1655.0933,537.5035 L1655.0933,540.7491 L1660.3643,540.7491 Z " fill="#000000"/><text fill="#000000" font-family="Verdana" font-size="14" lengthAdjust="spacing" textLength="110.5098" x="1668.75" y="541.9752">GreetingFormat</text><line style="stroke:#000000;stroke-width:1;" x1="1644.75" x2="1781.2598" y1="550.4073" y2="550.4073"/><line style="stroke:#000000;stroke-width:1;" x1="1644.75" x2="1781.2598" y1="558.4073" y2="558.4073"/></g><g class="entity" data-entity="GMN36" data-source-line="95" data-uid="ent0037" id="entity_GMN36"><path d="M3955.23,263.7673 L3955.23,336.9646 L4120.7725,336.9646 L4120.7725,273.7673 L4110.7725,263.7673 L3955.23,263.7673" fill="#FFFFFF" style="stroke:#000000;stroke-width:1;"/><path d="M4110.7725,263.7673 L4110.7725,273.7673 L4120.7725,273.7673 L4110.7725,263.7673" fill="#FFFFFF" style="stroke:#000000;stroke-width:1;"/><text fill="#000000" font-family="Verdana" font-size="13" lengthAdjust="spacing" textLength="112.9502" x="3961.23" y="281.8371">Console Adapter:</text><text fill="#000000" font-family="Verdana" font-size="13" lengthAdjust="spacing" textLength="135.6367" x="3961.23" y="297.6364">- Thread-safe println</text><text fill="#000000" font-family="Verdana" font-size="13" lengthAdjust="spacing" textLength="134.291" x="3961.23" y="313.4358">- Message validation</text><text fill="#000000" font-family="Verdana" font-size="13" lengthAdjust="spacing" textLength="144.5425" x="3961.23" y="329.2351">- Error transformation</text></g><g class="entity" data-entity="GMN39" data-source-line="102" data-uid="ent0040" id="entity_GMN39"><path d="M4155.88,255.8673 L4155.88,344.8639 L4310.1173,344.8639 L4310.1173,265.8673 L4300.1173,255.8673 L4155.88,255.8673" fill="#FFFFFF" style="stroke:#000000;stroke-width:1;"/><path d="M4300.1173,255.8673 L4300.1173,265.8673 L4310.1173,265.8673 L4300.1173,255.8673" fill="#FFFFFF" style="stroke:#000000;stroke-width:1;"/><text fill="#000000" font-family="Verdana" font-size="13" lengthAdjust="spacing" textLength="84.1318" x="4161.88" y="273.9371">File Adapter:</text><text fill="#000000" font-family="Verdana" font-size="13" lengthAdjust="spacing" textLength="99.0234" x="4161.88" y="289.7364">- Async file I/O</text><text fill="#000000" font-family="Verdana" font-size="13" lengthAdjust="spacing" textLength="133.2373" x="4161.88" y="305.5358">- Creates directories</text><text fill="#000000" font-family="Verdana" font-size="13" lengthAdjust="spacing" textLength="100.5786" x="4161.88" y="321.3351">- Append mode</text><text fill="#000000" font-family="Verdana" font-size="13" lengthAdjust="spacing" textLength="131.9551" x="4161.88" y="337.1344">- Security validation</text></g><g class="entity" data-entity="GMN42" data-source-line="110" data-uid="ent0043" id="entity_GMN42"><path d="M4344.64,255.8673 L4344.64,344.8639 L4523.3666,344.8639 L4523.3666,265.8673 L4513.3666,255.8673 L4344.64,255.8673" fill="#FFFFFF" style="stroke:#000000;stroke-width:1;"/><path d="M4513.3666,255.8673 L4513.3666,265.8673 L4523.3666,265.8673 L4513.3666,255.8673" fill="#FFFFFF" style="stroke:#000000;stroke-width:1;"/><text fill="#000000" font-family="Verdana" font-size="13" lengthAdjust="spacing" textLength="126.6929" x="4350.64" y="273.9371">Composite Pattern:</text><text fill="#000000" font-family="Verdana" font-size="13" lengthAdjust="spacing" textLength="115.356" x="4350.64" y="289.7364">- Multiple outputs</text><text fill="#000000" font-family="Verdana" font-size="13" lengthAdjust="spacing" textLength="138.1631" x="4350.64" y="305.5358">- Concurrent sending</text><text fill="#000000" font-family="Verdana" font-size="13" lengthAdjust="spacing" textLength="157.7266" x="4350.64" y="321.3351">- Partial failure handling</text><text fill="#000000" font-family="Verdana" font-size="13" lengthAdjust="spacing" textLength="113.0771" x="4350.64" y="337.1344">- Factory method</text></g><g class="entity" data-entity="GMN45" data-source-line="118" data-uid="ent0046" id="entity_GMN45"><path d="M4557.99,263.7673 L4557.99,336.9646 L4774.0027,336.9646 L4774.0027,273.7673 L4764.0027,263.7673 L4557.99,263.7673" fill="#FFFFFF" style="stroke:#000000;stroke-width:1;"/><path d="M4764.0027,263.7673 L4764.0027,273.7673 L4774.0027,273.7673 L4764.0027,263.7673" fill="#FFFFFF" style="stroke:#000000;stroke-width:1;"/><text fill="#000000" font-family="Verdana" font-size="13" lengthAdjust="spacing" textLength="149.1382" x="4563.99" y="281.8371">Infrastructure Service:</text><text fill="#000000" font-family="Verdana" font-size="13" lengthAdjust="spacing" textLength="195.0127" x="4563.99" y="297.6364">- Replaceable implementation</text><text fill="#000000" font-family="Verdana" font-size="13" lengthAdjust="spacing" textLength="166.0928" x="4563.99" y="313.4358">- Could load from DB/API</text><text fill="#000000" font-family="Verdana" font-size="13" lengthAdjust="spacing" textLength="144.0854" x="4563.99" y="329.2351">- Currently hardcoded</text></g><g class="entity" data-entity="GMN48" data-source-line="125" data-uid="ent0049" id="entity_GMN48"><path d="M3777.92,515.7073 L3777.92,573.1053 L4020.0723,573.1053 L4020.0723,525.7073 L4010.0723,515.7073 L3777.92,515.7073" fill="#FFFFFF" style="stroke:#000000;stroke-width:1;"/><path d="M4010.0723,515.7073 L4010.0723,525.7073 L4020.0723,525.7073 L4010.0723,515.7073" fill="#FFFFFF" style="stroke:#000000;stroke-width:1;"/><text fill="#000000" font-family="Verdana" font-size="13" lengthAdjust="spacing" textLength="221.1523" x="3783.92" y="533.7771">Easy to add new implementations</text><text fill="#000000" font-family="Verdana" font-size="13" lengthAdjust="spacing" textLength="183.2061" x="3783.92" y="549.5764">without changing domain or</text><text fill="#000000" font-family="Verdana" font-size="13" lengthAdjust="spacing" textLength="114.2324" x="3783.92" y="565.3758">application layers</text></g><!--link ConsoleOutputAdapter to OutputPort--><g class="link" data-entity-1="ConsoleOutputAdapter" data-entity-2="OutputPort" data-source-line="75" data-uid="lnk23" id="link_ConsoleOutputAdapter_OutputPort"><path codeLine="75" d="M376.35,348.2173 C425.8,381.9473 497.69,424.9673 568,445.4073 C585.01,450.3573 1188.68,471.5073 1205,478.4073 C1226.84,487.6473 1234.5191,493.0843 1247.2891,508.2343" fill="none" id="ConsoleOutputAdapter-to-OutputPort" style="stroke:#000000;stroke-width:1;stroke-dasharray:7,7;"/><polygon fill="none" points="1258.89,521.9973,1251.8768,504.3674,1242.7015,512.1013,1258.89,521.9973" style="stroke:#000000;stroke-width:1;"/></g><!--link FileOutputAdapter to OutputPort--><g class="link" data-entity-1="FileOutputAdapter" data-entity-2="OutputPort" data-source-line="76" data-uid="lnk24" id="link_FileOutputAdapter_OutputPort"><path codeLine="76" d="M922.04,365.2773 C968.06,392.8773 1024.38,423.7273 1078,445.4073 C1132.07,467.2673 1153.86,450.3773 1205,478.4073 C1225.22,489.4873 1232.0003,494.3889 1245.0503,508.7189" fill="none" id="FileOutputAdapter-to-OutputPort" style="stroke:#000000;stroke-width:1;stroke-dasharray:7,7;"/><polygon fill="none" points="1257.17,522.0273,1249.4865,504.679,1240.6142,512.7588,1257.17,522.0273" style="stroke:#000000;stroke-width:1;"/></g><!--link CompositeOutputAdapter to OutputPort--><g class="link" data-entity-1="CompositeOutputAdapter" data-entity-2="OutputPort" data-source-line="77" data-uid="lnk25" id="link_CompositeOutputAdapter_OutputPort"><path codeLine="77" d="M1315.68,373.6573 C1303.49,424.4973 1292.2053,471.613 1284.3153,504.533" fill="none" id="CompositeOutputAdapter-to-OutputPort" style="stroke:#000000;stroke-width:1;stroke-dasharray:7,7;"/><polygon fill="none" points="1280.12,522.0373,1290.15,505.9315,1278.4805,503.1346,1280.12,522.0373" style="stroke:#000000;stroke-width:1;"/></g><!--reverse link CompositeOutputAdapter to OutputPort--><g class="link" data-entity-1="CompositeOutputAdapter" data-entity-2="OutputPort" data-source-line="84" data-uid="lnk30" id="link_CompositeOutputAdapter_OutputPort"><path codeLine="84" d="M1314.0711,385.5567 C1307.2411,415.4967 1301.75,438.8173 1294,470.4073 C1289.72,487.8273 1284.58,507.5173 1280.73,522.0473" fill="none" id="CompositeOutputAdapter-backto-OutputPort" style="stroke:#000000;stroke-width:1;"/><polygon fill="none" points="1316.74,373.8573,1311.5057,378.8174,1314.0711,385.5567,1319.3054,380.5967,1316.74,373.8573" style="stroke:#000000;stroke-width:1;"/><text fill="#000000" font-family="Verdana" font-size="13" lengthAdjust="spacing" textLength="111.4966" x="1298.33" y="467.4771">contains multiple</text></g><!--link DefaultGreetingService to GreetingService--><g class="link" data-entity-1="DefaultGreetingService" data-entity-2="GreetingService" data-source-line="78" data-uid="lnk26" id="link_DefaultGreetingService_GreetingService"><path codeLine="78" d="M2040.51,356.7273 C2103.85,389.9273 2184.35,434.1873 2253,478.4073 C2273.92,491.8873 2282.2116,497.6708 2299.0816,510.8408" fill="none" id="DefaultGreetingService-to-GreetingService" style="stroke:#000000;stroke-width:1;stroke-dasharray:7,7;"/><polygon fill="none" points="2313.27,521.9173,2302.7738,506.1113,2295.3894,515.5702,2313.27,521.9173" style="stroke:#000000;stroke-width:1;"/></g><!--link DatabaseOutputAdapter to OutputPort--><g class="link" data-entity-1="DatabaseOutputAdapter" data-entity-2="OutputPort" data-source-line="79" data-uid="lnk27" id="link_DatabaseOutputAdapter_OutputPort"><path codeLine="79" d="M2451.93,339.7373 C2393.35,371.1573 2306.43,415.2173 2227,445.4073 C2188.19,460.1573 2178.09,464.4773 2137,470.4073 C2025.03,486.5673 1740.57,467.2373 1628,478.4073 C1520.41,489.0873 1414.0579,511.1385 1345.3779,526.8285" fill="none" id="DatabaseOutputAdapter-to-OutputPort" style="stroke:#000000;stroke-width:1;stroke-dasharray:7,7;"/><polygon fill="none" points="1327.83,530.8373,1346.7142,532.6778,1344.0416,520.9792,1327.83,530.8373" style="stroke:#000000;stroke-width:1;"/></g><!--link ApiOutputAdapter to OutputPort--><g class="link" data-entity-1="ApiOutputAdapter" data-entity-2="OutputPort" data-source-line="80" data-uid="lnk28" id="link_ApiOutputAdapter_OutputPort"><path codeLine="80" d="M2980.05,339.8073 C2930.77,374.5573 2852.5,423.5173 2776,445.4073 C2653.31,480.5073 1754.99,465.9073 1628,478.4073 C1520.4,488.9973 1414.0562,511.0712 1345.3762,526.7912" fill="none" id="ApiOutputAdapter-to-OutputPort" style="stroke:#000000;stroke-width:1;stroke-dasharray:7,7;"/><polygon fill="none" points="1327.83,530.8073,1346.715,532.6399,1344.0375,520.9424,1327.83,530.8073" style="stroke:#000000;stroke-width:1;"/></g><!--link ApiGreetingService to GreetingService--><g class="link" data-entity-1="ApiGreetingService" data-entity-2="GreetingService" data-source-line="81" data-uid="lnk29" id="link_ApiGreetingService_GreetingService"><path codeLine="81" d="M3521.17,339.7373 C3462.56,373.5573 3371.54,421.1073 3286,445.4073 C2968.33,535.6373 2587.63,544.7369 2428.4,544.3869" fill="none" id="ApiGreetingService-to-GreetingService" style="stroke:#000000;stroke-width:1;stroke-dasharray:7,7;"/><polygon fill="none" points="2410.4,544.3473,2428.3868,550.3869,2428.4131,538.3869,2410.4,544.3473" style="stroke:#000000;stroke-width:1;"/></g><!--link ConsoleOutputAdapter to ApplicationError--><g class="link" data-entity-1="ConsoleOutputAdapter" data-entity-2="ApplicationError" data-source-line="87" data-uid="lnk31" id="link_ConsoleOutputAdapter_ApplicationError"><path codeLine="87" d="M381.1,348.2673 C430.79,380.3373 500.9,421.2573 568,445.4073 C733.35,504.9073 934.2221,528.7826 1040.6121,537.9426" fill="none" id="ConsoleOutputAdapter-to-ApplicationError" style="stroke:#000000;stroke-width:1;stroke-dasharray:7,7;"/><polygon fill="#000000" points="1046.59,538.4573,1037.9663,533.7,1041.6084,538.0284,1037.28,541.6705,1046.59,538.4573" style="stroke:#000000;stroke-width:1;"/><text fill="#000000" font-family="Verdana" font-size="13" lengthAdjust="spacing" textLength="47.1885" x="641.04" y="467.4771">returns</text></g><!--link DefaultGreetingService to PersonName--><g class="link" data-entity-1="DefaultGreetingService" data-entity-2="PersonName" data-source-line="88" data-uid="lnk32" id="link_DefaultGreetingService_PersonName"><path codeLine="88" d="M1918.22,356.5873 C1906.09,409.0473 1889.8117,479.3615 1881.3117,516.1215" fill="none" id="DefaultGreetingService-to-PersonName" style="stroke:#000000;stroke-width:1;stroke-dasharray:7,7;"/><polygon fill="#000000" points="1879.96,521.9673,1885.8847,514.0998,1881.0864,517.0958,1878.0904,512.2975,1879.96,521.9673" style="stroke:#000000;stroke-width:1;"/><text fill="#000000" font-family="Verdana" font-size="13" lengthAdjust="spacing" textLength="29.5166" x="1895.71" y="467.4771">uses</text></g><!--link DefaultGreetingService to DomainError--><g class="link" data-entity-1="DefaultGreetingService" data-entity-2="DomainError" data-source-line="89" data-uid="lnk33" id="link_DefaultGreetingService_DomainError"><path codeLine="89" d="M1952.9,356.5873 C1973.71,409.0473 2001.7079,479.63 2016.2879,516.39" fill="none" id="DefaultGreetingService-to-DomainError" style="stroke:#000000;stroke-width:1;stroke-dasharray:7,7;"/><polygon fill="#000000" points="2018.5,521.9673,2018.9,512.1266,2016.6566,517.3195,2011.4636,515.0761,2018.5,521.9673" style="stroke:#000000;stroke-width:1;"/><text fill="#000000" font-family="Verdana" font-size="13" lengthAdjust="spacing" textLength="47.1885" x="1996.95" y="467.4771">returns</text></g><!--link DefaultGreetingService to GreetingPolicy--><g class="link" data-entity-1="DefaultGreetingService" data-entity-2="GreetingPolicy" data-source-line="90" data-uid="lnk34" id="link_DefaultGreetingService_GreetingPolicy"><path codeLine="90" d="M1987.36,356.5873 C2042.74,410.8673 2119.7345,486.3079 2155.5845,521.4379" fill="none" id="DefaultGreetingService-to-GreetingPolicy" style="stroke:#000000;stroke-width:1;"/><polygon fill="#000000" points="2159.87,525.6373,2156.2414,516.4813,2156.2988,522.1378,2150.6422,522.1952,2159.87,525.6373" style="stroke:#000000;stroke-width:1;"/><text fill="#000000" font-family="Verdana" font-size="13" lengthAdjust="spacing" textLength="29.5166" x="2099.11" y="467.4771">uses</text></g><!--link DefaultGreetingService to GreetingFormat--><g class="link" data-entity-1="DefaultGreetingService" data-entity-2="GreetingFormat" data-source-line="91" data-uid="lnk35" id="link_DefaultGreetingService_GreetingFormat"><path codeLine="91" d="M1881.26,356.5873 C1834.01,409.0473 1769.4249,480.7485 1736.3249,517.5085" fill="none" id="DefaultGreetingService-to-GreetingFormat" style="stroke:#000000;stroke-width:1;stroke-dasharray:7,7;"/><polygon fill="#000000" points="1732.31,521.9673,1741.3048,517.9557,1735.6557,518.2516,1735.3598,512.6025,1732.31,521.9673" style="stroke:#000000;stroke-width:1;"/><text fill="#000000" font-family="Verdana" font-size="13" lengthAdjust="spacing" textLength="29.5166" x="1790.74" y="467.4771">uses</text></g><!--link ConsoleOutputAdapter to GMN36--><g class="link" data-entity-1="ConsoleOutputAdapter" data-entity-2="GMN36" data-source-line="95" data-uid="lnk38" id="link_ConsoleOutputAdapter_GMN36"><path d="M352.88,252.7773 C401.4,198.9873 488.89,114.4573 585.5,80.3173 C628.87,64.9973 3854.36,64.3573 3897.5,80.3173 C3975.08,109.0173 4013.45,208.6273 4029.09,263.4573" fill="none" id="ConsoleOutputAdapter-GMN36" style="stroke:#000000;stroke-width:1;stroke-dasharray:7,7;"/></g><!--link FileOutputAdapter to GMN39--><g class="link" data-entity-1="FileOutputAdapter" data-entity-2="GMN39" data-source-line="102" data-uid="lnk41" id="link_FileOutputAdapter_GMN39"><path d="M878.98,235.3773 C929.41,182.2073 1008.78,110.9573 1095.5,80.3173 C1135.11,66.3173 4081.1,65.7473 4120.5,80.3173 C4190.72,106.2973 4217.48,199.0973 4227.4,255.5573" fill="none" id="FileOutputAdapter-GMN39" style="stroke:#000000;stroke-width:1;stroke-dasharray:7,7;"/></g><!--link CompositeOutputAdapter to GMN42--><g class="link" data-entity-1="CompositeOutputAdapter" data-entity-2="GMN42" data-source-line="110" data-uid="lnk44" id="link_CompositeOutputAdapter_GMN42"><path d="M1410.41,226.8573 C1471,174.6873 1560.21,109.0273 1652.5,80.3173 C1687.75,69.3573 4275.88,67.5073 4310.5,80.3173 C4382.2,106.8373 4413.53,199.4473 4426.22,255.7173" fill="none" id="CompositeOutputAdapter-GMN42" style="stroke:#000000;stroke-width:1;stroke-dasharray:7,7;"/></g><!--link DefaultGreetingService to GMN45--><g class="link" data-entity-1="DefaultGreetingService" data-entity-2="GMN45" data-source-line="118" data-uid="lnk47" id="link_DefaultGreetingService_GMN45"><path d="M1996.25,243.8973 C2063.35,189.8673 2173.46,112.0573 2284.5,80.3173 C2344.3,63.2273 4465.17,58.7373 4523.5,80.3173 C4601.4,109.1373 4640.65,208.6973 4656.77,263.4873" fill="none" id="DefaultGreetingService-GMN45" style="stroke:#000000;stroke-width:1;stroke-dasharray:7,7;"/></g><!--link Future Adapters to GMN48--><g class="link" data-entity-1="Future Adapters" data-entity-2="GMN48" data-source-line="125" data-uid="lnk50" id="link_Future Adapters_GMN48"><path d="M3899,363.4217 C3899,364.0759 3899,364.7331 3899,365.3933 C3899,366.7137 3899,368.0458 3899,369.3887 C3899,374.7605 3899,380.3059 3899,385.9686 C3899,431.2698 3899,484.0773 3899,515.5673" fill="none" id="Future Adapters-GMN48" style="stroke:#000000;stroke-width:1;stroke-dasharray:7,7;"/></g><!--SRC=[lLTjZzeu4FxEhvZZo-sfb-rtXAWusEqXjLtKRN-0SIRWrh4ZsscBUllVR-mu8HW2Mwajqg9iPZn-vfbN_d0xB14goOGQEU4amaeLXbbdQkvgW_26xT501Wl9h8MbO5l3oj6eOlmpsoACpwcFuVi8wDCfiPnL3isjhbrLkrRiFpoONMXbjSI789utoZqb_ta1jhOLgXmiVTsKQ2sPdi2ZCq9j_vh0dI1Vp7HULL9mveHMTyPeypTyLCBDZcnbsV6_y8L9aJE75g9TKDh1HZBrET7SCPLBqiDl72j_YGKYX6DHIxdlT9-wfyJHUt7PommAqbWpjsiz-tqaS8E1WeePL0voOP0xRGJQH95L7e85fmFQL6htYiFgvGDy9J2KCRPYZXCgUxjwkCxGGfULji9TeQd993k1DyAwQQExrYRnyMVozGA-MqSg_2aojSI2rTBTf15xHNOFW2vpRbiYcPIjJy2ruhNnGUYbL8oHbfAYOeC-UgXfS6gBte8XOqBHOw6DZoZf8vtuXhpsNYPnQBwFQzQY-I8udXPhzFkrGQGhje-Dtc2vDcIrsZUAbHI0DQM3Lk_e-H24fIwf2qN-6oglP6pmjRMyrXJ2VV2N_ahc1cjy6q-0HBLrkqJF83KoPQCHXtcd_mpIxklG1MFMsZ5CfmkfwtmsEwMHERPXzagU4sBsg6l3YRHbz_nBadom9EULk0novrora88ITWB_Ti-_7UJbZFn1c3ydRTjCUUfDp9wBxRYSJjzJLJErbTXbYb14TK6Z9MqcR4FZbd7NENxCsD5T3RZdNPFGDpfmUt3x780U0K6iDv_ebgGkWmHLNNRlxviY9RH_mggi9EqXoZMi69JXmUv4PKTdbuFRs_zcVM9E1skgCJ1OKhM1xXRKKeREbt1gyQHypYWywpeYgdN2j_01XtIMzOp31COqJnn5Y9ORSamGqsDlQea-pr5nF-07E9wTP1VPYmrocAbPBs58ttVfIygz_BbkFSjcQSU_ViDnohK7Y8DtckR1Y7Oz12EsEmUwEBkBXkoDWhQvJqPDL_cmeqwHPvOLj4TJzJkfekHjt2NZv6d7RWQDhrH3oZPJnejyq_58HWcUaymEHlpR5CayR5v-7V7hLtovY5jTkivbFhJ-pbBd6DyyqdPWXDlt4G_1EfzzaQWeWhKVe4Qr0D_6_6itdHPYj- -4uT1EseoE6oUOX889wSTgMBuFudlc7ThJpkvsEXz4UZunWetanqiKjN3V8_qkuiWsX5WSTQWEU2rpa9hbK1XTmlAVb_FrgXMsAnp1DZadbayWRhHpT8mmdYmEmSWTxT9XESpf67vDG3Jq-IMRw0HEv6pzKfCtBJysOzORDj9F0Ni0yJy0]--></g></svg>