<svg xmlns="http://www.w3.org/2000/svg" xmlns:xlink="http://www.w3.org/1999/xlink" contentStyleType="text/css" data-diagram-type="CLASS" height="381px" preserveAspectRatio="none" style="width:611px;height:381px;background:#FFFFFF;" version="1.1" viewBox="0 0 611 381" width="611px" zoomAndPan="magnify"><title>Layer Dependencies - Clean Architecture Rules</title><defs/><g><g class="title" data-source-line="2"><text fill="#000000" font-family="Verdana" font-size="22" font-weight="bold" lengthAdjust="spacing" textLength="578.5098" x="15" y="37.1182">Layer Dependencies - Clean Architecture Rules</text></g><path d="M208.8918,320.7973 L318.4739,320.7973 A3.75,3.75 0 0 1 320.9739,323.2973 L327.9739,343.812 L332.4739,343.812 A2.5,2.5 0 0 1 334.9739,346.312 L334.9739,372.3266 A2.5,2.5 0 0 1 332.4739,374.8266 L208.8918,374.8266 A2.5,2.5 0 0 1 206.3918,372.3266 L206.3918,323.2973 A2.5,2.5 0 0 1 208.8918,320.7973" fill="#FFFFFF" style="stroke:#000000;stroke-width:1;"/><line style="stroke:#000000;stroke-width:1;" x1="206.3918" x2="327.9739" y1="343.812" y2="343.812"/><text fill="#000000" font-family="Verdana" font-size="14" font-weight="bold" lengthAdjust="spacing" textLength="108.582" x="210.3918" y="336.8725">Domain Layer</text><path d="M323.7918,189.7673 L461.5721,189.7673 A3.75,3.75 0 0 1 464.0721,192.2673 L471.0721,212.782 L475.5721,212.782 A2.5,2.5 0 0 1 478.0721,215.282 L478.0721,241.2966 A2.5,2.5 0 0 1 475.5721,243.7966 L323.7918,243.7966 A2.5,2.5 0 0 1 321.2918,241.2966 L321.2918,192.2673 A2.5,2.5 0 0 1 323.7918,189.7673" fill="#FFFFFF" style="stroke:#000000;stroke-width:1;"/><line style="stroke:#000000;stroke-width:1;" x1="321.2918" x2="471.0721" y1="212.782" y2="212.782"/><text fill="#000000" font-family="Verdana" font-size="14" font-weight="bold" lengthAdjust="spacing" textLength="136.7803" x="325.2918" y="205.8425">Application Layer</text><path d="M120.8218,58.7373 L282.5484,58.7373 A3.75,3.75 0 0 1 285.0484,61.2373 L292.0484,81.752 L296.5484,81.752 A2.5,2.5 0 0 1 299.0484,84.252 L299.0484,110.2666 A2.5,2.5 0 0 1 296.5484,112.7666 L120.8218,112.7666 A2.5,2.5 0 0 1 118.3218,110.2666 L118.3218,61.2373 A2.5,2.5 0 0 1 120.8218,58.7373" fill="#FFFFFF" style="stroke:#000000;stroke-width:1;"/><line style="stroke:#000000;stroke-width:1;" x1="118.3218" x2="292.0484" y1="81.752" y2="81.752"/><text fill="#000000" font-family="Verdana" font-size="14" font-weight="bold" lengthAdjust="spacing" textLength="160.7266" x="122.3218" y="74.8125">Infrastructure Layer</text><path d="M336.6918,58.7373 L486.6879,58.7373 A3.75,3.75 0 0 1 489.1879,61.2373 L496.1879,81.752 L500.6879,81.752 A2.5,2.5 0 0 1 503.1879,84.252 L503.1879,110.2666 A2.5,2.5 0 0 1 500.6879,112.7666 L336.6918,112.7666 A2.5,2.5 0 0 1 334.1918,110.2666 L334.1918,61.2373 A2.5,2.5 0 0 1 336.6918,58.7373" fill="#FFFFFF" style="stroke:#000000;stroke-width:1;"/><line style="stroke:#000000;stroke-width:1;" x1="334.1918" x2="496.1879" y1="81.752" y2="81.752"/><text fill="#000000" font-family="Verdana" font-size="14" font-weight="bold" lengthAdjust="spacing" textLength="148.9961" x="338.1918" y="74.8125">Presentation Layer</text><!--link Presentation to Application--><g class="link" data-entity-1="Presentation" data-entity-2="Application" data-source-line="16" data-uid="lnk6" id="link_Presentation_Application"><path codeLine="16" d="M414.7918,113.1773 C411.5118,135.4473 407.7265,161.2014 404.4465,183.4614" fill="none" id="Presentation-to-Application" style="stroke:#000000;stroke-width:1;"/><polygon fill="#000000" points="403.5718,189.3973,408.8411,181.0765,404.3007,184.4507,400.9265,179.9103,403.5718,189.3973" style="stroke:#000000;stroke-width:1;"/><text fill="#000000" font-family="Verdana" font-size="13" lengthAdjust="spacing" textLength="29.5166" x="411.3218" y="156.8371">uses</text></g><!--link Application to Domain--><g class="link" data-entity-1="Application" data-entity-2="Domain" data-source-line="17" data-uid="lnk7" id="link_Application_Domain"><path codeLine="17" d="M373.2718,244.2073 C351.0118,266.4673 323.5645,293.9247 301.3045,316.1847" fill="none" id="Application-to-Domain" style="stroke:#000000;stroke-width:1;"/><polygon fill="#000000" points="297.0618,320.4273,306.2542,316.8918,300.5974,316.8918,300.5974,311.2349,297.0618,320.4273" style="stroke:#000000;stroke-width:1;"/><text fill="#000000" font-family="Verdana" font-size="13" lengthAdjust="spacing" textLength="29.5166" x="343.9118" y="287.8671">uses</text></g><!--link Infrastructure to Domain--><g class="link" data-entity-1="Infrastructure" data-entity-2="Domain" data-source-line="18" data-uid="lnk8" id="link_Infrastructure_Domain"><path codeLine="18" d="M209.1018,113.0373 C210.1618,144.5973 213.7418,198.8773 225.6818,243.7973 C232.9018,270.9573 243.5344,294.8029 253.8244,315.1529" fill="none" id="Infrastructure-to-Domain" style="stroke:#000000;stroke-width:1;"/><polygon fill="#000000" points="256.5318,320.5073,256.0402,310.6707,254.2756,316.0453,248.901,314.2807,256.5318,320.5073" style="stroke:#000000;stroke-width:1;"/><text fill="#000000" font-family="Verdana" font-size="13" lengthAdjust="spacing" textLength="76.1338" x="226.6818" y="222.3571">implements</text></g><!--link Infrastructure to Application--><g class="link" data-entity-1="Infrastructure" data-entity-2="Application" data-source-line="19" data-uid="lnk9" id="link_Infrastructure_Application"><path codeLine="19" d="M247.8018,113.1773 C280.7618,135.4473 322.7105,163.7778 355.6505,186.0378" fill="none" id="Infrastructure-to-Application" style="stroke:#000000;stroke-width:1;"/><polygon fill="#000000" points="360.6218,189.3973,355.4045,181.0439,356.4791,186.5977,350.9252,187.6723,360.6218,189.3973" style="stroke:#000000;stroke-width:1;"/><text fill="#000000" font-family="Verdana" font-size="13" lengthAdjust="spacing" textLength="76.1338" x="316.6218" y="156.8371">implements</text></g><!--SRC=[RP113i8W44Ntd6BilXTmOTBOZOaBumqc-BL4IWaC2sEykzMI28tRD-_pPzZ8W17aBHkdn8W57Vc1G3qyt0LE6qHgQM_1ZhgW1oFGaWBed2oYKfxrdM-Wff_6-P4btX17ok2fNeNLUM-DPZ5JgPQqzW_k6ZXAI4lfBx8QrAbJG8IJTKs5lucAjEskscHBASudbkYZvBloTBL79PZHs_bxdVpLwgh2VGC0]--></g></svg>