<svg xmlns="http://www.w3.org/2000/svg" xmlns:xlink="http://www.w3.org/1999/xlink" contentStyleType="text/css" data-diagram-type="DESCRIPTION" height="851px" preserveAspectRatio="none" style="width:3970px;height:851px;background:#FFFFFF;" version="1.1" viewBox="0 0 3970 851" width="3970px" zoomAndPan="magnify"><title>Layer Dependencies - Dependency Rule Enforcement</title><defs/><g><g class="title" data-source-line="2"><text fill="#000000" font-family="Verdana" font-size="22" font-weight="bold" lengthAdjust="spacing" textLength="652.7061" x="1654.3503" y="37.1182">Layer Dependencies - Dependency Rule Enforcement</text></g><!--cluster Domain Layer--><g class="cluster" data-entity="Domain Layer" data-source-line="26" data-uid="ent0002" id="cluster_Domain Layer"><path d="M13.5,124.2373 L123.082,124.2373 A3.75,3.75 0 0 1 125.582,126.7373 L132.582,147.252 L773.5,147.252 A2.5,2.5 0 0 1 776,149.752 L776,495.9173 A2.5,2.5 0 0 1 773.5,498.4173 L13.5,498.4173 A2.5,2.5 0 0 1 11,495.9173 L11,126.7373 A2.5,2.5 0 0 1 13.5,124.2373" fill="#FFFFFF" style="stroke:#000000;stroke-width:1;"/><line style="stroke:#000000;stroke-width:1;" x1="11" x2="132.582" y1="147.252" y2="147.252"/><text fill="#000000" font-family="Verdana" font-size="14" font-weight="bold" lengthAdjust="spacing" textLength="108.582" x="15" y="140.3125">Domain Layer</text><text fill="#000000" font-family="Verdana" font-size="14" font-style="italic" lengthAdjust="spacing" textLength="71.9961" x="361.502" y="163.3271">&#171;Domain&#187;</text></g><!--cluster Application Layer--><g class="cluster" data-entity="Application Layer" data-source-line="37" data-uid="ent0011" id="cluster_Application Layer"><path d="M802.5,124.2373 L940.2803,124.2373 A3.75,3.75 0 0 1 942.7803,126.7373 L949.7803,147.252 L1912.5,147.252 A2.5,2.5 0 0 1 1915,149.752 L1915,495.9173 A2.5,2.5 0 0 1 1912.5,498.4173 L802.5,498.4173 A2.5,2.5 0 0 1 800,495.9173 L800,126.7373 A2.5,2.5 0 0 1 802.5,124.2373" fill="#FFFFFF" style="stroke:#000000;stroke-width:1;"/><line style="stroke:#000000;stroke-width:1;" x1="800" x2="949.7803" y1="147.252" y2="147.252"/><text fill="#000000" font-family="Verdana" font-size="14" font-weight="bold" lengthAdjust="spacing" textLength="136.7803" x="804" y="140.3125">Application Layer</text><text fill="#000000" font-family="Verdana" font-size="14" font-style="italic" lengthAdjust="spacing" textLength="95.1494" x="1313.9253" y="163.3271">&#171;Application&#187;</text></g><!--cluster Infrastructure Layer--><g class="cluster" data-entity="Infrastructure Layer" data-source-line="49" data-uid="ent0021" id="cluster_Infrastructure Layer"><path d="M1941.5,130.6373 L2103.2266,130.6373 A3.75,3.75 0 0 1 2105.7266,133.1373 L2112.7266,153.652 L2827.5,153.652 A2.5,2.5 0 0 1 2830,156.152 L2830,502.3273 A2.5,2.5 0 0 1 2827.5,504.8273 L1941.5,504.8273 A2.5,2.5 0 0 1 1939,502.3273 L1939,133.1373 A2.5,2.5 0 0 1 1941.5,130.6373" fill="#FFFFFF" style="stroke:#000000;stroke-width:1;"/><line style="stroke:#000000;stroke-width:1;" x1="1939" x2="2112.7266" y1="153.652" y2="153.652"/><text fill="#000000" font-family="Verdana" font-size="14" font-weight="bold" lengthAdjust="spacing" textLength="160.7266" x="1943" y="146.7125">Infrastructure Layer</text><text fill="#000000" font-family="Verdana" font-size="14" font-style="italic" lengthAdjust="spacing" textLength="115.7324" x="2330.6338" y="169.7271">&#171;Infrastructure&#187;</text></g><!--cluster Presentation Layer--><g class="cluster" data-entity="Presentation Layer" data-source-line="61" data-uid="ent0031" id="cluster_Presentation Layer"><path d="M400.5,553.8273 L550.4961,553.8273 A3.75,3.75 0 0 1 552.9961,556.3273 L559.9961,576.842 L882.5,576.842 A2.5,2.5 0 0 1 885,579.342 L885,808.3173 A2.5,2.5 0 0 1 882.5,810.8173 L400.5,810.8173 A2.5,2.5 0 0 1 398,808.3173 L398,556.3273 A2.5,2.5 0 0 1 400.5,553.8273" fill="#FFFFFF" style="stroke:#000000;stroke-width:1;"/><line style="stroke:#000000;stroke-width:1;" x1="398" x2="559.9961" y1="576.842" y2="576.842"/><text fill="#000000" font-family="Verdana" font-size="14" font-weight="bold" lengthAdjust="spacing" textLength="148.9961" x="402" y="569.9025">Presentation Layer</text><text fill="#000000" font-family="Verdana" font-size="14" font-style="italic" lengthAdjust="spacing" textLength="105.9365" x="592.5317" y="592.9171">&#171;Presentation&#187;</text></g><!--cluster Bootstrap Module--><g class="cluster" data-entity="Bootstrap Module" data-source-line="71" data-uid="ent0039" id="cluster_Bootstrap Module"><path d="M911.5,553.8273 L1051.0576,553.8273 A3.75,3.75 0 0 1 1053.5576,556.3273 L1060.5576,576.842 L1660.5,576.842 A2.5,2.5 0 0 1 1663,579.342 L1663,808.3173 A2.5,2.5 0 0 1 1660.5,810.8173 L911.5,810.8173 A2.5,2.5 0 0 1 909,808.3173 L909,556.3273 A2.5,2.5 0 0 1 911.5,553.8273" fill="#FFFFFF" style="stroke:#000000;stroke-width:1;"/><line style="stroke:#000000;stroke-width:1;" x1="909" x2="1060.5576" y1="576.842" y2="576.842"/><text fill="#000000" font-family="Verdana" font-size="14" font-weight="bold" lengthAdjust="spacing" textLength="138.5576" x="913" y="569.9025">Bootstrap Module</text><text fill="#000000" font-family="Verdana" font-size="14" font-style="italic" lengthAdjust="spacing" textLength="86.0713" x="1246.9644" y="592.9171">&#171;Bootstrap&#187;</text></g><!--entity PersonName--><g class="entity" data-entity="PersonName" data-source-line="27" data-uid="ent0003" id="entity_PersonName"><rect fill="#FFFFFF" height="44.584" rx="2.5" ry="2.5" style="stroke:#000000;stroke-width:1;" width="115.6387" x="415.18" y="183.6373"/><rect fill="#FFFFFF" height="10" style="stroke:#000000;stroke-width:1;" width="15" x="510.8187" y="188.6373"/><rect fill="#FFFFFF" height="2" style="stroke:#000000;stroke-width:1;" width="4" x="508.8187" y="190.6373"/><rect fill="#FFFFFF" height="2" style="stroke:#000000;stroke-width:1;" width="4" x="508.8187" y="194.6373"/><text fill="#000000" font-family="Verdana" font-size="12" lengthAdjust="spacing" textLength="75.6387" x="430.18" y="215.7018">PersonName</text></g><!--entity GreetingService Interface--><g class="entity" data-entity="GreetingService Interface" data-source-line="28" data-uid="ent0004" id="entity_GreetingService Interface"><rect fill="#FFFFFF" height="44.584" rx="2.5" ry="2.5" style="stroke:#000000;stroke-width:1;" width="194.7695" x="565.62" y="183.6373"/><rect fill="#FFFFFF" height="10" style="stroke:#000000;stroke-width:1;" width="15" x="740.3895" y="188.6373"/><rect fill="#FFFFFF" height="2" style="stroke:#000000;stroke-width:1;" width="4" x="738.3895" y="190.6373"/><rect fill="#FFFFFF" height="2" style="stroke:#000000;stroke-width:1;" width="4" x="738.3895" y="194.6373"/><text fill="#000000" font-family="Verdana" font-size="12" lengthAdjust="spacing" textLength="154.7695" x="580.62" y="215.7018">GreetingService Interface</text></g><!--entity GreetingPolicy--><g class="entity" data-entity="GreetingPolicy" data-source-line="29" data-uid="ent0005" id="entity_GreetingPolicy"><rect fill="#FFFFFF" height="44.584" rx="2.5" ry="2.5" style="stroke:#000000;stroke-width:1;" width="126.2734" x="409.86" y="437.8373"/><rect fill="#FFFFFF" height="10" style="stroke:#000000;stroke-width:1;" width="15" x="516.1334" y="442.8373"/><rect fill="#FFFFFF" height="2" style="stroke:#000000;stroke-width:1;" width="4" x="514.1334" y="444.8373"/><rect fill="#FFFFFF" height="2" style="stroke:#000000;stroke-width:1;" width="4" x="514.1334" y="448.8373"/><text fill="#000000" font-family="Verdana" font-size="12" lengthAdjust="spacing" textLength="86.2734" x="424.86" y="469.9018">GreetingPolicy</text></g><!--entity GreetingFormat--><g class="entity" data-entity="GreetingFormat" data-source-line="30" data-uid="ent0006" id="entity_GreetingFormat"><rect fill="#FFFFFF" height="44.584" rx="2.5" ry="2.5" style="stroke:#000000;stroke-width:1;" width="134.7227" x="570.64" y="437.8373"/><rect fill="#FFFFFF" height="10" style="stroke:#000000;stroke-width:1;" width="15" x="685.3627" y="442.8373"/><rect fill="#FFFFFF" height="2" style="stroke:#000000;stroke-width:1;" width="4" x="683.3627" y="444.8373"/><rect fill="#FFFFFF" height="2" style="stroke:#000000;stroke-width:1;" width="4" x="683.3627" y="448.8373"/><text fill="#000000" font-family="Verdana" font-size="12" lengthAdjust="spacing" textLength="94.7227" x="585.64" y="469.9018">GreetingFormat</text></g><!--entity DomainError--><g class="entity" data-entity="DomainError" data-source-line="31" data-uid="ent0007" id="entity_DomainError"><rect fill="#FFFFFF" height="44.584" rx="2.5" ry="2.5" style="stroke:#000000;stroke-width:1;" width="116.5293" x="26.74" y="183.6373"/><rect fill="#FFFFFF" height="10" style="stroke:#000000;stroke-width:1;" width="15" x="123.2693" y="188.6373"/><rect fill="#FFFFFF" height="2" style="stroke:#000000;stroke-width:1;" width="4" x="121.2693" y="190.6373"/><rect fill="#FFFFFF" height="2" style="stroke:#000000;stroke-width:1;" width="4" x="121.2693" y="194.6373"/><text fill="#000000" font-family="Verdana" font-size="12" lengthAdjust="spacing" textLength="76.5293" x="41.74" y="215.7018">DomainError</text></g><g class="entity" data-entity="GMN8" data-source-line="33" data-uid="ent0009" id="entity_GMN8"><path d="M178.14,177.2373 L178.14,201.9373 L143.73,205.9373 L178.14,209.9373 L178.14,234.6353 A0,0 0 0 0 178.14,234.6353 L379.8514,234.6353 A0,0 0 0 0 379.8514,234.6353 L379.8514,187.2373 L369.8514,177.2373 L178.14,177.2373 A0,0 0 0 0 178.14,177.2373" fill="#FFFFCC" style="stroke:#666666;stroke-width:1;"/><path d="M369.8514,177.2373 L369.8514,187.2373 L379.8514,187.2373 L369.8514,177.2373" fill="#FFFFCC" style="stroke:#666666;stroke-width:1;"/><text fill="#000000" font-family="Verdana" font-size="13" lengthAdjust="spacing" textLength="180.7114" x="184.14" y="195.3071">&#8226; No external dependencies</text><text fill="#000000" font-family="Verdana" font-size="13" lengthAdjust="spacing" textLength="136.2397" x="184.14" y="211.1064">&#8226; Pure business logic</text><text fill="#000000" font-family="Verdana" font-size="13" lengthAdjust="spacing" textLength="123.0176" x="184.14" y="226.9058">&#8226; Most stable layer</text></g><!--entity CreateGreetingUseCase--><g class="entity" data-entity="CreateGreetingUseCase" data-source-line="38" data-uid="ent0012" id="entity_CreateGreetingUseCase"><rect fill="#FFFFFF" height="44.584" rx="2.5" ry="2.5" style="stroke:#000000;stroke-width:1;" width="182.7168" x="1234.64" y="183.6373"/><rect fill="#FFFFFF" height="10" style="stroke:#000000;stroke-width:1;" width="15" x="1397.3568" y="188.6373"/><rect fill="#FFFFFF" height="2" style="stroke:#000000;stroke-width:1;" width="4" x="1395.3568" y="190.6373"/><rect fill="#FFFFFF" height="2" style="stroke:#000000;stroke-width:1;" width="4" x="1395.3568" y="194.6373"/><text fill="#000000" font-family="Verdana" font-size="12" lengthAdjust="spacing" textLength="142.7168" x="1249.64" y="215.7018">CreateGreetingUseCase</text></g><!--entity CreateBatchGreetingsUseCase--><g class="entity" data-entity="CreateBatchGreetingsUseCase" data-source-line="39" data-uid="ent0013" id="entity_CreateBatchGreetingsUseCase"><rect fill="#FFFFFF" height="44.584" rx="2.5" ry="2.5" style="stroke:#000000;stroke-width:1;" width="222.9766" x="1452.51" y="183.6373"/><rect fill="#FFFFFF" height="10" style="stroke:#000000;stroke-width:1;" width="15" x="1655.4866" y="188.6373"/><rect fill="#FFFFFF" height="2" style="stroke:#000000;stroke-width:1;" width="4" x="1653.4866" y="190.6373"/><rect fill="#FFFFFF" height="2" style="stroke:#000000;stroke-width:1;" width="4" x="1653.4866" y="194.6373"/><text fill="#000000" font-family="Verdana" font-size="12" lengthAdjust="spacing" textLength="182.9766" x="1467.51" y="215.7018">CreateBatchGreetingsUseCase</text></g><!--entity CreateGreetingInputPort--><g class="entity" data-entity="CreateGreetingInputPort" data-source-line="40" data-uid="ent0014" id="entity_CreateGreetingInputPort"><rect fill="#FFFFFF" height="44.584" rx="2.5" ry="2.5" style="stroke:#000000;stroke-width:1;" width="188.3594" x="1710.82" y="183.6373"/><rect fill="#FFFFFF" height="10" style="stroke:#000000;stroke-width:1;" width="15" x="1879.1794" y="188.6373"/><rect fill="#FFFFFF" height="2" style="stroke:#000000;stroke-width:1;" width="4" x="1877.1794" y="190.6373"/><rect fill="#FFFFFF" height="2" style="stroke:#000000;stroke-width:1;" width="4" x="1877.1794" y="194.6373"/><text fill="#000000" font-family="Verdana" font-size="12" lengthAdjust="spacing" textLength="148.3594" x="1725.82" y="215.7018">CreateGreetingInputPort</text></g><!--entity OutputPort--><g class="entity" data-entity="OutputPort" data-source-line="41" data-uid="ent0015" id="entity_OutputPort"><rect fill="#FFFFFF" height="44.584" rx="2.5" ry="2.5" style="stroke:#000000;stroke-width:1;" width="105.9355" x="1273.03" y="437.8373"/><rect fill="#FFFFFF" height="10" style="stroke:#000000;stroke-width:1;" width="15" x="1358.9655" y="442.8373"/><rect fill="#FFFFFF" height="2" style="stroke:#000000;stroke-width:1;" width="4" x="1356.9655" y="444.8373"/><rect fill="#FFFFFF" height="2" style="stroke:#000000;stroke-width:1;" width="4" x="1356.9655" y="448.8373"/><text fill="#000000" font-family="Verdana" font-size="12" lengthAdjust="spacing" textLength="65.9355" x="1288.03" y="469.9018">OutputPort</text></g><!--entity ErrorOutputPort--><g class="entity" data-entity="ErrorOutputPort" data-source-line="42" data-uid="ent0016" id="entity_ErrorOutputPort"><rect fill="#FFFFFF" height="44.584" rx="2.5" ry="2.5" style="stroke:#000000;stroke-width:1;" width="136.1699" x="1413.92" y="437.8373"/><rect fill="#FFFFFF" height="10" style="stroke:#000000;stroke-width:1;" width="15" x="1530.0899" y="442.8373"/><rect fill="#FFFFFF" height="2" style="stroke:#000000;stroke-width:1;" width="4" x="1528.0899" y="444.8373"/><rect fill="#FFFFFF" height="2" style="stroke:#000000;stroke-width:1;" width="4" x="1528.0899" y="448.8373"/><text fill="#000000" font-family="Verdana" font-size="12" lengthAdjust="spacing" textLength="96.1699" x="1428.92" y="469.9018">ErrorOutputPort</text></g><!--entity ApplicationError--><g class="entity" data-entity="ApplicationError" data-source-line="43" data-uid="ent0017" id="entity_ApplicationError"><rect fill="#FFFFFF" height="44.584" rx="2.5" ry="2.5" style="stroke:#000000;stroke-width:1;" width="136.334" x="1062.83" y="183.6373"/><rect fill="#FFFFFF" height="10" style="stroke:#000000;stroke-width:1;" width="15" x="1179.164" y="188.6373"/><rect fill="#FFFFFF" height="2" style="stroke:#000000;stroke-width:1;" width="4" x="1177.164" y="190.6373"/><rect fill="#FFFFFF" height="2" style="stroke:#000000;stroke-width:1;" width="4" x="1177.164" y="194.6373"/><text fill="#000000" font-family="Verdana" font-size="12" lengthAdjust="spacing" textLength="96.334" x="1077.83" y="215.7018">ApplicationError</text></g><g class="entity" data-entity="GMN18" data-source-line="45" data-uid="ent0019" id="entity_GMN18"><path d="M816.35,177.2373 L816.35,234.6353 A0,0 0 0 0 816.35,234.6353 L1027.6464,234.6353 A0,0 0 0 0 1027.6464,234.6353 L1027.6464,209.9373 L1062.69,205.9373 L1027.6464,201.9373 L1027.6464,187.2373 L1017.6464,177.2373 L816.35,177.2373 A0,0 0 0 0 816.35,177.2373" fill="#FFFFCC" style="stroke:#666666;stroke-width:1;"/><path d="M1017.6464,177.2373 L1017.6464,187.2373 L1027.6464,187.2373 L1017.6464,177.2373" fill="#FFFFCC" style="stroke:#666666;stroke-width:1;"/><text fill="#000000" font-family="Verdana" font-size="13" lengthAdjust="spacing" textLength="190.2964" x="822.35" y="195.3071">&#8226; Orchestrates business logic</text><text fill="#000000" font-family="Verdana" font-size="13" lengthAdjust="spacing" textLength="186.6655" x="822.35" y="211.1064">&#8226; Defines boundaries (ports)</text><text fill="#000000" font-family="Verdana" font-size="13" lengthAdjust="spacing" textLength="175.7222" x="822.35" y="226.9058">&#8226; Depends only on Domain</text></g><!--entity DefaultGreetingService--><g class="entity" data-entity="DefaultGreetingService" data-source-line="50" data-uid="ent0022" id="entity_DefaultGreetingService"><rect fill="#FFFFFF" height="44.584" rx="2.5" ry="2.5" style="stroke:#000000;stroke-width:1;" width="179.5176" x="1955.24" y="183.6373"/><rect fill="#FFFFFF" height="10" style="stroke:#000000;stroke-width:1;" width="15" x="2114.7576" y="188.6373"/><rect fill="#FFFFFF" height="2" style="stroke:#000000;stroke-width:1;" width="4" x="2112.7576" y="190.6373"/><rect fill="#FFFFFF" height="2" style="stroke:#000000;stroke-width:1;" width="4" x="2112.7576" y="194.6373"/><text fill="#000000" font-family="Verdana" font-size="12" lengthAdjust="spacing" textLength="139.5176" x="1970.24" y="215.7018">DefaultGreetingService</text></g><!--entity ConsoleOutputAdapter--><g class="entity" data-entity="ConsoleOutputAdapter" data-source-line="51" data-uid="ent0023" id="entity_ConsoleOutputAdapter"><rect fill="#FFFFFF" height="44.584" rx="2.5" ry="2.5" style="stroke:#000000;stroke-width:1;" width="176.1602" x="2169.92" y="183.6373"/><rect fill="#FFFFFF" height="10" style="stroke:#000000;stroke-width:1;" width="15" x="2326.0802" y="188.6373"/><rect fill="#FFFFFF" height="2" style="stroke:#000000;stroke-width:1;" width="4" x="2324.0802" y="190.6373"/><rect fill="#FFFFFF" height="2" style="stroke:#000000;stroke-width:1;" width="4" x="2324.0802" y="194.6373"/><text fill="#000000" font-family="Verdana" font-size="12" lengthAdjust="spacing" textLength="136.1602" x="2184.92" y="215.7018">ConsoleOutputAdapter</text></g><!--entity ConsoleErrorOutputAdapter--><g class="entity" data-entity="ConsoleErrorOutputAdapter" data-source-line="52" data-uid="ent0024" id="entity_ConsoleErrorOutputAdapter"><rect fill="#FFFFFF" height="44.584" rx="2.5" ry="2.5" style="stroke:#000000;stroke-width:1;" width="206.3945" x="2380.8" y="183.6373"/><rect fill="#FFFFFF" height="10" style="stroke:#000000;stroke-width:1;" width="15" x="2567.1945" y="188.6373"/><rect fill="#FFFFFF" height="2" style="stroke:#000000;stroke-width:1;" width="4" x="2565.1945" y="190.6373"/><rect fill="#FFFFFF" height="2" style="stroke:#000000;stroke-width:1;" width="4" x="2565.1945" y="194.6373"/><text fill="#000000" font-family="Verdana" font-size="12" lengthAdjust="spacing" textLength="166.3945" x="2395.8" y="215.7018">ConsoleErrorOutputAdapter</text></g><!--entity FileOutputAdapter--><g class="entity" data-entity="FileOutputAdapter" data-source-line="53" data-uid="ent0025" id="entity_FileOutputAdapter"><rect fill="#FFFFFF" height="44.584" rx="2.5" ry="2.5" style="stroke:#000000;stroke-width:1;" width="149.5586" x="1970.22" y="437.8373"/><rect fill="#FFFFFF" height="10" style="stroke:#000000;stroke-width:1;" width="15" x="2099.7786" y="442.8373"/><rect fill="#FFFFFF" height="2" style="stroke:#000000;stroke-width:1;" width="4" x="2097.7786" y="444.8373"/><rect fill="#FFFFFF" height="2" style="stroke:#000000;stroke-width:1;" width="4" x="2097.7786" y="448.8373"/><text fill="#000000" font-family="Verdana" font-size="12" lengthAdjust="spacing" textLength="109.5586" x="1985.22" y="469.9018">FileOutputAdapter</text></g><!--entity BufferedFileOutputAdapter--><g class="entity" data-entity="BufferedFileOutputAdapter" data-source-line="54" data-uid="ent0026" id="entity_BufferedFileOutputAdapter"><rect fill="#FFFFFF" height="44.584" rx="2.5" ry="2.5" style="stroke:#000000;stroke-width:1;" width="200.7109" x="2154.64" y="437.8373"/><rect fill="#FFFFFF" height="10" style="stroke:#000000;stroke-width:1;" width="15" x="2335.3509" y="442.8373"/><rect fill="#FFFFFF" height="2" style="stroke:#000000;stroke-width:1;" width="4" x="2333.3509" y="444.8373"/><rect fill="#FFFFFF" height="2" style="stroke:#000000;stroke-width:1;" width="4" x="2333.3509" y="448.8373"/><text fill="#000000" font-family="Verdana" font-size="12" lengthAdjust="spacing" textLength="160.7109" x="2169.64" y="469.9018">BufferedFileOutputAdapter</text></g><!--entity CompositeOutputAdapter--><g class="entity" data-entity="CompositeOutputAdapter" data-source-line="55" data-uid="ent0027" id="entity_CompositeOutputAdapter"><rect fill="#FFFFFF" height="44.584" rx="2.5" ry="2.5" style="stroke:#000000;stroke-width:1;" width="192.4434" x="2621.78" y="183.6373"/><rect fill="#FFFFFF" height="10" style="stroke:#000000;stroke-width:1;" width="15" x="2794.2234" y="188.6373"/><rect fill="#FFFFFF" height="2" style="stroke:#000000;stroke-width:1;" width="4" x="2792.2234" y="190.6373"/><rect fill="#FFFFFF" height="2" style="stroke:#000000;stroke-width:1;" width="4" x="2792.2234" y="194.6373"/><text fill="#000000" font-family="Verdana" font-size="12" lengthAdjust="spacing" textLength="152.4434" x="2636.78" y="215.7018">CompositeOutputAdapter</text></g><g class="entity" data-entity="GMN28" data-source-line="57" data-uid="ent0029" id="entity_GMN28"><path d="M2582.02,431.4273 L2582.02,488.8253 A0,0 0 0 0 2582.02,488.8253 L2813.9717,488.8253 A0,0 0 0 0 2813.9717,488.8253 L2813.9717,441.4273 L2803.9717,431.4273 L2704.21,431.4273 L2716.29,228.4373 L2696.21,431.4273 L2582.02,431.4273 A0,0 0 0 0 2582.02,431.4273" fill="#FFFFCC" style="stroke:#666666;stroke-width:1;"/><path d="M2803.9717,431.4273 L2803.9717,441.4273 L2813.9717,441.4273 L2803.9717,431.4273" fill="#FFFFCC" style="stroke:#666666;stroke-width:1;"/><text fill="#000000" font-family="Verdana" font-size="13" lengthAdjust="spacing" textLength="185.6753" x="2588.02" y="449.4971">&#8226; Technical implementations</text><text fill="#000000" font-family="Verdana" font-size="13" lengthAdjust="spacing" textLength="210.9517" x="2588.02" y="465.2964">&#8226; Implements domain interfaces</text><text fill="#000000" font-family="Verdana" font-size="13" lengthAdjust="spacing" textLength="202.8013" x="2588.02" y="481.0958">&#8226; Implements application ports</text></g><!--entity PureAsyncCli--><g class="entity" data-entity="PureAsyncCli" data-source-line="62" data-uid="ent0032" id="entity_PureAsyncCli"><rect fill="#FFFFFF" height="44.584" rx="2.5" ry="2.5" style="stroke:#000000;stroke-width:1;" width="117.4668" x="414.27" y="613.2373"/><rect fill="#FFFFFF" height="10" style="stroke:#000000;stroke-width:1;" width="15" x="511.7368" y="618.2373"/><rect fill="#FFFFFF" height="2" style="stroke:#000000;stroke-width:1;" width="4" x="509.7368" y="620.2373"/><rect fill="#FFFFFF" height="2" style="stroke:#000000;stroke-width:1;" width="4" x="509.7368" y="624.2373"/><text fill="#000000" font-family="Verdana" font-size="12" lengthAdjust="spacing" textLength="77.4668" x="429.27" y="645.3018">PureAsyncCli</text></g><!--entity AsyncCliRunner--><g class="entity" data-entity="AsyncCliRunner" data-source-line="63" data-uid="ent0033" id="entity_AsyncCliRunner"><rect fill="#FFFFFF" height="44.584" rx="2.5" ry="2.5" style="stroke:#000000;stroke-width:1;" width="133.7617" x="567.12" y="613.2373"/><rect fill="#FFFFFF" height="10" style="stroke:#000000;stroke-width:1;" width="15" x="680.8817" y="618.2373"/><rect fill="#FFFFFF" height="2" style="stroke:#000000;stroke-width:1;" width="4" x="678.8817" y="620.2373"/><rect fill="#FFFFFF" height="2" style="stroke:#000000;stroke-width:1;" width="4" x="678.8817" y="624.2373"/><text fill="#000000" font-family="Verdana" font-size="12" lengthAdjust="spacing" textLength="93.7617" x="582.12" y="645.3018">AsyncCliRunner</text></g><!--entity CliFactory--><g class="entity" data-entity="CliFactory" data-source-line="64" data-uid="ent0034" id="entity_CliFactory"><rect fill="#FFFFFF" height="44.584" rx="2.5" ry="2.5" style="stroke:#000000;stroke-width:1;" width="99.5547" x="423.22" y="750.2373"/><rect fill="#FFFFFF" height="10" style="stroke:#000000;stroke-width:1;" width="15" x="502.7747" y="755.2373"/><rect fill="#FFFFFF" height="2" style="stroke:#000000;stroke-width:1;" width="4" x="500.7747" y="757.2373"/><rect fill="#FFFFFF" height="2" style="stroke:#000000;stroke-width:1;" width="4" x="500.7747" y="761.2373"/><text fill="#000000" font-family="Verdana" font-size="12" lengthAdjust="spacing" textLength="59.5547" x="438.22" y="782.3018">CliFactory</text></g><!--entity PresentationConfig--><g class="entity" data-entity="PresentationConfig" data-source-line="65" data-uid="ent0035" id="entity_PresentationConfig"><rect fill="#FFFFFF" height="44.584" rx="2.5" ry="2.5" style="stroke:#000000;stroke-width:1;" width="153.5781" x="715.21" y="750.2373"/><rect fill="#FFFFFF" height="10" style="stroke:#000000;stroke-width:1;" width="15" x="848.7881" y="755.2373"/><rect fill="#FFFFFF" height="2" style="stroke:#000000;stroke-width:1;" width="4" x="846.7881" y="757.2373"/><rect fill="#FFFFFF" height="2" style="stroke:#000000;stroke-width:1;" width="4" x="846.7881" y="761.2373"/><text fill="#000000" font-family="Verdana" font-size="12" lengthAdjust="spacing" textLength="113.5781" x="730.21" y="782.3018">PresentationConfig</text></g><g class="entity" data-entity="GMN36" data-source-line="67" data-uid="ent0037" id="entity_GMN36"><path d="M735.41,606.8273 L735.41,664.2253 A0,0 0 0 0 735.41,664.2253 L795.93,664.2253 L793.61,749.8073 L803.93,664.2253 L868.5858,664.2253 A0,0 0 0 0 868.5858,664.2253 L868.5858,616.8273 L858.5858,606.8273 L735.41,606.8273 A0,0 0 0 0 735.41,606.8273" fill="#FFFFCC" style="stroke:#666666;stroke-width:1;"/><path d="M858.5858,606.8273 L858.5858,616.8273 L868.5858,616.8273 L858.5858,606.8273" fill="#FFFFCC" style="stroke:#666666;stroke-width:1;"/><text fill="#000000" font-family="Verdana" font-size="13" lengthAdjust="spacing" textLength="102.9146" x="741.41" y="624.8971">&#8226; User interface</text><text fill="#000000" font-family="Verdana" font-size="13" lengthAdjust="spacing" textLength="110.208" x="741.41" y="640.6964">&#8226; Calls use cases</text><text fill="#000000" font-family="Verdana" font-size="13" lengthAdjust="spacing" textLength="112.1758" x="741.41" y="656.4958">&#8226; Formats output</text></g><!--entity AsyncEntryPoint--><g class="entity" data-entity="AsyncEntryPoint" data-source-line="72" data-uid="ent0040" id="entity_AsyncEntryPoint"><rect fill="#FFFFFF" height="44.584" rx="2.5" ry="2.5" style="stroke:#000000;stroke-width:1;" width="137.6699" x="1332.17" y="613.2373"/><rect fill="#FFFFFF" height="10" style="stroke:#000000;stroke-width:1;" width="15" x="1449.8399" y="618.2373"/><rect fill="#FFFFFF" height="2" style="stroke:#000000;stroke-width:1;" width="4" x="1447.8399" y="620.2373"/><rect fill="#FFFFFF" height="2" style="stroke:#000000;stroke-width:1;" width="4" x="1447.8399" y="624.2373"/><text fill="#000000" font-family="Verdana" font-size="12" lengthAdjust="spacing" textLength="97.6699" x="1347.17" y="645.3018">AsyncEntryPoint</text></g><!--entity CompositionRoot--><g class="entity" data-entity="CompositionRoot" data-source-line="73" data-uid="ent0041" id="entity_CompositionRoot"><rect fill="#FFFFFF" height="44.584" rx="2.5" ry="2.5" style="stroke:#000000;stroke-width:1;" width="142.1758" x="1504.91" y="613.2373"/><rect fill="#FFFFFF" height="10" style="stroke:#000000;stroke-width:1;" width="15" x="1627.0858" y="618.2373"/><rect fill="#FFFFFF" height="2" style="stroke:#000000;stroke-width:1;" width="4" x="1625.0858" y="620.2373"/><rect fill="#FFFFFF" height="2" style="stroke:#000000;stroke-width:1;" width="4" x="1625.0858" y="624.2373"/><text fill="#000000" font-family="Verdana" font-size="12" lengthAdjust="spacing" textLength="102.1758" x="1519.91" y="645.3018">CompositionRoot</text></g><!--entity SecureArgParser--><g class="entity" data-entity="SecureArgParser" data-source-line="74" data-uid="ent0042" id="entity_SecureArgParser"><rect fill="#FFFFFF" height="44.584" rx="2.5" ry="2.5" style="stroke:#000000;stroke-width:1;" width="140.3535" x="1330.82" y="750.2373"/><rect fill="#FFFFFF" height="10" style="stroke:#000000;stroke-width:1;" width="15" x="1451.1735" y="755.2373"/><rect fill="#FFFFFF" height="2" style="stroke:#000000;stroke-width:1;" width="4" x="1449.1735" y="757.2373"/><rect fill="#FFFFFF" height="2" style="stroke:#000000;stroke-width:1;" width="4" x="1449.1735" y="761.2373"/><text fill="#000000" font-family="Verdana" font-size="12" lengthAdjust="spacing" textLength="100.3535" x="1345.82" y="782.3018">SecureArgParser</text></g><!--entity AppConfig--><g class="entity" data-entity="AppConfig" data-source-line="75" data-uid="ent0043" id="entity_AppConfig"><rect fill="#FFFFFF" height="44.584" rx="2.5" ry="2.5" style="stroke:#000000;stroke-width:1;" width="101.4004" x="925.3" y="613.2373"/><rect fill="#FFFFFF" height="10" style="stroke:#000000;stroke-width:1;" width="15" x="1006.7004" y="618.2373"/><rect fill="#FFFFFF" height="2" style="stroke:#000000;stroke-width:1;" width="4" x="1004.7004" y="620.2373"/><rect fill="#FFFFFF" height="2" style="stroke:#000000;stroke-width:1;" width="4" x="1004.7004" y="624.2373"/><text fill="#000000" font-family="Verdana" font-size="12" lengthAdjust="spacing" textLength="61.4004" x="940.3" y="645.3018">AppConfig</text></g><g class="entity" data-entity="GMN44" data-source-line="77" data-uid="ent0045" id="entity_GMN44"><path d="M1061.27,606.8273 L1061.27,631.5273 L1027.15,635.5273 L1061.27,639.5273 L1061.27,664.2253 A0,0 0 0 0 1061.27,664.2253 L1296.7383,664.2253 A0,0 0 0 0 1296.7383,664.2253 L1296.7383,616.8273 L1286.7383,606.8273 L1061.27,606.8273 A0,0 0 0 0 1061.27,606.8273" fill="#FFFFCC" style="stroke:#666666;stroke-width:1;"/><path d="M1286.7383,606.8273 L1286.7383,616.8273 L1296.7383,616.8273 L1286.7383,606.8273" fill="#FFFFCC" style="stroke:#666666;stroke-width:1;"/><text fill="#000000" font-family="Verdana" font-size="13" lengthAdjust="spacing" textLength="214.4683" x="1067.27" y="624.8971">&#8226; Only layer that knows all types</text><text fill="#000000" font-family="Verdana" font-size="13" lengthAdjust="spacing" textLength="141.5591" x="1067.27" y="640.6964">&#8226; Wires dependencies</text><text fill="#000000" font-family="Verdana" font-size="13" lengthAdjust="spacing" textLength="83.9478" x="1067.27" y="656.4958">&#8226; Entry point</text></g><!--entity Presentation--><g class="entity" data-entity="Presentation" data-source-line="81" data-uid="ent0047" id="entity_Presentation"><ellipse cx="2900" cy="460.1273" fill="#FFFFFF" rx="8" ry="8" style="stroke:#000000;stroke-width:1;"/><text fill="#000000" font-family="Verdana" font-size="14" lengthAdjust="spacing" textLength="87.8896" x="2856.0552" y="491.2025">Presentation</text></g><!--entity Application--><g class="entity" data-entity="Application" data-source-line="81" data-uid="ent0048" id="entity_Application"><ellipse cx="3035" cy="635.5273" fill="#FFFFFF" rx="8" ry="8" style="stroke:#000000;stroke-width:1;"/><text fill="#000000" font-family="Verdana" font-size="14" lengthAdjust="spacing" textLength="77.1162" x="2996.4419" y="666.6025">Application</text></g><!--entity Domain--><g class="entity" data-entity="Domain" data-source-line="82" data-uid="ent0050" id="entity_Domain"><ellipse cx="3232" cy="772.5273" fill="#FFFFFF" rx="8" ry="8" style="stroke:#000000;stroke-width:1;"/><text fill="#000000" font-family="Verdana" font-size="14" lengthAdjust="spacing" textLength="54.0107" x="3204.9946" y="803.6025">Domain</text></g><!--entity Infrastructure--><g class="entity" data-entity="Infrastructure" data-source-line="83" data-uid="ent0052" id="entity_Infrastructure"><ellipse cx="3176" cy="460.1273" fill="#FFFFFF" rx="8" ry="8" style="stroke:#000000;stroke-width:1;"/><text fill="#000000" font-family="Verdana" font-size="14" lengthAdjust="spacing" textLength="97.6855" x="3127.1572" y="491.2025">Infrastructure</text></g><!--entity Bootstrap--><g class="entity" data-entity="Bootstrap" data-source-line="87" data-uid="ent0055" id="entity_Bootstrap"><ellipse cx="3074" cy="205.9373" fill="#FFFFFF" rx="8" ry="8" style="stroke:#000000;stroke-width:1;"/><text fill="#000000" font-family="Verdana" font-size="14" lengthAdjust="spacing" textLength="68.0244" x="3039.9878" y="237.0125">Bootstrap</text></g><g class="entity" data-entity="DependencyRules" data-source-line="100" data-uid="ent0060" id="entity_DependencyRules"><path d="M3150.71,58.7373 L3150.71,353.125 L3479.2984,353.125 L3479.2984,68.7373 L3469.2984,58.7373 L3150.71,58.7373" fill="#FFFFCC" style="stroke:#666666;stroke-width:1;"/><path d="M3469.2984,58.7373 L3469.2984,68.7373 L3479.2984,68.7373 L3469.2984,58.7373" fill="#FFFFCC" style="stroke:#666666;stroke-width:1;"/><text fill="#000000" font-family="Verdana" font-size="13" font-weight="bold" lengthAdjust="spacing" textLength="139.3945" x="3156.71" y="76.8071">Dependency Rules:</text><text fill="#000000" font-family="Verdana" font-size="13" lengthAdjust="spacing" textLength="4.5703" x="3156.71" y="92.6064">&#160;</text><text fill="#000000" font-family="Verdana" font-size="13" font-weight="bold" lengthAdjust="spacing" textLength="191.3066" x="3156.71" y="108.4058">&#9989; Allowed Dependencies:</text><text fill="#000000" font-family="Verdana" font-size="13" lengthAdjust="spacing" textLength="307.5884" x="3156.71" y="124.2051">&#8226; Outer layers &#8594; Inner layers (toward domain)</text><text fill="#000000" font-family="Verdana" font-size="13" lengthAdjust="spacing" textLength="273.7236" x="3156.71" y="140.0044">&#8226; Implementation &#8594; Interface (any layer)</text><text fill="#000000" font-family="Verdana" font-size="13" lengthAdjust="spacing" textLength="267.2427" x="3156.71" y="155.8037">&#8226; Bootstrap &#8594; All layers (for wiring only)</text><text fill="#000000" font-family="Verdana" font-size="13" lengthAdjust="spacing" textLength="4.5703" x="3156.71" y="171.603">&#160;</text><text fill="#000000" font-family="Verdana" font-size="13" font-weight="bold" lengthAdjust="spacing" textLength="206.395" x="3156.71" y="187.4023">&#10060; Forbidden Dependencies:</text><text fill="#000000" font-family="Verdana" font-size="13" lengthAdjust="spacing" textLength="193.2988" x="3156.71" y="203.2017">&#8226; Inner layers &#8594; Outer layers</text><text fill="#000000" font-family="Verdana" font-size="13" lengthAdjust="spacing" textLength="184.793" x="3156.71" y="219.001">&#8226; Domain &#8594; Any other layer</text><text fill="#000000" font-family="Verdana" font-size="13" lengthAdjust="spacing" textLength="283.6323" x="3156.71" y="234.8003">&#8226; Application &#8594; Infrastructure/Presentation</text><text fill="#000000" font-family="Verdana" font-size="13" lengthAdjust="spacing" textLength="304.4971" x="3156.71" y="250.5996">&#8226; Cross-layer jumps (skip intermediate layers)</text><text fill="#000000" font-family="Verdana" font-size="13" lengthAdjust="spacing" textLength="4.5703" x="3156.71" y="266.3989">&#160;</text><text fill="#000000" font-family="Verdana" font-size="13" font-weight="bold" lengthAdjust="spacing" textLength="65.2285" x="3156.71" y="282.1982">Benefits:</text><text fill="#000000" font-family="Verdana" font-size="13" lengthAdjust="spacing" textLength="243.8325" x="3156.71" y="297.9976">&#8226; Stable core (domain changes least)</text><text fill="#000000" font-family="Verdana" font-size="13" lengthAdjust="spacing" textLength="250.4214" x="3156.71" y="313.7969">&#8226; Testable (mock outer dependencies)</text><text fill="#000000" font-family="Verdana" font-size="13" lengthAdjust="spacing" textLength="224.1294" x="3156.71" y="329.5962">&#8226; Flexible (swap implementations)</text><text fill="#000000" font-family="Verdana" font-size="13" lengthAdjust="spacing" textLength="270.1182" x="3156.71" y="345.3955">&#8226; Independent (deploy layers separately)</text></g><g class="entity" data-entity="PortsAndAdapters" data-source-line="121" data-uid="ent0061" id="entity_PortsAndAdapters"><path d="M3514.6,114.0373 L3514.6,297.8298 L3963.4066,297.8298 L3963.4066,124.0373 L3953.4066,114.0373 L3514.6,114.0373" fill="#FFFFCC" style="stroke:#666666;stroke-width:1;"/><path d="M3953.4066,114.0373 L3953.4066,124.0373 L3963.4066,124.0373 L3953.4066,114.0373" fill="#FFFFCC" style="stroke:#666666;stroke-width:1;"/><text fill="#000000" font-family="Verdana" font-size="13" font-weight="bold" lengthAdjust="spacing" textLength="204.2422" x="3520.6" y="132.1071">Ports and Adapters Pattern:</text><text fill="#000000" font-family="Verdana" font-size="13" lengthAdjust="spacing" textLength="4.5703" x="3520.6" y="147.9064">&#160;</text><text fill="#000000" font-family="Verdana" font-size="13" lengthAdjust="spacing" textLength="7.0903" x="3520.6" y="163.7058">&#8226;</text><text fill="#000000" font-family="Verdana" font-size="13" font-weight="bold" lengthAdjust="spacing" textLength="38.5493" x="3532.2606" y="163.7058">Ports</text><text fill="#000000" font-family="Verdana" font-size="13" lengthAdjust="spacing" textLength="235.5615" x="3575.3803" y="163.7058">= Interfaces defined by inner layers</text><text fill="#000000" font-family="Verdana" font-size="13" lengthAdjust="spacing" textLength="7.0903" x="3520.6" y="179.5051">&#8226;</text><text fill="#000000" font-family="Verdana" font-size="13" font-weight="bold" lengthAdjust="spacing" textLength="65.6855" x="3532.2606" y="179.5051">Adapters</text><text fill="#000000" font-family="Verdana" font-size="13" lengthAdjust="spacing" textLength="225.0308" x="3602.5165" y="179.5051">= Implementations in outer layers</text><text fill="#000000" font-family="Verdana" font-size="13" lengthAdjust="spacing" textLength="4.5703" x="3520.6" y="195.3044">&#160;</text><text fill="#000000" font-family="Verdana" font-size="13" font-weight="bold" lengthAdjust="spacing" textLength="88.8545" x="3520.6" y="211.1037">Input Ports:</text><text fill="#000000" font-family="Verdana" font-size="13" lengthAdjust="spacing" textLength="247.9014" x="3614.0248" y="211.1037">Application defines, Presentation uses</text><text fill="#000000" font-family="Verdana" font-size="13" font-weight="bold" lengthAdjust="spacing" textLength="98.7314" x="3520.6" y="226.903">Output Ports:</text><text fill="#000000" font-family="Verdana" font-size="13" lengthAdjust="spacing" textLength="303.6147" x="3623.9018" y="226.903">Application defines, Infrastructure implements</text><text fill="#000000" font-family="Verdana" font-size="13" font-weight="bold" lengthAdjust="spacing" textLength="141.0767" x="3520.6" y="242.7023">Domain Interfaces:</text><text fill="#000000" font-family="Verdana" font-size="13" lengthAdjust="spacing" textLength="282.1597" x="3666.247" y="242.7023">Domain defines, Infrastructure implements</text><text fill="#000000" font-family="Verdana" font-size="13" lengthAdjust="spacing" textLength="4.5703" x="3520.6" y="258.5017">&#160;</text><text fill="#000000" font-family="Verdana" font-size="13" lengthAdjust="spacing" textLength="234.9141" x="3520.6" y="274.301">This ensures dependency inversion:</text><text fill="#000000" font-family="Verdana" font-size="13" lengthAdjust="spacing" textLength="358.4712" x="3520.6" y="290.1003">High-level modules don't depend on low-level modules</text></g><!--link Presentation to Application--><g class="link" data-entity-1="Presentation" data-entity-2="Application" data-source-line="81" data-uid="lnk49" id="link_Presentation_Application"><path d="M2899.29,468.9173 C2898.33,483.5073 2898.04,515.4873 2911,537.8273 C2939.35,586.7173 2997.4917,617.2325 3020.7917,628.0925" fill="none" id="Presentation-to-Application" style="stroke:#0000FF;stroke-width:1;"/><polygon fill="#0000FF" points="3026.23,630.6273,3019.7624,623.1996,3021.6981,628.515,3016.3827,630.4507,3026.23,630.6273" style="stroke:#0000FF;stroke-width:1;"/><text fill="#0000FF" font-family="Verdana" font-size="13" lengthAdjust="spacing" textLength="82.0244" x="2912" y="534.8971">&#10003; uses ports</text></g><!--link Application to Domain--><g class="link" data-entity-1="Application" data-entity-2="Domain" data-source-line="82" data-uid="lnk51" id="link_Application_Domain"><path d="M3036.86,644.3773 C3040.86,659.6273 3051.7,693.4173 3073,712.5273 C3119.24,754.0073 3191.3195,766.4183 3217.3195,769.7783" fill="none" id="Application-to-Domain" style="stroke:#0000FF;stroke-width:1;"/><polygon fill="#0000FF" points="3223.27,770.5473,3214.8569,765.4268,3218.3112,769.9065,3213.8316,773.3608,3223.27,770.5473" style="stroke:#0000FF;stroke-width:1;"/><text fill="#0000FF" font-family="Verdana" font-size="13" lengthAdjust="spacing" textLength="131.2949" x="3074" y="709.5971">&#10003; uses domain logic</text></g><!--link Infrastructure to Domain--><g class="link" data-entity-1="Infrastructure" data-entity-2="Domain" data-source-line="83" data-uid="lnk53" id="link_Infrastructure_Domain"><path d="M3182.05,469.1073 C3190.02,480.0873 3203.74,500.7873 3210,520.8273 C3238.78,612.9973 3234.6015,726.877 3232.8315,757.927" fill="none" id="Infrastructure-to-Domain" style="stroke:#0000FF;stroke-width:1;"/><polygon fill="#0000FF" points="3232.49,763.9173,3236.9957,755.1595,3232.7746,758.9254,3229.0087,754.7042,3232.49,763.9173" style="stroke:#0000FF;stroke-width:1;"/><text fill="#0000FF" font-family="Verdana" font-size="13" lengthAdjust="spacing" textLength="211.8911" x="3233.55" y="641.0971">&#10003; implements domain interfaces</text></g><!--link Infrastructure to Application--><g class="link" data-entity-1="Infrastructure" data-entity-2="Application" data-source-line="84" data-uid="lnk54" id="link_Infrastructure_Application"><path d="M3167.48,466.9073 C3152.65,476.8373 3121.03,497.5673 3093,512.8273 C3085.67,516.8173 3081.62,514.6473 3076,520.8273 C3047.04,552.6373 3038.8731,600.4486 3036.4931,620.6186" fill="none" id="Infrastructure-to-Application" style="stroke:#0000FF;stroke-width:1;"/><polygon fill="#0000FF" points="3035.79,626.5773,3040.8171,618.108,3036.3759,621.6118,3032.8722,617.1706,3035.79,626.5773" style="stroke:#0000FF;stroke-width:1;"/><text fill="#0000FF" font-family="Verdana" font-size="13" lengthAdjust="spacing" textLength="128.6416" x="3077" y="534.8971">&#10003; implements ports</text></g><!--link Bootstrap to Domain--><g class="link" data-entity-1="Bootstrap" data-entity-2="Domain" data-source-line="87" data-uid="lnk56" id="link_Bootstrap_Domain"><path d="M3074.88,214.8873 C3077.98,239.2273 3090.66,313.4573 3133,353.1273 C3164.08,382.2473 3185.98,363.9573 3224,383.1273 C3335.8,439.5073 3396.45,434.6273 3454,545.8273 C3478.45,593.0773 3482.38,620.5273 3454,665.5273 C3403.88,744.9973 3281.9035,765.412 3246.9135,769.792" fill="none" id="Bootstrap-to-Domain" style="stroke:#0000FF;stroke-width:1;stroke-dasharray:7,7;"/><polygon fill="#0000FF" points="3240.96,770.5373,3250.3871,773.3884,3245.9213,769.9163,3249.3935,765.4504,3240.96,770.5373" style="stroke:#0000FF;stroke-width:1;"/><text fill="#0000FF" font-family="Verdana" font-size="13" lengthAdjust="spacing" textLength="62.0166" x="3449.68" y="534.8971">&#10003; creates</text></g><!--link Bootstrap to Application--><g class="link" data-entity-1="Bootstrap" data-entity-2="Application" data-source-line="88" data-uid="lnk57" id="link_Bootstrap_Application"><path d="M3072.41,214.5973 C3066.6,242.9873 3046.48,344.9473 3039,430.1273 C3032.3,506.4973 3033.9034,593.5093 3034.6134,620.7093" fill="none" id="Bootstrap-to-Application" style="stroke:#0000FF;stroke-width:1;stroke-dasharray:7,7;"/><polygon fill="#0000FF" points="3034.77,626.7073,3038.5338,617.606,3034.6395,621.709,3030.5365,617.8147,3034.77,626.7073" style="stroke:#0000FF;stroke-width:1;"/><text fill="#0000FF" font-family="Verdana" font-size="13" lengthAdjust="spacing" textLength="62.0166" x="3040" y="465.6971">&#10003; creates</text></g><!--link Bootstrap to Infrastructure--><g class="link" data-entity-1="Bootstrap" data-entity-2="Infrastructure" data-source-line="89" data-uid="lnk58" id="link_Bootstrap_Infrastructure"><path d="M3077.19,214.8573 C3086.04,236.8273 3111.65,300.3573 3133,353.1273 C3147.82,389.7573 3163.3191,427.9396 3170.4991,445.5896" fill="none" id="Bootstrap-to-Infrastructure" style="stroke:#0000FF;stroke-width:1;stroke-dasharray:7,7;"/><polygon fill="#0000FF" points="3172.76,451.1473,3173.0738,441.3034,3170.8759,446.5159,3165.6635,444.318,3172.76,451.1473" style="stroke:#0000FF;stroke-width:1;"/><text fill="#0000FF" font-family="Verdana" font-size="13" lengthAdjust="spacing" textLength="62.0166" x="3152.86" y="397.1971">&#10003; creates</text></g><!--link Bootstrap to Presentation--><g class="link" data-entity-1="Bootstrap" data-entity-2="Presentation" data-source-line="90" data-uid="lnk59" id="link_Bootstrap_Presentation"><path d="M3066.22,214.7173 C3043.03,238.2873 2973.35,311.5973 2931,383.1273 C2917.21,406.4273 2908.5983,431.28 2904.1583,445.5" fill="none" id="Bootstrap-to-Presentation" style="stroke:#0000FF;stroke-width:1;stroke-dasharray:7,7;"/><polygon fill="#0000FF" points="2902.37,451.2273,2908.8706,443.8285,2903.8602,446.4545,2901.2342,441.4442,2902.37,451.2273" style="stroke:#0000FF;stroke-width:1;"/><text fill="#0000FF" font-family="Verdana" font-size="13" lengthAdjust="spacing" textLength="62.0166" x="2932" y="397.1971">&#10003; creates</text></g><g class="caption" data-source-line="3"><text fill="#000000" font-family="Verdana" font-size="14" lengthAdjust="spacing" textLength="595.335" x="1683.0358" y="835.8925">Dependencies point inward toward the domain, with bootstrap as the only exception</text></g><!--SRC=[ZLRDRXit4BxhATZu40k84hH8UZ1S0vOijG8QMx1Tz93cGEsE9DOKkI2vLjMWG2_jgQVscbxwQ7wIpf3SNUvgxKG72U9yGyvyy_k5sy0MM26vK0Cdd0JsFT-3OHTGWCf1PG8i6pL_z-owHD1KhRJ9K5MvGSOB9xHggnHQACU4sd6JCwV3pmPOhhVur0ks4sx3bbexwmml6BTUgfNSC_Wb0t_ZO63lX2guuLkMwMsX5Jx7FWmOViOykriRNQfyegKsfwSN_kApCtOqcqtVZ5_teywBGegCq-q47R-UlfdD-g5pjJ8ShIipLneWD5tx67fXmA9roSraHZzsNBaTh9tW9m2roS5u41jBrFAdCwtSZVWLs9TV3NvBAU76w5saer8geTP9ZbfgIZle9v6C8NCEZ3dwsd_edkSi41tJv7Y2JeCP3WgyYg-1FKl5prWIb_3akmKOgzKbtyBxSF2j0N12hM_0t8iCs9mkNF6iArzeZDo-SpZJPijTF0nFJP4M4qxyb_VNYFN6iHFsyFj_x59ZYk4RYakM9pdxaoBf0eFDbgKL2gnbKgz55WHljNNCEhx4z9VaNQ0ZoQZWT4F5WOZuQ6TW96LYW3kedFh1meJRolyW6tENRIg0xKDKmhagIhVGfcBbgdJj0q_GmMbYLo-34bOLWLScsm0biCD2xwFg0bPqXlMDgSKDzOFZ0f-omqfEhDjGxjGvVE02d-sowrBQ9oLM3uer4ekMy5AwJevLl6bbjOH0nNcERGnCMvHGrPRFHB_Uk5ojm43-c7n2RSmAroTik5vgv_GsidqBsKPXP2GJsqBwbkkZ5FDrNXtQs5knwSO2EaJm92DzG0BdQVFgCdue8xuxxQwgRUJ-tEvLDf6YIgluzxfKgc51YXdFd3PLEQVN8VKhiUvIudGH-S3SDusFmSK9bzAoqWBBi2oYtw4tO9PvgeEdTUkj-jTD0PdWCcbW3UIjpd7MaRjfn_wGE3PLpkmNDEewyKK_hb4ddjv0HioOzO8RMxE05TVlQzgihgX4VBl10SaTkrDwXt6KahbzKNdweq3-UdgPDo-CujYxqn5zZBVe7UJ3GIl6ez5PgwcX7H__8MvjJ9bKIE3OyHDSJ4JV4GQTaZtG44yaS9_oeMt93S72Lg3pbiysnDldoN3Ge5w-x9YL-QPgEv33n_jn7RkVWhR8RmFH3qpYfSZH_8uVErtAd2s1sOtU4MKCkmuJArgZQ8KIrb5awt4zUdTq3VdxG_x-_OlDhgx7yukBwMKV_D2JJsbq7UhWM-dp-S_qgptvri1N4wwMpVPAowlrbNQwFEiijVRazDNohAb5H3ny_8ETXoffrKw3z3LQOhw68hNiuS-_qHdL71p7xJSazx3MchUwUTIBYO-rgMBPDmfDsX0MpQfVm5qS5sg30ywFr67R1-AapgB7lMWPJI-aRjMe66rl0PgeCTqYfeQaaGfUfQ5zbOQirfaORUqezBcVosr1bNedYj0Ajf0BxkBMPTlUZK7Xik4wljo4DItJc4h7iQja6wxMM3eIq9Y6rLk8EztnLcTtD2pGXBJM6kXCObrvgDrX53hZE8ciglGTlWw5rFkALmkqX3kW8272z_icJsaTi-SgZsj1dQZ-d774LnAsu8vMs4xAqkiLdYJicoQdQ43GMePTOu-ygiFOecPrVwNSTf7QZEvcHMMatpk32zwgLXw4f-sBTi7IiAZKmqBqIVrEdsXQVrtK8TgDs-6oUFoPz_Ylsusm39GjMyELkBj7tz6g4m_x3gVrIC8zIBRr2mFDCVNSHHNQRx61j15DxFy7]--></g></svg>