<svg xmlns="http://www.w3.org/2000/svg" xmlns:xlink="http://www.w3.org/1999/xlink" contentStyleType="text/css" data-diagram-type="CLASS" height="1337px" preserveAspectRatio="none" style="width:5516px;height:1337px;background:#FFFFFF;" version="1.1" viewBox="0 0 5516 1337" width="5516px" zoomAndPan="magnify"><title>Hybrid Architecture - Package Structure</title><defs/><g><g class="title" data-source-line="2"><text fill="#000000" font-family="Verdana" font-size="22" font-weight="bold" lengthAdjust="spacing" textLength="495.2256" x="2506.292" y="37.1182">Hybrid Architecture - Package Structure</text></g><!--cluster com--><g class="cluster" data-entity="com" data-source-line="23" data-uid="ent0006" id="cluster_com"><rect fill="#FFFFFF" height="1272" rx="2.5" ry="2.5" style="stroke:#666666;stroke-width:1;" width="4877" x="12" y="59.7373"/><text fill="#000000" font-family="Verdana" font-size="14" font-weight="bold" lengthAdjust="spacing" textLength="32.6621" x="2434.1689" y="75.8125">com</text></g><!--cluster abitofhelp--><g class="cluster" data-entity="abitofhelp" data-source-line="23" data-uid="ent0007" id="cluster_abitofhelp"><rect fill="#FFFFFF" height="1204" rx="2.5" ry="2.5" style="stroke:#666666;stroke-width:1;" width="4829" x="36" y="103.7373"/><text fill="#000000" font-family="Verdana" font-size="14" font-weight="bold" lengthAdjust="spacing" textLength="79.6729" x="2410.6636" y="119.8125">abitofhelp</text></g><!--cluster hybrid--><g class="cluster" data-entity="hybrid" data-source-line="19" data-uid="ent0002" id="cluster_hybrid"><rect fill="#FFFFFF" height="1136" rx="2.5" ry="2.5" style="stroke:#666666;stroke-width:1;" width="4781" x="60" y="147.7373"/><text fill="#000000" font-family="Verdana" font-size="14" font-weight="bold" lengthAdjust="spacing" textLength="50.4082" x="2425.2959" y="163.8125">hybrid</text></g><!--cluster domain--><g class="cluster" data-entity="domain" data-source-line="21" data-uid="ent0003" id="cluster_domain"><rect fill="#E8F5E8" height="197" rx="2.5" ry="2.5" style="stroke:#666666;stroke-width:1;" width="753" x="2876" y="199.7373"/><text fill="#000000" font-family="Verdana" font-size="14" font-style="italic" lengthAdjust="spacing" textLength="71.9961" x="3216.502" y="215.8125">&#171;Domain&#187;</text><text fill="#000000" font-family="Verdana" font-size="14" font-weight="bold" lengthAdjust="spacing" textLength="58.3242" x="3223.3379" y="232.8271">domain</text></g><!--cluster value--><g class="cluster" data-entity="value" data-source-line="22" data-uid="ent0004" id="cluster_value"><rect fill="#FFFFFF" height="96" rx="2.5" ry="2.5" style="stroke:#666666;stroke-width:1;" width="148" x="2908" y="268.7373"/><text fill="#000000" font-family="Verdana" font-size="14" font-weight="bold" lengthAdjust="spacing" textLength="42.5059" x="2960.7471" y="284.8125">value</text></g><!--cluster service--><g class="cluster" data-entity="service" data-source-line="25" data-uid="ent0008" id="cluster_service"><rect fill="#FFFFFF" height="96" rx="2.5" ry="2.5" style="stroke:#666666;stroke-width:1;" width="335" x="3080" y="268.7373"/><text fill="#000000" font-family="Verdana" font-size="14" font-weight="bold" lengthAdjust="spacing" textLength="55.9795" x="3219.5103" y="284.8125">service</text></g><!--cluster error--><g class="cluster" data-entity="error" data-source-line="29" data-uid="ent0011" id="cluster_error"><rect fill="#FFFFFF" height="96" rx="2.5" ry="2.5" style="stroke:#666666;stroke-width:1;" width="150" x="3439" y="268.7373"/><text fill="#000000" font-family="Verdana" font-size="14" font-weight="bold" lengthAdjust="spacing" textLength="39.7852" x="3494.1074" y="284.8125">error</text></g><!--cluster application--><g class="cluster" data-entity="application" data-source-line="34" data-uid="ent0013" id="cluster_application"><rect fill="#E8F0FF" height="506" rx="2.5" ry="2.5" style="stroke:#666666;stroke-width:1;" width="2465" x="92" y="436.7373"/><text fill="#000000" font-family="Verdana" font-size="14" font-style="italic" lengthAdjust="spacing" textLength="95.1494" x="1276.9253" y="452.8125">&#171;Application&#187;</text><text fill="#000000" font-family="Verdana" font-size="14" font-weight="bold" lengthAdjust="spacing" textLength="86.8369" x="1281.0815" y="469.8271">application</text></g><!--cluster usecase--><g class="cluster" data-entity="usecase" data-source-line="35" data-uid="ent0014" id="cluster_usecase"><rect fill="#FFFFFF" height="96" rx="2.5" ry="2.5" style="stroke:#666666;stroke-width:1;" width="503" x="124" y="549.7373"/><text fill="#000000" font-family="Verdana" font-size="14" font-weight="bold" lengthAdjust="spacing" textLength="62.7676" x="344.1162" y="565.8125">usecase</text></g><!--cluster port--><g class="cluster" data-entity="port" data-source-line="40" data-uid="ent0019" id="cluster_port"><rect fill="#FFFFFF" height="164" rx="2.5" ry="2.5" style="stroke:#666666;stroke-width:1;" width="931" x="651" y="505.7373"/><text fill="#000000" font-family="Verdana" font-size="14" font-weight="bold" lengthAdjust="spacing" textLength="32.7373" x="1100.1313" y="521.8125">port</text></g><!--cluster input--><g class="cluster" data-entity="input" data-source-line="39" data-uid="ent0017" id="cluster_input"><rect fill="#FFFFFF" height="96" rx="2.5" ry="2.5" style="stroke:#666666;stroke-width:1;" width="517" x="675" y="549.7373"/><text fill="#000000" font-family="Verdana" font-size="14" font-weight="bold" lengthAdjust="spacing" textLength="40.8994" x="913.0503" y="565.8125">input</text></g><!--cluster output--><g class="cluster" data-entity="output" data-source-line="43" data-uid="ent0021" id="cluster_output"><rect fill="#FFFFFF" height="96" rx="2.5" ry="2.5" style="stroke:#666666;stroke-width:1;" width="342" x="1216" y="549.7373"/><text fill="#000000" font-family="Verdana" font-size="14" font-weight="bold" lengthAdjust="spacing" textLength="52.1035" x="1360.9482" y="565.8125">output</text></g><!--cluster dto--><g class="cluster" data-entity="dto" data-source-line="47" data-uid="ent0024" id="cluster_dto"><rect fill="#FFFFFF" height="361" rx="2.5" ry="2.5" style="stroke:#666666;stroke-width:1;" width="473" x="1606" y="549.7373"/><text fill="#000000" font-family="Verdana" font-size="14" font-weight="bold" lengthAdjust="spacing" textLength="25.7783" x="1829.6108" y="565.8125">dto</text></g><!--cluster error--><g class="cluster" data-entity="error" data-source-line="52" data-uid="ent0028" id="cluster_error"><rect fill="#FFFFFF" height="96" rx="2.5" ry="2.5" style="stroke:#666666;stroke-width:1;" width="172" x="2103" y="549.7373"/><text fill="#000000" font-family="Verdana" font-size="14" font-weight="bold" lengthAdjust="spacing" textLength="39.7852" x="2169.1074" y="565.8125">error</text></g><!--cluster coroutines--><g class="cluster" data-entity="coroutines" data-source-line="55" data-uid="ent0030" id="cluster_coroutines"><rect fill="#FFFFFF" height="96" rx="2.5" ry="2.5" style="stroke:#666666;stroke-width:1;" width="218" x="2299" y="549.7373"/><text fill="#000000" font-family="Verdana" font-size="14" font-weight="bold" lengthAdjust="spacing" textLength="83.1318" x="2366.4341" y="565.8125">coroutines</text></g><!--cluster infrastructure--><g class="cluster" data-entity="infrastructure" data-source-line="60" data-uid="ent0032" id="cluster_infrastructure"><rect fill="#FFF5E8" height="458" rx="2.5" ry="2.5" style="stroke:#666666;stroke-width:1;" width="1032" x="2597" y="701.7373"/><text fill="#000000" font-family="Verdana" font-size="14" font-style="italic" lengthAdjust="spacing" textLength="115.7324" x="3055.1338" y="717.8125">&#171;Infrastructure&#187;</text><text fill="#000000" font-family="Verdana" font-size="14" font-weight="bold" lengthAdjust="spacing" textLength="109.4434" x="3058.2783" y="734.8271">infrastructure</text></g><!--cluster adapter--><g class="cluster" data-entity="adapter" data-source-line="62" data-uid="ent0035" id="cluster_adapter"><rect fill="#FFFFFF" height="357" rx="2.5" ry="2.5" style="stroke:#666666;stroke-width:1;" width="714" x="2629" y="770.7373"/><text fill="#000000" font-family="Verdana" font-size="14" font-weight="bold" lengthAdjust="spacing" textLength="60.915" x="2955.5425" y="786.8125">adapter</text></g><!--cluster output--><g class="cluster" data-entity="output" data-source-line="61" data-uid="ent0033" id="cluster_output"><rect fill="#FFFFFF" height="289" rx="2.5" ry="2.5" style="stroke:#666666;stroke-width:1;" width="666" x="2653" y="814.7373"/><text fill="#000000" font-family="Verdana" font-size="14" font-weight="bold" lengthAdjust="spacing" textLength="52.1035" x="2959.9482" y="830.8125">output</text></g><!--cluster service--><g class="cluster" data-entity="service" data-source-line="68" data-uid="ent0040" id="cluster_service"><rect fill="#FFFFFF" height="96" rx="2.5" ry="2.5" style="stroke:#666666;stroke-width:1;" width="222" x="3367" y="814.7373"/><text fill="#000000" font-family="Verdana" font-size="14" font-weight="bold" lengthAdjust="spacing" textLength="55.9795" x="3450.0103" y="830.8125">service</text></g><!--cluster presentation--><g class="cluster" data-entity="presentation" data-source-line="73" data-uid="ent0042" id="cluster_presentation"><rect fill="#FFE8F0" height="390" rx="2.5" ry="2.5" style="stroke:#666666;stroke-width:1;" width="528" x="4281" y="745.7373"/><text fill="#000000" font-family="Verdana" font-size="14" font-style="italic" lengthAdjust="spacing" textLength="105.9365" x="4492.0317" y="761.8125">&#171;Presentation&#187;</text><text fill="#000000" font-family="Verdana" font-size="14" font-weight="bold" lengthAdjust="spacing" textLength="100.0986" x="4494.9507" y="778.8271">presentation</text></g><!--cluster cli--><g class="cluster" data-entity="cli" data-source-line="74" data-uid="ent0043" id="cluster_cli"><rect fill="#FFFFFF" height="289" rx="2.5" ry="2.5" style="stroke:#666666;stroke-width:1;" width="456" x="4321" y="814.7373"/><text fill="#000000" font-family="Verdana" font-size="14" font-weight="bold" lengthAdjust="spacing" textLength="17.8076" x="4540.0962" y="830.8125">cli</text></g><!--cluster bootstrap--><g class="cluster" data-entity="bootstrap" data-source-line="83" data-uid="ent0049" id="cluster_bootstrap"><rect fill="#F0F0F0" height="269" rx="2.5" ry="2.5" style="stroke:#666666;stroke-width:1;" width="572" x="3669" y="982.7373"/><text fill="#000000" font-family="Verdana" font-size="14" font-style="italic" lengthAdjust="spacing" textLength="86.0713" x="3911.9644" y="998.8125">&#171;Bootstrap&#187;</text><text fill="#000000" font-family="Verdana" font-size="14" font-weight="bold" lengthAdjust="spacing" textLength="76.1729" x="3916.9136" y="1015.8271">bootstrap</text></g><!--class PersonName--><g class="entity" data-entity="PersonName" data-source-line="23" data-uid="ent0005" id="entity_PersonName"><rect fill="#FFFFFF" height="44" rx="2.5" ry="2.5" style="stroke:#000000;stroke-width:1;" width="116.2451" x="2923.88" y="304.7373"/><ellipse cx="2936.88" cy="318.7373" fill="#FFFFFF" rx="9" ry="9" style="stroke:#000000;stroke-width:1;"/><path d="M2939.3531,324.8804 Q2938.7721,325.1792 2938.1329,325.3286 Q2937.4938,325.478 2936.7882,325.478 Q2934.2814,325.478 2932.9615,323.8262 Q2931.6417,322.1743 2931.6417,319.0532 Q2931.6417,315.9238 2932.9615,314.272 Q2934.2814,312.6201 2936.7882,312.6201 Q2937.4938,312.6201 2938.1412,312.7695 Q2938.7887,312.9189 2939.3531,313.2178 L2939.3531,315.9404 Q2938.7223,315.3594 2938.1288,315.0896 Q2937.5353,314.8198 2936.9044,314.8198 Q2935.5597,314.8198 2934.8749,315.8865 Q2934.1901,316.9531 2934.1901,319.0532 Q2934.1901,321.145 2934.8749,322.2117 Q2935.5597,323.2783 2936.9044,323.2783 Q2937.5353,323.2783 2938.1288,323.0085 Q2938.7223,322.7388 2939.3531,322.1577 Z " fill="#000000"/><text fill="#000000" font-family="Verdana" font-size="14" lengthAdjust="spacing" textLength="88.2451" x="2948.88" y="324.3052">PersonName</text><line style="stroke:#000000;stroke-width:1;" x1="2924.88" x2="3039.1251" y1="332.7373" y2="332.7373"/><line style="stroke:#000000;stroke-width:1;" x1="2924.88" x2="3039.1251" y1="340.7373" y2="340.7373"/></g><!--class GreetingService--><g class="entity" data-entity="GreetingService" data-source-line="26" data-uid="ent0009" id="entity_GreetingService"><rect fill="#FFFFFF" height="44" rx="2.5" ry="2.5" style="stroke:#000000;stroke-width:1;" width="140.0615" x="3095.97" y="304.7373"/><ellipse cx="3108.97" cy="318.7373" fill="#FFFFFF" rx="9" ry="9" style="stroke:#000000;stroke-width:1;"/><path d="M3105.3977,315.0024 L3105.3977,312.8442 L3112.7771,312.8442 L3112.7771,315.0024 L3110.3118,315.0024 L3110.3118,323.0791 L3112.7771,323.0791 L3112.7771,325.2373 L3105.3977,325.2373 L3105.3977,323.0791 L3107.8631,323.0791 L3107.8631,315.0024 Z " fill="#000000"/><text fill="#000000" font-family="Verdana" font-size="14" font-style="italic" lengthAdjust="spacing" textLength="112.0615" x="3120.97" y="324.3052">GreetingService</text><line style="stroke:#000000;stroke-width:1;" x1="3096.97" x2="3235.0315" y1="332.7373" y2="332.7373"/><line style="stroke:#000000;stroke-width:1;" x1="3096.97" x2="3235.0315" y1="340.7373" y2="340.7373"/></g><!--class GreetingPolicy--><g class="entity" data-entity="GreetingPolicy" data-source-line="27" data-uid="ent0010" id="entity_GreetingPolicy"><rect fill="#FFFFFF" height="44" rx="2.5" ry="2.5" style="stroke:#000000;stroke-width:1;" width="128.6523" x="3270.67" y="304.7373"/><ellipse cx="3283.67" cy="318.7373" fill="#FFFFFF" rx="9" ry="9" style="stroke:#000000;stroke-width:1;"/><path d="M3286.1431,324.8804 Q3285.5621,325.1792 3284.9229,325.3286 Q3284.2838,325.478 3283.5782,325.478 Q3281.0714,325.478 3279.7515,323.8262 Q3278.4317,322.1743 3278.4317,319.0532 Q3278.4317,315.9238 3279.7515,314.272 Q3281.0714,312.6201 3283.5782,312.6201 Q3284.2838,312.6201 3284.9312,312.7695 Q3285.5787,312.9189 3286.1431,313.2178 L3286.1431,315.9404 Q3285.5123,315.3594 3284.9188,315.0896 Q3284.3253,314.8198 3283.6944,314.8198 Q3282.3497,314.8198 3281.6649,315.8865 Q3280.9801,316.9531 3280.9801,319.0532 Q3280.9801,321.145 3281.6649,322.2117 Q3282.3497,323.2783 3283.6944,323.2783 Q3284.3253,323.2783 3284.9188,323.0085 Q3285.5123,322.7388 3286.1431,322.1577 Z " fill="#000000"/><text fill="#000000" font-family="Verdana" font-size="14" lengthAdjust="spacing" textLength="100.6523" x="3295.67" y="324.3052">GreetingPolicy</text><line style="stroke:#000000;stroke-width:1;" x1="3271.67" x2="3398.3223" y1="332.7373" y2="332.7373"/><line style="stroke:#000000;stroke-width:1;" x1="3271.67" x2="3398.3223" y1="340.7373" y2="340.7373"/></g><!--class DomainError--><g class="entity" data-entity="DomainError" data-source-line="30" data-uid="ent0012" id="entity_DomainError"><rect fill="#FFFFFF" height="44" rx="2.5" ry="2.5" style="stroke:#000000;stroke-width:1;" width="117.2842" x="3455.36" y="304.7373"/><ellipse cx="3468.36" cy="318.7373" fill="#FFFFFF" rx="9" ry="9" style="stroke:#000000;stroke-width:1;"/><path d="M3470.8331,324.8804 Q3470.2521,325.1792 3469.6129,325.3286 Q3468.9738,325.478 3468.2682,325.478 Q3465.7614,325.478 3464.4415,323.8262 Q3463.1217,322.1743 3463.1217,319.0532 Q3463.1217,315.9238 3464.4415,314.272 Q3465.7614,312.6201 3468.2682,312.6201 Q3468.9738,312.6201 3469.6212,312.7695 Q3470.2687,312.9189 3470.8331,313.2178 L3470.8331,315.9404 Q3470.2023,315.3594 3469.6088,315.0896 Q3469.0153,314.8198 3468.3844,314.8198 Q3467.0397,314.8198 3466.3549,315.8865 Q3465.6701,316.9531 3465.6701,319.0532 Q3465.6701,321.145 3466.3549,322.2117 Q3467.0397,323.2783 3468.3844,323.2783 Q3469.0153,323.2783 3469.6088,323.0085 Q3470.2023,322.7388 3470.8331,322.1577 Z " fill="#000000"/><text fill="#000000" font-family="Verdana" font-size="14" lengthAdjust="spacing" textLength="89.2842" x="3480.36" y="324.3052">DomainError</text><line style="stroke:#000000;stroke-width:1;" x1="3456.36" x2="3571.6442" y1="332.7373" y2="332.7373"/><line style="stroke:#000000;stroke-width:1;" x1="3456.36" x2="3571.6442" y1="340.7373" y2="340.7373"/></g><!--class CreateGreetingUseCase--><g class="entity" data-entity="CreateGreetingUseCase" data-source-line="36" data-uid="ent0015" id="entity_CreateGreetingUseCase"><rect fill="#FFFFFF" height="44" rx="2.5" ry="2.5" style="stroke:#000000;stroke-width:1;" width="194.5029" x="139.75" y="585.7373"/><ellipse cx="152.75" cy="599.7373" fill="#FFFFFF" rx="9" ry="9" style="stroke:#000000;stroke-width:1;"/><path d="M155.2231,605.8804 Q154.6421,606.1792 154.0029,606.3286 Q153.3638,606.478 152.6582,606.478 Q150.1514,606.478 148.8315,604.8262 Q147.5117,603.1743 147.5117,600.0532 Q147.5117,596.9238 148.8315,595.272 Q150.1514,593.6201 152.6582,593.6201 Q153.3638,593.6201 154.0112,593.7695 Q154.6587,593.9189 155.2231,594.2178 L155.2231,596.9404 Q154.5923,596.3594 153.9988,596.0896 Q153.4053,595.8198 152.7744,595.8198 Q151.4297,595.8198 150.7449,596.8865 Q150.0601,597.9531 150.0601,600.0532 Q150.0601,602.145 150.7449,603.2117 Q151.4297,604.2783 152.7744,604.2783 Q153.4053,604.2783 153.9988,604.0085 Q154.5923,603.7388 155.2231,603.1577 Z " fill="#000000"/><text fill="#000000" font-family="Verdana" font-size="14" lengthAdjust="spacing" textLength="166.5029" x="164.75" y="605.3052">CreateGreetingUseCase</text><line style="stroke:#000000;stroke-width:1;" x1="140.75" x2="333.2529" y1="613.7373" y2="613.7373"/><line style="stroke:#000000;stroke-width:1;" x1="140.75" x2="333.2529" y1="621.7373" y2="621.7373"/></g><!--class CreateBatchGreetingsUseCase--><g class="entity" data-entity="CreateBatchGreetingsUseCase" data-source-line="37" data-uid="ent0016" id="entity_CreateBatchGreetingsUseCase"><rect fill="#FFFFFF" height="44" rx="2.5" ry="2.5" style="stroke:#000000;stroke-width:1;" width="241.4727" x="369.26" y="585.7373"/><ellipse cx="382.26" cy="599.7373" fill="#FFFFFF" rx="9" ry="9" style="stroke:#000000;stroke-width:1;"/><path d="M384.7331,605.8804 Q384.1521,606.1792 383.5129,606.3286 Q382.8738,606.478 382.1682,606.478 Q379.6614,606.478 378.3415,604.8262 Q377.0217,603.1743 377.0217,600.0532 Q377.0217,596.9238 378.3415,595.272 Q379.6614,593.6201 382.1682,593.6201 Q382.8738,593.6201 383.5212,593.7695 Q384.1687,593.9189 384.7331,594.2178 L384.7331,596.9404 Q384.1023,596.3594 383.5088,596.0896 Q382.9153,595.8198 382.2844,595.8198 Q380.9397,595.8198 380.2549,596.8865 Q379.5701,597.9531 379.5701,600.0532 Q379.5701,602.145 380.2549,603.2117 Q380.9397,604.2783 382.2844,604.2783 Q382.9153,604.2783 383.5088,604.0085 Q384.1023,603.7388 384.7331,603.1577 Z " fill="#000000"/><text fill="#000000" font-family="Verdana" font-size="14" lengthAdjust="spacing" textLength="213.4727" x="394.26" y="605.3052">CreateBatchGreetingsUseCase</text><line style="stroke:#000000;stroke-width:1;" x1="370.26" x2="609.7327" y1="613.7373" y2="613.7373"/><line style="stroke:#000000;stroke-width:1;" x1="370.26" x2="609.7327" y1="621.7373" y2="621.7373"/></g><!--class CreateGreetingInputPort--><g class="entity" data-entity="CreateGreetingInputPort" data-source-line="40" data-uid="ent0018" id="entity_CreateGreetingInputPort"><rect fill="#FFFFFF" height="44" rx="2.5" ry="2.5" style="stroke:#000000;stroke-width:1;" width="201.0654" x="691.47" y="585.7373"/><ellipse cx="704.47" cy="599.7373" fill="#FFFFFF" rx="9" ry="9" style="stroke:#000000;stroke-width:1;"/><path d="M700.8977,596.0024 L700.8977,593.8442 L708.2771,593.8442 L708.2771,596.0024 L705.8118,596.0024 L705.8118,604.0791 L708.2771,604.0791 L708.2771,606.2373 L700.8977,606.2373 L700.8977,604.0791 L703.3631,604.0791 L703.3631,596.0024 Z " fill="#000000"/><text fill="#000000" font-family="Verdana" font-size="14" font-style="italic" lengthAdjust="spacing" textLength="173.0654" x="716.47" y="605.3052">CreateGreetingInputPort</text><line style="stroke:#000000;stroke-width:1;" x1="692.47" x2="891.5354" y1="613.7373" y2="613.7373"/><line style="stroke:#000000;stroke-width:1;" x1="692.47" x2="891.5354" y1="621.7373" y2="621.7373"/></g><!--class CreateBatchGreetingsInputPort--><g class="entity" data-entity="CreateBatchGreetingsInputPort" data-source-line="41" data-uid="ent0020" id="entity_CreateBatchGreetingsInputPort"><rect fill="#FFFFFF" height="44" rx="2.5" ry="2.5" style="stroke:#000000;stroke-width:1;" width="248.0352" x="927.98" y="585.7373"/><ellipse cx="940.98" cy="599.7373" fill="#FFFFFF" rx="9" ry="9" style="stroke:#000000;stroke-width:1;"/><path d="M937.4077,596.0024 L937.4077,593.8442 L944.7871,593.8442 L944.7871,596.0024 L942.3218,596.0024 L942.3218,604.0791 L944.7871,604.0791 L944.7871,606.2373 L937.4077,606.2373 L937.4077,604.0791 L939.8731,604.0791 L939.8731,596.0024 Z " fill="#000000"/><text fill="#000000" font-family="Verdana" font-size="14" font-style="italic" lengthAdjust="spacing" textLength="220.0352" x="952.98" y="605.3052">CreateBatchGreetingsInputPort</text><line style="stroke:#000000;stroke-width:1;" x1="928.98" x2="1175.0152" y1="613.7373" y2="613.7373"/><line style="stroke:#000000;stroke-width:1;" x1="928.98" x2="1175.0152" y1="621.7373" y2="621.7373"/></g><!--class OutputPort--><g class="entity" data-entity="OutputPort" data-source-line="44" data-uid="ent0022" id="entity_OutputPort"><rect fill="#FFFFFF" height="44" rx="2.5" ry="2.5" style="stroke:#000000;stroke-width:1;" width="104.9248" x="1231.54" y="585.7373"/><ellipse cx="1244.54" cy="599.7373" fill="#FFFFFF" rx="9" ry="9" style="stroke:#000000;stroke-width:1;"/><path d="M1240.9677,596.0024 L1240.9677,593.8442 L1248.3471,593.8442 L1248.3471,596.0024 L1245.8818,596.0024 L1245.8818,604.0791 L1248.3471,604.0791 L1248.3471,606.2373 L1240.9677,606.2373 L1240.9677,604.0791 L1243.4331,604.0791 L1243.4331,596.0024 Z " fill="#000000"/><text fill="#000000" font-family="Verdana" font-size="14" font-style="italic" lengthAdjust="spacing" textLength="76.9248" x="1256.54" y="605.3052">OutputPort</text><line style="stroke:#000000;stroke-width:1;" x1="1232.54" x2="1335.4648" y1="613.7373" y2="613.7373"/><line style="stroke:#000000;stroke-width:1;" x1="1232.54" x2="1335.4648" y1="621.7373" y2="621.7373"/></g><!--class BatchProcessingPort--><g class="entity" data-entity="BatchProcessingPort" data-source-line="45" data-uid="ent0023" id="entity_BatchProcessingPort"><rect fill="#FFFFFF" height="44" rx="2.5" ry="2.5" style="stroke:#000000;stroke-width:1;" width="170.6455" x="1371.68" y="585.7373"/><ellipse cx="1384.68" cy="599.7373" fill="#FFFFFF" rx="9" ry="9" style="stroke:#000000;stroke-width:1;"/><path d="M1381.1077,596.0024 L1381.1077,593.8442 L1388.4871,593.8442 L1388.4871,596.0024 L1386.0218,596.0024 L1386.0218,604.0791 L1388.4871,604.0791 L1388.4871,606.2373 L1381.1077,606.2373 L1381.1077,604.0791 L1383.5731,604.0791 L1383.5731,596.0024 Z " fill="#000000"/><text fill="#000000" font-family="Verdana" font-size="14" font-style="italic" lengthAdjust="spacing" textLength="142.6455" x="1396.68" y="605.3052">BatchProcessingPort</text><line style="stroke:#000000;stroke-width:1;" x1="1372.68" x2="1541.3255" y1="613.7373" y2="613.7373"/><line style="stroke:#000000;stroke-width:1;" x1="1372.68" x2="1541.3255" y1="621.7373" y2="621.7373"/></g><!--class CreateGreetingCommand--><g class="entity" data-entity="CreateGreetingCommand" data-source-line="48" data-uid="ent0025" id="entity_CreateGreetingCommand"><rect fill="#FFFFFF" height="44" rx="2.5" ry="2.5" style="stroke:#000000;stroke-width:1;" width="206.3018" x="1621.85" y="585.7373"/><ellipse cx="1634.85" cy="599.7373" fill="#FFFFFF" rx="9" ry="9" style="stroke:#000000;stroke-width:1;"/><path d="M1637.3231,605.8804 Q1636.7421,606.1792 1636.1029,606.3286 Q1635.4638,606.478 1634.7582,606.478 Q1632.2514,606.478 1630.9315,604.8262 Q1629.6117,603.1743 1629.6117,600.0532 Q1629.6117,596.9238 1630.9315,595.272 Q1632.2514,593.6201 1634.7582,593.6201 Q1635.4638,593.6201 1636.1112,593.7695 Q1636.7587,593.9189 1637.3231,594.2178 L1637.3231,596.9404 Q1636.6923,596.3594 1636.0988,596.0896 Q1635.5053,595.8198 1634.8744,595.8198 Q1633.5297,595.8198 1632.8449,596.8865 Q1632.1601,597.9531 1632.1601,600.0532 Q1632.1601,602.145 1632.8449,603.2117 Q1633.5297,604.2783 1634.8744,604.2783 Q1635.5053,604.2783 1636.0988,604.0085 Q1636.6923,603.7388 1637.3231,603.1577 Z " fill="#000000"/><text fill="#000000" font-family="Verdana" font-size="14" lengthAdjust="spacing" textLength="178.3018" x="1646.85" y="605.3052">CreateGreetingCommand</text><line style="stroke:#000000;stroke-width:1;" x1="1622.85" x2="1827.1518" y1="613.7373" y2="613.7373"/><line style="stroke:#000000;stroke-width:1;" x1="1622.85" x2="1827.1518" y1="621.7373" y2="621.7373"/></g><!--class BatchGreetingCommand--><g class="entity" data-entity="BatchGreetingCommand" data-source-line="49" data-uid="ent0026" id="entity_BatchGreetingCommand"><rect fill="#FFFFFF" height="44" rx="2.5" ry="2.5" style="stroke:#000000;stroke-width:1;" width="199.623" x="1863.19" y="585.7373"/><ellipse cx="1876.19" cy="599.7373" fill="#FFFFFF" rx="9" ry="9" style="stroke:#000000;stroke-width:1;"/><path d="M1878.6631,605.8804 Q1878.0821,606.1792 1877.4429,606.3286 Q1876.8038,606.478 1876.0982,606.478 Q1873.5914,606.478 1872.2715,604.8262 Q1870.9517,603.1743 1870.9517,600.0532 Q1870.9517,596.9238 1872.2715,595.272 Q1873.5914,593.6201 1876.0982,593.6201 Q1876.8038,593.6201 1877.4512,593.7695 Q1878.0987,593.9189 1878.6631,594.2178 L1878.6631,596.9404 Q1878.0323,596.3594 1877.4388,596.0896 Q1876.8453,595.8198 1876.2144,595.8198 Q1874.8697,595.8198 1874.1849,596.8865 Q1873.5001,597.9531 1873.5001,600.0532 Q1873.5001,602.145 1874.1849,603.2117 Q1874.8697,604.2783 1876.2144,604.2783 Q1876.8453,604.2783 1877.4388,604.0085 Q1878.0323,603.7388 1878.6631,603.1577 Z " fill="#000000"/><text fill="#000000" font-family="Verdana" font-size="14" lengthAdjust="spacing" textLength="171.623" x="1888.19" y="605.3052">BatchGreetingCommand</text><line style="stroke:#000000;stroke-width:1;" x1="1864.19" x2="2061.813" y1="613.7373" y2="613.7373"/><line style="stroke:#000000;stroke-width:1;" x1="1864.19" x2="2061.813" y1="621.7373" y2="621.7373"/></g><!--class GreetingResult--><g class="entity" data-entity="GreetingResult" data-source-line="50" data-uid="ent0027" id="entity_GreetingResult"><rect fill="#FFFFFF" height="44" rx="2.5" ry="2.5" style="stroke:#000000;stroke-width:1;" width="132.0361" x="1658.98" y="850.7373"/><ellipse cx="1671.98" cy="864.7373" fill="#FFFFFF" rx="9" ry="9" style="stroke:#000000;stroke-width:1;"/><path d="M1674.4531,870.8804 Q1673.8721,871.1792 1673.2329,871.3286 Q1672.5938,871.478 1671.8882,871.478 Q1669.3814,871.478 1668.0615,869.8262 Q1666.7417,868.1743 1666.7417,865.0532 Q1666.7417,861.9238 1668.0615,860.272 Q1669.3814,858.6201 1671.8882,858.6201 Q1672.5938,858.6201 1673.2412,858.7695 Q1673.8887,858.9189 1674.4531,859.2178 L1674.4531,861.9404 Q1673.8223,861.3594 1673.2288,861.0896 Q1672.6353,860.8198 1672.0044,860.8198 Q1670.6597,860.8198 1669.9749,861.8865 Q1669.2901,862.9531 1669.2901,865.0532 Q1669.2901,867.145 1669.9749,868.2117 Q1670.6597,869.2783 1672.0044,869.2783 Q1672.6353,869.2783 1673.2288,869.0085 Q1673.8223,868.7388 1674.4531,868.1577 Z " fill="#000000"/><text fill="#000000" font-family="Verdana" font-size="14" lengthAdjust="spacing" textLength="104.0361" x="1683.98" y="870.3052">GreetingResult</text><line style="stroke:#000000;stroke-width:1;" x1="1659.98" x2="1790.0161" y1="878.7373" y2="878.7373"/><line style="stroke:#000000;stroke-width:1;" x1="1659.98" x2="1790.0161" y1="886.7373" y2="886.7373"/></g><!--class ApplicationError--><g class="entity" data-entity="ApplicationError" data-source-line="53" data-uid="ent0029" id="entity_ApplicationError"><rect fill="#FFFFFF" height="44" rx="2.5" ry="2.5" style="stroke:#000000;stroke-width:1;" width="140.3896" x="2118.81" y="585.7373"/><ellipse cx="2131.81" cy="599.7373" fill="#FFFFFF" rx="9" ry="9" style="stroke:#000000;stroke-width:1;"/><path d="M2134.2831,605.8804 Q2133.7021,606.1792 2133.0629,606.3286 Q2132.4238,606.478 2131.7182,606.478 Q2129.2114,606.478 2127.8915,604.8262 Q2126.5717,603.1743 2126.5717,600.0532 Q2126.5717,596.9238 2127.8915,595.272 Q2129.2114,593.6201 2131.7182,593.6201 Q2132.4238,593.6201 2133.0712,593.7695 Q2133.7187,593.9189 2134.2831,594.2178 L2134.2831,596.9404 Q2133.6523,596.3594 2133.0588,596.0896 Q2132.4653,595.8198 2131.8344,595.8198 Q2130.4897,595.8198 2129.8049,596.8865 Q2129.1201,597.9531 2129.1201,600.0532 Q2129.1201,602.145 2129.8049,603.2117 Q2130.4897,604.2783 2131.8344,604.2783 Q2132.4653,604.2783 2133.0588,604.0085 Q2133.6523,603.7388 2134.2831,603.1577 Z " fill="#000000"/><text fill="#000000" font-family="Verdana" font-size="14" lengthAdjust="spacing" textLength="112.3896" x="2143.81" y="605.3052">ApplicationError</text><line style="stroke:#000000;stroke-width:1;" x1="2119.81" x2="2258.1996" y1="613.7373" y2="613.7373"/><line style="stroke:#000000;stroke-width:1;" x1="2119.81" x2="2258.1996" y1="621.7373" y2="621.7373"/></g><!--class CoroutineErrorHandler--><g class="entity" data-entity="CoroutineErrorHandler" data-source-line="56" data-uid="ent0031" id="entity_CoroutineErrorHandler"><rect fill="#FFFFFF" height="44" rx="2.5" ry="2.5" style="stroke:#000000;stroke-width:1;" width="186.1016" x="2314.95" y="585.7373"/><ellipse cx="2327.95" cy="599.7373" fill="#FFFFFF" rx="9" ry="9" style="stroke:#000000;stroke-width:1;"/><path d="M2330.4231,605.8804 Q2329.8421,606.1792 2329.2029,606.3286 Q2328.5638,606.478 2327.8582,606.478 Q2325.3514,606.478 2324.0315,604.8262 Q2322.7117,603.1743 2322.7117,600.0532 Q2322.7117,596.9238 2324.0315,595.272 Q2325.3514,593.6201 2327.8582,593.6201 Q2328.5638,593.6201 2329.2112,593.7695 Q2329.8587,593.9189 2330.4231,594.2178 L2330.4231,596.9404 Q2329.7923,596.3594 2329.1988,596.0896 Q2328.6053,595.8198 2327.9744,595.8198 Q2326.6297,595.8198 2325.9449,596.8865 Q2325.2601,597.9531 2325.2601,600.0532 Q2325.2601,602.145 2325.9449,603.2117 Q2326.6297,604.2783 2327.9744,604.2783 Q2328.6053,604.2783 2329.1988,604.0085 Q2329.7923,603.7388 2330.4231,603.1577 Z " fill="#000000"/><text fill="#000000" font-family="Verdana" font-size="14" lengthAdjust="spacing" textLength="158.1016" x="2339.95" y="605.3052">CoroutineErrorHandler</text><line style="stroke:#000000;stroke-width:1;" x1="2315.95" x2="2500.0516" y1="613.7373" y2="613.7373"/><line style="stroke:#000000;stroke-width:1;" x1="2315.95" x2="2500.0516" y1="621.7373" y2="621.7373"/></g><!--class ConsoleOutputAdapter--><g class="entity" data-entity="ConsoleOutputAdapter" data-source-line="62" data-uid="ent0034" id="entity_ConsoleOutputAdapter"><rect fill="#FFFFFF" height="44" rx="2.5" ry="2.5" style="stroke:#000000;stroke-width:1;" width="186.8535" x="2668.57" y="850.7373"/><ellipse cx="2681.57" cy="864.7373" fill="#FFFFFF" rx="9" ry="9" style="stroke:#000000;stroke-width:1;"/><path d="M2684.0431,870.8804 Q2683.4621,871.1792 2682.8229,871.3286 Q2682.1838,871.478 2681.4782,871.478 Q2678.9714,871.478 2677.6515,869.8262 Q2676.3317,868.1743 2676.3317,865.0532 Q2676.3317,861.9238 2677.6515,860.272 Q2678.9714,858.6201 2681.4782,858.6201 Q2682.1838,858.6201 2682.8312,858.7695 Q2683.4787,858.9189 2684.0431,859.2178 L2684.0431,861.9404 Q2683.4123,861.3594 2682.8188,861.0896 Q2682.2253,860.8198 2681.5944,860.8198 Q2680.2497,860.8198 2679.5649,861.8865 Q2678.8801,862.9531 2678.8801,865.0532 Q2678.8801,867.145 2679.5649,868.2117 Q2680.2497,869.2783 2681.5944,869.2783 Q2682.2253,869.2783 2682.8188,869.0085 Q2683.4123,868.7388 2684.0431,868.1577 Z " fill="#000000"/><text fill="#000000" font-family="Verdana" font-size="14" lengthAdjust="spacing" textLength="158.8535" x="2693.57" y="870.3052">ConsoleOutputAdapter</text><line style="stroke:#000000;stroke-width:1;" x1="2669.57" x2="2854.4235" y1="878.7373" y2="878.7373"/><line style="stroke:#000000;stroke-width:1;" x1="2669.57" x2="2854.4235" y1="886.7373" y2="886.7373"/></g><!--class ConsoleErrorOutputAdapter--><g class="entity" data-entity="ConsoleErrorOutputAdapter" data-source-line="63" data-uid="ent0036" id="entity_ConsoleErrorOutputAdapter"><rect fill="#FFFFFF" height="44" rx="2.5" ry="2.5" style="stroke:#000000;stroke-width:1;" width="222.127" x="2889.94" y="850.7373"/><ellipse cx="2902.94" cy="864.7373" fill="#FFFFFF" rx="9" ry="9" style="stroke:#000000;stroke-width:1;"/><path d="M2905.4131,870.8804 Q2904.8321,871.1792 2904.1929,871.3286 Q2903.5538,871.478 2902.8482,871.478 Q2900.3414,871.478 2899.0215,869.8262 Q2897.7017,868.1743 2897.7017,865.0532 Q2897.7017,861.9238 2899.0215,860.272 Q2900.3414,858.6201 2902.8482,858.6201 Q2903.5538,858.6201 2904.2012,858.7695 Q2904.8487,858.9189 2905.4131,859.2178 L2905.4131,861.9404 Q2904.7823,861.3594 2904.1888,861.0896 Q2903.5953,860.8198 2902.9644,860.8198 Q2901.6197,860.8198 2900.9349,861.8865 Q2900.2501,862.9531 2900.2501,865.0532 Q2900.2501,867.145 2900.9349,868.2117 Q2901.6197,869.2783 2902.9644,869.2783 Q2903.5953,869.2783 2904.1888,869.0085 Q2904.7823,868.7388 2905.4131,868.1577 Z " fill="#000000"/><text fill="#000000" font-family="Verdana" font-size="14" lengthAdjust="spacing" textLength="194.127" x="2914.94" y="870.3052">ConsoleErrorOutputAdapter</text><line style="stroke:#000000;stroke-width:1;" x1="2890.94" x2="3111.067" y1="878.7373" y2="878.7373"/><line style="stroke:#000000;stroke-width:1;" x1="2890.94" x2="3111.067" y1="886.7373" y2="886.7373"/></g><!--class FileOutputAdapter--><g class="entity" data-entity="FileOutputAdapter" data-source-line="64" data-uid="ent0037" id="entity_FileOutputAdapter"><rect fill="#FFFFFF" height="44" rx="2.5" ry="2.5" style="stroke:#000000;stroke-width:1;" width="155.8184" x="3147.09" y="850.7373"/><ellipse cx="3160.09" cy="864.7373" fill="#FFFFFF" rx="9" ry="9" style="stroke:#000000;stroke-width:1;"/><path d="M3162.5631,870.8804 Q3161.9821,871.1792 3161.3429,871.3286 Q3160.7038,871.478 3159.9982,871.478 Q3157.4914,871.478 3156.1715,869.8262 Q3154.8517,868.1743 3154.8517,865.0532 Q3154.8517,861.9238 3156.1715,860.272 Q3157.4914,858.6201 3159.9982,858.6201 Q3160.7038,858.6201 3161.3512,858.7695 Q3161.9987,858.9189 3162.5631,859.2178 L3162.5631,861.9404 Q3161.9323,861.3594 3161.3388,861.0896 Q3160.7453,860.8198 3160.1144,860.8198 Q3158.7697,860.8198 3158.0849,861.8865 Q3157.4001,862.9531 3157.4001,865.0532 Q3157.4001,867.145 3158.0849,868.2117 Q3158.7697,869.2783 3160.1144,869.2783 Q3160.7453,869.2783 3161.3388,869.0085 Q3161.9323,868.7388 3162.5631,868.1577 Z " fill="#000000"/><text fill="#000000" font-family="Verdana" font-size="14" lengthAdjust="spacing" textLength="127.8184" x="3172.09" y="870.3052">FileOutputAdapter</text><line style="stroke:#000000;stroke-width:1;" x1="3148.09" x2="3301.9084" y1="878.7373" y2="878.7373"/><line style="stroke:#000000;stroke-width:1;" x1="3148.09" x2="3301.9084" y1="886.7373" y2="886.7373"/></g><!--class BufferedFileOutputAdapter--><g class="entity" data-entity="BufferedFileOutputAdapter" data-source-line="65" data-uid="ent0038" id="entity_BufferedFileOutputAdapter"><rect fill="#FFFFFF" height="44" rx="2.5" ry="2.5" style="stroke:#000000;stroke-width:1;" width="215.4961" x="2669.25" y="1043.7373"/><ellipse cx="2682.25" cy="1057.7373" fill="#FFFFFF" rx="9" ry="9" style="stroke:#000000;stroke-width:1;"/><path d="M2684.7231,1063.8804 Q2684.1421,1064.1792 2683.5029,1064.3286 Q2682.8638,1064.478 2682.1582,1064.478 Q2679.6514,1064.478 2678.3315,1062.8262 Q2677.0117,1061.1743 2677.0117,1058.0532 Q2677.0117,1054.9238 2678.3315,1053.272 Q2679.6514,1051.6201 2682.1582,1051.6201 Q2682.8638,1051.6201 2683.5112,1051.7695 Q2684.1587,1051.9189 2684.7231,1052.2178 L2684.7231,1054.9404 Q2684.0923,1054.3594 2683.4988,1054.0896 Q2682.9053,1053.8198 2682.2744,1053.8198 Q2680.9297,1053.8198 2680.2449,1054.8865 Q2679.5601,1055.9531 2679.5601,1058.0532 Q2679.5601,1060.145 2680.2449,1061.2117 Q2680.9297,1062.2783 2682.2744,1062.2783 Q2682.9053,1062.2783 2683.4988,1062.0085 Q2684.0923,1061.7388 2684.7231,1061.1577 Z " fill="#000000"/><text fill="#000000" font-family="Verdana" font-size="14" lengthAdjust="spacing" textLength="187.4961" x="2694.25" y="1063.3052">BufferedFileOutputAdapter</text><line style="stroke:#000000;stroke-width:1;" x1="2670.25" x2="2883.7461" y1="1071.7373" y2="1071.7373"/><line style="stroke:#000000;stroke-width:1;" x1="2670.25" x2="2883.7461" y1="1079.7373" y2="1079.7373"/></g><!--class CompositeOutputAdapter--><g class="entity" data-entity="CompositeOutputAdapter" data-source-line="66" data-uid="ent0039" id="entity_CompositeOutputAdapter"><rect fill="#FFFFFF" height="44" rx="2.5" ry="2.5" style="stroke:#000000;stroke-width:1;" width="205.8506" x="2920.07" y="1043.7373"/><ellipse cx="2933.07" cy="1057.7373" fill="#FFFFFF" rx="9" ry="9" style="stroke:#000000;stroke-width:1;"/><path d="M2935.5431,1063.8804 Q2934.9621,1064.1792 2934.3229,1064.3286 Q2933.6838,1064.478 2932.9782,1064.478 Q2930.4714,1064.478 2929.1515,1062.8262 Q2927.8317,1061.1743 2927.8317,1058.0532 Q2927.8317,1054.9238 2929.1515,1053.272 Q2930.4714,1051.6201 2932.9782,1051.6201 Q2933.6838,1051.6201 2934.3312,1051.7695 Q2934.9787,1051.9189 2935.5431,1052.2178 L2935.5431,1054.9404 Q2934.9123,1054.3594 2934.3188,1054.0896 Q2933.7253,1053.8198 2933.0944,1053.8198 Q2931.7497,1053.8198 2931.0649,1054.8865 Q2930.3801,1055.9531 2930.3801,1058.0532 Q2930.3801,1060.145 2931.0649,1061.2117 Q2931.7497,1062.2783 2933.0944,1062.2783 Q2933.7253,1062.2783 2934.3188,1062.0085 Q2934.9123,1061.7388 2935.5431,1061.1577 Z " fill="#000000"/><text fill="#000000" font-family="Verdana" font-size="14" lengthAdjust="spacing" textLength="177.8506" x="2945.07" y="1063.3052">CompositeOutputAdapter</text><line style="stroke:#000000;stroke-width:1;" x1="2921.07" x2="3124.9206" y1="1071.7373" y2="1071.7373"/><line style="stroke:#000000;stroke-width:1;" x1="2921.07" x2="3124.9206" y1="1079.7373" y2="1079.7373"/></g><!--class DefaultGreetingService--><g class="entity" data-entity="DefaultGreetingService" data-source-line="69" data-uid="ent0041" id="entity_DefaultGreetingService"><rect fill="#FFFFFF" height="44" rx="2.5" ry="2.5" style="stroke:#000000;stroke-width:1;" width="190.7705" x="3382.61" y="850.7373"/><ellipse cx="3395.61" cy="864.7373" fill="#FFFFFF" rx="9" ry="9" style="stroke:#000000;stroke-width:1;"/><path d="M3398.0831,870.8804 Q3397.5021,871.1792 3396.8629,871.3286 Q3396.2238,871.478 3395.5182,871.478 Q3393.0114,871.478 3391.6915,869.8262 Q3390.3717,868.1743 3390.3717,865.0532 Q3390.3717,861.9238 3391.6915,860.272 Q3393.0114,858.6201 3395.5182,858.6201 Q3396.2238,858.6201 3396.8712,858.7695 Q3397.5187,858.9189 3398.0831,859.2178 L3398.0831,861.9404 Q3397.4523,861.3594 3396.8588,861.0896 Q3396.2653,860.8198 3395.6344,860.8198 Q3394.2897,860.8198 3393.6049,861.8865 Q3392.9201,862.9531 3392.9201,865.0532 Q3392.9201,867.145 3393.6049,868.2117 Q3394.2897,869.2783 3395.6344,869.2783 Q3396.2653,869.2783 3396.8588,869.0085 Q3397.4523,868.7388 3398.0831,868.1577 Z " fill="#000000"/><text fill="#000000" font-family="Verdana" font-size="14" lengthAdjust="spacing" textLength="162.7705" x="3407.61" y="870.3052">DefaultGreetingService</text><line style="stroke:#000000;stroke-width:1;" x1="3383.61" x2="3572.3805" y1="878.7373" y2="878.7373"/><line style="stroke:#000000;stroke-width:1;" x1="3383.61" x2="3572.3805" y1="886.7373" y2="886.7373"/></g><!--class AsyncCliRunner--><g class="entity" data-entity="AsyncCliRunner" data-source-line="75" data-uid="ent0044" id="entity_AsyncCliRunner"><rect fill="#FFFFFF" height="44" rx="2.5" ry="2.5" style="stroke:#000000;stroke-width:1;" width="137.3887" x="4337.31" y="850.7373"/><ellipse cx="4350.31" cy="864.7373" fill="#FFFFFF" rx="9" ry="9" style="stroke:#000000;stroke-width:1;"/><path d="M4352.7831,870.8804 Q4352.2021,871.1792 4351.5629,871.3286 Q4350.9238,871.478 4350.2182,871.478 Q4347.7114,871.478 4346.3915,869.8262 Q4345.0717,868.1743 4345.0717,865.0532 Q4345.0717,861.9238 4346.3915,860.272 Q4347.7114,858.6201 4350.2182,858.6201 Q4350.9238,858.6201 4351.5712,858.7695 Q4352.2187,858.9189 4352.7831,859.2178 L4352.7831,861.9404 Q4352.1523,861.3594 4351.5588,861.0896 Q4350.9653,860.8198 4350.3344,860.8198 Q4348.9897,860.8198 4348.3049,861.8865 Q4347.6201,862.9531 4347.6201,865.0532 Q4347.6201,867.145 4348.3049,868.2117 Q4348.9897,869.2783 4350.3344,869.2783 Q4350.9653,869.2783 4351.5588,869.0085 Q4352.1523,868.7388 4352.7831,868.1577 Z " fill="#000000"/><text fill="#000000" font-family="Verdana" font-size="14" lengthAdjust="spacing" textLength="109.3887" x="4362.31" y="870.3052">AsyncCliRunner</text><line style="stroke:#000000;stroke-width:1;" x1="4338.31" x2="4473.6987" y1="878.7373" y2="878.7373"/><line style="stroke:#000000;stroke-width:1;" x1="4338.31" x2="4473.6987" y1="886.7373" y2="886.7373"/></g><!--class PureAsyncCli--><g class="entity" data-entity="PureAsyncCli" data-source-line="76" data-uid="ent0045" id="entity_PureAsyncCli"><rect fill="#FFFFFF" height="44" rx="2.5" ry="2.5" style="stroke:#000000;stroke-width:1;" width="118.3779" x="4509.81" y="850.7373"/><ellipse cx="4522.81" cy="864.7373" fill="#FFFFFF" rx="9" ry="9" style="stroke:#000000;stroke-width:1;"/><path d="M4525.2831,870.8804 Q4524.7021,871.1792 4524.0629,871.3286 Q4523.4238,871.478 4522.7182,871.478 Q4520.2114,871.478 4518.8915,869.8262 Q4517.5717,868.1743 4517.5717,865.0532 Q4517.5717,861.9238 4518.8915,860.272 Q4520.2114,858.6201 4522.7182,858.6201 Q4523.4238,858.6201 4524.0712,858.7695 Q4524.7187,858.9189 4525.2831,859.2178 L4525.2831,861.9404 Q4524.6523,861.3594 4524.0588,861.0896 Q4523.4653,860.8198 4522.8344,860.8198 Q4521.4897,860.8198 4520.8049,861.8865 Q4520.1201,862.9531 4520.1201,865.0532 Q4520.1201,867.145 4520.8049,868.2117 Q4521.4897,869.2783 4522.8344,869.2783 Q4523.4653,869.2783 4524.0588,869.0085 Q4524.6523,868.7388 4525.2831,868.1577 Z " fill="#000000"/><text fill="#000000" font-family="Verdana" font-size="14" lengthAdjust="spacing" textLength="90.3779" x="4534.81" y="870.3052">PureAsyncCli</text><line style="stroke:#000000;stroke-width:1;" x1="4510.81" x2="4627.1879" y1="878.7373" y2="878.7373"/><line style="stroke:#000000;stroke-width:1;" x1="4510.81" x2="4627.1879" y1="886.7373" y2="886.7373"/></g><!--class CliFactory--><g class="entity" data-entity="CliFactory" data-source-line="77" data-uid="ent0046" id="entity_CliFactory"><rect fill="#FFFFFF" height="44" rx="2.5" ry="2.5" style="stroke:#000000;stroke-width:1;" width="97.4805" x="4663.26" y="850.7373"/><ellipse cx="4676.26" cy="864.7373" fill="#FFFFFF" rx="9" ry="9" style="stroke:#000000;stroke-width:1;"/><path d="M4678.7331,870.8804 Q4678.1521,871.1792 4677.5129,871.3286 Q4676.8738,871.478 4676.1682,871.478 Q4673.6614,871.478 4672.3415,869.8262 Q4671.0217,868.1743 4671.0217,865.0532 Q4671.0217,861.9238 4672.3415,860.272 Q4673.6614,858.6201 4676.1682,858.6201 Q4676.8738,858.6201 4677.5212,858.7695 Q4678.1687,858.9189 4678.7331,859.2178 L4678.7331,861.9404 Q4678.1023,861.3594 4677.5088,861.0896 Q4676.9153,860.8198 4676.2844,860.8198 Q4674.9397,860.8198 4674.2549,861.8865 Q4673.5701,862.9531 4673.5701,865.0532 Q4673.5701,867.145 4674.2549,868.2117 Q4674.9397,869.2783 4676.2844,869.2783 Q4676.9153,869.2783 4677.5088,869.0085 Q4678.1023,868.7388 4678.7331,868.1577 Z " fill="#000000"/><text fill="#000000" font-family="Verdana" font-size="14" lengthAdjust="spacing" textLength="69.4805" x="4688.26" y="870.3052">CliFactory</text><line style="stroke:#000000;stroke-width:1;" x1="4664.26" x2="4759.7405" y1="878.7373" y2="878.7373"/><line style="stroke:#000000;stroke-width:1;" x1="4664.26" x2="4759.7405" y1="886.7373" y2="886.7373"/></g><!--class PresentationConfig--><g class="entity" data-entity="PresentationConfig" data-source-line="78" data-uid="ent0047" id="entity_PresentationConfig"><rect fill="#FFFFFF" height="44" rx="2.5" ry="2.5" style="stroke:#000000;stroke-width:1;" width="160.5078" x="4336.75" y="1043.7373"/><ellipse cx="4349.75" cy="1057.7373" fill="#FFFFFF" rx="9" ry="9" style="stroke:#000000;stroke-width:1;"/><path d="M4352.2231,1063.8804 Q4351.6421,1064.1792 4351.0029,1064.3286 Q4350.3638,1064.478 4349.6582,1064.478 Q4347.1514,1064.478 4345.8315,1062.8262 Q4344.5117,1061.1743 4344.5117,1058.0532 Q4344.5117,1054.9238 4345.8315,1053.272 Q4347.1514,1051.6201 4349.6582,1051.6201 Q4350.3638,1051.6201 4351.0112,1051.7695 Q4351.6587,1051.9189 4352.2231,1052.2178 L4352.2231,1054.9404 Q4351.5923,1054.3594 4350.9988,1054.0896 Q4350.4053,1053.8198 4349.7744,1053.8198 Q4348.4297,1053.8198 4347.7449,1054.8865 Q4347.0601,1055.9531 4347.0601,1058.0532 Q4347.0601,1060.145 4347.7449,1061.2117 Q4348.4297,1062.2783 4349.7744,1062.2783 Q4350.4053,1062.2783 4350.9988,1062.0085 Q4351.5923,1061.7388 4352.2231,1061.1577 Z " fill="#000000"/><text fill="#000000" font-family="Verdana" font-size="14" lengthAdjust="spacing" textLength="132.5078" x="4361.75" y="1063.3052">PresentationConfig</text><line style="stroke:#000000;stroke-width:1;" x1="4337.75" x2="4496.2578" y1="1071.7373" y2="1071.7373"/><line style="stroke:#000000;stroke-width:1;" x1="4337.75" x2="4496.2578" y1="1079.7373" y2="1079.7373"/></g><!--class Runnable--><g class="entity" data-entity="Runnable" data-source-line="79" data-uid="ent0048" id="entity_Runnable"><rect fill="#FFFFFF" height="44" rx="2.5" ry="2.5" style="stroke:#000000;stroke-width:1;" width="93.625" x="4532.19" y="1043.7373"/><ellipse cx="4545.19" cy="1057.7373" fill="#FFFFFF" rx="9" ry="9" style="stroke:#000000;stroke-width:1;"/><path d="M4541.6177,1054.0024 L4541.6177,1051.8442 L4548.9971,1051.8442 L4548.9971,1054.0024 L4546.5318,1054.0024 L4546.5318,1062.0791 L4548.9971,1062.0791 L4548.9971,1064.2373 L4541.6177,1064.2373 L4541.6177,1062.0791 L4544.0831,1062.0791 L4544.0831,1054.0024 Z " fill="#000000"/><text fill="#000000" font-family="Verdana" font-size="14" font-style="italic" lengthAdjust="spacing" textLength="65.625" x="4557.19" y="1063.3052">Runnable</text><line style="stroke:#000000;stroke-width:1;" x1="4533.19" x2="4624.815" y1="1071.7373" y2="1071.7373"/><line style="stroke:#000000;stroke-width:1;" x1="4533.19" x2="4624.815" y1="1079.7373" y2="1079.7373"/></g><!--class AsyncEntryPoint--><g class="entity" data-entity="AsyncEntryPoint" data-source-line="84" data-uid="ent0050" id="entity_AsyncEntryPoint"><rect fill="#FFFFFF" height="44" rx="2.5" ry="2.5" style="stroke:#000000;stroke-width:1;" width="141.9482" x="3693.03" y="1043.7373"/><ellipse cx="3706.03" cy="1057.7373" fill="#FFFFFF" rx="9" ry="9" style="stroke:#000000;stroke-width:1;"/><path d="M3708.5031,1063.8804 Q3707.9221,1064.1792 3707.2829,1064.3286 Q3706.6438,1064.478 3705.9382,1064.478 Q3703.4314,1064.478 3702.1115,1062.8262 Q3700.7917,1061.1743 3700.7917,1058.0532 Q3700.7917,1054.9238 3702.1115,1053.272 Q3703.4314,1051.6201 3705.9382,1051.6201 Q3706.6438,1051.6201 3707.2912,1051.7695 Q3707.9387,1051.9189 3708.5031,1052.2178 L3708.5031,1054.9404 Q3707.8723,1054.3594 3707.2788,1054.0896 Q3706.6853,1053.8198 3706.0544,1053.8198 Q3704.7097,1053.8198 3704.0249,1054.8865 Q3703.3401,1055.9531 3703.3401,1058.0532 Q3703.3401,1060.145 3704.0249,1061.2117 Q3704.7097,1062.2783 3706.0544,1062.2783 Q3706.6853,1062.2783 3707.2788,1062.0085 Q3707.8723,1061.7388 3708.5031,1061.1577 Z " fill="#000000"/><text fill="#000000" font-family="Verdana" font-size="14" lengthAdjust="spacing" textLength="113.9482" x="3718.03" y="1063.3052">AsyncEntryPoint</text><line style="stroke:#000000;stroke-width:1;" x1="3694.03" x2="3833.9782" y1="1071.7373" y2="1071.7373"/><line style="stroke:#000000;stroke-width:1;" x1="3694.03" x2="3833.9782" y1="1079.7373" y2="1079.7373"/></g><!--class CompositionRoot--><g class="entity" data-entity="CompositionRoot" data-source-line="85" data-uid="ent0051" id="entity_CompositionRoot"><rect fill="#FFFFFF" height="44" rx="2.5" ry="2.5" style="stroke:#000000;stroke-width:1;" width="147.2051" x="3870.4" y="1043.7373"/><ellipse cx="3883.4" cy="1057.7373" fill="#FFFFFF" rx="9" ry="9" style="stroke:#000000;stroke-width:1;"/><path d="M3885.8731,1063.8804 Q3885.2921,1064.1792 3884.6529,1064.3286 Q3884.0138,1064.478 3883.3082,1064.478 Q3880.8014,1064.478 3879.4815,1062.8262 Q3878.1617,1061.1743 3878.1617,1058.0532 Q3878.1617,1054.9238 3879.4815,1053.272 Q3880.8014,1051.6201 3883.3082,1051.6201 Q3884.0138,1051.6201 3884.6612,1051.7695 Q3885.3087,1051.9189 3885.8731,1052.2178 L3885.8731,1054.9404 Q3885.2423,1054.3594 3884.6488,1054.0896 Q3884.0553,1053.8198 3883.4244,1053.8198 Q3882.0797,1053.8198 3881.3949,1054.8865 Q3880.7101,1055.9531 3880.7101,1058.0532 Q3880.7101,1060.145 3881.3949,1061.2117 Q3882.0797,1062.2783 3883.4244,1062.2783 Q3884.0553,1062.2783 3884.6488,1062.0085 Q3885.2423,1061.7388 3885.8731,1061.1577 Z " fill="#000000"/><text fill="#000000" font-family="Verdana" font-size="14" lengthAdjust="spacing" textLength="119.2051" x="3895.4" y="1063.3052">CompositionRoot</text><line style="stroke:#000000;stroke-width:1;" x1="3871.4" x2="4016.6051" y1="1071.7373" y2="1071.7373"/><line style="stroke:#000000;stroke-width:1;" x1="3871.4" x2="4016.6051" y1="1079.7373" y2="1079.7373"/></g><!--class SecureArgParser--><g class="entity" data-entity="SecureArgParser" data-source-line="86" data-uid="ent0052" id="entity_SecureArgParser"><rect fill="#FFFFFF" height="44" rx="2.5" ry="2.5" style="stroke:#000000;stroke-width:1;" width="145.0791" x="4052.46" y="1043.7373"/><ellipse cx="4065.46" cy="1057.7373" fill="#FFFFFF" rx="9" ry="9" style="stroke:#000000;stroke-width:1;"/><path d="M4067.9331,1063.8804 Q4067.3521,1064.1792 4066.7129,1064.3286 Q4066.0738,1064.478 4065.3682,1064.478 Q4062.8614,1064.478 4061.5415,1062.8262 Q4060.2217,1061.1743 4060.2217,1058.0532 Q4060.2217,1054.9238 4061.5415,1053.272 Q4062.8614,1051.6201 4065.3682,1051.6201 Q4066.0738,1051.6201 4066.7212,1051.7695 Q4067.3687,1051.9189 4067.9331,1052.2178 L4067.9331,1054.9404 Q4067.3023,1054.3594 4066.7088,1054.0896 Q4066.1153,1053.8198 4065.4844,1053.8198 Q4064.1397,1053.8198 4063.4549,1054.8865 Q4062.7701,1055.9531 4062.7701,1058.0532 Q4062.7701,1060.145 4063.4549,1061.2117 Q4064.1397,1062.2783 4065.4844,1062.2783 Q4066.1153,1062.2783 4066.7088,1062.0085 Q4067.3023,1061.7388 4067.9331,1061.1577 Z " fill="#000000"/><text fill="#000000" font-family="Verdana" font-size="14" lengthAdjust="spacing" textLength="117.0791" x="4077.46" y="1063.3052">SecureArgParser</text><line style="stroke:#000000;stroke-width:1;" x1="4053.46" x2="4196.5391" y1="1071.7373" y2="1071.7373"/><line style="stroke:#000000;stroke-width:1;" x1="4053.46" x2="4196.5391" y1="1079.7373" y2="1079.7373"/></g><!--class AppConfig--><g class="entity" data-entity="AppConfig" data-source-line="87" data-uid="ent0053" id="entity_AppConfig"><rect fill="#FFFFFF" height="44" rx="2.5" ry="2.5" style="stroke:#000000;stroke-width:1;" width="99.6338" x="3714.18" y="1183.7373"/><ellipse cx="3727.18" cy="1197.7373" fill="#FFFFFF" rx="9" ry="9" style="stroke:#000000;stroke-width:1;"/><path d="M3729.6531,1203.8804 Q3729.0721,1204.1792 3728.4329,1204.3286 Q3727.7938,1204.478 3727.0882,1204.478 Q3724.5814,1204.478 3723.2615,1202.8262 Q3721.9417,1201.1743 3721.9417,1198.0532 Q3721.9417,1194.9238 3723.2615,1193.272 Q3724.5814,1191.6201 3727.0882,1191.6201 Q3727.7938,1191.6201 3728.4412,1191.7695 Q3729.0887,1191.9189 3729.6531,1192.2178 L3729.6531,1194.9404 Q3729.0223,1194.3594 3728.4288,1194.0896 Q3727.8353,1193.8198 3727.2044,1193.8198 Q3725.8597,1193.8198 3725.1749,1194.8865 Q3724.4901,1195.9531 3724.4901,1198.0532 Q3724.4901,1200.145 3725.1749,1201.2117 Q3725.8597,1202.2783 3727.2044,1202.2783 Q3727.8353,1202.2783 3728.4288,1202.0085 Q3729.0223,1201.7388 3729.6531,1201.1577 Z " fill="#000000"/><text fill="#000000" font-family="Verdana" font-size="14" lengthAdjust="spacing" textLength="71.6338" x="3739.18" y="1203.3052">AppConfig</text><line style="stroke:#000000;stroke-width:1;" x1="3715.18" x2="3812.8138" y1="1211.7373" y2="1211.7373"/><line style="stroke:#000000;stroke-width:1;" x1="3715.18" x2="3812.8138" y1="1219.7373" y2="1219.7373"/></g><!--class EntryPoint--><g class="entity" data-entity="EntryPoint" data-source-line="88" data-uid="ent0054" id="entity_EntryPoint"><rect fill="#FFFFFF" height="44" rx="2.5" ry="2.5" style="stroke:#000000;stroke-width:1;" width="100.6455" x="3848.68" y="1183.7373"/><ellipse cx="3861.68" cy="1197.7373" fill="#FFFFFF" rx="9" ry="9" style="stroke:#000000;stroke-width:1;"/><path d="M3864.1531,1203.8804 Q3863.5721,1204.1792 3862.9329,1204.3286 Q3862.2938,1204.478 3861.5882,1204.478 Q3859.0814,1204.478 3857.7615,1202.8262 Q3856.4417,1201.1743 3856.4417,1198.0532 Q3856.4417,1194.9238 3857.7615,1193.272 Q3859.0814,1191.6201 3861.5882,1191.6201 Q3862.2938,1191.6201 3862.9412,1191.7695 Q3863.5887,1191.9189 3864.1531,1192.2178 L3864.1531,1194.9404 Q3863.5223,1194.3594 3862.9288,1194.0896 Q3862.3353,1193.8198 3861.7044,1193.8198 Q3860.3597,1193.8198 3859.6749,1194.8865 Q3858.9901,1195.9531 3858.9901,1198.0532 Q3858.9901,1200.145 3859.6749,1201.2117 Q3860.3597,1202.2783 3861.7044,1202.2783 Q3862.3353,1202.2783 3862.9288,1202.0085 Q3863.5223,1201.7388 3864.1531,1201.1577 Z " fill="#000000"/><text fill="#000000" font-family="Verdana" font-size="14" lengthAdjust="spacing" textLength="72.6455" x="3873.68" y="1203.3052">EntryPoint</text><line style="stroke:#000000;stroke-width:1;" x1="3849.68" x2="3948.3255" y1="1211.7373" y2="1211.7373"/><line style="stroke:#000000;stroke-width:1;" x1="3849.68" x2="3948.3255" y1="1219.7373" y2="1219.7373"/></g><g class="entity" data-entity="GMN55" data-source-line="92" data-uid="ent0056" id="entity_GMN55"><path d="M4904.99,298.0373 L4904.99,355.4353 L5101.0076,355.4353 L5101.0076,308.0373 L5091.0076,298.0373 L4904.99,298.0373" fill="#FFFFCC" style="stroke:#666666;stroke-width:1;"/><path d="M5091.0076,298.0373 L5091.0076,308.0373 L5101.0076,308.0373 L5091.0076,298.0373" fill="#FFFFCC" style="stroke:#666666;stroke-width:1;"/><text fill="#000000" font-family="Verdana" font-size="13" lengthAdjust="spacing" textLength="175.0176" x="4910.99" y="316.1071">"No external dependencies</text><text fill="#000000" font-family="Verdana" font-size="13" lengthAdjust="spacing" textLength="124.5791" x="4910.99" y="331.9064">Pure business logic</text><text fill="#000000" font-family="Verdana" font-size="13" lengthAdjust="spacing" textLength="79.7202" x="4910.99" y="347.7058">Stable core"</text></g><g class="entity" data-entity="GMN58" data-source-line="93" data-uid="ent0059" id="entity_GMN58"><path d="M4905.32,579.0373 L4905.32,636.4353 L5136.6877,636.4353 L5136.6877,589.0373 L5126.6877,579.0373 L4905.32,579.0373" fill="#FFFFCC" style="stroke:#666666;stroke-width:1;"/><path d="M5126.6877,579.0373 L5126.6877,589.0373 L5136.6877,589.0373 L5126.6877,579.0373" fill="#FFFFCC" style="stroke:#666666;stroke-width:1;"/><text fill="#000000" font-family="Verdana" font-size="13" lengthAdjust="spacing" textLength="184.6025" x="4911.32" y="597.1071">"Orchestrates business logic</text><text fill="#000000" font-family="Verdana" font-size="13" lengthAdjust="spacing" textLength="175.0049" x="4911.32" y="612.9064">Defines boundaries (ports)</text><text fill="#000000" font-family="Verdana" font-size="13" lengthAdjust="spacing" textLength="210.3677" x="4911.32" y="628.7058">No infrastructure dependencies"</text></g><g class="entity" data-entity="GMN61" data-source-line="94" data-uid="ent0062" id="entity_GMN61"><path d="M4904.97,1037.0373 L4904.97,1094.4353 L5235.031,1094.4353 L5235.031,1047.0373 L5225.031,1037.0373 L4904.97,1037.0373" fill="#FFFFCC" style="stroke:#666666;stroke-width:1;"/><path d="M5225.031,1037.0373 L5225.031,1047.0373 L5235.031,1047.0373 L5225.031,1037.0373" fill="#FFFFCC" style="stroke:#666666;stroke-width:1;"/><text fill="#000000" font-family="Verdana" font-size="13" lengthAdjust="spacing" textLength="179.9814" x="4910.97" y="1055.1071">"Technical implementations</text><text fill="#000000" font-family="Verdana" font-size="13" lengthAdjust="spacing" textLength="187.5161" x="4910.97" y="1070.9064">External system integrations</text><text fill="#000000" font-family="Verdana" font-size="13" lengthAdjust="spacing" textLength="309.061" x="4910.97" y="1086.7058">Implements domain and application interfaces"</text></g><g class="entity" data-entity="GMN64" data-source-line="95" data-uid="ent0065" id="entity_GMN64"><path d="M5171.99,579.0373 L5171.99,636.4353 L5410.01,636.4353 L5410.01,589.0373 L5400.01,579.0373 L5171.99,579.0373" fill="#FFFFCC" style="stroke:#666666;stroke-width:1;"/><path d="M5400.01,579.0373 L5400.01,589.0373 L5410.01,589.0373 L5400.01,579.0373" fill="#FFFFCC" style="stroke:#666666;stroke-width:1;"/><text fill="#000000" font-family="Verdana" font-size="13" lengthAdjust="spacing" textLength="134.1514" x="5177.99" y="597.1071">"User interface layer</text><text fill="#000000" font-family="Verdana" font-size="13" lengthAdjust="spacing" textLength="128.3306" x="5177.99" y="612.9064">CLI implementation</text><text fill="#000000" font-family="Verdana" font-size="13" lengthAdjust="spacing" textLength="217.02" x="5177.99" y="628.7058">Future: REST, GraphQL, Web UI"</text></g><g class="entity" data-entity="GMN67" data-source-line="96" data-uid="ent0068" id="entity_GMN67"><path d="M5270.19,1037.0373 L5270.19,1094.4353 L5509.8096,1094.4353 L5509.8096,1047.0373 L5499.8096,1037.0373 L5270.19,1037.0373" fill="#FFFFCC" style="stroke:#666666;stroke-width:1;"/><path d="M5499.8096,1037.0373 L5499.8096,1047.0373 L5509.8096,1047.0373 L5499.8096,1037.0373" fill="#FFFFCC" style="stroke:#666666;stroke-width:1;"/><text fill="#000000" font-family="Verdana" font-size="13" lengthAdjust="spacing" textLength="127.0166" x="5276.19" y="1055.1071">"Entry point and DI</text><text fill="#000000" font-family="Verdana" font-size="13" lengthAdjust="spacing" textLength="218.6196" x="5276.19" y="1070.9064">Only module that knows all types</text><text fill="#000000" font-family="Verdana" font-size="13" lengthAdjust="spacing" textLength="155.3779" x="5276.19" y="1086.7058">Wires all dependencies"</text></g><!--link domain to GMN55--><g class="link" data-entity-1="domain" data-entity-2="GMN55" data-source-line="92" data-uid="lnk57" id="link_domain_GMN55"><path d="M3631.6923,326.7373 C3635.0331,326.7373 3638.3739,326.7373 3641.7147,326.7373 C3648.3963,326.7373 3655.0778,326.7373 3661.7594,326.7373 C3675.1225,326.7373 3688.4856,326.7373 3701.8488,326.7373 C3728.575,326.7373 3755.3013,326.7373 3782.0275,326.7373 C3835.48,326.7373 3888.9325,326.7373 3942.385,326.7373 C4049.29,326.7373 4156.195,326.7373 4263.1,326.7373 C4476.91,326.7373 4690.72,326.7373 4904.53,326.7373" fill="none" id="domain-GMN55" style="stroke:#000000;stroke-width:1;stroke-dasharray:7,7;"/></g><!--link GMN58 to application--><g class="link" data-entity-1="GMN58" data-entity-2="application" data-source-line="93" data-uid="lnk60" id="link_GMN58_application"><path d="M4904.85,607.7373 C4512.31,607.7373 4119.77,607.7373 3727.2288,607.7373 C3530.9581,607.7373 3334.6872,607.7373 3138.4158,607.7373 C3040.2801,607.7373 2942.1443,607.7373 2844.0083,607.7373 C2794.9403,607.7373 2745.8723,607.7373 2696.8043,607.7373 C2672.2702,607.7373 2647.7362,607.7373 2623.2022,607.7373 C2610.9351,607.7373 2598.6681,607.7373 2586.4011,607.7373 C2580.2676,607.7373 2574.1341,607.7373 2568.0005,607.7373 C2564.9338,607.7373 2561.867,607.7373 2558.8003,607.7373" fill="none" id="GMN58-application" style="stroke:#000000;stroke-width:1;stroke-dasharray:7,7;"/></g><!--link infrastructure to GMN61--><g class="link" data-entity-1="infrastructure" data-entity-2="GMN61" data-source-line="94" data-uid="lnk63" id="link_infrastructure_GMN61"><path d="M3629.3051,875.1818 C3629.5412,875.2226 3629.782,875.2642 3630.0277,875.3066 C3630.5191,875.3915 3631.0298,875.4796 3631.5595,875.5708 C3633.6783,875.936 3636.1021,876.3521 3638.818,876.816 C3649.6819,878.6717 3665.2203,881.2926 3684.6138,884.4761 C3723.4006,890.8429 3777.6075,899.4598 3840.6775,908.7048 C3966.8175,927.1948 4128.41,948.1973 4273,958.7373 C4328.86,962.8073 4721.79,957.2973 4777,966.7373 C4857.89,980.5673 4946.75,1012.8673 5005.16,1036.6273" fill="none" id="infrastructure-GMN61" style="stroke:#000000;stroke-width:1;stroke-dasharray:7,7;"/></g><!--link GMN64 to presentation--><g class="link" data-entity-1="GMN64" data-entity-2="presentation" data-source-line="95" data-uid="lnk66" id="link_GMN64_presentation"><path d="M5247.95,636.8473 C5221.91,652.1773 5187.39,669.6373 5154,677.7373 C5131.51,683.1973 4338.62,670.7373 4321,685.7373 C4305.2775,699.1148 4295.3556,717.1729 4289.3316,736.7976 C4288.5786,739.2507 4287.8865,741.7283 4287.2515,744.2242 C4287.1722,744.5362 4287.0937,744.8485 4287.0161,745.1611" fill="none" id="GMN64-presentation" style="stroke:#000000;stroke-width:1;stroke-dasharray:7,7;"/></g><!--link bootstrap to GMN67--><g class="link" data-entity-1="bootstrap" data-entity-2="GMN67" data-source-line="96" data-uid="lnk69" id="link_bootstrap_GMN67"><path d="M4241.1227,1052.0871 C4241.2633,1051.8637 4241.4057,1051.6381 4241.5497,1051.4104 C4246.1588,1044.1248 4252.4988,1034.6698 4260.245,1024.5073 C4275.7375,1004.1823 4296.855,981.0273 4321,966.7373 C4327.87,962.6773 4330.57,963.6273 4338.5,962.7373 C4363.26,959.9473 5210.74,959.9473 5235.5,962.7373 C5287.39,968.5973 5335.48,1008.2873 5363.8,1036.6473" fill="none" id="bootstrap-GMN67" style="stroke:#000000;stroke-width:1;stroke-dasharray:7,7;"/></g><!--reverse link domain to application--><g class="link" data-entity-1="domain" data-entity-2="application" data-source-line="99" data-uid="lnk70" id="link_domain_application"><path codeLine="99" d="M3599.1668,402.1503 C3598.837,402.6712 3601.4361,398.4919 3601.0947,399.0043 C3600.412,400.029 3599.7059,401.0362 3598.9756,402.0232 C3596.0544,405.9714 3592.7463,409.5973 3589,412.7373 C3499.615,487.6573 3242.9625,535.9873 3007.0025,565.6711 C2889.0225,580.5129 2776.2156,590.6932 2692.0769,597.205 C2650.0075,600.4608 2615.1052,602.7995 2590.3067,604.3452 C2577.9075,605.1181 2568.0343,605.6926 2561.0541,606.0845 C2560.1816,606.1335 2559.3543,606.1796 2558.5729,606.2229 C2558.1822,606.2445 2557.803,606.2655 2557.4353,606.2857" fill="none" id="domain-backto-application" style="stroke:#000000;stroke-width:1;"/><polygon fill="#000000" points="3602.3476,397.0629,3594.1848,402.5735,3599.6969,401.3024,3600.9681,406.8146,3602.3476,397.0629" style="stroke:#000000;stroke-width:1;"/></g><!--reverse link domain to infrastructure--><g class="link" data-entity-1="domain" data-entity-2="infrastructure" data-source-line="100" data-uid="lnk71" id="link_domain_infrastructure"><path codeLine="100" d="M3621,402.9182 C3621,408.7206 3621,408.808 3621,415.1489 C3621,465.8754 3621,532.8186 3621,599.7598 C3621,633.2304 3621,666.7006 3621,698.143 C3621,699.1255 3621,700.1061 3621,701.0847" fill="none" id="domain-backto-infrastructure" style="stroke:#000000;stroke-width:1;"/><polygon fill="#000000" points="3621,396.9182,3617,405.9182,3621,401.9182,3625,405.9182,3621,396.9182" style="stroke:#000000;stroke-width:1;"/></g><!--reverse link application to infrastructure--><g class="link" data-entity-1="application" data-entity-2="infrastructure" data-source-line="101" data-uid="lnk72" id="link_application_infrastructure"><path codeLine="101" d="M2563.2012,608.7501 C2564.0199,608.7514 2560.0794,608.7463 2560.9999,608.7481 C2568.3641,608.7623 2578.9593,608.7935 2592.3456,608.861 C2619.1182,608.996 2657.0555,609.276 2702.6392,609.8546 C2793.8066,611.012 2915.5594,613.3642 3039.7513,618.1411 C3288.135,627.6948 3546.275,646.9473 3589,685.7373 C3592.8206,689.2061 3596.2923,692.952 3599.4434,696.928 C3600.2312,697.922 3600.9989,698.9303 3601.7471,699.9523 C3602.1212,700.4633 3602.4904,700.9778 3602.8547,701.4955" fill="none" id="application-backto-infrastructure" style="stroke:#000000;stroke-width:1;"/><polygon fill="#000000" points="2557.2012,608.7418,2566.1957,612.7542,2562.2012,608.7487,2566.2068,604.7542,2557.2012,608.7418" style="stroke:#000000;stroke-width:1;"/></g><!--reverse link application to presentation--><g class="link" data-entity-1="application" data-entity-2="presentation" data-source-line="102" data-uid="lnk73" id="link_application_presentation"><path codeLine="102" d="M2563.2362,608.6384 C2571.8155,608.5879 2583.9028,608.5311 2599.6047,608.4857 C2631.0085,608.395 2675.7364,608.3654 2730.1041,608.6017 C2838.8394,609.0742 2986.1338,610.6098 3142.5125,614.8448 C3455.27,623.3148 3804.365,642.5823 3954,685.7373 C4034.535,708.9673 4116.9475,754.3873 4179.88,794.5273 C4211.3463,814.5973 4237.9425,833.3473 4256.9991,847.3436 C4266.5273,854.3417 4274.1707,860.1514 4279.5954,864.3434 C4279.9345,864.6054 4280.2649,864.8611 4280.5865,865.1103" fill="none" id="application-backto-presentation" style="stroke:#000000;stroke-width:1;"/><polygon fill="#000000" points="2557.2363,608.6778,2566.2624,612.6186,2562.2362,608.6449,2566.2098,604.6188,2557.2363,608.6778" style="stroke:#000000;stroke-width:1;"/></g><!--reverse link infrastructure to bootstrap--><g class="link" data-entity-1="infrastructure" data-entity-2="bootstrap" data-source-line="103" data-uid="lnk74" id="link_infrastructure_bootstrap"><path codeLine="103" d="M3635.023,878.8165 C3640.4048,880.7441 3643.3012,881.7402 3652.6673,884.9556 C3671.3997,891.3864 3697.3569,899.9954 3727.5638,909.1936 C3787.9775,927.5898 3865.39,948.3423 3936,958.7373 C3951.29,960.9873 4202.22,956.7373 4214,966.7373 C4218.1613,970.2711 4221.5861,974.4189 4224.3928,978.9761 C4225.0944,980.1154 4225.7574,981.2804 4226.3837,982.4677" fill="none" id="infrastructure-backto-bootstrap" style="stroke:#000000;stroke-width:1;"/><polygon fill="#000000" points="3629.3759,876.7891,3636.4949,883.595,3634.0818,878.4786,3639.1981,876.0655,3629.3759,876.7891" style="stroke:#000000;stroke-width:1;"/></g><!--reverse link application to bootstrap--><g class="link" data-entity-1="application" data-entity-2="bootstrap" data-source-line="104" data-uid="lnk75" id="link_application_bootstrap"><path codeLine="104" d="M2563.3876,609.0002 C2564.1653,609.015 2560.1218,608.9391 2560.9903,608.9558 C2567.9389,609.0899 2577.7753,609.2878 2590.1482,609.5579 C2614.8941,610.098 2649.786,610.9265 2692.0127,612.1089 C2776.4659,614.4736 2890.2581,618.2536 3010.8988,623.9723 C3252.18,635.4098 3520.855,654.6023 3637,685.7373 C3912.51,759.5973 4040.35,740.4473 4214,966.7373 C4217.3238,971.0686 4220.1172,975.8176 4222.4605,980.8161 C4222.7534,981.4409 4223.0393,982.0696 4223.3183,982.7019" fill="none" id="application-backto-bootstrap" style="stroke:#000000;stroke-width:1;"/><polygon fill="#000000" points="2557.3887,608.8871,2566.3117,613.0561,2562.3878,608.9814,2566.4625,605.0575,2557.3887,608.8871" style="stroke:#000000;stroke-width:1;"/></g><!--reverse link presentation to bootstrap--><g class="link" data-entity-1="presentation" data-entity-2="bootstrap" data-source-line="105" data-uid="lnk76" id="link_presentation_bootstrap"><path codeLine="105" d="M4279.2475,906.9994 C4278.9358,908.0625 4280.0731,904.1836 4279.7486,905.2904 C4274.5559,922.9998 4267.7719,946.1373 4260.9888,969.2723 C4254.2056,992.4073 4247.4234,1015.5398 4242.2345,1033.2392 C4241.9102,1034.3454 4241.5921,1035.4304 4241.2807,1036.4928 C4241.2028,1036.7584 4241.1253,1037.0226 4241.0483,1037.2854" fill="none" id="presentation-backto-bootstrap" style="stroke:#000000;stroke-width:1;"/><polygon fill="#000000" points="4280.9357,901.2418,4274.565,908.7527,4279.5289,906.0398,4282.2418,911.0037,4280.9357,901.2418" style="stroke:#000000;stroke-width:1;"/></g><!--SRC=[dLPHRzCm47xFhpZA0o2nYHSGGXFILXgeX5XOGRpqnNKkYJN7Zcm7YD3-EsUdwP8qAHMPDAdnvxlllkzypXDNO8bGIIPKv8IJ29-QdH4fN1jU28VSrGRX0XB6xrcEi76c3k-YoDuBLJ73IgZQnOrhQB-XFKpb4ey1y2S2UcxeLsvqhTAbbjfSNNtG9UL__nwUhjx6hrTlfr7NLIK5Pqxe3legZgUXQvKPPZkg7Xt7yu4JWnQLEqIEOnzx6dkZjQF0h0h0L_wl1MgJeWaWUFecFD53NoEbtKpzWLoyN9wAqmcuuBgyP3lXT5QWh2wBODPY7pZyEq3JeEe2Ulgsi07g9vCrBdeh_k6IMGi96glL5rRYOV7XE815yrFmen12EJGPumWV3Q8JAj-qm8b47IBHP71pAXaQeyqqsxR8bGUC8ZnCYCCUcyahDEoj2PbgYvpP6Q6M1fd3hehl5fS4dSNTCCUB3cp7w8cYAstS9VLHxUP57b9OUt12sqwYXqIEzynHqRKxoUKsh9z87n8dHdEqDjX-Ecdgz3cwBtLPCfLEu0Q5piCwn1tQMhh_RCDU9qtruY0CrpG5A2FQcVgwzH3f4x6MU4vpYy7uy_rzD10dMfobh2A7Pkpj62ch9ROENxSRvc61zh-miVXtl9iwoz1WUWwM_AsqfQjh6dZ-1DkF5SmOTSFS49iteUhTAjw2qIqpOG2NOgQdRAFuKegxMgd9cXCojGDDII95pBZJffdQs-D5lcKYdpcrFZlRoNDgttMtf2-yVsK-LjUhRAMSQH9DcQ9fAudP7GKPhMwG-x9DdZ1ZUx8Spk6eclRzADc3lrt3tMn4NZZG6RJt9ho3nHSD-9lALqn2YXMg51KNQBVA2mwxslgpQq7gNF2jsZWl3z2fnaKRKs8MGlPk6n_tbhwjq4lYq1v5eORpls7dFn2OeNJmt8zT-sAhYD3mR0zexPFkj7Ewz6b7MChy3NcXY8a4KLQIFltsnbD9gwvIsrY7PJ0-DztgkeFRJX-QHeEw3etIyN2wyYJwvy1Je0lFzBfAiWRDLYq_hqUKjYgkFUrtSBVQV7j9qvbLnTVFB-47xk3xUZ5oxT1oFaSm6IhlSk3vORrLjqesKEgq9ejSmHpSA_tB0fCIN5DvKty8eXfU35MDdj4KU7m1ppCjfVv5qu1w2Xb9qVzMDfJ0leZsAbrTNFHLwhyUkXFrjJnZkIzhD3BQhn_qEDhvk3AmPhZq5m00]--></g></svg>