<svg xmlns="http://www.w3.org/2000/svg" xmlns:xlink="http://www.w3.org/1999/xlink" contentStyleType="text/css" data-diagram-type="CLASS" height="759px" preserveAspectRatio="none" style="width:4570px;height:759px;background:#FFFFFF;" version="1.1" viewBox="0 0 4570 759" width="4570px" zoomAndPan="magnify"><title>Presentation Layer - Class Diagram (Async Architecture)</title><defs/><g><g class="title" data-source-line="2"><text fill="#000000" font-family="Verdana" font-size="22" font-weight="bold" lengthAdjust="spacing" textLength="701.25" x="1930.1026" y="37.1182">Presentation Layer - Class Diagram (Async Architecture)</text></g><!--cluster Presentation Layer--><g class="cluster" data-entity="Presentation Layer" data-source-line="4" data-uid="ent0002" id="cluster_Presentation Layer"><path d="M13.5,95.0173 L163.4961,95.0173 A3.75,3.75 0 0 1 165.9961,97.5173 L172.9961,118.032 L3500.5,118.032 A2.5,2.5 0 0 1 3503,120.532 L3503,750.2873 A2.5,2.5 0 0 1 3500.5,752.7873 L13.5,752.7873 A2.5,2.5 0 0 1 11,750.2873 L11,97.5173 A2.5,2.5 0 0 1 13.5,95.0173" fill="#FFFFFF" style="stroke:#000000;stroke-width:1;"/><line style="stroke:#000000;stroke-width:1;" x1="11" x2="172.9961" y1="118.032" y2="118.032"/><text fill="#000000" font-family="Verdana" font-size="14" font-weight="bold" lengthAdjust="spacing" textLength="148.9961" x="15" y="111.0925">Presentation Layer</text></g><!--cluster cli--><g class="cluster" data-entity="cli" data-source-line="5" data-uid="ent0003" id="cluster_cli"><path d="M37.5,148.2173 L56.3076,148.2173 A3.75,3.75 0 0 1 58.8076,150.7173 L65.8076,171.232 L2323.5,171.232 A2.5,2.5 0 0 1 2326,173.732 L2326,726.2873 A2.5,2.5 0 0 1 2323.5,728.7873 L37.5,728.7873 A2.5,2.5 0 0 1 35,726.2873 L35,150.7173 A2.5,2.5 0 0 1 37.5,148.2173" fill="#FFFFFF" style="stroke:#000000;stroke-width:1;"/><line style="stroke:#000000;stroke-width:1;" x1="35" x2="65.8076" y1="171.232" y2="171.232"/><text fill="#000000" font-family="Verdana" font-size="14" font-weight="bold" lengthAdjust="spacing" textLength="17.8076" x="39" y="164.2925">cli</text></g><!--cluster Future UI--><g class="cluster" data-entity="Future UI" data-source-line="37" data-uid="ent0011" id="cluster_Future UI"><path d="M2377.7028,166.3168 C2398.2715,132.0877 2432.4068,128.7567 2454.5444,164.5961 C2477.9353,117.1982 2515.8688,117.1653 2541.3341,162.6578 C2565.9734,128.2698 2587.9495,131.6548 2612.2702,163.0016 C2633.5884,122.3434 2670.2464,121.4714 2692.5485,162.0291 C2710.8955,126.1935 2747.5905,123.662 2768.3583,159.4675 C2790.6339,124.2504 2821.5888,120.3502 2844.4773,158.8346 C2864.5086,120.4699 2892.8242,120.9592 2915.7103,156.0668 C2945.7693,116.3538 2973.069,124.3686 2996.2292,163.144 C3019.5065,129.0871 3045.9343,121.5095 3070.7177,161.6317 C3095.0703,117.5519 3130.277,117.095 3157.1452,159.1063 C3178.5642,121.6497 3208.5119,123.8026 3229.9569,159.0803 C3257.4888,121.3304 3288.4904,121.4302 3311.5409,163.6521 C3336.4918,125.2631 3364.303,129.8809 3386.4477,166.4559 C3408.0394,131.8909 3437.283,125.4336 3463,162.0173 C3463.6672,161.0693 3464.5765,161.2365 3465.1346,162.1428 C3479.7757,168.303 3483.7918,182.0085 3469.8389,192.5871 C3483.0616,198.6524 3484.4636,212.5272 3472.4337,220.9062 C3487.7126,231.675 3488.4409,244.3302 3470.5659,253.1802 C3479.5591,268.6655 3477.0934,283.3084 3456,285.0373 C3464.4241,281.473 3469.1242,286.2107 3468.5215,294.5403 C3444.0415,329.0379 3404.8301,327.9037 3386.462,287.8159 C3368.2442,331.4404 3332.0036,340.4996 3302.3144,299.1797 C3283.0195,339.4681 3246.8542,335.8157 3228.4874,298.2991 C3207.131,331.5224 3181.2859,335.3525 3158.8984,299.3354 C3130.8536,340.2083 3091.2579,335.8628 3070.8115,291.4843 C3052.0552,329.2152 3027.4974,328.3745 3004.0023,296.0003 C2973.6186,341.9235 2943.6494,336.5702 2914.6117,294.6309 C2894.0429,337.1954 2863.9053,330.2108 2837.4213,300.9917 C2814.5026,336.6563 2782.2689,337.518 2761.0138,299.272 C2737.0677,333.3511 2705.6264,331.7298 2688.2015,292.771 C2666.3155,324.1503 2636.8319,322.0396 2618.2507,289.1728 C2594.6661,332.3203 2567.5756,324.9678 2539.8188,293.5621 C2509.8468,337.3028 2484.4651,332.5327 2455.6892,292.3629 C2424.8409,326.6613 2383.1997,329.1894 2366,278.0373 C2369.1632,279.4495 2369.1889,281.5884 2366.5577,283.5833 C2351.3183,274.6324 2349.8833,261.0911 2366.5032,252.085 C2349.5872,247.9826 2346.325,233.179 2356.9455,220.6928 C2344.146,208.4094 2348.4889,196.0296 2365.0248,192.0091 C2349.936,176.0187 2354.7963,163.8301 2373,155.0173 C2379.9018,156.2193 2381.2835,160.752 2377.7028,166.3168" fill="#FFFFFF" style="stroke:#000000;stroke-width:1;"/><text fill="#000000" font-family="Verdana" font-size="14" font-weight="bold" lengthAdjust="spacing" textLength="75.4824" x="2876.7588" y="174.0925">Future UI</text></g><!--cluster Application Layer--><g class="cluster" data-entity="Application Layer" data-source-line="55" data-uid="ent0015" id="cluster_Application Layer"><rect fill="#FFFFFF" height="96" rx="2.5" ry="2.5" style="stroke:#000000;stroke-width:1;" width="817" x="3527" y="600.4673"/><text fill="#000000" font-family="Verdana" font-size="14" font-weight="bold" lengthAdjust="spacing" textLength="136.7803" x="3867.1099" y="616.5425">Application Layer</text></g><!--class AsyncCliRunner--><g class="entity" data-entity="AsyncCliRunner" data-source-line="6" data-uid="ent0004" id="entity_AsyncCliRunner"><rect fill="#FFFFFF" height="163.1025" rx="2.5" ry="2.5" style="stroke:#000000;stroke-width:1;" width="403.4971" x="1906.25" y="364.0373"/><ellipse cx="2049.5542" cy="378.0373" fill="#FFFFFF" rx="9" ry="9" style="stroke:#000000;stroke-width:1;"/><path d="M2052.0273,384.1804 Q2051.4463,384.4792 2050.8071,384.6286 Q2050.168,384.778 2049.4624,384.778 Q2046.9556,384.778 2045.6357,383.1262 Q2044.3159,381.4743 2044.3159,378.3532 Q2044.3159,375.2238 2045.6357,373.572 Q2046.9556,371.9201 2049.4624,371.9201 Q2050.168,371.9201 2050.8154,372.0695 Q2051.4629,372.2189 2052.0273,372.5178 L2052.0273,375.2404 Q2051.3965,374.6594 2050.803,374.3896 Q2050.2095,374.1198 2049.5786,374.1198 Q2048.2339,374.1198 2047.5491,375.1865 Q2046.8643,376.2531 2046.8643,378.3532 Q2046.8643,380.445 2047.5491,381.5117 Q2048.2339,382.5783 2049.5786,382.5783 Q2050.2095,382.5783 2050.803,382.3085 Q2051.3965,382.0388 2052.0273,381.4577 Z " fill="#000000"/><text fill="#000000" font-family="Verdana" font-size="14" lengthAdjust="spacing" textLength="109.3887" x="2067.0542" y="383.6052">AsyncCliRunner</text><line style="stroke:#000000;stroke-width:1;" x1="1907.25" x2="2308.7471" y1="392.0373" y2="392.0373"/><rect fill="none" height="6" style="stroke:#000000;stroke-width:1;" width="6" x="1914.25" y="403.0446"/><text fill="#000000" font-family="Verdana" font-size="14" lengthAdjust="spacing" textLength="288.6885" x="1924.25" y="410.1125">createGreeting: CreateGreetingInputPort</text><rect fill="none" height="6" style="stroke:#000000;stroke-width:1;" width="6" x="1914.25" y="420.0593"/><text fill="#000000" font-family="Verdana" font-size="14" lengthAdjust="spacing" textLength="227.4521" x="1924.25" y="427.1271">dispatcher: CoroutineDispatcher</text><rect fill="none" height="6" style="stroke:#000000;stroke-width:1;" width="6" x="1914.25" y="437.0739"/><text fill="#000000" font-family="Verdana" font-size="14" lengthAdjust="spacing" textLength="132.2617" x="1924.25" y="444.1418">job: SupervisorJob</text><rect fill="none" height="6" style="stroke:#000000;stroke-width:1;" width="6" x="1914.25" y="454.0886"/><text fill="#000000" font-family="Verdana" font-size="14" lengthAdjust="spacing" textLength="291.7441" x="1924.25" y="461.1564">errorHandler: CoroutineExceptionHandler</text><line style="stroke:#000000;stroke-width:1;" x1="1907.25" x2="2308.7471" y1="468.0959" y2="468.0959"/><ellipse cx="1917.25" cy="482.1032" fill="#FFFFFF" rx="3" ry="3" style="stroke:#000000;stroke-width:1;"/><text fill="#000000" font-family="Verdana" font-size="14" lengthAdjust="spacing" textLength="379.4971" x="1924.25" y="486.1711">runAsync(config: PresentationConfig): Deferred&lt;Int&gt;</text><ellipse cx="1917.25" cy="499.1179" fill="#FFFFFF" rx="3" ry="3" style="stroke:#000000;stroke-width:1;"/><text fill="#000000" font-family="Verdana" font-size="14" lengthAdjust="spacing" textLength="120.5244" x="1924.25" y="503.1857">shutdown(): Unit</text><rect fill="#FFFFFF" height="6" style="stroke:#000000;stroke-width:1;" width="6" x="1914.25" y="513.1325"/><text fill="#000000" font-family="Verdana" font-size="14" lengthAdjust="spacing" textLength="288.4629" x="1924.25" y="520.2004">handleCoroutineException(e: Throwable)</text></g><!--class CoroutineScope--><g class="entity" data-entity="CoroutineScope" data-source-line="7" data-uid="ent0005" id="entity_CoroutineScope"><rect fill="#FFFFFF" height="44" rx="2.5" ry="2.5" style="stroke:#000000;stroke-width:1;" width="138.585" x="755.71" y="208.0273"/><ellipse cx="768.71" cy="222.0273" fill="#FFFFFF" rx="9" ry="9" style="stroke:#000000;stroke-width:1;"/><path d="M765.1377,218.2924 L765.1377,216.1342 L772.5171,216.1342 L772.5171,218.2924 L770.0518,218.2924 L770.0518,226.3691 L772.5171,226.3691 L772.5171,228.5273 L765.1377,228.5273 L765.1377,226.3691 L767.6031,226.3691 L767.6031,218.2924 Z " fill="#000000"/><text fill="#000000" font-family="Verdana" font-size="14" font-style="italic" lengthAdjust="spacing" textLength="110.585" x="780.71" y="227.5952">CoroutineScope</text><line style="stroke:#000000;stroke-width:1;" x1="756.71" x2="893.295" y1="236.0273" y2="236.0273"/><line style="stroke:#000000;stroke-width:1;" x1="756.71" x2="893.295" y1="244.0273" y2="244.0273"/></g><!--class SuspendCli--><g class="entity" data-entity="SuspendCli" data-source-line="17" data-uid="ent0007" id="entity_SuspendCli"><rect fill="#FFFFFF" height="74.6133" rx="2.5" ry="2.5" style="stroke:#000000;stroke-width:1;" width="670.2559" x="50.87" y="192.7173"/><ellipse cx="322.9149" cy="213.5166" fill="#FF7700" rx="9" ry="9" style="stroke:#000000;stroke-width:1;"/><path d="M326.6454,209.7818 L321.3744,209.7818 L321.3744,212.4546 L326.1722,212.4546 L326.1722,214.6128 L321.3744,214.6128 L321.3744,220.0166 L318.9257,220.0166 L318.9257,207.6236 L326.6454,207.6236 Z " fill="#000000"/><text fill="#000000" font-family="Verdana" font-size="12" font-style="italic" lengthAdjust="spacing" textLength="122.666" x="338.4149" y="209.7818">&#171;Suspend Function&#187;</text><text fill="#000000" font-family="Verdana" font-size="14" lengthAdjust="spacing" textLength="88.2656" x="355.6151" y="226.3765">suspendCli()</text><line style="stroke:#000000;stroke-width:1;" x1="51.87" x2="720.1259" y1="234.3159" y2="234.3159"/><line style="stroke:#000000;stroke-width:1;" x1="51.87" x2="720.1259" y1="242.3159" y2="242.3159"/><ellipse cx="61.87" cy="256.3233" fill="#FFFFFF" rx="3" ry="3" style="stroke:#000000;stroke-width:1;"/><text fill="#000000" font-family="Verdana" font-size="14" lengthAdjust="spacing" textLength="646.2559" x="68.87" y="260.3911">suspend suspendCli(cfg: PresentationConfig, createGreeting: CreateGreetingInputPort): Int</text></g><!--class AsyncCli--><g class="entity" data-entity="AsyncCli" data-source-line="21" data-uid="ent0008" id="entity_AsyncCli"><rect fill="#FFFFFF" height="91.6279" rx="2.5" ry="2.5" style="stroke:#000000;stroke-width:1;" width="634.6475" x="1675.68" y="184.2173"/><ellipse cx="1954.0965" cy="205.0166" fill="#FF7700" rx="9" ry="9" style="stroke:#000000;stroke-width:1;"/><path d="M1957.827,201.2818 L1952.556,201.2818 L1952.556,203.9546 L1957.3538,203.9546 L1957.3538,206.1128 L1952.556,206.1128 L1952.556,211.5166 L1950.1072,211.5166 L1950.1072,199.1236 L1957.827,199.1236 Z " fill="#000000"/><text fill="#000000" font-family="Verdana" font-size="12" font-style="italic" lengthAdjust="spacing" textLength="66.7031" x="1973.4022" y="201.2818">&#171;Function&#187;</text><text fill="#000000" font-family="Verdana" font-size="14" lengthAdjust="spacing" textLength="70.3145" x="1971.5965" y="217.8765">asyncCli()</text><line style="stroke:#000000;stroke-width:1;" x1="1676.68" x2="2309.3275" y1="225.8159" y2="225.8159"/><text fill="#000000" font-family="Verdana" font-size="14" lengthAdjust="spacing" textLength="210.2939" x="1681.68" y="243.8911">note: "Compatibility wrapper"</text><line style="stroke:#000000;stroke-width:1;" x1="1676.68" x2="2309.3275" y1="250.8306" y2="250.8306"/><ellipse cx="1686.68" cy="264.8379" fill="#FFFFFF" rx="3" ry="3" style="stroke:#000000;stroke-width:1;"/><text fill="#000000" font-family="Verdana" font-size="14" lengthAdjust="spacing" textLength="610.6475" x="1693.68" y="268.9058">asyncCli(cfg: PresentationConfig, createGreeting: CreateGreetingInputPort): Runnable</text></g><!--class CreateAndRunCli--><g class="entity" data-entity="CreateAndRunCli" data-source-line="26" data-uid="ent0009" id="entity_CreateAndRunCli"><rect fill="#FFFFFF" height="74.6133" rx="2.5" ry="2.5" style="stroke:#000000;stroke-width:1;" width="710.6426" x="929.68" y="192.7173"/><ellipse cx="1216.9251" cy="213.5166" fill="#FF7700" rx="9" ry="9" style="stroke:#000000;stroke-width:1;"/><path d="M1220.6556,209.7818 L1215.3846,209.7818 L1215.3846,212.4546 L1220.1824,212.4546 L1220.1824,214.6128 L1215.3846,214.6128 L1215.3846,220.0166 L1212.9359,220.0166 L1212.9359,207.6236 L1220.6556,207.6236 Z " fill="#000000"/><text fill="#000000" font-family="Verdana" font-size="12" font-style="italic" lengthAdjust="spacing" textLength="122.666" x="1237.4183" y="209.7818">&#171;Suspend Function&#187;</text><text fill="#000000" font-family="Verdana" font-size="14" lengthAdjust="spacing" textLength="128.6523" x="1234.4251" y="226.3765">createAndRunCli()</text><line style="stroke:#000000;stroke-width:1;" x1="930.68" x2="1639.3226" y1="234.3159" y2="234.3159"/><line style="stroke:#000000;stroke-width:1;" x1="930.68" x2="1639.3226" y1="242.3159" y2="242.3159"/><ellipse cx="940.68" cy="256.3233" fill="#FFFFFF" rx="3" ry="3" style="stroke:#000000;stroke-width:1;"/><text fill="#000000" font-family="Verdana" font-size="14" lengthAdjust="spacing" textLength="686.6426" x="947.68" y="260.3911">suspend createAndRunCli(cfg: PresentationConfig, createGreeting: CreateGreetingInputPort): Int</text></g><!--class PresentationConfig--><g class="entity" data-entity="PresentationConfig" data-source-line="30" data-uid="ent0010" id="entity_PresentationConfig"><rect fill="#FFFFFF" height="108.6426" rx="2.5" ry="2.5" style="stroke:#000000;stroke-width:1;" width="162.5986" x="2116.7" y="604.1473"/><ellipse cx="2130.6409" cy="624.9466" fill="#FFFFFF" rx="9" ry="9" style="stroke:#000000;stroke-width:1;"/><path d="M2133.114,631.0897 Q2132.533,631.3885 2131.8938,631.5379 Q2131.2546,631.6873 2130.5491,631.6873 Q2128.0422,631.6873 2126.7224,630.0355 Q2125.4026,628.3836 2125.4026,625.2625 Q2125.4026,622.1331 2126.7224,620.4813 Q2128.0422,618.8294 2130.5491,618.8294 Q2131.2546,618.8294 2131.9021,618.9788 Q2132.5496,619.1283 2133.114,619.4271 L2133.114,622.1497 Q2132.4832,621.5687 2131.8896,621.2989 Q2131.2961,621.0291 2130.6653,621.0291 Q2129.3206,621.0291 2128.6357,622.0958 Q2127.9509,623.1624 2127.9509,625.2625 Q2127.9509,627.3543 2128.6357,628.421 Q2129.3206,629.4876 2130.6653,629.4876 Q2131.2961,629.4876 2131.8896,629.2179 Q2132.4832,628.9481 2133.114,628.367 Z " fill="#000000"/><text fill="#000000" font-family="Verdana" font-size="12" font-style="italic" lengthAdjust="spacing" textLength="75.5625" x="2171.3226" y="621.2118">&#171;data class&#187;</text><text fill="#000000" font-family="Verdana" font-size="14" lengthAdjust="spacing" textLength="132.5078" x="2142.85" y="637.8065">PresentationConfig</text><line style="stroke:#000000;stroke-width:1;" x1="2117.7" x2="2278.2986" y1="645.7459" y2="645.7459"/><ellipse cx="2127.7" cy="659.7533" fill="none" rx="3" ry="3" style="stroke:#000000;stroke-width:1;"/><text fill="#000000" font-family="Verdana" font-size="14" lengthAdjust="spacing" textLength="122.7734" x="2134.7" y="663.8211">verbose: Boolean</text><ellipse cx="2127.7" cy="676.7679" fill="none" rx="3" ry="3" style="stroke:#000000;stroke-width:1;"/><text fill="#000000" font-family="Verdana" font-size="14" lengthAdjust="spacing" textLength="138.5986" x="2134.7" y="680.8358">outputPath: String?</text><ellipse cx="2127.7" cy="693.7826" fill="none" rx="3" ry="3" style="stroke:#000000;stroke-width:1;"/><text fill="#000000" font-family="Verdana" font-size="14" lengthAdjust="spacing" textLength="100.625" x="2134.7" y="697.8504">name: String?</text><line style="stroke:#000000;stroke-width:1;" x1="2117.7" x2="2278.2986" y1="704.7899" y2="704.7899"/></g><!--class RestController--><g class="entity" data-entity="RestController" data-source-line="38" data-uid="ent0012" id="entity_RestController"><rect fill="#FFFFFF" height="78.0293" rx="2.5" ry="2.5" style="stroke:#000000;stroke-width:1;" width="312.9893" x="2401.51" y="191.0173"/><ellipse cx="2504.2532" cy="205.0173" fill="#FFFFFF" rx="9" ry="9" style="stroke:#000000;stroke-width:1;"/><path d="M2506.7263,211.1604 Q2506.1453,211.4592 2505.5061,211.6086 Q2504.8669,211.758 2504.1614,211.758 Q2501.6545,211.758 2500.3347,210.1062 Q2499.0149,208.4543 2499.0149,205.3332 Q2499.0149,202.2038 2500.3347,200.552 Q2501.6545,198.9001 2504.1614,198.9001 Q2504.8669,198.9001 2505.5144,199.0495 Q2506.1619,199.1989 2506.7263,199.4978 L2506.7263,202.2204 Q2506.0954,201.6394 2505.5019,201.3696 Q2504.9084,201.0998 2504.2776,201.0998 Q2502.9329,201.0998 2502.248,202.1665 Q2501.5632,203.2331 2501.5632,205.3332 Q2501.5632,207.425 2502.248,208.4917 Q2502.9329,209.5583 2504.2776,209.5583 Q2504.9084,209.5583 2505.5019,209.2885 Q2506.0954,209.0188 2506.7263,208.4377 Z " fill="#000000"/><text fill="#000000" font-family="Verdana" font-size="14" lengthAdjust="spacing" textLength="100.0029" x="2521.7532" y="210.5852">RestController</text><line style="stroke:#000000;stroke-width:1;" x1="2402.51" x2="2713.4993" y1="219.0173" y2="219.0173"/><rect fill="none" height="6" style="stroke:#000000;stroke-width:1;" width="6" x="2409.51" y="230.0246"/><text fill="#000000" font-family="Verdana" font-size="14" lengthAdjust="spacing" textLength="288.6885" x="2419.51" y="237.0925">createGreeting: CreateGreetingInputPort</text><line style="stroke:#000000;stroke-width:1;" x1="2402.51" x2="2713.4993" y1="244.032" y2="244.032"/><ellipse cx="2412.51" cy="258.0393" fill="#FFFFFF" rx="3" ry="3" style="stroke:#000000;stroke-width:1;"/><text fill="#000000" font-family="Verdana" font-size="14" lengthAdjust="spacing" textLength="288.9893" x="2419.51" y="262.1071">handlePost(request: Request): Response</text></g><!--class GraphQLResolver--><g class="entity" data-entity="GraphQLResolver" data-source-line="43" data-uid="ent0013" id="entity_GraphQLResolver"><rect fill="#FFFFFF" height="78.0293" rx="2.5" ry="2.5" style="stroke:#000000;stroke-width:1;" width="419.4521" x="2749.27" y="191.0173"/><ellipse cx="2894.2763" cy="205.0173" fill="#FFFFFF" rx="9" ry="9" style="stroke:#000000;stroke-width:1;"/><path d="M2896.7495,211.1604 Q2896.1684,211.4592 2895.5293,211.6086 Q2894.8901,211.758 2894.1846,211.758 Q2891.6777,211.758 2890.3579,210.1062 Q2889.0381,208.4543 2889.0381,205.3332 Q2889.0381,202.2038 2890.3579,200.552 Q2891.6777,198.9001 2894.1846,198.9001 Q2894.8901,198.9001 2895.5376,199.0495 Q2896.185,199.1989 2896.7495,199.4978 L2896.7495,202.2204 Q2896.1186,201.6394 2895.5251,201.3696 Q2894.9316,201.0998 2894.3008,201.0998 Q2892.956,201.0998 2892.2712,202.1665 Q2891.5864,203.2331 2891.5864,205.3332 Q2891.5864,207.425 2892.2712,208.4917 Q2892.956,209.5583 2894.3008,209.5583 Q2894.9316,209.5583 2895.5251,209.2885 Q2896.1186,209.0188 2896.7495,208.4377 Z " fill="#000000"/><text fill="#000000" font-family="Verdana" font-size="14" lengthAdjust="spacing" textLength="121.9395" x="2911.7763" y="210.5852">GraphQLResolver</text><line style="stroke:#000000;stroke-width:1;" x1="2750.27" x2="3167.7221" y1="219.0173" y2="219.0173"/><rect fill="none" height="6" style="stroke:#000000;stroke-width:1;" width="6" x="2757.27" y="230.0246"/><text fill="#000000" font-family="Verdana" font-size="14" lengthAdjust="spacing" textLength="288.6885" x="2767.27" y="237.0925">createGreeting: CreateGreetingInputPort</text><line style="stroke:#000000;stroke-width:1;" x1="2750.27" x2="3167.7221" y1="244.032" y2="244.032"/><ellipse cx="2760.27" cy="258.0393" fill="#FFFFFF" rx="3" ry="3" style="stroke:#000000;stroke-width:1;"/><text fill="#000000" font-family="Verdana" font-size="14" lengthAdjust="spacing" textLength="395.4521" x="2767.27" y="262.1071">resolveGreeting(input: GreetingInput): GreetingPayload</text></g><!--class DesktopView--><g class="entity" data-entity="DesktopView" data-source-line="48" data-uid="ent0014" id="entity_DesktopView"><rect fill="#FFFFFF" height="78.0293" rx="2.5" ry="2.5" style="stroke:#000000;stroke-width:1;" width="243.2627" x="3203.37" y="191.0173"/><ellipse cx="3275.9257" cy="205.0173" fill="#FFFFFF" rx="9" ry="9" style="stroke:#000000;stroke-width:1;"/><path d="M3278.3988,211.1604 Q3277.8178,211.4592 3277.1786,211.6086 Q3276.5394,211.758 3275.8339,211.758 Q3273.327,211.758 3272.0072,210.1062 Q3270.6874,208.4543 3270.6874,205.3332 Q3270.6874,202.2038 3272.0072,200.552 Q3273.327,198.9001 3275.8339,198.9001 Q3276.5394,198.9001 3277.1869,199.0495 Q3277.8344,199.1989 3278.3988,199.4978 L3278.3988,202.2204 Q3277.7679,201.6394 3277.1744,201.3696 Q3276.5809,201.0998 3275.9501,201.0998 Q3274.6054,201.0998 3273.9205,202.1665 Q3273.2357,203.2331 3273.2357,205.3332 Q3273.2357,207.425 3273.9205,208.4917 Q3274.6054,209.5583 3275.9501,209.5583 Q3276.5809,209.5583 3277.1744,209.2885 Q3277.7679,209.0188 3278.3988,208.4377 Z " fill="#000000"/><text fill="#000000" font-family="Verdana" font-size="14" lengthAdjust="spacing" textLength="90.6514" x="3293.4257" y="210.5852">DesktopView</text><line style="stroke:#000000;stroke-width:1;" x1="3204.37" x2="3445.6327" y1="219.0173" y2="219.0173"/><rect fill="none" height="6" style="stroke:#000000;stroke-width:1;" width="6" x="3211.37" y="230.0246"/><text fill="#000000" font-family="Verdana" font-size="14" lengthAdjust="spacing" textLength="219.2627" x="3221.37" y="237.0925">viewModel: GreetingViewModel</text><line style="stroke:#000000;stroke-width:1;" x1="3204.37" x2="3445.6327" y1="244.032" y2="244.032"/><ellipse cx="3214.37" cy="258.0393" fill="#FFFFFF" rx="3" ry="3" style="stroke:#000000;stroke-width:1;"/><text fill="#000000" font-family="Verdana" font-size="14" lengthAdjust="spacing" textLength="150.8896" x="3221.37" y="262.1071">render(): Component</text></g><!--class CreateGreetingInputPort--><g class="entity" data-entity="CreateGreetingInputPort" data-source-line="56" data-uid="ent0016" id="entity_CreateGreetingInputPort"><rect fill="#FFFFFF" height="44" rx="2.5" ry="2.5" style="stroke:#000000;stroke-width:1;" width="201.0654" x="4126.47" y="636.4673"/><ellipse cx="4139.47" cy="650.4673" fill="#FFFFFF" rx="9" ry="9" style="stroke:#000000;stroke-width:1;"/><path d="M4135.8977,646.7324 L4135.8977,644.5742 L4143.2771,644.5742 L4143.2771,646.7324 L4140.8118,646.7324 L4140.8118,654.8091 L4143.2771,654.8091 L4143.2771,656.9673 L4135.8977,656.9673 L4135.8977,654.8091 L4138.3631,654.8091 L4138.3631,646.7324 Z " fill="#000000"/><text fill="#000000" font-family="Verdana" font-size="14" font-style="italic" lengthAdjust="spacing" textLength="173.0654" x="4151.47" y="656.0352">CreateGreetingInputPort</text><line style="stroke:#000000;stroke-width:1;" x1="4127.47" x2="4326.5354" y1="664.4673" y2="664.4673"/><line style="stroke:#000000;stroke-width:1;" x1="4127.47" x2="4326.5354" y1="672.4673" y2="672.4673"/></g><!--class CreateGreetingCommand--><g class="entity" data-entity="CreateGreetingCommand" data-source-line="57" data-uid="ent0017" id="entity_CreateGreetingCommand"><rect fill="#FFFFFF" height="44" rx="2.5" ry="2.5" style="stroke:#000000;stroke-width:1;" width="206.3018" x="3542.85" y="636.4673"/><ellipse cx="3555.85" cy="650.4673" fill="#FFFFFF" rx="9" ry="9" style="stroke:#000000;stroke-width:1;"/><path d="M3558.3231,656.6104 Q3557.7421,656.9092 3557.1029,657.0586 Q3556.4638,657.208 3555.7582,657.208 Q3553.2514,657.208 3551.9315,655.5562 Q3550.6117,653.9043 3550.6117,650.7832 Q3550.6117,647.6538 3551.9315,646.002 Q3553.2514,644.3501 3555.7582,644.3501 Q3556.4638,644.3501 3557.1112,644.4995 Q3557.7587,644.6489 3558.3231,644.9478 L3558.3231,647.6704 Q3557.6923,647.0894 3557.0988,646.8196 Q3556.5053,646.5498 3555.8744,646.5498 Q3554.5297,646.5498 3553.8449,647.6165 Q3553.1601,648.6831 3553.1601,650.7832 Q3553.1601,652.875 3553.8449,653.9417 Q3554.5297,655.0083 3555.8744,655.0083 Q3556.5053,655.0083 3557.0988,654.7385 Q3557.6923,654.4688 3558.3231,653.8877 Z " fill="#000000"/><text fill="#000000" font-family="Verdana" font-size="14" lengthAdjust="spacing" textLength="178.3018" x="3567.85" y="656.0352">CreateGreetingCommand</text><line style="stroke:#000000;stroke-width:1;" x1="3543.85" x2="3748.1518" y1="664.4673" y2="664.4673"/><line style="stroke:#000000;stroke-width:1;" x1="3543.85" x2="3748.1518" y1="672.4673" y2="672.4673"/></g><!--class GreetingResult--><g class="entity" data-entity="GreetingResult" data-source-line="58" data-uid="ent0018" id="entity_GreetingResult"><rect fill="#FFFFFF" height="44" rx="2.5" ry="2.5" style="stroke:#000000;stroke-width:1;" width="132.0361" x="3958.98" y="636.4673"/><ellipse cx="3971.98" cy="650.4673" fill="#FFFFFF" rx="9" ry="9" style="stroke:#000000;stroke-width:1;"/><path d="M3974.4531,656.6104 Q3973.8721,656.9092 3973.2329,657.0586 Q3972.5938,657.208 3971.8882,657.208 Q3969.3814,657.208 3968.0615,655.5562 Q3966.7417,653.9043 3966.7417,650.7832 Q3966.7417,647.6538 3968.0615,646.002 Q3969.3814,644.3501 3971.8882,644.3501 Q3972.5938,644.3501 3973.2412,644.4995 Q3973.8887,644.6489 3974.4531,644.9478 L3974.4531,647.6704 Q3973.8223,647.0894 3973.2288,646.8196 Q3972.6353,646.5498 3972.0044,646.5498 Q3970.6597,646.5498 3969.9749,647.6165 Q3969.2901,648.6831 3969.2901,650.7832 Q3969.2901,652.875 3969.9749,653.9417 Q3970.6597,655.0083 3972.0044,655.0083 Q3972.6353,655.0083 3973.2288,654.7385 Q3973.8223,654.4688 3974.4531,653.8877 Z " fill="#000000"/><text fill="#000000" font-family="Verdana" font-size="14" lengthAdjust="spacing" textLength="104.0361" x="3983.98" y="656.0352">GreetingResult</text><line style="stroke:#000000;stroke-width:1;" x1="3959.98" x2="4090.0161" y1="664.4673" y2="664.4673"/><line style="stroke:#000000;stroke-width:1;" x1="3959.98" x2="4090.0161" y1="672.4673" y2="672.4673"/></g><!--class ApplicationError--><g class="entity" data-entity="ApplicationError" data-source-line="59" data-uid="ent0019" id="entity_ApplicationError"><rect fill="#FFFFFF" height="44" rx="2.5" ry="2.5" style="stroke:#000000;stroke-width:1;" width="140.376" x="3783.81" y="636.4673"/><ellipse cx="3796.81" cy="650.4673" fill="#FFFFFF" rx="9" ry="9" style="stroke:#000000;stroke-width:1;"/><path d="M3796.6733,645.8154 L3795.5195,650.8872 L3797.8354,650.8872 Z M3795.1791,643.5742 L3798.1757,643.5742 L3801.5209,655.9673 L3799.0722,655.9673 L3798.3085,652.9043 L3795.0297,652.9043 L3794.2827,655.9673 L3791.8339,655.9673 Z " fill="#000000"/><text fill="#000000" font-family="Verdana" font-size="14" font-style="italic" lengthAdjust="spacing" textLength="112.376" x="3808.81" y="656.0352">ApplicationError</text><line style="stroke:#000000;stroke-width:1;" x1="3784.81" x2="3923.186" y1="664.4673" y2="664.4673"/><line style="stroke:#000000;stroke-width:1;" x1="3784.81" x2="3923.186" y1="672.4673" y2="672.4673"/></g><!--class Runnable--><g class="entity" data-entity="Runnable" data-source-line="64" data-uid="ent0021" id="entity_Runnable"><rect fill="#FFFFFF" height="44" rx="2.5" ry="2.5" style="stroke:#000000;stroke-width:1;" width="93.625" x="3770.19" y="423.5973"/><ellipse cx="3783.19" cy="437.5973" fill="#FFFFFF" rx="9" ry="9" style="stroke:#000000;stroke-width:1;"/><path d="M3785.6631,443.7404 Q3785.0821,444.0392 3784.4429,444.1886 Q3783.8038,444.338 3783.0982,444.338 Q3780.5914,444.338 3779.2715,442.6862 Q3777.9517,441.0343 3777.9517,437.9132 Q3777.9517,434.7838 3779.2715,433.132 Q3780.5914,431.4801 3783.0982,431.4801 Q3783.8038,431.4801 3784.4512,431.6295 Q3785.0987,431.7789 3785.6631,432.0778 L3785.6631,434.8004 Q3785.0323,434.2194 3784.4388,433.9496 Q3783.8453,433.6798 3783.2144,433.6798 Q3781.8697,433.6798 3781.1849,434.7465 Q3780.5001,435.8131 3780.5001,437.9132 Q3780.5001,440.005 3781.1849,441.0717 Q3781.8697,442.1383 3783.2144,442.1383 Q3783.8453,442.1383 3784.4388,441.8685 Q3785.0323,441.5988 3785.6631,441.0177 Z " fill="#000000"/><text fill="#000000" font-family="Verdana" font-size="14" lengthAdjust="spacing" textLength="65.625" x="3795.19" y="443.1652">Runnable</text><line style="stroke:#000000;stroke-width:1;" x1="3771.19" x2="3862.815" y1="451.5973" y2="451.5973"/><line style="stroke:#000000;stroke-width:1;" x1="3771.19" x2="3862.815" y1="459.5973" y2="459.5973"/></g><g class="entity" data-entity="GMN30" data-source-line="77" data-uid="ent0031" id="entity_GMN30"><path d="M3518.62,401.0973 L3518.62,441.5973 L2310.11,445.5973 L3518.62,449.5973 L3518.62,490.0939 A0,0 0 0 0 3518.62,490.0939 L3735.3881,490.0939 A0,0 0 0 0 3735.3881,490.0939 L3735.3881,411.0973 L3725.3881,401.0973 L3518.62,401.0973 A0,0 0 0 0 3518.62,401.0973" fill="#FFFFFF" style="stroke:#000000;stroke-width:1;"/><path d="M3725.3881,401.0973 L3725.3881,411.0973 L3735.3881,411.0973 L3725.3881,401.0973" fill="#FFFFFF" style="stroke:#000000;stroke-width:1;"/><text fill="#000000" font-family="Verdana" font-size="13" lengthAdjust="spacing" textLength="161.4971" x="3524.62" y="419.1671">Structured Concurrency:</text><text fill="#000000" font-family="Verdana" font-size="13" lengthAdjust="spacing" textLength="195.7681" x="3524.62" y="434.9664">- Implements CoroutineScope</text><text fill="#000000" font-family="Verdana" font-size="13" lengthAdjust="spacing" textLength="183.9106" x="3524.62" y="450.7658">- SupervisorJob for isolation</text><text fill="#000000" font-family="Verdana" font-size="13" lengthAdjust="spacing" textLength="180.9653" x="3524.62" y="466.5651">- Proper exception handling</text><text fill="#000000" font-family="Verdana" font-size="13" lengthAdjust="spacing" textLength="125.2266" x="3524.62" y="482.3644">- Resource cleanup</text></g><g class="entity" data-entity="GMN33" data-source-line="85" data-uid="ent0034" id="entity_GMN33"><path d="M3519.2,193.4273 L3519.2,266.6246 L3744.7977,266.6246 L3744.7977,203.4273 L3734.7977,193.4273 L3519.2,193.4273" fill="#FFFFFF" style="stroke:#000000;stroke-width:1;"/><path d="M3734.7977,193.4273 L3734.7977,203.4273 L3744.7977,203.4273 L3734.7977,193.4273" fill="#FFFFFF" style="stroke:#000000;stroke-width:1;"/><text fill="#000000" font-family="Verdana" font-size="13" lengthAdjust="spacing" textLength="138.2583" x="3525.2" y="211.4971">Pure Async Function:</text><text fill="#000000" font-family="Verdana" font-size="13" lengthAdjust="spacing" textLength="119.6343" x="3525.2" y="227.2964">- No blocking calls</text><text fill="#000000" font-family="Verdana" font-size="13" lengthAdjust="spacing" textLength="204.5977" x="3525.2" y="243.0958">- Proper resource management</text><text fill="#000000" font-family="Verdana" font-size="13" lengthAdjust="spacing" textLength="124.9282" x="3525.2" y="258.8951">- Returns exit code</text></g><g class="entity" data-entity="GMN36" data-source-line="92" data-uid="ent0037" id="entity_GMN36"><path d="M3779.39,193.4273 L3779.39,266.6246 L3988.6107,266.6246 L3988.6107,203.4273 L3978.6107,193.4273 L3779.39,193.4273" fill="#FFFFFF" style="stroke:#000000;stroke-width:1;"/><path d="M3978.6107,193.4273 L3978.6107,203.4273 L3988.6107,203.4273 L3978.6107,193.4273" fill="#FFFFFF" style="stroke:#000000;stroke-width:1;"/><text fill="#000000" font-family="Verdana" font-size="13" lengthAdjust="spacing" textLength="132.3296" x="3785.39" y="211.4971">Compatibility Layer:</text><text fill="#000000" font-family="Verdana" font-size="13" lengthAdjust="spacing" textLength="175.2715" x="3785.39" y="227.2964">- Wraps async in Runnable</text><text fill="#000000" font-family="Verdana" font-size="13" lengthAdjust="spacing" textLength="153.1309" x="3785.39" y="243.0958">- For legacy integration</text><text fill="#000000" font-family="Verdana" font-size="13" lengthAdjust="spacing" textLength="188.2207" x="3785.39" y="258.8951">- Uses runBlocking internally</text></g><g class="entity" data-entity="GMN39" data-source-line="99" data-uid="ent0040" id="entity_GMN39"><path d="M4362.55,621.8673 L4362.55,695.0646 L4563.4553,695.0646 L4563.4553,631.8673 L4553.4553,621.8673 L4362.55,621.8673" fill="#FFFFFF" style="stroke:#000000;stroke-width:1;"/><path d="M4553.4553,621.8673 L4553.4553,631.8673 L4563.4553,631.8673 L4553.4553,621.8673" fill="#FFFFFF" style="stroke:#000000;stroke-width:1;"/><text fill="#000000" font-family="Verdana" font-size="13" lengthAdjust="spacing" textLength="179.9053" x="4368.55" y="639.9371">Presentation Configuration:</text><text fill="#000000" font-family="Verdana" font-size="13" lengthAdjust="spacing" textLength="135.2305" x="4368.55" y="655.7364">- UI-specific settings</text><text fill="#000000" font-family="Verdana" font-size="13" lengthAdjust="spacing" textLength="157.2632" x="4368.55" y="671.5358">- Separate from domain</text><text fill="#000000" font-family="Verdana" font-size="13" lengthAdjust="spacing" textLength="151.4741" x="4368.55" y="687.3351">- Immutable data class</text></g><g class="entity" data-entity="GMN42" data-source-line="106" data-uid="ent0043" id="entity_GMN42"><path d="M3899.24,424.7973 L3899.24,466.3959 L4090.7698,466.3959 L4090.7698,434.7973 L4080.7698,424.7973 L3899.24,424.7973" fill="#FFFFFF" style="stroke:#000000;stroke-width:1;"/><path d="M4080.7698,424.7973 L4080.7698,434.7973 L4090.7698,434.7973 L4080.7698,424.7973" fill="#FFFFFF" style="stroke:#000000;stroke-width:1;"/><text fill="#000000" font-family="Verdana" font-size="13" lengthAdjust="spacing" textLength="153.918" x="3905.24" y="442.8671">Same input port can be</text><text fill="#000000" font-family="Verdana" font-size="13" lengthAdjust="spacing" textLength="170.5298" x="3905.24" y="458.6664">used by different UI types</text></g><!--reverse link CoroutineScope to AsyncCliRunner--><g class="link" data-entity-1="CoroutineScope" data-entity-2="AsyncCliRunner" data-source-line="7" data-uid="lnk6" id="link_CoroutineScope_AsyncCliRunner"><path d="M853.6402,265.8185 C869.5902,284.2185 883.5,296.2473 912,309.0373 C1084.77,386.5973 1612.42,422.2773 1905.83,436.5073" fill="none" id="CoroutineScope-backto-AsyncCliRunner" style="stroke:#000000;stroke-width:1;stroke-dasharray:7,7;"/><polygon fill="none" points="841.85,252.2173,849.1064,269.7485,858.1739,261.8884,841.85,252.2173" style="stroke:#000000;stroke-width:1;"/></g><!--link CreateAndRunCli to AsyncCliRunner--><g class="link" data-entity-1="CreateAndRunCli" data-entity-2="AsyncCliRunner" data-source-line="63" data-uid="lnk20" id="link_CreateAndRunCli_AsyncCliRunner"><path codeLine="63" d="M1426.48,267.7373 C1558.61,302.0273 1751.4323,352.0706 1900.2223,390.6706" fill="none" id="CreateAndRunCli-to-AsyncCliRunner" style="stroke:#000000;stroke-width:1;"/><polygon fill="#000000" points="1906.03,392.1773,1898.3228,386.0455,1901.1902,390.9217,1896.3139,393.7891,1906.03,392.1773" style="stroke:#000000;stroke-width:1;"/><text fill="#000000" font-family="Verdana" font-size="13" lengthAdjust="spacing" textLength="47.5122" x="1672.82" y="331.1071">creates</text></g><!--link AsyncCli to Runnable--><g class="link" data-entity-1="AsyncCli" data-entity-2="Runnable" data-source-line="64" data-uid="lnk22" id="link_AsyncCli_Runnable"><path codeLine="64" d="M2170.8,276.3273 C2227.68,289.0873 2291.16,301.5173 2350,309.0373 C2504.75,328.8273 3613.86,293.4873 3753,364.0373 C3778.01,376.7273 3793.5559,398.875 3804.0459,418.185" fill="none" id="AsyncCli-to-Runnable" style="stroke:#000000;stroke-width:1;stroke-dasharray:7,7;"/><polygon fill="#000000" points="3806.91,423.4573,3806.1287,413.6395,3804.5232,419.0637,3799.099,417.4583,3806.91,423.4573" style="stroke:#000000;stroke-width:1;"/><text fill="#000000" font-family="Verdana" font-size="13" lengthAdjust="spacing" textLength="117.3745" x="3569.51" y="331.1071">creates (wrapper)</text></g><!--link SuspendCli to AsyncCliRunner--><g class="link" data-entity-1="SuspendCli" data-entity-2="AsyncCliRunner" data-source-line="65" data-uid="lnk23" id="link_SuspendCli_AsyncCliRunner"><path codeLine="65" d="M540.6,267.7573 C601.87,281.6673 673.06,297.0273 738,309.0373 C1148.85,385.0373 1631.4291,420.1269 1899.9991,434.9369" fill="none" id="SuspendCli-to-AsyncCliRunner" style="stroke:#000000;stroke-width:1;"/><polygon fill="#000000" points="1905.99,435.2673,1897.2239,430.7778,1900.9976,434.992,1896.7834,438.7657,1905.99,435.2673" style="stroke:#000000;stroke-width:1;"/><text fill="#000000" font-family="Verdana" font-size="13" lengthAdjust="spacing" textLength="29.5166" x="848.9" y="331.1071">uses</text></g><!--link AsyncCliRunner to CreateGreetingInputPort--><g class="link" data-entity-1="AsyncCliRunner" data-entity-2="CreateGreetingInputPort" data-source-line="68" data-uid="lnk24" id="link_AsyncCliRunner_CreateGreetingInputPort"><path codeLine="68" d="M2310.04,458.0373 C2620.8,476.1173 3234.69,513.7373 3755,557.1473 C3912.57,570.2873 3958.02,545.5173 4109,592.4673 C4140.71,602.3273 4168.5169,617.9811 4191.4769,632.8811" fill="none" id="AsyncCliRunner-to-CreateGreetingInputPort" style="stroke:#000000;stroke-width:1;"/><polygon fill="#000000" points="4196.51,636.1473,4191.1379,627.8926,4192.3158,633.4254,4186.7829,634.6033,4196.51,636.1473" style="stroke:#000000;stroke-width:1;"/><text fill="#000000" font-family="Verdana" font-size="13" lengthAdjust="spacing" textLength="29.5166" x="4037.46" y="571.2171">uses</text></g><!--link AsyncCliRunner to PresentationConfig--><g class="link" data-entity-1="AsyncCliRunner" data-entity-2="PresentationConfig" data-source-line="69" data-uid="lnk25" id="link_AsyncCliRunner_PresentationConfig"><path codeLine="69" d="M2142.54,527.5173 C2153.44,553.0673 2162.8648,575.1389 2172.7448,598.2889" fill="none" id="AsyncCliRunner-to-PresentationConfig" style="stroke:#000000;stroke-width:1;stroke-dasharray:7,7;"/><polygon fill="#000000" points="2175.1,603.8073,2175.2462,593.9595,2173.1374,599.2086,2167.8883,597.0998,2175.1,603.8073" style="stroke:#000000;stroke-width:1;"/><text fill="#000000" font-family="Verdana" font-size="13" lengthAdjust="spacing" textLength="29.5166" x="2162.06" y="571.2171">uses</text></g><!--link AsyncCliRunner to CreateGreetingCommand--><g class="link" data-entity-1="AsyncCliRunner" data-entity-2="CreateGreetingCommand" data-source-line="70" data-uid="lnk26" id="link_AsyncCliRunner_CreateGreetingCommand"><path codeLine="70" d="M2309.86,474.2673 C2641.75,519.7773 3285.0656,607.9823 3536.8356,642.5023" fill="none" id="AsyncCliRunner-to-CreateGreetingCommand" style="stroke:#000000;stroke-width:1;stroke-dasharray:7,7;"/><polygon fill="#000000" points="3542.78,643.3173,3534.4068,638.1318,3537.8263,642.6381,3533.3201,646.0577,3542.78,643.3173" style="stroke:#000000;stroke-width:1;"/><text fill="#000000" font-family="Verdana" font-size="13" lengthAdjust="spacing" textLength="47.5122" x="3015.76" y="571.2171">creates</text></g><!--link AsyncCliRunner to ApplicationError--><g class="link" data-entity-1="AsyncCliRunner" data-entity-2="ApplicationError" data-source-line="71" data-uid="lnk27" id="link_AsyncCliRunner_ApplicationError"><path codeLine="71" d="M2310.01,450.5973 C2692.09,460.4273 3505.75,492.7273 3767,592.4673 C3792.19,602.0773 3811.9518,617.1887 3828.4018,632.2287" fill="none" id="AsyncCliRunner-to-ApplicationError" style="stroke:#000000;stroke-width:1;stroke-dasharray:7,7;"/><polygon fill="#000000" points="3832.83,636.2773,3828.8868,627.2523,3829.1399,632.9035,3823.4887,633.1565,3832.83,636.2773" style="stroke:#000000;stroke-width:1;"/><text fill="#000000" font-family="Verdana" font-size="13" lengthAdjust="spacing" textLength="50.4448" x="3695.81" y="571.2171">handles</text></g><!--link RestController to CreateGreetingInputPort--><g class="link" data-entity-1="RestController" data-entity-2="CreateGreetingInputPort" data-source-line="72" data-uid="lnk28" id="link_RestController_CreateGreetingInputPort"><path codeLine="72" d="M2626,269.4273 C2657.26,284.9673 2695.44,301.0973 2732,309.0373 C2799.65,323.7373 3909.85,304.8773 3978,317.0373 C4038.48,327.8373 4063.73,321.4373 4108,364.0373 C4149.59,404.0673 4201.3199,570.1232 4219.1799,630.5732" fill="none" id="RestController-to-CreateGreetingInputPort" style="stroke:#000000;stroke-width:1;"/><polygon fill="#000000" points="4220.88,636.3273,4222.166,626.5628,4219.4633,631.5322,4214.4938,628.8295,4220.88,636.3273" style="stroke:#000000;stroke-width:1;"/><text fill="#000000" font-family="Verdana" font-size="13" lengthAdjust="spacing" textLength="29.5166" x="4185.94" y="451.1671">uses</text></g><!--link GraphQLResolver to CreateGreetingInputPort--><g class="link" data-entity-1="GraphQLResolver" data-entity-2="CreateGreetingInputPort" data-source-line="73" data-uid="lnk29" id="link_GraphQLResolver_CreateGreetingInputPort"><path codeLine="73" d="M3049.18,269.5273 C3090.14,285.0373 3139.69,301.1173 3186,309.0373 C3199.7,311.3873 4175.97,308.5773 4187,317.0373 C4286.38,393.2973 4250.8961,568.5146 4234.6061,630.4546" fill="none" id="GraphQLResolver-to-CreateGreetingInputPort" style="stroke:#000000;stroke-width:1;"/><polygon fill="#000000" points="4233.08,636.2573,4239.2376,628.5707,4234.3517,631.4217,4231.5007,626.5359,4233.08,636.2573" style="stroke:#000000;stroke-width:1;"/><text fill="#000000" font-family="Verdana" font-size="13" lengthAdjust="spacing" textLength="29.5166" x="4254.48" y="451.1671">uses</text></g><!--link SuspendCli to GMN33--><g class="link" data-entity-1="SuspendCli" data-entity-2="GMN33" data-source-line="85" data-uid="lnk35" id="link_SuspendCli_GMN33"><path d="M451.43,192.3673 C523.29,153.3673 643.41,94.9773 755.5,72.0173 C792.1,64.5173 3410.42,59.1473 3445.5,72.0173 C3511.04,96.0473 3569.36,154.4373 3602.67,193.1073" fill="none" id="SuspendCli-GMN33" style="stroke:#000000;stroke-width:1;stroke-dasharray:7,7;"/></g><!--link AsyncCli to GMN36--><g class="link" data-entity-1="AsyncCli" data-entity-2="GMN36" data-source-line="92" data-uid="lnk38" id="link_AsyncCli_GMN36"><path d="M2075.42,183.8873 C2149.31,145.3473 2262.02,93.3573 2367.5,72.0173 C2404.99,64.4273 3708.63,58.7373 3744.5,72.0173 C3801.47,93.0873 3843.21,153.2673 3865.52,192.9873" fill="none" id="AsyncCli-GMN36" style="stroke:#000000;stroke-width:1;stroke-dasharray:7,7;"/></g><!--link GMN39 to PresentationConfig--><g class="link" data-entity-1="GMN39" data-entity-2="PresentationConfig" data-source-line="99" data-uid="lnk41" id="link_GMN39_PresentationConfig"><path d="M4425.8,621.5773 C4400.23,598.9273 4364.2,571.9973 4326.5,559.8073 C4129.29,495.9973 2645.94,619.5373 2279.61,651.2873" fill="none" id="GMN39-PresentationConfig" style="stroke:#000000;stroke-width:1;stroke-dasharray:7,7;"/></g><!--link Future UI to GMN42--><g class="link" data-entity-1="Future UI" data-entity-2="GMN42" data-source-line="106" data-uid="lnk44" id="link_Future UI_GMN42"><path d="M2373.4111,293.144 C2373.4709,293.2642 2373.5312,293.3842 2373.5919,293.504 C2373.7132,293.7435 2373.8361,293.9821 2373.9607,294.2196 C2374.9571,296.12 2376.0573,297.9557 2377.2713,299.7068 C2379.6994,303.2089 2382.5825,306.3723 2386,309.0373 C2403.06,322.3473 3926.11,304.8673 3944,317.0373 C3979.68,341.3373 3990.4,395.0373 3993.62,424.4173" fill="none" id="Future UI-GMN42" style="stroke:#000000;stroke-width:1;stroke-dasharray:7,7;"/></g><!--SRC=[lLVTRzis47_NNt7p7cQZTT6t0eRX8RNhBaDNUCdIFLFKoU92anf99JEA_EyxYg8jqKvh3C7qO4ZaVVpk-_o3gt27K4icLEQ4amWRWnQLOqve1P_O7WrCOIcPjR0IR6lO3iPNTgyuN1bU2OVSDGOdMLOpVi-s2ADJ2IFucW4z1n8kHJpp3s_5jrANKjmqIf5MiQibWLFEmb8RtJYXy9Rh6dkC_fa2DyWSVZI8HBETmNBmVQtgncsqSGbN8MpD7A_Gp8uALeV3XFeldS_WjgdHF0YhpQywJmZG66r-OQgG0u4V_k5OUqzqLqEkwU3p5PX6jLuOSwrAGQRqVRbipoOpM659sh2ONoktI2JOgd65VbHZehjJ8ZMwQb6SeXlZ3FweZ7vakQHWHeQdmriIgv5jR8sge72D9oDWbdmJ3s0-7wzV_xXUltltzkqaNi2wKTohMYoI01BeZgGdb9TdhNzzQR39VFBE1OQmBkiwCs8I9aPy0_n1m0j0zgdl8p1GeRIZw8oMUaUfAN8XXTl3es4r9UFe0Wk3-YjLaFIZeSlXwNyFMYh-_uhSgGgoeM2EXVipY1_GvDgIBzzhBP6fv9fAmaDWhg9ATuOm_PnGABR3qxk0CFmEszowyRqHxgv716qfTLCCK0KxRj0wmk-CbjGVNgIvlUhgVAEj6nlyko4Lb5pXnQSPsbehYzztyaTAi-htJyIWvSEBeJD1N2GR2qytWm7RvFYzONkfMV5zj2kqzqxNNmG-dY1zeCFVT87oAFTBF3g1fmeqleFwcjCAJzBnANlg3RohkfQ23-RTV7v3Wv6fhSH3o8LoQ4h6yPjU2fOCAGZ6ZWAQzUCIRYWmZGoCBBVECExYD3s2-k17aqVyKv3hSHgKxOkjH6spj1bCfujq7C-wMDliq2BVl5aSEXRTTut6mhXhJfDHrfiAPsKsbWGIhXLwCbHSz1HqL9xn6Oz52Gc71tQcFJnFVDRTPqpkiQJ-9UfGT3PBAle2_6cPNS12JlkiFJO_7i28RUL0buc7syIWVjMqIrf1-QnuGwk3uljP5khY-hargxiVx3nGag7q7dAdezWOeZQ0SPS8VY3CtRstgZ6KzjmttQRE_DJmgBC4-p5PMiwDxvrXrOnZA8B-h26Ncj-J4k1CIZk4Og962YDLw2uMiCT2Zb2Mm0eg5AhzPy54HxQCmzdRrdY4yYU5peObW2fyEC6di2P_ITmolc_BdzRddkFkA8v-vNiVJMaxX29xzYaiYMMBwZIhWwlwAtSuRuAg2FFkUahEvQ8K72mwdrBHQRTOCo96A8tUGQ5t_iz0J8vTuzhoFWxM55gkdIC-0jURTo7nQ5n2szkXzfdBcO8yU8PIk81yJqjuIRiiGIScSFiQU-B_1G00]--></g></svg>