<svg xmlns="http://www.w3.org/2000/svg" xmlns:xlink="http://www.w3.org/1999/xlink" contentStyleType="text/css" data-diagram-type="SEQUENCE" height="1371px" preserveAspectRatio="none" style="width:1804px;height:1371px;background:#FFFFFF;" version="1.1" viewBox="0 0 1804 1371" width="1804px" zoomAndPan="magnify"><title>Use Case Flow - Create Order Example</title><defs/><g><text fill="#000000" font-family="Verdana" font-size="22" font-weight="bold" lengthAdjust="spacing" textLength="474.5469" x="671.5308" y="37.1182">Use Case Flow - Create Order Example</text><g><title>CreateOrderUseCase</title><rect fill="#FFFFFF" height="752.3843" style="stroke:#000000;stroke-width:1;" width="10" x="308.6392" y="159.3506"/></g><rect fill="#FFFFFF" height="120.1973" style="stroke:#000000;stroke-width:1;" width="577.2759" x="213.5972" y="276.7485"/><g><title>REST Controller</title><rect fill="#000000" fill-opacity="0.00000" height="1250.3706" width="8" x="84.4121" y="84.752"/><line style="stroke:#000000;stroke-width:1;" x1="88" x2="88" y1="84.752" y2="1335.1226"/></g><g><title>CreateOrderUseCase</title><rect fill="#000000" fill-opacity="0.00000" height="1250.3706" width="8" x="309.6392" y="84.752"/><line style="stroke:#000000;stroke-width:1;" x1="313.5972" x2="313.5972" y1="84.752" y2="1335.1226"/></g><g><title>CustomerRepository</title><rect fill="#000000" fill-opacity="0.00000" height="1250.3706" width="8" x="516.5747" y="84.752"/><line style="stroke:#000000;stroke-width:1;" x1="520.2861" x2="520.2861" y1="84.752" y2="1335.1226"/></g><g><title>ProductRepository</title><rect fill="#000000" fill-opacity="0.00000" height="1250.3706" width="8" x="695.8682" y="84.752"/><line style="stroke:#000000;stroke-width:1;" x1="699.8633" x2="699.8633" y1="84.752" y2="1335.1226"/></g><g><title>OrderRepository</title><rect fill="#000000" fill-opacity="0.00000" height="1250.3706" width="8" x="861.2402" y="84.752"/><line style="stroke:#000000;stroke-width:1;" x1="864.873" x2="864.873" y1="84.752" y2="1335.1226"/></g><g><title>PricingService</title><rect fill="#000000" fill-opacity="0.00000" height="1250.3706" width="8" x="1011.9185" y="84.752"/><line style="stroke:#000000;stroke-width:1;" x1="1015.6074" x2="1015.6074" y1="84.752" y2="1335.1226"/></g><g><title>PaymentServicePort</title><rect fill="#000000" fill-opacity="0.00000" height="1250.3706" width="8" x="1176.002" y="84.752"/><line style="stroke:#000000;stroke-width:1;" x1="1179.2295" x2="1179.2295" y1="84.752" y2="1335.1226"/></g><g><title>EventPublisherPort</title><rect fill="#000000" fill-opacity="0.00000" height="1250.3706" width="8" x="1357.0044" y="84.752"/><line style="stroke:#000000;stroke-width:1;" x1="1360.7744" x2="1360.7744" y1="84.752" y2="1335.1226"/></g><g><title>StripeAdapter</title><rect fill="#000000" fill-opacity="0.00000" height="1250.3706" width="8" x="1515.8447" y="84.752"/><line style="stroke:#000000;stroke-width:1;" x1="1519.2344" x2="1519.2344" y1="84.752" y2="1335.1226"/></g><g><title>KafkaAdapter</title><rect fill="#000000" fill-opacity="0.00000" height="1250.3706" width="8" x="1655.9443" y="84.752"/><line style="stroke:#000000;stroke-width:1;" x1="1659.4551" x2="1659.4551" y1="84.752" y2="1335.1226"/></g><g><title>Client</title><rect fill="#000000" fill-opacity="0.00000" height="1250.3706" width="8" x="1767.521" y="84.752"/><line style="stroke:#000000;stroke-width:1;" x1="1771.4336" x2="1771.4336" y1="84.752" y2="1335.1226"/></g><g class="participant participant-head" data-participant="Controller"><rect fill="#B4FFE5" height="31.0146" rx="2.5" ry="2.5" style="stroke:#000000;stroke-width:1;" width="124.8242" x="26" y="52.7373"/><text fill="#000000" font-family="Verdana" font-size="14" lengthAdjust="spacing" textLength="110.8242" x="33" y="73.8125">REST Controller</text></g><g class="participant participant-tail" data-participant="Controller"><rect fill="#B4FFE5" height="31.0146" rx="2.5" ry="2.5" style="stroke:#000000;stroke-width:1;" width="124.8242" x="26" y="1334.1226"/><text fill="#000000" font-family="Verdana" font-size="14" lengthAdjust="spacing" textLength="110.8242" x="33" y="1355.1978">REST Controller</text></g><g class="participant participant-head" data-participant="UseCase"><rect fill="#B4E5FF" height="31.0146" rx="2.5" ry="2.5" style="stroke:#000000;stroke-width:1;" width="160.084" x="233.5972" y="52.7373"/><text fill="#000000" font-family="Verdana" font-size="14" lengthAdjust="spacing" textLength="146.084" x="240.5972" y="73.8125">CreateOrderUseCase</text></g><g class="participant participant-tail" data-participant="UseCase"><rect fill="#B4E5FF" height="31.0146" rx="2.5" ry="2.5" style="stroke:#000000;stroke-width:1;" width="160.084" x="233.5972" y="1334.1226"/><text fill="#000000" font-family="Verdana" font-size="14" lengthAdjust="spacing" textLength="146.084" x="240.5972" y="1355.1978">CreateOrderUseCase</text></g><g class="participant participant-head" data-participant="CustRepo"><rect fill="#FFE5B4" height="31.0146" rx="2.5" ry="2.5" style="stroke:#000000;stroke-width:1;" width="156.5771" x="442.2861" y="52.7373"/><text fill="#000000" font-family="Verdana" font-size="14" lengthAdjust="spacing" textLength="142.5771" x="449.2861" y="73.8125">CustomerRepository</text></g><g class="participant participant-tail" data-participant="CustRepo"><rect fill="#FFE5B4" height="31.0146" rx="2.5" ry="2.5" style="stroke:#000000;stroke-width:1;" width="156.5771" x="442.2861" y="1334.1226"/><text fill="#000000" font-family="Verdana" font-size="14" lengthAdjust="spacing" textLength="142.5771" x="449.2861" y="1355.1978">CustomerRepository</text></g><g class="participant participant-head" data-participant="ProdRepo"><rect fill="#FFE5B4" height="31.0146" rx="2.5" ry="2.5" style="stroke:#000000;stroke-width:1;" width="142.0098" x="628.8633" y="52.7373"/><text fill="#000000" font-family="Verdana" font-size="14" lengthAdjust="spacing" textLength="128.0098" x="635.8633" y="73.8125">ProductRepository</text></g><g class="participant participant-tail" data-participant="ProdRepo"><rect fill="#FFE5B4" height="31.0146" rx="2.5" ry="2.5" style="stroke:#000000;stroke-width:1;" width="142.0098" x="628.8633" y="1334.1226"/><text fill="#000000" font-family="Verdana" font-size="14" lengthAdjust="spacing" textLength="128.0098" x="635.8633" y="1355.1978">ProductRepository</text></g><g class="participant participant-head" data-participant="OrderRepo"><rect fill="#FFE5B4" height="31.0146" rx="2.5" ry="2.5" style="stroke:#000000;stroke-width:1;" width="128.7344" x="800.873" y="52.7373"/><text fill="#000000" font-family="Verdana" font-size="14" lengthAdjust="spacing" textLength="114.7344" x="807.873" y="73.8125">OrderRepository</text></g><g class="participant participant-tail" data-participant="OrderRepo"><rect fill="#FFE5B4" height="31.0146" rx="2.5" ry="2.5" style="stroke:#000000;stroke-width:1;" width="128.7344" x="800.873" y="1334.1226"/><text fill="#000000" font-family="Verdana" font-size="14" lengthAdjust="spacing" textLength="114.7344" x="807.873" y="1355.1978">OrderRepository</text></g><g class="participant participant-head" data-participant="Pricing"><rect fill="#FFE5B4" height="31.0146" rx="2.5" ry="2.5" style="stroke:#000000;stroke-width:1;" width="112.6221" x="959.6074" y="52.7373"/><text fill="#000000" font-family="Verdana" font-size="14" lengthAdjust="spacing" textLength="98.6221" x="966.6074" y="73.8125">PricingService</text></g><g class="participant participant-tail" data-participant="Pricing"><rect fill="#FFE5B4" height="31.0146" rx="2.5" ry="2.5" style="stroke:#000000;stroke-width:1;" width="112.6221" x="959.6074" y="1334.1226"/><text fill="#000000" font-family="Verdana" font-size="14" lengthAdjust="spacing" textLength="98.6221" x="966.6074" y="1355.1978">PricingService</text></g><g class="participant participant-head" data-participant="Payment"><rect fill="#B4E5FF" height="31.0146" rx="2.5" ry="2.5" style="stroke:#000000;stroke-width:1;" width="155.5449" x="1102.2295" y="52.7373"/><text fill="#000000" font-family="Verdana" font-size="14" lengthAdjust="spacing" textLength="141.5449" x="1109.2295" y="73.8125">PaymentServicePort</text></g><g class="participant participant-tail" data-participant="Payment"><rect fill="#B4E5FF" height="31.0146" rx="2.5" ry="2.5" style="stroke:#000000;stroke-width:1;" width="155.5449" x="1102.2295" y="1334.1226"/><text fill="#000000" font-family="Verdana" font-size="14" lengthAdjust="spacing" textLength="141.5449" x="1109.2295" y="1355.1978">PaymentServicePort</text></g><g class="participant participant-head" data-participant="EventPub"><rect fill="#B4E5FF" height="31.0146" rx="2.5" ry="2.5" style="stroke:#000000;stroke-width:1;" width="146.46" x="1287.7744" y="52.7373"/><text fill="#000000" font-family="Verdana" font-size="14" lengthAdjust="spacing" textLength="132.46" x="1294.7744" y="73.8125">EventPublisherPort</text></g><g class="participant participant-tail" data-participant="EventPub"><rect fill="#B4E5FF" height="31.0146" rx="2.5" ry="2.5" style="stroke:#000000;stroke-width:1;" width="146.46" x="1287.7744" y="1334.1226"/><text fill="#000000" font-family="Verdana" font-size="14" lengthAdjust="spacing" textLength="132.46" x="1294.7744" y="1355.1978">EventPublisherPort</text></g><g class="participant participant-head" data-participant="Stripe"><rect fill="#E5B4FF" height="31.0146" rx="2.5" ry="2.5" style="stroke:#000000;stroke-width:1;" width="111.2207" x="1464.2344" y="52.7373"/><text fill="#000000" font-family="Verdana" font-size="14" lengthAdjust="spacing" textLength="97.2207" x="1471.2344" y="73.8125">StripeAdapter</text></g><g class="participant participant-tail" data-participant="Stripe"><rect fill="#E5B4FF" height="31.0146" rx="2.5" ry="2.5" style="stroke:#000000;stroke-width:1;" width="111.2207" x="1464.2344" y="1334.1226"/><text fill="#000000" font-family="Verdana" font-size="14" lengthAdjust="spacing" textLength="97.2207" x="1471.2344" y="1355.1978">StripeAdapter</text></g><g class="participant participant-head" data-participant="Kafka"><rect fill="#E5B4FF" height="31.0146" rx="2.5" ry="2.5" style="stroke:#000000;stroke-width:1;" width="108.9785" x="1605.4551" y="52.7373"/><text fill="#000000" font-family="Verdana" font-size="14" lengthAdjust="spacing" textLength="94.9785" x="1612.4551" y="73.8125">KafkaAdapter</text></g><g class="participant participant-tail" data-participant="Kafka"><rect fill="#E5B4FF" height="31.0146" rx="2.5" ry="2.5" style="stroke:#000000;stroke-width:1;" width="108.9785" x="1605.4551" y="1334.1226"/><text fill="#000000" font-family="Verdana" font-size="14" lengthAdjust="spacing" textLength="94.9785" x="1612.4551" y="1355.1978">KafkaAdapter</text></g><g class="participant participant-head" data-participant="Client"><rect fill="#FFFFFF" height="31.0146" rx="2.5" ry="2.5" style="stroke:#000000;stroke-width:1;" width="54.1748" x="1744.4336" y="52.7373"/><text fill="#000000" font-family="Verdana" font-size="14" lengthAdjust="spacing" textLength="40.1748" x="1751.4336" y="73.8125">Client</text></g><g class="participant participant-tail" data-participant="Client"><rect fill="#FFFFFF" height="31.0146" rx="2.5" ry="2.5" style="stroke:#000000;stroke-width:1;" width="54.1748" x="1744.4336" y="1334.1226"/><text fill="#000000" font-family="Verdana" font-size="14" lengthAdjust="spacing" textLength="40.1748" x="1751.4336" y="1355.1978">Client</text></g><g><title>CreateOrderUseCase</title><rect fill="#FFFFFF" height="752.3843" style="stroke:#000000;stroke-width:1;" width="10" x="308.6392" y="159.3506"/></g><g class="message" data-participant-1="Controller" data-participant-2="Controller"><line style="stroke:#000000;stroke-width:1;" x1="88.4121" x2="130.4121" y1="116.5513" y2="116.5513"/><line style="stroke:#000000;stroke-width:1;" x1="130.4121" x2="130.4121" y1="116.5513" y2="129.5513"/><line style="stroke:#000000;stroke-width:1;" x1="89.4121" x2="130.4121" y1="129.5513" y2="129.5513"/><polygon fill="#000000" points="99.4121,125.5513,89.4121,129.5513,99.4121,133.5513,95.4121,129.5513" style="stroke:#000000;stroke-width:1;"/><text fill="#000000" font-family="Verdana" font-size="13" lengthAdjust="spacing" textLength="106.4312" x="95.4121" y="111.8218">Validate request</text></g><g class="message" data-participant-1="Controller" data-participant-2="UseCase"><polygon fill="#000000" points="296.6392,155.3506,306.6392,159.3506,296.6392,163.3506,300.6392,159.3506" style="stroke:#000000;stroke-width:1;"/><line style="stroke:#000000;stroke-width:1;" x1="88.4121" x2="302.6392" y1="159.3506" y2="159.3506"/><text fill="#000000" font-family="Verdana" font-size="13" lengthAdjust="spacing" textLength="201.2271" x="95.4121" y="154.6211">invoke(CreateOrderCommand)</text></g><g class="message" data-participant-1="UseCase" data-participant-2="CustRepo"><polygon fill="#000000" points="508.5747,185.1499,518.5747,189.1499,508.5747,193.1499,512.5747,189.1499" style="stroke:#000000;stroke-width:1;"/><line style="stroke:#000000;stroke-width:1;" x1="318.6392" x2="514.5747" y1="189.1499" y2="189.1499"/><text fill="#000000" font-family="Verdana" font-size="13" lengthAdjust="spacing" textLength="140.7402" x="325.6392" y="184.4204">findById(customerId)</text></g><g class="message" data-participant-1="CustRepo" data-participant-2="UseCase"><polygon fill="#000000" points="329.6392,214.9492,319.6392,218.9492,329.6392,222.9492,325.6392,218.9492" style="stroke:#000000;stroke-width:1;"/><line style="stroke:#000000;stroke-width:1;stroke-dasharray:2,2;" x1="323.6392" x2="519.5747" y1="218.9492" y2="218.9492"/><text fill="#000000" font-family="Verdana" font-size="13" lengthAdjust="spacing" textLength="164.7852" x="335.6392" y="214.2197">Either&lt;Error, Customer&gt;</text></g><g class="message" data-participant-1="UseCase" data-participant-2="UseCase"><line style="stroke:#000000;stroke-width:1;" x1="318.6392" x2="360.6392" y1="248.7485" y2="248.7485"/><line style="stroke:#000000;stroke-width:1;" x1="360.6392" x2="360.6392" y1="248.7485" y2="261.7485"/><line style="stroke:#000000;stroke-width:1;" x1="319.6392" x2="360.6392" y1="261.7485" y2="261.7485"/><polygon fill="#000000" points="329.6392,257.7485,319.6392,261.7485,329.6392,265.7485,325.6392,261.7485" style="stroke:#000000;stroke-width:1;"/><text fill="#000000" font-family="Verdana" font-size="13" lengthAdjust="spacing" textLength="147.0498" x="325.6392" y="244.019">Check customer exists</text></g><path d="M213.5972,276.7485 L289.98,276.7485 L289.98,284.5479 L279.98,294.5479 L213.5972,294.5479 L213.5972,276.7485" fill="#FFFFFF" style="stroke:#000000;stroke-width:1;"/><rect fill="none" height="120.1973" style="stroke:#000000;stroke-width:1;" width="577.2759" x="213.5972" y="276.7485"/><text fill="#000000" font-family="Verdana" font-size="13" font-weight="bold" lengthAdjust="spacing" textLength="31.3828" x="228.5972" y="290.8184">loop</text><text fill="#000000" font-family="Verdana" font-size="11" font-weight="bold" lengthAdjust="spacing" textLength="93.8169" x="304.98" y="289.8076">[for each item]</text><g class="message" data-participant-1="UseCase" data-participant-2="ProdRepo"><polygon fill="#000000" points="687.8682,312.3472,697.8682,316.3472,687.8682,320.3472,691.8682,316.3472" style="stroke:#000000;stroke-width:1;"/><line style="stroke:#000000;stroke-width:1;" x1="318.6392" x2="693.8682" y1="316.3472" y2="316.3472"/><text fill="#000000" font-family="Verdana" font-size="13" lengthAdjust="spacing" textLength="129.7778" x="325.6392" y="311.6177">findById(productId)</text></g><g class="message" data-participant-1="ProdRepo" data-participant-2="UseCase"><polygon fill="#000000" points="329.6392,342.1465,319.6392,346.1465,329.6392,350.1465,325.6392,346.1465" style="stroke:#000000;stroke-width:1;"/><line style="stroke:#000000;stroke-width:1;stroke-dasharray:2,2;" x1="323.6392" x2="698.8682" y1="346.1465" y2="346.1465"/><text fill="#000000" font-family="Verdana" font-size="13" lengthAdjust="spacing" textLength="151.2583" x="335.6392" y="341.417">Either&lt;Error, Product&gt;</text></g><g class="message" data-participant-1="UseCase" data-participant-2="UseCase"><line style="stroke:#000000;stroke-width:1;" x1="318.6392" x2="360.6392" y1="375.9458" y2="375.9458"/><line style="stroke:#000000;stroke-width:1;" x1="360.6392" x2="360.6392" y1="375.9458" y2="388.9458"/><line style="stroke:#000000;stroke-width:1;" x1="319.6392" x2="360.6392" y1="388.9458" y2="388.9458"/><polygon fill="#000000" points="329.6392,384.9458,319.6392,388.9458,329.6392,392.9458,325.6392,388.9458" style="stroke:#000000;stroke-width:1;"/><text fill="#000000" font-family="Verdana" font-size="13" lengthAdjust="spacing" textLength="168.2827" x="325.6392" y="371.2163">Check product availability</text></g><g class="message" data-participant-1="UseCase" data-participant-2="UseCase"><line style="stroke:#000000;stroke-width:1;" x1="318.6392" x2="360.6392" y1="425.7451" y2="425.7451"/><line style="stroke:#000000;stroke-width:1;" x1="360.6392" x2="360.6392" y1="425.7451" y2="438.7451"/><line style="stroke:#000000;stroke-width:1;" x1="319.6392" x2="360.6392" y1="438.7451" y2="438.7451"/><polygon fill="#000000" points="329.6392,434.7451,319.6392,438.7451,329.6392,442.7451,325.6392,438.7451" style="stroke:#000000;stroke-width:1;"/><text fill="#000000" font-family="Verdana" font-size="13" lengthAdjust="spacing" textLength="126.8325" x="325.6392" y="421.0156">Create Order entity</text></g><g class="message" data-participant-1="UseCase" data-participant-2="Pricing"><polygon fill="#000000" points="1003.9185,464.5444,1013.9185,468.5444,1003.9185,472.5444,1007.9185,468.5444" style="stroke:#000000;stroke-width:1;"/><line style="stroke:#000000;stroke-width:1;" x1="318.6392" x2="1009.9185" y1="468.5444" y2="468.5444"/><text fill="#000000" font-family="Verdana" font-size="13" lengthAdjust="spacing" textLength="205.5181" x="325.6392" y="463.8149">calculatePrice(order, customer)</text></g><g class="message" data-participant-1="Pricing" data-participant-2="UseCase"><polygon fill="#000000" points="329.6392,494.3438,319.6392,498.3438,329.6392,502.3438,325.6392,498.3438" style="stroke:#000000;stroke-width:1;"/><line style="stroke:#000000;stroke-width:1;stroke-dasharray:2,2;" x1="323.6392" x2="1014.9185" y1="498.3438" y2="498.3438"/><text fill="#000000" font-family="Verdana" font-size="13" lengthAdjust="spacing" textLength="178.5024" x="335.6392" y="493.6143">Either&lt;Error, PricedOrder&gt;</text></g><g class="message" data-participant-1="UseCase" data-participant-2="OrderRepo"><polygon fill="#000000" points="853.2402,524.1431,863.2402,528.1431,853.2402,532.1431,857.2402,528.1431" style="stroke:#000000;stroke-width:1;"/><line style="stroke:#000000;stroke-width:1;" x1="318.6392" x2="859.2402" y1="528.1431" y2="528.1431"/><text fill="#000000" font-family="Verdana" font-size="13" lengthAdjust="spacing" textLength="76.6543" x="325.6392" y="523.4136">save(order)</text></g><g class="message" data-participant-1="OrderRepo" data-participant-2="UseCase"><polygon fill="#000000" points="329.6392,553.9424,319.6392,557.9424,329.6392,561.9424,325.6392,557.9424" style="stroke:#000000;stroke-width:1;"/><line style="stroke:#000000;stroke-width:1;stroke-dasharray:2,2;" x1="323.6392" x2="864.2402" y1="557.9424" y2="557.9424"/><text fill="#000000" font-family="Verdana" font-size="13" lengthAdjust="spacing" textLength="138.9312" x="335.6392" y="553.2129">Either&lt;Error, Order&gt;</text></g><g class="message" data-participant-1="UseCase" data-participant-2="Payment"><polygon fill="#000000" points="1168.002,583.7417,1178.002,587.7417,1168.002,591.7417,1172.002,587.7417" style="stroke:#000000;stroke-width:1;"/><line style="stroke:#000000;stroke-width:1;" x1="318.6392" x2="1174.002" y1="587.7417" y2="587.7417"/><text fill="#000000" font-family="Verdana" font-size="13" lengthAdjust="spacing" textLength="205.9307" x="325.6392" y="583.0122">processPayment(amount, card)</text></g><g class="message" data-participant-1="Payment" data-participant-2="Stripe"><polygon fill="#000000" points="1507.8447,613.541,1517.8447,617.541,1507.8447,621.541,1511.8447,617.541" style="stroke:#000000;stroke-width:1;"/><line style="stroke:#000000;stroke-width:1;" x1="1180.002" x2="1513.8447" y1="617.541" y2="617.541"/><text fill="#000000" font-family="Verdana" font-size="13" lengthAdjust="spacing" textLength="157.9424" x="1187.002" y="612.8115">charge(paymentDetails)</text></g><g class="message" data-participant-1="Stripe" data-participant-2="Payment"><polygon fill="#000000" points="1191.002,643.3403,1181.002,647.3403,1191.002,651.3403,1187.002,647.3403" style="stroke:#000000;stroke-width:1;"/><line style="stroke:#000000;stroke-width:1;stroke-dasharray:2,2;" x1="1185.002" x2="1518.8447" y1="647.3403" y2="647.3403"/><text fill="#000000" font-family="Verdana" font-size="13" lengthAdjust="spacing" textLength="97.5508" x="1197.002" y="642.6108">PaymentResult</text></g><g class="message" data-participant-1="Payment" data-participant-2="UseCase"><polygon fill="#000000" points="329.6392,673.1396,319.6392,677.1396,329.6392,681.1396,325.6392,677.1396" style="stroke:#000000;stroke-width:1;"/><line style="stroke:#000000;stroke-width:1;stroke-dasharray:2,2;" x1="323.6392" x2="1179.002" y1="677.1396" y2="677.1396"/><text fill="#000000" font-family="Verdana" font-size="13" lengthAdjust="spacing" textLength="199.3101" x="335.6392" y="672.4102">Either&lt;Error, PaymentResult&gt;</text></g><g class="message" data-participant-1="UseCase" data-participant-2="UseCase"><line style="stroke:#000000;stroke-width:1;" x1="318.6392" x2="360.6392" y1="706.939" y2="706.939"/><line style="stroke:#000000;stroke-width:1;" x1="360.6392" x2="360.6392" y1="706.939" y2="719.939"/><line style="stroke:#000000;stroke-width:1;" x1="319.6392" x2="360.6392" y1="719.939" y2="719.939"/><polygon fill="#000000" points="329.6392,715.939,319.6392,719.939,329.6392,723.939,325.6392,719.939" style="stroke:#000000;stroke-width:1;"/><text fill="#000000" font-family="Verdana" font-size="13" lengthAdjust="spacing" textLength="172.9355" x="325.6392" y="702.2095">Create OrderCreatedEvent</text></g><g class="message" data-participant-1="UseCase" data-participant-2="EventPub"><polygon fill="#000000" points="1349.0044,745.7383,1359.0044,749.7383,1349.0044,753.7383,1353.0044,749.7383" style="stroke:#000000;stroke-width:1;"/><line style="stroke:#000000;stroke-width:1;" x1="318.6392" x2="1355.0044" y1="749.7383" y2="749.7383"/><text fill="#000000" font-family="Verdana" font-size="13" lengthAdjust="spacing" textLength="94.8975" x="325.6392" y="745.0088">publish(event)</text></g><g class="message" data-participant-1="EventPub" data-participant-2="Kafka"><polygon fill="#000000" points="1647.9443,775.5376,1657.9443,779.5376,1647.9443,783.5376,1651.9443,779.5376" style="stroke:#000000;stroke-width:1;"/><line style="stroke:#000000;stroke-width:1;" x1="1361.0044" x2="1653.9443" y1="779.5376" y2="779.5376"/><text fill="#000000" font-family="Verdana" font-size="13" lengthAdjust="spacing" textLength="119.9326" x="1368.0044" y="774.8081">send(topic, event)</text></g><g class="message" data-participant-1="Kafka" data-participant-2="EventPub"><polygon fill="#000000" points="1372.0044,805.3369,1362.0044,809.3369,1372.0044,813.3369,1368.0044,809.3369" style="stroke:#000000;stroke-width:1;"/><line style="stroke:#000000;stroke-width:1;stroke-dasharray:2,2;" x1="1366.0044" x2="1658.9443" y1="809.3369" y2="809.3369"/><text fill="#000000" font-family="Verdana" font-size="13" lengthAdjust="spacing" textLength="51.9492" x="1378.0044" y="804.6074">Success</text></g><g class="message" data-participant-1="EventPub" data-participant-2="UseCase"><polygon fill="#000000" points="329.6392,835.1362,319.6392,839.1362,329.6392,843.1362,325.6392,839.1362" style="stroke:#000000;stroke-width:1;"/><line style="stroke:#000000;stroke-width:1;stroke-dasharray:2,2;" x1="323.6392" x2="1360.0044" y1="839.1362" y2="839.1362"/><text fill="#000000" font-family="Verdana" font-size="13" lengthAdjust="spacing" textLength="128.1909" x="335.6392" y="834.4067">Either&lt;Error, Unit&gt;</text></g><g class="message" data-participant-1="UseCase" data-participant-2="UseCase"><line style="stroke:#000000;stroke-width:1;" x1="318.6392" x2="360.6392" y1="868.9355" y2="868.9355"/><line style="stroke:#000000;stroke-width:1;" x1="360.6392" x2="360.6392" y1="868.9355" y2="881.9355"/><line style="stroke:#000000;stroke-width:1;" x1="319.6392" x2="360.6392" y1="881.9355" y2="881.9355"/><polygon fill="#000000" points="329.6392,877.9355,319.6392,881.9355,329.6392,885.9355,325.6392,881.9355" style="stroke:#000000;stroke-width:1;"/><text fill="#000000" font-family="Verdana" font-size="13" lengthAdjust="spacing" textLength="109.2178" x="325.6392" y="864.2061">Map to OrderDto</text></g><g class="message" data-participant-1="UseCase" data-participant-2="Controller"><polygon fill="#000000" points="99.4121,907.7349,89.4121,911.7349,99.4121,915.7349,95.4121,911.7349" style="stroke:#000000;stroke-width:1;"/><line style="stroke:#000000;stroke-width:1;stroke-dasharray:2,2;" x1="93.4121" x2="312.6392" y1="911.7349" y2="911.7349"/><text fill="#000000" font-family="Verdana" font-size="13" lengthAdjust="spacing" textLength="161.9604" x="105.4121" y="907.0054">Either&lt;Error, OrderDto&gt;</text></g><g class="message" data-participant-1="Controller" data-participant-2="Controller"><line style="stroke:#000000;stroke-width:1;" x1="88.4121" x2="130.4121" y1="941.5342" y2="941.5342"/><line style="stroke:#000000;stroke-width:1;" x1="130.4121" x2="130.4121" y1="941.5342" y2="954.5342"/><line style="stroke:#000000;stroke-width:1;" x1="89.4121" x2="130.4121" y1="954.5342" y2="954.5342"/><polygon fill="#000000" points="99.4121,950.5342,89.4121,954.5342,99.4121,958.5342,95.4121,954.5342" style="stroke:#000000;stroke-width:1;"/><text fill="#000000" font-family="Verdana" font-size="13" lengthAdjust="spacing" textLength="148.478" x="95.4121" y="936.8047">Map to OrderResponse</text></g><g class="message" data-participant-1="Controller" data-participant-2="Client"><polygon fill="#000000" points="1759.521,980.3335,1769.521,984.3335,1759.521,988.3335,1763.521,984.3335" style="stroke:#000000;stroke-width:1;"/><line style="stroke:#000000;stroke-width:1;stroke-dasharray:2,2;" x1="88.4121" x2="1765.521" y1="984.3335" y2="984.3335"/><text fill="#000000" font-family="Verdana" font-size="13" lengthAdjust="spacing" textLength="182.2349" x="95.4121" y="979.604">HTTP 200 + OrderResponse</text></g><path d="M10,997.3335 L10,1070.3335 L392,1070.3335 L392,1007.3335 L382,997.3335 L10,997.3335" fill="#FFFFFF" style="stroke:#000000;stroke-width:1;"/><path d="M382,997.3335 L382,1007.3335 L392,1007.3335 L382,997.3335" fill="#FFFFFF" style="stroke:#000000;stroke-width:1;"/><text fill="#000000" font-family="Verdana" font-size="13" font-weight="bold" lengthAdjust="spacing" textLength="138.3535" x="127.6638" y="1015.4033">Presentation Layer</text><text fill="#000000" font-family="Verdana" font-size="13" lengthAdjust="spacing" textLength="114.7275" x="127.6638" y="1031.2026">&#8226; Input validation</text><text fill="#000000" font-family="Verdana" font-size="13" lengthAdjust="spacing" textLength="105.6821" x="127.6638" y="1047.002">&#8226; HTTP handling</text><text fill="#000000" font-family="Verdana" font-size="13" lengthAdjust="spacing" textLength="135.0654" x="127.6638" y="1062.8013">&#8226; Response mapping</text><path d="M229,1080.5308 L229,1153.5308 L1444,1153.5308 L1444,1090.5308 L1434,1080.5308 L229,1080.5308" fill="#FFFFFF" style="stroke:#000000;stroke-width:1;"/><path d="M1434,1080.5308 L1434,1090.5308 L1444,1090.5308 L1434,1080.5308" fill="#FFFFFF" style="stroke:#000000;stroke-width:1;"/><text fill="#000000" font-family="Verdana" font-size="13" font-weight="bold" lengthAdjust="spacing" textLength="127.0103" x="752.2334" y="1098.6006">Application Layer</text><text fill="#000000" font-family="Verdana" font-size="13" lengthAdjust="spacing" textLength="160.1704" x="752.2334" y="1114.3999">&#8226; Use case orchestration</text><text fill="#000000" font-family="Verdana" font-size="13" lengthAdjust="spacing" textLength="146.9927" x="752.2334" y="1130.1992">&#8226; Domain coordination</text><text fill="#000000" font-family="Verdana" font-size="13" lengthAdjust="spacing" textLength="106.5073" x="752.2334" y="1145.9985">&#8226; Port interfaces</text><path d="M445,1163.728 L445,1236.728 L1089,1236.728 L1089,1173.728 L1079,1163.728 L445,1163.728" fill="#FFFFFF" style="stroke:#000000;stroke-width:1;"/><path d="M1079,1163.728 L1079,1173.728 L1089,1173.728 L1079,1163.728" fill="#FFFFFF" style="stroke:#000000;stroke-width:1;"/><text fill="#000000" font-family="Verdana" font-size="13" font-weight="bold" lengthAdjust="spacing" textLength="100.8262" x="688.2344" y="1181.7979">Domain Layer</text><text fill="#000000" font-family="Verdana" font-size="13" lengthAdjust="spacing" textLength="121.0942" x="688.2344" y="1197.5972">&#8226; Business entities</text><text fill="#000000" font-family="Verdana" font-size="13" lengthAdjust="spacing" textLength="118.9995" x="688.2344" y="1213.3965">&#8226; Domain services</text><text fill="#000000" font-family="Verdana" font-size="13" lengthAdjust="spacing" textLength="149.4746" x="688.2344" y="1229.1958">&#8226; Repository interfaces</text><path d="M1457,1246.9253 L1457,1319.9253 L1722,1319.9253 L1722,1256.9253 L1712,1246.9253 L1457,1246.9253" fill="#FFFFFF" style="stroke:#000000;stroke-width:1;"/><path d="M1712,1246.9253 L1712,1256.9253 L1722,1256.9253 L1712,1246.9253" fill="#FFFFFF" style="stroke:#000000;stroke-width:1;"/><text fill="#000000" font-family="Verdana" font-size="13" font-weight="bold" lengthAdjust="spacing" textLength="149.2461" x="1492.262" y="1264.9951">Infrastructure Layer</text><text fill="#000000" font-family="Verdana" font-size="13" lengthAdjust="spacing" textLength="147.856" x="1492.262" y="1280.7944">&#8226; External integrations</text><text fill="#000000" font-family="Verdana" font-size="13" lengthAdjust="spacing" textLength="185.6753" x="1492.262" y="1296.5938">&#8226; Technical implementations</text><text fill="#000000" font-family="Verdana" font-size="13" lengthAdjust="spacing" textLength="121.9829" x="1492.262" y="1312.3931">&#8226; Adapter patterns</text><!--SRC=[XLRDRXCn4BxxAGPw82c9L26uH2XIcoQY0aJK5kx6EsciUctZzORcnhFmQ3m9uxLtursIqaEr7N_ppUVvSr_uBPO8Ld6fcPTU8Noj41QSVgsK-GbJM3Za7k6BAz31yecNLY5ZbZilXRHSUtXvkxoxXuNHtXcbqBq4NcL_mjdLszLg-Qxl4saRLeeO0ZPkwJluBD-jLWEVklAcH7UBrbJI6xUFeSWSJ70MmbozxJkjdIbguGS-mNhQfv4ryEXifyBGftwuGxUJ0bECndG2p_SbQf_mQ-Dyz8dcu_TVxkXeNNzNijgYwtnQyt6dE- -anSk2MvzA4orm5aGDqH_vvf7duCRGOTahkCKVDLOUDjGUBAloT9xLV0RVk995Q1mNyGDeglCCfDwPHnnbxR0mPSbrCMPSUBaB50dCMDiT8LOg-WmsKXTN-vjY959xt91lrnFJFDXIKh-xzqldZ9j0sqxp7d47NcnHF49B2lWaArynfeoni35au68BqcF9W7uoXhQtCcasDc5G5i1TzpsZBlNjVCW-q9UOWU-uLFoxLDBl6UhYn9toOQQk2U2UygPZPo2u4hKYQB3Wo0JyfCl5cBMj_Qn-yYoQIFq4TuCqWuhl4lcO7URh6T8ZT6bYPY4J0gig_JtYfQcr9z7SKTRRkIA7sFvqnort3pYoyUGQFIMm6hCq7TESEdtSObKhV-1wvlAvm_p_jOZVHJF9FNGxstIzEFSZ39OnwuQUGCsCKZQfx2Dlh1GJIAWulTCUqLqjGfuoXjFt-AhbAVcVkGLlelnhRmwOmI8uKa22prc1_yxtwNMIHwEiMgC9dyC3NiccMX_kxzVmvk82NW_mJ1kAPdQ4FxXEkl1XqCxFrmufaPvxQJHyudjqv-VDqPzVl-56szh3Bkus0dG7JSmjhIr5Oz5PsyXGScl30LK8WeXSIWe_wKgKX5nQgwGuhYCyqY9aspYnfUtg-cgkJKaFEWX3ioLr_omy6xHrQRzlEFN1KKdjzfoq6o59Ihn3DLTr9JMrLDmeaaW7GghuobLPOjgtzNzIuZXEOeyd6JTwupXTclPUxV0VESidOjHSDTGFCJM7qFSejfhoIiVXNvcohVK1aPu_iDm7eapNNm00]--></g></svg>